%TF.GenerationSoftware,KiCad,Pcbnew,9.0.6*%
%TF.CreationDate,2025-12-14T23:52:50+01:00*%
%TF.ProjectId,ledConnect,6c656443-6f6e-46e6-9563-742e6b696361,rev?*%
%TF.SameCoordinates,Original*%
%TF.FileFunction,Paste,Top*%
%TF.FilePolarity,Positive*%
%FSLAX46Y46*%
G04 Gerber Fmt 4.6, Leading zero omitted, Abs format (unit mm)*
G04 Created by KiCad (PCBNEW 9.0.6) date 2025-12-14 23:52:50*
%MOMM*%
%LPD*%
G01*
G04 APERTURE LIST*
G04 Aperture macros list*
%AMRoundRect*
0 Rectangle with rounded corners*
0 $1 Rounding radius*
0 $2 $3 $4 $5 $6 $7 $8 $9 X,Y pos of 4 corners*
0 Add a 4 corners polygon primitive as box body*
4,1,4,$2,$3,$4,$5,$6,$7,$8,$9,$2,$3,0*
0 Add four circle primitives for the rounded corners*
1,1,$1+$1,$2,$3*
1,1,$1+$1,$4,$5*
1,1,$1+$1,$6,$7*
1,1,$1+$1,$8,$9*
0 Add four rect primitives between the rounded corners*
20,1,$1+$1,$2,$3,$4,$5,0*
20,1,$1+$1,$4,$5,$6,$7,0*
20,1,$1+$1,$6,$7,$8,$9,0*
20,1,$1+$1,$8,$9,$2,$3,0*%
%AMFreePoly0*
4,1,17,0.635355,0.585355,0.650000,0.550000,0.650000,-0.550000,0.635355,-0.585355,0.600000,-0.600000,-0.600000,-0.600000,-0.635355,-0.585355,-0.650000,-0.550000,-0.650000,0.200000,-0.635355,0.235355,-0.600000,0.250000,-0.250000,0.250000,-0.250000,0.550000,-0.235355,0.585355,-0.200000,0.600000,0.600000,0.600000,0.635355,0.585355,0.635355,0.585355,$1*%
%AMFreePoly1*
4,1,17,0.585355,0.325355,0.600000,0.290000,0.600000,-0.310000,0.585355,-0.345355,0.550000,-0.360000,-0.200000,-0.360000,-0.235355,-0.345355,-0.250000,-0.310000,-0.250000,0.100000,-0.570000,0.100000,-0.605355,0.114645,-0.620000,0.150000,-0.620000,0.290000,-0.605355,0.325355,-0.570000,0.340000,0.550000,0.340000,0.585355,0.325355,0.585355,0.325355,$1*%
%AMFreePoly2*
4,1,17,0.605355,0.325355,0.620000,0.290000,0.620000,0.150000,0.605355,0.114645,0.570000,0.100000,0.250000,0.100000,0.250000,-0.310000,0.235355,-0.345355,0.200000,-0.360000,-0.550000,-0.360000,-0.585355,-0.345355,-0.600000,-0.310000,-0.600000,0.290000,-0.585355,0.325355,-0.550000,0.340000,0.570000,0.340000,0.605355,0.325355,0.605355,0.325355,$1*%
%AMFreePoly3*
4,1,17,0.235355,0.585355,0.250000,0.550000,0.250000,0.250000,0.600000,0.250000,0.635355,0.235355,0.650000,0.200000,0.650000,-0.550000,0.635355,-0.585355,0.600000,-0.600000,-0.600000,-0.600000,-0.635355,-0.585355,-0.650000,-0.550000,-0.650000,0.550000,-0.635355,0.585355,-0.600000,0.600000,0.200000,0.600000,0.235355,0.585355,0.235355,0.585355,$1*%
G04 Aperture macros list end*
%ADD10RoundRect,0.250000X1.100000X-0.412500X1.100000X0.412500X-1.100000X0.412500X-1.100000X-0.412500X0*%
%ADD11RoundRect,0.237500X-0.237500X0.300000X-0.237500X-0.300000X0.237500X-0.300000X0.237500X0.300000X0*%
%ADD12RoundRect,0.237500X0.237500X-0.250000X0.237500X0.250000X-0.237500X0.250000X-0.237500X-0.250000X0*%
%ADD13FreePoly0,180.000000*%
%ADD14R,1.100000X0.400000*%
%ADD15R,0.850000X0.250000*%
%ADD16FreePoly1,180.000000*%
%ADD17R,0.250000X0.700000*%
%ADD18R,0.250000X0.850000*%
%ADD19FreePoly2,180.000000*%
%ADD20FreePoly3,180.000000*%
%ADD21R,0.400000X3.000000*%
%ADD22O,2.050000X0.590000*%
%ADD23RoundRect,0.237500X-0.250000X-0.237500X0.250000X-0.237500X0.250000X0.237500X-0.250000X0.237500X0*%
%ADD24R,4.000000X3.500000*%
%ADD25RoundRect,0.237500X0.237500X-0.300000X0.237500X0.300000X-0.237500X0.300000X-0.237500X-0.300000X0*%
%ADD26RoundRect,0.250000X-0.475000X0.337500X-0.475000X-0.337500X0.475000X-0.337500X0.475000X0.337500X0*%
%ADD27RoundRect,0.237500X0.300000X0.237500X-0.300000X0.237500X-0.300000X-0.237500X0.300000X-0.237500X0*%
%ADD28RoundRect,0.237500X0.250000X0.237500X-0.250000X0.237500X-0.250000X-0.237500X0.250000X-0.237500X0*%
G04 APERTURE END LIST*
D10*
%TO.C,Cout1*%
X150482500Y-101452500D03*
X150482500Y-98327500D03*
%TD*%
D11*
%TO.C,Cinx1*%
X145732500Y-84007500D03*
X145732500Y-85732500D03*
%TD*%
D12*
%TO.C,Rt1*%
X139882500Y-79432500D03*
X139882500Y-77607500D03*
%TD*%
D11*
%TO.C,Cinx2*%
X138852500Y-84037500D03*
X138852500Y-85762500D03*
%TD*%
D13*
%TO.C,U2*%
X143662500Y-85030000D03*
D14*
X143702500Y-83670000D03*
D15*
X143832500Y-82600000D03*
X143832500Y-82100000D03*
X143832500Y-81600000D03*
D16*
X143682500Y-80950000D03*
D17*
X142782500Y-81000000D03*
D18*
X142282500Y-81070000D03*
D17*
X141782500Y-81000000D03*
D19*
X140882500Y-80950000D03*
D15*
X140732500Y-81600000D03*
X140732500Y-82100000D03*
X140732500Y-82600000D03*
D14*
X140862500Y-83670000D03*
D20*
X140912500Y-85030000D03*
D21*
X142282500Y-84080000D03*
%TD*%
D22*
%TO.C,Q1*%
X164582500Y-93937500D03*
X164582500Y-92657500D03*
X164582500Y-91397500D03*
X164582500Y-90127500D03*
X159042500Y-90127500D03*
X159042500Y-91397500D03*
X159042500Y-92657500D03*
X159042500Y-93937500D03*
%TD*%
D23*
%TO.C,R1*%
X161000000Y-88600000D03*
X162825000Y-88600000D03*
%TD*%
D24*
%TO.C,L1*%
X142282500Y-88920000D03*
X142282500Y-100920000D03*
%TD*%
D25*
%TO.C,Cbias1*%
X146982500Y-80082500D03*
X146982500Y-78357500D03*
%TD*%
D26*
%TO.C,Cin2*%
X136572500Y-84532500D03*
X136572500Y-86607500D03*
%TD*%
D25*
%TO.C,Cboot1*%
X148482500Y-82182500D03*
X148482500Y-80457500D03*
%TD*%
D12*
%TO.C,Rreset1*%
X138382500Y-80912500D03*
X138382500Y-79087500D03*
%TD*%
D26*
%TO.C,Cin1*%
X147982500Y-84482500D03*
X147982500Y-86557500D03*
%TD*%
D27*
%TO.C,Cvcc1*%
X144045000Y-79120000D03*
X142320000Y-79120000D03*
%TD*%
D28*
%TO.C,R2*%
X162825000Y-87000000D03*
X161000000Y-87000000D03*
%TD*%
D23*
%TO.C,Rfbb1*%
X141457500Y-77620000D03*
X143282500Y-77620000D03*
%TD*%
D28*
%TO.C,Rfbt1*%
X143295000Y-76120000D03*
X141470000Y-76120000D03*
%TD*%
M02*
