%TF.GenerationSoftware,KiCad,Pcbnew,9.0.6*%
%TF.CreationDate,2025-12-14T23:52:50+01:00*%
%TF.ProjectId,ledConnect,6c656443-6f6e-46e6-9563-742e6b696361,rev?*%
%TF.SameCoordinates,Original*%
%TF.FileFunction,Copper,L2,Inr*%
%TF.FilePolarity,Positive*%
%FSLAX46Y46*%
G04 Gerber Fmt 4.6, Leading zero omitted, Abs format (unit mm)*
G04 Created by KiCad (PCBNEW 9.0.6) date 2025-12-14 23:52:50*
%MOMM*%
%LPD*%
G01*
G04 APERTURE LIST*
%TA.AperFunction,ComponentPad*%
%ADD10O,2.700000X1.800000*%
%TD*%
%TA.AperFunction,ComponentPad*%
%ADD11C,1.600000*%
%TD*%
%TA.AperFunction,ComponentPad*%
%ADD12O,3.000000X3.500000*%
%TD*%
%TA.AperFunction,ViaPad*%
%ADD13C,0.600000*%
%TD*%
%TA.AperFunction,Conductor*%
%ADD14C,0.200000*%
%TD*%
G04 APERTURE END LIST*
D10*
%TO.N,VIN2*%
%TO.C,SW1*%
X169612500Y-88000000D03*
%TO.N,Net-(Q1-S-Pad1)*%
X169612500Y-92700000D03*
%TO.N,VDC*%
X169612500Y-97400000D03*
%TD*%
D11*
%TO.N,VDC*%
%TO.C,C1*%
X155832500Y-100200000D03*
%TO.N,GND*%
X160832500Y-100200000D03*
%TD*%
D12*
%TO.N,GND*%
%TO.C,U1*%
X150812500Y-93900000D03*
%TO.N,LED_DATA*%
X152812500Y-90440000D03*
%TO.N,VIN*%
X154812500Y-93900000D03*
%TD*%
D13*
%TO.N,VDC*%
X147150000Y-102760000D03*
X148510000Y-78660000D03*
X142110000Y-75000000D03*
%TO.N,LED_DATA*%
X152810000Y-110775000D03*
X152750000Y-103250000D03*
%TO.N,VIN2*%
X135314764Y-85080000D03*
X135312500Y-84320000D03*
X146732500Y-84270000D03*
X136174764Y-83380000D03*
X149252500Y-85080000D03*
X137834764Y-84270000D03*
X146995918Y-83514609D03*
X148392500Y-83380000D03*
X135524764Y-83640000D03*
X136884764Y-83380000D03*
X149042500Y-83640000D03*
X137571346Y-83514609D03*
X147682500Y-83380000D03*
X149242500Y-84320000D03*
%TD*%
D14*
%TO.N,VDC*%
X147150000Y-105858877D02*
X147150000Y-102680000D01*
X172280000Y-87190000D02*
X172280000Y-98750000D01*
X152592123Y-111301000D02*
X147150000Y-105858877D01*
X148510000Y-78660000D02*
X157120000Y-87270000D01*
X172280000Y-98750000D02*
X159729000Y-111301000D01*
X142110000Y-75000000D02*
X160090000Y-75000000D01*
X162100000Y-77010000D02*
X172280000Y-87190000D01*
X159729000Y-111301000D02*
X152592123Y-111301000D01*
X160090000Y-75000000D02*
X162100000Y-77010000D01*
X157120000Y-87270000D02*
X157120000Y-98912500D01*
X157120000Y-98912500D02*
X155832500Y-100200000D01*
%TO.N,LED_DATA*%
X152750000Y-103250000D02*
X152750000Y-103050000D01*
X152812500Y-102987500D02*
X152812500Y-90440000D01*
X152812500Y-103312500D02*
X152750000Y-103250000D01*
X152750000Y-103050000D02*
X152812500Y-102987500D01*
X152812500Y-110337500D02*
X152810000Y-110340000D01*
X152812500Y-110337500D02*
X152812500Y-103312500D01*
X152810000Y-110340000D02*
X152810000Y-110775000D01*
%TD*%
%TA.AperFunction,Conductor*%
%TO.N,GND*%
G36*
X153258357Y-71405186D02*
G01*
X154139093Y-71441615D01*
X154144171Y-71441930D01*
X155022658Y-71514724D01*
X155027673Y-71515243D01*
X155902426Y-71624281D01*
X155907497Y-71625019D01*
X156776953Y-71770106D01*
X156781962Y-71771049D01*
X157644687Y-71951944D01*
X157649654Y-71953093D01*
X158245622Y-72104012D01*
X158504166Y-72169484D01*
X158509109Y-72170845D01*
X159353954Y-72422367D01*
X159358784Y-72423915D01*
X160008366Y-72646916D01*
X160192506Y-72710132D01*
X160197318Y-72711896D01*
X160352203Y-72772332D01*
X161018509Y-73032325D01*
X161023173Y-73034257D01*
X161662064Y-73314501D01*
X161830448Y-73388361D01*
X161835069Y-73390502D01*
X162627039Y-73777673D01*
X162631479Y-73779958D01*
X163406768Y-74199523D01*
X163411212Y-74202049D01*
X163566024Y-74294297D01*
X164127493Y-74628860D01*
X164168442Y-74653260D01*
X164172786Y-74655972D01*
X164322962Y-74754086D01*
X164910733Y-75138096D01*
X164914964Y-75140988D01*
X165632346Y-75653188D01*
X165636427Y-75656231D01*
X166034230Y-75965853D01*
X166332037Y-76197646D01*
X166336016Y-76200877D01*
X167008638Y-76770558D01*
X167012480Y-76773950D01*
X167661015Y-77370969D01*
X167664713Y-77374518D01*
X168287981Y-77997786D01*
X168291530Y-78001484D01*
X168888549Y-78650019D01*
X168891941Y-78653861D01*
X169461622Y-79326483D01*
X169464853Y-79330462D01*
X169772748Y-79726044D01*
X170006262Y-80026064D01*
X170009311Y-80030153D01*
X170521511Y-80747535D01*
X170524403Y-80751766D01*
X171006525Y-81489709D01*
X171009239Y-81494057D01*
X171460450Y-82251287D01*
X171462982Y-82255743D01*
X171505112Y-82333593D01*
X171882531Y-83031002D01*
X171884835Y-83035478D01*
X172271983Y-83827401D01*
X172274138Y-83832051D01*
X172628227Y-84639290D01*
X172630188Y-84644025D01*
X172950603Y-85465181D01*
X172952367Y-85469993D01*
X173238576Y-86303690D01*
X173240140Y-86308571D01*
X173491654Y-87153391D01*
X173493015Y-87158333D01*
X173709403Y-88012832D01*
X173710558Y-88017825D01*
X173891447Y-88880523D01*
X173892395Y-88885560D01*
X174037479Y-89755001D01*
X174038218Y-89760073D01*
X174147251Y-90634785D01*
X174147779Y-90639883D01*
X174220567Y-91518309D01*
X174220885Y-91523425D01*
X174257313Y-92404142D01*
X174257419Y-92409266D01*
X174257419Y-93290733D01*
X174257313Y-93295857D01*
X174220885Y-94176574D01*
X174220567Y-94181690D01*
X174147779Y-95060116D01*
X174147251Y-95065214D01*
X174038218Y-95939926D01*
X174037479Y-95944998D01*
X173892395Y-96814439D01*
X173891447Y-96819476D01*
X173710558Y-97682174D01*
X173709403Y-97687167D01*
X173493015Y-98541666D01*
X173491654Y-98546608D01*
X173240140Y-99391428D01*
X173238576Y-99396309D01*
X172952367Y-100230006D01*
X172950603Y-100234818D01*
X172630188Y-101055974D01*
X172628227Y-101060709D01*
X172274138Y-101867948D01*
X172271983Y-101872598D01*
X171884845Y-102664501D01*
X171882515Y-102669029D01*
X171462982Y-103444256D01*
X171460450Y-103448712D01*
X171009239Y-104205942D01*
X171006525Y-104210290D01*
X170524403Y-104948233D01*
X170521511Y-104952464D01*
X170009311Y-105669846D01*
X170006247Y-105673955D01*
X169464853Y-106369537D01*
X169461622Y-106373516D01*
X168891941Y-107046138D01*
X168888549Y-107049980D01*
X168291530Y-107698515D01*
X168287981Y-107702213D01*
X167664713Y-108325481D01*
X167661015Y-108329030D01*
X167012480Y-108926049D01*
X167008638Y-108929441D01*
X166336016Y-109499122D01*
X166332037Y-109502353D01*
X165636455Y-110043747D01*
X165632346Y-110046811D01*
X164914964Y-110559011D01*
X164910733Y-110561903D01*
X164172790Y-111044025D01*
X164168442Y-111046739D01*
X163411212Y-111497950D01*
X163406756Y-111500482D01*
X163220092Y-111601500D01*
X162631517Y-111920021D01*
X162627001Y-111922345D01*
X162036911Y-112210822D01*
X161835098Y-112309483D01*
X161830448Y-112311638D01*
X161023209Y-112665727D01*
X161018474Y-112667688D01*
X160197318Y-112988103D01*
X160192506Y-112989867D01*
X159358809Y-113276076D01*
X159353928Y-113277640D01*
X158509108Y-113529154D01*
X158504166Y-113530515D01*
X157649667Y-113746903D01*
X157644674Y-113748058D01*
X156781976Y-113928947D01*
X156776939Y-113929895D01*
X155907498Y-114074979D01*
X155902426Y-114075718D01*
X155027714Y-114184751D01*
X155022616Y-114185279D01*
X154144190Y-114258067D01*
X154139074Y-114258385D01*
X153258358Y-114294813D01*
X153253234Y-114294919D01*
X152371766Y-114294919D01*
X152366642Y-114294813D01*
X151485925Y-114258385D01*
X151480809Y-114258067D01*
X150602383Y-114185279D01*
X150597285Y-114184751D01*
X149722573Y-114075718D01*
X149717501Y-114074979D01*
X148848060Y-113929895D01*
X148843023Y-113928947D01*
X147980325Y-113748058D01*
X147975332Y-113746903D01*
X147120833Y-113530515D01*
X147115891Y-113529154D01*
X146271071Y-113277640D01*
X146266190Y-113276076D01*
X145432493Y-112989867D01*
X145427681Y-112988103D01*
X144799441Y-112742964D01*
X144606514Y-112667683D01*
X144601802Y-112665732D01*
X144380923Y-112568845D01*
X143794551Y-112311638D01*
X143789901Y-112309483D01*
X142997978Y-111922335D01*
X142993502Y-111920031D01*
X142293971Y-111541464D01*
X142218243Y-111500482D01*
X142213787Y-111497950D01*
X141456557Y-111046739D01*
X141452209Y-111044025D01*
X140714266Y-110561903D01*
X140710035Y-110559011D01*
X139992653Y-110046811D01*
X139988564Y-110043762D01*
X139688544Y-109810248D01*
X139292962Y-109502353D01*
X139288983Y-109499122D01*
X138616361Y-108929441D01*
X138612519Y-108926049D01*
X137963984Y-108329030D01*
X137960286Y-108325481D01*
X137337018Y-107702213D01*
X137333469Y-107698515D01*
X136736450Y-107049980D01*
X136733058Y-107046138D01*
X136163377Y-106373516D01*
X136160146Y-106369537D01*
X135928353Y-106071730D01*
X135618731Y-105673927D01*
X135615688Y-105669846D01*
X135103488Y-104952464D01*
X135100596Y-104948233D01*
X134618474Y-104210290D01*
X134615760Y-104205942D01*
X134164549Y-103448712D01*
X134162017Y-103444256D01*
X133742458Y-102668979D01*
X133740173Y-102664539D01*
X133353002Y-101872569D01*
X133350861Y-101867948D01*
X133277001Y-101699564D01*
X132996757Y-101060673D01*
X132994825Y-101056009D01*
X132674396Y-100234818D01*
X132672632Y-100230006D01*
X132609416Y-100045866D01*
X132386415Y-99396284D01*
X132384867Y-99391454D01*
X132133345Y-98546608D01*
X132131984Y-98541666D01*
X131972377Y-97911391D01*
X131915593Y-97687154D01*
X131914441Y-97682174D01*
X131873436Y-97486611D01*
X131733549Y-96819462D01*
X131732604Y-96814439D01*
X131710682Y-96683070D01*
X131587519Y-95944997D01*
X131586781Y-95939926D01*
X131564815Y-95763706D01*
X131477743Y-95065173D01*
X131477224Y-95060158D01*
X131404430Y-94181671D01*
X131404114Y-94176574D01*
X131388559Y-93800500D01*
X131367687Y-93295857D01*
X131367581Y-93290733D01*
X131367581Y-92409266D01*
X131367687Y-92404142D01*
X131375369Y-92218404D01*
X131404115Y-91523403D01*
X131404432Y-91518309D01*
X131409384Y-91458549D01*
X131477224Y-90639836D01*
X131477743Y-90634831D01*
X131586781Y-89760066D01*
X131587520Y-89755001D01*
X131640706Y-89436274D01*
X131732608Y-88885537D01*
X131733547Y-88880546D01*
X131914446Y-88017801D01*
X131915590Y-88012855D01*
X132131986Y-87158322D01*
X132133345Y-87153391D01*
X132134224Y-87150438D01*
X132384871Y-86308531D01*
X132386410Y-86303729D01*
X132672634Y-85469985D01*
X132674396Y-85465181D01*
X132994832Y-84643972D01*
X132996750Y-84639342D01*
X133350864Y-83832042D01*
X133352993Y-83827449D01*
X133740183Y-83035440D01*
X133742448Y-83031039D01*
X133861447Y-82811148D01*
X133910665Y-82761561D01*
X133978882Y-82746453D01*
X134044437Y-82770624D01*
X134086518Y-82826400D01*
X134094500Y-82870169D01*
X134094500Y-85476772D01*
X134099062Y-85519825D01*
X134099063Y-85519835D01*
X134109943Y-85570609D01*
X134112241Y-85580203D01*
X134112242Y-85580206D01*
X134154749Y-85661184D01*
X134200175Y-85714271D01*
X134217655Y-85732334D01*
X134297193Y-85777476D01*
X134297197Y-85777477D01*
X134297199Y-85777478D01*
X134364072Y-85797566D01*
X134364109Y-85797577D01*
X134421954Y-85806261D01*
X149519086Y-85900032D01*
X150273946Y-85904721D01*
X150273946Y-85904720D01*
X150273954Y-85904721D01*
X150318292Y-85900163D01*
X150370573Y-85888959D01*
X150381373Y-85886337D01*
X150462085Y-85843327D01*
X150514889Y-85797572D01*
X150532843Y-85779981D01*
X150577490Y-85700164D01*
X150597175Y-85633125D01*
X150605500Y-85575227D01*
X150605500Y-82724077D01*
X150600790Y-82680332D01*
X150589552Y-82628750D01*
X150587044Y-82618510D01*
X150543985Y-82537825D01*
X150543984Y-82537824D01*
X150543983Y-82537822D01*
X150498202Y-82485053D01*
X150480596Y-82467107D01*
X150480591Y-82467103D01*
X150400749Y-82422508D01*
X150333699Y-82402865D01*
X150275789Y-82394576D01*
X134423794Y-82404422D01*
X134380173Y-82409133D01*
X134380163Y-82409134D01*
X134328767Y-82420333D01*
X134311096Y-82424655D01*
X134310674Y-82422930D01*
X134250664Y-82427680D01*
X134189089Y-82394660D01*
X134155140Y-82333593D01*
X134159596Y-82263865D01*
X134169576Y-82242850D01*
X134615775Y-81494032D01*
X134618458Y-81489734D01*
X135100606Y-80751750D01*
X135103488Y-80747535D01*
X135195423Y-80618771D01*
X135615709Y-80030124D01*
X135618713Y-80026095D01*
X136160148Y-79330458D01*
X136163377Y-79326483D01*
X136287285Y-79180185D01*
X136733083Y-78653832D01*
X136736425Y-78650047D01*
X136787920Y-78594108D01*
X148009500Y-78594108D01*
X148009500Y-78725892D01*
X148021814Y-78771848D01*
X148043608Y-78853187D01*
X148076554Y-78910250D01*
X148109500Y-78967314D01*
X148202686Y-79060500D01*
X148316814Y-79126392D01*
X148444108Y-79160500D01*
X148444110Y-79160500D01*
X148534167Y-79160500D01*
X148601206Y-79180185D01*
X148621848Y-79196819D01*
X156783181Y-87358152D01*
X156816666Y-87419475D01*
X156819500Y-87445833D01*
X156819500Y-98736666D01*
X156799815Y-98803705D01*
X156783181Y-98824347D01*
X156356335Y-99251192D01*
X156295012Y-99284677D01*
X156225320Y-99279693D01*
X156221202Y-99278072D01*
X156124339Y-99237950D01*
X156124329Y-99237947D01*
X155931043Y-99199500D01*
X155931041Y-99199500D01*
X155733959Y-99199500D01*
X155733957Y-99199500D01*
X155540670Y-99237947D01*
X155540660Y-99237950D01*
X155358592Y-99313364D01*
X155358579Y-99313371D01*
X155194718Y-99422860D01*
X155194714Y-99422863D01*
X155055363Y-99562214D01*
X155055360Y-99562218D01*
X154945871Y-99726079D01*
X154945864Y-99726092D01*
X154870450Y-99908160D01*
X154870447Y-99908170D01*
X154832000Y-100101456D01*
X154832000Y-100101459D01*
X154832000Y-100298541D01*
X154832000Y-100298543D01*
X154831999Y-100298543D01*
X154870447Y-100491829D01*
X154870450Y-100491839D01*
X154945864Y-100673907D01*
X154945871Y-100673920D01*
X155055360Y-100837781D01*
X155055363Y-100837785D01*
X155194714Y-100977136D01*
X155194718Y-100977139D01*
X155358579Y-101086628D01*
X155358592Y-101086635D01*
X155540660Y-101162049D01*
X155540665Y-101162051D01*
X155540669Y-101162051D01*
X155540670Y-101162052D01*
X155733956Y-101200500D01*
X155733959Y-101200500D01*
X155931043Y-101200500D01*
X156061082Y-101174632D01*
X156124335Y-101162051D01*
X156306414Y-101086632D01*
X156470282Y-100977139D01*
X156609639Y-100837782D01*
X156719132Y-100673914D01*
X156794551Y-100491835D01*
X156833000Y-100298541D01*
X156833000Y-100101459D01*
X156833000Y-100101456D01*
X156794552Y-99908170D01*
X156794551Y-99908169D01*
X156794551Y-99908165D01*
X156754425Y-99811294D01*
X156746957Y-99741828D01*
X156778232Y-99679349D01*
X156781276Y-99676194D01*
X157360460Y-99097011D01*
X157387313Y-99050500D01*
X157400021Y-99028489D01*
X157420500Y-98952062D01*
X157420500Y-97313389D01*
X168062000Y-97313389D01*
X168062000Y-97486611D01*
X168089098Y-97657701D01*
X168142627Y-97822445D01*
X168221268Y-97976788D01*
X168323086Y-98116928D01*
X168445572Y-98239414D01*
X168585712Y-98341232D01*
X168740055Y-98419873D01*
X168904799Y-98473402D01*
X169075889Y-98500500D01*
X169075890Y-98500500D01*
X170149110Y-98500500D01*
X170149111Y-98500500D01*
X170320201Y-98473402D01*
X170484945Y-98419873D01*
X170639288Y-98341232D01*
X170779428Y-98239414D01*
X170901914Y-98116928D01*
X171003732Y-97976788D01*
X171082373Y-97822445D01*
X171135902Y-97657701D01*
X171163000Y-97486611D01*
X171163000Y-97313389D01*
X171135902Y-97142299D01*
X171082373Y-96977555D01*
X171003732Y-96823212D01*
X170901914Y-96683072D01*
X170779428Y-96560586D01*
X170639288Y-96458768D01*
X170484945Y-96380127D01*
X170320201Y-96326598D01*
X170320199Y-96326597D01*
X170320198Y-96326597D01*
X170188771Y-96305781D01*
X170149111Y-96299500D01*
X169075889Y-96299500D01*
X169036228Y-96305781D01*
X168904802Y-96326597D01*
X168740052Y-96380128D01*
X168585711Y-96458768D01*
X168505756Y-96516859D01*
X168445572Y-96560586D01*
X168445570Y-96560588D01*
X168445569Y-96560588D01*
X168323088Y-96683069D01*
X168323088Y-96683070D01*
X168323086Y-96683072D01*
X168279359Y-96743256D01*
X168221268Y-96823211D01*
X168142628Y-96977552D01*
X168089097Y-97142302D01*
X168062000Y-97313389D01*
X157420500Y-97313389D01*
X157420500Y-92613389D01*
X168062000Y-92613389D01*
X168062000Y-92786611D01*
X168089098Y-92957701D01*
X168142627Y-93122445D01*
X168221268Y-93276788D01*
X168323086Y-93416928D01*
X168445572Y-93539414D01*
X168585712Y-93641232D01*
X168740055Y-93719873D01*
X168904799Y-93773402D01*
X169075889Y-93800500D01*
X169075890Y-93800500D01*
X170149110Y-93800500D01*
X170149111Y-93800500D01*
X170320201Y-93773402D01*
X170484945Y-93719873D01*
X170639288Y-93641232D01*
X170779428Y-93539414D01*
X170901914Y-93416928D01*
X171003732Y-93276788D01*
X171082373Y-93122445D01*
X171135902Y-92957701D01*
X171163000Y-92786611D01*
X171163000Y-92613389D01*
X171135902Y-92442299D01*
X171082373Y-92277555D01*
X171003732Y-92123212D01*
X170901914Y-91983072D01*
X170779428Y-91860586D01*
X170639288Y-91758768D01*
X170484945Y-91680127D01*
X170320201Y-91626598D01*
X170320199Y-91626597D01*
X170320198Y-91626597D01*
X170188771Y-91605781D01*
X170149111Y-91599500D01*
X169075889Y-91599500D01*
X169036228Y-91605781D01*
X168904802Y-91626597D01*
X168740052Y-91680128D01*
X168585711Y-91758768D01*
X168510214Y-91813621D01*
X168445572Y-91860586D01*
X168445570Y-91860588D01*
X168445569Y-91860588D01*
X168323088Y-91983069D01*
X168323088Y-91983070D01*
X168323086Y-91983072D01*
X168284421Y-92036290D01*
X168221268Y-92123211D01*
X168142628Y-92277552D01*
X168089097Y-92442302D01*
X168075781Y-92526377D01*
X168062000Y-92613389D01*
X157420500Y-92613389D01*
X157420500Y-87913389D01*
X168062000Y-87913389D01*
X168062000Y-88086611D01*
X168089098Y-88257701D01*
X168142627Y-88422445D01*
X168221268Y-88576788D01*
X168323086Y-88716928D01*
X168445572Y-88839414D01*
X168585712Y-88941232D01*
X168740055Y-89019873D01*
X168904799Y-89073402D01*
X169075889Y-89100500D01*
X169075890Y-89100500D01*
X170149110Y-89100500D01*
X170149111Y-89100500D01*
X170320201Y-89073402D01*
X170484945Y-89019873D01*
X170639288Y-88941232D01*
X170779428Y-88839414D01*
X170901914Y-88716928D01*
X171003732Y-88576788D01*
X171082373Y-88422445D01*
X171135902Y-88257701D01*
X171163000Y-88086611D01*
X171163000Y-87913389D01*
X171135902Y-87742299D01*
X171082373Y-87577555D01*
X171003732Y-87423212D01*
X170901914Y-87283072D01*
X170779428Y-87160586D01*
X170639288Y-87058768D01*
X170484945Y-86980127D01*
X170320201Y-86926598D01*
X170320199Y-86926597D01*
X170320198Y-86926597D01*
X170188771Y-86905781D01*
X170149111Y-86899500D01*
X169075889Y-86899500D01*
X169036228Y-86905781D01*
X168904802Y-86926597D01*
X168740052Y-86980128D01*
X168585711Y-87058768D01*
X168505756Y-87116859D01*
X168445572Y-87160586D01*
X168445570Y-87160588D01*
X168445569Y-87160588D01*
X168323088Y-87283069D01*
X168323088Y-87283070D01*
X168323086Y-87283072D01*
X168300273Y-87314471D01*
X168221268Y-87423211D01*
X168142628Y-87577552D01*
X168089097Y-87742302D01*
X168081763Y-87788609D01*
X168062000Y-87913389D01*
X157420500Y-87913389D01*
X157420500Y-87230438D01*
X157420265Y-87229562D01*
X157400022Y-87154012D01*
X157360460Y-87085489D01*
X149046819Y-78771848D01*
X149013334Y-78710525D01*
X149010500Y-78684167D01*
X149010500Y-78594110D01*
X149010500Y-78594108D01*
X148976392Y-78466814D01*
X148910500Y-78352686D01*
X148817314Y-78259500D01*
X148760250Y-78226554D01*
X148703187Y-78193608D01*
X148639539Y-78176554D01*
X148575892Y-78159500D01*
X148444108Y-78159500D01*
X148316812Y-78193608D01*
X148202686Y-78259500D01*
X148202683Y-78259502D01*
X148109502Y-78352683D01*
X148109500Y-78352686D01*
X148043608Y-78466812D01*
X148009500Y-78594108D01*
X136787920Y-78594108D01*
X137333492Y-78001459D01*
X137336994Y-77997810D01*
X137960310Y-77374494D01*
X137963959Y-77370992D01*
X138612547Y-76773925D01*
X138616332Y-76770583D01*
X139288986Y-76200874D01*
X139292962Y-76197646D01*
X139523364Y-76018317D01*
X139988595Y-75656213D01*
X139992624Y-75653209D01*
X140710035Y-75140988D01*
X140714250Y-75138106D01*
X141452234Y-74655958D01*
X141456523Y-74653280D01*
X141468295Y-74646266D01*
X141535959Y-74628860D01*
X141602295Y-74650799D01*
X141646239Y-74705119D01*
X141653839Y-74774574D01*
X141646333Y-74800231D01*
X141643610Y-74806804D01*
X141609500Y-74934108D01*
X141609500Y-75065891D01*
X141643608Y-75193187D01*
X141676554Y-75250250D01*
X141709500Y-75307314D01*
X141802686Y-75400500D01*
X141916814Y-75466392D01*
X142044108Y-75500500D01*
X142044110Y-75500500D01*
X142175890Y-75500500D01*
X142175892Y-75500500D01*
X142303186Y-75466392D01*
X142417314Y-75400500D01*
X142480995Y-75336819D01*
X142542318Y-75303334D01*
X142568676Y-75300500D01*
X159914167Y-75300500D01*
X159981206Y-75320185D01*
X160001848Y-75336819D01*
X171943181Y-87278152D01*
X171976666Y-87339475D01*
X171979500Y-87365833D01*
X171979500Y-98574167D01*
X171959815Y-98641206D01*
X171943181Y-98661848D01*
X159640848Y-110964181D01*
X159579525Y-110997666D01*
X159553167Y-111000500D01*
X153429333Y-111000500D01*
X153362294Y-110980815D01*
X153316539Y-110928011D01*
X153306595Y-110858853D01*
X153309558Y-110844409D01*
X153310499Y-110840896D01*
X153310500Y-110840890D01*
X153310500Y-110709110D01*
X153310500Y-110709108D01*
X153276392Y-110581814D01*
X153210500Y-110467686D01*
X153149319Y-110406505D01*
X153115834Y-110345182D01*
X153113000Y-110318824D01*
X153113000Y-103646176D01*
X153132685Y-103579137D01*
X153149319Y-103558495D01*
X153150500Y-103557314D01*
X153216392Y-103443186D01*
X153250500Y-103315892D01*
X153250500Y-103184108D01*
X153216392Y-103056814D01*
X153150500Y-102942686D01*
X153149319Y-102941505D01*
X153148642Y-102940266D01*
X153145553Y-102936240D01*
X153146180Y-102935758D01*
X153115834Y-102880182D01*
X153113000Y-102853824D01*
X153113000Y-95070154D01*
X153132685Y-95003115D01*
X153185489Y-94957360D01*
X153254647Y-94947416D01*
X153318203Y-94976441D01*
X153344386Y-95008153D01*
X153395551Y-95096773D01*
X153395558Y-95096782D01*
X153531251Y-95273622D01*
X153531257Y-95273629D01*
X153688870Y-95431242D01*
X153688876Y-95431247D01*
X153865726Y-95566948D01*
X154058774Y-95678405D01*
X154264719Y-95763710D01*
X154480037Y-95821404D01*
X154701043Y-95850500D01*
X154701050Y-95850500D01*
X154923950Y-95850500D01*
X154923957Y-95850500D01*
X155144963Y-95821404D01*
X155360281Y-95763710D01*
X155566226Y-95678405D01*
X155759274Y-95566948D01*
X155936124Y-95431247D01*
X156093747Y-95273624D01*
X156229448Y-95096774D01*
X156340905Y-94903726D01*
X156426210Y-94697781D01*
X156483904Y-94482463D01*
X156513000Y-94261457D01*
X156513000Y-93538543D01*
X156483904Y-93317537D01*
X156426210Y-93102219D01*
X156340905Y-92896274D01*
X156229448Y-92703226D01*
X156093747Y-92526376D01*
X156093742Y-92526370D01*
X155936129Y-92368757D01*
X155936122Y-92368751D01*
X155759282Y-92233058D01*
X155759280Y-92233057D01*
X155759274Y-92233052D01*
X155566226Y-92121595D01*
X155566222Y-92121593D01*
X155360290Y-92036293D01*
X155360283Y-92036291D01*
X155360281Y-92036290D01*
X155144963Y-91978596D01*
X155144957Y-91978595D01*
X155144952Y-91978594D01*
X154923966Y-91949501D01*
X154923963Y-91949500D01*
X154923957Y-91949500D01*
X154701043Y-91949500D01*
X154701037Y-91949500D01*
X154701033Y-91949501D01*
X154480047Y-91978594D01*
X154480040Y-91978595D01*
X154480037Y-91978596D01*
X154264719Y-92036290D01*
X154264703Y-92036295D01*
X154168675Y-92076071D01*
X154099205Y-92083540D01*
X154036726Y-92052264D01*
X154001075Y-91992175D01*
X154003569Y-91922350D01*
X154033540Y-91873830D01*
X154093747Y-91813624D01*
X154229448Y-91636774D01*
X154340905Y-91443726D01*
X154426210Y-91237781D01*
X154483904Y-91022463D01*
X154513000Y-90801457D01*
X154513000Y-90078543D01*
X154483904Y-89857537D01*
X154426210Y-89642219D01*
X154340905Y-89436274D01*
X154229448Y-89243226D01*
X154093747Y-89066376D01*
X154093742Y-89066370D01*
X153936129Y-88908757D01*
X153936122Y-88908751D01*
X153759282Y-88773058D01*
X153759280Y-88773057D01*
X153759274Y-88773052D01*
X153566226Y-88661595D01*
X153566222Y-88661593D01*
X153360290Y-88576293D01*
X153360283Y-88576291D01*
X153360281Y-88576290D01*
X153144963Y-88518596D01*
X153144957Y-88518595D01*
X153144952Y-88518594D01*
X152923966Y-88489501D01*
X152923963Y-88489500D01*
X152923957Y-88489500D01*
X152701043Y-88489500D01*
X152701037Y-88489500D01*
X152701033Y-88489501D01*
X152480047Y-88518594D01*
X152480040Y-88518595D01*
X152480037Y-88518596D01*
X152264719Y-88576290D01*
X152264709Y-88576293D01*
X152058777Y-88661593D01*
X152058773Y-88661595D01*
X151865726Y-88773052D01*
X151865717Y-88773058D01*
X151688877Y-88908751D01*
X151688870Y-88908757D01*
X151531257Y-89066370D01*
X151531251Y-89066377D01*
X151395558Y-89243217D01*
X151395552Y-89243226D01*
X151284095Y-89436273D01*
X151284093Y-89436277D01*
X151198793Y-89642209D01*
X151198790Y-89642219D01*
X151141097Y-89857534D01*
X151141094Y-89857547D01*
X151112001Y-90078533D01*
X151112000Y-90078549D01*
X151112000Y-90801450D01*
X151112001Y-90801466D01*
X151141094Y-91022452D01*
X151141095Y-91022457D01*
X151141096Y-91022463D01*
X151141097Y-91022465D01*
X151198790Y-91237780D01*
X151198793Y-91237790D01*
X151284093Y-91443722D01*
X151284095Y-91443726D01*
X151395552Y-91636774D01*
X151395557Y-91636780D01*
X151395558Y-91636782D01*
X151531251Y-91813622D01*
X151531257Y-91813629D01*
X151688870Y-91971242D01*
X151688877Y-91971248D01*
X151716150Y-91992175D01*
X151865726Y-92106948D01*
X152058774Y-92218405D01*
X152264719Y-92303710D01*
X152420096Y-92345343D01*
X152479753Y-92381706D01*
X152510283Y-92444552D01*
X152512000Y-92465116D01*
X152512000Y-102737890D01*
X152492315Y-102804929D01*
X152450002Y-102845276D01*
X152442689Y-102849498D01*
X152442683Y-102849502D01*
X152349502Y-102942683D01*
X152349500Y-102942686D01*
X152283608Y-103056812D01*
X152249500Y-103184108D01*
X152249500Y-103315891D01*
X152283608Y-103443187D01*
X152285532Y-103446519D01*
X152349500Y-103557314D01*
X152349502Y-103557316D01*
X152442684Y-103650498D01*
X152442683Y-103650498D01*
X152442685Y-103650499D01*
X152442686Y-103650500D01*
X152449996Y-103654720D01*
X152498212Y-103705282D01*
X152512000Y-103762109D01*
X152512000Y-110274784D01*
X152511776Y-110282233D01*
X152511022Y-110294756D01*
X152509500Y-110300438D01*
X152509500Y-110320050D01*
X152509276Y-110323772D01*
X152498647Y-110353280D01*
X152489815Y-110383362D01*
X152486195Y-110387853D01*
X152485600Y-110389508D01*
X152483672Y-110390985D01*
X152473182Y-110404004D01*
X152409499Y-110467687D01*
X152409493Y-110467694D01*
X152407676Y-110470843D01*
X152405448Y-110472966D01*
X152404552Y-110474135D01*
X152404369Y-110473995D01*
X152357107Y-110519056D01*
X152288499Y-110532275D01*
X152223636Y-110506303D01*
X152212612Y-110496518D01*
X147486819Y-105770725D01*
X147453334Y-105709402D01*
X147450500Y-105683044D01*
X147450500Y-103218676D01*
X147470185Y-103151637D01*
X147486819Y-103130995D01*
X147490704Y-103127110D01*
X147550500Y-103067314D01*
X147616392Y-102953186D01*
X147650500Y-102825892D01*
X147650500Y-102694108D01*
X147616392Y-102566814D01*
X147550500Y-102452686D01*
X147457314Y-102359500D01*
X147400250Y-102326554D01*
X147343187Y-102293608D01*
X147279539Y-102276554D01*
X147215892Y-102259500D01*
X147084108Y-102259500D01*
X146956812Y-102293608D01*
X146842686Y-102359500D01*
X146842683Y-102359502D01*
X146749502Y-102452683D01*
X146749500Y-102452686D01*
X146683608Y-102566812D01*
X146649500Y-102694108D01*
X146649500Y-102825891D01*
X146683608Y-102953187D01*
X146716554Y-103010250D01*
X146749500Y-103067314D01*
X146749502Y-103067316D01*
X146813181Y-103130995D01*
X146846666Y-103192318D01*
X146849500Y-103218676D01*
X146849500Y-105898439D01*
X146863152Y-105949390D01*
X146869979Y-105974867D01*
X146869982Y-105974872D01*
X146909535Y-106043381D01*
X146909539Y-106043386D01*
X146909540Y-106043388D01*
X152351663Y-111485511D01*
X152407612Y-111541460D01*
X152407614Y-111541461D01*
X152407618Y-111541464D01*
X152476127Y-111581017D01*
X152476134Y-111581021D01*
X152552561Y-111601500D01*
X152552563Y-111601500D01*
X159768560Y-111601500D01*
X159768562Y-111601500D01*
X159844989Y-111581021D01*
X159913511Y-111541460D01*
X159969460Y-111485511D01*
X172520460Y-98934511D01*
X172560021Y-98865989D01*
X172580500Y-98789562D01*
X172580500Y-87150438D01*
X172560021Y-87074011D01*
X172560017Y-87074004D01*
X172520464Y-87005495D01*
X172520458Y-87005487D01*
X160274512Y-74759541D01*
X160274507Y-74759537D01*
X160265065Y-74754086D01*
X160265064Y-74754086D01*
X160205991Y-74719980D01*
X160205990Y-74719979D01*
X160180513Y-74713152D01*
X160129562Y-74699500D01*
X160129560Y-74699500D01*
X142568676Y-74699500D01*
X142501637Y-74679815D01*
X142480995Y-74663181D01*
X142417316Y-74599502D01*
X142417314Y-74599500D01*
X142360250Y-74566554D01*
X142303187Y-74533608D01*
X142239539Y-74516554D01*
X142175892Y-74499500D01*
X142164942Y-74499500D01*
X142162855Y-74498887D01*
X142160749Y-74499429D01*
X142129485Y-74489088D01*
X142097903Y-74479815D01*
X142096479Y-74478172D01*
X142094414Y-74477489D01*
X142073696Y-74451879D01*
X142052148Y-74427011D01*
X142051838Y-74424859D01*
X142050470Y-74423168D01*
X142046888Y-74390430D01*
X142042204Y-74357853D01*
X142043107Y-74355874D01*
X142042871Y-74353713D01*
X142057552Y-74324244D01*
X142071229Y-74294297D01*
X142073362Y-74292510D01*
X142074028Y-74291175D01*
X142101468Y-74268977D01*
X142110522Y-74263581D01*
X142213799Y-74202041D01*
X142218210Y-74199535D01*
X142993539Y-73779948D01*
X142997940Y-73777683D01*
X143789949Y-73390493D01*
X143794551Y-73388361D01*
X143936143Y-73326253D01*
X144601842Y-73034250D01*
X144606472Y-73032332D01*
X145427689Y-72711893D01*
X145432485Y-72710134D01*
X146266229Y-72423910D01*
X146271031Y-72422371D01*
X147115903Y-72170841D01*
X147120822Y-72169486D01*
X147975355Y-71953090D01*
X147980301Y-71951946D01*
X148843046Y-71771047D01*
X148848037Y-71770108D01*
X149717509Y-71625018D01*
X149722566Y-71624281D01*
X150597331Y-71515243D01*
X150602336Y-71514724D01*
X151480831Y-71441930D01*
X151485903Y-71441615D01*
X152366642Y-71405186D01*
X152371766Y-71405081D01*
X153253234Y-71405081D01*
X153258357Y-71405186D01*
G37*
%TD.AperFunction*%
%TD*%
%TA.AperFunction,Conductor*%
%TO.N,VIN2*%
G36*
X150342975Y-82619720D02*
G01*
X150388762Y-82672495D01*
X150400000Y-82724077D01*
X150400000Y-85575227D01*
X150380315Y-85642266D01*
X150327511Y-85688021D01*
X150275230Y-85699225D01*
X134423230Y-85600765D01*
X134356314Y-85580664D01*
X134310888Y-85527577D01*
X134300000Y-85476767D01*
X134300000Y-82733923D01*
X134319685Y-82666884D01*
X134372489Y-82621129D01*
X134423922Y-82609923D01*
X150275923Y-82600077D01*
X150342975Y-82619720D01*
G37*
%TD.AperFunction*%
%TD*%
M02*
