%TF.GenerationSoftware,KiCad,Pcbnew,9.0.6*%
%TF.CreationDate,2025-12-05T19:35:02+01:00*%
%TF.ProjectId,ip2366,69703233-3636-42e6-9b69-6361645f7063,rev?*%
%TF.SameCoordinates,Original*%
%TF.FileFunction,Copper,L4,Bot*%
%TF.FilePolarity,Positive*%
%FSLAX46Y46*%
G04 Gerber Fmt 4.6, Leading zero omitted, Abs format (unit mm)*
G04 Created by KiCad (PCBNEW 9.0.6) date 2025-12-05 19:35:02*
%MOMM*%
%LPD*%
G01*
G04 APERTURE LIST*
%TA.AperFunction,Conductor*%
%ADD10C,0.000000*%
%TD*%
%TA.AperFunction,ComponentPad*%
%ADD11C,1.600000*%
%TD*%
%TA.AperFunction,ComponentPad*%
%ADD12O,2.100000X1.000000*%
%TD*%
%TA.AperFunction,ComponentPad*%
%ADD13O,1.800000X1.000000*%
%TD*%
%TA.AperFunction,ComponentPad*%
%ADD14C,2.500000*%
%TD*%
%TA.AperFunction,ComponentPad*%
%ADD15C,1.800000*%
%TD*%
%TA.AperFunction,ViaPad*%
%ADD16C,0.500000*%
%TD*%
%TA.AperFunction,ViaPad*%
%ADD17C,0.600000*%
%TD*%
G04 APERTURE END LIST*
D10*
%TA.AperFunction,Conductor*%
%TO.N,LX1*%
G36*
X130850000Y-69750000D02*
G01*
X130850000Y-73950000D01*
X130650000Y-74150000D01*
X126850000Y-74150000D01*
X126650000Y-73950000D01*
X126650000Y-69750000D01*
X126850000Y-69550000D01*
X130650000Y-69550000D01*
X130850000Y-69750000D01*
G37*
%TD.AperFunction*%
%TA.AperFunction,Conductor*%
%TO.N,-BATT*%
G36*
X154050000Y-64350000D02*
G01*
X154050000Y-68550000D01*
X153850000Y-68750000D01*
X150050000Y-68750000D01*
X149850000Y-68550000D01*
X149850000Y-64350000D01*
X150050000Y-64150000D01*
X153850000Y-64150000D01*
X154050000Y-64350000D01*
G37*
%TD.AperFunction*%
%TA.AperFunction,Conductor*%
%TO.N,LX2*%
G36*
X152627000Y-69750000D02*
G01*
X152627000Y-73950000D01*
X152427000Y-74150000D01*
X148627000Y-74150000D01*
X148427000Y-73950000D01*
X148427000Y-69750000D01*
X148627000Y-69550000D01*
X152427000Y-69550000D01*
X152627000Y-69750000D01*
G37*
%TD.AperFunction*%
%TA.AperFunction,Conductor*%
%TO.N,VBUS-*%
G36*
X129450000Y-64450000D02*
G01*
X129450000Y-68650000D01*
X129250000Y-68850000D01*
X125450000Y-68850000D01*
X125250000Y-68650000D01*
X125250000Y-64450000D01*
X125450000Y-64250000D01*
X129250000Y-64250000D01*
X129450000Y-64450000D01*
G37*
%TD.AperFunction*%
%TD*%
D11*
%TO.P,SW1,3,3*%
%TO.N,GND*%
X100850000Y-78100000D03*
%TO.P,SW1,4,4*%
X100850000Y-70600000D03*
%TD*%
%TO.P,C1,1,1*%
%TO.N,VBUS1*%
X113750000Y-54500000D03*
%TO.P,C1,2,2*%
%TO.N,GND*%
X113750000Y-51000000D03*
%TD*%
%TO.P,C23,1,1*%
%TO.N,+BATT*%
X165450000Y-55050000D03*
%TO.P,C23,2,2*%
%TO.N,GND*%
X165450000Y-51550000D03*
%TD*%
D12*
%TO.P,USB1,1,SHELL*%
%TO.N,GND*%
X106400000Y-58700000D03*
%TO.P,USB1,2,SHELL*%
X106400000Y-67340000D03*
D13*
%TO.P,USB1,3,SHELL*%
X102250000Y-58700000D03*
%TO.P,USB1,4,SHELL*%
X102250000Y-67340000D03*
%TD*%
D14*
%TO.P,CN1,1,-*%
%TO.N,GND*%
X168100000Y-65550000D03*
%TO.P,CN1,2,+*%
%TO.N,+BATT*%
X168100000Y-60550000D03*
D15*
%TO.P,CN1,3,3*%
%TO.N,unconnected-(CN1-Pad3)*%
X178100000Y-57550000D03*
%TO.P,CN1,4,4*%
%TO.N,unconnected-(CN1-Pad4)*%
X178100000Y-68550000D03*
%TD*%
D16*
%TO.N,GND*%
X154650000Y-77350000D03*
X170650000Y-76250000D03*
X111200000Y-51850000D03*
X140650000Y-77350000D03*
X123550000Y-51850000D03*
X130667000Y-52267000D03*
X167850000Y-50650000D03*
X159150000Y-61750000D03*
X167850000Y-51250000D03*
X155269000Y-71485000D03*
X111800000Y-51250000D03*
X121750000Y-50650000D03*
X138249000Y-54452000D03*
X118150000Y-51250000D03*
X121150000Y-51850000D03*
X122667000Y-70267000D03*
X163950000Y-61750000D03*
X170650000Y-74250000D03*
X158550000Y-61150000D03*
X122667000Y-74267000D03*
X160350000Y-61150000D03*
X164650000Y-68250000D03*
X118667000Y-74267000D03*
X160350000Y-62350000D03*
X149650000Y-77350000D03*
X141049000Y-55152000D03*
X164667000Y-76267000D03*
X111800000Y-50650000D03*
X153450000Y-50650000D03*
X111200000Y-52450000D03*
X120667000Y-68267000D03*
X114660000Y-68270000D03*
X102667000Y-68267000D03*
X176667000Y-66267000D03*
X160950000Y-61150000D03*
X158250000Y-50650000D03*
X156667000Y-72267000D03*
X110667000Y-70267000D03*
X174667000Y-58267000D03*
X127650000Y-77350000D03*
X178650000Y-76250000D03*
X174650000Y-72250000D03*
X118667000Y-72267000D03*
X134650000Y-77350000D03*
X122667000Y-76267000D03*
X163650000Y-51250000D03*
X115150000Y-51850000D03*
X172667000Y-54267000D03*
X170650000Y-70250000D03*
X127750000Y-51250000D03*
X176650000Y-78250000D03*
X102667000Y-66267000D03*
X130650000Y-77350000D03*
X178667000Y-64267000D03*
X139649000Y-57252000D03*
X123650000Y-77350000D03*
X116667000Y-66267000D03*
X168650000Y-68250000D03*
X124750000Y-51250000D03*
X174650000Y-70250000D03*
X164250000Y-51850000D03*
X136650000Y-77350000D03*
X176650000Y-76250000D03*
X160950000Y-61750000D03*
X119950000Y-51250000D03*
X174650000Y-68250000D03*
X116950000Y-51850000D03*
X174667000Y-62267000D03*
X176673000Y-50273000D03*
X178667000Y-54267000D03*
X178667000Y-66267000D03*
X114667000Y-74267000D03*
X157950000Y-62350000D03*
X112400000Y-51850000D03*
X166650000Y-50650000D03*
X140349000Y-54452000D03*
X141049000Y-54452000D03*
X164250000Y-50650000D03*
X159750000Y-61150000D03*
X158850000Y-51250000D03*
X159150000Y-62350000D03*
X122667000Y-64267000D03*
X121750000Y-51250000D03*
X167850000Y-51850000D03*
X138949000Y-55152000D03*
X174673000Y-50273000D03*
X168650000Y-76250000D03*
X158550000Y-61750000D03*
X115150000Y-50650000D03*
X115750000Y-51850000D03*
X160050000Y-50650000D03*
X172667000Y-60267000D03*
X156150000Y-60550000D03*
X110600000Y-51850000D03*
X176667000Y-60267000D03*
X130667000Y-54267000D03*
X160667000Y-74267000D03*
X116667000Y-72267000D03*
X112667000Y-76267000D03*
X117550000Y-51850000D03*
X124750000Y-51850000D03*
X120667000Y-66267000D03*
X161550000Y-62350000D03*
X125650000Y-77350000D03*
X111800000Y-52450000D03*
X140349000Y-57252000D03*
X174667000Y-64267000D03*
X153450000Y-51250000D03*
X170670000Y-52270000D03*
X172650000Y-68250000D03*
X157650000Y-50650000D03*
X111200000Y-53050000D03*
X162667000Y-74267000D03*
X163350000Y-62350000D03*
X133650000Y-77350000D03*
X124000000Y-71480000D03*
X122950000Y-50650000D03*
X119350000Y-51850000D03*
X178667000Y-62267000D03*
X158850000Y-51850000D03*
X111800000Y-51850000D03*
X156750000Y-61150000D03*
X163950000Y-62350000D03*
X122667000Y-68267000D03*
X174667000Y-60267000D03*
X163050000Y-51850000D03*
X124000000Y-72080000D03*
X154669000Y-72085000D03*
X161550000Y-61750000D03*
X112400000Y-52450000D03*
X116950000Y-51250000D03*
X106590000Y-56180000D03*
X148200000Y-55401999D03*
X120667000Y-64267000D03*
X158667000Y-72267000D03*
X152850000Y-50650000D03*
X108660000Y-72270000D03*
X142667000Y-48267000D03*
X163050000Y-50650000D03*
X161250000Y-51250000D03*
X121750000Y-51850000D03*
X178667000Y-48267000D03*
X174667000Y-56267000D03*
X176670000Y-52270000D03*
X176650000Y-74250000D03*
X174650000Y-78250000D03*
X124150000Y-50650000D03*
X139649000Y-55152000D03*
X138949000Y-56552000D03*
X178670000Y-52270000D03*
X172670000Y-52270000D03*
X155269000Y-72685000D03*
X148050000Y-50350000D03*
X172673000Y-50273000D03*
X176667000Y-68267000D03*
X160670000Y-76270000D03*
X155850000Y-51250000D03*
X120670000Y-62270000D03*
X166650000Y-68250000D03*
X111200000Y-51250000D03*
X152850000Y-51850000D03*
X124000000Y-70880000D03*
X172667000Y-64267000D03*
X148667000Y-48267000D03*
X138949000Y-57252000D03*
X156750000Y-60550000D03*
X123550000Y-50650000D03*
X140667000Y-50267000D03*
X166667000Y-64267000D03*
X126550000Y-51250000D03*
X170650000Y-72250000D03*
X164650000Y-70250000D03*
X119950000Y-51850000D03*
X115750000Y-51250000D03*
X106600000Y-57400000D03*
X146650000Y-77350000D03*
X122350000Y-51850000D03*
X168650000Y-70250000D03*
X116660000Y-68270000D03*
X116350000Y-50650000D03*
X132700000Y-54000000D03*
X132650000Y-77350000D03*
X118667000Y-70267000D03*
X139649000Y-56552000D03*
X153450000Y-51850000D03*
X156750000Y-61750000D03*
X170670000Y-48270000D03*
X120550000Y-51850000D03*
X110667000Y-74267000D03*
X126550000Y-50650000D03*
X174667000Y-66267000D03*
X172667000Y-58267000D03*
X158550000Y-62350000D03*
X129650000Y-77350000D03*
X158250000Y-51250000D03*
X145650000Y-77350000D03*
X174650000Y-76250000D03*
X138667000Y-48267000D03*
X157350000Y-61750000D03*
X144667000Y-48267000D03*
X118667000Y-66267000D03*
X155269000Y-73285000D03*
X157950000Y-61150000D03*
X158250000Y-51850000D03*
X122950000Y-51850000D03*
X161250000Y-51850000D03*
X178667000Y-60267000D03*
X124000000Y-72680000D03*
X160650000Y-51250000D03*
X110667000Y-72267000D03*
X125950000Y-51850000D03*
X159150000Y-61150000D03*
X155250000Y-51850000D03*
X138249000Y-55152000D03*
X161850000Y-51250000D03*
X156450000Y-51250000D03*
X157950000Y-60550000D03*
X166650000Y-51850000D03*
X156650000Y-77350000D03*
X125350000Y-51850000D03*
X124650000Y-77350000D03*
X163650000Y-51850000D03*
X159450000Y-51250000D03*
X162450000Y-51250000D03*
X102667000Y-64267000D03*
X164250000Y-51250000D03*
X119950000Y-50650000D03*
X172650000Y-70250000D03*
X156450000Y-50650000D03*
X162670000Y-76270000D03*
X141049000Y-55852000D03*
X131400000Y-57150000D03*
X162667000Y-72267000D03*
X108667000Y-76267000D03*
X118667000Y-68267000D03*
X154050000Y-51250000D03*
X161550000Y-60550000D03*
X151650000Y-77350000D03*
X157350000Y-62350000D03*
X110600000Y-53050000D03*
X125350000Y-51250000D03*
X138949000Y-55852000D03*
X116667000Y-70267000D03*
X159450000Y-51850000D03*
X152850000Y-51250000D03*
X167250000Y-50650000D03*
X166650000Y-76250000D03*
X125200000Y-72080000D03*
X157350000Y-60550000D03*
X102667000Y-60267000D03*
X160050000Y-51850000D03*
X162450000Y-50650000D03*
X148200000Y-53952107D03*
X120667000Y-76267000D03*
X176667000Y-48267000D03*
X138249000Y-55852000D03*
X160050000Y-51250000D03*
X160350000Y-61750000D03*
X160650000Y-50650000D03*
X172667000Y-66267000D03*
X156667000Y-74267000D03*
X120550000Y-50650000D03*
X154050000Y-50650000D03*
X112667000Y-72267000D03*
X157350000Y-61150000D03*
X156667000Y-76267000D03*
X159750000Y-60550000D03*
X140349000Y-55152000D03*
X154069000Y-73285000D03*
X125350000Y-50650000D03*
X158670000Y-76270000D03*
X127150000Y-51850000D03*
X170670000Y-50270000D03*
X138650000Y-77350000D03*
X155269000Y-72085000D03*
X161850000Y-51850000D03*
X140349000Y-55852000D03*
X160667000Y-72267000D03*
X125200000Y-70880000D03*
X168650000Y-74250000D03*
X108667000Y-74267000D03*
X110667000Y-76267000D03*
X115150000Y-51250000D03*
X124150000Y-51850000D03*
X141049000Y-56552000D03*
X119350000Y-50650000D03*
X164667000Y-74267000D03*
X126550000Y-51850000D03*
X167250000Y-51850000D03*
X157050000Y-51250000D03*
X174667000Y-54267000D03*
X115750000Y-50650000D03*
X157950000Y-61750000D03*
X163950000Y-61150000D03*
X120550000Y-51250000D03*
X109250000Y-54100000D03*
X162750000Y-62350000D03*
X118667000Y-76267000D03*
X161550000Y-61150000D03*
X161250000Y-50650000D03*
X117550000Y-50650000D03*
X108667000Y-68267000D03*
X158667000Y-74267000D03*
X110600000Y-51250000D03*
X154650000Y-51850000D03*
X110600000Y-52450000D03*
X120667000Y-74267000D03*
X122350000Y-50650000D03*
X114667000Y-76267000D03*
X155250000Y-51250000D03*
X117550000Y-51250000D03*
X178673000Y-50273000D03*
X126650000Y-77350000D03*
X166650000Y-70250000D03*
X154069000Y-72085000D03*
X122350000Y-51250000D03*
X139650000Y-55850000D03*
X122670000Y-62270000D03*
X148650000Y-77350000D03*
X121150000Y-50650000D03*
X140667000Y-48267000D03*
X157050000Y-51850000D03*
X162450000Y-51850000D03*
X124150000Y-51250000D03*
X110600000Y-50650000D03*
X152650000Y-77350000D03*
X120667000Y-72267000D03*
X138949000Y-54452000D03*
X155269000Y-73885000D03*
X120667000Y-70267000D03*
X154650000Y-51250000D03*
X118150000Y-50650000D03*
X157650000Y-51850000D03*
X159750000Y-61750000D03*
X154650000Y-50650000D03*
X102667000Y-62267000D03*
X157050000Y-50650000D03*
X121150000Y-51250000D03*
X172667000Y-48267000D03*
X118750000Y-51850000D03*
X158550000Y-60550000D03*
X153650000Y-77350000D03*
X125950000Y-50650000D03*
X178650000Y-74250000D03*
X124000000Y-70280000D03*
X159750000Y-62350000D03*
X167250000Y-51250000D03*
X176650000Y-72250000D03*
X142650000Y-77350000D03*
X116350000Y-51850000D03*
X159450000Y-50650000D03*
X125950000Y-51250000D03*
X160650000Y-51850000D03*
X108660000Y-70270000D03*
X155650000Y-77350000D03*
X111200000Y-50650000D03*
X118670000Y-62270000D03*
X127150000Y-51250000D03*
X141650000Y-77350000D03*
X141049000Y-57252000D03*
X112667000Y-70267000D03*
X138249000Y-57252000D03*
X172650000Y-72250000D03*
X176667000Y-54267000D03*
X176667000Y-64267000D03*
X178650000Y-72250000D03*
X112667000Y-74267000D03*
X170650000Y-68250000D03*
X139649000Y-54452000D03*
X114667000Y-70267000D03*
X168650000Y-72250000D03*
X148200000Y-56802000D03*
X163050000Y-51250000D03*
X159150000Y-60550000D03*
X170667000Y-66267000D03*
X155850000Y-51850000D03*
X110660000Y-68280000D03*
X122667000Y-72267000D03*
X122950000Y-51250000D03*
X143650000Y-77350000D03*
X119350000Y-51250000D03*
X160950000Y-62350000D03*
X122667000Y-66267000D03*
X118750000Y-50650000D03*
X116950000Y-50650000D03*
X166650000Y-51250000D03*
X124600000Y-72080000D03*
X124600000Y-70880000D03*
X154669000Y-73285000D03*
X155250000Y-50650000D03*
X155850000Y-50650000D03*
X178667000Y-56267000D03*
X127750000Y-51850000D03*
X138249000Y-56552000D03*
X137650000Y-77350000D03*
X118150000Y-51850000D03*
X178650000Y-78250000D03*
X172650000Y-78250000D03*
X174667000Y-48267000D03*
X154050000Y-51850000D03*
X111800000Y-53050000D03*
X114667000Y-72267000D03*
X116667000Y-74267000D03*
X158850000Y-50650000D03*
X124750000Y-50650000D03*
X116667000Y-76267000D03*
X140349000Y-56552000D03*
X112400000Y-51250000D03*
X166667000Y-72267000D03*
X176667000Y-56267000D03*
X172650000Y-74250000D03*
X128667000Y-52267000D03*
X139650000Y-77350000D03*
X127150000Y-50650000D03*
X156450000Y-51850000D03*
X123550000Y-51250000D03*
X157650000Y-51250000D03*
X161850000Y-50650000D03*
X144650000Y-77350000D03*
X127750000Y-50650000D03*
X131650000Y-77350000D03*
X116350000Y-51250000D03*
X176667000Y-62267000D03*
X160350000Y-60550000D03*
X122650000Y-77350000D03*
X163650000Y-50650000D03*
X162150000Y-62350000D03*
X118667000Y-64267000D03*
X160950000Y-60550000D03*
X146667000Y-48267000D03*
X147650000Y-77350000D03*
X118750000Y-51250000D03*
X174670000Y-52270000D03*
X172667000Y-62267000D03*
X138310000Y-61200000D03*
X172667000Y-56267000D03*
X164667000Y-72267000D03*
X135650000Y-77350000D03*
X166667000Y-74267000D03*
D17*
%TO.N,VBUS*%
X109887500Y-60625000D03*
D16*
X134800000Y-54600000D03*
%TO.N,LX1*%
X129510000Y-71380000D03*
X128110000Y-73480000D03*
X128810000Y-71380000D03*
X127410000Y-73480000D03*
X129510000Y-73480000D03*
X128810000Y-72780000D03*
X130210000Y-70680000D03*
X129510000Y-72080000D03*
X130210000Y-72080000D03*
X130210000Y-73480000D03*
X129510000Y-72780000D03*
X130210000Y-72780000D03*
X127410000Y-71380000D03*
X127410000Y-72080000D03*
X128810000Y-70680000D03*
X127410000Y-70680000D03*
X128810000Y-73480000D03*
X128110000Y-71380000D03*
X128810000Y-72080000D03*
X130210000Y-71380000D03*
X129510000Y-70680000D03*
X128110000Y-70680000D03*
X127410000Y-72780000D03*
X128110000Y-72080000D03*
X128110000Y-72780000D03*
%TO.N,LX2*%
X149760000Y-73380000D03*
X150460000Y-73380000D03*
X150460000Y-72680000D03*
X149060000Y-73380000D03*
X149060000Y-72680000D03*
X151860000Y-73380000D03*
X151160000Y-71980000D03*
X151160000Y-71280000D03*
X149060000Y-71980000D03*
X151860000Y-71980000D03*
X150460000Y-70580000D03*
X149060000Y-71280000D03*
X149760000Y-71280000D03*
X151160000Y-73380000D03*
X151160000Y-72680000D03*
X150460000Y-71280000D03*
X150460000Y-71980000D03*
X149760000Y-72680000D03*
X151860000Y-70580000D03*
X149760000Y-70580000D03*
X151860000Y-71280000D03*
X151860000Y-72680000D03*
X149760000Y-71980000D03*
X149060000Y-70580000D03*
X151160000Y-70580000D03*
D17*
%TO.N,+BATT*%
X103625000Y-77650000D03*
D16*
%TO.N,VBUS-*%
X127339000Y-67250000D03*
X125939000Y-67950000D03*
X128694000Y-65106000D03*
X128739000Y-67950000D03*
X125939000Y-67250000D03*
X126639000Y-65150000D03*
X128739000Y-67250000D03*
X128739000Y-65850000D03*
X127350000Y-66550000D03*
X128039000Y-67950000D03*
X127994000Y-65806000D03*
X126639000Y-66550000D03*
X126639000Y-65850000D03*
X127339000Y-65850000D03*
X127339000Y-65150000D03*
X128039000Y-65150000D03*
X126639000Y-67250000D03*
X128739000Y-66550000D03*
X125939000Y-65150000D03*
X125939000Y-65850000D03*
X126639000Y-67950000D03*
X128039000Y-67250000D03*
X128039000Y-66550000D03*
X127339000Y-67950000D03*
X125939000Y-66550000D03*
%TO.N,-BATT*%
X151961000Y-65049000D03*
X150561000Y-66449000D03*
X152661000Y-67149000D03*
X153361000Y-66449000D03*
X151261000Y-66449000D03*
X152661000Y-65749000D03*
X152661000Y-66449000D03*
X150561000Y-65749000D03*
X151261000Y-67849000D03*
X153361000Y-67149000D03*
X151961000Y-67149000D03*
X152661000Y-67849000D03*
X151961000Y-65751000D03*
X152661000Y-65049000D03*
X153361000Y-65049000D03*
X150561000Y-65049000D03*
X151961000Y-66450000D03*
X153361000Y-67849000D03*
X150561000Y-67149000D03*
X151261000Y-67149000D03*
X153361000Y-65749000D03*
X150561000Y-67849000D03*
X151961000Y-67849000D03*
X151261000Y-65749000D03*
X151261000Y-65049000D03*
%TO.N,LED1*%
X134950000Y-49650000D03*
X137150000Y-52550000D03*
%TO.N,LED3*%
X137350000Y-49650000D03*
X141850000Y-52750000D03*
%TO.N,VBUSG*%
X135573857Y-55372056D03*
D17*
X120200000Y-60700000D03*
D16*
%TO.N,LED2*%
X136450000Y-52350000D03*
X133950000Y-49650000D03*
%TO.N,LG1*%
X127510000Y-75420000D03*
X139150000Y-60350000D03*
%TO.N,LG2*%
X140150000Y-60350000D03*
X151740000Y-75340000D03*
%TO.N,VSET*%
X142750000Y-52750000D03*
X161600000Y-65700000D03*
%TO.N,PSET*%
X143350000Y-53350000D03*
X149000000Y-53800000D03*
X149000000Y-55550000D03*
X158350000Y-65650000D03*
%TO.N,BAT_NUM*%
X160050000Y-65650000D03*
X144550000Y-54850000D03*
%TO.N,CC_BDO*%
X156950000Y-65650000D03*
X144450000Y-56250000D03*
%TO.N,CC1*%
X105850000Y-61250000D03*
X135650000Y-52350000D03*
%TO.N,DM*%
X105050000Y-61950000D03*
X135150000Y-51850000D03*
%TO.N,DP*%
X134650000Y-51350000D03*
X104350000Y-62850000D03*
%TO.N,CC2*%
X134150000Y-50850000D03*
X104650000Y-64550000D03*
%TO.N,EN*%
X140750000Y-52150000D03*
D17*
X106550000Y-71200000D03*
D16*
%TO.N,Net-(R21-Pad2)*%
X143970067Y-53929933D03*
X141020000Y-61250000D03*
%TD*%
%TA.AperFunction,Conductor*%
%TO.N,GND*%
G36*
X179462539Y-47390185D02*
G01*
X179508294Y-47442989D01*
X179519500Y-47494500D01*
X179519500Y-78945500D01*
X179499815Y-79012539D01*
X179447011Y-79058294D01*
X179395500Y-79069500D01*
X99944500Y-79069500D01*
X99877461Y-79049815D01*
X99831706Y-78997011D01*
X99820500Y-78945500D01*
X99820500Y-77576999D01*
X103070500Y-77576999D01*
X103070500Y-77723000D01*
X103108288Y-77864028D01*
X103108289Y-77864031D01*
X103181286Y-77990467D01*
X103181288Y-77990470D01*
X103181289Y-77990471D01*
X103284529Y-78093711D01*
X103410971Y-78166712D01*
X103551999Y-78204500D01*
X103552001Y-78204500D01*
X103697999Y-78204500D01*
X103698001Y-78204500D01*
X103839029Y-78166712D01*
X103965471Y-78093711D01*
X104068711Y-77990471D01*
X104141712Y-77864029D01*
X104179500Y-77723001D01*
X104179500Y-77576999D01*
X104141712Y-77435971D01*
X104068711Y-77309529D01*
X103965471Y-77206289D01*
X103965470Y-77206288D01*
X103965467Y-77206286D01*
X103839031Y-77133289D01*
X103839030Y-77133288D01*
X103839029Y-77133288D01*
X103698001Y-77095500D01*
X103551999Y-77095500D01*
X103410971Y-77133288D01*
X103410968Y-77133289D01*
X103284532Y-77206286D01*
X103284527Y-77206290D01*
X103181290Y-77309527D01*
X103181286Y-77309532D01*
X103108289Y-77435968D01*
X103108288Y-77435971D01*
X103070500Y-77576999D01*
X99820500Y-77576999D01*
X99820500Y-75438389D01*
X100524500Y-75438389D01*
X100524500Y-75561610D01*
X100548535Y-75682444D01*
X100548538Y-75682454D01*
X100595687Y-75796283D01*
X100595692Y-75796292D01*
X100664141Y-75898732D01*
X100664144Y-75898736D01*
X100751263Y-75985855D01*
X100751267Y-75985858D01*
X100853707Y-76054307D01*
X100853713Y-76054310D01*
X100853714Y-76054311D01*
X100967548Y-76101463D01*
X101088389Y-76125499D01*
X101088393Y-76125500D01*
X101088394Y-76125500D01*
X101211607Y-76125500D01*
X101211608Y-76125499D01*
X101332452Y-76101463D01*
X101446286Y-76054311D01*
X101548733Y-75985858D01*
X101635858Y-75898733D01*
X101704311Y-75796286D01*
X101751463Y-75682452D01*
X101775500Y-75561606D01*
X101775500Y-75438394D01*
X101758630Y-75353581D01*
X127005500Y-75353581D01*
X127005500Y-75486419D01*
X127039881Y-75614730D01*
X127106300Y-75729770D01*
X127200230Y-75823700D01*
X127315270Y-75890119D01*
X127443581Y-75924500D01*
X127443584Y-75924500D01*
X127576416Y-75924500D01*
X127576419Y-75924500D01*
X127704730Y-75890119D01*
X127819770Y-75823700D01*
X127913700Y-75729770D01*
X127980119Y-75614730D01*
X128014500Y-75486419D01*
X128014500Y-75353581D01*
X127993064Y-75273581D01*
X151235500Y-75273581D01*
X151235500Y-75406419D01*
X151269881Y-75534730D01*
X151336300Y-75649770D01*
X151430230Y-75743700D01*
X151545270Y-75810119D01*
X151673581Y-75844500D01*
X151673584Y-75844500D01*
X151806416Y-75844500D01*
X151806419Y-75844500D01*
X151934730Y-75810119D01*
X152049770Y-75743700D01*
X152143700Y-75649770D01*
X152210119Y-75534730D01*
X152244500Y-75406419D01*
X152244500Y-75273581D01*
X152210119Y-75145270D01*
X152143700Y-75030230D01*
X152049770Y-74936300D01*
X151934730Y-74869881D01*
X151806419Y-74835500D01*
X151673581Y-74835500D01*
X151545270Y-74869881D01*
X151545268Y-74869881D01*
X151545268Y-74869882D01*
X151430230Y-74936300D01*
X151430227Y-74936302D01*
X151336302Y-75030227D01*
X151336300Y-75030230D01*
X151290112Y-75110230D01*
X151269881Y-75145270D01*
X151235500Y-75273581D01*
X127993064Y-75273581D01*
X127980119Y-75225270D01*
X127913700Y-75110230D01*
X127819770Y-75016300D01*
X127704730Y-74949881D01*
X127576419Y-74915500D01*
X127443581Y-74915500D01*
X127315270Y-74949881D01*
X127315268Y-74949881D01*
X127315268Y-74949882D01*
X127200230Y-75016300D01*
X127200227Y-75016302D01*
X127106302Y-75110227D01*
X127106300Y-75110230D01*
X127052331Y-75203707D01*
X127039881Y-75225270D01*
X127005500Y-75353581D01*
X101758630Y-75353581D01*
X101751463Y-75317548D01*
X101704311Y-75203714D01*
X101704310Y-75203713D01*
X101704307Y-75203707D01*
X101635858Y-75101267D01*
X101635855Y-75101263D01*
X101548736Y-75014144D01*
X101548732Y-75014141D01*
X101446292Y-74945692D01*
X101446283Y-74945687D01*
X101332454Y-74898538D01*
X101332455Y-74898538D01*
X101332452Y-74898537D01*
X101332448Y-74898536D01*
X101332444Y-74898535D01*
X101211610Y-74874500D01*
X101211606Y-74874500D01*
X101088394Y-74874500D01*
X101088389Y-74874500D01*
X100967555Y-74898535D01*
X100967545Y-74898538D01*
X100853716Y-74945687D01*
X100853707Y-74945692D01*
X100751267Y-75014141D01*
X100751263Y-75014144D01*
X100664144Y-75101263D01*
X100664141Y-75101267D01*
X100595692Y-75203707D01*
X100595687Y-75203716D01*
X100548538Y-75317545D01*
X100548535Y-75317555D01*
X100524500Y-75438389D01*
X99820500Y-75438389D01*
X99820500Y-73138389D01*
X100524500Y-73138389D01*
X100524500Y-73261610D01*
X100548535Y-73382444D01*
X100548538Y-73382454D01*
X100595687Y-73496283D01*
X100595692Y-73496292D01*
X100664141Y-73598732D01*
X100664144Y-73598736D01*
X100751263Y-73685855D01*
X100751267Y-73685858D01*
X100853707Y-73754307D01*
X100853713Y-73754310D01*
X100853714Y-73754311D01*
X100967548Y-73801463D01*
X101088389Y-73825499D01*
X101088393Y-73825500D01*
X101088394Y-73825500D01*
X101211607Y-73825500D01*
X101211608Y-73825499D01*
X101332452Y-73801463D01*
X101446286Y-73754311D01*
X101548733Y-73685858D01*
X101635858Y-73598733D01*
X101704311Y-73496286D01*
X101751463Y-73382452D01*
X101775500Y-73261606D01*
X101775500Y-73138394D01*
X101751463Y-73017548D01*
X101704311Y-72903714D01*
X101704310Y-72903713D01*
X101704307Y-72903707D01*
X101635858Y-72801267D01*
X101635855Y-72801263D01*
X101548736Y-72714144D01*
X101548732Y-72714141D01*
X101446292Y-72645692D01*
X101446283Y-72645687D01*
X101332454Y-72598538D01*
X101332455Y-72598538D01*
X101332452Y-72598537D01*
X101332448Y-72598536D01*
X101332444Y-72598535D01*
X101211610Y-72574500D01*
X101211606Y-72574500D01*
X101088394Y-72574500D01*
X101088389Y-72574500D01*
X100967555Y-72598535D01*
X100967545Y-72598538D01*
X100853716Y-72645687D01*
X100853707Y-72645692D01*
X100751267Y-72714141D01*
X100751263Y-72714144D01*
X100664144Y-72801263D01*
X100664141Y-72801267D01*
X100595692Y-72903707D01*
X100595687Y-72903716D01*
X100548538Y-73017545D01*
X100548535Y-73017555D01*
X100524500Y-73138389D01*
X99820500Y-73138389D01*
X99820500Y-71126999D01*
X105995500Y-71126999D01*
X105995500Y-71273000D01*
X106033288Y-71414028D01*
X106033289Y-71414031D01*
X106106286Y-71540467D01*
X106106288Y-71540470D01*
X106106289Y-71540471D01*
X106209529Y-71643711D01*
X106335971Y-71716712D01*
X106476999Y-71754500D01*
X106477001Y-71754500D01*
X106622999Y-71754500D01*
X106623001Y-71754500D01*
X106764029Y-71716712D01*
X106890471Y-71643711D01*
X106993711Y-71540471D01*
X107066712Y-71414029D01*
X107104500Y-71273001D01*
X107104500Y-71126999D01*
X107066712Y-70985971D01*
X106993711Y-70859529D01*
X106890471Y-70756289D01*
X106890470Y-70756288D01*
X106890467Y-70756286D01*
X106764031Y-70683289D01*
X106764030Y-70683288D01*
X106764029Y-70683288D01*
X106623001Y-70645500D01*
X106476999Y-70645500D01*
X106335971Y-70683288D01*
X106335968Y-70683289D01*
X106209532Y-70756286D01*
X106209527Y-70756290D01*
X106106290Y-70859527D01*
X106106286Y-70859532D01*
X106033289Y-70985968D01*
X106033288Y-70985971D01*
X105995500Y-71126999D01*
X99820500Y-71126999D01*
X99820500Y-65847399D01*
X105424500Y-65847399D01*
X105424500Y-65972601D01*
X105456905Y-66093536D01*
X105519505Y-66201964D01*
X105608036Y-66290495D01*
X105716464Y-66353095D01*
X105837399Y-66385500D01*
X105837401Y-66385500D01*
X105962599Y-66385500D01*
X105962601Y-66385500D01*
X106083536Y-66353095D01*
X106191964Y-66290495D01*
X106280495Y-66201964D01*
X106343095Y-66093536D01*
X106375500Y-65972601D01*
X106375500Y-65847399D01*
X106343095Y-65726464D01*
X106280495Y-65618036D01*
X106191964Y-65529505D01*
X106083536Y-65466905D01*
X106083537Y-65466905D01*
X106040107Y-65455268D01*
X105962601Y-65434500D01*
X105837399Y-65434500D01*
X105759893Y-65455268D01*
X105716463Y-65466905D01*
X105608037Y-65529504D01*
X105608034Y-65529506D01*
X105519506Y-65618034D01*
X105519504Y-65618037D01*
X105456905Y-65726463D01*
X105456905Y-65726464D01*
X105424500Y-65847399D01*
X99820500Y-65847399D01*
X99820500Y-64483581D01*
X104145500Y-64483581D01*
X104145500Y-64616419D01*
X104179881Y-64744730D01*
X104246300Y-64859770D01*
X104340230Y-64953700D01*
X104455270Y-65020119D01*
X104583581Y-65054500D01*
X104583584Y-65054500D01*
X104716416Y-65054500D01*
X104716419Y-65054500D01*
X104844730Y-65020119D01*
X104959770Y-64953700D01*
X105053700Y-64859770D01*
X105120119Y-64744730D01*
X105154500Y-64616419D01*
X105154500Y-64483581D01*
X105145501Y-64449995D01*
X124990500Y-64449995D01*
X124990500Y-68650004D01*
X125010251Y-68749303D01*
X125010253Y-68749307D01*
X125066502Y-68833489D01*
X125066508Y-68833497D01*
X125266502Y-69033491D01*
X125266510Y-69033497D01*
X125350692Y-69089746D01*
X125350696Y-69089748D01*
X125449995Y-69109499D01*
X125449999Y-69109500D01*
X126642369Y-69109500D01*
X126709408Y-69129185D01*
X126755163Y-69181989D01*
X126765107Y-69251147D01*
X126736082Y-69314703D01*
X126711260Y-69336602D01*
X126666506Y-69366505D01*
X126666502Y-69366508D01*
X126466508Y-69566502D01*
X126466502Y-69566510D01*
X126410253Y-69650692D01*
X126410251Y-69650696D01*
X126390500Y-69749995D01*
X126390500Y-73950004D01*
X126410251Y-74049303D01*
X126410253Y-74049307D01*
X126466502Y-74133489D01*
X126466508Y-74133497D01*
X126666502Y-74333491D01*
X126666510Y-74333497D01*
X126750692Y-74389746D01*
X126750696Y-74389748D01*
X126849995Y-74409499D01*
X126849999Y-74409500D01*
X126850000Y-74409500D01*
X130650001Y-74409500D01*
X130650002Y-74409499D01*
X130683400Y-74402856D01*
X130749303Y-74389748D01*
X130749304Y-74389747D01*
X130749306Y-74389747D01*
X130833494Y-74333494D01*
X131033494Y-74133494D01*
X131089747Y-74049306D01*
X131109500Y-73950000D01*
X131109500Y-69750000D01*
X131109499Y-69749995D01*
X148167500Y-69749995D01*
X148167500Y-73950004D01*
X148187251Y-74049303D01*
X148187253Y-74049307D01*
X148243502Y-74133489D01*
X148243508Y-74133497D01*
X148443502Y-74333491D01*
X148443510Y-74333497D01*
X148527692Y-74389746D01*
X148527696Y-74389748D01*
X148626995Y-74409499D01*
X148626999Y-74409500D01*
X148627000Y-74409500D01*
X152427001Y-74409500D01*
X152427002Y-74409499D01*
X152460400Y-74402856D01*
X152526303Y-74389748D01*
X152526304Y-74389747D01*
X152526306Y-74389747D01*
X152610494Y-74333494D01*
X152810494Y-74133494D01*
X152866747Y-74049306D01*
X152886500Y-73950000D01*
X152886500Y-69750000D01*
X152871795Y-69676071D01*
X152866748Y-69650696D01*
X152866746Y-69650692D01*
X152810497Y-69566510D01*
X152810491Y-69566502D01*
X152610497Y-69366508D01*
X152610489Y-69366502D01*
X152526307Y-69310253D01*
X152526303Y-69310251D01*
X152427004Y-69290500D01*
X152427000Y-69290500D01*
X148627000Y-69290500D01*
X148626995Y-69290500D01*
X148527696Y-69310251D01*
X148527692Y-69310253D01*
X148443510Y-69366502D01*
X148443502Y-69366508D01*
X148243508Y-69566502D01*
X148243502Y-69566510D01*
X148187253Y-69650692D01*
X148187251Y-69650696D01*
X148167500Y-69749995D01*
X131109499Y-69749995D01*
X131094795Y-69676071D01*
X131089748Y-69650696D01*
X131089746Y-69650692D01*
X131033497Y-69566510D01*
X131033491Y-69566502D01*
X130833497Y-69366508D01*
X130833489Y-69366502D01*
X130749307Y-69310253D01*
X130749303Y-69310251D01*
X130650004Y-69290500D01*
X130650000Y-69290500D01*
X129457631Y-69290500D01*
X129390592Y-69270815D01*
X129344837Y-69218011D01*
X129334893Y-69148853D01*
X129363918Y-69085297D01*
X129388740Y-69063398D01*
X129396165Y-69058436D01*
X129433494Y-69033494D01*
X129633494Y-68833494D01*
X129689747Y-68749306D01*
X129709500Y-68650000D01*
X129709500Y-64450000D01*
X129693209Y-64368098D01*
X129693209Y-64368096D01*
X129689747Y-64350695D01*
X129689746Y-64350692D01*
X129689280Y-64349995D01*
X149590500Y-64349995D01*
X149590500Y-68550004D01*
X149610251Y-68649303D01*
X149610253Y-68649307D01*
X149666502Y-68733489D01*
X149666508Y-68733497D01*
X149866502Y-68933491D01*
X149866510Y-68933497D01*
X149950692Y-68989746D01*
X149950696Y-68989748D01*
X150049995Y-69009499D01*
X150049999Y-69009500D01*
X150050000Y-69009500D01*
X153850001Y-69009500D01*
X153850002Y-69009499D01*
X153883400Y-69002856D01*
X153949303Y-68989748D01*
X153949304Y-68989747D01*
X153949306Y-68989747D01*
X154033494Y-68933494D01*
X154233494Y-68733494D01*
X154289747Y-68649306D01*
X154309500Y-68550000D01*
X154309500Y-68459139D01*
X176945500Y-68459139D01*
X176945500Y-68640861D01*
X176946948Y-68650001D01*
X176973928Y-68820347D01*
X176973928Y-68820350D01*
X177030081Y-68993171D01*
X177030083Y-68993174D01*
X177112583Y-69155090D01*
X177219397Y-69302106D01*
X177347894Y-69430603D01*
X177494910Y-69537417D01*
X177656826Y-69619917D01*
X177656828Y-69619918D01*
X177751542Y-69650692D01*
X177829654Y-69676072D01*
X178009139Y-69704500D01*
X178009140Y-69704500D01*
X178190860Y-69704500D01*
X178190861Y-69704500D01*
X178370346Y-69676072D01*
X178370349Y-69676071D01*
X178370350Y-69676071D01*
X178543171Y-69619918D01*
X178543171Y-69619917D01*
X178543174Y-69619917D01*
X178705090Y-69537417D01*
X178852106Y-69430603D01*
X178980603Y-69302106D01*
X179087417Y-69155090D01*
X179169917Y-68993174D01*
X179171030Y-68989748D01*
X179226071Y-68820350D01*
X179226071Y-68820349D01*
X179226072Y-68820346D01*
X179254500Y-68640861D01*
X179254500Y-68459139D01*
X179226072Y-68279654D01*
X179226071Y-68279650D01*
X179226071Y-68279649D01*
X179169918Y-68106828D01*
X179169916Y-68106825D01*
X179087416Y-67944909D01*
X178980603Y-67797894D01*
X178852106Y-67669397D01*
X178705090Y-67562583D01*
X178543174Y-67480083D01*
X178543171Y-67480081D01*
X178370348Y-67423928D01*
X178250689Y-67404976D01*
X178190861Y-67395500D01*
X178009139Y-67395500D01*
X177949310Y-67404976D01*
X177829652Y-67423928D01*
X177829649Y-67423928D01*
X177656828Y-67480081D01*
X177656825Y-67480083D01*
X177494909Y-67562583D01*
X177411030Y-67623525D01*
X177347894Y-67669397D01*
X177347892Y-67669399D01*
X177347891Y-67669399D01*
X177219399Y-67797891D01*
X177219399Y-67797892D01*
X177219397Y-67797894D01*
X177173525Y-67861030D01*
X177112583Y-67944909D01*
X177030083Y-68106825D01*
X177030081Y-68106828D01*
X176973928Y-68279649D01*
X176973928Y-68279652D01*
X176973928Y-68279654D01*
X176945500Y-68459139D01*
X154309500Y-68459139D01*
X154309500Y-65583581D01*
X156445500Y-65583581D01*
X156445500Y-65716419D01*
X156479881Y-65844730D01*
X156546300Y-65959770D01*
X156640230Y-66053700D01*
X156755270Y-66120119D01*
X156883581Y-66154500D01*
X156883584Y-66154500D01*
X157016416Y-66154500D01*
X157016419Y-66154500D01*
X157144730Y-66120119D01*
X157259770Y-66053700D01*
X157353700Y-65959770D01*
X157420119Y-65844730D01*
X157454500Y-65716419D01*
X157454500Y-65583581D01*
X157845500Y-65583581D01*
X157845500Y-65716419D01*
X157879881Y-65844730D01*
X157946300Y-65959770D01*
X158040230Y-66053700D01*
X158155270Y-66120119D01*
X158283581Y-66154500D01*
X158283584Y-66154500D01*
X158416416Y-66154500D01*
X158416419Y-66154500D01*
X158544730Y-66120119D01*
X158659770Y-66053700D01*
X158753700Y-65959770D01*
X158820119Y-65844730D01*
X158854500Y-65716419D01*
X158854500Y-65583581D01*
X159545500Y-65583581D01*
X159545500Y-65716419D01*
X159579881Y-65844730D01*
X159646300Y-65959770D01*
X159740230Y-66053700D01*
X159855270Y-66120119D01*
X159983581Y-66154500D01*
X159983584Y-66154500D01*
X160116416Y-66154500D01*
X160116419Y-66154500D01*
X160244730Y-66120119D01*
X160359770Y-66053700D01*
X160453700Y-65959770D01*
X160520119Y-65844730D01*
X160554500Y-65716419D01*
X160554500Y-65633581D01*
X161095500Y-65633581D01*
X161095500Y-65766419D01*
X161129881Y-65894730D01*
X161196300Y-66009770D01*
X161290230Y-66103700D01*
X161405270Y-66170119D01*
X161533581Y-66204500D01*
X161533584Y-66204500D01*
X161666416Y-66204500D01*
X161666419Y-66204500D01*
X161794730Y-66170119D01*
X161909770Y-66103700D01*
X162003700Y-66009770D01*
X162070119Y-65894730D01*
X162104500Y-65766419D01*
X162104500Y-65633581D01*
X162070119Y-65505270D01*
X162003700Y-65390230D01*
X161909770Y-65296300D01*
X161794730Y-65229881D01*
X161666419Y-65195500D01*
X161533581Y-65195500D01*
X161405270Y-65229881D01*
X161405268Y-65229881D01*
X161405268Y-65229882D01*
X161290230Y-65296300D01*
X161290227Y-65296302D01*
X161196302Y-65390227D01*
X161196300Y-65390230D01*
X161129881Y-65505270D01*
X161095500Y-65633581D01*
X160554500Y-65633581D01*
X160554500Y-65583581D01*
X160520119Y-65455270D01*
X160453700Y-65340230D01*
X160359770Y-65246300D01*
X160244730Y-65179881D01*
X160116419Y-65145500D01*
X159983581Y-65145500D01*
X159855270Y-65179881D01*
X159855268Y-65179881D01*
X159855268Y-65179882D01*
X159740230Y-65246300D01*
X159740227Y-65246302D01*
X159646302Y-65340227D01*
X159646300Y-65340230D01*
X159579881Y-65455270D01*
X159545500Y-65583581D01*
X158854500Y-65583581D01*
X158820119Y-65455270D01*
X158753700Y-65340230D01*
X158659770Y-65246300D01*
X158544730Y-65179881D01*
X158416419Y-65145500D01*
X158283581Y-65145500D01*
X158155270Y-65179881D01*
X158155268Y-65179881D01*
X158155268Y-65179882D01*
X158040230Y-65246300D01*
X158040227Y-65246302D01*
X157946302Y-65340227D01*
X157946300Y-65340230D01*
X157879881Y-65455270D01*
X157845500Y-65583581D01*
X157454500Y-65583581D01*
X157420119Y-65455270D01*
X157353700Y-65340230D01*
X157259770Y-65246300D01*
X157144730Y-65179881D01*
X157016419Y-65145500D01*
X156883581Y-65145500D01*
X156755270Y-65179881D01*
X156755268Y-65179881D01*
X156755268Y-65179882D01*
X156640230Y-65246300D01*
X156640227Y-65246302D01*
X156546302Y-65340227D01*
X156546300Y-65340230D01*
X156479881Y-65455270D01*
X156445500Y-65583581D01*
X154309500Y-65583581D01*
X154309500Y-64350000D01*
X154292893Y-64266510D01*
X154289748Y-64250696D01*
X154289746Y-64250692D01*
X154233497Y-64166510D01*
X154233491Y-64166502D01*
X154033497Y-63966508D01*
X154033489Y-63966502D01*
X153949307Y-63910253D01*
X153949303Y-63910251D01*
X153850004Y-63890500D01*
X153850000Y-63890500D01*
X150050000Y-63890500D01*
X150049995Y-63890500D01*
X149950696Y-63910251D01*
X149950692Y-63910253D01*
X149866510Y-63966502D01*
X149866502Y-63966508D01*
X149666508Y-64166502D01*
X149666502Y-64166510D01*
X149610253Y-64250692D01*
X149610251Y-64250696D01*
X149590500Y-64349995D01*
X129689280Y-64349995D01*
X129633497Y-64266510D01*
X129633491Y-64266502D01*
X129433497Y-64066508D01*
X129433489Y-64066502D01*
X129349307Y-64010253D01*
X129349303Y-64010251D01*
X129250004Y-63990500D01*
X129250000Y-63990500D01*
X125450000Y-63990500D01*
X125449995Y-63990500D01*
X125350696Y-64010251D01*
X125350692Y-64010253D01*
X125266510Y-64066502D01*
X125266502Y-64066508D01*
X125066508Y-64266502D01*
X125066502Y-64266510D01*
X125010253Y-64350692D01*
X125010251Y-64350696D01*
X124990500Y-64449995D01*
X105145501Y-64449995D01*
X105120119Y-64355270D01*
X105053700Y-64240230D01*
X104959770Y-64146300D01*
X104844730Y-64079881D01*
X104716419Y-64045500D01*
X104583581Y-64045500D01*
X104455270Y-64079881D01*
X104455268Y-64079881D01*
X104455268Y-64079882D01*
X104340230Y-64146300D01*
X104340227Y-64146302D01*
X104246302Y-64240227D01*
X104246300Y-64240230D01*
X104182927Y-64349995D01*
X104179881Y-64355270D01*
X104145500Y-64483581D01*
X99820500Y-64483581D01*
X99820500Y-62783581D01*
X103845500Y-62783581D01*
X103845500Y-62916419D01*
X103879881Y-63044730D01*
X103946300Y-63159770D01*
X104040230Y-63253700D01*
X104155270Y-63320119D01*
X104283581Y-63354500D01*
X104283584Y-63354500D01*
X104416416Y-63354500D01*
X104416419Y-63354500D01*
X104544730Y-63320119D01*
X104659770Y-63253700D01*
X104753700Y-63159770D01*
X104820119Y-63044730D01*
X104854500Y-62916419D01*
X104854500Y-62783581D01*
X104820119Y-62655270D01*
X104802755Y-62625196D01*
X104786283Y-62557297D01*
X104809135Y-62491270D01*
X104864056Y-62448079D01*
X104933609Y-62441437D01*
X104942214Y-62443415D01*
X104983581Y-62454500D01*
X104983584Y-62454500D01*
X105116416Y-62454500D01*
X105116419Y-62454500D01*
X105244730Y-62420119D01*
X105359770Y-62353700D01*
X105453700Y-62259770D01*
X105520119Y-62144730D01*
X105554500Y-62016419D01*
X105554500Y-61883581D01*
X105554499Y-61883579D01*
X105553439Y-61875525D01*
X105555356Y-61875272D01*
X105556769Y-61815989D01*
X105595932Y-61758127D01*
X105660161Y-61730624D01*
X105706968Y-61733971D01*
X105783581Y-61754500D01*
X105783584Y-61754500D01*
X105916416Y-61754500D01*
X105916419Y-61754500D01*
X106044730Y-61720119D01*
X106159770Y-61653700D01*
X106253700Y-61559770D01*
X106320119Y-61444730D01*
X106354500Y-61316419D01*
X106354500Y-61183581D01*
X106320119Y-61055270D01*
X106253700Y-60940230D01*
X106159770Y-60846300D01*
X106070153Y-60794559D01*
X106021938Y-60743991D01*
X106008716Y-60675384D01*
X106034684Y-60610519D01*
X106060359Y-60586071D01*
X106075659Y-60575205D01*
X106083536Y-60573095D01*
X106120076Y-60551999D01*
X109333000Y-60551999D01*
X109333000Y-60698001D01*
X109370455Y-60837784D01*
X109370788Y-60839028D01*
X109370789Y-60839031D01*
X109443786Y-60965467D01*
X109443788Y-60965470D01*
X109443789Y-60965471D01*
X109547029Y-61068711D01*
X109673471Y-61141712D01*
X109814499Y-61179500D01*
X109814501Y-61179500D01*
X109960499Y-61179500D01*
X109960501Y-61179500D01*
X110101529Y-61141712D01*
X110227971Y-61068711D01*
X110331211Y-60965471D01*
X110404212Y-60839029D01*
X110442000Y-60698001D01*
X110442000Y-60626999D01*
X119645500Y-60626999D01*
X119645500Y-60773001D01*
X119667338Y-60854500D01*
X119683288Y-60914028D01*
X119683289Y-60914031D01*
X119756286Y-61040467D01*
X119756288Y-61040470D01*
X119756289Y-61040471D01*
X119859529Y-61143711D01*
X119985971Y-61216712D01*
X120126999Y-61254500D01*
X120127001Y-61254500D01*
X120272999Y-61254500D01*
X120273001Y-61254500D01*
X120414029Y-61216712D01*
X120471414Y-61183581D01*
X140515500Y-61183581D01*
X140515500Y-61316419D01*
X140549881Y-61444730D01*
X140616300Y-61559770D01*
X140710230Y-61653700D01*
X140825270Y-61720119D01*
X140953581Y-61754500D01*
X140953584Y-61754500D01*
X141086416Y-61754500D01*
X141086419Y-61754500D01*
X141214730Y-61720119D01*
X141329770Y-61653700D01*
X141423700Y-61559770D01*
X141490119Y-61444730D01*
X141524500Y-61316419D01*
X141524500Y-61183581D01*
X141490119Y-61055270D01*
X141423700Y-60940230D01*
X141329770Y-60846300D01*
X141214730Y-60779881D01*
X141086419Y-60745500D01*
X140953581Y-60745500D01*
X140836921Y-60776759D01*
X140825266Y-60779882D01*
X140724978Y-60837784D01*
X140724974Y-60837786D01*
X140710230Y-60846300D01*
X140616300Y-60940230D01*
X140614580Y-60943208D01*
X140614579Y-60943210D01*
X140558425Y-61040471D01*
X140549881Y-61055270D01*
X140515500Y-61183581D01*
X120471414Y-61183581D01*
X120540471Y-61143711D01*
X120643711Y-61040471D01*
X120716712Y-60914029D01*
X120754500Y-60773001D01*
X120754500Y-60626999D01*
X120716712Y-60485971D01*
X120643711Y-60359529D01*
X120567763Y-60283581D01*
X138645500Y-60283581D01*
X138645500Y-60416419D01*
X138679881Y-60544730D01*
X138746300Y-60659770D01*
X138840230Y-60753700D01*
X138955270Y-60820119D01*
X139083581Y-60854500D01*
X139083584Y-60854500D01*
X139216416Y-60854500D01*
X139216419Y-60854500D01*
X139344730Y-60820119D01*
X139459770Y-60753700D01*
X139553700Y-60659770D01*
X139553700Y-60659769D01*
X139559447Y-60654023D01*
X139561030Y-60655606D01*
X139608050Y-60621273D01*
X139677796Y-60617117D01*
X139738717Y-60651328D01*
X139744293Y-60657763D01*
X139746299Y-60659769D01*
X139746300Y-60659770D01*
X139840230Y-60753700D01*
X139955270Y-60820119D01*
X140083581Y-60854500D01*
X140083584Y-60854500D01*
X140216416Y-60854500D01*
X140216419Y-60854500D01*
X140344730Y-60820119D01*
X140344732Y-60820117D01*
X140344734Y-60820117D01*
X140344735Y-60820116D01*
X140459770Y-60753700D01*
X140553700Y-60659770D01*
X140620119Y-60544730D01*
X140650434Y-60431593D01*
X166595500Y-60431593D01*
X166595500Y-60668406D01*
X166632546Y-60902306D01*
X166632546Y-60902309D01*
X166705723Y-61127524D01*
X166734287Y-61183583D01*
X166813236Y-61338530D01*
X166952432Y-61530116D01*
X167119884Y-61697568D01*
X167311470Y-61836764D01*
X167403354Y-61883581D01*
X167522475Y-61944276D01*
X167747691Y-62017453D01*
X167747692Y-62017453D01*
X167747695Y-62017454D01*
X167981593Y-62054500D01*
X167981594Y-62054500D01*
X168218406Y-62054500D01*
X168218407Y-62054500D01*
X168452305Y-62017454D01*
X168452308Y-62017453D01*
X168452309Y-62017453D01*
X168677524Y-61944276D01*
X168677524Y-61944275D01*
X168677527Y-61944275D01*
X168888530Y-61836764D01*
X169080116Y-61697568D01*
X169247568Y-61530116D01*
X169386764Y-61338530D01*
X169494275Y-61127527D01*
X169513385Y-61068713D01*
X169567453Y-60902309D01*
X169567453Y-60902308D01*
X169567454Y-60902305D01*
X169604500Y-60668407D01*
X169604500Y-60431593D01*
X169567454Y-60197695D01*
X169567453Y-60197691D01*
X169567453Y-60197690D01*
X169494276Y-59972475D01*
X169480939Y-59946300D01*
X169386764Y-59761470D01*
X169247568Y-59569884D01*
X169080116Y-59402432D01*
X168888530Y-59263236D01*
X168677524Y-59155723D01*
X168452308Y-59082546D01*
X168276881Y-59054761D01*
X168218407Y-59045500D01*
X167981593Y-59045500D01*
X167903627Y-59057848D01*
X167747693Y-59082546D01*
X167747690Y-59082546D01*
X167522475Y-59155723D01*
X167311469Y-59263236D01*
X167202162Y-59342652D01*
X167119884Y-59402432D01*
X167119882Y-59402434D01*
X167119881Y-59402434D01*
X166952434Y-59569881D01*
X166952434Y-59569882D01*
X166952432Y-59569884D01*
X166892652Y-59652162D01*
X166813236Y-59761469D01*
X166705723Y-59972475D01*
X166632546Y-60197690D01*
X166632546Y-60197693D01*
X166595500Y-60431593D01*
X140650434Y-60431593D01*
X140654500Y-60416419D01*
X140654500Y-60283581D01*
X140620119Y-60155270D01*
X140553700Y-60040230D01*
X140459770Y-59946300D01*
X140344730Y-59879881D01*
X140216419Y-59845500D01*
X140083581Y-59845500D01*
X139955270Y-59879881D01*
X139955268Y-59879881D01*
X139955268Y-59879882D01*
X139840230Y-59946300D01*
X139840227Y-59946302D01*
X139740553Y-60045977D01*
X139738970Y-60044394D01*
X139691935Y-60078732D01*
X139622188Y-60082879D01*
X139561272Y-60048660D01*
X139555706Y-60042236D01*
X139459772Y-59946302D01*
X139459770Y-59946300D01*
X139344730Y-59879881D01*
X139216419Y-59845500D01*
X139083581Y-59845500D01*
X138955270Y-59879881D01*
X138955268Y-59879881D01*
X138955268Y-59879882D01*
X138840230Y-59946300D01*
X138840227Y-59946302D01*
X138746302Y-60040227D01*
X138746300Y-60040230D01*
X138679881Y-60155270D01*
X138645500Y-60283581D01*
X120567763Y-60283581D01*
X120540471Y-60256289D01*
X120540470Y-60256288D01*
X120540467Y-60256286D01*
X120414031Y-60183289D01*
X120414030Y-60183288D01*
X120414029Y-60183288D01*
X120273001Y-60145500D01*
X120126999Y-60145500D01*
X119985971Y-60183288D01*
X119985968Y-60183289D01*
X119859532Y-60256286D01*
X119859527Y-60256290D01*
X119756290Y-60359527D01*
X119756286Y-60359532D01*
X119683289Y-60485968D01*
X119683288Y-60485971D01*
X119645500Y-60626999D01*
X110442000Y-60626999D01*
X110442000Y-60551999D01*
X110404212Y-60410971D01*
X110331211Y-60284529D01*
X110227971Y-60181289D01*
X110227970Y-60181288D01*
X110227967Y-60181286D01*
X110101531Y-60108289D01*
X110101530Y-60108288D01*
X110101529Y-60108288D01*
X109960501Y-60070500D01*
X109814499Y-60070500D01*
X109673471Y-60108288D01*
X109673468Y-60108289D01*
X109547032Y-60181286D01*
X109547027Y-60181290D01*
X109443790Y-60284527D01*
X109443786Y-60284532D01*
X109370789Y-60410968D01*
X109370788Y-60410971D01*
X109333000Y-60551999D01*
X106120076Y-60551999D01*
X106191964Y-60510495D01*
X106280495Y-60421964D01*
X106343095Y-60313536D01*
X106375500Y-60192601D01*
X106375500Y-60067399D01*
X106343095Y-59946464D01*
X106280495Y-59838036D01*
X106191964Y-59749505D01*
X106083536Y-59686905D01*
X106083537Y-59686905D01*
X106043224Y-59676103D01*
X105962601Y-59654500D01*
X105837399Y-59654500D01*
X105756775Y-59676103D01*
X105716463Y-59686905D01*
X105608037Y-59749504D01*
X105608034Y-59749506D01*
X105519506Y-59838034D01*
X105519504Y-59838037D01*
X105456905Y-59946463D01*
X105456905Y-59946464D01*
X105424500Y-60067399D01*
X105424500Y-60192601D01*
X105456905Y-60313536D01*
X105519505Y-60421964D01*
X105608036Y-60510495D01*
X105682441Y-60553452D01*
X105730656Y-60604018D01*
X105743880Y-60672625D01*
X105717912Y-60737490D01*
X105662768Y-60776759D01*
X105662774Y-60776773D01*
X105662713Y-60776798D01*
X105660999Y-60778019D01*
X105656251Y-60779474D01*
X105655270Y-60779880D01*
X105540230Y-60846300D01*
X105540227Y-60846302D01*
X105446302Y-60940227D01*
X105446300Y-60940230D01*
X105388428Y-61040467D01*
X105379881Y-61055270D01*
X105345500Y-61183581D01*
X105345500Y-61183583D01*
X105345500Y-61316417D01*
X105346561Y-61324475D01*
X105344645Y-61324727D01*
X105343226Y-61384025D01*
X105304055Y-61441882D01*
X105239823Y-61469377D01*
X105193026Y-61466027D01*
X105116419Y-61445500D01*
X104983581Y-61445500D01*
X104855270Y-61479881D01*
X104855268Y-61479881D01*
X104855268Y-61479882D01*
X104740230Y-61546300D01*
X104740227Y-61546302D01*
X104646302Y-61640227D01*
X104646300Y-61640230D01*
X104580326Y-61754500D01*
X104579881Y-61755270D01*
X104545500Y-61883581D01*
X104545500Y-62016419D01*
X104555704Y-62054500D01*
X104579882Y-62144733D01*
X104597243Y-62174803D01*
X104613716Y-62242703D01*
X104590863Y-62308730D01*
X104535942Y-62351921D01*
X104466389Y-62358562D01*
X104457764Y-62356578D01*
X104416420Y-62345500D01*
X104416419Y-62345500D01*
X104283581Y-62345500D01*
X104155270Y-62379881D01*
X104155268Y-62379881D01*
X104155268Y-62379882D01*
X104040230Y-62446300D01*
X104040227Y-62446302D01*
X103946302Y-62540227D01*
X103946300Y-62540230D01*
X103879881Y-62655270D01*
X103845500Y-62783581D01*
X99820500Y-62783581D01*
X99820500Y-57459139D01*
X176945500Y-57459139D01*
X176945500Y-57640860D01*
X176973928Y-57820347D01*
X176973928Y-57820350D01*
X177030081Y-57993171D01*
X177030083Y-57993174D01*
X177112583Y-58155090D01*
X177219397Y-58302106D01*
X177347894Y-58430603D01*
X177494910Y-58537417D01*
X177656826Y-58619917D01*
X177656828Y-58619918D01*
X177818029Y-58672294D01*
X177829654Y-58676072D01*
X178009139Y-58704500D01*
X178009140Y-58704500D01*
X178190860Y-58704500D01*
X178190861Y-58704500D01*
X178370346Y-58676072D01*
X178370349Y-58676071D01*
X178370350Y-58676071D01*
X178543171Y-58619918D01*
X178543171Y-58619917D01*
X178543174Y-58619917D01*
X178705090Y-58537417D01*
X178852106Y-58430603D01*
X178980603Y-58302106D01*
X179087417Y-58155090D01*
X179169917Y-57993174D01*
X179226072Y-57820346D01*
X179254500Y-57640861D01*
X179254500Y-57459139D01*
X179226072Y-57279654D01*
X179226071Y-57279650D01*
X179226071Y-57279649D01*
X179169918Y-57106828D01*
X179169916Y-57106825D01*
X179087416Y-56944909D01*
X178980603Y-56797894D01*
X178852106Y-56669397D01*
X178705090Y-56562583D01*
X178543174Y-56480083D01*
X178543171Y-56480081D01*
X178370348Y-56423928D01*
X178250689Y-56404976D01*
X178190861Y-56395500D01*
X178009139Y-56395500D01*
X177949310Y-56404976D01*
X177829652Y-56423928D01*
X177829649Y-56423928D01*
X177656828Y-56480081D01*
X177656825Y-56480083D01*
X177494909Y-56562583D01*
X177411030Y-56623525D01*
X177347894Y-56669397D01*
X177347892Y-56669399D01*
X177347891Y-56669399D01*
X177219399Y-56797891D01*
X177219399Y-56797892D01*
X177219397Y-56797894D01*
X177173525Y-56861030D01*
X177112583Y-56944909D01*
X177030083Y-57106825D01*
X177030081Y-57106828D01*
X176973928Y-57279649D01*
X176973928Y-57279652D01*
X176945500Y-57459139D01*
X99820500Y-57459139D01*
X99820500Y-56183581D01*
X143945500Y-56183581D01*
X143945500Y-56316419D01*
X143979881Y-56444730D01*
X144046300Y-56559770D01*
X144140230Y-56653700D01*
X144255270Y-56720119D01*
X144383581Y-56754500D01*
X144383584Y-56754500D01*
X144516416Y-56754500D01*
X144516419Y-56754500D01*
X144644730Y-56720119D01*
X144759770Y-56653700D01*
X144853700Y-56559770D01*
X144920119Y-56444730D01*
X144954500Y-56316419D01*
X144954500Y-56183581D01*
X144920119Y-56055270D01*
X144853700Y-55940230D01*
X144759770Y-55846300D01*
X144644730Y-55779881D01*
X144516419Y-55745500D01*
X144383581Y-55745500D01*
X144255270Y-55779881D01*
X144255268Y-55779881D01*
X144255268Y-55779882D01*
X144140230Y-55846300D01*
X144140227Y-55846302D01*
X144046302Y-55940227D01*
X144046300Y-55940230D01*
X143980326Y-56054500D01*
X143979881Y-56055270D01*
X143945500Y-56183581D01*
X99820500Y-56183581D01*
X99820500Y-54396136D01*
X112695500Y-54396136D01*
X112695500Y-54603863D01*
X112736022Y-54807578D01*
X112736025Y-54807590D01*
X112815511Y-54999488D01*
X112815512Y-54999490D01*
X112930916Y-55172203D01*
X112930919Y-55172207D01*
X113077792Y-55319080D01*
X113077796Y-55319083D01*
X113250507Y-55434486D01*
X113250508Y-55434486D01*
X113250509Y-55434487D01*
X113250511Y-55434488D01*
X113369038Y-55483583D01*
X113442414Y-55513976D01*
X113620944Y-55549488D01*
X113646136Y-55554499D01*
X113646139Y-55554500D01*
X113646141Y-55554500D01*
X113853861Y-55554500D01*
X113853862Y-55554499D01*
X114057586Y-55513976D01*
X114249493Y-55434486D01*
X114422204Y-55319083D01*
X114569083Y-55172204D01*
X114684486Y-54999493D01*
X114763976Y-54807586D01*
X114804500Y-54603859D01*
X114804500Y-54533581D01*
X134295500Y-54533581D01*
X134295500Y-54666419D01*
X134329881Y-54794730D01*
X134396300Y-54909770D01*
X134490230Y-55003700D01*
X134605270Y-55070119D01*
X134733581Y-55104500D01*
X134733584Y-55104500D01*
X134866417Y-55104500D01*
X134866419Y-55104500D01*
X134935662Y-55085946D01*
X135005510Y-55087607D01*
X135063373Y-55126769D01*
X135090878Y-55190997D01*
X135087530Y-55237812D01*
X135069357Y-55305635D01*
X135069357Y-55305637D01*
X135069357Y-55438475D01*
X135103738Y-55566786D01*
X135170157Y-55681826D01*
X135264087Y-55775756D01*
X135379127Y-55842175D01*
X135507438Y-55876556D01*
X135507441Y-55876556D01*
X135640273Y-55876556D01*
X135640276Y-55876556D01*
X135768587Y-55842175D01*
X135883627Y-55775756D01*
X135977557Y-55681826D01*
X136043976Y-55566786D01*
X136066271Y-55483581D01*
X148495500Y-55483581D01*
X148495500Y-55616419D01*
X148529881Y-55744730D01*
X148596300Y-55859770D01*
X148690230Y-55953700D01*
X148805270Y-56020119D01*
X148933581Y-56054500D01*
X148933584Y-56054500D01*
X149066416Y-56054500D01*
X149066419Y-56054500D01*
X149194730Y-56020119D01*
X149309770Y-55953700D01*
X149403700Y-55859770D01*
X149470119Y-55744730D01*
X149504500Y-55616419D01*
X149504500Y-55483581D01*
X149470119Y-55355270D01*
X149403700Y-55240230D01*
X149309770Y-55146300D01*
X149194730Y-55079881D01*
X149066419Y-55045500D01*
X148933581Y-55045500D01*
X148805270Y-55079881D01*
X148805268Y-55079881D01*
X148805268Y-55079882D01*
X148690230Y-55146300D01*
X148690227Y-55146302D01*
X148596302Y-55240227D01*
X148596300Y-55240230D01*
X148530326Y-55354500D01*
X148529881Y-55355270D01*
X148495500Y-55483581D01*
X136066271Y-55483581D01*
X136078357Y-55438475D01*
X136078357Y-55305637D01*
X136043976Y-55177326D01*
X135977557Y-55062286D01*
X135883627Y-54968356D01*
X135768587Y-54901937D01*
X135640276Y-54867556D01*
X135507438Y-54867556D01*
X135438194Y-54886110D01*
X135368344Y-54884447D01*
X135310482Y-54845284D01*
X135282978Y-54781056D01*
X135286325Y-54734246D01*
X135304500Y-54666419D01*
X135304500Y-54533581D01*
X135270119Y-54405270D01*
X135203700Y-54290230D01*
X135109770Y-54196300D01*
X134994730Y-54129881D01*
X134866419Y-54095500D01*
X134733581Y-54095500D01*
X134605270Y-54129881D01*
X134605268Y-54129881D01*
X134605268Y-54129882D01*
X134490230Y-54196300D01*
X134490227Y-54196302D01*
X134396302Y-54290227D01*
X134396300Y-54290230D01*
X134332894Y-54400052D01*
X134329881Y-54405270D01*
X134295500Y-54533581D01*
X114804500Y-54533581D01*
X114804500Y-54396141D01*
X114804500Y-54396138D01*
X114804499Y-54396136D01*
X114780008Y-54273011D01*
X114763976Y-54192414D01*
X114732123Y-54115514D01*
X114684488Y-54000511D01*
X114684487Y-54000509D01*
X114681709Y-53996352D01*
X114569083Y-53827796D01*
X114569080Y-53827792D01*
X114422207Y-53680919D01*
X114422203Y-53680916D01*
X114249490Y-53565512D01*
X114249488Y-53565511D01*
X114057590Y-53486025D01*
X114057578Y-53486022D01*
X113853862Y-53445500D01*
X113853859Y-53445500D01*
X113646141Y-53445500D01*
X113646138Y-53445500D01*
X113442421Y-53486022D01*
X113442409Y-53486025D01*
X113250511Y-53565511D01*
X113250509Y-53565512D01*
X113077796Y-53680916D01*
X113077792Y-53680919D01*
X112930919Y-53827792D01*
X112930916Y-53827796D01*
X112815512Y-54000509D01*
X112815511Y-54000511D01*
X112736025Y-54192409D01*
X112736022Y-54192421D01*
X112695500Y-54396136D01*
X99820500Y-54396136D01*
X99820500Y-49583581D01*
X133445500Y-49583581D01*
X133445500Y-49716419D01*
X133479881Y-49844730D01*
X133546300Y-49959770D01*
X133640230Y-50053700D01*
X133755270Y-50120119D01*
X133883581Y-50154500D01*
X133883584Y-50154500D01*
X133891641Y-50155561D01*
X133891448Y-50157019D01*
X133949906Y-50174185D01*
X133995661Y-50226989D01*
X134005605Y-50296147D01*
X133976580Y-50359703D01*
X133944869Y-50385885D01*
X133840230Y-50446300D01*
X133840227Y-50446302D01*
X133746302Y-50540227D01*
X133746300Y-50540230D01*
X133679881Y-50655270D01*
X133645500Y-50783581D01*
X133645500Y-50916419D01*
X133679881Y-51044730D01*
X133746300Y-51159770D01*
X133840230Y-51253700D01*
X133955270Y-51320119D01*
X134063265Y-51349056D01*
X134122923Y-51385420D01*
X134150944Y-51436736D01*
X134179881Y-51544731D01*
X134213090Y-51602250D01*
X134246300Y-51659770D01*
X134340230Y-51753700D01*
X134455270Y-51820119D01*
X134563265Y-51849056D01*
X134622923Y-51885420D01*
X134650944Y-51936736D01*
X134679881Y-52044731D01*
X134700176Y-52079882D01*
X134746300Y-52159770D01*
X134840230Y-52253700D01*
X134955270Y-52320119D01*
X135063265Y-52349056D01*
X135122923Y-52385420D01*
X135150944Y-52436736D01*
X135179881Y-52544731D01*
X135185965Y-52555268D01*
X135246300Y-52659770D01*
X135340230Y-52753700D01*
X135455270Y-52820119D01*
X135583581Y-52854500D01*
X135583584Y-52854500D01*
X135716416Y-52854500D01*
X135716419Y-52854500D01*
X135844730Y-52820119D01*
X135959770Y-52753700D01*
X135962319Y-52751151D01*
X135964995Y-52749689D01*
X135966216Y-52748753D01*
X135966362Y-52748943D01*
X136023642Y-52717666D01*
X136093334Y-52722650D01*
X136137681Y-52751151D01*
X136140230Y-52753700D01*
X136255270Y-52820119D01*
X136383581Y-52854500D01*
X136383584Y-52854500D01*
X136516416Y-52854500D01*
X136516419Y-52854500D01*
X136624416Y-52825562D01*
X136694260Y-52827225D01*
X136744186Y-52857656D01*
X136746299Y-52859769D01*
X136746300Y-52859770D01*
X136840230Y-52953700D01*
X136955270Y-53020119D01*
X137083581Y-53054500D01*
X137083584Y-53054500D01*
X137216416Y-53054500D01*
X137216419Y-53054500D01*
X137344730Y-53020119D01*
X137459770Y-52953700D01*
X137553700Y-52859770D01*
X137620119Y-52744730D01*
X137636504Y-52683581D01*
X141345500Y-52683581D01*
X141345500Y-52816419D01*
X141379881Y-52944730D01*
X141446300Y-53059770D01*
X141540230Y-53153700D01*
X141655270Y-53220119D01*
X141783581Y-53254500D01*
X141783584Y-53254500D01*
X141916416Y-53254500D01*
X141916419Y-53254500D01*
X142044730Y-53220119D01*
X142159770Y-53153700D01*
X142212319Y-53101151D01*
X142273642Y-53067666D01*
X142343334Y-53072650D01*
X142387681Y-53101151D01*
X142440230Y-53153700D01*
X142555270Y-53220119D01*
X142683581Y-53254500D01*
X142683584Y-53254500D01*
X142721500Y-53254500D01*
X142788539Y-53274185D01*
X142834294Y-53326989D01*
X142845500Y-53378500D01*
X142845500Y-53416419D01*
X142879881Y-53544730D01*
X142946300Y-53659770D01*
X143040230Y-53753700D01*
X143155270Y-53820119D01*
X143283581Y-53854500D01*
X143283584Y-53854500D01*
X143341567Y-53854500D01*
X143408606Y-53874185D01*
X143454361Y-53926989D01*
X143465567Y-53978500D01*
X143465567Y-53996352D01*
X143499948Y-54124663D01*
X143566367Y-54239703D01*
X143660297Y-54333633D01*
X143775337Y-54400052D01*
X143903648Y-54434433D01*
X143903651Y-54434433D01*
X143992607Y-54434433D01*
X144059646Y-54454118D01*
X144105401Y-54506922D01*
X144115345Y-54576080D01*
X144099994Y-54620432D01*
X144079881Y-54655270D01*
X144045500Y-54783581D01*
X144045500Y-54916419D01*
X144079881Y-55044730D01*
X144146300Y-55159770D01*
X144240230Y-55253700D01*
X144355270Y-55320119D01*
X144483581Y-55354500D01*
X144483584Y-55354500D01*
X144616416Y-55354500D01*
X144616419Y-55354500D01*
X144744730Y-55320119D01*
X144859770Y-55253700D01*
X144953700Y-55159770D01*
X145020119Y-55044730D01*
X145046537Y-54946136D01*
X164395500Y-54946136D01*
X164395500Y-55153863D01*
X164436022Y-55357578D01*
X164436025Y-55357590D01*
X164515511Y-55549488D01*
X164515512Y-55549490D01*
X164630916Y-55722203D01*
X164630919Y-55722207D01*
X164777792Y-55869080D01*
X164777796Y-55869083D01*
X164950507Y-55984486D01*
X164950508Y-55984486D01*
X164950509Y-55984487D01*
X164950511Y-55984488D01*
X165142409Y-56063974D01*
X165142414Y-56063976D01*
X165346136Y-56104499D01*
X165346139Y-56104500D01*
X165346141Y-56104500D01*
X165553861Y-56104500D01*
X165553862Y-56104499D01*
X165757586Y-56063976D01*
X165949493Y-55984486D01*
X166122204Y-55869083D01*
X166269083Y-55722204D01*
X166384486Y-55549493D01*
X166463976Y-55357586D01*
X166504500Y-55153859D01*
X166504500Y-54946141D01*
X166504500Y-54946138D01*
X166504499Y-54946136D01*
X166476940Y-54807590D01*
X166463976Y-54742414D01*
X166384486Y-54550507D01*
X166269083Y-54377796D01*
X166269080Y-54377792D01*
X166122207Y-54230919D01*
X166122203Y-54230916D01*
X165949490Y-54115512D01*
X165949488Y-54115511D01*
X165757590Y-54036025D01*
X165757578Y-54036022D01*
X165553862Y-53995500D01*
X165553859Y-53995500D01*
X165346141Y-53995500D01*
X165346138Y-53995500D01*
X165142421Y-54036022D01*
X165142409Y-54036025D01*
X164950511Y-54115511D01*
X164950509Y-54115512D01*
X164777796Y-54230916D01*
X164777792Y-54230919D01*
X164630919Y-54377792D01*
X164630916Y-54377796D01*
X164515512Y-54550509D01*
X164515511Y-54550511D01*
X164436025Y-54742409D01*
X164436022Y-54742421D01*
X164395500Y-54946136D01*
X145046537Y-54946136D01*
X145054500Y-54916419D01*
X145054500Y-54783581D01*
X145020119Y-54655270D01*
X144953700Y-54540230D01*
X144859770Y-54446300D01*
X144744730Y-54379881D01*
X144616419Y-54345500D01*
X144527460Y-54345500D01*
X144460421Y-54325815D01*
X144414666Y-54273011D01*
X144404722Y-54203853D01*
X144420073Y-54159499D01*
X144440186Y-54124663D01*
X144474567Y-53996352D01*
X144474567Y-53863514D01*
X144440186Y-53735203D01*
X144439250Y-53733581D01*
X148495500Y-53733581D01*
X148495500Y-53866419D01*
X148529881Y-53994730D01*
X148596300Y-54109770D01*
X148690230Y-54203700D01*
X148805270Y-54270119D01*
X148933581Y-54304500D01*
X148933584Y-54304500D01*
X149066416Y-54304500D01*
X149066419Y-54304500D01*
X149194730Y-54270119D01*
X149309770Y-54203700D01*
X149403700Y-54109770D01*
X149470119Y-53994730D01*
X149504500Y-53866419D01*
X149504500Y-53733581D01*
X149470119Y-53605270D01*
X149403700Y-53490230D01*
X149309770Y-53396300D01*
X149194730Y-53329881D01*
X149066419Y-53295500D01*
X148933581Y-53295500D01*
X148805270Y-53329881D01*
X148805268Y-53329881D01*
X148805268Y-53329882D01*
X148690230Y-53396300D01*
X148690227Y-53396302D01*
X148596302Y-53490227D01*
X148596300Y-53490230D01*
X148552836Y-53565512D01*
X148529881Y-53605270D01*
X148495500Y-53733581D01*
X144439250Y-53733581D01*
X144373767Y-53620163D01*
X144279837Y-53526233D01*
X144164797Y-53459814D01*
X144036486Y-53425433D01*
X143978500Y-53425433D01*
X143911461Y-53405748D01*
X143865706Y-53352944D01*
X143854500Y-53301433D01*
X143854500Y-53283583D01*
X143854500Y-53283581D01*
X143820119Y-53155270D01*
X143753700Y-53040230D01*
X143659770Y-52946300D01*
X143544730Y-52879881D01*
X143416419Y-52845500D01*
X143378500Y-52845500D01*
X143311461Y-52825815D01*
X143265706Y-52773011D01*
X143254500Y-52721500D01*
X143254500Y-52683583D01*
X143254500Y-52683581D01*
X143220119Y-52555270D01*
X143153700Y-52440230D01*
X143059770Y-52346300D01*
X142944730Y-52279881D01*
X142816419Y-52245500D01*
X142683581Y-52245500D01*
X142555270Y-52279881D01*
X142555268Y-52279881D01*
X142555268Y-52279882D01*
X142440230Y-52346300D01*
X142440227Y-52346302D01*
X142387681Y-52398849D01*
X142326358Y-52432334D01*
X142256666Y-52427350D01*
X142212319Y-52398849D01*
X142159772Y-52346302D01*
X142159770Y-52346300D01*
X142044730Y-52279881D01*
X141916419Y-52245500D01*
X141783581Y-52245500D01*
X141655270Y-52279881D01*
X141655268Y-52279881D01*
X141655268Y-52279882D01*
X141540230Y-52346300D01*
X141540227Y-52346302D01*
X141446549Y-52439980D01*
X141446547Y-52439982D01*
X141446300Y-52440230D01*
X141379881Y-52555270D01*
X141375935Y-52569993D01*
X141375934Y-52569997D01*
X141350889Y-52663470D01*
X141345500Y-52683581D01*
X137636504Y-52683581D01*
X137654500Y-52616419D01*
X137654500Y-52483581D01*
X137620119Y-52355270D01*
X137553700Y-52240230D01*
X137459770Y-52146300D01*
X137351139Y-52083581D01*
X140245500Y-52083581D01*
X140245500Y-52216419D01*
X140279881Y-52344730D01*
X140346300Y-52459770D01*
X140440230Y-52553700D01*
X140555270Y-52620119D01*
X140683581Y-52654500D01*
X140683584Y-52654500D01*
X140816416Y-52654500D01*
X140816419Y-52654500D01*
X140944730Y-52620119D01*
X141059770Y-52553700D01*
X141153700Y-52459770D01*
X141220119Y-52344730D01*
X141254500Y-52216419D01*
X141254500Y-52083581D01*
X141220119Y-51955270D01*
X141153700Y-51840230D01*
X141059770Y-51746300D01*
X140944730Y-51679881D01*
X140816419Y-51645500D01*
X140683581Y-51645500D01*
X140555270Y-51679881D01*
X140555268Y-51679881D01*
X140555268Y-51679882D01*
X140440230Y-51746300D01*
X140440227Y-51746302D01*
X140346302Y-51840227D01*
X140346300Y-51840230D01*
X140279881Y-51955270D01*
X140245500Y-52083581D01*
X137351139Y-52083581D01*
X137344730Y-52079881D01*
X137216419Y-52045500D01*
X137083581Y-52045500D01*
X136975587Y-52074437D01*
X136905737Y-52072774D01*
X136855813Y-52042343D01*
X136759772Y-51946302D01*
X136759770Y-51946300D01*
X136644730Y-51879881D01*
X136516419Y-51845500D01*
X136383581Y-51845500D01*
X136255270Y-51879881D01*
X136255268Y-51879881D01*
X136255268Y-51879882D01*
X136140230Y-51946300D01*
X136140227Y-51946302D01*
X136137681Y-51948849D01*
X136135004Y-51950310D01*
X136133784Y-51951247D01*
X136133637Y-51951056D01*
X136076358Y-51982334D01*
X136006666Y-51977350D01*
X135962319Y-51948849D01*
X135959772Y-51946302D01*
X135959770Y-51946300D01*
X135902250Y-51913090D01*
X135844731Y-51879881D01*
X135736736Y-51850944D01*
X135677076Y-51814578D01*
X135649056Y-51763265D01*
X135620119Y-51655270D01*
X135553700Y-51540230D01*
X135459770Y-51446300D01*
X135402250Y-51413090D01*
X135344731Y-51379881D01*
X135236736Y-51350944D01*
X135177076Y-51314578D01*
X135149056Y-51263265D01*
X135120119Y-51155270D01*
X135053700Y-51040230D01*
X134959770Y-50946300D01*
X134902250Y-50913090D01*
X134844731Y-50879881D01*
X134736736Y-50850944D01*
X134677076Y-50814578D01*
X134649056Y-50763265D01*
X134620119Y-50655270D01*
X134553700Y-50540230D01*
X134459770Y-50446300D01*
X134344730Y-50379881D01*
X134216419Y-50345500D01*
X134216415Y-50345499D01*
X134208359Y-50344439D01*
X134208551Y-50342980D01*
X134150094Y-50325815D01*
X134104339Y-50273011D01*
X134094395Y-50203853D01*
X134123420Y-50140297D01*
X134155130Y-50114114D01*
X134259770Y-50053700D01*
X134353700Y-49959770D01*
X134353700Y-49959769D01*
X134359447Y-49954023D01*
X134361030Y-49955606D01*
X134408050Y-49921273D01*
X134477796Y-49917117D01*
X134538717Y-49951328D01*
X134544293Y-49957763D01*
X134546299Y-49959769D01*
X134546300Y-49959770D01*
X134640230Y-50053700D01*
X134755270Y-50120119D01*
X134883581Y-50154500D01*
X134883584Y-50154500D01*
X135016416Y-50154500D01*
X135016419Y-50154500D01*
X135144730Y-50120119D01*
X135259770Y-50053700D01*
X135353700Y-49959770D01*
X135420119Y-49844730D01*
X135454500Y-49716419D01*
X135454500Y-49583581D01*
X136845500Y-49583581D01*
X136845500Y-49716419D01*
X136879881Y-49844730D01*
X136946300Y-49959770D01*
X137040230Y-50053700D01*
X137155270Y-50120119D01*
X137283581Y-50154500D01*
X137283584Y-50154500D01*
X137416416Y-50154500D01*
X137416419Y-50154500D01*
X137544730Y-50120119D01*
X137659770Y-50053700D01*
X137753700Y-49959770D01*
X137820119Y-49844730D01*
X137854500Y-49716419D01*
X137854500Y-49583581D01*
X137820119Y-49455270D01*
X137753700Y-49340230D01*
X137659770Y-49246300D01*
X137544730Y-49179881D01*
X137416419Y-49145500D01*
X137283581Y-49145500D01*
X137155270Y-49179881D01*
X137155268Y-49179881D01*
X137155268Y-49179882D01*
X137040230Y-49246300D01*
X137040227Y-49246302D01*
X136946302Y-49340227D01*
X136946300Y-49340230D01*
X136879881Y-49455270D01*
X136845500Y-49583581D01*
X135454500Y-49583581D01*
X135420119Y-49455270D01*
X135353700Y-49340230D01*
X135259770Y-49246300D01*
X135144730Y-49179881D01*
X135016419Y-49145500D01*
X134883581Y-49145500D01*
X134755270Y-49179881D01*
X134755268Y-49179881D01*
X134755268Y-49179882D01*
X134640230Y-49246300D01*
X134640227Y-49246302D01*
X134540553Y-49345977D01*
X134538970Y-49344394D01*
X134491935Y-49378732D01*
X134422188Y-49382879D01*
X134361272Y-49348660D01*
X134355706Y-49342236D01*
X134259772Y-49246302D01*
X134259770Y-49246300D01*
X134144730Y-49179881D01*
X134016419Y-49145500D01*
X133883581Y-49145500D01*
X133755270Y-49179881D01*
X133755268Y-49179881D01*
X133755268Y-49179882D01*
X133640230Y-49246300D01*
X133640227Y-49246302D01*
X133546302Y-49340227D01*
X133546300Y-49340230D01*
X133479881Y-49455270D01*
X133445500Y-49583581D01*
X99820500Y-49583581D01*
X99820500Y-47494500D01*
X99840185Y-47427461D01*
X99892989Y-47381706D01*
X99944500Y-47370500D01*
X179395500Y-47370500D01*
X179462539Y-47390185D01*
G37*
%TD.AperFunction*%
%TD*%
M02*
