M48
; DRILL file {KiCad 9.0.6} date 2025-12-05T19:36:25+0100
; FORMAT={-:-/ absolute / metric / decimal}
; #@! TF.CreationDate,2025-12-05T19:36:25+01:00
; #@! TF.GenerationSoftware,Kicad,Pcbnew,9.0.6
; #@! TF.FileFunction,Plated,1,4,PTH
FMAT,2
METRIC
; #@! TA.AperFunction,Plated,PTH,ViaDrill
T1C0.300
; #@! TA.AperFunction,Plated,PTH,ComponentDrill
T2C0.600
; #@! TA.AperFunction,Plated,PTH,ComponentDrill
T3C1.000
; #@! TA.AperFunction,Plated,PTH,ComponentDrill
T4C1.100
; #@! TA.AperFunction,Plated,PTH,ComponentDrill
T5C1.800
%
G90
G05
T1
X102.667Y-60.267
X102.667Y-62.267
X102.667Y-64.267
X102.667Y-66.267
X102.667Y-68.267
X103.625Y-77.65
X104.35Y-62.85
X104.65Y-64.55
X105.05Y-61.95
X105.85Y-61.25
X106.55Y-71.2
X106.59Y-56.18
X106.6Y-57.4
X108.66Y-70.27
X108.66Y-72.27
X108.667Y-68.267
X108.667Y-74.267
X108.667Y-76.267
X109.25Y-54.1
X109.887Y-60.625
X110.6Y-50.65
X110.6Y-51.25
X110.6Y-51.85
X110.6Y-52.45
X110.6Y-53.05
X110.66Y-68.28
X110.667Y-70.267
X110.667Y-72.267
X110.667Y-74.267
X110.667Y-76.267
X111.2Y-50.65
X111.2Y-51.25
X111.2Y-51.85
X111.2Y-52.45
X111.2Y-53.05
X111.8Y-50.65
X111.8Y-51.25
X111.8Y-51.85
X111.8Y-52.45
X111.8Y-53.05
X112.4Y-51.25
X112.4Y-51.85
X112.4Y-52.45
X112.667Y-70.267
X112.667Y-72.267
X112.667Y-74.267
X112.667Y-76.267
X114.66Y-68.27
X114.667Y-70.267
X114.667Y-72.267
X114.667Y-74.267
X114.667Y-76.267
X115.15Y-50.65
X115.15Y-51.25
X115.15Y-51.85
X115.75Y-50.65
X115.75Y-51.25
X115.75Y-51.85
X116.35Y-50.65
X116.35Y-51.25
X116.35Y-51.85
X116.66Y-68.27
X116.667Y-66.267
X116.667Y-70.267
X116.667Y-72.267
X116.667Y-74.267
X116.667Y-76.267
X116.95Y-50.65
X116.95Y-51.25
X116.95Y-51.85
X117.55Y-50.65
X117.55Y-51.25
X117.55Y-51.85
X118.15Y-50.65
X118.15Y-51.25
X118.15Y-51.85
X118.667Y-64.267
X118.667Y-66.267
X118.667Y-68.267
X118.667Y-70.267
X118.667Y-72.267
X118.667Y-74.267
X118.667Y-76.267
X118.67Y-62.27
X118.75Y-50.65
X118.75Y-51.25
X118.75Y-51.85
X119.35Y-50.65
X119.35Y-51.25
X119.35Y-51.85
X119.95Y-50.65
X119.95Y-51.25
X119.95Y-51.85
X120.2Y-60.7
X120.55Y-50.65
X120.55Y-51.25
X120.55Y-51.85
X120.667Y-64.267
X120.667Y-66.267
X120.667Y-68.267
X120.667Y-70.267
X120.667Y-72.267
X120.667Y-74.267
X120.667Y-76.267
X120.67Y-62.27
X121.15Y-50.65
X121.15Y-51.25
X121.15Y-51.85
X121.75Y-50.65
X121.75Y-51.25
X121.75Y-51.85
X122.35Y-50.65
X122.35Y-51.25
X122.35Y-51.85
X122.65Y-77.35
X122.667Y-64.267
X122.667Y-66.267
X122.667Y-68.267
X122.667Y-70.267
X122.667Y-72.267
X122.667Y-74.267
X122.667Y-76.267
X122.67Y-62.27
X122.95Y-50.65
X122.95Y-51.25
X122.95Y-51.85
X123.55Y-50.65
X123.55Y-51.25
X123.55Y-51.85
X123.65Y-77.35
X124.0Y-70.28
X124.0Y-70.88
X124.0Y-71.48
X124.0Y-72.08
X124.0Y-72.68
X124.15Y-50.65
X124.15Y-51.25
X124.15Y-51.85
X124.6Y-70.88
X124.6Y-72.08
X124.65Y-77.35
X124.75Y-50.65
X124.75Y-51.25
X124.75Y-51.85
X125.2Y-70.88
X125.2Y-72.08
X125.35Y-50.65
X125.35Y-51.25
X125.35Y-51.85
X125.65Y-77.35
X125.939Y-65.15
X125.939Y-65.85
X125.939Y-66.55
X125.939Y-67.25
X125.939Y-67.95
X125.95Y-50.65
X125.95Y-51.25
X125.95Y-51.85
X126.55Y-50.65
X126.55Y-51.25
X126.55Y-51.85
X126.639Y-65.15
X126.639Y-65.85
X126.639Y-66.55
X126.639Y-67.25
X126.639Y-67.95
X126.65Y-77.35
X127.15Y-50.65
X127.15Y-51.25
X127.15Y-51.85
X127.339Y-65.15
X127.339Y-65.85
X127.339Y-67.25
X127.339Y-67.95
X127.35Y-66.55
X127.41Y-70.68
X127.41Y-71.38
X127.41Y-72.08
X127.41Y-72.78
X127.41Y-73.48
X127.51Y-75.42
X127.65Y-77.35
X127.75Y-50.65
X127.75Y-51.25
X127.75Y-51.85
X127.994Y-65.806
X128.039Y-65.15
X128.039Y-66.55
X128.039Y-67.25
X128.039Y-67.95
X128.11Y-70.68
X128.11Y-71.38
X128.11Y-72.08
X128.11Y-72.78
X128.11Y-73.48
X128.667Y-52.267
X128.694Y-65.106
X128.739Y-65.85
X128.739Y-66.55
X128.739Y-67.25
X128.739Y-67.95
X128.81Y-70.68
X128.81Y-71.38
X128.81Y-72.08
X128.81Y-72.78
X128.81Y-73.48
X129.51Y-70.68
X129.51Y-71.38
X129.51Y-72.08
X129.51Y-72.78
X129.51Y-73.48
X129.65Y-77.35
X130.21Y-70.68
X130.21Y-71.38
X130.21Y-72.08
X130.21Y-72.78
X130.21Y-73.48
X130.65Y-77.35
X130.667Y-52.267
X130.667Y-54.267
X131.4Y-57.15
X131.65Y-77.35
X132.65Y-77.35
X132.7Y-54.0
X133.65Y-77.35
X133.95Y-49.65
X134.15Y-50.85
X134.65Y-51.35
X134.65Y-77.35
X134.8Y-54.6
X134.95Y-49.65
X135.15Y-51.85
X135.574Y-55.372
X135.65Y-52.35
X135.65Y-77.35
X136.45Y-52.35
X136.65Y-77.35
X137.15Y-52.55
X137.35Y-49.65
X137.65Y-77.35
X138.249Y-54.452
X138.249Y-55.152
X138.249Y-55.852
X138.249Y-56.552
X138.249Y-57.252
X138.31Y-61.2
X138.65Y-77.35
X138.667Y-48.267
X138.949Y-54.452
X138.949Y-55.152
X138.949Y-55.852
X138.949Y-56.552
X138.949Y-57.252
X139.15Y-60.35
X139.649Y-54.452
X139.649Y-55.152
X139.649Y-56.552
X139.649Y-57.252
X139.65Y-55.85
X139.65Y-77.35
X140.15Y-60.35
X140.349Y-54.452
X140.349Y-55.152
X140.349Y-55.852
X140.349Y-56.552
X140.349Y-57.252
X140.65Y-77.35
X140.667Y-48.267
X140.667Y-50.267
X140.75Y-52.15
X141.02Y-61.25
X141.049Y-54.452
X141.049Y-55.152
X141.049Y-55.852
X141.049Y-56.552
X141.049Y-57.252
X141.65Y-77.35
X141.85Y-52.75
X142.65Y-77.35
X142.667Y-48.267
X142.75Y-52.75
X143.35Y-53.35
X143.65Y-77.35
X143.97Y-53.93
X144.45Y-56.25
X144.55Y-54.85
X144.65Y-77.35
X144.667Y-48.267
X145.65Y-77.35
X146.65Y-77.35
X146.667Y-48.267
X147.65Y-77.35
X148.05Y-50.35
X148.2Y-53.952
X148.2Y-55.402
X148.2Y-56.802
X148.65Y-77.35
X148.667Y-48.267
X149.0Y-53.8
X149.0Y-55.55
X149.06Y-70.58
X149.06Y-71.28
X149.06Y-71.98
X149.06Y-72.68
X149.06Y-73.38
X149.65Y-77.35
X149.76Y-70.58
X149.76Y-71.28
X149.76Y-71.98
X149.76Y-72.68
X149.76Y-73.38
X150.46Y-70.58
X150.46Y-71.28
X150.46Y-71.98
X150.46Y-72.68
X150.46Y-73.38
X150.561Y-65.049
X150.561Y-65.749
X150.561Y-66.449
X150.561Y-67.149
X150.561Y-67.849
X151.16Y-70.58
X151.16Y-71.28
X151.16Y-71.98
X151.16Y-72.68
X151.16Y-73.38
X151.261Y-65.049
X151.261Y-65.749
X151.261Y-66.449
X151.261Y-67.149
X151.261Y-67.849
X151.65Y-77.35
X151.74Y-75.34
X151.86Y-70.58
X151.86Y-71.28
X151.86Y-71.98
X151.86Y-72.68
X151.86Y-73.38
X151.961Y-65.049
X151.961Y-65.751
X151.961Y-66.45
X151.961Y-67.149
X151.961Y-67.849
X152.65Y-77.35
X152.661Y-65.049
X152.661Y-65.749
X152.661Y-66.449
X152.661Y-67.149
X152.661Y-67.849
X152.85Y-50.65
X152.85Y-51.25
X152.85Y-51.85
X153.361Y-65.049
X153.361Y-65.749
X153.361Y-66.449
X153.361Y-67.149
X153.361Y-67.849
X153.45Y-50.65
X153.45Y-51.25
X153.45Y-51.85
X153.65Y-77.35
X154.05Y-50.65
X154.05Y-51.25
X154.05Y-51.85
X154.069Y-72.085
X154.069Y-73.285
X154.65Y-50.65
X154.65Y-51.25
X154.65Y-51.85
X154.65Y-77.35
X154.669Y-72.085
X154.669Y-73.285
X155.25Y-50.65
X155.25Y-51.25
X155.25Y-51.85
X155.269Y-71.485
X155.269Y-72.085
X155.269Y-72.685
X155.269Y-73.285
X155.269Y-73.885
X155.65Y-77.35
X155.85Y-50.65
X155.85Y-51.25
X155.85Y-51.85
X156.15Y-60.55
X156.45Y-50.65
X156.45Y-51.25
X156.45Y-51.85
X156.65Y-77.35
X156.667Y-72.267
X156.667Y-74.267
X156.667Y-76.267
X156.75Y-60.55
X156.75Y-61.15
X156.75Y-61.75
X156.95Y-65.65
X157.05Y-50.65
X157.05Y-51.25
X157.05Y-51.85
X157.35Y-60.55
X157.35Y-61.15
X157.35Y-61.75
X157.35Y-62.35
X157.65Y-50.65
X157.65Y-51.25
X157.65Y-51.85
X157.95Y-60.55
X157.95Y-61.15
X157.95Y-61.75
X157.95Y-62.35
X158.25Y-50.65
X158.25Y-51.25
X158.25Y-51.85
X158.35Y-65.65
X158.55Y-60.55
X158.55Y-61.15
X158.55Y-61.75
X158.55Y-62.35
X158.667Y-72.267
X158.667Y-74.267
X158.67Y-76.27
X158.85Y-50.65
X158.85Y-51.25
X158.85Y-51.85
X159.15Y-60.55
X159.15Y-61.15
X159.15Y-61.75
X159.15Y-62.35
X159.45Y-50.65
X159.45Y-51.25
X159.45Y-51.85
X159.75Y-60.55
X159.75Y-61.15
X159.75Y-61.75
X159.75Y-62.35
X160.05Y-50.65
X160.05Y-51.25
X160.05Y-51.85
X160.05Y-65.65
X160.35Y-60.55
X160.35Y-61.15
X160.35Y-61.75
X160.35Y-62.35
X160.65Y-50.65
X160.65Y-51.25
X160.65Y-51.85
X160.667Y-72.267
X160.667Y-74.267
X160.67Y-76.27
X160.95Y-60.55
X160.95Y-61.15
X160.95Y-61.75
X160.95Y-62.35
X161.25Y-50.65
X161.25Y-51.25
X161.25Y-51.85
X161.55Y-60.55
X161.55Y-61.15
X161.55Y-61.75
X161.55Y-62.35
X161.6Y-65.7
X161.85Y-50.65
X161.85Y-51.25
X161.85Y-51.85
X162.15Y-62.35
X162.45Y-50.65
X162.45Y-51.25
X162.45Y-51.85
X162.667Y-72.267
X162.667Y-74.267
X162.67Y-76.27
X162.75Y-62.35
X163.05Y-50.65
X163.05Y-51.25
X163.05Y-51.85
X163.35Y-62.35
X163.65Y-50.65
X163.65Y-51.25
X163.65Y-51.85
X163.95Y-61.15
X163.95Y-61.75
X163.95Y-62.35
X164.25Y-50.65
X164.25Y-51.25
X164.25Y-51.85
X164.65Y-68.25
X164.65Y-70.25
X164.667Y-72.267
X164.667Y-74.267
X164.667Y-76.267
X166.65Y-50.65
X166.65Y-51.25
X166.65Y-51.85
X166.65Y-68.25
X166.65Y-70.25
X166.65Y-76.25
X166.667Y-64.267
X166.667Y-72.267
X166.667Y-74.267
X167.25Y-50.65
X167.25Y-51.25
X167.25Y-51.85
X167.85Y-50.65
X167.85Y-51.25
X167.85Y-51.85
X168.65Y-68.25
X168.65Y-70.25
X168.65Y-72.25
X168.65Y-74.25
X168.65Y-76.25
X170.65Y-68.25
X170.65Y-70.25
X170.65Y-72.25
X170.65Y-74.25
X170.65Y-76.25
X170.667Y-66.267
X170.67Y-48.27
X170.67Y-50.27
X170.67Y-52.27
X172.65Y-68.25
X172.65Y-70.25
X172.65Y-72.25
X172.65Y-74.25
X172.65Y-78.25
X172.667Y-48.267
X172.667Y-54.267
X172.667Y-56.267
X172.667Y-58.267
X172.667Y-60.267
X172.667Y-62.267
X172.667Y-64.267
X172.667Y-66.267
X172.67Y-52.27
X172.673Y-50.273
X174.65Y-68.25
X174.65Y-70.25
X174.65Y-72.25
X174.65Y-76.25
X174.65Y-78.25
X174.667Y-48.267
X174.667Y-54.267
X174.667Y-56.267
X174.667Y-58.267
X174.667Y-60.267
X174.667Y-62.267
X174.667Y-64.267
X174.667Y-66.267
X174.67Y-52.27
X174.673Y-50.273
X176.65Y-72.25
X176.65Y-74.25
X176.65Y-76.25
X176.65Y-78.25
X176.667Y-48.267
X176.667Y-54.267
X176.667Y-56.267
X176.667Y-60.267
X176.667Y-62.267
X176.667Y-64.267
X176.667Y-66.267
X176.667Y-68.267
X176.67Y-52.27
X176.673Y-50.273
X178.65Y-72.25
X178.65Y-74.25
X178.65Y-76.25
X178.65Y-78.25
X178.667Y-48.267
X178.667Y-54.267
X178.667Y-56.267
X178.667Y-60.267
X178.667Y-62.267
X178.667Y-64.267
X178.667Y-66.267
X178.67Y-52.27
X178.673Y-50.273
T3
X100.85Y-70.6
X100.85Y-78.1
X113.75Y-51.0
X113.75Y-54.5
X165.45Y-51.55
X165.45Y-55.05
T4
X178.1Y-57.55
X178.1Y-68.55
T5
X168.1Y-60.55
X168.1Y-65.55
T2
X102.65Y-58.7G85X101.85Y-58.7
G05
X102.65Y-67.34G85X101.85Y-67.34
G05
X106.95Y-58.7G85X105.85Y-58.7
G05
X106.95Y-67.34G85X105.85Y-67.34
G05
M30
