%TF.GenerationSoftware,KiCad,Pcbnew,9.0.6*%
%TF.CreationDate,2025-12-05T19:38:51+01:00*%
%TF.ProjectId,PowerPack,506f7765-7250-4616-936b-2e6b69636164,rev?*%
%TF.SameCoordinates,Original*%
%TF.FileFunction,Copper,L2,Bot*%
%TF.FilePolarity,Positive*%
%FSLAX46Y46*%
G04 Gerber Fmt 4.6, Leading zero omitted, Abs format (unit mm)*
G04 Created by KiCad (PCBNEW 9.0.6) date 2025-12-05 19:38:51*
%MOMM*%
%LPD*%
G01*
G04 APERTURE LIST*
%TA.AperFunction,ComponentPad*%
%ADD10C,2.500000*%
%TD*%
%TA.AperFunction,ComponentPad*%
%ADD11C,1.800000*%
%TD*%
%TA.AperFunction,ComponentPad*%
%ADD12C,1.600000*%
%TD*%
%TA.AperFunction,ComponentPad*%
%ADD13O,2.100000X1.000000*%
%TD*%
%TA.AperFunction,ComponentPad*%
%ADD14O,1.800000X1.000000*%
%TD*%
%TA.AperFunction,ViaPad*%
%ADD15C,0.600000*%
%TD*%
%TA.AperFunction,Conductor*%
%ADD16C,0.200000*%
%TD*%
%TA.AperFunction,Conductor*%
%ADD17C,0.400000*%
%TD*%
G04 APERTURE END LIST*
D10*
%TO.P,CN1,1,-*%
%TO.N,GND*%
X166400000Y-98000000D03*
%TO.P,CN1,2,+*%
%TO.N,VBUSR_Source*%
X166400000Y-93000000D03*
D11*
%TO.P,CN1,3,3*%
%TO.N,GND*%
X176400000Y-90000000D03*
%TO.P,CN1,4,4*%
X176400000Y-101000000D03*
%TD*%
D12*
%TO.P,CL1,1,1*%
%TO.N,VBUSL_Source*%
X112650000Y-85700000D03*
%TO.P,CL1,2,2*%
%TO.N,GND*%
X109150000Y-85700000D03*
%TD*%
D13*
%TO.P,USB1,1,SHELL*%
%TO.N,GND*%
X105650000Y-91180000D03*
%TO.P,USB1,2,SHELL*%
X105650000Y-99820000D03*
D14*
%TO.P,USB1,3,SHELL*%
X101500000Y-91180000D03*
%TO.P,USB1,4,SHELL*%
X101500000Y-99820000D03*
%TD*%
D12*
%TO.P,CR1,1,1*%
%TO.N,VBUSR_Source*%
X165500000Y-87410000D03*
%TO.P,CR1,2,2*%
%TO.N,GND*%
X165500000Y-83910000D03*
%TD*%
D15*
%TO.N,GND*%
X102600000Y-84600000D03*
X138600000Y-80600000D03*
X148600000Y-84610000D03*
X100600000Y-84600000D03*
X178150000Y-92550000D03*
X150400000Y-110118000D03*
X131482000Y-110100000D03*
X140482000Y-110100000D03*
X150400000Y-106118000D03*
X138482000Y-110100000D03*
X150580000Y-86610000D03*
X152560000Y-90610000D03*
X141482000Y-110100000D03*
X117482000Y-106100000D03*
X134482000Y-109100000D03*
X118482000Y-110100000D03*
X117482000Y-108100000D03*
X125482000Y-110100000D03*
X116482000Y-109100000D03*
X155500000Y-92900000D03*
X132482000Y-110100000D03*
X142482000Y-110100000D03*
X158540000Y-84580000D03*
X133800000Y-88301000D03*
X144200000Y-94582000D03*
X112475000Y-100050000D03*
X150580000Y-80610000D03*
X108250000Y-91800000D03*
X178200000Y-110000000D03*
X133000000Y-89100000D03*
X148580000Y-90610000D03*
X100600000Y-86600000D03*
X133482000Y-110100000D03*
X145482000Y-110100000D03*
X116475000Y-104093000D03*
X164200000Y-110000000D03*
X107025000Y-110125000D03*
X136600000Y-80600000D03*
X115475000Y-109093000D03*
X102600000Y-80600000D03*
X152580000Y-86610000D03*
X154560000Y-90610000D03*
X142600000Y-80600000D03*
X133000000Y-87500000D03*
X133800000Y-87500000D03*
X154580000Y-80610000D03*
X102600000Y-82600000D03*
X100600000Y-82600000D03*
X140600000Y-80600000D03*
X121482000Y-110100000D03*
X139482000Y-110100000D03*
X149400000Y-110118000D03*
X135482000Y-109100000D03*
X158500000Y-92900000D03*
X131400000Y-88301000D03*
X133000000Y-88301000D03*
X131482000Y-109100000D03*
X107250000Y-90800000D03*
X158200000Y-110000000D03*
X144482000Y-110100000D03*
X150580000Y-88610000D03*
X117482000Y-109100000D03*
X100650000Y-92980000D03*
X147482000Y-110100000D03*
X158500000Y-93900000D03*
X105025000Y-110125000D03*
X172200000Y-110000000D03*
X100650000Y-95980000D03*
X143482000Y-110100000D03*
X152400000Y-108118000D03*
X116475000Y-105093000D03*
X149400000Y-109118000D03*
X106600000Y-80600000D03*
X117482000Y-107100000D03*
X152560000Y-88610000D03*
X160580000Y-80610000D03*
X154200000Y-110118000D03*
X154560000Y-84610000D03*
X122482000Y-110100000D03*
X157500000Y-93900000D03*
X111445000Y-82647000D03*
X152580000Y-80610000D03*
X124482000Y-110100000D03*
X133000000Y-89900000D03*
X170200000Y-110000000D03*
X154200000Y-108118000D03*
X106250000Y-102200000D03*
X100650000Y-93980000D03*
X136482000Y-110100000D03*
X151400000Y-106118000D03*
X109250000Y-91800000D03*
X149400000Y-107118000D03*
X130599000Y-87500000D03*
X176150000Y-94550000D03*
X156200000Y-108000000D03*
X126500000Y-109118000D03*
X101650000Y-97980000D03*
X150400000Y-109118000D03*
X130599000Y-90700000D03*
X148580000Y-88610000D03*
X178150000Y-98550000D03*
X149400000Y-108118000D03*
X131400000Y-90700000D03*
X162200000Y-110000000D03*
X160200000Y-110000000D03*
X151400000Y-107118000D03*
X170600000Y-82600000D03*
X162600000Y-80600000D03*
X156200000Y-110000000D03*
X132199000Y-89900000D03*
X176200000Y-106000000D03*
X156580000Y-80610000D03*
X106250000Y-103200000D03*
X131400000Y-87500000D03*
X135482000Y-110100000D03*
X168200000Y-110000000D03*
X158540000Y-88580000D03*
X168600000Y-80600000D03*
X109025000Y-110125000D03*
X126482000Y-110100000D03*
X176200000Y-104000000D03*
X150400000Y-108118000D03*
X144600000Y-80600000D03*
X137200000Y-89100000D03*
X106250000Y-104200000D03*
X150580000Y-84610000D03*
X117475000Y-105093000D03*
X154560000Y-88610000D03*
X116482000Y-106100000D03*
X149400000Y-106118000D03*
X158540000Y-86580000D03*
X100650000Y-94980000D03*
X127482000Y-109100000D03*
X101650000Y-93980000D03*
X146600000Y-84610000D03*
X176200000Y-110000000D03*
X112475000Y-99050000D03*
X104600000Y-82600000D03*
X151400000Y-110118000D03*
X148482000Y-110100000D03*
X117482000Y-110100000D03*
X133800000Y-90700000D03*
X156560000Y-84580000D03*
X174200000Y-110000000D03*
X120482000Y-110100000D03*
X104600000Y-80600000D03*
X151400000Y-108118000D03*
X132482000Y-109100000D03*
X133799000Y-89100000D03*
X131399000Y-89100000D03*
X108250000Y-90800000D03*
X117475000Y-104093000D03*
X124310000Y-95590000D03*
X124290000Y-94420000D03*
X128482000Y-109100000D03*
X130599000Y-88301000D03*
X111475000Y-99050000D03*
X100650000Y-97980000D03*
X101650000Y-92980000D03*
X133482000Y-109100000D03*
X151400000Y-109118000D03*
X137482000Y-110100000D03*
X116482000Y-110100000D03*
X176150000Y-98550000D03*
X164600000Y-80600000D03*
X156500000Y-92900000D03*
X143200000Y-94582000D03*
X101650000Y-94980000D03*
X176150000Y-96550000D03*
X154560000Y-86610000D03*
X113445000Y-82647000D03*
X146482000Y-110100000D03*
X178200000Y-106000000D03*
X157500000Y-92900000D03*
X155500000Y-93900000D03*
X115475000Y-110093000D03*
X132199000Y-89100000D03*
X146600000Y-80600000D03*
X166200000Y-110000000D03*
X156540000Y-90580000D03*
X145200000Y-94582000D03*
X134600000Y-80600000D03*
X119482000Y-110100000D03*
X100600000Y-80600000D03*
X132199000Y-87500000D03*
X123482000Y-110100000D03*
X146600000Y-86610000D03*
X100650000Y-96980000D03*
X158200000Y-108000000D03*
X156500000Y-93900000D03*
X116482000Y-107100000D03*
X176200000Y-108000000D03*
X110250000Y-90800000D03*
X116482000Y-108100000D03*
X156540000Y-88580000D03*
X178150000Y-96550000D03*
X176150000Y-92550000D03*
X148600000Y-80600000D03*
X129482000Y-110100000D03*
X110250000Y-91800000D03*
X130482000Y-110100000D03*
X111475000Y-100050000D03*
X133800000Y-89900000D03*
X152580000Y-84610000D03*
X152400000Y-109118000D03*
X101650000Y-96980000D03*
X137482000Y-109100000D03*
X138482000Y-109100000D03*
X101650000Y-95980000D03*
X150400000Y-107118000D03*
X178150000Y-94550000D03*
X109250000Y-90800000D03*
X152400000Y-110118000D03*
X178200000Y-104000000D03*
X127482000Y-110100000D03*
X130599000Y-89900000D03*
X132199000Y-90700000D03*
X129482000Y-109100000D03*
X148600000Y-86610000D03*
X166600000Y-80600000D03*
X109445000Y-82647000D03*
X128482000Y-110100000D03*
X131400000Y-89900000D03*
X130599000Y-89100000D03*
X160200000Y-108000000D03*
X156560000Y-86580000D03*
X150580000Y-90610000D03*
X100600000Y-88600000D03*
X158540000Y-90580000D03*
X158580000Y-80610000D03*
X136482000Y-109100000D03*
X142200000Y-94582000D03*
X152400000Y-106118000D03*
X170600000Y-80600000D03*
X152400000Y-107118000D03*
X162200000Y-108000000D03*
X134482000Y-110100000D03*
X130482000Y-109100000D03*
X132199000Y-88301000D03*
X133000000Y-90700000D03*
X178200000Y-108000000D03*
%TO.N,VBUSL_Source*%
X126557000Y-90763000D03*
X113810000Y-92760000D03*
%TO.N,VBUSL_CIO*%
X127008480Y-89129118D03*
X112780000Y-94222500D03*
%TO.N,HLED*%
X108900000Y-101200000D03*
X127140000Y-88340000D03*
%TO.N,BAT-MODE*%
X130355000Y-84295000D03*
X114050000Y-101250000D03*
%TO.N,Net-(D3-C)*%
X168750000Y-84250000D03*
X107950000Y-105750000D03*
X113000000Y-105750000D03*
%TO.N,Net-(LED1--)*%
X103550000Y-103100000D03*
X126800000Y-86850000D03*
%TO.N,Net-(Q1-G)*%
X127127356Y-89920239D03*
X114390000Y-95020000D03*
%TO.N,CIO_CC2*%
X134731000Y-84250000D03*
X101900000Y-88350000D03*
%TO.N,CIO_CC1*%
X104300000Y-106800000D03*
X104630000Y-93760000D03*
%TO.N,LED2{slash}SDA*%
X131990707Y-83959293D03*
X103350000Y-105600000D03*
%TO.N,LED1{slash}SCL*%
X103300000Y-107900000D03*
X126850000Y-81490000D03*
%TO.N,CIO_DP*%
X134031272Y-83726564D03*
X102900000Y-88350000D03*
%TO.N,Net-(QLB1-D)*%
X120200000Y-104760000D03*
X120800000Y-106860000D03*
X122000000Y-104760000D03*
X120800000Y-104060000D03*
X120200000Y-104060000D03*
X122000000Y-106160000D03*
X119600000Y-103360000D03*
X120200000Y-103360000D03*
X120200000Y-105460000D03*
X122600000Y-105460000D03*
X122600000Y-104060000D03*
X119600000Y-104760000D03*
X122600000Y-106860000D03*
X121400000Y-104060000D03*
X120800000Y-105460000D03*
X120200000Y-106860000D03*
X122000000Y-106860000D03*
X120800000Y-106160000D03*
X121400000Y-105460000D03*
X119600000Y-106860000D03*
X120200000Y-106160000D03*
X122600000Y-104760000D03*
X122600000Y-106160000D03*
X122000000Y-104060000D03*
X121400000Y-104760000D03*
X120800000Y-104760000D03*
X121400000Y-103360000D03*
X121400000Y-106160000D03*
X120800000Y-103360000D03*
X122000000Y-105460000D03*
X122000000Y-103360000D03*
X122600000Y-103360000D03*
X121400000Y-106860000D03*
X119600000Y-104060000D03*
X119600000Y-105460000D03*
X119600000Y-106160000D03*
%TO.N,Net-(QRB1-D)*%
X142500000Y-103360000D03*
X144900000Y-105460000D03*
X143700000Y-104760000D03*
X143700000Y-104060000D03*
X144300000Y-104060000D03*
X143100000Y-104760000D03*
X145500000Y-104760000D03*
X142500000Y-105460000D03*
X145500000Y-103360000D03*
X143700000Y-106160000D03*
X144300000Y-103360000D03*
X143100000Y-103360000D03*
X144300000Y-106160000D03*
X144300000Y-105460000D03*
X143100000Y-106860000D03*
X145500000Y-106860000D03*
X143100000Y-105460000D03*
X144900000Y-104760000D03*
X144900000Y-106160000D03*
X143100000Y-104060000D03*
X143700000Y-105460000D03*
X144300000Y-104760000D03*
X145500000Y-105460000D03*
X145500000Y-104060000D03*
X142500000Y-106160000D03*
X144900000Y-104060000D03*
X143700000Y-106860000D03*
X142500000Y-104760000D03*
X144900000Y-103360000D03*
X144300000Y-106860000D03*
X142500000Y-104060000D03*
X145500000Y-106160000D03*
X143700000Y-103360000D03*
X144900000Y-106860000D03*
X143100000Y-106160000D03*
X142500000Y-106860000D03*
%TO.N,Net-(QLT1-D)*%
X119600000Y-96600000D03*
X120800000Y-96600000D03*
X120200000Y-98000000D03*
X122000000Y-99400000D03*
X120200000Y-96600000D03*
X121400000Y-98700000D03*
X121400000Y-96600000D03*
X119600000Y-98000000D03*
X120200000Y-97300000D03*
X121400000Y-97300000D03*
X122600000Y-98000000D03*
X119600000Y-98700000D03*
X120800000Y-97300000D03*
X119600000Y-99400000D03*
X122000000Y-96600000D03*
X120800000Y-99400000D03*
X120200000Y-99400000D03*
X122600000Y-98700000D03*
X122600000Y-99400000D03*
X122600000Y-97300000D03*
X120200000Y-95900000D03*
X121400000Y-99400000D03*
X122600000Y-96600000D03*
X121400000Y-95900000D03*
X119600000Y-95900000D03*
X122600000Y-95900000D03*
X119600000Y-97300000D03*
X120800000Y-98700000D03*
X121400000Y-98000000D03*
X120800000Y-98000000D03*
X120800000Y-95900000D03*
X122000000Y-97300000D03*
X122000000Y-98700000D03*
X122000000Y-98000000D03*
X120200000Y-98700000D03*
X122000000Y-95900000D03*
%TO.N,Net-(QRT1-D)*%
X144500000Y-98200000D03*
X142700000Y-96800000D03*
X145100000Y-98200000D03*
X145700000Y-99600000D03*
X142700000Y-99600000D03*
X144500000Y-97500000D03*
X144500000Y-96100000D03*
X145100000Y-97500000D03*
X143300000Y-96100000D03*
X143900000Y-99600000D03*
X144500000Y-96800000D03*
X145100000Y-96800000D03*
X145100000Y-96100000D03*
X145700000Y-96800000D03*
X144500000Y-99600000D03*
X142700000Y-98200000D03*
X143900000Y-98900000D03*
X145700000Y-98900000D03*
X145100000Y-99600000D03*
X143300000Y-97500000D03*
X143300000Y-99600000D03*
X145700000Y-98200000D03*
X142700000Y-98900000D03*
X143300000Y-96800000D03*
X145700000Y-96100000D03*
X144500000Y-98900000D03*
X142700000Y-96100000D03*
X143300000Y-98900000D03*
X145100000Y-98900000D03*
X145700000Y-97500000D03*
X142700000Y-97500000D03*
X143900000Y-97500000D03*
X143900000Y-96800000D03*
X143300000Y-98200000D03*
X143900000Y-98200000D03*
X143900000Y-96100000D03*
%TD*%
D16*
%TO.N,VBUSL_Source*%
X115807000Y-90763000D02*
X113810000Y-92760000D01*
X126557000Y-90763000D02*
X115807000Y-90763000D01*
%TO.N,VBUSL_CIO*%
X127008480Y-89129118D02*
X125977598Y-90160000D01*
X112780000Y-92901873D02*
X112780000Y-94222500D01*
X115521873Y-90160000D02*
X112780000Y-92901873D01*
X125977598Y-90160000D02*
X115521873Y-90160000D01*
%TO.N,HLED*%
X108920000Y-101070000D02*
X108900000Y-101090000D01*
X110571000Y-98449000D02*
X108920000Y-100100000D01*
X118370000Y-91960000D02*
X111881000Y-98449000D01*
X127728356Y-91131644D02*
X126900000Y-91960000D01*
X127728356Y-88928356D02*
X127728356Y-91131644D01*
X126900000Y-91960000D02*
X118370000Y-91960000D01*
X108900000Y-101090000D02*
X108900000Y-101200000D01*
X111881000Y-98449000D02*
X110571000Y-98449000D01*
X108920000Y-100100000D02*
X108920000Y-101070000D01*
X127140000Y-88340000D02*
X127728356Y-88928356D01*
%TO.N,BAT-MODE*%
X128200000Y-91390000D02*
X127020000Y-92570000D01*
X128200000Y-85953480D02*
X128200000Y-91390000D01*
X130355000Y-84295000D02*
X129858480Y-84295000D01*
X118550000Y-92570000D02*
X114070000Y-97050000D01*
X129858480Y-84295000D02*
X128200000Y-85953480D01*
X127020000Y-92570000D02*
X118550000Y-92570000D01*
X114070000Y-101230000D02*
X114050000Y-101250000D01*
X114070000Y-97050000D02*
X114070000Y-101230000D01*
D17*
%TO.N,Net-(D3-C)*%
X168750000Y-84250000D02*
X167050000Y-82550000D01*
X128710000Y-91740000D02*
X127150000Y-93300000D01*
X128710000Y-86152000D02*
X128710000Y-91740000D01*
X137311364Y-85000000D02*
X129862000Y-85000000D01*
X115000000Y-104550000D02*
X113800000Y-105750000D01*
X118850000Y-93300000D02*
X115000000Y-97150000D01*
X139761364Y-82550000D02*
X137311364Y-85000000D01*
X113800000Y-105750000D02*
X113000000Y-105750000D01*
X113000000Y-105750000D02*
X107950000Y-105750000D01*
X115000000Y-97150000D02*
X115000000Y-104550000D01*
X167050000Y-82550000D02*
X139761364Y-82550000D01*
X127150000Y-93300000D02*
X118850000Y-93300000D01*
X129862000Y-85000000D02*
X128710000Y-86152000D01*
D16*
%TO.N,Net-(LED1--)*%
X124449000Y-89201000D02*
X104549000Y-89201000D01*
X103740000Y-102910000D02*
X103550000Y-103100000D01*
X126800000Y-86850000D02*
X124449000Y-89201000D01*
X103740000Y-90010000D02*
X103740000Y-102910000D01*
X104549000Y-89201000D02*
X103740000Y-90010000D01*
%TO.N,Net-(Q1-G)*%
X117940000Y-91470000D02*
X114390000Y-95020000D01*
X127127356Y-89920239D02*
X127300356Y-90093239D01*
X126750000Y-91470000D02*
X117940000Y-91470000D01*
X127300356Y-90919644D02*
X126750000Y-91470000D01*
X127300356Y-90093239D02*
X127300356Y-90919644D01*
%TO.N,CIO_CC2*%
X134218943Y-82849000D02*
X127933900Y-82849000D01*
X134731000Y-83361057D02*
X134218943Y-82849000D01*
X103348943Y-87949000D02*
X103148943Y-87749000D01*
X103148943Y-87749000D02*
X102501000Y-87749000D01*
X122833900Y-87949000D02*
X103348943Y-87949000D01*
X127933900Y-82849000D02*
X122833900Y-87949000D01*
X134731000Y-84250000D02*
X134731000Y-83361057D01*
X102501000Y-87749000D02*
X101900000Y-88350000D01*
%TO.N,CIO_CC1*%
X104220000Y-100320000D02*
X104220000Y-94170000D01*
X104850000Y-100950000D02*
X104220000Y-100320000D01*
X104220000Y-94170000D02*
X104630000Y-93760000D01*
X104300000Y-106800000D02*
X104850000Y-106250000D01*
X104850000Y-106250000D02*
X104850000Y-100950000D01*
%TO.N,LED2{slash}SDA*%
X104150000Y-88800000D02*
X103230000Y-89720000D01*
X131681000Y-83651000D02*
X128266100Y-83651000D01*
X102949000Y-102551000D02*
X102949000Y-105199000D01*
X102949000Y-105199000D02*
X103350000Y-105600000D01*
X123117100Y-88800000D02*
X104150000Y-88800000D01*
X131989293Y-83959293D02*
X131681000Y-83651000D01*
X103230000Y-89720000D02*
X103230000Y-102270000D01*
X128266100Y-83651000D02*
X123117100Y-88800000D01*
X131990707Y-83959293D02*
X131989293Y-83959293D01*
X103230000Y-102270000D02*
X102949000Y-102551000D01*
%TO.N,LED1{slash}SCL*%
X101299000Y-88101057D02*
X102052057Y-87348000D01*
X102548000Y-101902000D02*
X102780000Y-101670000D01*
X103300000Y-107900000D02*
X102548000Y-107148000D01*
X102052057Y-87348000D02*
X103315043Y-87348000D01*
X103315043Y-87348000D02*
X103467043Y-87500000D01*
X122650000Y-87500000D02*
X122641450Y-87491450D01*
X103467043Y-87500000D02*
X122650000Y-87500000D01*
X126850000Y-83282900D02*
X126850000Y-81490000D01*
X102548000Y-107148000D02*
X102548000Y-101902000D01*
X102780000Y-90079943D02*
X101299000Y-88598943D01*
X102780000Y-101670000D02*
X102780000Y-90079943D01*
X122641450Y-87491450D02*
X126850000Y-83282900D01*
X101299000Y-88598943D02*
X101299000Y-88101057D01*
%TO.N,CIO_DP*%
X134031272Y-83726564D02*
X134031272Y-83511272D01*
X133770000Y-83250000D02*
X128100000Y-83250000D01*
X128100000Y-83250000D02*
X123000000Y-88350000D01*
X123000000Y-88350000D02*
X102900000Y-88350000D01*
X134031272Y-83511272D02*
X133770000Y-83250000D01*
%TD*%
%TA.AperFunction,Conductor*%
%TO.N,GND*%
G36*
X178692539Y-80270185D02*
G01*
X178738294Y-80322989D01*
X178749500Y-80374500D01*
X178749500Y-110625500D01*
X178729815Y-110692539D01*
X178677011Y-110738294D01*
X178625500Y-110749500D01*
X100374500Y-110749500D01*
X100307461Y-110729815D01*
X100261706Y-110677011D01*
X100250500Y-110625500D01*
X100250500Y-88677997D01*
X100698498Y-88677997D01*
X100739422Y-88830726D01*
X100761670Y-88869260D01*
X100761672Y-88869263D01*
X100818479Y-88967657D01*
X100818481Y-88967660D01*
X100937349Y-89086528D01*
X100937355Y-89086533D01*
X102143181Y-90292359D01*
X102176666Y-90353682D01*
X102179500Y-90380040D01*
X102179500Y-101369902D01*
X102172858Y-101392519D01*
X102170618Y-101415988D01*
X102162236Y-101428694D01*
X102159815Y-101436941D01*
X102152970Y-101446554D01*
X102148404Y-101452359D01*
X102067480Y-101533284D01*
X102024182Y-101608279D01*
X101988423Y-101670215D01*
X101947499Y-101822943D01*
X101947499Y-101822945D01*
X101947499Y-101991046D01*
X101947500Y-101991059D01*
X101947500Y-107061330D01*
X101947499Y-107061348D01*
X101947499Y-107227054D01*
X101947498Y-107227054D01*
X101947499Y-107227057D01*
X101988423Y-107379785D01*
X101988424Y-107379786D01*
X101999788Y-107399469D01*
X101999789Y-107399472D01*
X102067475Y-107516709D01*
X102067481Y-107516717D01*
X102176803Y-107626039D01*
X102194377Y-107648165D01*
X102615111Y-108323692D01*
X102619026Y-108329879D01*
X102619208Y-108330162D01*
X102655411Y-108379591D01*
X102655413Y-108379593D01*
X102655414Y-108379594D01*
X102658219Y-108382704D01*
X102669240Y-108396863D01*
X102678207Y-108410284D01*
X102678208Y-108410285D01*
X102678211Y-108410289D01*
X102789708Y-108521786D01*
X102789712Y-108521790D01*
X102920814Y-108609390D01*
X102920827Y-108609397D01*
X103066498Y-108669735D01*
X103066503Y-108669737D01*
X103221153Y-108700499D01*
X103221156Y-108700500D01*
X103221158Y-108700500D01*
X103378844Y-108700500D01*
X103378845Y-108700499D01*
X103533497Y-108669737D01*
X103679179Y-108609394D01*
X103810289Y-108521789D01*
X103921789Y-108410289D01*
X104009394Y-108279179D01*
X104069737Y-108133497D01*
X104100500Y-107978842D01*
X104100500Y-107821158D01*
X104085938Y-107747951D01*
X104092165Y-107678361D01*
X104135027Y-107623183D01*
X104200917Y-107599938D01*
X104219713Y-107600357D01*
X104221152Y-107600498D01*
X104221158Y-107600500D01*
X104221164Y-107600500D01*
X104378844Y-107600500D01*
X104378845Y-107600499D01*
X104533497Y-107569737D01*
X104679179Y-107509394D01*
X104810289Y-107421789D01*
X104921789Y-107310289D01*
X105009394Y-107179179D01*
X105015781Y-107163756D01*
X105018544Y-107157576D01*
X105219517Y-106739591D01*
X105243586Y-106705649D01*
X105330517Y-106618719D01*
X105330517Y-106618718D01*
X105330520Y-106618716D01*
X105409577Y-106481784D01*
X105450500Y-106329057D01*
X105450500Y-101039060D01*
X105450501Y-101039047D01*
X105450501Y-100870944D01*
X105409576Y-100718214D01*
X105409573Y-100718209D01*
X105330524Y-100581290D01*
X105330518Y-100581282D01*
X104856819Y-100107583D01*
X104823334Y-100046260D01*
X104820500Y-100019902D01*
X104820500Y-99059112D01*
X104840185Y-98992073D01*
X104892989Y-98946318D01*
X104962147Y-98936374D01*
X104976585Y-98939335D01*
X105074234Y-98965500D01*
X105074236Y-98965500D01*
X105225764Y-98965500D01*
X105225766Y-98965500D01*
X105372135Y-98926281D01*
X105503365Y-98850515D01*
X105610515Y-98743365D01*
X105686281Y-98612135D01*
X105725500Y-98465766D01*
X105725500Y-98314234D01*
X105686281Y-98167865D01*
X105610515Y-98036635D01*
X105503365Y-97929485D01*
X105403830Y-97872018D01*
X105372136Y-97853719D01*
X105298950Y-97834109D01*
X105225766Y-97814500D01*
X105074234Y-97814500D01*
X105074232Y-97814500D01*
X104976592Y-97840662D01*
X104906742Y-97838999D01*
X104848880Y-97799836D01*
X104821377Y-97735607D01*
X104820500Y-97720887D01*
X104820500Y-94750797D01*
X104840185Y-94683758D01*
X104856976Y-94662959D01*
X105129629Y-94391279D01*
X105138495Y-94383260D01*
X105140278Y-94381796D01*
X105140289Y-94381789D01*
X105251789Y-94270289D01*
X105339394Y-94139179D01*
X105399737Y-93993497D01*
X105430500Y-93838842D01*
X105430500Y-93681158D01*
X105430500Y-93681155D01*
X105430499Y-93681153D01*
X105399737Y-93526503D01*
X105339794Y-93381786D01*
X105339397Y-93380827D01*
X105339390Y-93380814D01*
X105307585Y-93333215D01*
X105286707Y-93266538D01*
X105305191Y-93199158D01*
X105357170Y-93152467D01*
X105364747Y-93149669D01*
X105364631Y-93149389D01*
X105372132Y-93146281D01*
X105372135Y-93146281D01*
X105503365Y-93070515D01*
X105610515Y-92963365D01*
X105686281Y-92832135D01*
X105725500Y-92685766D01*
X105725500Y-92534234D01*
X105686281Y-92387865D01*
X105610515Y-92256635D01*
X105503365Y-92149485D01*
X105437750Y-92111602D01*
X105372136Y-92073719D01*
X105298950Y-92054109D01*
X105225766Y-92034500D01*
X105074234Y-92034500D01*
X104927863Y-92073719D01*
X104796635Y-92149485D01*
X104796632Y-92149487D01*
X104689487Y-92256632D01*
X104689485Y-92256635D01*
X104613719Y-92387863D01*
X104604746Y-92421353D01*
X104584720Y-92496095D01*
X104584275Y-92497754D01*
X104547910Y-92557415D01*
X104485063Y-92587944D01*
X104415688Y-92579649D01*
X104361810Y-92535164D01*
X104340535Y-92468612D01*
X104340500Y-92465661D01*
X104340500Y-90310097D01*
X104360185Y-90243058D01*
X104376819Y-90222416D01*
X104761417Y-89837819D01*
X104822740Y-89804334D01*
X104849098Y-89801500D01*
X114731776Y-89801500D01*
X114798815Y-89821185D01*
X114844570Y-89873989D01*
X114854514Y-89943147D01*
X114825489Y-90006703D01*
X114819457Y-90013181D01*
X112411286Y-92421351D01*
X112299481Y-92533155D01*
X112299475Y-92533163D01*
X112261177Y-92599499D01*
X112261177Y-92599500D01*
X112220423Y-92670088D01*
X112179499Y-92822816D01*
X112179499Y-92822818D01*
X112179499Y-92990919D01*
X112179500Y-92990932D01*
X112179500Y-93234555D01*
X112176281Y-93262627D01*
X111996115Y-94037800D01*
X111994661Y-94044243D01*
X111994608Y-94044485D01*
X111994605Y-94044499D01*
X111994605Y-94044503D01*
X111989555Y-94077053D01*
X111985075Y-94105923D01*
X111984859Y-94110090D01*
X111982644Y-94127848D01*
X111979500Y-94143655D01*
X111979500Y-94301346D01*
X112010261Y-94455989D01*
X112010264Y-94456001D01*
X112070602Y-94601672D01*
X112070609Y-94601685D01*
X112158210Y-94732788D01*
X112158213Y-94732792D01*
X112269707Y-94844286D01*
X112269711Y-94844289D01*
X112400814Y-94931890D01*
X112400827Y-94931897D01*
X112546498Y-94992235D01*
X112546503Y-94992237D01*
X112701153Y-95022999D01*
X112701156Y-95023000D01*
X112701158Y-95023000D01*
X112858844Y-95023000D01*
X112858845Y-95022999D01*
X113013497Y-94992237D01*
X113159179Y-94931894D01*
X113290289Y-94844289D01*
X113398802Y-94735775D01*
X113460123Y-94702292D01*
X113529815Y-94707276D01*
X113585749Y-94749147D01*
X113610166Y-94814611D01*
X113608099Y-94847649D01*
X113589500Y-94941153D01*
X113589500Y-95098846D01*
X113620261Y-95253489D01*
X113620264Y-95253501D01*
X113680602Y-95399172D01*
X113680609Y-95399185D01*
X113768210Y-95530288D01*
X113768213Y-95530292D01*
X113771661Y-95533740D01*
X113805146Y-95595063D01*
X113800162Y-95664755D01*
X113771661Y-95709102D01*
X111668584Y-97812181D01*
X111607261Y-97845666D01*
X111580903Y-97848500D01*
X110657670Y-97848500D01*
X110657654Y-97848499D01*
X110650058Y-97848499D01*
X110491943Y-97848499D01*
X110415579Y-97868961D01*
X110339214Y-97889423D01*
X110339209Y-97889426D01*
X110202290Y-97968475D01*
X110202282Y-97968481D01*
X108439481Y-99731282D01*
X108439477Y-99731287D01*
X108399655Y-99800263D01*
X108399655Y-99800264D01*
X108360423Y-99868214D01*
X108360423Y-99868215D01*
X108319499Y-100020943D01*
X108319499Y-100020945D01*
X108319499Y-100189046D01*
X108319500Y-100189059D01*
X108319500Y-100206855D01*
X108315616Y-100237647D01*
X108119146Y-101004053D01*
X108115955Y-101017233D01*
X108115826Y-101017798D01*
X108115824Y-101017805D01*
X108105345Y-101083468D01*
X108105207Y-101086036D01*
X108103007Y-101103522D01*
X108099500Y-101121157D01*
X108099500Y-101278846D01*
X108130261Y-101433489D01*
X108130264Y-101433501D01*
X108190602Y-101579172D01*
X108190609Y-101579185D01*
X108278210Y-101710288D01*
X108278213Y-101710292D01*
X108389707Y-101821786D01*
X108389711Y-101821789D01*
X108520814Y-101909390D01*
X108520827Y-101909397D01*
X108666498Y-101969735D01*
X108666503Y-101969737D01*
X108821153Y-102000499D01*
X108821156Y-102000500D01*
X108821158Y-102000500D01*
X108978844Y-102000500D01*
X108978845Y-102000499D01*
X109133497Y-101969737D01*
X109279179Y-101909394D01*
X109410289Y-101821789D01*
X109521789Y-101710289D01*
X109609394Y-101579179D01*
X109669737Y-101433497D01*
X109700500Y-101278842D01*
X109700500Y-101121158D01*
X109690599Y-101071388D01*
X109688464Y-101054993D01*
X109686692Y-101026777D01*
X109554721Y-100393791D01*
X109560309Y-100324147D01*
X109588428Y-100280806D01*
X110783417Y-99085819D01*
X110844740Y-99052334D01*
X110871098Y-99049500D01*
X111794331Y-99049500D01*
X111794347Y-99049501D01*
X111801943Y-99049501D01*
X111960054Y-99049501D01*
X111960057Y-99049501D01*
X112112785Y-99008577D01*
X112187396Y-98965500D01*
X112249716Y-98929520D01*
X112361520Y-98817716D01*
X112361520Y-98817714D01*
X112371724Y-98807511D01*
X112371727Y-98807506D01*
X113257820Y-97921414D01*
X113319142Y-97887930D01*
X113388834Y-97892914D01*
X113444767Y-97934786D01*
X113469184Y-98000250D01*
X113469500Y-98009096D01*
X113469500Y-100256855D01*
X113465616Y-100287647D01*
X113269146Y-101054053D01*
X113265955Y-101067233D01*
X113265826Y-101067798D01*
X113265824Y-101067805D01*
X113255345Y-101133468D01*
X113255207Y-101136036D01*
X113253007Y-101153522D01*
X113249500Y-101171157D01*
X113249500Y-101328846D01*
X113280261Y-101483489D01*
X113280264Y-101483501D01*
X113340602Y-101629172D01*
X113340609Y-101629185D01*
X113428210Y-101760288D01*
X113428213Y-101760292D01*
X113539707Y-101871786D01*
X113539711Y-101871789D01*
X113670814Y-101959390D01*
X113670827Y-101959397D01*
X113770060Y-102000500D01*
X113816503Y-102019737D01*
X113948691Y-102046031D01*
X113971153Y-102050499D01*
X113971156Y-102050500D01*
X113971158Y-102050500D01*
X114128842Y-102050500D01*
X114151308Y-102046031D01*
X114220898Y-102052257D01*
X114276076Y-102095119D01*
X114299322Y-102161008D01*
X114299500Y-102167648D01*
X114299500Y-104208480D01*
X114279815Y-104275519D01*
X114263181Y-104296161D01*
X113592894Y-104966447D01*
X113531571Y-104999932D01*
X113489317Y-105001743D01*
X113134143Y-104955832D01*
X113102883Y-104952935D01*
X113102869Y-104952935D01*
X113097751Y-104952461D01*
X113094950Y-104952704D01*
X113078842Y-104949500D01*
X112921158Y-104949500D01*
X112894876Y-104954727D01*
X112883198Y-104954828D01*
X112881957Y-104954475D01*
X112878353Y-104954775D01*
X112874179Y-104954647D01*
X112059530Y-105046507D01*
X112048534Y-105048033D01*
X112046438Y-105048324D01*
X112029401Y-105049500D01*
X108917854Y-105049500D01*
X108894984Y-105046563D01*
X108894844Y-105047320D01*
X108890485Y-105046510D01*
X108075821Y-104954647D01*
X108047489Y-104952361D01*
X108033283Y-104950382D01*
X108028852Y-104949501D01*
X108028842Y-104949500D01*
X107871158Y-104949500D01*
X107871155Y-104949500D01*
X107716510Y-104980261D01*
X107716498Y-104980264D01*
X107570827Y-105040602D01*
X107570814Y-105040609D01*
X107439711Y-105128210D01*
X107439707Y-105128213D01*
X107328213Y-105239707D01*
X107328210Y-105239711D01*
X107240609Y-105370814D01*
X107240602Y-105370827D01*
X107180264Y-105516498D01*
X107180261Y-105516510D01*
X107149500Y-105671153D01*
X107149500Y-105828846D01*
X107180261Y-105983489D01*
X107180264Y-105983501D01*
X107240602Y-106129172D01*
X107240609Y-106129185D01*
X107328210Y-106260288D01*
X107328213Y-106260292D01*
X107439707Y-106371786D01*
X107439711Y-106371789D01*
X107570814Y-106459390D01*
X107570827Y-106459397D01*
X107716498Y-106519735D01*
X107716503Y-106519737D01*
X107856770Y-106547638D01*
X107871153Y-106550499D01*
X107871156Y-106550500D01*
X107871158Y-106550500D01*
X108028841Y-106550500D01*
X108028842Y-106550500D01*
X108043676Y-106547548D01*
X108071656Y-106545223D01*
X108075822Y-106545351D01*
X108890489Y-106453488D01*
X108900549Y-106452092D01*
X108903564Y-106451675D01*
X108920595Y-106450500D01*
X112032150Y-106450500D01*
X112055017Y-106453429D01*
X112055157Y-106452679D01*
X112059501Y-106453485D01*
X112059511Y-106453488D01*
X112874177Y-106545351D01*
X112902515Y-106547638D01*
X112916735Y-106549620D01*
X112921158Y-106550500D01*
X112921159Y-106550500D01*
X113078842Y-106550500D01*
X113138138Y-106538704D01*
X113151866Y-106536765D01*
X113184078Y-106534043D01*
X113531776Y-106453685D01*
X113559698Y-106450500D01*
X113868996Y-106450500D01*
X113960040Y-106432389D01*
X114004328Y-106423580D01*
X114076977Y-106393488D01*
X114131807Y-106370777D01*
X114131808Y-106370776D01*
X114131811Y-106370775D01*
X114246543Y-106294114D01*
X115544114Y-104996543D01*
X115620775Y-104881811D01*
X115673580Y-104754329D01*
X115685088Y-104696472D01*
X115686323Y-104690266D01*
X115686323Y-104690263D01*
X115700500Y-104618993D01*
X115700500Y-103281153D01*
X118799500Y-103281153D01*
X118799500Y-103438846D01*
X118830260Y-103593488D01*
X118830262Y-103593493D01*
X118830263Y-103593497D01*
X118858864Y-103662547D01*
X118858865Y-103662549D01*
X118866333Y-103732018D01*
X118858865Y-103757447D01*
X118830263Y-103826503D01*
X118830262Y-103826506D01*
X118830260Y-103826511D01*
X118799500Y-103981153D01*
X118799500Y-104138846D01*
X118830260Y-104293488D01*
X118830262Y-104293493D01*
X118830263Y-104293497D01*
X118858864Y-104362547D01*
X118858865Y-104362549D01*
X118866333Y-104432018D01*
X118858865Y-104457447D01*
X118830263Y-104526503D01*
X118830262Y-104526506D01*
X118830260Y-104526511D01*
X118799500Y-104681153D01*
X118799500Y-104838846D01*
X118830260Y-104993488D01*
X118830262Y-104993493D01*
X118830263Y-104993497D01*
X118852557Y-105047320D01*
X118858865Y-105062549D01*
X118866333Y-105132018D01*
X118858865Y-105157447D01*
X118830263Y-105226503D01*
X118830262Y-105226506D01*
X118830260Y-105226511D01*
X118799500Y-105381153D01*
X118799500Y-105538846D01*
X118830260Y-105693488D01*
X118830262Y-105693493D01*
X118830263Y-105693497D01*
X118858864Y-105762547D01*
X118858865Y-105762549D01*
X118866333Y-105832018D01*
X118858865Y-105857447D01*
X118830263Y-105926503D01*
X118830262Y-105926506D01*
X118830260Y-105926511D01*
X118799500Y-106081153D01*
X118799500Y-106238846D01*
X118830260Y-106393488D01*
X118830262Y-106393493D01*
X118830263Y-106393497D01*
X118857558Y-106459394D01*
X118858865Y-106462549D01*
X118866333Y-106532018D01*
X118858865Y-106557447D01*
X118830263Y-106626503D01*
X118830262Y-106626506D01*
X118830260Y-106626511D01*
X118799500Y-106781153D01*
X118799500Y-106938846D01*
X118830261Y-107093489D01*
X118830264Y-107093501D01*
X118890602Y-107239172D01*
X118890609Y-107239185D01*
X118978210Y-107370288D01*
X118978213Y-107370292D01*
X119089707Y-107481786D01*
X119089711Y-107481789D01*
X119220814Y-107569390D01*
X119220827Y-107569397D01*
X119329420Y-107614377D01*
X119366503Y-107629737D01*
X119521153Y-107660499D01*
X119521156Y-107660500D01*
X119521158Y-107660500D01*
X119678844Y-107660500D01*
X119678845Y-107660499D01*
X119833497Y-107629737D01*
X119852547Y-107621845D01*
X119922016Y-107614377D01*
X119947452Y-107621845D01*
X119966503Y-107629737D01*
X120121153Y-107660499D01*
X120121156Y-107660500D01*
X120121158Y-107660500D01*
X120278844Y-107660500D01*
X120278845Y-107660499D01*
X120433497Y-107629737D01*
X120452547Y-107621845D01*
X120522016Y-107614377D01*
X120547452Y-107621845D01*
X120566503Y-107629737D01*
X120721153Y-107660499D01*
X120721156Y-107660500D01*
X120721158Y-107660500D01*
X120878844Y-107660500D01*
X120878845Y-107660499D01*
X121033497Y-107629737D01*
X121052547Y-107621845D01*
X121122016Y-107614377D01*
X121147452Y-107621845D01*
X121166503Y-107629737D01*
X121321153Y-107660499D01*
X121321156Y-107660500D01*
X121321158Y-107660500D01*
X121478844Y-107660500D01*
X121478845Y-107660499D01*
X121633497Y-107629737D01*
X121652547Y-107621845D01*
X121722016Y-107614377D01*
X121747452Y-107621845D01*
X121766503Y-107629737D01*
X121921153Y-107660499D01*
X121921156Y-107660500D01*
X121921158Y-107660500D01*
X122078844Y-107660500D01*
X122078845Y-107660499D01*
X122233497Y-107629737D01*
X122252547Y-107621845D01*
X122322016Y-107614377D01*
X122347452Y-107621845D01*
X122366503Y-107629737D01*
X122521153Y-107660499D01*
X122521156Y-107660500D01*
X122521158Y-107660500D01*
X122678844Y-107660500D01*
X122678845Y-107660499D01*
X122833497Y-107629737D01*
X122979179Y-107569394D01*
X123110289Y-107481789D01*
X123221789Y-107370289D01*
X123309394Y-107239179D01*
X123369737Y-107093497D01*
X123400500Y-106938842D01*
X123400500Y-106781158D01*
X123400500Y-106781155D01*
X123400499Y-106781153D01*
X123385480Y-106705649D01*
X123369737Y-106626503D01*
X123341134Y-106557450D01*
X123333666Y-106487984D01*
X123341133Y-106462552D01*
X123369737Y-106393497D01*
X123400500Y-106238842D01*
X123400500Y-106081158D01*
X123400500Y-106081155D01*
X123400499Y-106081153D01*
X123384263Y-105999531D01*
X123369737Y-105926503D01*
X123341134Y-105857450D01*
X123333666Y-105787984D01*
X123341133Y-105762552D01*
X123369737Y-105693497D01*
X123400500Y-105538842D01*
X123400500Y-105381158D01*
X123400500Y-105381155D01*
X123400499Y-105381153D01*
X123372363Y-105239707D01*
X123369737Y-105226503D01*
X123341134Y-105157450D01*
X123333666Y-105087984D01*
X123341133Y-105062552D01*
X123369737Y-104993497D01*
X123400500Y-104838842D01*
X123400500Y-104681158D01*
X123400500Y-104681155D01*
X123400499Y-104681153D01*
X123396353Y-104660308D01*
X123369737Y-104526503D01*
X123341134Y-104457450D01*
X123333666Y-104387984D01*
X123341133Y-104362552D01*
X123369737Y-104293497D01*
X123400500Y-104138842D01*
X123400500Y-103981158D01*
X123400500Y-103981155D01*
X123400499Y-103981153D01*
X123369737Y-103826503D01*
X123341134Y-103757450D01*
X123333666Y-103687984D01*
X123341133Y-103662552D01*
X123369737Y-103593497D01*
X123400500Y-103438842D01*
X123400500Y-103281158D01*
X123400500Y-103281155D01*
X123400499Y-103281153D01*
X141699500Y-103281153D01*
X141699500Y-103438846D01*
X141730260Y-103593488D01*
X141730262Y-103593493D01*
X141730263Y-103593497D01*
X141758864Y-103662547D01*
X141758865Y-103662549D01*
X141766333Y-103732018D01*
X141758865Y-103757447D01*
X141730263Y-103826503D01*
X141730262Y-103826506D01*
X141730260Y-103826511D01*
X141699500Y-103981153D01*
X141699500Y-104138846D01*
X141730260Y-104293488D01*
X141730262Y-104293493D01*
X141730263Y-104293497D01*
X141758864Y-104362547D01*
X141758865Y-104362549D01*
X141766333Y-104432018D01*
X141758865Y-104457447D01*
X141730263Y-104526503D01*
X141730262Y-104526506D01*
X141730260Y-104526511D01*
X141699500Y-104681153D01*
X141699500Y-104838846D01*
X141730260Y-104993488D01*
X141730262Y-104993493D01*
X141730263Y-104993497D01*
X141752557Y-105047320D01*
X141758865Y-105062549D01*
X141766333Y-105132018D01*
X141758865Y-105157447D01*
X141730263Y-105226503D01*
X141730262Y-105226506D01*
X141730260Y-105226511D01*
X141699500Y-105381153D01*
X141699500Y-105538846D01*
X141730260Y-105693488D01*
X141730262Y-105693493D01*
X141730263Y-105693497D01*
X141758864Y-105762547D01*
X141758865Y-105762549D01*
X141766333Y-105832018D01*
X141758865Y-105857447D01*
X141730263Y-105926503D01*
X141730262Y-105926506D01*
X141730260Y-105926511D01*
X141699500Y-106081153D01*
X141699500Y-106238846D01*
X141730260Y-106393488D01*
X141730262Y-106393493D01*
X141730263Y-106393497D01*
X141757558Y-106459394D01*
X141758865Y-106462549D01*
X141766333Y-106532018D01*
X141758865Y-106557447D01*
X141730263Y-106626503D01*
X141730262Y-106626506D01*
X141730260Y-106626511D01*
X141699500Y-106781153D01*
X141699500Y-106938846D01*
X141730261Y-107093489D01*
X141730264Y-107093501D01*
X141790602Y-107239172D01*
X141790609Y-107239185D01*
X141878210Y-107370288D01*
X141878213Y-107370292D01*
X141989707Y-107481786D01*
X141989711Y-107481789D01*
X142120814Y-107569390D01*
X142120827Y-107569397D01*
X142229420Y-107614377D01*
X142266503Y-107629737D01*
X142421153Y-107660499D01*
X142421156Y-107660500D01*
X142421158Y-107660500D01*
X142578844Y-107660500D01*
X142578845Y-107660499D01*
X142733497Y-107629737D01*
X142752547Y-107621845D01*
X142822016Y-107614377D01*
X142847452Y-107621845D01*
X142866503Y-107629737D01*
X143021153Y-107660499D01*
X143021156Y-107660500D01*
X143021158Y-107660500D01*
X143178844Y-107660500D01*
X143178845Y-107660499D01*
X143333497Y-107629737D01*
X143352547Y-107621845D01*
X143422016Y-107614377D01*
X143447452Y-107621845D01*
X143466503Y-107629737D01*
X143621153Y-107660499D01*
X143621156Y-107660500D01*
X143621158Y-107660500D01*
X143778844Y-107660500D01*
X143778845Y-107660499D01*
X143933497Y-107629737D01*
X143952547Y-107621845D01*
X144022016Y-107614377D01*
X144047452Y-107621845D01*
X144066503Y-107629737D01*
X144221153Y-107660499D01*
X144221156Y-107660500D01*
X144221158Y-107660500D01*
X144378844Y-107660500D01*
X144378845Y-107660499D01*
X144533497Y-107629737D01*
X144552547Y-107621845D01*
X144622016Y-107614377D01*
X144647452Y-107621845D01*
X144666503Y-107629737D01*
X144821153Y-107660499D01*
X144821156Y-107660500D01*
X144821158Y-107660500D01*
X144978844Y-107660500D01*
X144978845Y-107660499D01*
X145133497Y-107629737D01*
X145152547Y-107621845D01*
X145222016Y-107614377D01*
X145247452Y-107621845D01*
X145266503Y-107629737D01*
X145421153Y-107660499D01*
X145421156Y-107660500D01*
X145421158Y-107660500D01*
X145578844Y-107660500D01*
X145578845Y-107660499D01*
X145733497Y-107629737D01*
X145879179Y-107569394D01*
X146010289Y-107481789D01*
X146121789Y-107370289D01*
X146209394Y-107239179D01*
X146269737Y-107093497D01*
X146300500Y-106938842D01*
X146300500Y-106781158D01*
X146300500Y-106781155D01*
X146300499Y-106781153D01*
X146285480Y-106705649D01*
X146269737Y-106626503D01*
X146241134Y-106557450D01*
X146233666Y-106487984D01*
X146241133Y-106462552D01*
X146269737Y-106393497D01*
X146300500Y-106238842D01*
X146300500Y-106081158D01*
X146300500Y-106081155D01*
X146300499Y-106081153D01*
X146284263Y-105999531D01*
X146269737Y-105926503D01*
X146241134Y-105857450D01*
X146233666Y-105787984D01*
X146241133Y-105762552D01*
X146269737Y-105693497D01*
X146300500Y-105538842D01*
X146300500Y-105381158D01*
X146300500Y-105381155D01*
X146300499Y-105381153D01*
X146272363Y-105239707D01*
X146269737Y-105226503D01*
X146241134Y-105157450D01*
X146233666Y-105087984D01*
X146241133Y-105062552D01*
X146269737Y-104993497D01*
X146300500Y-104838842D01*
X146300500Y-104681158D01*
X146300500Y-104681155D01*
X146300499Y-104681153D01*
X146296353Y-104660308D01*
X146269737Y-104526503D01*
X146241134Y-104457450D01*
X146233666Y-104387984D01*
X146241133Y-104362552D01*
X146269737Y-104293497D01*
X146300500Y-104138842D01*
X146300500Y-103981158D01*
X146300500Y-103981155D01*
X146300499Y-103981153D01*
X146269737Y-103826503D01*
X146241134Y-103757450D01*
X146233666Y-103687984D01*
X146241133Y-103662552D01*
X146269737Y-103593497D01*
X146300500Y-103438842D01*
X146300500Y-103281158D01*
X146300500Y-103281155D01*
X146300499Y-103281153D01*
X146269738Y-103126510D01*
X146269737Y-103126503D01*
X146269735Y-103126498D01*
X146209397Y-102980827D01*
X146209390Y-102980814D01*
X146121789Y-102849711D01*
X146121786Y-102849707D01*
X146010292Y-102738213D01*
X146010288Y-102738210D01*
X145879185Y-102650609D01*
X145879172Y-102650602D01*
X145733501Y-102590264D01*
X145733489Y-102590261D01*
X145578845Y-102559500D01*
X145578842Y-102559500D01*
X145421158Y-102559500D01*
X145421155Y-102559500D01*
X145266511Y-102590260D01*
X145266506Y-102590262D01*
X145266504Y-102590262D01*
X145266503Y-102590263D01*
X145247449Y-102598155D01*
X145177982Y-102605623D01*
X145152553Y-102598156D01*
X145133497Y-102590263D01*
X145133493Y-102590262D01*
X145133488Y-102590260D01*
X144978845Y-102559500D01*
X144978842Y-102559500D01*
X144821158Y-102559500D01*
X144821155Y-102559500D01*
X144666511Y-102590260D01*
X144666506Y-102590262D01*
X144666504Y-102590262D01*
X144666503Y-102590263D01*
X144647449Y-102598155D01*
X144577982Y-102605623D01*
X144552553Y-102598156D01*
X144533497Y-102590263D01*
X144533493Y-102590262D01*
X144533488Y-102590260D01*
X144378845Y-102559500D01*
X144378842Y-102559500D01*
X144221158Y-102559500D01*
X144221155Y-102559500D01*
X144066511Y-102590260D01*
X144066506Y-102590262D01*
X144066504Y-102590262D01*
X144066503Y-102590263D01*
X144047449Y-102598155D01*
X143977982Y-102605623D01*
X143952553Y-102598156D01*
X143933497Y-102590263D01*
X143933493Y-102590262D01*
X143933488Y-102590260D01*
X143778845Y-102559500D01*
X143778842Y-102559500D01*
X143621158Y-102559500D01*
X143621155Y-102559500D01*
X143466511Y-102590260D01*
X143466506Y-102590262D01*
X143466504Y-102590262D01*
X143466503Y-102590263D01*
X143447449Y-102598155D01*
X143377982Y-102605623D01*
X143352553Y-102598156D01*
X143333497Y-102590263D01*
X143333493Y-102590262D01*
X143333488Y-102590260D01*
X143178845Y-102559500D01*
X143178842Y-102559500D01*
X143021158Y-102559500D01*
X143021155Y-102559500D01*
X142866511Y-102590260D01*
X142866506Y-102590262D01*
X142866504Y-102590262D01*
X142866503Y-102590263D01*
X142847449Y-102598155D01*
X142777982Y-102605623D01*
X142752553Y-102598156D01*
X142733497Y-102590263D01*
X142733493Y-102590262D01*
X142733488Y-102590260D01*
X142578845Y-102559500D01*
X142578842Y-102559500D01*
X142421158Y-102559500D01*
X142421155Y-102559500D01*
X142266510Y-102590261D01*
X142266498Y-102590264D01*
X142120827Y-102650602D01*
X142120814Y-102650609D01*
X141989711Y-102738210D01*
X141989707Y-102738213D01*
X141878213Y-102849707D01*
X141878210Y-102849711D01*
X141790609Y-102980814D01*
X141790602Y-102980827D01*
X141730264Y-103126498D01*
X141730261Y-103126510D01*
X141699500Y-103281153D01*
X123400499Y-103281153D01*
X123369738Y-103126510D01*
X123369737Y-103126503D01*
X123369735Y-103126498D01*
X123309397Y-102980827D01*
X123309390Y-102980814D01*
X123221789Y-102849711D01*
X123221786Y-102849707D01*
X123110292Y-102738213D01*
X123110288Y-102738210D01*
X122979185Y-102650609D01*
X122979172Y-102650602D01*
X122833501Y-102590264D01*
X122833489Y-102590261D01*
X122678845Y-102559500D01*
X122678842Y-102559500D01*
X122521158Y-102559500D01*
X122521155Y-102559500D01*
X122366511Y-102590260D01*
X122366506Y-102590262D01*
X122366504Y-102590262D01*
X122366503Y-102590263D01*
X122347449Y-102598155D01*
X122277982Y-102605623D01*
X122252553Y-102598156D01*
X122233497Y-102590263D01*
X122233493Y-102590262D01*
X122233488Y-102590260D01*
X122078845Y-102559500D01*
X122078842Y-102559500D01*
X121921158Y-102559500D01*
X121921155Y-102559500D01*
X121766511Y-102590260D01*
X121766506Y-102590262D01*
X121766504Y-102590262D01*
X121766503Y-102590263D01*
X121747449Y-102598155D01*
X121677982Y-102605623D01*
X121652553Y-102598156D01*
X121633497Y-102590263D01*
X121633493Y-102590262D01*
X121633488Y-102590260D01*
X121478845Y-102559500D01*
X121478842Y-102559500D01*
X121321158Y-102559500D01*
X121321155Y-102559500D01*
X121166511Y-102590260D01*
X121166506Y-102590262D01*
X121166504Y-102590262D01*
X121166503Y-102590263D01*
X121147449Y-102598155D01*
X121077982Y-102605623D01*
X121052553Y-102598156D01*
X121033497Y-102590263D01*
X121033493Y-102590262D01*
X121033488Y-102590260D01*
X120878845Y-102559500D01*
X120878842Y-102559500D01*
X120721158Y-102559500D01*
X120721155Y-102559500D01*
X120566511Y-102590260D01*
X120566506Y-102590262D01*
X120566504Y-102590262D01*
X120566503Y-102590263D01*
X120547449Y-102598155D01*
X120477982Y-102605623D01*
X120452553Y-102598156D01*
X120433497Y-102590263D01*
X120433493Y-102590262D01*
X120433488Y-102590260D01*
X120278845Y-102559500D01*
X120278842Y-102559500D01*
X120121158Y-102559500D01*
X120121155Y-102559500D01*
X119966511Y-102590260D01*
X119966506Y-102590262D01*
X119966504Y-102590262D01*
X119966503Y-102590263D01*
X119947449Y-102598155D01*
X119877982Y-102605623D01*
X119852553Y-102598156D01*
X119833497Y-102590263D01*
X119833493Y-102590262D01*
X119833488Y-102590260D01*
X119678845Y-102559500D01*
X119678842Y-102559500D01*
X119521158Y-102559500D01*
X119521155Y-102559500D01*
X119366510Y-102590261D01*
X119366498Y-102590264D01*
X119220827Y-102650602D01*
X119220814Y-102650609D01*
X119089711Y-102738210D01*
X119089707Y-102738213D01*
X118978213Y-102849707D01*
X118978210Y-102849711D01*
X118890609Y-102980814D01*
X118890602Y-102980827D01*
X118830264Y-103126498D01*
X118830261Y-103126510D01*
X118799500Y-103281153D01*
X115700500Y-103281153D01*
X115700500Y-97491519D01*
X115720185Y-97424480D01*
X115736819Y-97403838D01*
X117319504Y-95821153D01*
X118799500Y-95821153D01*
X118799500Y-95978846D01*
X118830260Y-96133488D01*
X118830262Y-96133493D01*
X118830263Y-96133497D01*
X118849046Y-96178844D01*
X118858865Y-96202549D01*
X118866333Y-96272018D01*
X118858865Y-96297447D01*
X118830263Y-96366503D01*
X118830262Y-96366506D01*
X118830260Y-96366511D01*
X118799500Y-96521153D01*
X118799500Y-96678846D01*
X118830260Y-96833488D01*
X118830262Y-96833493D01*
X118830263Y-96833497D01*
X118849046Y-96878844D01*
X118858865Y-96902549D01*
X118866333Y-96972018D01*
X118858865Y-96997447D01*
X118830263Y-97066503D01*
X118830262Y-97066506D01*
X118830260Y-97066511D01*
X118799500Y-97221153D01*
X118799500Y-97378846D01*
X118830260Y-97533488D01*
X118830262Y-97533493D01*
X118830263Y-97533497D01*
X118849046Y-97578844D01*
X118858865Y-97602549D01*
X118866333Y-97672018D01*
X118858865Y-97697447D01*
X118830263Y-97766503D01*
X118830262Y-97766506D01*
X118830260Y-97766511D01*
X118799500Y-97921153D01*
X118799500Y-98078846D01*
X118830260Y-98233488D01*
X118830262Y-98233493D01*
X118830263Y-98233497D01*
X118849046Y-98278844D01*
X118858865Y-98302549D01*
X118866333Y-98372018D01*
X118858865Y-98397447D01*
X118830263Y-98466503D01*
X118830262Y-98466506D01*
X118830260Y-98466511D01*
X118799500Y-98621153D01*
X118799500Y-98778846D01*
X118830260Y-98933488D01*
X118830262Y-98933493D01*
X118830263Y-98933497D01*
X118858864Y-99002547D01*
X118858865Y-99002549D01*
X118866333Y-99072018D01*
X118858865Y-99097447D01*
X118830263Y-99166503D01*
X118830262Y-99166506D01*
X118830260Y-99166511D01*
X118799500Y-99321153D01*
X118799500Y-99478846D01*
X118830261Y-99633489D01*
X118830264Y-99633501D01*
X118890602Y-99779172D01*
X118890609Y-99779185D01*
X118978210Y-99910288D01*
X118978213Y-99910292D01*
X119089707Y-100021786D01*
X119089711Y-100021789D01*
X119220814Y-100109390D01*
X119220827Y-100109397D01*
X119329420Y-100154377D01*
X119366503Y-100169737D01*
X119463641Y-100189059D01*
X119521153Y-100200499D01*
X119521156Y-100200500D01*
X119521158Y-100200500D01*
X119678844Y-100200500D01*
X119678845Y-100200499D01*
X119833497Y-100169737D01*
X119852547Y-100161845D01*
X119922016Y-100154377D01*
X119947452Y-100161845D01*
X119966503Y-100169737D01*
X120063641Y-100189059D01*
X120121153Y-100200499D01*
X120121156Y-100200500D01*
X120121158Y-100200500D01*
X120278844Y-100200500D01*
X120278845Y-100200499D01*
X120433497Y-100169737D01*
X120452547Y-100161845D01*
X120522016Y-100154377D01*
X120547452Y-100161845D01*
X120566503Y-100169737D01*
X120663641Y-100189059D01*
X120721153Y-100200499D01*
X120721156Y-100200500D01*
X120721158Y-100200500D01*
X120878844Y-100200500D01*
X120878845Y-100200499D01*
X121033497Y-100169737D01*
X121052547Y-100161845D01*
X121122016Y-100154377D01*
X121147452Y-100161845D01*
X121166503Y-100169737D01*
X121263641Y-100189059D01*
X121321153Y-100200499D01*
X121321156Y-100200500D01*
X121321158Y-100200500D01*
X121478844Y-100200500D01*
X121478845Y-100200499D01*
X121633497Y-100169737D01*
X121652547Y-100161845D01*
X121722016Y-100154377D01*
X121747452Y-100161845D01*
X121766503Y-100169737D01*
X121863641Y-100189059D01*
X121921153Y-100200499D01*
X121921156Y-100200500D01*
X121921158Y-100200500D01*
X122078844Y-100200500D01*
X122078845Y-100200499D01*
X122233497Y-100169737D01*
X122252547Y-100161845D01*
X122322016Y-100154377D01*
X122347452Y-100161845D01*
X122366503Y-100169737D01*
X122463641Y-100189059D01*
X122521153Y-100200499D01*
X122521156Y-100200500D01*
X122521158Y-100200500D01*
X122678844Y-100200500D01*
X122678845Y-100200499D01*
X122833497Y-100169737D01*
X122979179Y-100109394D01*
X123110289Y-100021789D01*
X123221789Y-99910289D01*
X123309394Y-99779179D01*
X123369737Y-99633497D01*
X123400500Y-99478842D01*
X123400500Y-99321158D01*
X123400500Y-99321155D01*
X123400499Y-99321153D01*
X123376907Y-99202549D01*
X123369737Y-99166503D01*
X123341134Y-99097450D01*
X123333666Y-99027984D01*
X123341133Y-99002552D01*
X123369737Y-98933497D01*
X123400500Y-98778842D01*
X123400500Y-98621158D01*
X123400500Y-98621155D01*
X123400499Y-98621153D01*
X123376907Y-98502549D01*
X123369737Y-98466503D01*
X123341134Y-98397450D01*
X123333666Y-98327984D01*
X123341133Y-98302552D01*
X123369737Y-98233497D01*
X123400500Y-98078842D01*
X123400500Y-97921158D01*
X123400500Y-97921155D01*
X123400499Y-97921153D01*
X123386047Y-97848499D01*
X123369737Y-97766503D01*
X123341134Y-97697450D01*
X123333666Y-97627984D01*
X123341133Y-97602552D01*
X123369737Y-97533497D01*
X123400500Y-97378842D01*
X123400500Y-97221158D01*
X123400500Y-97221155D01*
X123400499Y-97221153D01*
X123376907Y-97102549D01*
X123369737Y-97066503D01*
X123341134Y-96997450D01*
X123333666Y-96927984D01*
X123341133Y-96902552D01*
X123369737Y-96833497D01*
X123400500Y-96678842D01*
X123400500Y-96521158D01*
X123400500Y-96521155D01*
X123400499Y-96521153D01*
X123376907Y-96402549D01*
X123369737Y-96366503D01*
X123341134Y-96297450D01*
X123338663Y-96274468D01*
X123331720Y-96252421D01*
X123334633Y-96236985D01*
X123333666Y-96227984D01*
X123336059Y-96217395D01*
X123338124Y-96209817D01*
X123369737Y-96133497D01*
X123392083Y-96021153D01*
X141899500Y-96021153D01*
X141899500Y-96178846D01*
X141930260Y-96333488D01*
X141930262Y-96333493D01*
X141930263Y-96333497D01*
X141943938Y-96366511D01*
X141958865Y-96402549D01*
X141966333Y-96472018D01*
X141958865Y-96497447D01*
X141930263Y-96566503D01*
X141930262Y-96566506D01*
X141930260Y-96566511D01*
X141899500Y-96721153D01*
X141899500Y-96878846D01*
X141930260Y-97033488D01*
X141930262Y-97033493D01*
X141930263Y-97033497D01*
X141943938Y-97066511D01*
X141958865Y-97102549D01*
X141966333Y-97172018D01*
X141958865Y-97197447D01*
X141930263Y-97266503D01*
X141930262Y-97266506D01*
X141930260Y-97266511D01*
X141899500Y-97421153D01*
X141899500Y-97578846D01*
X141930260Y-97733488D01*
X141930262Y-97733493D01*
X141930263Y-97733497D01*
X141943938Y-97766511D01*
X141958865Y-97802549D01*
X141966333Y-97872018D01*
X141958865Y-97897447D01*
X141930263Y-97966503D01*
X141930262Y-97966506D01*
X141930260Y-97966511D01*
X141899500Y-98121153D01*
X141899500Y-98278846D01*
X141930260Y-98433488D01*
X141930262Y-98433493D01*
X141930263Y-98433497D01*
X141943938Y-98466511D01*
X141958865Y-98502549D01*
X141966333Y-98572018D01*
X141958865Y-98597447D01*
X141930263Y-98666503D01*
X141930262Y-98666506D01*
X141930260Y-98666511D01*
X141899500Y-98821153D01*
X141899500Y-98978846D01*
X141930260Y-99133488D01*
X141930262Y-99133493D01*
X141930263Y-99133497D01*
X141943938Y-99166511D01*
X141958865Y-99202549D01*
X141966333Y-99272018D01*
X141958865Y-99297447D01*
X141930263Y-99366503D01*
X141930262Y-99366506D01*
X141930260Y-99366511D01*
X141899500Y-99521153D01*
X141899500Y-99678846D01*
X141930261Y-99833489D01*
X141930264Y-99833501D01*
X141990602Y-99979172D01*
X141990609Y-99979185D01*
X142078210Y-100110288D01*
X142078213Y-100110292D01*
X142189707Y-100221786D01*
X142189711Y-100221789D01*
X142320814Y-100309390D01*
X142320827Y-100309397D01*
X142429420Y-100354377D01*
X142466503Y-100369737D01*
X142587440Y-100393793D01*
X142621153Y-100400499D01*
X142621156Y-100400500D01*
X142621158Y-100400500D01*
X142778844Y-100400500D01*
X142778845Y-100400499D01*
X142933497Y-100369737D01*
X142952547Y-100361845D01*
X143022016Y-100354377D01*
X143047452Y-100361845D01*
X143066503Y-100369737D01*
X143187440Y-100393793D01*
X143221153Y-100400499D01*
X143221156Y-100400500D01*
X143221158Y-100400500D01*
X143378844Y-100400500D01*
X143378845Y-100400499D01*
X143533497Y-100369737D01*
X143552547Y-100361845D01*
X143622016Y-100354377D01*
X143647452Y-100361845D01*
X143666503Y-100369737D01*
X143787440Y-100393793D01*
X143821153Y-100400499D01*
X143821156Y-100400500D01*
X143821158Y-100400500D01*
X143978844Y-100400500D01*
X143978845Y-100400499D01*
X144133497Y-100369737D01*
X144152547Y-100361845D01*
X144222016Y-100354377D01*
X144247452Y-100361845D01*
X144266503Y-100369737D01*
X144387440Y-100393793D01*
X144421153Y-100400499D01*
X144421156Y-100400500D01*
X144421158Y-100400500D01*
X144578844Y-100400500D01*
X144578845Y-100400499D01*
X144733497Y-100369737D01*
X144752547Y-100361845D01*
X144822016Y-100354377D01*
X144847452Y-100361845D01*
X144866503Y-100369737D01*
X144987440Y-100393793D01*
X145021153Y-100400499D01*
X145021156Y-100400500D01*
X145021158Y-100400500D01*
X145178844Y-100400500D01*
X145178845Y-100400499D01*
X145333497Y-100369737D01*
X145352547Y-100361845D01*
X145422016Y-100354377D01*
X145447452Y-100361845D01*
X145466503Y-100369737D01*
X145587440Y-100393793D01*
X145621153Y-100400499D01*
X145621156Y-100400500D01*
X145621158Y-100400500D01*
X145778844Y-100400500D01*
X145778845Y-100400499D01*
X145933497Y-100369737D01*
X146079179Y-100309394D01*
X146210289Y-100221789D01*
X146321789Y-100110289D01*
X146409394Y-99979179D01*
X146469737Y-99833497D01*
X146500500Y-99678842D01*
X146500500Y-99521158D01*
X146500500Y-99521155D01*
X146500499Y-99521153D01*
X146469737Y-99366503D01*
X146441134Y-99297450D01*
X146433666Y-99227984D01*
X146441133Y-99202552D01*
X146469737Y-99133497D01*
X146500500Y-98978842D01*
X146500500Y-98821158D01*
X146500500Y-98821155D01*
X146500499Y-98821153D01*
X146497783Y-98807501D01*
X146469737Y-98666503D01*
X146441134Y-98597450D01*
X146433666Y-98527984D01*
X146441133Y-98502552D01*
X146469737Y-98433497D01*
X146500500Y-98278842D01*
X146500500Y-98121158D01*
X146500500Y-98121155D01*
X146500499Y-98121153D01*
X146469737Y-97966503D01*
X146441134Y-97897450D01*
X146433666Y-97827984D01*
X146441133Y-97802552D01*
X146469737Y-97733497D01*
X146500500Y-97578842D01*
X146500500Y-97421158D01*
X146500500Y-97421155D01*
X146500499Y-97421153D01*
X146497055Y-97403838D01*
X146469737Y-97266503D01*
X146441134Y-97197450D01*
X146433666Y-97127984D01*
X146441133Y-97102552D01*
X146469737Y-97033497D01*
X146500500Y-96878842D01*
X146500500Y-96721158D01*
X146500500Y-96721155D01*
X146500499Y-96721153D01*
X146469737Y-96566503D01*
X146441134Y-96497450D01*
X146433666Y-96427984D01*
X146441133Y-96402552D01*
X146469737Y-96333497D01*
X146500500Y-96178842D01*
X146500500Y-96021158D01*
X146500500Y-96021155D01*
X146500499Y-96021153D01*
X146493631Y-95986624D01*
X146469737Y-95866503D01*
X146450955Y-95821158D01*
X146409397Y-95720827D01*
X146409390Y-95720814D01*
X146321789Y-95589711D01*
X146321786Y-95589707D01*
X146210292Y-95478213D01*
X146210288Y-95478210D01*
X146079185Y-95390609D01*
X146079172Y-95390602D01*
X145933501Y-95330264D01*
X145933489Y-95330261D01*
X145778845Y-95299500D01*
X145778842Y-95299500D01*
X145621158Y-95299500D01*
X145621155Y-95299500D01*
X145466511Y-95330260D01*
X145466506Y-95330262D01*
X145466504Y-95330262D01*
X145466503Y-95330263D01*
X145447449Y-95338155D01*
X145377982Y-95345623D01*
X145352553Y-95338156D01*
X145333497Y-95330263D01*
X145333493Y-95330262D01*
X145333488Y-95330260D01*
X145178845Y-95299500D01*
X145178842Y-95299500D01*
X145021158Y-95299500D01*
X145021155Y-95299500D01*
X144866511Y-95330260D01*
X144866506Y-95330262D01*
X144866504Y-95330262D01*
X144866503Y-95330263D01*
X144847449Y-95338155D01*
X144777982Y-95345623D01*
X144752553Y-95338156D01*
X144733497Y-95330263D01*
X144733493Y-95330262D01*
X144733488Y-95330260D01*
X144578845Y-95299500D01*
X144578842Y-95299500D01*
X144421158Y-95299500D01*
X144421155Y-95299500D01*
X144266511Y-95330260D01*
X144266506Y-95330262D01*
X144266504Y-95330262D01*
X144266503Y-95330263D01*
X144247449Y-95338155D01*
X144177982Y-95345623D01*
X144152553Y-95338156D01*
X144133497Y-95330263D01*
X144133493Y-95330262D01*
X144133488Y-95330260D01*
X143978845Y-95299500D01*
X143978842Y-95299500D01*
X143821158Y-95299500D01*
X143821155Y-95299500D01*
X143666511Y-95330260D01*
X143666506Y-95330262D01*
X143666504Y-95330262D01*
X143666503Y-95330263D01*
X143647449Y-95338155D01*
X143577982Y-95345623D01*
X143552553Y-95338156D01*
X143533497Y-95330263D01*
X143533493Y-95330262D01*
X143533488Y-95330260D01*
X143378845Y-95299500D01*
X143378842Y-95299500D01*
X143221158Y-95299500D01*
X143221155Y-95299500D01*
X143066511Y-95330260D01*
X143066506Y-95330262D01*
X143066504Y-95330262D01*
X143066503Y-95330263D01*
X143047449Y-95338155D01*
X142977982Y-95345623D01*
X142952553Y-95338156D01*
X142933497Y-95330263D01*
X142933493Y-95330262D01*
X142933488Y-95330260D01*
X142778845Y-95299500D01*
X142778842Y-95299500D01*
X142621158Y-95299500D01*
X142621155Y-95299500D01*
X142466510Y-95330261D01*
X142466498Y-95330264D01*
X142320827Y-95390602D01*
X142320814Y-95390609D01*
X142189711Y-95478210D01*
X142189707Y-95478213D01*
X142078213Y-95589707D01*
X142078210Y-95589711D01*
X141990609Y-95720814D01*
X141990602Y-95720827D01*
X141930264Y-95866498D01*
X141930261Y-95866510D01*
X141899500Y-96021153D01*
X123392083Y-96021153D01*
X123399135Y-95985701D01*
X123400500Y-95978844D01*
X123400500Y-95821155D01*
X123400499Y-95821153D01*
X123380543Y-95720827D01*
X123369737Y-95666503D01*
X123337929Y-95589711D01*
X123309397Y-95520827D01*
X123309390Y-95520814D01*
X123221789Y-95389711D01*
X123221786Y-95389707D01*
X123110292Y-95278213D01*
X123110288Y-95278210D01*
X122979185Y-95190609D01*
X122979172Y-95190602D01*
X122833501Y-95130264D01*
X122833489Y-95130261D01*
X122678845Y-95099500D01*
X122678842Y-95099500D01*
X122521158Y-95099500D01*
X122521155Y-95099500D01*
X122366511Y-95130260D01*
X122366506Y-95130262D01*
X122366504Y-95130262D01*
X122366503Y-95130263D01*
X122347449Y-95138155D01*
X122277982Y-95145623D01*
X122252553Y-95138156D01*
X122233497Y-95130263D01*
X122233493Y-95130262D01*
X122233488Y-95130260D01*
X122078845Y-95099500D01*
X122078842Y-95099500D01*
X121921158Y-95099500D01*
X121921155Y-95099500D01*
X121766511Y-95130260D01*
X121766506Y-95130262D01*
X121766504Y-95130262D01*
X121766503Y-95130263D01*
X121747449Y-95138155D01*
X121677982Y-95145623D01*
X121652553Y-95138156D01*
X121633497Y-95130263D01*
X121633493Y-95130262D01*
X121633488Y-95130260D01*
X121478845Y-95099500D01*
X121478842Y-95099500D01*
X121321158Y-95099500D01*
X121321155Y-95099500D01*
X121166511Y-95130260D01*
X121166506Y-95130262D01*
X121166504Y-95130262D01*
X121166503Y-95130263D01*
X121147449Y-95138155D01*
X121077982Y-95145623D01*
X121052553Y-95138156D01*
X121033497Y-95130263D01*
X121033493Y-95130262D01*
X121033488Y-95130260D01*
X120878845Y-95099500D01*
X120878842Y-95099500D01*
X120721158Y-95099500D01*
X120721155Y-95099500D01*
X120566511Y-95130260D01*
X120566506Y-95130262D01*
X120566504Y-95130262D01*
X120566503Y-95130263D01*
X120547449Y-95138155D01*
X120477982Y-95145623D01*
X120452553Y-95138156D01*
X120433497Y-95130263D01*
X120433493Y-95130262D01*
X120433488Y-95130260D01*
X120278845Y-95099500D01*
X120278842Y-95099500D01*
X120121158Y-95099500D01*
X120121155Y-95099500D01*
X119966511Y-95130260D01*
X119966506Y-95130262D01*
X119966504Y-95130262D01*
X119966503Y-95130263D01*
X119947449Y-95138155D01*
X119877982Y-95145623D01*
X119852553Y-95138156D01*
X119833497Y-95130263D01*
X119833493Y-95130262D01*
X119833488Y-95130260D01*
X119678845Y-95099500D01*
X119678842Y-95099500D01*
X119521158Y-95099500D01*
X119521155Y-95099500D01*
X119366510Y-95130261D01*
X119366498Y-95130264D01*
X119220827Y-95190602D01*
X119220814Y-95190609D01*
X119089711Y-95278210D01*
X119089707Y-95278213D01*
X118978213Y-95389707D01*
X118978210Y-95389711D01*
X118890609Y-95520814D01*
X118890602Y-95520827D01*
X118830264Y-95666498D01*
X118830261Y-95666510D01*
X118799500Y-95821153D01*
X117319504Y-95821153D01*
X119103838Y-94036819D01*
X119165161Y-94003334D01*
X119191519Y-94000500D01*
X127218996Y-94000500D01*
X127310040Y-93982389D01*
X127354328Y-93973580D01*
X127418069Y-93947177D01*
X127481807Y-93920777D01*
X127481808Y-93920776D01*
X127481811Y-93920775D01*
X127596543Y-93844114D01*
X128107442Y-93333215D01*
X128555400Y-92885258D01*
X164649500Y-92885258D01*
X164649500Y-93114741D01*
X164669980Y-93270293D01*
X164679452Y-93342238D01*
X164689792Y-93380827D01*
X164738842Y-93563887D01*
X164826650Y-93775876D01*
X164826657Y-93775890D01*
X164941392Y-93974617D01*
X165081081Y-94156661D01*
X165081089Y-94156670D01*
X165243330Y-94318911D01*
X165243338Y-94318918D01*
X165243339Y-94318919D01*
X165271271Y-94340352D01*
X165425382Y-94458607D01*
X165425385Y-94458608D01*
X165425388Y-94458611D01*
X165624112Y-94573344D01*
X165624117Y-94573346D01*
X165624123Y-94573349D01*
X165692518Y-94601679D01*
X165836113Y-94661158D01*
X166057762Y-94720548D01*
X166285266Y-94750500D01*
X166285273Y-94750500D01*
X166514727Y-94750500D01*
X166514734Y-94750500D01*
X166742238Y-94720548D01*
X166963887Y-94661158D01*
X167175888Y-94573344D01*
X167374612Y-94458611D01*
X167556661Y-94318919D01*
X167556665Y-94318914D01*
X167556670Y-94318911D01*
X167718911Y-94156670D01*
X167718914Y-94156665D01*
X167718919Y-94156661D01*
X167858611Y-93974612D01*
X167973344Y-93775888D01*
X168061158Y-93563887D01*
X168120548Y-93342238D01*
X168150500Y-93114734D01*
X168150500Y-92885266D01*
X168120548Y-92657762D01*
X168061158Y-92436113D01*
X167986816Y-92256635D01*
X167973349Y-92224123D01*
X167973346Y-92224117D01*
X167973344Y-92224112D01*
X167858611Y-92025388D01*
X167858608Y-92025385D01*
X167858607Y-92025382D01*
X167718918Y-91843338D01*
X167718911Y-91843330D01*
X167556670Y-91681089D01*
X167556661Y-91681081D01*
X167374617Y-91541392D01*
X167175890Y-91426657D01*
X167175876Y-91426650D01*
X166963887Y-91338842D01*
X166742238Y-91279452D01*
X166704215Y-91274446D01*
X166514741Y-91249500D01*
X166514734Y-91249500D01*
X166285266Y-91249500D01*
X166285258Y-91249500D01*
X166068715Y-91278009D01*
X166057762Y-91279452D01*
X165964076Y-91304554D01*
X165836112Y-91338842D01*
X165624123Y-91426650D01*
X165624109Y-91426657D01*
X165425382Y-91541392D01*
X165243338Y-91681081D01*
X165081081Y-91843338D01*
X164941392Y-92025382D01*
X164826657Y-92224109D01*
X164826650Y-92224123D01*
X164738842Y-92436112D01*
X164719536Y-92508163D01*
X164698160Y-92587944D01*
X164679453Y-92657759D01*
X164679451Y-92657770D01*
X164649500Y-92885258D01*
X128555400Y-92885258D01*
X128647132Y-92793526D01*
X129254111Y-92186546D01*
X129254112Y-92186545D01*
X129254114Y-92186543D01*
X129330775Y-92071811D01*
X129383580Y-91944329D01*
X129403668Y-91843339D01*
X129410500Y-91808993D01*
X129410500Y-87307648D01*
X164199500Y-87307648D01*
X164199500Y-87512352D01*
X164202449Y-87530973D01*
X164231522Y-87714534D01*
X164294781Y-87909223D01*
X164387715Y-88091613D01*
X164508028Y-88257213D01*
X164652786Y-88401971D01*
X164804607Y-88512273D01*
X164818390Y-88522287D01*
X164934607Y-88581503D01*
X165000776Y-88615218D01*
X165000778Y-88615218D01*
X165000781Y-88615220D01*
X165097063Y-88646504D01*
X165195465Y-88678477D01*
X165296557Y-88694488D01*
X165397648Y-88710500D01*
X165397649Y-88710500D01*
X165602351Y-88710500D01*
X165602352Y-88710500D01*
X165804534Y-88678477D01*
X165999219Y-88615220D01*
X166181610Y-88522287D01*
X166274590Y-88454732D01*
X166347213Y-88401971D01*
X166347215Y-88401968D01*
X166347219Y-88401966D01*
X166491966Y-88257219D01*
X166491968Y-88257215D01*
X166491971Y-88257213D01*
X166547986Y-88180114D01*
X166612287Y-88091610D01*
X166705220Y-87909219D01*
X166768477Y-87714534D01*
X166800500Y-87512352D01*
X166800500Y-87307648D01*
X166768477Y-87105466D01*
X166705220Y-86910781D01*
X166705218Y-86910778D01*
X166705218Y-86910776D01*
X166662537Y-86827011D01*
X166612287Y-86728390D01*
X166582811Y-86687819D01*
X166491971Y-86562786D01*
X166347213Y-86418028D01*
X166181613Y-86297715D01*
X166181612Y-86297714D01*
X166181610Y-86297713D01*
X166124653Y-86268691D01*
X165999223Y-86204781D01*
X165804534Y-86141522D01*
X165629995Y-86113878D01*
X165602352Y-86109500D01*
X165397648Y-86109500D01*
X165373329Y-86113351D01*
X165195465Y-86141522D01*
X165000776Y-86204781D01*
X164818386Y-86297715D01*
X164652786Y-86418028D01*
X164508028Y-86562786D01*
X164387715Y-86728386D01*
X164294781Y-86910776D01*
X164231522Y-87105465D01*
X164211928Y-87229179D01*
X164199500Y-87307648D01*
X129410500Y-87307648D01*
X129410500Y-86493519D01*
X129430185Y-86426480D01*
X129446819Y-86405838D01*
X130115838Y-85736819D01*
X130177161Y-85703334D01*
X130203519Y-85700500D01*
X137380360Y-85700500D01*
X137471404Y-85682389D01*
X137515692Y-85673580D01*
X137579433Y-85647177D01*
X137643171Y-85620777D01*
X137643172Y-85620776D01*
X137643175Y-85620775D01*
X137757907Y-85544114D01*
X140015202Y-83286819D01*
X140076525Y-83253334D01*
X140102883Y-83250500D01*
X166708481Y-83250500D01*
X166775520Y-83270185D01*
X166796162Y-83286819D01*
X167570297Y-84060954D01*
X167584396Y-84079192D01*
X167585024Y-84078762D01*
X167587530Y-84082411D01*
X167587532Y-84082415D01*
X168098633Y-84723429D01*
X168117075Y-84745114D01*
X168125711Y-84756548D01*
X168128211Y-84760289D01*
X168220703Y-84852781D01*
X168239712Y-84871790D01*
X168370814Y-84959390D01*
X168370827Y-84959397D01*
X168513241Y-85018386D01*
X168516503Y-85019737D01*
X168671153Y-85050499D01*
X168671156Y-85050500D01*
X168671158Y-85050500D01*
X168828844Y-85050500D01*
X168828845Y-85050499D01*
X168983497Y-85019737D01*
X169129179Y-84959394D01*
X169260289Y-84871789D01*
X169371789Y-84760289D01*
X169459394Y-84629179D01*
X169519737Y-84483497D01*
X169550500Y-84328842D01*
X169550500Y-84171158D01*
X169550500Y-84171155D01*
X169550499Y-84171153D01*
X169535941Y-84097964D01*
X169519737Y-84016503D01*
X169498741Y-83965814D01*
X169459397Y-83870827D01*
X169459390Y-83870814D01*
X169371790Y-83739712D01*
X169371789Y-83739711D01*
X169260289Y-83628211D01*
X169259967Y-83627996D01*
X169247708Y-83619804D01*
X169226284Y-83601668D01*
X169223427Y-83598631D01*
X168582419Y-83087534D01*
X168571894Y-83079574D01*
X168559014Y-83068357D01*
X167496546Y-82005888D01*
X167496545Y-82005887D01*
X167381807Y-81929222D01*
X167254332Y-81876421D01*
X167254322Y-81876418D01*
X167118996Y-81849500D01*
X167118994Y-81849500D01*
X167118993Y-81849500D01*
X139692371Y-81849500D01*
X139692366Y-81849500D01*
X139593440Y-81869177D01*
X139593441Y-81869178D01*
X139557039Y-81876419D01*
X139557036Y-81876419D01*
X139557035Y-81876420D01*
X139557033Y-81876420D01*
X139557032Y-81876421D01*
X139429554Y-81929224D01*
X139314818Y-82005887D01*
X139314817Y-82005888D01*
X137057526Y-84263181D01*
X136996203Y-84296666D01*
X136969845Y-84299500D01*
X135655500Y-84299500D01*
X135588461Y-84279815D01*
X135542706Y-84227011D01*
X135533156Y-84195697D01*
X135531500Y-84185665D01*
X135531500Y-84171158D01*
X135517422Y-84100391D01*
X135517097Y-84098417D01*
X135517152Y-84097964D01*
X135516103Y-84091018D01*
X135512521Y-84056441D01*
X135400884Y-83611957D01*
X135335236Y-83350580D01*
X135331501Y-83320374D01*
X135331501Y-83282002D01*
X135331501Y-83282000D01*
X135290577Y-83129272D01*
X135257495Y-83071973D01*
X135211520Y-82992341D01*
X135099716Y-82880537D01*
X135099715Y-82880536D01*
X135095385Y-82876206D01*
X135095374Y-82876196D01*
X134706533Y-82487355D01*
X134706531Y-82487352D01*
X134587660Y-82368481D01*
X134587659Y-82368480D01*
X134500847Y-82318360D01*
X134500847Y-82318359D01*
X134500843Y-82318358D01*
X134450728Y-82289423D01*
X134298000Y-82248499D01*
X134139886Y-82248499D01*
X134132290Y-82248499D01*
X134132274Y-82248500D01*
X128012957Y-82248500D01*
X127854843Y-82248500D01*
X127702115Y-82289423D01*
X127702114Y-82289423D01*
X127702112Y-82289424D01*
X127694601Y-82292535D01*
X127693657Y-82290258D01*
X127637829Y-82303786D01*
X127571809Y-82280916D01*
X127528633Y-82225983D01*
X127522010Y-82156428D01*
X127522966Y-82151926D01*
X127633885Y-81674694D01*
X127635322Y-81668325D01*
X127635394Y-81667996D01*
X127644923Y-81606584D01*
X127644923Y-81606579D01*
X127645138Y-81602431D01*
X127647354Y-81584655D01*
X127650500Y-81568842D01*
X127650500Y-81411158D01*
X127650500Y-81411155D01*
X127650499Y-81411153D01*
X127619738Y-81256510D01*
X127619737Y-81256503D01*
X127619735Y-81256498D01*
X127559397Y-81110827D01*
X127559390Y-81110814D01*
X127471789Y-80979711D01*
X127471786Y-80979707D01*
X127360292Y-80868213D01*
X127360288Y-80868210D01*
X127229185Y-80780609D01*
X127229172Y-80780602D01*
X127083501Y-80720264D01*
X127083489Y-80720261D01*
X126928845Y-80689500D01*
X126928842Y-80689500D01*
X126771158Y-80689500D01*
X126771155Y-80689500D01*
X126616510Y-80720261D01*
X126616498Y-80720264D01*
X126470827Y-80780602D01*
X126470814Y-80780609D01*
X126339711Y-80868210D01*
X126339707Y-80868213D01*
X126228213Y-80979707D01*
X126228210Y-80979711D01*
X126140609Y-81110814D01*
X126140602Y-81110827D01*
X126080264Y-81256498D01*
X126080261Y-81256510D01*
X126049500Y-81411153D01*
X126049500Y-81568842D01*
X126061405Y-81628701D01*
X126063333Y-81642288D01*
X126066112Y-81674687D01*
X126246281Y-82449871D01*
X126249500Y-82477943D01*
X126249500Y-82982803D01*
X126229815Y-83049842D01*
X126213181Y-83070484D01*
X122420484Y-86863181D01*
X122359161Y-86896666D01*
X122332803Y-86899500D01*
X113589047Y-86899500D01*
X113522008Y-86879815D01*
X113476253Y-86827011D01*
X113466309Y-86757853D01*
X113495334Y-86694297D01*
X113501366Y-86687819D01*
X113641966Y-86547219D01*
X113641968Y-86547215D01*
X113641971Y-86547213D01*
X113729687Y-86426480D01*
X113762287Y-86381610D01*
X113855220Y-86199219D01*
X113918477Y-86004534D01*
X113950500Y-85802352D01*
X113950500Y-85597648D01*
X113918477Y-85395466D01*
X113855220Y-85200781D01*
X113855218Y-85200778D01*
X113855218Y-85200776D01*
X113821503Y-85134607D01*
X113762287Y-85018390D01*
X113754556Y-85007749D01*
X113641971Y-84852786D01*
X113497213Y-84708028D01*
X113331613Y-84587715D01*
X113331612Y-84587714D01*
X113331610Y-84587713D01*
X113274653Y-84558691D01*
X113149223Y-84494781D01*
X112954534Y-84431522D01*
X112779995Y-84403878D01*
X112752352Y-84399500D01*
X112547648Y-84399500D01*
X112523329Y-84403351D01*
X112345465Y-84431522D01*
X112150776Y-84494781D01*
X111968386Y-84587715D01*
X111802786Y-84708028D01*
X111658028Y-84852786D01*
X111537715Y-85018386D01*
X111444781Y-85200776D01*
X111381522Y-85395465D01*
X111349500Y-85597648D01*
X111349500Y-85802351D01*
X111381522Y-86004534D01*
X111444781Y-86199223D01*
X111537715Y-86381613D01*
X111658028Y-86547213D01*
X111798634Y-86687819D01*
X111832119Y-86749142D01*
X111827135Y-86818834D01*
X111785263Y-86874767D01*
X111719799Y-86899184D01*
X111710953Y-86899500D01*
X103767141Y-86899500D01*
X103703137Y-86881705D01*
X103690168Y-86873889D01*
X103683759Y-86867480D01*
X103584096Y-86809940D01*
X103546828Y-86788423D01*
X103394100Y-86747499D01*
X103235986Y-86747499D01*
X103228390Y-86747499D01*
X103228374Y-86747500D01*
X101972997Y-86747500D01*
X101932076Y-86758464D01*
X101932076Y-86758465D01*
X101894808Y-86768451D01*
X101820271Y-86788423D01*
X101820266Y-86788426D01*
X101683347Y-86867475D01*
X101683339Y-86867481D01*
X100818481Y-87732339D01*
X100818475Y-87732347D01*
X100784947Y-87790421D01*
X100784947Y-87790423D01*
X100739423Y-87869271D01*
X100739423Y-87869272D01*
X100698499Y-88022000D01*
X100698499Y-88022002D01*
X100698499Y-88190103D01*
X100698500Y-88190116D01*
X100698500Y-88512273D01*
X100698499Y-88512291D01*
X100698499Y-88677997D01*
X100698498Y-88677997D01*
X100250500Y-88677997D01*
X100250500Y-80374500D01*
X100270185Y-80307461D01*
X100322989Y-80261706D01*
X100374500Y-80250500D01*
X178625500Y-80250500D01*
X178692539Y-80270185D01*
G37*
%TD.AperFunction*%
%TD*%
%TA.AperFunction,Conductor*%
%TO.N,LED1{slash}SCL*%
G36*
X102746277Y-107201881D02*
G01*
X102965456Y-107338391D01*
X103456450Y-107644193D01*
X103461661Y-107651475D01*
X103460196Y-107660309D01*
X103460014Y-107660592D01*
X103302015Y-107898734D01*
X103298734Y-107902015D01*
X103060592Y-108060014D01*
X103051804Y-108061733D01*
X103044375Y-108056733D01*
X103044193Y-108056450D01*
X102601881Y-107346277D01*
X102600417Y-107337444D01*
X102603538Y-107331822D01*
X102731821Y-107203539D01*
X102740093Y-107200113D01*
X102746277Y-107201881D01*
G37*
%TD.AperFunction*%
%TD*%
%TA.AperFunction,Conductor*%
%TO.N,Net-(D3-C)*%
G36*
X168267275Y-83482775D02*
G01*
X168908289Y-83993876D01*
X168912621Y-84001712D01*
X168910744Y-84009491D01*
X168752015Y-84248734D01*
X168748734Y-84252015D01*
X168509491Y-84410744D01*
X168500703Y-84412463D01*
X168493876Y-84408289D01*
X167982775Y-83767275D01*
X167980298Y-83758671D01*
X167983650Y-83751710D01*
X168251710Y-83483650D01*
X168259982Y-83480224D01*
X168267275Y-83482775D01*
G37*
%TD.AperFunction*%
%TD*%
%TA.AperFunction,Conductor*%
%TO.N,CIO_CC1*%
G36*
X104939666Y-106137009D02*
G01*
X104943093Y-106145282D01*
X104941937Y-106150352D01*
X104555263Y-106954560D01*
X104548590Y-106960531D01*
X104539649Y-106960034D01*
X104538249Y-106959238D01*
X104301962Y-106802303D01*
X104298695Y-106799039D01*
X104139763Y-106560227D01*
X104138032Y-106551441D01*
X104142947Y-106544055D01*
X104747030Y-106135589D01*
X104753584Y-106133582D01*
X104931393Y-106133582D01*
X104939666Y-106137009D01*
G37*
%TD.AperFunction*%
%TD*%
%TA.AperFunction,Conductor*%
%TO.N,Net-(Q1-G)*%
G36*
X127132145Y-89920208D02*
G01*
X127140835Y-89921966D01*
X127411949Y-89976815D01*
X127419378Y-89981815D01*
X127421325Y-89988600D01*
X127400664Y-90751968D01*
X127397014Y-90760145D01*
X127388968Y-90763351D01*
X127207739Y-90763351D01*
X127199466Y-90759924D01*
X127197178Y-90756685D01*
X126882258Y-90096022D01*
X126881791Y-90087080D01*
X126886290Y-90081280D01*
X127123299Y-89921965D01*
X127132076Y-89920195D01*
X127132145Y-89920208D01*
G37*
%TD.AperFunction*%
%TD*%
%TA.AperFunction,Conductor*%
%TO.N,VBUSL_CIO*%
G36*
X112878981Y-93331691D02*
G01*
X112882104Y-93337315D01*
X113071509Y-94152243D01*
X113070044Y-94161077D01*
X113062762Y-94166288D01*
X113062433Y-94166360D01*
X112782320Y-94223030D01*
X112777680Y-94223030D01*
X112497566Y-94166360D01*
X112490137Y-94161360D01*
X112488418Y-94152572D01*
X112488490Y-94152243D01*
X112677896Y-93337315D01*
X112683107Y-93330033D01*
X112689292Y-93328264D01*
X112870708Y-93328264D01*
X112878981Y-93331691D01*
G37*
%TD.AperFunction*%
%TD*%
%TA.AperFunction,Conductor*%
%TO.N,CIO_DP*%
G36*
X102970251Y-88058489D02*
G01*
X103049344Y-88076871D01*
X103054965Y-88079993D01*
X103164432Y-88189460D01*
X103164433Y-88189461D01*
X103164435Y-88189462D01*
X103232952Y-88229021D01*
X103232956Y-88229023D01*
X103293227Y-88245171D01*
X103309378Y-88249499D01*
X103309380Y-88249500D01*
X103782536Y-88249500D01*
X103790809Y-88252927D01*
X103794236Y-88261200D01*
X103794236Y-88440707D01*
X103790809Y-88448980D01*
X103785185Y-88452103D01*
X102970256Y-88641509D01*
X102961422Y-88640044D01*
X102956211Y-88632762D01*
X102956139Y-88632433D01*
X102919231Y-88450000D01*
X102899469Y-88352318D01*
X102899469Y-88347680D01*
X102931479Y-88189462D01*
X102956139Y-88067565D01*
X102961139Y-88060137D01*
X102969927Y-88058418D01*
X102970251Y-88058489D01*
G37*
%TD.AperFunction*%
%TD*%
%TA.AperFunction,Conductor*%
%TO.N,CIO_DP*%
G36*
X133452624Y-83157007D02*
G01*
X134185052Y-83471586D01*
X134191302Y-83477999D01*
X134191185Y-83486953D01*
X134190181Y-83488809D01*
X134033575Y-83724601D01*
X134030311Y-83727868D01*
X133791774Y-83886617D01*
X133782988Y-83888348D01*
X133775552Y-83883359D01*
X133775420Y-83883156D01*
X133523416Y-83486953D01*
X133438136Y-83352874D01*
X133436308Y-83346595D01*
X133436308Y-83167758D01*
X133439735Y-83159485D01*
X133448008Y-83156058D01*
X133452624Y-83157007D01*
G37*
%TD.AperFunction*%
%TD*%
%TA.AperFunction,Conductor*%
%TO.N,Net-(D3-C)*%
G36*
X113721261Y-105541433D02*
G01*
X113728032Y-105544762D01*
X113993134Y-105809864D01*
X113996561Y-105818137D01*
X113993134Y-105826410D01*
X113987496Y-105829537D01*
X113070250Y-106041526D01*
X113061417Y-106040050D01*
X113056215Y-106032761D01*
X113056155Y-106032483D01*
X112999757Y-105753011D01*
X112999756Y-105748401D01*
X113056378Y-105466459D01*
X113061367Y-105459025D01*
X113069346Y-105457162D01*
X113721261Y-105541433D01*
G37*
%TD.AperFunction*%
%TD*%
%TA.AperFunction,Conductor*%
%TO.N,HLED*%
G36*
X109018760Y-100309191D02*
G01*
X109021941Y-100315076D01*
X109191833Y-101129950D01*
X109190167Y-101138748D01*
X109182767Y-101143792D01*
X109182699Y-101143806D01*
X108902320Y-101200530D01*
X108897680Y-101200530D01*
X108617836Y-101143915D01*
X108610407Y-101138915D01*
X108608688Y-101130127D01*
X108608817Y-101129561D01*
X108817745Y-100314558D01*
X108823119Y-100307396D01*
X108829079Y-100305764D01*
X109010487Y-100305764D01*
X109018760Y-100309191D01*
G37*
%TD.AperFunction*%
%TD*%
%TA.AperFunction,Conductor*%
%TO.N,VBUSL_CIO*%
G36*
X126768789Y-88968921D02*
G01*
X126769046Y-88969086D01*
X127001497Y-89123309D01*
X127007214Y-89127102D01*
X127010495Y-89130383D01*
X127168494Y-89368525D01*
X127170213Y-89377313D01*
X127165213Y-89384742D01*
X127164931Y-89384924D01*
X127111871Y-89417970D01*
X127105688Y-89419739D01*
X127061461Y-89419739D01*
X126934171Y-89453845D01*
X126934167Y-89453847D01*
X126820045Y-89519736D01*
X126820040Y-89519740D01*
X126726857Y-89612923D01*
X126726853Y-89612928D01*
X126687891Y-89680411D01*
X126683944Y-89684492D01*
X126454758Y-89827235D01*
X126445924Y-89828700D01*
X126440300Y-89825577D01*
X126312020Y-89697297D01*
X126308593Y-89689024D01*
X126310361Y-89682841D01*
X126752674Y-88972666D01*
X126759955Y-88967456D01*
X126768789Y-88968921D01*
G37*
%TD.AperFunction*%
%TD*%
%TA.AperFunction,Conductor*%
%TO.N,BAT-MODE*%
G36*
X130194860Y-84055266D02*
G01*
X130194868Y-84055277D01*
X130354387Y-84292332D01*
X130356161Y-84296613D01*
X130410992Y-84576308D01*
X130409221Y-84585086D01*
X130401762Y-84590040D01*
X130400390Y-84590226D01*
X130277787Y-84599467D01*
X130276908Y-84599500D01*
X129809270Y-84599500D01*
X129707414Y-84626791D01*
X129678516Y-84643475D01*
X129673546Y-84645009D01*
X129653318Y-84646534D01*
X129644810Y-84643739D01*
X129644165Y-84643140D01*
X129516576Y-84515551D01*
X129513149Y-84507278D01*
X129516576Y-84499005D01*
X129518295Y-84497587D01*
X130178618Y-84052109D01*
X130187392Y-84050324D01*
X130194860Y-84055266D01*
G37*
%TD.AperFunction*%
%TD*%
%TA.AperFunction,Conductor*%
%TO.N,Net-(D3-C)*%
G36*
X112939424Y-105459443D02*
G01*
X112943598Y-105466271D01*
X113000530Y-105747680D01*
X113000530Y-105752320D01*
X112943598Y-106033728D01*
X112938598Y-106041157D01*
X112930819Y-106043034D01*
X112116153Y-105951171D01*
X112108316Y-105946839D01*
X112105764Y-105939545D01*
X112105764Y-105560454D01*
X112109191Y-105552181D01*
X112116151Y-105548828D01*
X112930819Y-105456965D01*
X112939424Y-105459443D01*
G37*
%TD.AperFunction*%
%TD*%
%TA.AperFunction,Conductor*%
%TO.N,CIO_CC2*%
G36*
X102543818Y-87663207D02*
G01*
X102545293Y-87668894D01*
X102545293Y-87845792D01*
X102543657Y-87851759D01*
X102155726Y-88506069D01*
X102148559Y-88511438D01*
X102139695Y-88510166D01*
X102139180Y-88509842D01*
X101900960Y-88351304D01*
X101897696Y-88348037D01*
X101740333Y-88111104D01*
X101738610Y-88102317D01*
X101743606Y-88094885D01*
X101744382Y-88094411D01*
X102527907Y-87658668D01*
X102536802Y-87657643D01*
X102543818Y-87663207D01*
G37*
%TD.AperFunction*%
%TD*%
%TA.AperFunction,Conductor*%
%TO.N,CIO_CC2*%
G36*
X134799919Y-83301197D02*
G01*
X134802994Y-83306620D01*
X135022248Y-84179579D01*
X135020939Y-84188438D01*
X135013750Y-84193777D01*
X135013214Y-84193898D01*
X134734015Y-84250241D01*
X134729397Y-84250243D01*
X134449217Y-84193973D01*
X134441781Y-84188984D01*
X134440050Y-84180198D01*
X134440278Y-84179265D01*
X134655712Y-83430922D01*
X134658679Y-83425891D01*
X134783374Y-83301196D01*
X134791646Y-83297770D01*
X134799919Y-83301197D01*
G37*
%TD.AperFunction*%
%TD*%
%TA.AperFunction,Conductor*%
%TO.N,Net-(Q1-G)*%
G36*
X114958179Y-94323540D02*
G01*
X115086459Y-94451820D01*
X115089886Y-94460093D01*
X115088117Y-94466278D01*
X114645806Y-95176450D01*
X114638524Y-95181661D01*
X114629690Y-95180196D01*
X114629407Y-95180014D01*
X114391265Y-95022015D01*
X114387984Y-95018734D01*
X114384191Y-95013017D01*
X114229984Y-94780590D01*
X114228266Y-94771804D01*
X114233266Y-94764375D01*
X114233511Y-94764216D01*
X114943722Y-94321881D01*
X114952555Y-94320417D01*
X114958179Y-94323540D01*
G37*
%TD.AperFunction*%
%TD*%
%TA.AperFunction,Conductor*%
%TO.N,LED2{slash}SDA*%
G36*
X131237045Y-83552836D02*
G01*
X132036979Y-83663363D01*
X132044705Y-83667890D01*
X132046967Y-83676554D01*
X132046860Y-83677198D01*
X131992160Y-83956974D01*
X131990387Y-83961256D01*
X131830964Y-84198426D01*
X131823505Y-84203380D01*
X131814727Y-84201609D01*
X131814160Y-84201203D01*
X131228362Y-83754512D01*
X131223861Y-83746770D01*
X131223756Y-83745208D01*
X131223756Y-83564427D01*
X131227183Y-83556154D01*
X131235456Y-83552727D01*
X131237045Y-83552836D01*
G37*
%TD.AperFunction*%
%TD*%
%TA.AperFunction,Conductor*%
%TO.N,Net-(LED1--)*%
G36*
X126560309Y-86689803D02*
G01*
X126560566Y-86689968D01*
X126793017Y-86844191D01*
X126798734Y-86847984D01*
X126802015Y-86851265D01*
X126960014Y-87089407D01*
X126961733Y-87098195D01*
X126956733Y-87105624D01*
X126956450Y-87105806D01*
X126246278Y-87548117D01*
X126237444Y-87549582D01*
X126231820Y-87546459D01*
X126103540Y-87418179D01*
X126100113Y-87409906D01*
X126101881Y-87403723D01*
X126544194Y-86693548D01*
X126551475Y-86688338D01*
X126560309Y-86689803D01*
G37*
%TD.AperFunction*%
%TD*%
%TA.AperFunction,Conductor*%
%TO.N,VBUSL_Source*%
G36*
X114378179Y-92063540D02*
G01*
X114506459Y-92191820D01*
X114509886Y-92200093D01*
X114508117Y-92206278D01*
X114065806Y-92916450D01*
X114058524Y-92921661D01*
X114049690Y-92920196D01*
X114049407Y-92920014D01*
X113811265Y-92762015D01*
X113807984Y-92758734D01*
X113804191Y-92753017D01*
X113649984Y-92520590D01*
X113648266Y-92511804D01*
X113653266Y-92504375D01*
X113653511Y-92504216D01*
X114363722Y-92061881D01*
X114372555Y-92060417D01*
X114378179Y-92063540D01*
G37*
%TD.AperFunction*%
%TD*%
%TA.AperFunction,Conductor*%
%TO.N,CIO_CC1*%
G36*
X104625209Y-93758063D02*
G01*
X104632671Y-93763014D01*
X104632704Y-93763064D01*
X104791351Y-94001448D01*
X104793082Y-94010234D01*
X104789869Y-94016218D01*
X104323424Y-94480996D01*
X104315166Y-94484408D01*
X104135361Y-94484408D01*
X104127088Y-94480981D01*
X104123661Y-94472708D01*
X104124081Y-94469600D01*
X104249025Y-94016218D01*
X104332883Y-93711926D01*
X104338384Y-93704862D01*
X104346404Y-93703553D01*
X104625209Y-93758063D01*
G37*
%TD.AperFunction*%
%TD*%
%TA.AperFunction,Conductor*%
%TO.N,HLED*%
G36*
X127394958Y-88183709D02*
G01*
X127395519Y-88184646D01*
X127478422Y-88339000D01*
X127687684Y-88728619D01*
X127819099Y-88973295D01*
X127819995Y-88982205D01*
X127814328Y-88989138D01*
X127808792Y-88990531D01*
X127631654Y-88990531D01*
X127625544Y-88988809D01*
X127442235Y-88876564D01*
X127438213Y-88872436D01*
X127408982Y-88821807D01*
X127408978Y-88821802D01*
X127315795Y-88728619D01*
X127315790Y-88728615D01*
X127201668Y-88662726D01*
X127201664Y-88662724D01*
X127074374Y-88628618D01*
X127074372Y-88628618D01*
X127040608Y-88628618D01*
X127034498Y-88626896D01*
X126983690Y-88595785D01*
X126978424Y-88588542D01*
X126979822Y-88579697D01*
X126980027Y-88579375D01*
X127138696Y-88340958D01*
X127141959Y-88337698D01*
X127378741Y-88180435D01*
X127387526Y-88178713D01*
X127394958Y-88183709D01*
G37*
%TD.AperFunction*%
%TD*%
%TA.AperFunction,Conductor*%
%TO.N,VBUSL_Source*%
G36*
X126495577Y-90472955D02*
G01*
X126500788Y-90480237D01*
X126500860Y-90480566D01*
X126557530Y-90760680D01*
X126557530Y-90765320D01*
X126500860Y-91045433D01*
X126495860Y-91052862D01*
X126487072Y-91054581D01*
X126486743Y-91054509D01*
X125671815Y-90865103D01*
X125664533Y-90859892D01*
X125662764Y-90853707D01*
X125662764Y-90672292D01*
X125666191Y-90664019D01*
X125671813Y-90660896D01*
X126486743Y-90471490D01*
X126495577Y-90472955D01*
G37*
%TD.AperFunction*%
%TD*%
%TA.AperFunction,Conductor*%
%TO.N,Net-(D3-C)*%
G36*
X108833848Y-105548828D02*
G01*
X108841684Y-105553160D01*
X108844236Y-105560454D01*
X108844236Y-105939545D01*
X108840809Y-105947818D01*
X108833847Y-105951171D01*
X108019180Y-106043034D01*
X108010575Y-106040556D01*
X108006401Y-106033728D01*
X107989462Y-105950000D01*
X107949469Y-105752318D01*
X107949469Y-105747680D01*
X107988823Y-105553160D01*
X108006401Y-105466270D01*
X108011401Y-105458842D01*
X108019179Y-105456965D01*
X108833848Y-105548828D01*
G37*
%TD.AperFunction*%
%TD*%
%TA.AperFunction,Conductor*%
%TO.N,LED2{slash}SDA*%
G36*
X103052358Y-104875291D02*
G01*
X103052440Y-104875373D01*
X103589588Y-105423279D01*
X103592932Y-105431586D01*
X103589424Y-105439825D01*
X103587760Y-105441180D01*
X103351963Y-105599680D01*
X103347681Y-105601453D01*
X103066535Y-105656421D01*
X103057758Y-105654645D01*
X103052974Y-105647912D01*
X102852857Y-104886538D01*
X102854069Y-104877666D01*
X102861199Y-104872248D01*
X102864173Y-104871864D01*
X103044085Y-104871864D01*
X103052358Y-104875291D01*
G37*
%TD.AperFunction*%
%TD*%
%TA.AperFunction,Conductor*%
%TO.N,BAT-MODE*%
G36*
X114168760Y-100359191D02*
G01*
X114171941Y-100365076D01*
X114341833Y-101179950D01*
X114340167Y-101188748D01*
X114332767Y-101193792D01*
X114332699Y-101193806D01*
X114052320Y-101250530D01*
X114047680Y-101250530D01*
X113767836Y-101193915D01*
X113760407Y-101188915D01*
X113758688Y-101180127D01*
X113758817Y-101179561D01*
X113967745Y-100364558D01*
X113973119Y-100357396D01*
X113979079Y-100355764D01*
X114160487Y-100355764D01*
X114168760Y-100359191D01*
G37*
%TD.AperFunction*%
%TD*%
%TA.AperFunction,Conductor*%
%TO.N,LED1{slash}SCL*%
G36*
X127132433Y-81546139D02*
G01*
X127139862Y-81551139D01*
X127141581Y-81559927D01*
X127141509Y-81560256D01*
X126952104Y-82375185D01*
X126946893Y-82382467D01*
X126940708Y-82384236D01*
X126759292Y-82384236D01*
X126751019Y-82380809D01*
X126747896Y-82375185D01*
X126558490Y-81560256D01*
X126559955Y-81551422D01*
X126567237Y-81546211D01*
X126567545Y-81546143D01*
X126847682Y-81489469D01*
X126852318Y-81489469D01*
X127132433Y-81546139D01*
G37*
%TD.AperFunction*%
%TD*%
%TA.AperFunction,Conductor*%
%TO.N,Net-(LED1--)*%
G36*
X103836637Y-102277315D02*
G01*
X103840064Y-102285523D01*
X103844182Y-103031848D01*
X103840801Y-103040140D01*
X103834802Y-103043381D01*
X103554789Y-103100030D01*
X103546001Y-103098311D01*
X103545942Y-103098272D01*
X103309199Y-102939137D01*
X103304245Y-102931678D01*
X103305322Y-102924074D01*
X103636734Y-102280233D01*
X103643568Y-102274446D01*
X103647137Y-102273888D01*
X103828364Y-102273888D01*
X103836637Y-102277315D01*
G37*
%TD.AperFunction*%
%TD*%
M02*
