%TF.GenerationSoftware,KiCad,Pcbnew,9.0.6*%
%TF.CreationDate,2025-12-05T19:38:51+01:00*%
%TF.ProjectId,PowerPack,506f7765-7250-4616-936b-2e6b69636164,rev?*%
%TF.SameCoordinates,Original*%
%TF.FileFunction,Paste,Top*%
%TF.FilePolarity,Positive*%
%FSLAX46Y46*%
G04 Gerber Fmt 4.6, Leading zero omitted, Abs format (unit mm)*
G04 Created by KiCad (PCBNEW 9.0.6) date 2025-12-05 19:38:51*
%MOMM*%
%LPD*%
G01*
G04 APERTURE LIST*
G04 Aperture macros list*
%AMRoundRect*
0 Rectangle with rounded corners*
0 $1 Rounding radius*
0 $2 $3 $4 $5 $6 $7 $8 $9 X,Y pos of 4 corners*
0 Add a 4 corners polygon primitive as box body*
4,1,4,$2,$3,$4,$5,$6,$7,$8,$9,$2,$3,0*
0 Add four circle primitives for the rounded corners*
1,1,$1+$1,$2,$3*
1,1,$1+$1,$4,$5*
1,1,$1+$1,$6,$7*
1,1,$1+$1,$8,$9*
0 Add four rect primitives between the rounded corners*
20,1,$1+$1,$2,$3,$4,$5,0*
20,1,$1+$1,$4,$5,$6,$7,0*
20,1,$1+$1,$6,$7,$8,$9,0*
20,1,$1+$1,$8,$9,$2,$3,0*%
%AMFreePoly0*
4,1,43,-0.744645,1.985355,-0.730000,1.950000,-0.730000,1.400000,-0.580000,1.400000,-0.580000,1.950000,-0.565355,1.985355,-0.530000,2.000000,-0.130000,2.000000,-0.094645,1.985355,-0.080000,1.950000,-0.080000,1.400000,0.070000,1.400000,0.070000,1.950000,0.084645,1.985355,0.120000,2.000000,0.520000,2.000000,0.555355,1.985355,0.570000,1.950000,0.570000,1.400000,0.720000,1.400000,
0.720000,1.950000,0.734645,1.985355,0.770000,2.000000,1.170000,2.000000,1.205355,1.985355,1.220000,1.950000,1.220000,1.400000,1.255355,1.385355,1.270000,1.350000,1.270000,-0.580000,1.255355,-0.615355,1.220000,-0.630000,-1.230000,-0.630000,-1.265355,-0.615355,-1.280000,-0.580000,-1.280000,1.350000,-1.265355,1.385355,-1.230000,1.400000,-1.230000,1.950000,-1.215355,1.985355,
-1.180000,2.000000,-0.780000,2.000000,-0.744645,1.985355,-0.744645,1.985355,$1*%
%AMFreePoly1*
4,1,37,-1.494645,2.295355,-1.480000,2.260000,-1.480000,1.810000,1.480000,1.810000,1.480000,2.260000,1.494645,2.295355,1.530000,2.310000,2.280000,2.310000,2.315355,2.295355,2.330000,2.260000,2.330000,-0.890000,2.780000,-0.890000,2.815355,-0.904645,2.830000,-0.940000,2.830000,-1.850000,2.815355,-1.885355,2.780000,-1.900000,2.330000,-1.900000,2.330000,-2.270000,2.315355,-2.305355,
2.280000,-2.320000,-2.280000,-2.320000,-2.315355,-2.305355,-2.330000,-2.270000,-2.330000,-1.900000,-2.780000,-1.900000,-2.815355,-1.885355,-2.830000,-1.850000,-2.830000,-0.940000,-2.815355,-0.904645,-2.780000,-0.890000,-2.330000,-0.890000,-2.330000,2.260000,-2.315355,2.295355,-2.280000,2.310000,-1.530000,2.310000,-1.494645,2.295355,-1.494645,2.295355,$1*%
%AMFreePoly2*
4,1,135,0.939806,0.999029,0.984951,0.990000,1.060000,0.990000,1.069806,0.989029,1.119806,0.979029,1.122127,0.978507,1.160971,0.968796,1.209806,0.959029,1.222361,0.954721,1.257451,0.937176,1.292127,0.928507,1.302361,0.924721,1.462361,0.844721,1.470000,0.840000,1.508884,0.810837,1.537735,0.791603,1.540000,0.790000,1.580000,0.760000,1.585355,0.755355,1.675355,0.665355,
1.680000,0.660000,1.707870,0.622840,1.735355,0.595355,1.744721,0.582361,1.762704,0.546394,1.790000,0.510000,1.794721,0.502361,1.834721,0.422361,1.838076,0.413736,1.847715,0.380000,3.500000,0.380000,3.535355,0.365355,3.550000,0.330000,3.550000,-0.330000,3.535355,-0.365355,3.500000,-0.380000,1.849039,-0.380000,1.838507,-0.422127,1.834721,-0.432361,1.794721,-0.512361,
1.790000,-0.520000,1.762704,-0.556394,1.744721,-0.592361,1.735355,-0.605355,1.707870,-0.632840,1.680000,-0.670000,1.675355,-0.675355,1.585355,-0.765355,1.580000,-0.770000,1.540000,-0.800000,1.537735,-0.801603,1.508884,-0.820837,1.470000,-0.850000,1.462361,-0.854721,1.302361,-0.934721,1.292127,-0.938507,1.257451,-0.947176,1.222361,-0.964721,1.209806,-0.969029,1.160971,-0.978796,
1.122127,-0.988507,1.119806,-0.989029,1.069806,-0.999029,1.060000,-1.000000,-1.060000,-1.000000,-1.072127,-0.998507,-1.150971,-0.978796,-1.199806,-0.969029,-1.212361,-0.964721,-1.247451,-0.947176,-1.282127,-0.938507,-1.292361,-0.934721,-1.452361,-0.854721,-1.460000,-0.850000,-1.498884,-0.820837,-1.527735,-0.801603,-1.530000,-0.800000,-1.570000,-0.770000,-1.575355,-0.765355,-1.665355,-0.675355,
-1.670000,-0.670000,-1.697870,-0.632840,-1.725355,-0.605355,-1.734721,-0.592361,-1.752704,-0.556394,-1.780000,-0.520000,-1.784721,-0.512361,-1.844721,-0.392361,-1.848507,-0.382127,-1.857176,-0.347451,-1.874721,-0.312361,-1.878507,-0.302127,-1.888507,-0.262127,-1.889029,-0.259806,-1.898796,-0.210971,-1.918507,-0.132127,-1.920000,-0.120000,-1.920000,0.110000,-1.918507,0.122127,-1.898796,0.200971,
-1.889029,0.249806,-1.888507,0.252127,-1.878507,0.292127,-1.874721,0.302361,-1.857176,0.337451,-1.848507,0.372127,-1.844721,0.382361,-1.784721,0.502361,-1.780000,0.510000,-1.752704,0.546394,-1.734721,0.582361,-1.725355,0.595355,-1.697870,0.622840,-1.670000,0.660000,-1.665355,0.665355,-1.575355,0.755355,-1.570000,0.760000,-1.530000,0.790000,-1.527735,0.791603,-1.498884,0.810837,
-1.460000,0.840000,-1.452361,0.844721,-1.292361,0.924721,-1.282127,0.928507,-1.247451,0.937176,-1.212361,0.954721,-1.199806,0.959029,-1.150971,0.968796,-1.072127,0.988507,-1.060000,0.990000,-0.974951,0.990000,-0.929806,0.999029,-0.920000,1.000000,0.930000,1.000000,0.939806,0.999029,0.939806,0.999029,$1*%
G04 Aperture macros list end*
%ADD10R,0.880000X0.990000*%
%ADD11RoundRect,0.160000X-0.197500X-0.160000X0.197500X-0.160000X0.197500X0.160000X-0.197500X0.160000X0*%
%ADD12R,1.210000X1.700000*%
%ADD13RoundRect,0.160000X0.197500X0.160000X-0.197500X0.160000X-0.197500X-0.160000X0.197500X-0.160000X0*%
%ADD14RoundRect,0.237500X-0.237500X0.250000X-0.237500X-0.250000X0.237500X-0.250000X0.237500X0.250000X0*%
%ADD15RoundRect,0.155000X-0.212500X-0.155000X0.212500X-0.155000X0.212500X0.155000X-0.212500X0.155000X0*%
%ADD16RoundRect,0.155000X0.212500X0.155000X-0.212500X0.155000X-0.212500X-0.155000X0.212500X-0.155000X0*%
%ADD17R,0.350000X0.750000*%
%ADD18FreePoly0,0.000000*%
%ADD19RoundRect,0.160000X-0.160000X0.197500X-0.160000X-0.197500X0.160000X-0.197500X0.160000X0.197500X0*%
%ADD20RoundRect,0.155000X-0.155000X0.212500X-0.155000X-0.212500X0.155000X-0.212500X0.155000X0.212500X0*%
%ADD21R,0.800000X1.000000*%
%ADD22R,3.250000X5.000000*%
%ADD23R,0.750000X1.000000*%
%ADD24FreePoly1,0.000000*%
%ADD25R,2.700000X1.630000*%
%ADD26R,1.700000X1.210000*%
%ADD27RoundRect,0.160000X0.160000X-0.197500X0.160000X0.197500X-0.160000X0.197500X-0.160000X-0.197500X0*%
%ADD28RoundRect,0.237500X0.237500X-0.300000X0.237500X0.300000X-0.237500X0.300000X-0.237500X-0.300000X0*%
%ADD29RoundRect,0.155000X0.155000X-0.212500X0.155000X0.212500X-0.155000X0.212500X-0.155000X-0.212500X0*%
%ADD30R,0.700000X1.250000*%
%ADD31R,0.800000X0.800000*%
%ADD32R,0.660000X0.280000*%
%ADD33R,0.280000X0.660000*%
%ADD34R,5.350000X5.350000*%
%ADD35R,1.150000X0.600000*%
%ADD36R,1.150000X0.300000*%
%ADD37R,0.860000X0.810000*%
%ADD38R,0.670000X1.580000*%
%ADD39FreePoly2,270.000000*%
%ADD40R,1.490000X1.730000*%
G04 APERTURE END LIST*
D10*
%TO.C,D1*%
X128990000Y-95300000D03*
X125610000Y-95300000D03*
%TD*%
D11*
%TO.C,R16*%
X139162500Y-86960000D03*
X140357500Y-86960000D03*
%TD*%
D12*
%TO.C,R17*%
X151150000Y-97460000D03*
X154110000Y-97460000D03*
%TD*%
D13*
%TO.C,R13*%
X127997500Y-82462500D03*
X126802500Y-82462500D03*
%TD*%
D14*
%TO.C,R6*%
X125000000Y-107187500D03*
X125000000Y-109012500D03*
%TD*%
D15*
%TO.C,C7*%
X139192500Y-88600000D03*
X140327500Y-88600000D03*
%TD*%
%TO.C,CLQ1*%
X121865000Y-93420000D03*
X123000000Y-93420000D03*
%TD*%
%TO.C,C8*%
X139192500Y-89675000D03*
X140327500Y-89675000D03*
%TD*%
D16*
%TO.C,C4*%
X135167500Y-95304000D03*
X134032500Y-95304000D03*
%TD*%
D15*
%TO.C,C3*%
X130332500Y-95304000D03*
X131467500Y-95304000D03*
%TD*%
D17*
%TO.C,Q1*%
X112130000Y-94222500D03*
X112780000Y-94222500D03*
X113420000Y-94222500D03*
X114070000Y-94222500D03*
D18*
X113100000Y-92662500D03*
%TD*%
D19*
%TO.C,R7*%
X104200000Y-104427500D03*
X104200000Y-105622500D03*
%TD*%
D20*
%TO.C,C2*%
X117485000Y-97832500D03*
X117485000Y-98967500D03*
%TD*%
%TO.C,CRQ1*%
X147734000Y-100304000D03*
X147734000Y-101439000D03*
%TD*%
D21*
%TO.C,QE2*%
X109850000Y-106702500D03*
X107950000Y-106702500D03*
X108900000Y-109002500D03*
%TD*%
D10*
%TO.C,D2*%
X136510000Y-95300000D03*
X139890000Y-95300000D03*
%TD*%
D19*
%TO.C,R11*%
X152000000Y-94462500D03*
X152000000Y-95657500D03*
%TD*%
D22*
%TO.C,L1*%
X127134000Y-102704000D03*
X138434000Y-102704000D03*
%TD*%
D23*
%TO.C,QLT1*%
X119224000Y-101494000D03*
X120504000Y-101494000D03*
X121764000Y-101494000D03*
X123034000Y-101494000D03*
D24*
X121134000Y-97734000D03*
%TD*%
D25*
%TO.C,CL2*%
X120600000Y-82730000D03*
X120600000Y-85770000D03*
%TD*%
D26*
%TO.C,R1*%
X121000000Y-88420000D03*
X121000000Y-91380000D03*
%TD*%
D27*
%TO.C,R4*%
X104200000Y-109085000D03*
X104200000Y-107890000D03*
%TD*%
D19*
%TO.C,R25*%
X111750000Y-105502500D03*
X111750000Y-106697500D03*
%TD*%
D13*
%TO.C,R24*%
X113195000Y-101200000D03*
X112000000Y-101200000D03*
%TD*%
D27*
%TO.C,R9*%
X148134000Y-104701500D03*
X148134000Y-103506500D03*
%TD*%
D25*
%TO.C,CL4*%
X117100000Y-91270000D03*
X117100000Y-88230000D03*
%TD*%
D14*
%TO.C,R10*%
X140334000Y-97191500D03*
X140334000Y-99016500D03*
%TD*%
D16*
%TO.C,C13*%
X116067500Y-101200000D03*
X114932500Y-101200000D03*
%TD*%
D28*
%TO.C,C9*%
X137560000Y-84422500D03*
X137560000Y-82697500D03*
%TD*%
D25*
%TO.C,CR4*%
X156900000Y-95960000D03*
X156900000Y-99000000D03*
%TD*%
D29*
%TO.C,C10*%
X160900000Y-104595000D03*
X160900000Y-103460000D03*
%TD*%
D16*
%TO.C,CLQ2*%
X120135000Y-93420000D03*
X119000000Y-93420000D03*
%TD*%
D30*
%TO.C,QE3*%
X109850000Y-102702500D03*
X107950000Y-102702500D03*
X108900000Y-104702500D03*
%TD*%
D23*
%TO.C,QLB1*%
X119224000Y-108464000D03*
X120504000Y-108464000D03*
X121764000Y-108464000D03*
X123034000Y-108464000D03*
D24*
X121134000Y-104704000D03*
%TD*%
D13*
%TO.C,R22*%
X108097500Y-101200000D03*
X106902500Y-101200000D03*
%TD*%
D25*
%TO.C,CL3*%
X117100000Y-82730000D03*
X117100000Y-85770000D03*
%TD*%
D30*
%TO.C,QE4*%
X114900000Y-102702500D03*
X113000000Y-102702500D03*
X113950000Y-104702500D03*
%TD*%
D31*
%TO.C,LED4*%
X101210000Y-102090000D03*
X102810000Y-102090000D03*
%TD*%
D32*
%TO.C,U1*%
X128800000Y-86400000D03*
X128800000Y-86900000D03*
X128800000Y-87400000D03*
X128800000Y-87900000D03*
X128800000Y-88400000D03*
X128800000Y-88900000D03*
X128800000Y-89400000D03*
X128800000Y-89900000D03*
X128800000Y-90400000D03*
X128800000Y-90900000D03*
X128800000Y-91400000D03*
X128800000Y-91900000D03*
D33*
X129460000Y-92560000D03*
X129960000Y-92560000D03*
X130460000Y-92560000D03*
X130960000Y-92560000D03*
X131460000Y-92560000D03*
X131960000Y-92560000D03*
X132460000Y-92560000D03*
X132960000Y-92560000D03*
X133460000Y-92560000D03*
X133960000Y-92560000D03*
X134460000Y-92560000D03*
X134960000Y-92560000D03*
D32*
X135620000Y-91900000D03*
X135620000Y-91400000D03*
X135620000Y-90900000D03*
X135620000Y-90400000D03*
X135620000Y-89900000D03*
X135620000Y-89400000D03*
X135620000Y-88900000D03*
X135620000Y-88400000D03*
X135620000Y-87900000D03*
X135620000Y-87400000D03*
X135620000Y-86900000D03*
X135620000Y-86400000D03*
D33*
X134960000Y-85740000D03*
X134460000Y-85740000D03*
X133960000Y-85740000D03*
X133460000Y-85740000D03*
X132960000Y-85740000D03*
X132460000Y-85740000D03*
X131960000Y-85740000D03*
X131460000Y-85740000D03*
X130960000Y-85740000D03*
X130460000Y-85740000D03*
X129960000Y-85740000D03*
X129460000Y-85740000D03*
D34*
X132210000Y-89150000D03*
%TD*%
D20*
%TO.C,C6*%
X153300000Y-94492500D03*
X153300000Y-95627500D03*
%TD*%
D12*
%TO.C,R18*%
X151150000Y-99960000D03*
X154110000Y-99960000D03*
%TD*%
D19*
%TO.C,R23*%
X106750000Y-105502500D03*
X106750000Y-106697500D03*
%TD*%
D25*
%TO.C,CR3*%
X155000000Y-105500000D03*
X155000000Y-102460000D03*
%TD*%
D23*
%TO.C,QRB1*%
X142224000Y-108464000D03*
X143504000Y-108464000D03*
X144764000Y-108464000D03*
X146034000Y-108464000D03*
D24*
X144134000Y-104704000D03*
%TD*%
D13*
%TO.C,R2*%
X124310000Y-90310000D03*
X123115000Y-90310000D03*
%TD*%
D31*
%TO.C,LED2*%
X101210000Y-106756667D03*
X102810000Y-106756667D03*
%TD*%
D35*
%TO.C,USB1*%
X106360000Y-92300000D03*
X106360000Y-93100000D03*
D36*
X106360000Y-94250000D03*
X106360000Y-95250000D03*
X106360000Y-95750000D03*
X106360000Y-96750000D03*
D35*
X106360000Y-98700000D03*
X106360000Y-97900000D03*
D36*
X106360000Y-97250000D03*
X106360000Y-96250000D03*
X106360000Y-94750000D03*
X106360000Y-93750000D03*
%TD*%
D20*
%TO.C,CRQ2*%
X149134000Y-100304000D03*
X149134000Y-101439000D03*
%TD*%
D11*
%TO.C,R14*%
X139162500Y-84560000D03*
X140357500Y-84560000D03*
%TD*%
D23*
%TO.C,D3*%
X170900000Y-87040000D03*
X170900000Y-89380000D03*
%TD*%
D29*
%TO.C,C11*%
X167880000Y-107337500D03*
X167880000Y-106202500D03*
%TD*%
D11*
%TO.C,R19*%
X142962500Y-85900000D03*
X144157500Y-85900000D03*
%TD*%
D37*
%TO.C,RNTC1*%
X135960000Y-84310000D03*
X135960000Y-82810000D03*
%TD*%
D23*
%TO.C,QRT1*%
X142224000Y-101464000D03*
X143504000Y-101464000D03*
X144764000Y-101464000D03*
X146034000Y-101464000D03*
D24*
X144134000Y-97704000D03*
%TD*%
D11*
%TO.C,R20*%
X142962500Y-86900000D03*
X144157500Y-86900000D03*
%TD*%
D13*
%TO.C,R12*%
X127995000Y-85062500D03*
X126800000Y-85062500D03*
%TD*%
D11*
%TO.C,R21*%
X142962500Y-87900000D03*
X144157500Y-87900000D03*
%TD*%
D15*
%TO.C,CSC1*%
X123145000Y-89310000D03*
X124280000Y-89310000D03*
%TD*%
D20*
%TO.C,C5*%
X148134000Y-106136500D03*
X148134000Y-107271500D03*
%TD*%
D14*
%TO.C,R3*%
X125134000Y-97191500D03*
X125134000Y-99016500D03*
%TD*%
D16*
%TO.C,C12*%
X110835000Y-101202500D03*
X109700000Y-101202500D03*
%TD*%
D11*
%TO.C,R15*%
X139165000Y-85760000D03*
X140360000Y-85760000D03*
%TD*%
D27*
%TO.C,R5*%
X117475000Y-101472500D03*
X117475000Y-100277500D03*
%TD*%
D31*
%TO.C,LED1*%
X101210000Y-109090000D03*
X102810000Y-109090000D03*
%TD*%
D14*
%TO.C,R8*%
X140500000Y-107087500D03*
X140500000Y-108912500D03*
%TD*%
D21*
%TO.C,QE1*%
X114900000Y-106702500D03*
X113000000Y-106702500D03*
X113950000Y-109002500D03*
%TD*%
D25*
%TO.C,CR2*%
X158400000Y-105500000D03*
X158400000Y-102460000D03*
%TD*%
D38*
%TO.C,U2*%
X162650000Y-106210000D03*
D39*
X164160000Y-103490000D03*
D38*
X165650000Y-106210000D03*
%TD*%
D40*
%TO.C,CL7*%
X112600000Y-96162500D03*
X115780000Y-96162500D03*
%TD*%
D31*
%TO.C,LED3*%
X101210000Y-104423333D03*
X102810000Y-104423333D03*
%TD*%
M02*
