M48
; DRILL file {KiCad 9.0.6} date 2025-12-05T19:39:16+0100
; FORMAT={-:-/ absolute / metric / decimal}
; #@! TF.CreationDate,2025-12-05T19:39:16+01:00
; #@! TF.GenerationSoftware,Kicad,Pcbnew,9.0.6
; #@! TF.FileFunction,Plated,1,2,PTH
FMAT,2
METRIC
; #@! TA.AperFunction,Plated,PTH,ViaDrill
T1C0.300
; #@! TA.AperFunction,Plated,PTH,ComponentDrill
T2C0.600
; #@! TA.AperFunction,Plated,PTH,ComponentDrill
T3C1.000
; #@! TA.AperFunction,Plated,PTH,ComponentDrill
T4C1.100
; #@! TA.AperFunction,Plated,PTH,ComponentDrill
T5C1.800
%
G90
G05
T1
X100.6Y-80.6
X100.6Y-82.6
X100.6Y-84.6
X100.6Y-86.6
X100.6Y-88.6
X100.65Y-92.98
X100.65Y-93.98
X100.65Y-94.98
X100.65Y-95.98
X100.65Y-96.98
X100.65Y-97.98
X101.65Y-92.98
X101.65Y-93.98
X101.65Y-94.98
X101.65Y-95.98
X101.65Y-96.98
X101.65Y-97.98
X101.9Y-88.35
X102.6Y-80.6
X102.6Y-82.6
X102.6Y-84.6
X102.9Y-88.35
X103.3Y-107.9
X103.35Y-105.6
X103.55Y-103.1
X104.3Y-106.8
X104.6Y-80.6
X104.6Y-82.6
X104.63Y-93.76
X105.025Y-110.125
X106.25Y-102.2
X106.25Y-103.2
X106.25Y-104.2
X106.6Y-80.6
X107.025Y-110.125
X107.25Y-90.8
X107.95Y-105.75
X108.25Y-90.8
X108.25Y-91.8
X108.9Y-101.2
X109.025Y-110.125
X109.25Y-90.8
X109.25Y-91.8
X109.445Y-82.647
X110.25Y-90.8
X110.25Y-91.8
X111.445Y-82.647
X111.475Y-99.05
X111.475Y-100.05
X112.475Y-99.05
X112.475Y-100.05
X112.78Y-94.222
X113.0Y-105.75
X113.445Y-82.647
X113.81Y-92.76
X114.05Y-101.25
X114.39Y-95.02
X115.475Y-109.093
X115.475Y-110.093
X116.475Y-104.093
X116.475Y-105.093
X116.482Y-106.1
X116.482Y-107.1
X116.482Y-108.1
X116.482Y-109.1
X116.482Y-110.1
X117.475Y-104.093
X117.475Y-105.093
X117.482Y-106.1
X117.482Y-107.1
X117.482Y-108.1
X117.482Y-109.1
X117.482Y-110.1
X118.482Y-110.1
X119.482Y-110.1
X119.6Y-95.9
X119.6Y-96.6
X119.6Y-97.3
X119.6Y-98.0
X119.6Y-98.7
X119.6Y-99.4
X119.6Y-103.36
X119.6Y-104.06
X119.6Y-104.76
X119.6Y-105.46
X119.6Y-106.16
X119.6Y-106.86
X120.2Y-95.9
X120.2Y-96.6
X120.2Y-97.3
X120.2Y-98.0
X120.2Y-98.7
X120.2Y-99.4
X120.2Y-103.36
X120.2Y-104.06
X120.2Y-104.76
X120.2Y-105.46
X120.2Y-106.16
X120.2Y-106.86
X120.482Y-110.1
X120.8Y-95.9
X120.8Y-96.6
X120.8Y-97.3
X120.8Y-98.0
X120.8Y-98.7
X120.8Y-99.4
X120.8Y-103.36
X120.8Y-104.06
X120.8Y-104.76
X120.8Y-105.46
X120.8Y-106.16
X120.8Y-106.86
X121.4Y-95.9
X121.4Y-96.6
X121.4Y-97.3
X121.4Y-98.0
X121.4Y-98.7
X121.4Y-99.4
X121.4Y-103.36
X121.4Y-104.06
X121.4Y-104.76
X121.4Y-105.46
X121.4Y-106.16
X121.4Y-106.86
X121.482Y-110.1
X122.0Y-95.9
X122.0Y-96.6
X122.0Y-97.3
X122.0Y-98.0
X122.0Y-98.7
X122.0Y-99.4
X122.0Y-103.36
X122.0Y-104.06
X122.0Y-104.76
X122.0Y-105.46
X122.0Y-106.16
X122.0Y-106.86
X122.482Y-110.1
X122.6Y-95.9
X122.6Y-96.6
X122.6Y-97.3
X122.6Y-98.0
X122.6Y-98.7
X122.6Y-99.4
X122.6Y-103.36
X122.6Y-104.06
X122.6Y-104.76
X122.6Y-105.46
X122.6Y-106.16
X122.6Y-106.86
X123.482Y-110.1
X124.29Y-94.42
X124.31Y-95.59
X124.482Y-110.1
X125.482Y-110.1
X126.482Y-110.1
X126.5Y-109.118
X126.557Y-90.763
X126.8Y-86.85
X126.85Y-81.49
X127.008Y-89.129
X127.127Y-89.92
X127.14Y-88.34
X127.482Y-109.1
X127.482Y-110.1
X128.482Y-109.1
X128.482Y-110.1
X129.482Y-109.1
X129.482Y-110.1
X130.355Y-84.295
X130.482Y-109.1
X130.482Y-110.1
X130.599Y-87.5
X130.599Y-88.301
X130.599Y-89.1
X130.599Y-89.9
X130.599Y-90.7
X131.399Y-89.1
X131.4Y-87.5
X131.4Y-88.301
X131.4Y-89.9
X131.4Y-90.7
X131.482Y-109.1
X131.482Y-110.1
X131.991Y-83.959
X132.199Y-87.5
X132.199Y-88.301
X132.199Y-89.1
X132.199Y-89.9
X132.199Y-90.7
X132.482Y-109.1
X132.482Y-110.1
X133.0Y-87.5
X133.0Y-88.301
X133.0Y-89.1
X133.0Y-89.9
X133.0Y-90.7
X133.482Y-109.1
X133.482Y-110.1
X133.799Y-89.1
X133.8Y-87.5
X133.8Y-88.301
X133.8Y-89.9
X133.8Y-90.7
X134.031Y-83.727
X134.482Y-109.1
X134.482Y-110.1
X134.6Y-80.6
X134.731Y-84.25
X135.482Y-109.1
X135.482Y-110.1
X136.482Y-109.1
X136.482Y-110.1
X136.6Y-80.6
X137.2Y-89.1
X137.482Y-109.1
X137.482Y-110.1
X138.482Y-109.1
X138.482Y-110.1
X138.6Y-80.6
X139.482Y-110.1
X140.482Y-110.1
X140.6Y-80.6
X141.482Y-110.1
X142.2Y-94.582
X142.482Y-110.1
X142.5Y-103.36
X142.5Y-104.06
X142.5Y-104.76
X142.5Y-105.46
X142.5Y-106.16
X142.5Y-106.86
X142.6Y-80.6
X142.7Y-96.1
X142.7Y-96.8
X142.7Y-97.5
X142.7Y-98.2
X142.7Y-98.9
X142.7Y-99.6
X143.1Y-103.36
X143.1Y-104.06
X143.1Y-104.76
X143.1Y-105.46
X143.1Y-106.16
X143.1Y-106.86
X143.2Y-94.582
X143.3Y-96.1
X143.3Y-96.8
X143.3Y-97.5
X143.3Y-98.2
X143.3Y-98.9
X143.3Y-99.6
X143.482Y-110.1
X143.7Y-103.36
X143.7Y-104.06
X143.7Y-104.76
X143.7Y-105.46
X143.7Y-106.16
X143.7Y-106.86
X143.9Y-96.1
X143.9Y-96.8
X143.9Y-97.5
X143.9Y-98.2
X143.9Y-98.9
X143.9Y-99.6
X144.2Y-94.582
X144.3Y-103.36
X144.3Y-104.06
X144.3Y-104.76
X144.3Y-105.46
X144.3Y-106.16
X144.3Y-106.86
X144.482Y-110.1
X144.5Y-96.1
X144.5Y-96.8
X144.5Y-97.5
X144.5Y-98.2
X144.5Y-98.9
X144.5Y-99.6
X144.6Y-80.6
X144.9Y-103.36
X144.9Y-104.06
X144.9Y-104.76
X144.9Y-105.46
X144.9Y-106.16
X144.9Y-106.86
X145.1Y-96.1
X145.1Y-96.8
X145.1Y-97.5
X145.1Y-98.2
X145.1Y-98.9
X145.1Y-99.6
X145.2Y-94.582
X145.482Y-110.1
X145.5Y-103.36
X145.5Y-104.06
X145.5Y-104.76
X145.5Y-105.46
X145.5Y-106.16
X145.5Y-106.86
X145.7Y-96.1
X145.7Y-96.8
X145.7Y-97.5
X145.7Y-98.2
X145.7Y-98.9
X145.7Y-99.6
X146.482Y-110.1
X146.6Y-80.6
X146.6Y-84.61
X146.6Y-86.61
X147.482Y-110.1
X148.482Y-110.1
X148.58Y-88.61
X148.58Y-90.61
X148.6Y-80.6
X148.6Y-84.61
X148.6Y-86.61
X149.4Y-106.118
X149.4Y-107.118
X149.4Y-108.118
X149.4Y-109.118
X149.4Y-110.118
X150.4Y-106.118
X150.4Y-107.118
X150.4Y-108.118
X150.4Y-109.118
X150.4Y-110.118
X150.58Y-80.61
X150.58Y-84.61
X150.58Y-86.61
X150.58Y-88.61
X150.58Y-90.61
X151.4Y-106.118
X151.4Y-107.118
X151.4Y-108.118
X151.4Y-109.118
X151.4Y-110.118
X152.4Y-106.118
X152.4Y-107.118
X152.4Y-108.118
X152.4Y-109.118
X152.4Y-110.118
X152.56Y-88.61
X152.56Y-90.61
X152.58Y-80.61
X152.58Y-84.61
X152.58Y-86.61
X154.2Y-108.118
X154.2Y-110.118
X154.56Y-84.61
X154.56Y-86.61
X154.56Y-88.61
X154.56Y-90.61
X154.58Y-80.61
X155.5Y-92.9
X155.5Y-93.9
X156.2Y-108.0
X156.2Y-110.0
X156.5Y-92.9
X156.5Y-93.9
X156.54Y-88.58
X156.54Y-90.58
X156.56Y-84.58
X156.56Y-86.58
X156.58Y-80.61
X157.5Y-92.9
X157.5Y-93.9
X158.2Y-108.0
X158.2Y-110.0
X158.5Y-92.9
X158.5Y-93.9
X158.54Y-84.58
X158.54Y-86.58
X158.54Y-88.58
X158.54Y-90.58
X158.58Y-80.61
X160.2Y-108.0
X160.2Y-110.0
X160.58Y-80.61
X162.2Y-108.0
X162.2Y-110.0
X162.6Y-80.6
X164.2Y-110.0
X164.6Y-80.6
X166.2Y-110.0
X166.6Y-80.6
X168.2Y-110.0
X168.6Y-80.6
X168.75Y-84.25
X170.2Y-110.0
X170.6Y-80.6
X170.6Y-82.6
X172.2Y-110.0
X174.2Y-110.0
X176.15Y-92.55
X176.15Y-94.55
X176.15Y-96.55
X176.15Y-98.55
X176.2Y-104.0
X176.2Y-106.0
X176.2Y-108.0
X176.2Y-110.0
X178.15Y-92.55
X178.15Y-94.55
X178.15Y-96.55
X178.15Y-98.55
X178.2Y-104.0
X178.2Y-106.0
X178.2Y-108.0
X178.2Y-110.0
T3
X109.15Y-85.7
X112.65Y-85.7
X165.5Y-83.91
X165.5Y-87.41
T4
X176.4Y-90.0
X176.4Y-101.0
T5
X166.4Y-93.0
X166.4Y-98.0
T2
X101.9Y-91.18G85X101.1Y-91.18
G05
X101.9Y-99.82G85X101.1Y-99.82
G05
X106.2Y-91.18G85X105.1Y-91.18
G05
X106.2Y-99.82G85X105.1Y-99.82
G05
M30
