%TF.GenerationSoftware,KiCad,Pcbnew,9.0.6*%
%TF.CreationDate,2025-12-14T22:45:36+01:00*%
%TF.ProjectId,balancingboardbyd,62616c61-6e63-4696-9e67-626f61726462,rev?*%
%TF.SameCoordinates,Original*%
%TF.FileFunction,Copper,L2,Bot*%
%TF.FilePolarity,Positive*%
%FSLAX46Y46*%
G04 Gerber Fmt 4.6, Leading zero omitted, Abs format (unit mm)*
G04 Created by KiCad (PCBNEW 9.0.6) date 2025-12-14 22:45:36*
%MOMM*%
%LPD*%
G01*
G04 APERTURE LIST*
%TA.AperFunction,ComponentPad*%
%ADD10R,2.300000X2.300000*%
%TD*%
%TA.AperFunction,ComponentPad*%
%ADD11C,2.300000*%
%TD*%
%TA.AperFunction,ComponentPad*%
%ADD12C,2.500000*%
%TD*%
%TA.AperFunction,ComponentPad*%
%ADD13C,1.800000*%
%TD*%
%TA.AperFunction,SMDPad,CuDef*%
%ADD14R,7.350000X5.320000*%
%TD*%
%TA.AperFunction,SMDPad,CuDef*%
%ADD15R,9.000000X7.500000*%
%TD*%
%TA.AperFunction,ViaPad*%
%ADD16C,0.600000*%
%TD*%
%TA.AperFunction,ViaPad*%
%ADD17C,3.000000*%
%TD*%
%TA.AperFunction,ViaPad*%
%ADD18C,0.500000*%
%TD*%
%TA.AperFunction,Conductor*%
%ADD19C,1.200000*%
%TD*%
%TA.AperFunction,Conductor*%
%ADD20C,0.200000*%
%TD*%
%TA.AperFunction,Conductor*%
%ADD21C,0.300000*%
%TD*%
G04 APERTURE END LIST*
D10*
%TO.P,CN5,1,1*%
%TO.N,BSET*%
X140480000Y-99080000D03*
D11*
%TO.P,CN5,2,2*%
%TO.N,B3*%
X144300000Y-99080000D03*
%TO.P,CN5,3,3*%
%TO.N,B4*%
X148110000Y-99080000D03*
%TO.P,CN5,4,4*%
%TO.N,B5*%
X151920000Y-99080000D03*
%TD*%
D10*
%TO.P,CN4,1,1*%
%TO.N,B6*%
X156980000Y-99070000D03*
D11*
%TO.P,CN4,2,2*%
%TO.N,B7*%
X160800000Y-99070000D03*
%TO.P,CN4,3,3*%
%TO.N,B8*%
X164610000Y-99070000D03*
%TO.P,CN4,4,4*%
%TO.N,unconnected-(CN4-Pad4)*%
X168420000Y-99070000D03*
%TD*%
D12*
%TO.P,U3,1,1*%
%TO.N,B8*%
X126620000Y-78620000D03*
%TO.P,U3,2,2*%
%TO.N,PACK-*%
X126620000Y-73620000D03*
D13*
%TO.P,U3,3,3*%
%TO.N,unconnected-(U3-Pad3)*%
X121620000Y-70620000D03*
%TO.P,U3,4,4*%
%TO.N,unconnected-(U3-Pad4)*%
X121620000Y-81620000D03*
%TD*%
D14*
%TO.P,BT2,1,1*%
%TO.N,B6*%
X135900000Y-143500000D03*
%TO.P,BT2,2,2*%
%TO.N,B5*%
X135900000Y-225200000D03*
%TO.P,BT2,3,3*%
%TO.N,B4*%
X155000000Y-143500000D03*
%TO.P,BT2,4,4*%
%TO.N,B5*%
X155000000Y-225200000D03*
%TD*%
D15*
%TO.P,U9,1,1*%
%TO.N,B3*%
X132480000Y-46540000D03*
%TO.P,U9,2,2*%
%TO.N,BSET*%
X132480000Y-132640000D03*
%TD*%
%TO.P,U6,1,1*%
%TO.N,B6*%
X132400000Y-141300000D03*
%TO.P,U6,2,2*%
%TO.N,B5*%
X132400000Y-227400000D03*
%TD*%
D12*
%TO.P,CN1,1,-*%
%TO.N,BSET*%
X131620000Y-92320000D03*
%TO.P,CN1,2,+*%
%TO.N,B8*%
X131620000Y-87320000D03*
D13*
%TO.P,CN1,3,3*%
%TO.N,unconnected-(CN1-Pad3)*%
X121620000Y-84320000D03*
%TO.P,CN1,4,4*%
%TO.N,unconnected-(CN1-Pad4)*%
X121620000Y-95320000D03*
%TD*%
D15*
%TO.P,U7,1,1*%
%TO.N,B5*%
X158100000Y-227400000D03*
%TO.P,U7,2,2*%
%TO.N,B4*%
X158100000Y-141300000D03*
%TD*%
D14*
%TO.P,BT3,1,1*%
%TO.N,B4*%
X155000000Y-129750000D03*
%TO.P,BT3,2,2*%
%TO.N,B3*%
X155000000Y-48050000D03*
%TO.P,BT3,3,3*%
%TO.N,BSET*%
X135900000Y-129750000D03*
%TO.P,BT3,4,4*%
%TO.N,B3*%
X135900000Y-48050000D03*
%TD*%
D15*
%TO.P,U8,1,1*%
%TO.N,B4*%
X158080000Y-132490000D03*
%TO.P,U8,2,2*%
%TO.N,B3*%
X158080000Y-46390000D03*
%TD*%
D16*
%TO.N,B5*%
X160675000Y-69515000D03*
X158225000Y-67065000D03*
X160725000Y-67115000D03*
X167375000Y-72515000D03*
X166825000Y-69365000D03*
X167875000Y-73115000D03*
X167525000Y-59715000D03*
X162025000Y-69515000D03*
X167375000Y-69815000D03*
X168275000Y-68665000D03*
X169425000Y-73715000D03*
X158775000Y-69565000D03*
X161175000Y-62465000D03*
X169475000Y-71315000D03*
D17*
%TO.N,BSET*%
X154020000Y-113620000D03*
X134020000Y-212620000D03*
X154020000Y-212620000D03*
X124020000Y-155620000D03*
X124020000Y-181620000D03*
X154020000Y-181620000D03*
D16*
X143775000Y-68815000D03*
D17*
X124020000Y-196620000D03*
X124020000Y-128620000D03*
D16*
X154275000Y-57815000D03*
D17*
X166020000Y-48620000D03*
X134020000Y-155620000D03*
X154020000Y-168620000D03*
D16*
X148525000Y-57815000D03*
D17*
X144020000Y-212620000D03*
X144020000Y-196620000D03*
D16*
X144375000Y-69315000D03*
X152325000Y-57815000D03*
D17*
X134020000Y-196620000D03*
X144020000Y-168620000D03*
D16*
X150425000Y-57815000D03*
D17*
X144020000Y-181620000D03*
X154020000Y-196620000D03*
X168020000Y-226620000D03*
X134020000Y-168620000D03*
D16*
X144925000Y-78865000D03*
D17*
X124020000Y-113620000D03*
X154020000Y-155620000D03*
D16*
X155775000Y-69965000D03*
D17*
X134020000Y-181620000D03*
X144020000Y-155620000D03*
X124020000Y-48620000D03*
D16*
X144925000Y-68815000D03*
X157025000Y-68765000D03*
D17*
X124020000Y-212620000D03*
X124020000Y-168620000D03*
D16*
X145025000Y-77315000D03*
%TO.N,VCC2*%
X168775000Y-77915000D03*
X168675000Y-72715000D03*
%TO.N,/VC5*%
X148325000Y-75915000D03*
X156975000Y-77015000D03*
D18*
%TO.N,/VC4*%
X143925000Y-59765000D03*
X145775000Y-66715000D03*
D16*
X148425000Y-77565000D03*
X154674999Y-77822840D03*
%TO.N,/VC3*%
X148425000Y-79065000D03*
X151665000Y-76915000D03*
D18*
%TO.N,COIN*%
X154571441Y-62238594D03*
X156176000Y-61015000D03*
D17*
%TO.N,B6*%
X125500000Y-144000000D03*
X142500000Y-146000000D03*
X131500000Y-148000000D03*
X135500000Y-148000000D03*
X139500000Y-148000000D03*
X139500000Y-139000000D03*
X142500000Y-142000000D03*
X125500000Y-140000000D03*
X127500000Y-147000000D03*
%TO.N,B8*%
X135420000Y-79820000D03*
D16*
%TO.N,O-*%
X136615000Y-64505000D03*
X135615000Y-64505000D03*
X134615000Y-64505000D03*
X136615000Y-65505000D03*
X132615000Y-66505000D03*
X130615000Y-67505000D03*
X135615000Y-67505000D03*
X129615000Y-64505000D03*
X135615000Y-65505000D03*
X128615000Y-66505000D03*
X136615000Y-67505000D03*
X128615000Y-67505000D03*
X129615000Y-66505000D03*
X130615000Y-64505000D03*
X133615000Y-66505000D03*
X134615000Y-65505000D03*
X130615000Y-66505000D03*
X133615000Y-64505000D03*
X133615000Y-67505000D03*
X131615000Y-66505000D03*
X128615000Y-65505000D03*
X130615000Y-65505000D03*
X133615000Y-65505000D03*
X132615000Y-65505000D03*
X132615000Y-64505000D03*
X134615000Y-66505000D03*
X131615000Y-64505000D03*
X134615000Y-67505000D03*
X128615000Y-64505000D03*
X132615000Y-67505000D03*
X129615000Y-65505000D03*
X131615000Y-65505000D03*
X135615000Y-66505000D03*
X136615000Y-66505000D03*
X131615000Y-67505000D03*
X129615000Y-67505000D03*
D18*
%TO.N,Net-(Q8-S)*%
X149025000Y-67015000D03*
X146525000Y-59865000D03*
D16*
%TO.N,Net-(Q11-S-Pad1)*%
X139875000Y-70315000D03*
X140875000Y-68315000D03*
X141875000Y-69315000D03*
X140875000Y-67315000D03*
X140875000Y-71315000D03*
X138875000Y-69315000D03*
X140875000Y-66315000D03*
X140875000Y-69315000D03*
X138875000Y-70315000D03*
X140875000Y-65315000D03*
X141875000Y-67315000D03*
X139875000Y-69315000D03*
X141875000Y-71315000D03*
X139875000Y-71315000D03*
X138875000Y-71315000D03*
X141875000Y-66315000D03*
X140875000Y-70315000D03*
X137625000Y-61065000D03*
X141875000Y-70315000D03*
X141875000Y-65315000D03*
X141875000Y-68315000D03*
%TO.N,/VC7*%
X164025000Y-77715000D03*
X167275000Y-76165000D03*
%TD*%
D19*
%TO.N,B5*%
X158100000Y-227400000D02*
X164520000Y-220980000D01*
X164520000Y-111655000D02*
X151925000Y-99060000D01*
X164520000Y-220980000D02*
X164520000Y-111655000D01*
D20*
%TO.N,VCC2*%
X168775000Y-72815000D02*
X168675000Y-72715000D01*
X168775000Y-77915000D02*
X168775000Y-72815000D01*
D21*
%TO.N,/VC5*%
X148325000Y-75915000D02*
X148775000Y-75465000D01*
X155425000Y-75465000D02*
X156975000Y-77015000D01*
X148775000Y-75465000D02*
X155425000Y-75465000D01*
%TO.N,/VC4*%
X152967159Y-76115000D02*
X154674999Y-77822840D01*
X148425000Y-77565000D02*
X149875000Y-76115000D01*
X145775000Y-61615000D02*
X145775000Y-66715000D01*
X149875000Y-76115000D02*
X152967159Y-76115000D01*
X143925000Y-59765000D02*
X145775000Y-61615000D01*
%TO.N,/VC3*%
X148425000Y-79065000D02*
X149515000Y-79065000D01*
X149515000Y-79065000D02*
X151665000Y-76915000D01*
D20*
%TO.N,COIN*%
X156176000Y-61265000D02*
X155826000Y-61615000D01*
X155826000Y-61615000D02*
X155198298Y-61615000D01*
X154574704Y-62238594D02*
X154571441Y-62238594D01*
X155198298Y-61615000D02*
X154574704Y-62238594D01*
X156176000Y-61015000D02*
X156176000Y-61265000D01*
D19*
%TO.N,B8*%
X147520000Y-82020000D02*
X137620000Y-82020000D01*
X164615000Y-99060000D02*
X164560000Y-99060000D01*
X137620000Y-82020000D02*
X135420000Y-79820000D01*
X164560000Y-99060000D02*
X147520000Y-82020000D01*
%TO.N,B4*%
X148115000Y-99060000D02*
X148115000Y-125915000D01*
X148115000Y-125915000D02*
X151950000Y-129750000D01*
X151950000Y-129750000D02*
X155000000Y-129750000D01*
%TO.N,B3*%
X129720000Y-78220000D02*
X129720000Y-72820000D01*
X144295000Y-92795000D02*
X129720000Y-78220000D01*
X144295000Y-99060000D02*
X144295000Y-92795000D01*
X129720000Y-72820000D02*
X125320000Y-68420000D01*
X125320000Y-68420000D02*
X125320000Y-53700000D01*
X125320000Y-53700000D02*
X132480000Y-46540000D01*
D21*
%TO.N,Net-(Q8-S)*%
X149025000Y-67015000D02*
X149025000Y-62365000D01*
X149025000Y-62365000D02*
X146525000Y-59865000D01*
%TO.N,Net-(Q11-S-Pad1)*%
X137875000Y-61315000D02*
X137875000Y-62315000D01*
X137875000Y-62315000D02*
X140875000Y-65315000D01*
X137625000Y-61065000D02*
X137875000Y-61315000D01*
%TO.N,/VC7*%
X167275000Y-76165000D02*
X165575000Y-76165000D01*
X165575000Y-76165000D02*
X164025000Y-77715000D01*
%TD*%
%TA.AperFunction,Conductor*%
%TO.N,BSET*%
G36*
X157325000Y-71315000D02*
G01*
X156325000Y-72315000D01*
X148325000Y-72315000D01*
X146325000Y-74315000D01*
X146325000Y-80315000D01*
X144325000Y-80315000D01*
X143325000Y-79315000D01*
X143325000Y-71315000D01*
X143325000Y-61315000D01*
X144113975Y-60526024D01*
X145334181Y-61746230D01*
X145367666Y-61807553D01*
X145370500Y-61833911D01*
X145370500Y-66373389D01*
X145353887Y-66435389D01*
X145304882Y-66520266D01*
X145304881Y-66520270D01*
X145270500Y-66648581D01*
X145270500Y-66781419D01*
X145304881Y-66909730D01*
X145371300Y-67024770D01*
X145465230Y-67118700D01*
X145580270Y-67185119D01*
X145708581Y-67219500D01*
X145708584Y-67219500D01*
X145841416Y-67219500D01*
X145841419Y-67219500D01*
X145969730Y-67185119D01*
X146084770Y-67118700D01*
X146178700Y-67024770D01*
X146245119Y-66909730D01*
X146279500Y-66781419D01*
X146279500Y-66648581D01*
X146245119Y-66520270D01*
X146196113Y-66435389D01*
X146179500Y-66373389D01*
X146179500Y-61561749D01*
X146179500Y-61561747D01*
X146151934Y-61458869D01*
X146098680Y-61366631D01*
X146023369Y-61291320D01*
X144686024Y-59953975D01*
X144841418Y-59798581D01*
X146020500Y-59798581D01*
X146020500Y-59931419D01*
X146054881Y-60059730D01*
X146121300Y-60174770D01*
X146215230Y-60268700D01*
X146330270Y-60335119D01*
X146424944Y-60360486D01*
X146480531Y-60392580D01*
X148584181Y-62496230D01*
X148617666Y-62557553D01*
X148620500Y-62583911D01*
X148620500Y-66673389D01*
X148603887Y-66735389D01*
X148554882Y-66820266D01*
X148554881Y-66820270D01*
X148520500Y-66948581D01*
X148520500Y-67081419D01*
X148554881Y-67209730D01*
X148621300Y-67324770D01*
X148715230Y-67418700D01*
X148830270Y-67485119D01*
X148958581Y-67519500D01*
X148958584Y-67519500D01*
X149091416Y-67519500D01*
X149091419Y-67519500D01*
X149219730Y-67485119D01*
X149334770Y-67418700D01*
X149428700Y-67324770D01*
X149495119Y-67209730D01*
X149529500Y-67081419D01*
X149529500Y-66948581D01*
X149495119Y-66820270D01*
X149472688Y-66781419D01*
X149446113Y-66735389D01*
X149429500Y-66673389D01*
X149429500Y-62311749D01*
X149429500Y-62311747D01*
X149401934Y-62208869D01*
X149380749Y-62172175D01*
X154066941Y-62172175D01*
X154066941Y-62305013D01*
X154101322Y-62433324D01*
X154167741Y-62548364D01*
X154261671Y-62642294D01*
X154376711Y-62708713D01*
X154505022Y-62743094D01*
X154505025Y-62743094D01*
X154637857Y-62743094D01*
X154637860Y-62743094D01*
X154766171Y-62708713D01*
X154881211Y-62642294D01*
X154975141Y-62548364D01*
X155041560Y-62433324D01*
X155075941Y-62305013D01*
X155075941Y-62290058D01*
X155095626Y-62223019D01*
X155112260Y-62202377D01*
X155308818Y-62005819D01*
X155370141Y-61972334D01*
X155396499Y-61969500D01*
X155872669Y-61969500D01*
X155872671Y-61969500D01*
X155962832Y-61945341D01*
X156043668Y-61898671D01*
X156459671Y-61482668D01*
X156473411Y-61458869D01*
X156503240Y-61407202D01*
X156522940Y-61381529D01*
X156579700Y-61324770D01*
X156646119Y-61209730D01*
X156680500Y-61081419D01*
X156680500Y-60948581D01*
X156646119Y-60820270D01*
X156579700Y-60705230D01*
X156485770Y-60611300D01*
X156370730Y-60544881D01*
X156242419Y-60510500D01*
X156109581Y-60510500D01*
X155981270Y-60544881D01*
X155981268Y-60544881D01*
X155981268Y-60544882D01*
X155866230Y-60611300D01*
X155866227Y-60611302D01*
X155772302Y-60705227D01*
X155772300Y-60705230D01*
X155705881Y-60820270D01*
X155671500Y-60948581D01*
X155671500Y-60948583D01*
X155671500Y-61081418D01*
X155677660Y-61104407D01*
X155675997Y-61174256D01*
X155636835Y-61232119D01*
X155572606Y-61259623D01*
X155557885Y-61260500D01*
X155244969Y-61260500D01*
X155151627Y-61260500D01*
X155091519Y-61276606D01*
X155061465Y-61284659D01*
X154980631Y-61331328D01*
X154980628Y-61331330D01*
X154614184Y-61697775D01*
X154552861Y-61731260D01*
X154526503Y-61734094D01*
X154505022Y-61734094D01*
X154376711Y-61768475D01*
X154376709Y-61768475D01*
X154376709Y-61768476D01*
X154261671Y-61834894D01*
X154261668Y-61834896D01*
X154167743Y-61928821D01*
X154167741Y-61928824D01*
X154101322Y-62043864D01*
X154066941Y-62172175D01*
X149380749Y-62172175D01*
X149348680Y-62116631D01*
X149273369Y-62041320D01*
X147052580Y-59820531D01*
X147020486Y-59764943D01*
X147002704Y-59698581D01*
X146995119Y-59670270D01*
X146928700Y-59555230D01*
X146834770Y-59461300D01*
X146719730Y-59394881D01*
X146591419Y-59360500D01*
X146458581Y-59360500D01*
X146330270Y-59394881D01*
X146330268Y-59394881D01*
X146330268Y-59394882D01*
X146215230Y-59461300D01*
X146215227Y-59461302D01*
X146121302Y-59555227D01*
X146121300Y-59555230D01*
X146054881Y-59670270D01*
X146020500Y-59798581D01*
X144841418Y-59798581D01*
X147325000Y-57315000D01*
X157325000Y-57315000D01*
X157325000Y-71315000D01*
G37*
%TD.AperFunction*%
%TD*%
%TA.AperFunction,Conductor*%
%TO.N,B5*%
G36*
X168847145Y-59334685D02*
G01*
X168859489Y-59343741D01*
X169980383Y-60277819D01*
X170019282Y-60335858D01*
X170025000Y-60373078D01*
X170025000Y-74256921D01*
X170005315Y-74323960D01*
X169980383Y-74352180D01*
X169332883Y-74891764D01*
X169268780Y-74919560D01*
X169199826Y-74908286D01*
X169147913Y-74861523D01*
X169129500Y-74796505D01*
X169129500Y-73070008D01*
X169146112Y-73008009D01*
X169191712Y-72929029D01*
X169229500Y-72788001D01*
X169229500Y-72641999D01*
X169191712Y-72500971D01*
X169118711Y-72374529D01*
X169015471Y-72271289D01*
X169015470Y-72271288D01*
X169015467Y-72271286D01*
X168889031Y-72198289D01*
X168889030Y-72198288D01*
X168889029Y-72198288D01*
X168748001Y-72160500D01*
X168601999Y-72160500D01*
X168460971Y-72198288D01*
X168460968Y-72198289D01*
X168334532Y-72271286D01*
X168334527Y-72271290D01*
X168231290Y-72374527D01*
X168231286Y-72374532D01*
X168158289Y-72500968D01*
X168158288Y-72500971D01*
X168120500Y-72641999D01*
X168120500Y-72788000D01*
X168158288Y-72929028D01*
X168158289Y-72929031D01*
X168231286Y-73055467D01*
X168231288Y-73055470D01*
X168231289Y-73055471D01*
X168334529Y-73158711D01*
X168358498Y-73172549D01*
X168406714Y-73223114D01*
X168420500Y-73279937D01*
X168420500Y-75191000D01*
X168400815Y-75258039D01*
X168348011Y-75303794D01*
X168296500Y-75315000D01*
X159376362Y-75315000D01*
X159309323Y-75295315D01*
X159288681Y-75278681D01*
X157861319Y-73851319D01*
X157827834Y-73789996D01*
X157825000Y-73763638D01*
X157825000Y-64366362D01*
X157844685Y-64299323D01*
X157861319Y-64278681D01*
X162788681Y-59351319D01*
X162850004Y-59317834D01*
X162876362Y-59315000D01*
X168780106Y-59315000D01*
X168847145Y-59334685D01*
G37*
%TD.AperFunction*%
%TD*%
%TA.AperFunction,Conductor*%
%TO.N,O-*%
G36*
X137618039Y-63734685D02*
G01*
X137663794Y-63787489D01*
X137675000Y-63839000D01*
X137675000Y-68191000D01*
X137655315Y-68258039D01*
X137602511Y-68303794D01*
X137551000Y-68315000D01*
X127599000Y-68315000D01*
X127531961Y-68295315D01*
X127486206Y-68242511D01*
X127475000Y-68191000D01*
X127475000Y-63839000D01*
X127494685Y-63771961D01*
X127547489Y-63726206D01*
X127599000Y-63715000D01*
X137551000Y-63715000D01*
X137618039Y-63734685D01*
G37*
%TD.AperFunction*%
%TD*%
%TA.AperFunction,Conductor*%
%TO.N,Net-(Q11-S-Pad1)*%
G36*
X142318039Y-65034685D02*
G01*
X142363794Y-65087489D01*
X142375000Y-65139000D01*
X142375000Y-73641000D01*
X142355315Y-73708039D01*
X142302511Y-73753794D01*
X142251000Y-73765000D01*
X138599000Y-73765000D01*
X138531961Y-73745315D01*
X138486206Y-73692511D01*
X138475000Y-73641000D01*
X138475000Y-65139000D01*
X138494685Y-65071961D01*
X138547489Y-65026206D01*
X138599000Y-65015000D01*
X142251000Y-65015000D01*
X142318039Y-65034685D01*
G37*
%TD.AperFunction*%
%TD*%
%TA.AperFunction,Conductor*%
%TO.N,B6*%
G36*
X142086261Y-137519685D02*
G01*
X142096376Y-137526927D01*
X144453158Y-139400267D01*
X144493390Y-139457390D01*
X144500000Y-139497336D01*
X144500000Y-146698638D01*
X144480315Y-146765677D01*
X144463681Y-146786319D01*
X141286319Y-149963681D01*
X141224996Y-149997166D01*
X141198638Y-150000000D01*
X126801362Y-150000000D01*
X126734323Y-149980315D01*
X126713681Y-149963681D01*
X123536319Y-146786319D01*
X123502834Y-146724996D01*
X123500000Y-146698638D01*
X123500000Y-139497336D01*
X123519685Y-139430297D01*
X123546840Y-139400268D01*
X125903620Y-137526929D01*
X125968348Y-137500625D01*
X125980778Y-137500000D01*
X142019222Y-137500000D01*
X142086261Y-137519685D01*
G37*
%TD.AperFunction*%
%TD*%
%TA.AperFunction,Conductor*%
%TO.N,BSET*%
G36*
X127566138Y-42540462D02*
G01*
X127620676Y-42595000D01*
X127640638Y-42669500D01*
X127639081Y-42690984D01*
X127629500Y-42756733D01*
X127629500Y-49984572D01*
X127609538Y-50059072D01*
X127585859Y-50089931D01*
X124581701Y-53094088D01*
X124477677Y-53249770D01*
X124477674Y-53249774D01*
X124435705Y-53351097D01*
X124435705Y-53351099D01*
X124406027Y-53422749D01*
X124406026Y-53422752D01*
X124369500Y-53606383D01*
X124369500Y-68513617D01*
X124381205Y-68572463D01*
X124406026Y-68697249D01*
X124406027Y-68697251D01*
X124423527Y-68739500D01*
X124477675Y-68870227D01*
X124477676Y-68870229D01*
X124477677Y-68870230D01*
X124581698Y-69025908D01*
X124581701Y-69025911D01*
X127503304Y-71947514D01*
X127541868Y-72014309D01*
X127541868Y-72091437D01*
X127503304Y-72158232D01*
X127436509Y-72196796D01*
X127359381Y-72196796D01*
X127330301Y-72185633D01*
X127234390Y-72136764D01*
X127234384Y-72136762D01*
X127234379Y-72136759D01*
X126994785Y-72058910D01*
X126745962Y-72019500D01*
X126494038Y-72019500D01*
X126286685Y-72052341D01*
X126245214Y-72058910D01*
X126145107Y-72091437D01*
X126005621Y-72136759D01*
X126005615Y-72136761D01*
X126005615Y-72136762D01*
X125781153Y-72251131D01*
X125781152Y-72251131D01*
X125577345Y-72399206D01*
X125577342Y-72399208D01*
X125399208Y-72577342D01*
X125399206Y-72577345D01*
X125251131Y-72781152D01*
X125251131Y-72781153D01*
X125136762Y-73005615D01*
X125136757Y-73005627D01*
X125069147Y-73213710D01*
X125058910Y-73245215D01*
X125019500Y-73494038D01*
X125019500Y-73745962D01*
X125058910Y-73994785D01*
X125136759Y-74234379D01*
X125233436Y-74424119D01*
X125251131Y-74458846D01*
X125251131Y-74458847D01*
X125324141Y-74559336D01*
X125399207Y-74662656D01*
X125577344Y-74840793D01*
X125781155Y-74988870D01*
X126005621Y-75103241D01*
X126245215Y-75181090D01*
X126494038Y-75220500D01*
X126494043Y-75220500D01*
X126745957Y-75220500D01*
X126745962Y-75220500D01*
X126994785Y-75181090D01*
X127234379Y-75103241D01*
X127458845Y-74988870D01*
X127662656Y-74840793D01*
X127840793Y-74662656D01*
X127988870Y-74458845D01*
X128103241Y-74234379D01*
X128181090Y-73994785D01*
X128220500Y-73745962D01*
X128220500Y-73494038D01*
X128181090Y-73245215D01*
X128103241Y-73005621D01*
X128054365Y-72909697D01*
X128038330Y-72834256D01*
X128062164Y-72760903D01*
X128119481Y-72709294D01*
X128194924Y-72693258D01*
X128268277Y-72717092D01*
X128292485Y-72736695D01*
X128725859Y-73170069D01*
X128764423Y-73236864D01*
X128769500Y-73275428D01*
X128769500Y-78313617D01*
X128774525Y-78338880D01*
X128794539Y-78439499D01*
X128806026Y-78497249D01*
X128877675Y-78670227D01*
X128877676Y-78670229D01*
X128877677Y-78670230D01*
X128981698Y-78825908D01*
X128981701Y-78825911D01*
X143300859Y-93145069D01*
X143339423Y-93211864D01*
X143344500Y-93250428D01*
X143344500Y-97851755D01*
X143324538Y-97926255D01*
X143300859Y-97957114D01*
X143155483Y-98102490D01*
X143155479Y-98102494D01*
X143155476Y-98102499D01*
X143016658Y-98293565D01*
X142964504Y-98395924D01*
X142909432Y-98504008D01*
X142836447Y-98728632D01*
X142799500Y-98961908D01*
X142799500Y-99198092D01*
X142836447Y-99431368D01*
X142909432Y-99655992D01*
X143016657Y-99866433D01*
X143155483Y-100057510D01*
X143322490Y-100224517D01*
X143513567Y-100363343D01*
X143724008Y-100470568D01*
X143948632Y-100543553D01*
X144181908Y-100580500D01*
X144181913Y-100580500D01*
X144418087Y-100580500D01*
X144418092Y-100580500D01*
X144651368Y-100543553D01*
X144875992Y-100470568D01*
X145086433Y-100363343D01*
X145277510Y-100224517D01*
X145444517Y-100057510D01*
X145583343Y-99866433D01*
X145690568Y-99655992D01*
X145763553Y-99431368D01*
X145800500Y-99198092D01*
X145800500Y-98961908D01*
X146609500Y-98961908D01*
X146609500Y-99198092D01*
X146646447Y-99431368D01*
X146719432Y-99655992D01*
X146826657Y-99866433D01*
X146965483Y-100057510D01*
X147120860Y-100212887D01*
X147159423Y-100279680D01*
X147164500Y-100318244D01*
X147164500Y-126008617D01*
X147201026Y-126192247D01*
X147201027Y-126192251D01*
X147272675Y-126365227D01*
X147272676Y-126365229D01*
X147272677Y-126365230D01*
X147376698Y-126520908D01*
X147376700Y-126520910D01*
X147376701Y-126520911D01*
X150900859Y-130045068D01*
X150939423Y-130111863D01*
X150944500Y-130150427D01*
X150944500Y-146075994D01*
X150944501Y-146076012D01*
X150952623Y-146151560D01*
X150952624Y-146151568D01*
X150952625Y-146151570D01*
X150957974Y-146176159D01*
X150963831Y-146203079D01*
X150963835Y-146203096D01*
X150981502Y-146260462D01*
X150990186Y-146274669D01*
X150996910Y-146286929D01*
X151035802Y-146366483D01*
X151118517Y-146449198D01*
X151120278Y-146450059D01*
X151142283Y-146464971D01*
X151142638Y-146464447D01*
X151151468Y-146470407D01*
X151151473Y-146470409D01*
X151151475Y-146470411D01*
X151256802Y-146521414D01*
X151323841Y-146541099D01*
X151367491Y-146547375D01*
X151423989Y-146555499D01*
X151423997Y-146555499D01*
X151424000Y-146555500D01*
X151424003Y-146555500D01*
X162575994Y-146555500D01*
X162576000Y-146555500D01*
X162651570Y-146547375D01*
X162703081Y-146536169D01*
X162760464Y-146518497D01*
X162860314Y-146457463D01*
X162913118Y-146411708D01*
X162970411Y-146348525D01*
X163021414Y-146243198D01*
X163041099Y-146176159D01*
X163050048Y-146113914D01*
X163055499Y-146076010D01*
X163055500Y-146075997D01*
X163055500Y-127124005D01*
X163055500Y-127124000D01*
X163047375Y-127048430D01*
X163036169Y-126996919D01*
X163018497Y-126939536D01*
X162957463Y-126839686D01*
X162911708Y-126786882D01*
X162848526Y-126729590D01*
X162848527Y-126729590D01*
X162848525Y-126729589D01*
X162743198Y-126678586D01*
X162743190Y-126678583D01*
X162743189Y-126678583D01*
X162676159Y-126658901D01*
X162676154Y-126658900D01*
X162576010Y-126644500D01*
X162576000Y-126644500D01*
X151424000Y-126644500D01*
X151423994Y-126644500D01*
X151423987Y-126644501D01*
X151348439Y-126652623D01*
X151348430Y-126652625D01*
X151296919Y-126663831D01*
X151296914Y-126663832D01*
X151296896Y-126663837D01*
X151239542Y-126681500D01*
X151239537Y-126681502D01*
X151139692Y-126742532D01*
X151139686Y-126742536D01*
X151086879Y-126788294D01*
X151029590Y-126851473D01*
X151029589Y-126851474D01*
X151029589Y-126851475D01*
X150978586Y-126956802D01*
X150978584Y-126956806D01*
X150978583Y-126956810D01*
X150958901Y-127023840D01*
X150958900Y-127023842D01*
X150952130Y-127070927D01*
X150921767Y-127141827D01*
X150860022Y-127188047D01*
X150783439Y-127197202D01*
X150712539Y-127166839D01*
X150699288Y-127155078D01*
X149109141Y-125564931D01*
X149070577Y-125498136D01*
X149065500Y-125459572D01*
X149065500Y-100308244D01*
X149085462Y-100233744D01*
X149109137Y-100202889D01*
X149254517Y-100057510D01*
X149393343Y-99866433D01*
X149500568Y-99655992D01*
X149573553Y-99431368D01*
X149610500Y-99198092D01*
X149610500Y-98961908D01*
X149573553Y-98728632D01*
X149500568Y-98504008D01*
X149393343Y-98293567D01*
X149254517Y-98102490D01*
X149087510Y-97935483D01*
X148896433Y-97796657D01*
X148685992Y-97689432D01*
X148461368Y-97616447D01*
X148228092Y-97579500D01*
X147991908Y-97579500D01*
X147758632Y-97616447D01*
X147564776Y-97679435D01*
X147534008Y-97689432D01*
X147534002Y-97689434D01*
X147534002Y-97689435D01*
X147323565Y-97796658D01*
X147132499Y-97935476D01*
X147132488Y-97935485D01*
X146965485Y-98102488D01*
X146965476Y-98102499D01*
X146826658Y-98293565D01*
X146774504Y-98395924D01*
X146719432Y-98504008D01*
X146646447Y-98728632D01*
X146609500Y-98961908D01*
X145800500Y-98961908D01*
X145763553Y-98728632D01*
X145690568Y-98504008D01*
X145583343Y-98293567D01*
X145444517Y-98102490D01*
X145289141Y-97947114D01*
X145250577Y-97880319D01*
X145245500Y-97841755D01*
X145245500Y-92701383D01*
X145208973Y-92517750D01*
X145208973Y-92517749D01*
X145179294Y-92446099D01*
X145137323Y-92344770D01*
X145033302Y-92189092D01*
X134664525Y-81820315D01*
X134625961Y-81753520D01*
X134625961Y-81676392D01*
X134664525Y-81609597D01*
X134731320Y-81571033D01*
X134808448Y-81571033D01*
X134819205Y-81574686D01*
X134819274Y-81574484D01*
X134823891Y-81576050D01*
X134823900Y-81576054D01*
X135058211Y-81638838D01*
X135058217Y-81638838D01*
X135058218Y-81638839D01*
X135123600Y-81647446D01*
X135298712Y-81670500D01*
X135541288Y-81670500D01*
X135781789Y-81638838D01*
X135787689Y-81637257D01*
X135864815Y-81637257D01*
X135931610Y-81675821D01*
X135931611Y-81675821D01*
X137014092Y-82758302D01*
X137169770Y-82862323D01*
X137271099Y-82904294D01*
X137342749Y-82933973D01*
X137434566Y-82952236D01*
X137526383Y-82970500D01*
X137526384Y-82970500D01*
X147064572Y-82970500D01*
X147139072Y-82990462D01*
X147169931Y-83014141D01*
X161647079Y-97491289D01*
X161685643Y-97558084D01*
X161685643Y-97635212D01*
X161647079Y-97702007D01*
X161580284Y-97740571D01*
X161503156Y-97740571D01*
X161474075Y-97729408D01*
X161375992Y-97679432D01*
X161151368Y-97606447D01*
X160918092Y-97569500D01*
X160681908Y-97569500D01*
X160448632Y-97606447D01*
X160224008Y-97679432D01*
X160224002Y-97679434D01*
X160224002Y-97679435D01*
X160013565Y-97786658D01*
X159822499Y-97925476D01*
X159822488Y-97925485D01*
X159655485Y-98092488D01*
X159655476Y-98092499D01*
X159516658Y-98283565D01*
X159516657Y-98283567D01*
X159409432Y-98494008D01*
X159336447Y-98718632D01*
X159299500Y-98951908D01*
X159299500Y-99188092D01*
X159336447Y-99421368D01*
X159409432Y-99645992D01*
X159516657Y-99856433D01*
X159655483Y-100047510D01*
X159822490Y-100214517D01*
X160013567Y-100353343D01*
X160224008Y-100460568D01*
X160448632Y-100533553D01*
X160681908Y-100570500D01*
X160681913Y-100570500D01*
X160918087Y-100570500D01*
X160918092Y-100570500D01*
X161151368Y-100533553D01*
X161375992Y-100460568D01*
X161586433Y-100353343D01*
X161777510Y-100214517D01*
X161944517Y-100047510D01*
X162083343Y-99856433D01*
X162190568Y-99645992D01*
X162263553Y-99421368D01*
X162300500Y-99188092D01*
X162300500Y-98951908D01*
X162263553Y-98718632D01*
X162190568Y-98494008D01*
X162140590Y-98395921D01*
X162124555Y-98320482D01*
X162148389Y-98247128D01*
X162205706Y-98195519D01*
X162281148Y-98179483D01*
X162354502Y-98203317D01*
X162378710Y-98222920D01*
X163065859Y-98910069D01*
X163104423Y-98976864D01*
X163109500Y-99015428D01*
X163109500Y-99188092D01*
X163146447Y-99421368D01*
X163219432Y-99645992D01*
X163326657Y-99856433D01*
X163465483Y-100047510D01*
X163632490Y-100214517D01*
X163823567Y-100353343D01*
X164034008Y-100460568D01*
X164258632Y-100533553D01*
X164491908Y-100570500D01*
X164491913Y-100570500D01*
X164728087Y-100570500D01*
X164728092Y-100570500D01*
X164961368Y-100533553D01*
X165185992Y-100460568D01*
X165396433Y-100353343D01*
X165587510Y-100214517D01*
X165754517Y-100047510D01*
X165893343Y-99856433D01*
X166000568Y-99645992D01*
X166073553Y-99421368D01*
X166110500Y-99188092D01*
X166110500Y-98951908D01*
X166919500Y-98951908D01*
X166919500Y-99188092D01*
X166956447Y-99421368D01*
X167029432Y-99645992D01*
X167136657Y-99856433D01*
X167275483Y-100047510D01*
X167442490Y-100214517D01*
X167633567Y-100353343D01*
X167844008Y-100460568D01*
X168068632Y-100533553D01*
X168301908Y-100570500D01*
X168301913Y-100570500D01*
X168538087Y-100570500D01*
X168538092Y-100570500D01*
X168771368Y-100533553D01*
X168995992Y-100460568D01*
X169206433Y-100353343D01*
X169397510Y-100214517D01*
X169564517Y-100047510D01*
X169703343Y-99856433D01*
X169810568Y-99645992D01*
X169883553Y-99421368D01*
X169920500Y-99188092D01*
X169920500Y-98951908D01*
X169883553Y-98718632D01*
X169810568Y-98494008D01*
X169703343Y-98283567D01*
X169564517Y-98092490D01*
X169397510Y-97925483D01*
X169206433Y-97786657D01*
X168995992Y-97679432D01*
X168771368Y-97606447D01*
X168538092Y-97569500D01*
X168301908Y-97569500D01*
X168068632Y-97606447D01*
X167844008Y-97679432D01*
X167844002Y-97679434D01*
X167844002Y-97679435D01*
X167633565Y-97786658D01*
X167442499Y-97925476D01*
X167442488Y-97925485D01*
X167275485Y-98092488D01*
X167275476Y-98092499D01*
X167136658Y-98283565D01*
X167136657Y-98283567D01*
X167029432Y-98494008D01*
X166956447Y-98718632D01*
X166919500Y-98951908D01*
X166110500Y-98951908D01*
X166073553Y-98718632D01*
X166000568Y-98494008D01*
X165893343Y-98283567D01*
X165754517Y-98092490D01*
X165587510Y-97925483D01*
X165396433Y-97786657D01*
X165185992Y-97679432D01*
X164961368Y-97606447D01*
X164728092Y-97569500D01*
X164491908Y-97569500D01*
X164491894Y-97569500D01*
X164487872Y-97569816D01*
X164486168Y-97569500D01*
X164486054Y-97569500D01*
X164486054Y-97569478D01*
X164412037Y-97555750D01*
X164370843Y-97526633D01*
X148125911Y-81281701D01*
X148125908Y-81281698D01*
X147970230Y-81177677D01*
X147970227Y-81177676D01*
X147970225Y-81177674D01*
X147868902Y-81135705D01*
X147868901Y-81135705D01*
X147797251Y-81106027D01*
X147797247Y-81106026D01*
X147750722Y-81096771D01*
X147705433Y-81087763D01*
X147705432Y-81087762D01*
X147613617Y-81069500D01*
X147613616Y-81069500D01*
X138075428Y-81069500D01*
X138000928Y-81049538D01*
X137970069Y-81025859D01*
X137275821Y-80331611D01*
X137237257Y-80264816D01*
X137237257Y-80187689D01*
X137238838Y-80181789D01*
X137270500Y-79941288D01*
X137270500Y-79698712D01*
X137238922Y-79458846D01*
X137238839Y-79458218D01*
X137238838Y-79458217D01*
X137238838Y-79458211D01*
X137176054Y-79223900D01*
X137083224Y-78999788D01*
X136961936Y-78789711D01*
X136814265Y-78597262D01*
X136642738Y-78425735D01*
X136450289Y-78278064D01*
X136355134Y-78223126D01*
X136240216Y-78156778D01*
X136240214Y-78156777D01*
X136240212Y-78156776D01*
X136031382Y-78070276D01*
X136016103Y-78063947D01*
X136016101Y-78063946D01*
X136016100Y-78063946D01*
X135781789Y-78001162D01*
X135781787Y-78001161D01*
X135781781Y-78001160D01*
X135541293Y-77969500D01*
X135541288Y-77969500D01*
X135298712Y-77969500D01*
X135298706Y-77969500D01*
X135058218Y-78001160D01*
X134823896Y-78063947D01*
X134599783Y-78156778D01*
X134389712Y-78278063D01*
X134366920Y-78295552D01*
X134197262Y-78425735D01*
X134197260Y-78425736D01*
X134197256Y-78425740D01*
X134025740Y-78597256D01*
X133878063Y-78789712D01*
X133756778Y-78999783D01*
X133663947Y-79223896D01*
X133601160Y-79458218D01*
X133569500Y-79698706D01*
X133569500Y-79941293D01*
X133601160Y-80181781D01*
X133601161Y-80181787D01*
X133601162Y-80181789D01*
X133651459Y-80369500D01*
X133663948Y-80416106D01*
X133665516Y-80420726D01*
X133663785Y-80421313D01*
X133672767Y-80489576D01*
X133643245Y-80560830D01*
X133582051Y-80607778D01*
X133505582Y-80617839D01*
X133434328Y-80588317D01*
X133419684Y-80575474D01*
X130714141Y-77869931D01*
X130675577Y-77803136D01*
X130670500Y-77764572D01*
X130670500Y-72726383D01*
X130658324Y-72665172D01*
X130633973Y-72542749D01*
X130601561Y-72464500D01*
X130574516Y-72399208D01*
X130562324Y-72369772D01*
X130562323Y-72369770D01*
X130458302Y-72214092D01*
X126314141Y-68069931D01*
X126275577Y-68003136D01*
X126270500Y-67964572D01*
X126270500Y-63838989D01*
X127119500Y-63838989D01*
X127119500Y-68190994D01*
X127119501Y-68191012D01*
X127127623Y-68266560D01*
X127127624Y-68266568D01*
X127127625Y-68266570D01*
X127132974Y-68291159D01*
X127138831Y-68318079D01*
X127138837Y-68318103D01*
X127156500Y-68375457D01*
X127156502Y-68375462D01*
X127217532Y-68475307D01*
X127217536Y-68475313D01*
X127217537Y-68475314D01*
X127249041Y-68511672D01*
X127263294Y-68528120D01*
X127326473Y-68585409D01*
X127326475Y-68585411D01*
X127431802Y-68636414D01*
X127498841Y-68656099D01*
X127542491Y-68662375D01*
X127598989Y-68670499D01*
X127598997Y-68670499D01*
X127599000Y-68670500D01*
X127599003Y-68670500D01*
X137550994Y-68670500D01*
X137551000Y-68670500D01*
X137626570Y-68662375D01*
X137678081Y-68651169D01*
X137735464Y-68633497D01*
X137835314Y-68572463D01*
X137872927Y-68539870D01*
X137942300Y-68506171D01*
X138019232Y-68511672D01*
X138083106Y-68554903D01*
X138116807Y-68624278D01*
X138119500Y-68652478D01*
X138119500Y-73640994D01*
X138119501Y-73641012D01*
X138127623Y-73716560D01*
X138127624Y-73716568D01*
X138127625Y-73716570D01*
X138137864Y-73763638D01*
X138138831Y-73768079D01*
X138138837Y-73768103D01*
X138156500Y-73825457D01*
X138156502Y-73825462D01*
X138217532Y-73925307D01*
X138217536Y-73925313D01*
X138217537Y-73925314D01*
X138247912Y-73960369D01*
X138263294Y-73978120D01*
X138326473Y-74035409D01*
X138326475Y-74035411D01*
X138431802Y-74086414D01*
X138498841Y-74106099D01*
X138542491Y-74112375D01*
X138598989Y-74120499D01*
X138598997Y-74120499D01*
X138599000Y-74120500D01*
X138599003Y-74120500D01*
X142250994Y-74120500D01*
X142251000Y-74120500D01*
X142326570Y-74112375D01*
X142378081Y-74101169D01*
X142435464Y-74083497D01*
X142535314Y-74022463D01*
X142588118Y-73976708D01*
X142645411Y-73913525D01*
X142696414Y-73808198D01*
X142716099Y-73741159D01*
X142725048Y-73678914D01*
X142730499Y-73641010D01*
X142730500Y-73640997D01*
X142730500Y-65139005D01*
X142730500Y-65139000D01*
X142722375Y-65063430D01*
X142711169Y-65011919D01*
X142693497Y-64954536D01*
X142632463Y-64854686D01*
X142586708Y-64801882D01*
X142523526Y-64744590D01*
X142523527Y-64744590D01*
X142523525Y-64744589D01*
X142418198Y-64693586D01*
X142418190Y-64693583D01*
X142418189Y-64693583D01*
X142351159Y-64673901D01*
X142351154Y-64673900D01*
X142251010Y-64659500D01*
X142251000Y-64659500D01*
X140989032Y-64659500D01*
X140914532Y-64639538D01*
X140883673Y-64615859D01*
X138419141Y-62151327D01*
X138380577Y-62084532D01*
X138375500Y-62045968D01*
X138375500Y-61251140D01*
X138375500Y-61249108D01*
X138374877Y-61246784D01*
X138341392Y-61121814D01*
X138323667Y-61091113D01*
X138284490Y-61023257D01*
X138280514Y-61013301D01*
X138279548Y-61005172D01*
X138272750Y-60987108D01*
X138250501Y-60875256D01*
X138250500Y-60875254D01*
X138201468Y-60756880D01*
X138201467Y-60756879D01*
X138201465Y-60756873D01*
X138130276Y-60650331D01*
X138039669Y-60559724D01*
X137933127Y-60488535D01*
X137933123Y-60488533D01*
X137933119Y-60488531D01*
X137814745Y-60439499D01*
X137814743Y-60439498D01*
X137689072Y-60414500D01*
X137689069Y-60414500D01*
X137560931Y-60414500D01*
X137560927Y-60414500D01*
X137435256Y-60439498D01*
X137435254Y-60439499D01*
X137316880Y-60488531D01*
X137316873Y-60488535D01*
X137248112Y-60534480D01*
X137210327Y-60559727D01*
X137119727Y-60650327D01*
X137048535Y-60756873D01*
X137048531Y-60756880D01*
X136999499Y-60875254D01*
X136999498Y-60875256D01*
X136974500Y-61000927D01*
X136974500Y-61129072D01*
X136999498Y-61254743D01*
X136999499Y-61254745D01*
X137048531Y-61373119D01*
X137048533Y-61373123D01*
X137048535Y-61373127D01*
X137119724Y-61479669D01*
X137210331Y-61570276D01*
X137308280Y-61635723D01*
X137359134Y-61693711D01*
X137374500Y-61759612D01*
X137374500Y-62249108D01*
X137374500Y-62380892D01*
X137408608Y-62508186D01*
X137408609Y-62508187D01*
X137474497Y-62622310D01*
X137474498Y-62622311D01*
X137474500Y-62622314D01*
X138406872Y-63554686D01*
X139257327Y-64405141D01*
X139295891Y-64471936D01*
X139295891Y-64549064D01*
X139257327Y-64615859D01*
X139190532Y-64654423D01*
X139151968Y-64659500D01*
X138599000Y-64659500D01*
X138598994Y-64659500D01*
X138598987Y-64659501D01*
X138523439Y-64667623D01*
X138523430Y-64667625D01*
X138471919Y-64678831D01*
X138471914Y-64678832D01*
X138471896Y-64678837D01*
X138414542Y-64696500D01*
X138414537Y-64696502D01*
X138314692Y-64757532D01*
X138314686Y-64757537D01*
X138277074Y-64790128D01*
X138207698Y-64823828D01*
X138130766Y-64818326D01*
X138066893Y-64775095D01*
X138033193Y-64705719D01*
X138030500Y-64677521D01*
X138030500Y-63839005D01*
X138030500Y-63839000D01*
X138022375Y-63763430D01*
X138011169Y-63711919D01*
X137993497Y-63654536D01*
X137932463Y-63554686D01*
X137886708Y-63501882D01*
X137823526Y-63444590D01*
X137823527Y-63444590D01*
X137823525Y-63444589D01*
X137718198Y-63393586D01*
X137718190Y-63393583D01*
X137718189Y-63393583D01*
X137651159Y-63373901D01*
X137651154Y-63373900D01*
X137551010Y-63359500D01*
X137551000Y-63359500D01*
X127599000Y-63359500D01*
X127598994Y-63359500D01*
X127598987Y-63359501D01*
X127523439Y-63367623D01*
X127523430Y-63367625D01*
X127471919Y-63378831D01*
X127471914Y-63378832D01*
X127471896Y-63378837D01*
X127414542Y-63396500D01*
X127414537Y-63396502D01*
X127314692Y-63457532D01*
X127314686Y-63457536D01*
X127261879Y-63503294D01*
X127204590Y-63566473D01*
X127204589Y-63566474D01*
X127204589Y-63566475D01*
X127153586Y-63671802D01*
X127153584Y-63671806D01*
X127153583Y-63671810D01*
X127133901Y-63738840D01*
X127133900Y-63738845D01*
X127119500Y-63838989D01*
X126270500Y-63838989D01*
X126270500Y-59685941D01*
X143324500Y-59685941D01*
X143324500Y-59685943D01*
X143324500Y-59844057D01*
X143365423Y-59996784D01*
X143444480Y-60133716D01*
X143556284Y-60245520D01*
X143693216Y-60324577D01*
X143768778Y-60344823D01*
X143835573Y-60383387D01*
X144046093Y-60593907D01*
X143325000Y-61315000D01*
X143325000Y-71315000D01*
X143325000Y-79315000D01*
X144325000Y-80315000D01*
X146325000Y-80315000D01*
X146325000Y-75850927D01*
X147674500Y-75850927D01*
X147674500Y-75979072D01*
X147699498Y-76104743D01*
X147699499Y-76104745D01*
X147748531Y-76223119D01*
X147748533Y-76223123D01*
X147748535Y-76223127D01*
X147819724Y-76329669D01*
X147910331Y-76420276D01*
X148016873Y-76491465D01*
X148135256Y-76540501D01*
X148260931Y-76565500D01*
X148260935Y-76565500D01*
X148356968Y-76565500D01*
X148375916Y-76570577D01*
X148395533Y-76570577D01*
X148412520Y-76580385D01*
X148431468Y-76585462D01*
X148445339Y-76599333D01*
X148462328Y-76609142D01*
X148472135Y-76626129D01*
X148486006Y-76640000D01*
X148491083Y-76658949D01*
X148500891Y-76675937D01*
X148500891Y-76695552D01*
X148505968Y-76714500D01*
X148500891Y-76733447D01*
X148500891Y-76753065D01*
X148491082Y-76770052D01*
X148486006Y-76789000D01*
X148462326Y-76819860D01*
X148401322Y-76880863D01*
X148334527Y-76919426D01*
X148325034Y-76921640D01*
X148235255Y-76939499D01*
X148235254Y-76939499D01*
X148116880Y-76988531D01*
X148116873Y-76988535D01*
X148011550Y-77058910D01*
X148010327Y-77059727D01*
X147919727Y-77150327D01*
X147919724Y-77150330D01*
X147919724Y-77150331D01*
X147883366Y-77204745D01*
X147848535Y-77256873D01*
X147848531Y-77256880D01*
X147799499Y-77375254D01*
X147799498Y-77375256D01*
X147774500Y-77500927D01*
X147774500Y-77629072D01*
X147799498Y-77754743D01*
X147799499Y-77754745D01*
X147848531Y-77873119D01*
X147848533Y-77873123D01*
X147848535Y-77873127D01*
X147919724Y-77979669D01*
X148010331Y-78070276D01*
X148116873Y-78141465D01*
X148116875Y-78141466D01*
X148116877Y-78141467D01*
X148203487Y-78177342D01*
X148264677Y-78224295D01*
X148294192Y-78295552D01*
X148284125Y-78372020D01*
X148237172Y-78433210D01*
X148203487Y-78452658D01*
X148116877Y-78488532D01*
X148116873Y-78488535D01*
X148010782Y-78559423D01*
X148010327Y-78559727D01*
X147919727Y-78650327D01*
X147919724Y-78650330D01*
X147919724Y-78650331D01*
X147848535Y-78756873D01*
X147848531Y-78756880D01*
X147799499Y-78875254D01*
X147799498Y-78875256D01*
X147774500Y-79000927D01*
X147774500Y-79129072D01*
X147799498Y-79254743D01*
X147799499Y-79254745D01*
X147848531Y-79373119D01*
X147848533Y-79373123D01*
X147848535Y-79373127D01*
X147919724Y-79479669D01*
X148010331Y-79570276D01*
X148116873Y-79641465D01*
X148235256Y-79690501D01*
X148360931Y-79715500D01*
X148360935Y-79715500D01*
X148489065Y-79715500D01*
X148489069Y-79715500D01*
X148614744Y-79690501D01*
X148733127Y-79641465D01*
X148809234Y-79590612D01*
X148882269Y-79565819D01*
X148892015Y-79565500D01*
X149580892Y-79565500D01*
X149708186Y-79531392D01*
X149822314Y-79465500D01*
X151688678Y-77599135D01*
X151755471Y-77560573D01*
X151764952Y-77558362D01*
X151854744Y-77540501D01*
X151973127Y-77491465D01*
X152079669Y-77420276D01*
X152170276Y-77329669D01*
X152241465Y-77223127D01*
X152290501Y-77104744D01*
X152315500Y-76979069D01*
X152315500Y-76850931D01*
X152310393Y-76825256D01*
X152304090Y-76793568D01*
X152305058Y-76778797D01*
X152301227Y-76764500D01*
X152307538Y-76740943D01*
X152309134Y-76716606D01*
X152317357Y-76704297D01*
X152321189Y-76690000D01*
X152338434Y-76672754D01*
X152351984Y-76652476D01*
X152365259Y-76645929D01*
X152375727Y-76635462D01*
X152399286Y-76629149D01*
X152421159Y-76618363D01*
X152450227Y-76615500D01*
X152698127Y-76615500D01*
X152772627Y-76635462D01*
X152803486Y-76659141D01*
X153990861Y-77846516D01*
X154029425Y-77913311D01*
X154031639Y-77922805D01*
X154049498Y-78012584D01*
X154049498Y-78012585D01*
X154098530Y-78130959D01*
X154098532Y-78130963D01*
X154098534Y-78130967D01*
X154169723Y-78237509D01*
X154260330Y-78328116D01*
X154366872Y-78399305D01*
X154485255Y-78448341D01*
X154610930Y-78473340D01*
X154610934Y-78473340D01*
X154739064Y-78473340D01*
X154739068Y-78473340D01*
X154864743Y-78448341D01*
X154983126Y-78399305D01*
X155089668Y-78328116D01*
X155180275Y-78237509D01*
X155251464Y-78130967D01*
X155300500Y-78012584D01*
X155325499Y-77886909D01*
X155325499Y-77758771D01*
X155300500Y-77633096D01*
X155251464Y-77514713D01*
X155180275Y-77408171D01*
X155089668Y-77317564D01*
X154983126Y-77246375D01*
X154983122Y-77246373D01*
X154983118Y-77246371D01*
X154864744Y-77197339D01*
X154774964Y-77179480D01*
X154705790Y-77145366D01*
X154698675Y-77138702D01*
X153779832Y-76219859D01*
X153741268Y-76153064D01*
X153741268Y-76075936D01*
X153779832Y-76009141D01*
X153846627Y-75970577D01*
X153885191Y-75965500D01*
X155155968Y-75965500D01*
X155230468Y-75985462D01*
X155261327Y-76009141D01*
X156290862Y-77038676D01*
X156329426Y-77105471D01*
X156331640Y-77114965D01*
X156349499Y-77204744D01*
X156349499Y-77204745D01*
X156398531Y-77323119D01*
X156398533Y-77323123D01*
X156398535Y-77323127D01*
X156469724Y-77429669D01*
X156560331Y-77520276D01*
X156666873Y-77591465D01*
X156785256Y-77640501D01*
X156910931Y-77665500D01*
X156910935Y-77665500D01*
X157039065Y-77665500D01*
X157039069Y-77665500D01*
X157164744Y-77640501D01*
X157283127Y-77591465D01*
X157389669Y-77520276D01*
X157480276Y-77429669D01*
X157551465Y-77323127D01*
X157600501Y-77204744D01*
X157625500Y-77079069D01*
X157625500Y-76950931D01*
X157600501Y-76825256D01*
X157554624Y-76714500D01*
X157551468Y-76706880D01*
X157551467Y-76706879D01*
X157551465Y-76706873D01*
X157480276Y-76600331D01*
X157389669Y-76509724D01*
X157283127Y-76438535D01*
X157283123Y-76438533D01*
X157283119Y-76438531D01*
X157164745Y-76389499D01*
X157074965Y-76371640D01*
X157005791Y-76337526D01*
X156998676Y-76330862D01*
X156366422Y-75698608D01*
X155732314Y-75064500D01*
X155732311Y-75064498D01*
X155732310Y-75064497D01*
X155661514Y-75023623D01*
X155618186Y-74998608D01*
X155490892Y-74964500D01*
X148840892Y-74964500D01*
X148709107Y-74964500D01*
X148581810Y-74998609D01*
X148467689Y-75064497D01*
X148467687Y-75064499D01*
X148301322Y-75230863D01*
X148234527Y-75269426D01*
X148225034Y-75271640D01*
X148135255Y-75289499D01*
X148135254Y-75289499D01*
X148016880Y-75338531D01*
X148016873Y-75338535D01*
X147910327Y-75409727D01*
X147819727Y-75500327D01*
X147748535Y-75606873D01*
X147748531Y-75606880D01*
X147699499Y-75725254D01*
X147699498Y-75725256D01*
X147674500Y-75850927D01*
X146325000Y-75850927D01*
X146325000Y-74315000D01*
X148325000Y-72315000D01*
X156325000Y-72315000D01*
X157325000Y-71315000D01*
X157325000Y-64366351D01*
X157469500Y-64366351D01*
X157469500Y-64366362D01*
X157469500Y-72688801D01*
X157469500Y-73763638D01*
X157471380Y-73798718D01*
X157471537Y-73801643D01*
X157474369Y-73827988D01*
X157477405Y-73849829D01*
X157477405Y-73849830D01*
X157515820Y-73960372D01*
X157549298Y-74021682D01*
X157549300Y-74021686D01*
X157549304Y-74021692D01*
X157609943Y-74102695D01*
X159037305Y-75530057D01*
X159065619Y-75555491D01*
X159086261Y-75572125D01*
X159086275Y-75572135D01*
X159086278Y-75572138D01*
X159103835Y-75585410D01*
X159103837Y-75585411D01*
X159209164Y-75636414D01*
X159209166Y-75636414D01*
X159209169Y-75636416D01*
X159237960Y-75644869D01*
X159276203Y-75656099D01*
X159325998Y-75663258D01*
X159376351Y-75670499D01*
X159376359Y-75670499D01*
X159376362Y-75670500D01*
X165001969Y-75670500D01*
X165076469Y-75690462D01*
X165131007Y-75745000D01*
X165150969Y-75819500D01*
X165131007Y-75894000D01*
X165107331Y-75924854D01*
X164812327Y-76219859D01*
X164001323Y-77030862D01*
X163934528Y-77069426D01*
X163925034Y-77071640D01*
X163835255Y-77089499D01*
X163835254Y-77089499D01*
X163716880Y-77138531D01*
X163716873Y-77138535D01*
X163617785Y-77204744D01*
X163610327Y-77209727D01*
X163519727Y-77300327D01*
X163519724Y-77300330D01*
X163519724Y-77300331D01*
X163504498Y-77323119D01*
X163448535Y-77406873D01*
X163448531Y-77406880D01*
X163399499Y-77525254D01*
X163399498Y-77525256D01*
X163374500Y-77650927D01*
X163374500Y-77779072D01*
X163399498Y-77904743D01*
X163399499Y-77904745D01*
X163448531Y-78023119D01*
X163448533Y-78023123D01*
X163448535Y-78023127D01*
X163519724Y-78129669D01*
X163610331Y-78220276D01*
X163716873Y-78291465D01*
X163835256Y-78340501D01*
X163960931Y-78365500D01*
X163960935Y-78365500D01*
X164089065Y-78365500D01*
X164089069Y-78365500D01*
X164214744Y-78340501D01*
X164333127Y-78291465D01*
X164439669Y-78220276D01*
X164530276Y-78129669D01*
X164601465Y-78023127D01*
X164650501Y-77904744D01*
X164668359Y-77814964D01*
X164702472Y-77745792D01*
X164709122Y-77738691D01*
X165738673Y-76709141D01*
X165805468Y-76670577D01*
X165844032Y-76665500D01*
X166807985Y-76665500D01*
X166882485Y-76685462D01*
X166890766Y-76690612D01*
X166966865Y-76741460D01*
X166966867Y-76741461D01*
X166966873Y-76741465D01*
X167085256Y-76790501D01*
X167210931Y-76815500D01*
X167210935Y-76815500D01*
X167339065Y-76815500D01*
X167339069Y-76815500D01*
X167464744Y-76790501D01*
X167583127Y-76741465D01*
X167689669Y-76670276D01*
X167780276Y-76579669D01*
X167851465Y-76473127D01*
X167900501Y-76354744D01*
X167925500Y-76229069D01*
X167925500Y-76100931D01*
X167900501Y-75975256D01*
X167859602Y-75876519D01*
X167849536Y-75800051D01*
X167879051Y-75728794D01*
X167940241Y-75681842D01*
X167997261Y-75670500D01*
X168175500Y-75670500D01*
X168250000Y-75690462D01*
X168304538Y-75745000D01*
X168324500Y-75819500D01*
X168324500Y-77383837D01*
X168304538Y-77458337D01*
X168280859Y-77489196D01*
X168269727Y-77500327D01*
X168269724Y-77500330D01*
X168269724Y-77500331D01*
X168230951Y-77558359D01*
X168198535Y-77606873D01*
X168198531Y-77606880D01*
X168149499Y-77725254D01*
X168149498Y-77725256D01*
X168124500Y-77850927D01*
X168124500Y-77979072D01*
X168149498Y-78104743D01*
X168149499Y-78104745D01*
X168198531Y-78223119D01*
X168198533Y-78223123D01*
X168198535Y-78223127D01*
X168269724Y-78329669D01*
X168360331Y-78420276D01*
X168466873Y-78491465D01*
X168585256Y-78540501D01*
X168710931Y-78565500D01*
X168710935Y-78565500D01*
X168839065Y-78565500D01*
X168839069Y-78565500D01*
X168964744Y-78540501D01*
X169083127Y-78491465D01*
X169189669Y-78420276D01*
X169280276Y-78329669D01*
X169351465Y-78223127D01*
X169400501Y-78104744D01*
X169425500Y-77979069D01*
X169425500Y-77850931D01*
X169400501Y-77725256D01*
X169351465Y-77606873D01*
X169280276Y-77500331D01*
X169269141Y-77489196D01*
X169230577Y-77422401D01*
X169225500Y-77383837D01*
X169225500Y-75408140D01*
X169245462Y-75333640D01*
X169300000Y-75279102D01*
X169338529Y-75263547D01*
X169410207Y-75245718D01*
X169474310Y-75217922D01*
X169560469Y-75164867D01*
X169949360Y-74840791D01*
X170207960Y-74625291D01*
X170207963Y-74625287D01*
X170207969Y-74625283D01*
X170246800Y-74587556D01*
X170271732Y-74559336D01*
X170295411Y-74529446D01*
X170346414Y-74424119D01*
X170366099Y-74357080D01*
X170380500Y-74256921D01*
X170380500Y-60373078D01*
X170380500Y-60373068D01*
X170376379Y-60319112D01*
X170376378Y-60319103D01*
X170376378Y-60319097D01*
X170370660Y-60281877D01*
X170362855Y-60244546D01*
X170314590Y-60137936D01*
X170314588Y-60137933D01*
X170314586Y-60137929D01*
X170275697Y-60079904D01*
X170275691Y-60079897D01*
X170207969Y-60004716D01*
X169087075Y-59070638D01*
X169069775Y-59057105D01*
X169057431Y-59048049D01*
X169057393Y-59048021D01*
X169052636Y-59044592D01*
X169052633Y-59044590D01*
X169052631Y-59044589D01*
X168947304Y-58993586D01*
X168947296Y-58993583D01*
X168947295Y-58993583D01*
X168880265Y-58973901D01*
X168880260Y-58973900D01*
X168780116Y-58959500D01*
X168780106Y-58959500D01*
X162876362Y-58959500D01*
X162843787Y-58961246D01*
X162838356Y-58961537D01*
X162812011Y-58964369D01*
X162790170Y-58967405D01*
X162790169Y-58967405D01*
X162679627Y-59005820D01*
X162618317Y-59039298D01*
X162618305Y-59039306D01*
X162537308Y-59099940D01*
X162537302Y-59099945D01*
X157609942Y-64027305D01*
X157584520Y-64055606D01*
X157584511Y-64055617D01*
X157567861Y-64076278D01*
X157554589Y-64093835D01*
X157554588Y-64093837D01*
X157503583Y-64199169D01*
X157483901Y-64266202D01*
X157483900Y-64266207D01*
X157469500Y-64366351D01*
X157325000Y-64366351D01*
X157325000Y-57315000D01*
X147325000Y-57315000D01*
X144753907Y-59886093D01*
X144543387Y-59675573D01*
X144504824Y-59608780D01*
X144484577Y-59533216D01*
X144405520Y-59396284D01*
X144293716Y-59284480D01*
X144156784Y-59205423D01*
X144004057Y-59164500D01*
X143845943Y-59164500D01*
X143693216Y-59205423D01*
X143693214Y-59205423D01*
X143693214Y-59205424D01*
X143556283Y-59284480D01*
X143444480Y-59396283D01*
X143365424Y-59533214D01*
X143324500Y-59685941D01*
X126270500Y-59685941D01*
X126270500Y-54155428D01*
X126290462Y-54080928D01*
X126314141Y-54050069D01*
X129065069Y-51299141D01*
X129131864Y-51260577D01*
X129170428Y-51255500D01*
X162475994Y-51255500D01*
X162476000Y-51255500D01*
X162551570Y-51247375D01*
X162603081Y-51236169D01*
X162660464Y-51218497D01*
X162760314Y-51157463D01*
X162813118Y-51111708D01*
X162870411Y-51048525D01*
X162921414Y-50943198D01*
X162941099Y-50876159D01*
X162955500Y-50776000D01*
X162955500Y-42724718D01*
X162951565Y-42688607D01*
X162951242Y-42685640D01*
X162963016Y-42609416D01*
X163011326Y-42549292D01*
X163083225Y-42521377D01*
X163099365Y-42520500D01*
X171170500Y-42520500D01*
X171245000Y-42540462D01*
X171299538Y-42595000D01*
X171319500Y-42669500D01*
X171319500Y-231270500D01*
X171299538Y-231345000D01*
X171245000Y-231399538D01*
X171170500Y-231419500D01*
X163088362Y-231419500D01*
X163080135Y-231417295D01*
X163071715Y-231418567D01*
X163043321Y-231407431D01*
X163013862Y-231399538D01*
X163007840Y-231393516D01*
X162999912Y-231390407D01*
X162980891Y-231366567D01*
X162959324Y-231345000D01*
X162957119Y-231336773D01*
X162951809Y-231330117D01*
X162948265Y-231303729D01*
X162939362Y-231270500D01*
X162940295Y-231253853D01*
X162940571Y-231251396D01*
X162940573Y-231251393D01*
X162950500Y-231183260D01*
X162950500Y-231163081D01*
X162951433Y-231154783D01*
X162951748Y-231153979D01*
X162952017Y-231150222D01*
X162955499Y-231126005D01*
X162955500Y-231125997D01*
X162955500Y-223950428D01*
X162975462Y-223875928D01*
X162999141Y-223845069D01*
X165258301Y-221585909D01*
X165362323Y-221430230D01*
X165433973Y-221257250D01*
X165470500Y-221073617D01*
X165470500Y-220886383D01*
X165470500Y-111561384D01*
X165433973Y-111377749D01*
X165404294Y-111306099D01*
X165362323Y-111204770D01*
X165258302Y-111049092D01*
X153464141Y-99254931D01*
X153425577Y-99188136D01*
X153420500Y-99149572D01*
X153420500Y-98961912D01*
X153420500Y-98961908D01*
X153383553Y-98728632D01*
X153310568Y-98504008D01*
X153203343Y-98293567D01*
X153064517Y-98102490D01*
X152897510Y-97935483D01*
X152830409Y-97886731D01*
X155479500Y-97886731D01*
X155479500Y-100253268D01*
X155489426Y-100321393D01*
X155489426Y-100321394D01*
X155540800Y-100426481D01*
X155623518Y-100509199D01*
X155728605Y-100560573D01*
X155796731Y-100570499D01*
X155796737Y-100570499D01*
X155796740Y-100570500D01*
X155796741Y-100570500D01*
X158163259Y-100570500D01*
X158163260Y-100570500D01*
X158163263Y-100570499D01*
X158163268Y-100570499D01*
X158231393Y-100560573D01*
X158231394Y-100560573D01*
X158336481Y-100509199D01*
X158336481Y-100509198D01*
X158336483Y-100509198D01*
X158419198Y-100426483D01*
X158470573Y-100321393D01*
X158480500Y-100253260D01*
X158480500Y-97886740D01*
X158479564Y-97880319D01*
X158470573Y-97818606D01*
X158470573Y-97818605D01*
X158419199Y-97713518D01*
X158336481Y-97630800D01*
X158231394Y-97579426D01*
X158163268Y-97569500D01*
X158163260Y-97569500D01*
X155796740Y-97569500D01*
X155796731Y-97569500D01*
X155728606Y-97579426D01*
X155728605Y-97579426D01*
X155623518Y-97630800D01*
X155540800Y-97713518D01*
X155489426Y-97818605D01*
X155489426Y-97818606D01*
X155479500Y-97886731D01*
X152830409Y-97886731D01*
X152706433Y-97796657D01*
X152495992Y-97689432D01*
X152271368Y-97616447D01*
X152038092Y-97579500D01*
X151801908Y-97579500D01*
X151568632Y-97616447D01*
X151374776Y-97679435D01*
X151344008Y-97689432D01*
X151344002Y-97689434D01*
X151344002Y-97689435D01*
X151133565Y-97796658D01*
X150942499Y-97935476D01*
X150942488Y-97935485D01*
X150775485Y-98102488D01*
X150775476Y-98102499D01*
X150636658Y-98293565D01*
X150584504Y-98395924D01*
X150529432Y-98504008D01*
X150456447Y-98728632D01*
X150419500Y-98961908D01*
X150419500Y-99198092D01*
X150456447Y-99431368D01*
X150529432Y-99655992D01*
X150636657Y-99866433D01*
X150775483Y-100057510D01*
X150942490Y-100224517D01*
X151133567Y-100363343D01*
X151344008Y-100470568D01*
X151568632Y-100543553D01*
X151801908Y-100580500D01*
X151801913Y-100580500D01*
X152039572Y-100580500D01*
X152114072Y-100600462D01*
X152144931Y-100624141D01*
X163525859Y-112005069D01*
X163564423Y-112071864D01*
X163569500Y-112110428D01*
X163569500Y-220524571D01*
X163549538Y-220599071D01*
X163525859Y-220629930D01*
X162006945Y-222148843D01*
X161940150Y-222187407D01*
X161901157Y-222192483D01*
X128025389Y-222094858D01*
X128025375Y-222094859D01*
X127949286Y-222102874D01*
X127949282Y-222102874D01*
X127897428Y-222114077D01*
X127897417Y-222114079D01*
X127839540Y-222131858D01*
X127839531Y-222131862D01*
X127739692Y-222192889D01*
X127739686Y-222192893D01*
X127686879Y-222238651D01*
X127629590Y-222301830D01*
X127629589Y-222301831D01*
X127629589Y-222301832D01*
X127578586Y-222407159D01*
X127578584Y-222407163D01*
X127578583Y-222407167D01*
X127558901Y-222474197D01*
X127558900Y-222474202D01*
X127544500Y-222574346D01*
X127544500Y-231126008D01*
X127548519Y-231163385D01*
X127548523Y-231163418D01*
X127549500Y-231172504D01*
X127549500Y-231183260D01*
X127559313Y-231250613D01*
X127559510Y-231252202D01*
X127554393Y-231288861D01*
X127550069Y-231325616D01*
X127549077Y-231326945D01*
X127548848Y-231328590D01*
X127526084Y-231357781D01*
X127503965Y-231387447D01*
X127502440Y-231388103D01*
X127501420Y-231389412D01*
X127467118Y-231403308D01*
X127433122Y-231417943D01*
X127430531Y-231418130D01*
X127429936Y-231418372D01*
X127429001Y-231418241D01*
X127411638Y-231419500D01*
X119369500Y-231419500D01*
X119295000Y-231399538D01*
X119240462Y-231345000D01*
X119220500Y-231270500D01*
X119220500Y-139497325D01*
X123144500Y-139497325D01*
X123144500Y-139497336D01*
X123144500Y-146698638D01*
X123144501Y-146698648D01*
X123146537Y-146736643D01*
X123149369Y-146762988D01*
X123152405Y-146784829D01*
X123152405Y-146784830D01*
X123190820Y-146895372D01*
X123224298Y-146956682D01*
X123224300Y-146956686D01*
X123224304Y-146956692D01*
X123284943Y-147037695D01*
X126462305Y-150215057D01*
X126490619Y-150240491D01*
X126511261Y-150257125D01*
X126511275Y-150257135D01*
X126511278Y-150257138D01*
X126528835Y-150270410D01*
X126528837Y-150270411D01*
X126634164Y-150321414D01*
X126634166Y-150321414D01*
X126634169Y-150321416D01*
X126662960Y-150329869D01*
X126701203Y-150341099D01*
X126746376Y-150347594D01*
X126801351Y-150355499D01*
X126801359Y-150355499D01*
X126801362Y-150355500D01*
X126801365Y-150355500D01*
X141198626Y-150355500D01*
X141198638Y-150355500D01*
X141236642Y-150353463D01*
X141263000Y-150350629D01*
X141284827Y-150347595D01*
X141395369Y-150309181D01*
X141456692Y-150275696D01*
X141537695Y-150215057D01*
X144715057Y-147037695D01*
X144740491Y-147009381D01*
X144757125Y-146988739D01*
X144770411Y-146971163D01*
X144821414Y-146865836D01*
X144841099Y-146798797D01*
X144855500Y-146698638D01*
X144855500Y-139497336D01*
X144855500Y-139497327D01*
X144850731Y-139439299D01*
X144844121Y-139399353D01*
X144834757Y-139358150D01*
X144784038Y-139252685D01*
X144761363Y-139220491D01*
X144743811Y-139195568D01*
X144743801Y-139195557D01*
X144740299Y-139191846D01*
X144711964Y-139161817D01*
X144674367Y-139121973D01*
X142317580Y-137248629D01*
X142303335Y-137237880D01*
X142293234Y-137230647D01*
X142292203Y-137229913D01*
X142291747Y-137229589D01*
X142291745Y-137229588D01*
X142291743Y-137229586D01*
X142186414Y-137178583D01*
X142119381Y-137158901D01*
X142119376Y-137158900D01*
X142019232Y-137144500D01*
X142019222Y-137144500D01*
X125980778Y-137144500D01*
X125979362Y-137144535D01*
X125962930Y-137144948D01*
X125954780Y-137145358D01*
X125950495Y-137145574D01*
X125950343Y-137145581D01*
X125948702Y-137145667D01*
X125948701Y-137145667D01*
X125834513Y-137171280D01*
X125834511Y-137171280D01*
X125834510Y-137171281D01*
X125816534Y-137178586D01*
X125769781Y-137197585D01*
X125682410Y-137248636D01*
X123325640Y-139121966D01*
X123325624Y-139121980D01*
X123283170Y-139161817D01*
X123283159Y-139161828D01*
X123256016Y-139191843D01*
X123256014Y-139191846D01*
X123229587Y-139224813D01*
X123229586Y-139224815D01*
X123178583Y-139330143D01*
X123158900Y-139397178D01*
X123144500Y-139497325D01*
X119220500Y-139497325D01*
X119220500Y-136420000D01*
X128020000Y-136420000D01*
X139420000Y-136420000D01*
X141720000Y-97920000D01*
X133120000Y-91220000D01*
X131620000Y-90520000D01*
X130020000Y-91320000D01*
X128120000Y-95720000D01*
X128020000Y-136420000D01*
X119220500Y-136420000D01*
X119220500Y-95221583D01*
X120369500Y-95221583D01*
X120369500Y-95418417D01*
X120400291Y-95612826D01*
X120461116Y-95800025D01*
X120461119Y-95800030D01*
X120461121Y-95800036D01*
X120545179Y-95965010D01*
X120550476Y-95975405D01*
X120666172Y-96134646D01*
X120805354Y-96273828D01*
X120964595Y-96389524D01*
X121139975Y-96478884D01*
X121327174Y-96539709D01*
X121521583Y-96570500D01*
X121521588Y-96570500D01*
X121718412Y-96570500D01*
X121718417Y-96570500D01*
X121912826Y-96539709D01*
X122100025Y-96478884D01*
X122275405Y-96389524D01*
X122434646Y-96273828D01*
X122573828Y-96134646D01*
X122689524Y-95975405D01*
X122778884Y-95800025D01*
X122839709Y-95612826D01*
X122870500Y-95418417D01*
X122870500Y-95221583D01*
X122839709Y-95027174D01*
X122778884Y-94839975D01*
X122689524Y-94664595D01*
X122573828Y-94505354D01*
X122434646Y-94366172D01*
X122275405Y-94250476D01*
X122265010Y-94245179D01*
X122100036Y-94161121D01*
X122100030Y-94161119D01*
X122100025Y-94161116D01*
X121912826Y-94100291D01*
X121718417Y-94069500D01*
X121521583Y-94069500D01*
X121327174Y-94100291D01*
X121139975Y-94161116D01*
X121139972Y-94161117D01*
X121139963Y-94161121D01*
X120964598Y-94250474D01*
X120964593Y-94250477D01*
X120805363Y-94366165D01*
X120805352Y-94366174D01*
X120666174Y-94505352D01*
X120666165Y-94505363D01*
X120550477Y-94664593D01*
X120550474Y-94664598D01*
X120461121Y-94839963D01*
X120461117Y-94839972D01*
X120461116Y-94839975D01*
X120400291Y-95027174D01*
X120369500Y-95221583D01*
X119220500Y-95221583D01*
X119220500Y-87194038D01*
X130019500Y-87194038D01*
X130019500Y-87445962D01*
X130058910Y-87694785D01*
X130136759Y-87934379D01*
X130251130Y-88158845D01*
X130399207Y-88362656D01*
X130577344Y-88540793D01*
X130781155Y-88688870D01*
X131005621Y-88803241D01*
X131245215Y-88881090D01*
X131494038Y-88920500D01*
X131494043Y-88920500D01*
X131745957Y-88920500D01*
X131745962Y-88920500D01*
X131994785Y-88881090D01*
X132234379Y-88803241D01*
X132458845Y-88688870D01*
X132662656Y-88540793D01*
X132840793Y-88362656D01*
X132988870Y-88158845D01*
X133103241Y-87934379D01*
X133181090Y-87694785D01*
X133220500Y-87445962D01*
X133220500Y-87194038D01*
X133181090Y-86945215D01*
X133103241Y-86705621D01*
X132988870Y-86481155D01*
X132840793Y-86277344D01*
X132662656Y-86099207D01*
X132458845Y-85951130D01*
X132234379Y-85836759D01*
X131994785Y-85758910D01*
X131745962Y-85719500D01*
X131494038Y-85719500D01*
X131286685Y-85752341D01*
X131245214Y-85758910D01*
X131005627Y-85836757D01*
X131005621Y-85836759D01*
X131005615Y-85836761D01*
X131005615Y-85836762D01*
X130781153Y-85951131D01*
X130781152Y-85951131D01*
X130577345Y-86099206D01*
X130577342Y-86099208D01*
X130399208Y-86277342D01*
X130399206Y-86277345D01*
X130251131Y-86481152D01*
X130251131Y-86481153D01*
X130251130Y-86481155D01*
X130136759Y-86705621D01*
X130058910Y-86945215D01*
X130019500Y-87194038D01*
X119220500Y-87194038D01*
X119220500Y-81521583D01*
X120369500Y-81521583D01*
X120369500Y-81718417D01*
X120400291Y-81912826D01*
X120461116Y-82100025D01*
X120461119Y-82100030D01*
X120461121Y-82100036D01*
X120545179Y-82265010D01*
X120550476Y-82275405D01*
X120666172Y-82434646D01*
X120805354Y-82573828D01*
X120964595Y-82689524D01*
X121139975Y-82778884D01*
X121274892Y-82822721D01*
X121292039Y-82828293D01*
X121356724Y-82870300D01*
X121391739Y-82939022D01*
X121387702Y-83016044D01*
X121345695Y-83080729D01*
X121292038Y-83111707D01*
X121139975Y-83161116D01*
X121139972Y-83161117D01*
X121139963Y-83161121D01*
X120964598Y-83250474D01*
X120964593Y-83250477D01*
X120805363Y-83366165D01*
X120805352Y-83366174D01*
X120666174Y-83505352D01*
X120666165Y-83505363D01*
X120550477Y-83664593D01*
X120550474Y-83664598D01*
X120461121Y-83839963D01*
X120461117Y-83839972D01*
X120461116Y-83839975D01*
X120400291Y-84027174D01*
X120369500Y-84221583D01*
X120369500Y-84418417D01*
X120400291Y-84612826D01*
X120461116Y-84800025D01*
X120461119Y-84800030D01*
X120461121Y-84800036D01*
X120545179Y-84965010D01*
X120550476Y-84975405D01*
X120666172Y-85134646D01*
X120805354Y-85273828D01*
X120964595Y-85389524D01*
X121139975Y-85478884D01*
X121327174Y-85539709D01*
X121521583Y-85570500D01*
X121521588Y-85570500D01*
X121718412Y-85570500D01*
X121718417Y-85570500D01*
X121912826Y-85539709D01*
X122100025Y-85478884D01*
X122275405Y-85389524D01*
X122434646Y-85273828D01*
X122573828Y-85134646D01*
X122689524Y-84975405D01*
X122778884Y-84800025D01*
X122839709Y-84612826D01*
X122870500Y-84418417D01*
X122870500Y-84221583D01*
X122839709Y-84027174D01*
X122778884Y-83839975D01*
X122689524Y-83664595D01*
X122573828Y-83505354D01*
X122434646Y-83366172D01*
X122275405Y-83250476D01*
X122265010Y-83245179D01*
X122100036Y-83161121D01*
X122100030Y-83161119D01*
X122100025Y-83161116D01*
X121947959Y-83111706D01*
X121883275Y-83069700D01*
X121848260Y-83000979D01*
X121852297Y-82923956D01*
X121894304Y-82859271D01*
X121947959Y-82828293D01*
X122100025Y-82778884D01*
X122275405Y-82689524D01*
X122434646Y-82573828D01*
X122573828Y-82434646D01*
X122689524Y-82275405D01*
X122778884Y-82100025D01*
X122839709Y-81912826D01*
X122870500Y-81718417D01*
X122870500Y-81521583D01*
X122839709Y-81327174D01*
X122778884Y-81139975D01*
X122689524Y-80964595D01*
X122573828Y-80805354D01*
X122434646Y-80666172D01*
X122275405Y-80550476D01*
X122265010Y-80545179D01*
X122100036Y-80461121D01*
X122100030Y-80461119D01*
X122100025Y-80461116D01*
X121912826Y-80400291D01*
X121718417Y-80369500D01*
X121521583Y-80369500D01*
X121327174Y-80400291D01*
X121139975Y-80461116D01*
X121139972Y-80461117D01*
X121139963Y-80461121D01*
X120964598Y-80550474D01*
X120964593Y-80550477D01*
X120805363Y-80666165D01*
X120805352Y-80666174D01*
X120666174Y-80805352D01*
X120666165Y-80805363D01*
X120550477Y-80964593D01*
X120550474Y-80964598D01*
X120461121Y-81139963D01*
X120461117Y-81139972D01*
X120461116Y-81139975D01*
X120400291Y-81327174D01*
X120369500Y-81521583D01*
X119220500Y-81521583D01*
X119220500Y-78494038D01*
X125019500Y-78494038D01*
X125019500Y-78745962D01*
X125058910Y-78994785D01*
X125136759Y-79234379D01*
X125207454Y-79373126D01*
X125251131Y-79458846D01*
X125251131Y-79458847D01*
X125303837Y-79531390D01*
X125399207Y-79662656D01*
X125577344Y-79840793D01*
X125781155Y-79988870D01*
X126005621Y-80103241D01*
X126245215Y-80181090D01*
X126494038Y-80220500D01*
X126494043Y-80220500D01*
X126745957Y-80220500D01*
X126745962Y-80220500D01*
X126994785Y-80181090D01*
X127234379Y-80103241D01*
X127458845Y-79988870D01*
X127662656Y-79840793D01*
X127840793Y-79662656D01*
X127988870Y-79458845D01*
X128103241Y-79234379D01*
X128181090Y-78994785D01*
X128220500Y-78745962D01*
X128220500Y-78494038D01*
X128181090Y-78245215D01*
X128103241Y-78005621D01*
X127988870Y-77781155D01*
X127987354Y-77779069D01*
X127881299Y-77633096D01*
X127840793Y-77577344D01*
X127662656Y-77399207D01*
X127458845Y-77251130D01*
X127234379Y-77136759D01*
X126994785Y-77058910D01*
X126745962Y-77019500D01*
X126494038Y-77019500D01*
X126286685Y-77052341D01*
X126245214Y-77058910D01*
X126005627Y-77136757D01*
X126005621Y-77136759D01*
X126005615Y-77136761D01*
X126005615Y-77136762D01*
X125781153Y-77251131D01*
X125781152Y-77251131D01*
X125577345Y-77399206D01*
X125577342Y-77399208D01*
X125399208Y-77577342D01*
X125399206Y-77577345D01*
X125251131Y-77781152D01*
X125251131Y-77781153D01*
X125136762Y-78005615D01*
X125136757Y-78005627D01*
X125059014Y-78244896D01*
X125058910Y-78245215D01*
X125019500Y-78494038D01*
X119220500Y-78494038D01*
X119220500Y-70521583D01*
X120369500Y-70521583D01*
X120369500Y-70718417D01*
X120400291Y-70912826D01*
X120461116Y-71100025D01*
X120461119Y-71100030D01*
X120461121Y-71100036D01*
X120545179Y-71265010D01*
X120550476Y-71275405D01*
X120666172Y-71434646D01*
X120805354Y-71573828D01*
X120964595Y-71689524D01*
X121139975Y-71778884D01*
X121327174Y-71839709D01*
X121521583Y-71870500D01*
X121521588Y-71870500D01*
X121718412Y-71870500D01*
X121718417Y-71870500D01*
X121912826Y-71839709D01*
X122100025Y-71778884D01*
X122275405Y-71689524D01*
X122434646Y-71573828D01*
X122573828Y-71434646D01*
X122689524Y-71275405D01*
X122778884Y-71100025D01*
X122839709Y-70912826D01*
X122870500Y-70718417D01*
X122870500Y-70521583D01*
X122839709Y-70327174D01*
X122778884Y-70139975D01*
X122689524Y-69964595D01*
X122573828Y-69805354D01*
X122434646Y-69666172D01*
X122275405Y-69550476D01*
X122265010Y-69545179D01*
X122100036Y-69461121D01*
X122100030Y-69461119D01*
X122100025Y-69461116D01*
X121912826Y-69400291D01*
X121718417Y-69369500D01*
X121521583Y-69369500D01*
X121327174Y-69400291D01*
X121139975Y-69461116D01*
X121139972Y-69461117D01*
X121139963Y-69461121D01*
X120964598Y-69550474D01*
X120964593Y-69550477D01*
X120805363Y-69666165D01*
X120805352Y-69666174D01*
X120666174Y-69805352D01*
X120666165Y-69805363D01*
X120550477Y-69964593D01*
X120550474Y-69964598D01*
X120461121Y-70139963D01*
X120461117Y-70139972D01*
X120461116Y-70139975D01*
X120400291Y-70327174D01*
X120369500Y-70521583D01*
X119220500Y-70521583D01*
X119220500Y-42669500D01*
X119240462Y-42595000D01*
X119295000Y-42540462D01*
X119369500Y-42520500D01*
X127491638Y-42520500D01*
X127566138Y-42540462D01*
G37*
%TD.AperFunction*%
%TD*%
%TA.AperFunction,Conductor*%
%TO.N,B3*%
G36*
X162542435Y-42620017D02*
G01*
X162588495Y-42672555D01*
X162600000Y-42724718D01*
X162600000Y-50776000D01*
X162580315Y-50843039D01*
X162527511Y-50888794D01*
X162476000Y-50900000D01*
X128124000Y-50900000D01*
X128056961Y-50880315D01*
X128011206Y-50827511D01*
X128000000Y-50776000D01*
X128000000Y-42923285D01*
X128019685Y-42856246D01*
X128072489Y-42810491D01*
X128123281Y-42799287D01*
X162475286Y-42600720D01*
X162542435Y-42620017D01*
G37*
%TD.AperFunction*%
%TD*%
%TA.AperFunction,Conductor*%
%TO.N,B5*%
G36*
X162476359Y-222549643D02*
G01*
X162543340Y-222569520D01*
X162588942Y-222622456D01*
X162600000Y-222673642D01*
X162600000Y-231126000D01*
X162580315Y-231193039D01*
X162527511Y-231238794D01*
X162476000Y-231250000D01*
X128024000Y-231250000D01*
X127956961Y-231230315D01*
X127911206Y-231177511D01*
X127900000Y-231126000D01*
X127900000Y-222574357D01*
X127919685Y-222507318D01*
X127972489Y-222461563D01*
X128024355Y-222450358D01*
X162476359Y-222549643D01*
G37*
%TD.AperFunction*%
%TD*%
%TA.AperFunction,Conductor*%
%TO.N,BSET*%
G36*
X133120000Y-91220000D02*
G01*
X141720000Y-97920000D01*
X139420000Y-136420000D01*
X128020000Y-136420000D01*
X128120000Y-95720000D01*
X130020000Y-91320000D01*
X131620000Y-90520000D01*
X133120000Y-91220000D01*
G37*
%TD.AperFunction*%
%TD*%
%TA.AperFunction,Conductor*%
%TO.N,B4*%
G36*
X162643039Y-127019685D02*
G01*
X162688794Y-127072489D01*
X162700000Y-127124000D01*
X162700000Y-146076000D01*
X162680315Y-146143039D01*
X162627511Y-146188794D01*
X162576000Y-146200000D01*
X151424000Y-146200000D01*
X151356961Y-146180315D01*
X151311206Y-146127511D01*
X151300000Y-146076000D01*
X151300000Y-127124000D01*
X151319685Y-127056961D01*
X151372489Y-127011206D01*
X151424000Y-127000000D01*
X162576000Y-127000000D01*
X162643039Y-127019685D01*
G37*
%TD.AperFunction*%
%TD*%
M02*
