%TF.GenerationSoftware,KiCad,Pcbnew,9.0.6*%
%TF.CreationDate,2025-12-14T22:45:36+01:00*%
%TF.ProjectId,balancingboardbyd,62616c61-6e63-4696-9e67-626f61726462,rev?*%
%TF.SameCoordinates,Original*%
%TF.FileFunction,Legend,Top*%
%TF.FilePolarity,Positive*%
%FSLAX46Y46*%
G04 Gerber Fmt 4.6, Leading zero omitted, Abs format (unit mm)*
G04 Created by KiCad (PCBNEW 9.0.6) date 2025-12-14 22:45:36*
%MOMM*%
%LPD*%
G01*
G04 APERTURE LIST*
%ADD10C,0.200000*%
%ADD11C,0.100000*%
%ADD12C,0.120000*%
%ADD13C,0.150000*%
%ADD14C,0.300000*%
%ADD15C,0.250000*%
%ADD16C,0.400000*%
G04 APERTURE END LIST*
D10*
X166369673Y-140736266D02*
X167131578Y-140736266D01*
X166750625Y-141117219D02*
X166750625Y-140355314D01*
X167941101Y-140593409D02*
X168083958Y-140641028D01*
X168083958Y-140641028D02*
X168131577Y-140688647D01*
X168131577Y-140688647D02*
X168179196Y-140783885D01*
X168179196Y-140783885D02*
X168179196Y-140926742D01*
X168179196Y-140926742D02*
X168131577Y-141021980D01*
X168131577Y-141021980D02*
X168083958Y-141069600D01*
X168083958Y-141069600D02*
X167988720Y-141117219D01*
X167988720Y-141117219D02*
X167607768Y-141117219D01*
X167607768Y-141117219D02*
X167607768Y-140117219D01*
X167607768Y-140117219D02*
X167941101Y-140117219D01*
X167941101Y-140117219D02*
X168036339Y-140164838D01*
X168036339Y-140164838D02*
X168083958Y-140212457D01*
X168083958Y-140212457D02*
X168131577Y-140307695D01*
X168131577Y-140307695D02*
X168131577Y-140402933D01*
X168131577Y-140402933D02*
X168083958Y-140498171D01*
X168083958Y-140498171D02*
X168036339Y-140545790D01*
X168036339Y-140545790D02*
X167941101Y-140593409D01*
X167941101Y-140593409D02*
X167607768Y-140593409D01*
X168560149Y-140831504D02*
X169036339Y-140831504D01*
X168464911Y-141117219D02*
X168798244Y-140117219D01*
X168798244Y-140117219D02*
X169131577Y-141117219D01*
X169322054Y-140117219D02*
X169893482Y-140117219D01*
X169607768Y-141117219D02*
X169607768Y-140117219D01*
G36*
X128897951Y-97455424D02*
G01*
X128936101Y-97473104D01*
X128974822Y-97504904D01*
X129014799Y-97554551D01*
X129041952Y-97531007D01*
X129073209Y-97517048D01*
X129109931Y-97512236D01*
X129152366Y-97519033D01*
X129196815Y-97540721D01*
X129244937Y-97580990D01*
X129285226Y-97538298D01*
X129329884Y-97508765D01*
X129379847Y-97490997D01*
X129436667Y-97484881D01*
X129490334Y-97490442D01*
X129539233Y-97506806D01*
X129584548Y-97534261D01*
X129627055Y-97574091D01*
X129661736Y-97620965D01*
X129686156Y-97671046D01*
X129700909Y-97725085D01*
X129705945Y-97784078D01*
X129698695Y-97849464D01*
X129677459Y-97907947D01*
X129641831Y-97961215D01*
X129675505Y-98019272D01*
X129695366Y-98080058D01*
X129702037Y-98144825D01*
X129700633Y-98155938D01*
X129699289Y-98167051D01*
X129699289Y-98185125D01*
X129559644Y-98205642D01*
X129565078Y-98175294D01*
X129569169Y-98136643D01*
X129563748Y-98085289D01*
X129547431Y-98035893D01*
X129495625Y-98056220D01*
X129435446Y-98063248D01*
X129384055Y-98058058D01*
X129336947Y-98042767D01*
X129293053Y-98017112D01*
X129251653Y-97979961D01*
X129217837Y-97936082D01*
X129193949Y-97888521D01*
X129179449Y-97836482D01*
X129174473Y-97778888D01*
X129174688Y-97776018D01*
X129311249Y-97776018D01*
X129315887Y-97813662D01*
X129329478Y-97846885D01*
X129352465Y-97876830D01*
X129382096Y-97900210D01*
X129414851Y-97913972D01*
X129451871Y-97918656D01*
X129488976Y-97914034D01*
X129521754Y-97900475D01*
X129551339Y-97877501D01*
X129574339Y-97847966D01*
X129587958Y-97814979D01*
X129592616Y-97777362D01*
X129587989Y-97739739D01*
X129574391Y-97706280D01*
X129551339Y-97675879D01*
X129521659Y-97652098D01*
X129488887Y-97638130D01*
X129451871Y-97633381D01*
X129414851Y-97638065D01*
X129382096Y-97651827D01*
X129352465Y-97675207D01*
X129329478Y-97705152D01*
X129315887Y-97738375D01*
X129311249Y-97776018D01*
X129174688Y-97776018D01*
X129178032Y-97731487D01*
X129188272Y-97689556D01*
X129153597Y-97660006D01*
X129132524Y-97652920D01*
X129117688Y-97659243D01*
X129104680Y-97682962D01*
X129098864Y-97718059D01*
X129096315Y-97783956D01*
X129096315Y-97835064D01*
X129096315Y-97887637D01*
X129090146Y-97980307D01*
X129074577Y-98041816D01*
X129056018Y-98080599D01*
X129033116Y-98111616D01*
X129005823Y-98135971D01*
X128974246Y-98154373D01*
X128941614Y-98165159D01*
X128907271Y-98168761D01*
X128861621Y-98163361D01*
X128818617Y-98147161D01*
X128777187Y-98119263D01*
X128736667Y-98077658D01*
X128706375Y-98030877D01*
X128683211Y-97972038D01*
X128668059Y-97898516D01*
X128662540Y-97807159D01*
X128662734Y-97803007D01*
X128791500Y-97803007D01*
X128795421Y-97869645D01*
X128805955Y-97920867D01*
X128821664Y-97959750D01*
X128846459Y-97995403D01*
X128872607Y-98014239D01*
X128901287Y-98020261D01*
X128926135Y-98015999D01*
X128944924Y-98003841D01*
X128959153Y-97982736D01*
X128968515Y-97949309D01*
X128971263Y-97878417D01*
X128971263Y-97851184D01*
X128972667Y-97795252D01*
X128978101Y-97674535D01*
X128945641Y-97628387D01*
X128915278Y-97605216D01*
X128885472Y-97598210D01*
X128857470Y-97604260D01*
X128834254Y-97622694D01*
X128814642Y-97657316D01*
X128797764Y-97720353D01*
X128791500Y-97803007D01*
X128662734Y-97803007D01*
X128666977Y-97711993D01*
X128678946Y-97637600D01*
X128696751Y-97580241D01*
X128719204Y-97536660D01*
X128751126Y-97496662D01*
X128784630Y-97470162D01*
X128820264Y-97454840D01*
X128859155Y-97449710D01*
X128897951Y-97455424D01*
G37*
G36*
X129545722Y-98397983D02*
G01*
X129682498Y-98397983D01*
X129682498Y-98736381D01*
X129076775Y-98736381D01*
X129076775Y-98912236D01*
X128940000Y-98912236D01*
X128940000Y-98388579D01*
X129076775Y-98388579D01*
X129076775Y-98576158D01*
X129545722Y-98576158D01*
X129545722Y-98397983D01*
G37*
G36*
X129825807Y-98583058D02*
G01*
X129847356Y-98566170D01*
X129871584Y-98556147D01*
X129899385Y-98552711D01*
X129927186Y-98556147D01*
X129951415Y-98566170D01*
X129972964Y-98583058D01*
X129989620Y-98604816D01*
X129999538Y-98629330D01*
X130002944Y-98657491D01*
X129999486Y-98685669D01*
X129989369Y-98710435D01*
X129972292Y-98732657D01*
X129950304Y-98750081D01*
X129926272Y-98760281D01*
X129899385Y-98763736D01*
X129872537Y-98760284D01*
X129848503Y-98750086D01*
X129826479Y-98732657D01*
X129809401Y-98710435D01*
X129799285Y-98685669D01*
X129795826Y-98657491D01*
X129799233Y-98629330D01*
X129809151Y-98604816D01*
X129825807Y-98583058D01*
G37*
G36*
X129682498Y-99354621D02*
G01*
X129880396Y-99368421D01*
X129906346Y-99527911D01*
X129892669Y-99534750D01*
X129874900Y-99538841D01*
X129857131Y-99536765D01*
X129843515Y-99531331D01*
X129836676Y-99527911D01*
X129686406Y-99511730D01*
X129686406Y-99749501D01*
X129545722Y-99749501D01*
X129545722Y-99506296D01*
X129420154Y-99498157D01*
X129298914Y-99495488D01*
X129226191Y-99495488D01*
X129183021Y-99495488D01*
X129168672Y-99495488D01*
X129126783Y-99508988D01*
X129099285Y-99530181D01*
X129082746Y-99559358D01*
X129076775Y-99599291D01*
X129082888Y-99643034D01*
X129103048Y-99693731D01*
X129141195Y-99753592D01*
X129156277Y-99775451D01*
X129023653Y-99827414D01*
X129014127Y-99815141D01*
X128975743Y-99753932D01*
X128949180Y-99692504D01*
X128933499Y-99630222D01*
X128928276Y-99566318D01*
X128933942Y-99505215D01*
X128949848Y-99454964D01*
X128975219Y-99413378D01*
X129010464Y-99378984D01*
X129042530Y-99360061D01*
X129080256Y-99346195D01*
X129118061Y-99337587D01*
X129142477Y-99335265D01*
X129210315Y-99335265D01*
X129367064Y-99338240D01*
X129545722Y-99347721D01*
X129545722Y-99175041D01*
X129682498Y-99175041D01*
X129682498Y-99354621D01*
G37*
G36*
X128940000Y-100174972D02*
G01*
X128940000Y-100012306D01*
X130014668Y-100012306D01*
X130014668Y-100183154D01*
X130001113Y-100188649D01*
X129990305Y-100188649D01*
X129973568Y-100185348D01*
X129957637Y-100174972D01*
X129956233Y-100174972D01*
X129589319Y-100174972D01*
X129638588Y-100228065D01*
X129672011Y-100282515D01*
X129691582Y-100339159D01*
X129698129Y-100399248D01*
X129694115Y-100445635D01*
X129682289Y-100488681D01*
X129662592Y-100529124D01*
X129635761Y-100564997D01*
X129602772Y-100594013D01*
X129562880Y-100616685D01*
X129520720Y-100631412D01*
X129462909Y-100641546D01*
X129385315Y-100645383D01*
X128940000Y-100645383D01*
X128940000Y-100489068D01*
X129376278Y-100489068D01*
X129443052Y-100484098D01*
X129487821Y-100471439D01*
X129516718Y-100453408D01*
X129537133Y-100429367D01*
X129549317Y-100401429D01*
X129553538Y-100368351D01*
X129546699Y-100323956D01*
X129524900Y-100277126D01*
X129494392Y-100235120D01*
X129464938Y-100206540D01*
X129436937Y-100189618D01*
X129402077Y-100178854D01*
X129358571Y-100174972D01*
X128940000Y-100174972D01*
G37*
G36*
X129267407Y-100837847D02*
G01*
X129678590Y-100837847D01*
X129678590Y-100998070D01*
X129271620Y-100998070D01*
X129209590Y-101001416D01*
X129164449Y-101010172D01*
X129132402Y-101022800D01*
X129098885Y-101046026D01*
X129075948Y-101073733D01*
X129062088Y-101106656D01*
X129057236Y-101146386D01*
X129063591Y-101190437D01*
X129083187Y-101233642D01*
X129112836Y-101271166D01*
X129148766Y-101298855D01*
X129180936Y-101313245D01*
X129222897Y-101322796D01*
X129277116Y-101326332D01*
X129678590Y-101326332D01*
X129678590Y-101486556D01*
X129023164Y-101486556D01*
X128989448Y-101488471D01*
X128965889Y-101493394D01*
X128940000Y-101501577D01*
X128940000Y-101331828D01*
X128957524Y-101329080D01*
X129008754Y-101326332D01*
X128969765Y-101280972D01*
X128942511Y-101231956D01*
X128926083Y-101178428D01*
X128920460Y-101119153D01*
X128925067Y-101066316D01*
X128938681Y-101016947D01*
X128961432Y-100970226D01*
X128992290Y-100928644D01*
X129029839Y-100894792D01*
X129074822Y-100868072D01*
X129118103Y-100852770D01*
X129180414Y-100841999D01*
X129267407Y-100837847D01*
G37*
G36*
X130018576Y-101846142D02*
G01*
X130001967Y-101850294D01*
X129981329Y-101849562D01*
X129967529Y-101840891D01*
X129963377Y-101833869D01*
X129962034Y-101833869D01*
X129960629Y-101833869D01*
X129604951Y-101833869D01*
X129644263Y-101878267D01*
X129671814Y-101926841D01*
X129688489Y-101980512D01*
X129694221Y-102040621D01*
X129688045Y-102102271D01*
X129669808Y-102159127D01*
X129639163Y-102212422D01*
X129594754Y-102263004D01*
X129542610Y-102302806D01*
X129480162Y-102332192D01*
X129405348Y-102350862D01*
X129315523Y-102357526D01*
X129222307Y-102350658D01*
X129144455Y-102331396D01*
X129079282Y-102301056D01*
X129024691Y-102259951D01*
X128978183Y-102207692D01*
X128946075Y-102152412D01*
X128926947Y-102093213D01*
X128920460Y-102028775D01*
X128923530Y-101997329D01*
X129065052Y-101997329D01*
X129067270Y-102027056D01*
X129073967Y-102056557D01*
X129085592Y-102085797D01*
X129104741Y-102119206D01*
X129132050Y-102148546D01*
X129175205Y-102173733D01*
X129227013Y-102189197D01*
X129293602Y-102194860D01*
X129370806Y-102189160D01*
X129430378Y-102173733D01*
X129480470Y-102148084D01*
X129511100Y-102118534D01*
X129532553Y-102084475D01*
X129544623Y-102055886D01*
X129551333Y-102027141D01*
X129553538Y-101998672D01*
X129547502Y-101951492D01*
X129529602Y-101908790D01*
X129501396Y-101873408D01*
X129466038Y-101850233D01*
X129419973Y-101837940D01*
X129329139Y-101832465D01*
X129196393Y-101836617D01*
X129148132Y-101849882D01*
X129114652Y-101870227D01*
X129092407Y-101897189D01*
X129071772Y-101946840D01*
X129065052Y-101997329D01*
X128923530Y-101997329D01*
X128926594Y-101965946D01*
X128944404Y-101910215D01*
X128973818Y-101860090D01*
X129015837Y-101814574D01*
X128940000Y-101781479D01*
X128940000Y-101671203D01*
X130018576Y-101671203D01*
X130018576Y-101846142D01*
G37*
G36*
X129074760Y-102738117D02*
G01*
X129093320Y-102762639D01*
X129104295Y-102789772D01*
X129108039Y-102820427D01*
X129104244Y-102851058D01*
X129093071Y-102878400D01*
X129074089Y-102903347D01*
X129049709Y-102923023D01*
X129023299Y-102934474D01*
X128993977Y-102938335D01*
X128964722Y-102934461D01*
X128938586Y-102923002D01*
X128914659Y-102903347D01*
X128896079Y-102878447D01*
X128885112Y-102851102D01*
X128881381Y-102820427D01*
X128885125Y-102789772D01*
X128896100Y-102762639D01*
X128914659Y-102738117D01*
X128938534Y-102718906D01*
X128964673Y-102707669D01*
X128993977Y-102703862D01*
X129024211Y-102707707D01*
X129050820Y-102718982D01*
X129074760Y-102738117D01*
G37*
G36*
X129548103Y-104026987D02*
G01*
X129534487Y-104035169D01*
X129411571Y-103929900D01*
X129422501Y-103913475D01*
X129442285Y-103898454D01*
X129460725Y-103895706D01*
X129467564Y-103897110D01*
X129495469Y-103873846D01*
X129510689Y-103854799D01*
X129532349Y-103816388D01*
X129548191Y-103772515D01*
X129553538Y-103724797D01*
X129546262Y-103663620D01*
X129525197Y-103610964D01*
X129490034Y-103564818D01*
X129456439Y-103537248D01*
X129417650Y-103517338D01*
X129372660Y-103504941D01*
X129320102Y-103500582D01*
X129264882Y-103505090D01*
X129217033Y-103517971D01*
X129175254Y-103538741D01*
X129138569Y-103567566D01*
X129108010Y-103603285D01*
X129086506Y-103642449D01*
X129073453Y-103685796D01*
X129068960Y-103734384D01*
X129074148Y-103785076D01*
X129089422Y-103831392D01*
X129115046Y-103874419D01*
X129152185Y-103914879D01*
X129169954Y-103931243D01*
X129059312Y-104025582D01*
X129045573Y-104013309D01*
X129000063Y-103963986D01*
X128965381Y-103911150D01*
X128940673Y-103854250D01*
X128925621Y-103792475D01*
X128920460Y-103724797D01*
X128927661Y-103643974D01*
X128948528Y-103572071D01*
X128982766Y-103507364D01*
X129031163Y-103448620D01*
X129089895Y-103400287D01*
X129154801Y-103366043D01*
X129227144Y-103345140D01*
X129308684Y-103337916D01*
X129390272Y-103345161D01*
X129462378Y-103366092D01*
X129526810Y-103400334D01*
X129584862Y-103448620D01*
X129632298Y-103507218D01*
X129666161Y-103572906D01*
X129686984Y-103647077D01*
X129694221Y-103731636D01*
X129689821Y-103793611D01*
X129676994Y-103850295D01*
X129655997Y-103902545D01*
X129626880Y-103950596D01*
X129591067Y-103991873D01*
X129548103Y-104026987D01*
G37*
G36*
X129387724Y-104158849D02*
G01*
X129460924Y-104179420D01*
X129526539Y-104213047D01*
X129585839Y-104260361D01*
X129635487Y-104318308D01*
X129670143Y-104380686D01*
X129691001Y-104448561D01*
X129698129Y-104523471D01*
X129691525Y-104593041D01*
X129672135Y-104656618D01*
X129639815Y-104715562D01*
X129593410Y-104770828D01*
X129538133Y-104815106D01*
X129473453Y-104847333D01*
X129397537Y-104867547D01*
X129307951Y-104874692D01*
X129221344Y-104867650D01*
X129146920Y-104847596D01*
X129082518Y-104815387D01*
X129026523Y-104770828D01*
X128979681Y-104715528D01*
X128946936Y-104655939D01*
X128927206Y-104591042D01*
X128920512Y-104519930D01*
X129061144Y-104519930D01*
X129067966Y-104569386D01*
X129088334Y-104614327D01*
X129123670Y-104656278D01*
X129156394Y-104680644D01*
X129195986Y-104698751D01*
X129243840Y-104710322D01*
X129301723Y-104714469D01*
X129365485Y-104710074D01*
X129417200Y-104697927D01*
X129459051Y-104679136D01*
X129492782Y-104654141D01*
X129529419Y-104610729D01*
X129550436Y-104564692D01*
X129557445Y-104514495D01*
X129550365Y-104463427D01*
X129529287Y-104417398D01*
X129492782Y-104374788D01*
X129459032Y-104349960D01*
X129418903Y-104331632D01*
X129371148Y-104320005D01*
X129314180Y-104315865D01*
X129256540Y-104320046D01*
X129207513Y-104331860D01*
X129165658Y-104350606D01*
X129129837Y-104376132D01*
X129099040Y-104408679D01*
X129077915Y-104443062D01*
X129065386Y-104479853D01*
X129061144Y-104519930D01*
X128920512Y-104519930D01*
X128920460Y-104519380D01*
X128927401Y-104445767D01*
X128947732Y-104378853D01*
X128981531Y-104317171D01*
X129029942Y-104259689D01*
X129087925Y-104212655D01*
X129152205Y-104179245D01*
X129224048Y-104158807D01*
X129305204Y-104151734D01*
X129387724Y-104158849D01*
G37*
G36*
X128940000Y-105133590D02*
G01*
X128940000Y-104985090D01*
X129678590Y-104985090D01*
X129678590Y-105134933D01*
X129644274Y-105134933D01*
X129674679Y-105175363D01*
X129692261Y-105217838D01*
X129698129Y-105263588D01*
X129692912Y-105308260D01*
X129678158Y-105344613D01*
X129654049Y-105374551D01*
X129619239Y-105399021D01*
X129654038Y-105432055D01*
X129678304Y-105469321D01*
X129693026Y-105511678D01*
X129698129Y-105560526D01*
X129693763Y-105603855D01*
X129681463Y-105639449D01*
X129661679Y-105668938D01*
X129633832Y-105693333D01*
X129600850Y-105710789D01*
X129552475Y-105722908D01*
X129483501Y-105727588D01*
X129457550Y-105727588D01*
X128938046Y-105727588D01*
X128938046Y-105575181D01*
X129449490Y-105575181D01*
X129490645Y-105575181D01*
X129528734Y-105572700D01*
X129549569Y-105566938D01*
X129570569Y-105548731D01*
X129576985Y-105527004D01*
X129572621Y-105498854D01*
X129560082Y-105476370D01*
X129538639Y-105458128D01*
X129493454Y-105434741D01*
X129452360Y-105430589D01*
X128940000Y-105430589D01*
X128940000Y-105278182D01*
X129441308Y-105278182D01*
X129473975Y-105278182D01*
X129508186Y-105276565D01*
X129527159Y-105272808D01*
X129548929Y-105261626D01*
X129561054Y-105245992D01*
X129565261Y-105224631D01*
X129560108Y-105201517D01*
X129543389Y-105178673D01*
X129510734Y-105155022D01*
X129471146Y-105139254D01*
X129420853Y-105133590D01*
X128940000Y-105133590D01*
G37*
G36*
X128863490Y-105990516D02*
G01*
X128930413Y-105857892D01*
X130024560Y-106382892D01*
X129959042Y-106518203D01*
X128863490Y-105990516D01*
G37*
G36*
X129541814Y-106802257D02*
G01*
X129682498Y-106802257D01*
X129682498Y-107237986D01*
X129005396Y-107237986D01*
X128925565Y-107233349D01*
X128864480Y-107220923D01*
X128818367Y-107202449D01*
X128770325Y-107171813D01*
X128731019Y-107133563D01*
X128699603Y-107086983D01*
X128676846Y-107035182D01*
X128663227Y-106981023D01*
X128658632Y-106923768D01*
X128663390Y-106864108D01*
X128677123Y-106811113D01*
X128699466Y-106763624D01*
X128730660Y-106720759D01*
X128771533Y-106681967D01*
X128783928Y-106671038D01*
X128914781Y-106769467D01*
X128901165Y-106787175D01*
X128885533Y-106800120D01*
X128871245Y-106804944D01*
X128865811Y-106804944D01*
X128830971Y-106839729D01*
X128810376Y-106881257D01*
X128803224Y-106931767D01*
X128808514Y-106975229D01*
X128823446Y-107010174D01*
X128847902Y-107038596D01*
X128883457Y-107061399D01*
X128921016Y-107072944D01*
X128985490Y-107077763D01*
X129541814Y-107077763D01*
X129541814Y-106802257D01*
G37*
G36*
X129899385Y-107054316D02*
G01*
X129926276Y-107057765D01*
X129950309Y-107067947D01*
X129972292Y-107085334D01*
X129989369Y-107107556D01*
X129999486Y-107132322D01*
X130002944Y-107160500D01*
X129999536Y-107188702D01*
X129989617Y-107213235D01*
X129972964Y-107234994D01*
X129951415Y-107251882D01*
X129927186Y-107261905D01*
X129899385Y-107265341D01*
X129872533Y-107261895D01*
X129848499Y-107251716D01*
X129826479Y-107234323D01*
X129809405Y-107212100D01*
X129799287Y-107187314D01*
X129795826Y-107159096D01*
X129799184Y-107131802D01*
X129809057Y-107107481D01*
X129825807Y-107085334D01*
X129847404Y-107068044D01*
X129871630Y-107057816D01*
X129899385Y-107054316D01*
G37*
G36*
X129187384Y-107521585D02*
G01*
X129230207Y-107537116D01*
X129271864Y-107563867D01*
X129307336Y-107598769D01*
X129337752Y-107643750D01*
X129362967Y-107700643D01*
X129380118Y-107767402D01*
X129392431Y-107866011D01*
X129397222Y-108005947D01*
X129397222Y-108030676D01*
X129401252Y-108030676D01*
X129449878Y-108027773D01*
X129482578Y-108020417D01*
X129503651Y-108010160D01*
X129525795Y-107989611D01*
X129542435Y-107961618D01*
X129553383Y-107924245D01*
X129557445Y-107874788D01*
X129552313Y-107813427D01*
X129537747Y-107761212D01*
X129514400Y-107716474D01*
X129482096Y-107677990D01*
X129464572Y-107661564D01*
X129571917Y-107578155D01*
X129584129Y-107590490D01*
X129631786Y-107647105D01*
X129665862Y-107711323D01*
X129686884Y-107784636D01*
X129694221Y-107869110D01*
X129688329Y-107947987D01*
X129671918Y-108012763D01*
X129646239Y-108065998D01*
X129611612Y-108109673D01*
X129567398Y-108145043D01*
X129522856Y-108165918D01*
X129465666Y-108179631D01*
X129392704Y-108184672D01*
X128938473Y-108184672D01*
X128938473Y-108033424D01*
X128999351Y-108033424D01*
X128964391Y-107974509D01*
X128939934Y-107914373D01*
X128925353Y-107852427D01*
X128922221Y-107811163D01*
X129053328Y-107811163D01*
X129057848Y-107861211D01*
X129071140Y-107907295D01*
X129093276Y-107950298D01*
X129124952Y-107990865D01*
X129156339Y-108015753D01*
X129193652Y-108030870D01*
X129238647Y-108036172D01*
X129264354Y-108036172D01*
X129264354Y-108030676D01*
X129264354Y-107942871D01*
X129261497Y-107844567D01*
X129254890Y-107790586D01*
X129236267Y-107737098D01*
X129212208Y-107704063D01*
X129181284Y-107683205D01*
X129149377Y-107676646D01*
X129124853Y-107680462D01*
X129102586Y-107691960D01*
X129081721Y-107712306D01*
X129066612Y-107737620D01*
X129056878Y-107769944D01*
X129053328Y-107811163D01*
X128922221Y-107811163D01*
X128920460Y-107787960D01*
X128924896Y-107728014D01*
X128937528Y-107676191D01*
X128957743Y-107631149D01*
X128985490Y-107591833D01*
X129020698Y-107558064D01*
X129058105Y-107534875D01*
X129098347Y-107521097D01*
X129142416Y-107516423D01*
X129187384Y-107521585D01*
G37*
G36*
X128940000Y-108547616D02*
G01*
X128940000Y-108384951D01*
X129678590Y-108384951D01*
X129678590Y-108547616D01*
X129588892Y-108547616D01*
X129638374Y-108600736D01*
X129671924Y-108655193D01*
X129691562Y-108711826D01*
X129698129Y-108771892D01*
X129694115Y-108818280D01*
X129682289Y-108861326D01*
X129662592Y-108901769D01*
X129635761Y-108937642D01*
X129602772Y-108966658D01*
X129562880Y-108989330D01*
X129520720Y-109004057D01*
X129462909Y-109014190D01*
X129385315Y-109018028D01*
X128940000Y-109018028D01*
X128940000Y-108861713D01*
X129376278Y-108861713D01*
X129443052Y-108856742D01*
X129487821Y-108844084D01*
X129516718Y-108826053D01*
X129537128Y-108802048D01*
X129549314Y-108774113D01*
X129553538Y-108740996D01*
X129546699Y-108696601D01*
X129524900Y-108649771D01*
X129494392Y-108607764D01*
X129464938Y-108579185D01*
X129436937Y-108562263D01*
X129402077Y-108551499D01*
X129358571Y-108547616D01*
X128940000Y-108547616D01*
G37*
G36*
X129380678Y-109191826D02*
G01*
X129446881Y-109205362D01*
X129503951Y-109226773D01*
X129553228Y-109255661D01*
X129595730Y-109292130D01*
X129640650Y-109347760D01*
X129672316Y-109408298D01*
X129691529Y-109474809D01*
X129698129Y-109548768D01*
X129690918Y-109620424D01*
X129669609Y-109686606D01*
X129633771Y-109748742D01*
X129598524Y-109788024D01*
X129554112Y-109820143D01*
X129498999Y-109845240D01*
X129431050Y-109862742D01*
X129389008Y-109868808D01*
X129342023Y-109870924D01*
X129290000Y-109868176D01*
X129272170Y-109866833D01*
X129272170Y-109712594D01*
X129405038Y-109712594D01*
X129409068Y-109712594D01*
X129450891Y-109707084D01*
X129487447Y-109690932D01*
X129520137Y-109663440D01*
X129544963Y-109628431D01*
X129560021Y-109587994D01*
X129565261Y-109540586D01*
X129561148Y-109500769D01*
X129548761Y-109462337D01*
X129527526Y-109424570D01*
X129498645Y-109393314D01*
X129458736Y-109368642D01*
X129405038Y-109350870D01*
X129405038Y-109712594D01*
X129272170Y-109712594D01*
X129272170Y-109344031D01*
X129214701Y-109354674D01*
X129169844Y-109371860D01*
X129135168Y-109394737D01*
X129108893Y-109423227D01*
X129082340Y-109469686D01*
X129066511Y-109519377D01*
X129061144Y-109573375D01*
X129066065Y-109625921D01*
X129080260Y-109671986D01*
X129103509Y-109712856D01*
X129136432Y-109749413D01*
X129152552Y-109763091D01*
X129062487Y-109857247D01*
X129047283Y-109844973D01*
X129003432Y-109801880D01*
X128969551Y-109753174D01*
X128944980Y-109698084D01*
X128929706Y-109635449D01*
X128924368Y-109563789D01*
X128931063Y-109483205D01*
X128950323Y-109412381D01*
X128981602Y-109349570D01*
X129025301Y-109293473D01*
X129067553Y-109256045D01*
X129115554Y-109226721D01*
X129170129Y-109205222D01*
X129232402Y-109191763D01*
X129303738Y-109187044D01*
X129380678Y-109191826D01*
G37*
G36*
X128940000Y-110055572D02*
G01*
X130018576Y-110055572D01*
X130018576Y-110227152D01*
X130002151Y-110231427D01*
X129986397Y-110231427D01*
X129974795Y-110227946D01*
X129966613Y-110219275D01*
X129962522Y-110215795D01*
X129959774Y-110215795D01*
X129955683Y-110215795D01*
X129369256Y-110215795D01*
X129687749Y-110559872D01*
X129685062Y-110570741D01*
X129680267Y-110600435D01*
X129678224Y-110652623D01*
X129678224Y-110746840D01*
X129377438Y-110410518D01*
X128940000Y-110790621D01*
X128940000Y-110745497D01*
X128940000Y-110734567D01*
X128934504Y-110596448D01*
X128933161Y-110585518D01*
X129302273Y-110290228D01*
X129232541Y-110214391D01*
X128940000Y-110214391D01*
X128940000Y-110055572D01*
G37*
G36*
X129548103Y-111562367D02*
G01*
X129534487Y-111570549D01*
X129411571Y-111465280D01*
X129422501Y-111448855D01*
X129442285Y-111433834D01*
X129460725Y-111431086D01*
X129467564Y-111432491D01*
X129495469Y-111409227D01*
X129510689Y-111390180D01*
X129532349Y-111351769D01*
X129548191Y-111307896D01*
X129553538Y-111260177D01*
X129546262Y-111199000D01*
X129525197Y-111146344D01*
X129490034Y-111100198D01*
X129456439Y-111072628D01*
X129417650Y-111052719D01*
X129372660Y-111040321D01*
X129320102Y-111035963D01*
X129264882Y-111040470D01*
X129217033Y-111053352D01*
X129175254Y-111074122D01*
X129138569Y-111102946D01*
X129108010Y-111138665D01*
X129086506Y-111177829D01*
X129073453Y-111221176D01*
X129068960Y-111269764D01*
X129074148Y-111320457D01*
X129089422Y-111366772D01*
X129115046Y-111409799D01*
X129152185Y-111450259D01*
X129169954Y-111466624D01*
X129059312Y-111560963D01*
X129045573Y-111548689D01*
X129000063Y-111499367D01*
X128965381Y-111446530D01*
X128940673Y-111389630D01*
X128925621Y-111327856D01*
X128920460Y-111260177D01*
X128927661Y-111179355D01*
X128948528Y-111107451D01*
X128982766Y-111042744D01*
X129031163Y-110984000D01*
X129089895Y-110935667D01*
X129154801Y-110901423D01*
X129227144Y-110880520D01*
X129308684Y-110873297D01*
X129390272Y-110880541D01*
X129462378Y-110901473D01*
X129526810Y-110935715D01*
X129584862Y-110984000D01*
X129632298Y-111042598D01*
X129666161Y-111108286D01*
X129686984Y-111182457D01*
X129694221Y-111267016D01*
X129689821Y-111328991D01*
X129676994Y-111385675D01*
X129655997Y-111437925D01*
X129626880Y-111485976D01*
X129591067Y-111527253D01*
X129548103Y-111562367D01*
G37*
D11*
G36*
X132322472Y-101573934D02*
G01*
X132434007Y-101551918D01*
X132528819Y-101488282D01*
X132531482Y-101485640D01*
X132579413Y-101525114D01*
X132634226Y-101553888D01*
X132741409Y-101573934D01*
X132854408Y-101551908D01*
X132949927Y-101488399D01*
X132986919Y-101443159D01*
X133014350Y-101390902D01*
X133035600Y-101279926D01*
X133013571Y-101167032D01*
X132950040Y-101071566D01*
X132904776Y-101034588D01*
X132852485Y-101007165D01*
X132741409Y-100985919D01*
X132629085Y-101007964D01*
X132533951Y-101071587D01*
X132531482Y-101074030D01*
X132483732Y-101034585D01*
X132429157Y-101005879D01*
X132322472Y-100985919D01*
X132210500Y-101007964D01*
X132115746Y-101071578D01*
X132113278Y-101074030D01*
X132065754Y-101034665D01*
X132011357Y-101005986D01*
X131904267Y-100985919D01*
X131792453Y-101007964D01*
X131697677Y-101071625D01*
X131695256Y-101074030D01*
X131645954Y-101034104D01*
X131590002Y-101005242D01*
X131484596Y-100985919D01*
X131371910Y-101007944D01*
X131276509Y-101071503D01*
X131239542Y-101116794D01*
X131212133Y-101169110D01*
X131190956Y-101279926D01*
X131212976Y-101392821D01*
X131276489Y-101488329D01*
X131321733Y-101525325D01*
X131373980Y-101552748D01*
X131484596Y-101573934D01*
X131596376Y-101551918D01*
X131691268Y-101488324D01*
X131693974Y-101485640D01*
X131741761Y-101525117D01*
X131796431Y-101553892D01*
X131903351Y-101573934D01*
X132015131Y-101551918D01*
X132110022Y-101488324D01*
X132112728Y-101485640D01*
X132161310Y-101525445D01*
X132216686Y-101554328D01*
X132322472Y-101573934D01*
G37*
G36*
X131484596Y-100733860D02*
G01*
X131596655Y-100711815D01*
X131691510Y-100648196D01*
X131693974Y-100645750D01*
X131741637Y-100685111D01*
X131796151Y-100713789D01*
X131903351Y-100733860D01*
X132015877Y-100711835D01*
X132111086Y-100648285D01*
X132147981Y-100602982D01*
X132175328Y-100550650D01*
X132196442Y-100439853D01*
X132174420Y-100326812D01*
X132110925Y-100231260D01*
X132065725Y-100194296D01*
X132013527Y-100166917D01*
X131903351Y-100145846D01*
X131791571Y-100167861D01*
X131696680Y-100231455D01*
X131693974Y-100234139D01*
X131646187Y-100194662D01*
X131591517Y-100165887D01*
X131484596Y-100145846D01*
X131371910Y-100167871D01*
X131276509Y-100231430D01*
X131239542Y-100276721D01*
X131212133Y-100329037D01*
X131190956Y-100439853D01*
X131212976Y-100552748D01*
X131276489Y-100648256D01*
X131321733Y-100685252D01*
X131373980Y-100712675D01*
X131484596Y-100733860D01*
G37*
G36*
X131360765Y-100859890D02*
G01*
X131338735Y-100746922D01*
X131275210Y-100651442D01*
X131229965Y-100614483D01*
X131177690Y-100587081D01*
X131066758Y-100565882D01*
X130953891Y-100587908D01*
X130858488Y-100651420D01*
X130821536Y-100696675D01*
X130794140Y-100748950D01*
X130772934Y-100859890D01*
X130794962Y-100972858D01*
X130858481Y-101068352D01*
X130903719Y-101105317D01*
X130955979Y-101132718D01*
X131066758Y-101153897D01*
X131179729Y-101131871D01*
X131275172Y-101068375D01*
X131312132Y-101023137D01*
X131339536Y-100970882D01*
X131360765Y-100859890D01*
G37*
G36*
X132025533Y-102119267D02*
G01*
X132047578Y-102231748D01*
X132111154Y-102326860D01*
X132113644Y-102329377D01*
X132074203Y-102377278D01*
X132045498Y-102432047D01*
X132025533Y-102539303D01*
X132047564Y-102652271D01*
X132111089Y-102747751D01*
X132156334Y-102784710D01*
X132208609Y-102812112D01*
X132319541Y-102833311D01*
X132432435Y-102811285D01*
X132527915Y-102747760D01*
X132564899Y-102702503D01*
X132592322Y-102650226D01*
X132613548Y-102539303D01*
X132591533Y-102427188D01*
X132527987Y-102332141D01*
X132525254Y-102329377D01*
X132564728Y-102281442D01*
X132593503Y-102226604D01*
X132613548Y-102119267D01*
X132591523Y-102006372D01*
X132527997Y-101910892D01*
X132482740Y-101873908D01*
X132430463Y-101846485D01*
X132319541Y-101825259D01*
X132206569Y-101847285D01*
X132111127Y-101910781D01*
X132074167Y-101956019D01*
X132046763Y-102008274D01*
X132025533Y-102119267D01*
G37*
G36*
X131477086Y-103253347D02*
G01*
X131589288Y-103231332D01*
X131684437Y-103167781D01*
X131687196Y-103165054D01*
X131734962Y-103204362D01*
X131789728Y-103233081D01*
X131898405Y-103253347D01*
X132011926Y-103231322D01*
X132107642Y-103167895D01*
X132144675Y-103122738D01*
X132172143Y-103070580D01*
X132193511Y-102959340D01*
X132171470Y-102846445D01*
X132107909Y-102751051D01*
X132062612Y-102714103D01*
X132010246Y-102686679D01*
X131898405Y-102665333D01*
X131839309Y-102671019D01*
X131785118Y-102687378D01*
X131689891Y-102750779D01*
X131687196Y-102753443D01*
X131682983Y-102749230D01*
X131722424Y-102701329D01*
X131751128Y-102646560D01*
X131771093Y-102539303D01*
X131749048Y-102426909D01*
X131685477Y-102331898D01*
X131682983Y-102329377D01*
X131722341Y-102281567D01*
X131751018Y-102226885D01*
X131771093Y-102119267D01*
X131750720Y-102007115D01*
X131688715Y-101911994D01*
X131644020Y-101874893D01*
X131592230Y-101847245D01*
X131479467Y-101825259D01*
X131367352Y-101847275D01*
X131272305Y-101910821D01*
X131269541Y-101913553D01*
X131222009Y-101873897D01*
X131167643Y-101845062D01*
X131062545Y-101825259D01*
X130951310Y-101847285D01*
X130857184Y-101910888D01*
X130820660Y-101956341D01*
X130793631Y-102008859D01*
X130772934Y-102119267D01*
X130794951Y-102232975D01*
X130858328Y-102328801D01*
X130903293Y-102365650D01*
X130955188Y-102392829D01*
X131062545Y-102413274D01*
X131173318Y-102391229D01*
X131267177Y-102327535D01*
X131269541Y-102325163D01*
X131273754Y-102329377D01*
X131233859Y-102375828D01*
X131204792Y-102428775D01*
X131183262Y-102539303D01*
X131191535Y-102600931D01*
X131210448Y-102657197D01*
X131273754Y-102749230D01*
X131269541Y-102753443D01*
X131222133Y-102713904D01*
X131167923Y-102685167D01*
X131062545Y-102665333D01*
X130951310Y-102687358D01*
X130857184Y-102750962D01*
X130820660Y-102796415D01*
X130793631Y-102848932D01*
X130772934Y-102959340D01*
X130794951Y-103073048D01*
X130858328Y-103168874D01*
X130903293Y-103205723D01*
X130955188Y-103232902D01*
X131062545Y-103253347D01*
X131173043Y-103231332D01*
X131266937Y-103167663D01*
X131269541Y-103165054D01*
X131314527Y-103203507D01*
X131366734Y-103231926D01*
X131477086Y-103253347D01*
G37*
G36*
X132113644Y-104008790D02*
G01*
X132074203Y-104056692D01*
X132045498Y-104111460D01*
X132025533Y-104218717D01*
X132047564Y-104331685D01*
X132111089Y-104427165D01*
X132156334Y-104464124D01*
X132208609Y-104491526D01*
X132319541Y-104512725D01*
X132432435Y-104490699D01*
X132527915Y-104427174D01*
X132564899Y-104381916D01*
X132592322Y-104329640D01*
X132613548Y-104218717D01*
X132591533Y-104106602D01*
X132527987Y-104011555D01*
X132525254Y-104008790D01*
X132564728Y-103960856D01*
X132593503Y-103906018D01*
X132613548Y-103798681D01*
X132591523Y-103685786D01*
X132527997Y-103590306D01*
X132482740Y-103553322D01*
X132430463Y-103525899D01*
X132319541Y-103504673D01*
X132207338Y-103526689D01*
X132112190Y-103590240D01*
X132109431Y-103592967D01*
X132061069Y-103553069D01*
X132006074Y-103524156D01*
X131902252Y-103504673D01*
X131792548Y-103526689D01*
X131699491Y-103590348D01*
X131696905Y-103592967D01*
X131646166Y-103552415D01*
X131588924Y-103523298D01*
X131485696Y-103504673D01*
X131374180Y-103526689D01*
X131279568Y-103590279D01*
X131276868Y-103592967D01*
X131228933Y-103553493D01*
X131174095Y-103524719D01*
X131066758Y-103504673D01*
X130953891Y-103526699D01*
X130858488Y-103590211D01*
X130821536Y-103635466D01*
X130794140Y-103687741D01*
X130772934Y-103798681D01*
X130794962Y-103911649D01*
X130858481Y-104007143D01*
X130903719Y-104044108D01*
X130955979Y-104071509D01*
X131066758Y-104092688D01*
X131179240Y-104070643D01*
X131274352Y-104007067D01*
X131276868Y-104004577D01*
X131324675Y-104043935D01*
X131379331Y-104072612D01*
X131486795Y-104092688D01*
X131599276Y-104070643D01*
X131694388Y-104007067D01*
X131696905Y-104004577D01*
X131743882Y-104044128D01*
X131797666Y-104072869D01*
X131902252Y-104092688D01*
X132012563Y-104070643D01*
X132109431Y-104004577D01*
X132113644Y-104008790D01*
G37*
G36*
X131486795Y-104932761D02*
G01*
X131598997Y-104910746D01*
X131694145Y-104847195D01*
X131696905Y-104844467D01*
X131744404Y-104883951D01*
X131798788Y-104912729D01*
X131905183Y-104932761D01*
X132017181Y-104910736D01*
X132111926Y-104847170D01*
X132148660Y-104801808D01*
X132175869Y-104749403D01*
X132196809Y-104638754D01*
X132174788Y-104525418D01*
X132111342Y-104429751D01*
X132066243Y-104392840D01*
X132014172Y-104365549D01*
X131905183Y-104344747D01*
X131793655Y-104366792D01*
X131699359Y-104430404D01*
X131696905Y-104432857D01*
X131646307Y-104392431D01*
X131589240Y-104363415D01*
X131485696Y-104344747D01*
X131373902Y-104366792D01*
X131279327Y-104430407D01*
X131276868Y-104432857D01*
X131229058Y-104393499D01*
X131174376Y-104364822D01*
X131066758Y-104344747D01*
X130953891Y-104366772D01*
X130858488Y-104430285D01*
X130821536Y-104475540D01*
X130794140Y-104527814D01*
X130772934Y-104638754D01*
X130794962Y-104751722D01*
X130858481Y-104847216D01*
X130903719Y-104884181D01*
X130955979Y-104911583D01*
X131066758Y-104932761D01*
X131178960Y-104910746D01*
X131274109Y-104847195D01*
X131276868Y-104844467D01*
X131324799Y-104883942D01*
X131379612Y-104912716D01*
X131486795Y-104932761D01*
G37*
G36*
X131482948Y-105772102D02*
G01*
X131592612Y-105750057D01*
X131689211Y-105683991D01*
X131693424Y-105688204D01*
X131653983Y-105736106D01*
X131625279Y-105790874D01*
X131605314Y-105898131D01*
X131627359Y-106010526D01*
X131690930Y-106105537D01*
X131693424Y-106108058D01*
X131654066Y-106155868D01*
X131625389Y-106210550D01*
X131605314Y-106318168D01*
X131627341Y-106431136D01*
X131690860Y-106526630D01*
X131736099Y-106563595D01*
X131788359Y-106590996D01*
X131899138Y-106612175D01*
X132012109Y-106590150D01*
X132107552Y-106526653D01*
X132144511Y-106481415D01*
X132171915Y-106429161D01*
X132193145Y-106318168D01*
X132171100Y-106205686D01*
X132107524Y-106110574D01*
X132105034Y-106108058D01*
X132109248Y-106104028D01*
X132157058Y-106143386D01*
X132211739Y-106172063D01*
X132319357Y-106192138D01*
X132432280Y-106170113D01*
X132527836Y-106106575D01*
X132564852Y-106061315D01*
X132592302Y-106009037D01*
X132613548Y-105898131D01*
X132591525Y-105785309D01*
X132527993Y-105689844D01*
X132482717Y-105652841D01*
X132430424Y-105625397D01*
X132319357Y-105604124D01*
X132207155Y-105626139D01*
X132112007Y-105689690D01*
X132109248Y-105692418D01*
X132105034Y-105688204D01*
X132144393Y-105640394D01*
X132173069Y-105585713D01*
X132193145Y-105478094D01*
X132171114Y-105365126D01*
X132107590Y-105269647D01*
X132062344Y-105232688D01*
X132010069Y-105205286D01*
X131899138Y-105184087D01*
X131787093Y-105206103D01*
X131691923Y-105269700D01*
X131689211Y-105272381D01*
X131640669Y-105232309D01*
X131585574Y-105203341D01*
X131482948Y-105184087D01*
X131372244Y-105206113D01*
X131277586Y-105269994D01*
X131240773Y-105315609D01*
X131213508Y-105368309D01*
X131192787Y-105478094D01*
X131214756Y-105590989D01*
X131278157Y-105686770D01*
X131323277Y-105723882D01*
X131375234Y-105751301D01*
X131482948Y-105772102D01*
G37*
G36*
X131360765Y-106318168D02*
G01*
X131338720Y-106205686D01*
X131275144Y-106110574D01*
X131272655Y-106108058D01*
X131312096Y-106060156D01*
X131340800Y-106005388D01*
X131360765Y-105898131D01*
X131338735Y-105785163D01*
X131275210Y-105689683D01*
X131229965Y-105652724D01*
X131177690Y-105625322D01*
X131066758Y-105604124D01*
X130953891Y-105626149D01*
X130858488Y-105689662D01*
X130821536Y-105734917D01*
X130794140Y-105787191D01*
X130772934Y-105898131D01*
X130794979Y-106010526D01*
X130858550Y-106105537D01*
X130861045Y-106108058D01*
X130821686Y-106155868D01*
X130793010Y-106210550D01*
X130772934Y-106318168D01*
X130794962Y-106431136D01*
X130858481Y-106526630D01*
X130903719Y-106563595D01*
X130955979Y-106590996D01*
X131066758Y-106612175D01*
X131179729Y-106590150D01*
X131275172Y-106526653D01*
X131312132Y-106481415D01*
X131339536Y-106429161D01*
X131360765Y-106318168D01*
G37*
G36*
X131177690Y-107724773D02*
G01*
X131229965Y-107752175D01*
X131275210Y-107789134D01*
X131338735Y-107884614D01*
X131360765Y-107997581D01*
X131339536Y-108108574D01*
X131312132Y-108160829D01*
X131275172Y-108206067D01*
X131179729Y-108269563D01*
X131066758Y-108291589D01*
X130955979Y-108270410D01*
X130903719Y-108243009D01*
X130858481Y-108206044D01*
X130794962Y-108110549D01*
X130772934Y-107997581D01*
X130794140Y-107886642D01*
X130821536Y-107834367D01*
X130858488Y-107789112D01*
X130953891Y-107725600D01*
X131066758Y-107703574D01*
X131177690Y-107724773D01*
G37*
G36*
X132430654Y-107724652D02*
G01*
X132482838Y-107752053D01*
X132528044Y-107789048D01*
X132591534Y-107884614D01*
X132613548Y-107997581D01*
X132592318Y-108108574D01*
X132564914Y-108160829D01*
X132527955Y-108206067D01*
X132432512Y-108269563D01*
X132319541Y-108291589D01*
X132208609Y-108270390D01*
X132156334Y-108242988D01*
X132111089Y-108206029D01*
X132047564Y-108110549D01*
X132025533Y-107997581D01*
X132046906Y-107886272D01*
X132074355Y-107834135D01*
X132111363Y-107788997D01*
X132207042Y-107725600D01*
X132320640Y-107703574D01*
X132430654Y-107724652D01*
G37*
G36*
X132852485Y-106884747D02*
G01*
X132904776Y-106912170D01*
X132950040Y-106949148D01*
X133013571Y-107044614D01*
X133035600Y-107157508D01*
X133014350Y-107268484D01*
X132986919Y-107320741D01*
X132949927Y-107365981D01*
X132854408Y-107429490D01*
X132741409Y-107451516D01*
X132633945Y-107431440D01*
X132579289Y-107402763D01*
X132531482Y-107363405D01*
X132529052Y-107365802D01*
X132433717Y-107429471D01*
X132321372Y-107451516D01*
X132213754Y-107431440D01*
X132159073Y-107402763D01*
X132111263Y-107363405D01*
X132107049Y-107367618D01*
X132109782Y-107370383D01*
X132173328Y-107465429D01*
X132195343Y-107577545D01*
X132174189Y-107688308D01*
X132146788Y-107740644D01*
X132109829Y-107785951D01*
X132014467Y-107849527D01*
X131901885Y-107871552D01*
X131795563Y-107851703D01*
X131740900Y-107822970D01*
X131693058Y-107783442D01*
X131690599Y-107785891D01*
X131596023Y-107849507D01*
X131484230Y-107871552D01*
X131373919Y-107850407D01*
X131321703Y-107822984D01*
X131276472Y-107785976D01*
X131212970Y-107690440D01*
X131190956Y-107577545D01*
X131210889Y-107470571D01*
X131239691Y-107415645D01*
X131279249Y-107367618D01*
X131689028Y-107367618D01*
X131693241Y-107371831D01*
X131697271Y-107367618D01*
X131693241Y-107363405D01*
X131689028Y-107367618D01*
X131279249Y-107367618D01*
X131275036Y-107363405D01*
X131273003Y-107365421D01*
X131177661Y-107429471D01*
X131066758Y-107451516D01*
X130955979Y-107430337D01*
X130903719Y-107402935D01*
X130858481Y-107365970D01*
X130794962Y-107270476D01*
X130772934Y-107157508D01*
X130794140Y-107046569D01*
X130821536Y-106994294D01*
X130858488Y-106949039D01*
X130953891Y-106885526D01*
X131066758Y-106863501D01*
X131176557Y-106884608D01*
X131229380Y-106913110D01*
X131275036Y-106951795D01*
X131277662Y-106949198D01*
X131372674Y-106885516D01*
X131484230Y-106863501D01*
X131590888Y-106883538D01*
X131645415Y-106912314D01*
X131693058Y-106951795D01*
X131695726Y-106949147D01*
X131790436Y-106885516D01*
X131901885Y-106863501D01*
X132008397Y-106883435D01*
X132063247Y-106912237D01*
X132111263Y-106951795D01*
X132114022Y-106949067D01*
X132209170Y-106885516D01*
X132321372Y-106863501D01*
X132428301Y-106883439D01*
X132483319Y-106912240D01*
X132531482Y-106951795D01*
X132534194Y-106949114D01*
X132629365Y-106885516D01*
X132741409Y-106863501D01*
X132852485Y-106884747D01*
G37*
D10*
X122119673Y-133486266D02*
X122881578Y-133486266D01*
X123691101Y-133343409D02*
X123833958Y-133391028D01*
X123833958Y-133391028D02*
X123881577Y-133438647D01*
X123881577Y-133438647D02*
X123929196Y-133533885D01*
X123929196Y-133533885D02*
X123929196Y-133676742D01*
X123929196Y-133676742D02*
X123881577Y-133771980D01*
X123881577Y-133771980D02*
X123833958Y-133819600D01*
X123833958Y-133819600D02*
X123738720Y-133867219D01*
X123738720Y-133867219D02*
X123357768Y-133867219D01*
X123357768Y-133867219D02*
X123357768Y-132867219D01*
X123357768Y-132867219D02*
X123691101Y-132867219D01*
X123691101Y-132867219D02*
X123786339Y-132914838D01*
X123786339Y-132914838D02*
X123833958Y-132962457D01*
X123833958Y-132962457D02*
X123881577Y-133057695D01*
X123881577Y-133057695D02*
X123881577Y-133152933D01*
X123881577Y-133152933D02*
X123833958Y-133248171D01*
X123833958Y-133248171D02*
X123786339Y-133295790D01*
X123786339Y-133295790D02*
X123691101Y-133343409D01*
X123691101Y-133343409D02*
X123357768Y-133343409D01*
X124310149Y-133581504D02*
X124786339Y-133581504D01*
X124214911Y-133867219D02*
X124548244Y-132867219D01*
X124548244Y-132867219D02*
X124881577Y-133867219D01*
X125072054Y-132867219D02*
X125643482Y-132867219D01*
X125357768Y-133867219D02*
X125357768Y-132867219D01*
X126795383Y-228785088D02*
X126795383Y-227238422D01*
X127568716Y-228011755D02*
X126022050Y-228011755D01*
X126595383Y-140345088D02*
X126595383Y-138798422D01*
X164155383Y-229971577D02*
X164155383Y-228424911D01*
X163955383Y-141531577D02*
X163955383Y-139984911D01*
X164728716Y-140758244D02*
X163182050Y-140758244D01*
D12*
%TO.C,C9*%
X146428733Y-77555000D02*
X146721267Y-77555000D01*
X146428733Y-78575000D02*
X146721267Y-78575000D01*
D13*
%TO.C,Q6*%
X144295000Y-55085000D02*
X145755000Y-55085000D01*
X144295000Y-57075000D02*
X144295000Y-56155000D01*
X144295000Y-58145000D02*
X145755000Y-58145000D01*
X145755000Y-55085000D02*
X145755000Y-56125000D01*
X145755000Y-58145000D02*
X145755000Y-57105000D01*
D12*
%TO.C,C17*%
X150865000Y-58568733D02*
X150865000Y-58861267D01*
X151885000Y-58568733D02*
X151885000Y-58861267D01*
%TO.C,RVM1*%
X127529724Y-58092500D02*
X127020276Y-58092500D01*
X127529724Y-59137500D02*
X127020276Y-59137500D01*
%TO.C,R5*%
X165452500Y-78069724D02*
X165452500Y-77560276D01*
X166497500Y-78069724D02*
X166497500Y-77560276D01*
%TO.C,R18*%
X163765000Y-93902064D02*
X163765000Y-92447936D01*
X165585000Y-93902064D02*
X165585000Y-92447936D01*
%TO.C,Rccv2*%
X167252500Y-79369724D02*
X167252500Y-78860276D01*
X168297500Y-79369724D02*
X168297500Y-78860276D01*
%TO.C,R19*%
X162852500Y-78069724D02*
X162852500Y-77560276D01*
X163897500Y-78069724D02*
X163897500Y-77560276D01*
D13*
%TO.C,U1*%
X157425000Y-66575000D02*
X167285000Y-66575000D01*
X157425000Y-70115000D02*
X157425000Y-66575000D01*
X167285000Y-66575000D02*
X167285000Y-70115000D01*
X167285000Y-70115000D02*
X157425000Y-70115000D01*
D14*
X166735000Y-67325000D02*
G75*
G02*
X166435000Y-67325000I-150000J0D01*
G01*
X166435000Y-67325000D02*
G75*
G02*
X166735000Y-67325000I150000J0D01*
G01*
X167355000Y-65475000D02*
G75*
G02*
X167055000Y-65475000I-150000J0D01*
G01*
X167055000Y-65475000D02*
G75*
G02*
X167355000Y-65475000I150000J0D01*
G01*
D12*
%TO.C,C7*%
X155965000Y-70168733D02*
X155965000Y-70461267D01*
X156985000Y-70168733D02*
X156985000Y-70461267D01*
%TO.C,C5*%
X161728733Y-73905000D02*
X162021267Y-73905000D01*
X161728733Y-74925000D02*
X162021267Y-74925000D01*
%TO.C,RDO1*%
X143629724Y-62392500D02*
X143120276Y-62392500D01*
X143629724Y-63437500D02*
X143120276Y-63437500D01*
%TO.C,RVIN1*%
X143629724Y-64142500D02*
X143120276Y-64142500D01*
X143629724Y-65187500D02*
X143120276Y-65187500D01*
%TO.C,C10*%
X146428733Y-79055000D02*
X146721267Y-79055000D01*
X146428733Y-80075000D02*
X146721267Y-80075000D01*
%TO.C,R17*%
X151040276Y-80542500D02*
X151549724Y-80542500D01*
X151040276Y-81587500D02*
X151549724Y-81587500D01*
%TO.C,C3*%
X168165000Y-75368733D02*
X168165000Y-75661267D01*
X169185000Y-75368733D02*
X169185000Y-75661267D01*
%TO.C,RP2*%
X136342224Y-55092500D02*
X135832776Y-55092500D01*
X136342224Y-56137500D02*
X135832776Y-56137500D01*
%TO.C,RTRH1*%
X147952500Y-62369724D02*
X147952500Y-61860276D01*
X148997500Y-62369724D02*
X148997500Y-61860276D01*
%TO.C,R12*%
X164252500Y-83430276D02*
X164252500Y-83939724D01*
X165297500Y-83430276D02*
X165297500Y-83939724D01*
D13*
%TO.C,Q10*%
X157745000Y-87745000D02*
X157745000Y-89205000D01*
X157745000Y-89205000D02*
X158785000Y-89205000D01*
X158815000Y-87745000D02*
X159735000Y-87745000D01*
X160805000Y-87745000D02*
X160805000Y-89205000D01*
X160805000Y-89205000D02*
X159765000Y-89205000D01*
%TO.C,Q5*%
X149695000Y-83735000D02*
X149695000Y-85195000D01*
X149695000Y-85195000D02*
X150735000Y-85195000D01*
X150765000Y-83735000D02*
X151685000Y-83735000D01*
X152755000Y-83735000D02*
X152755000Y-85195000D01*
X152755000Y-85195000D02*
X151715000Y-85195000D01*
D12*
%TO.C,R9*%
X149179724Y-55092500D02*
X148670276Y-55092500D01*
X149179724Y-56137500D02*
X148670276Y-56137500D01*
%TO.C,NTC1*%
X148952500Y-58982224D02*
X148952500Y-58472776D01*
X149997500Y-58982224D02*
X149997500Y-58472776D01*
D13*
%TO.C,Q2*%
X163145000Y-87745000D02*
X163145000Y-89205000D01*
X163145000Y-89205000D02*
X164185000Y-89205000D01*
X164215000Y-87745000D02*
X165135000Y-87745000D01*
X166205000Y-87745000D02*
X166205000Y-89205000D01*
X166205000Y-89205000D02*
X165165000Y-89205000D01*
D15*
%TO.C,Q7*%
X125695000Y-63365000D02*
X131695000Y-63365000D01*
X125695000Y-68625000D02*
X131695000Y-68625000D01*
D16*
X124795001Y-63515000D02*
X124795001Y-63515000D01*
X124795001Y-63515000D01*
X124795001Y-63515000D01*
X124795001Y-63515000D01*
X124795001Y-63515000D01*
X124795001Y-63515001D01*
X124795001Y-63515001D01*
X124795001Y-63515001D01*
X124795001Y-63515001D01*
X124795001Y-63515001D01*
X124795001Y-63515001D01*
X124795001Y-63515001D01*
X124795000Y-63515001D01*
X124795000Y-63515001D01*
X124795000Y-63515001D01*
X124795000Y-63515001D01*
X124795000Y-63515001D01*
X124795000Y-63515001D01*
X124795000Y-63515001D01*
X124795000Y-63515001D01*
X124795000Y-63515001D01*
X124795000Y-63515001D01*
X124795000Y-63515001D01*
X124795000Y-63515001D01*
X124794999Y-63515001D01*
X124794999Y-63515001D01*
X124794999Y-63515001D01*
X124794999Y-63515001D01*
X124794999Y-63515001D01*
X124794999Y-63515001D01*
X124794999Y-63515000D01*
X124794999Y-63515000D01*
X124794999Y-63515000D01*
X124794999Y-63515000D01*
X124794999Y-63515000D01*
X124794999Y-63515000D01*
X124794999Y-63515000D02*
X124794999Y-63515000D01*
X124794999Y-63515000D01*
X124794999Y-63515000D01*
X124794999Y-63515000D01*
X124794999Y-63515000D01*
X124794999Y-63515000D01*
X124794999Y-63514999D01*
X124794999Y-63514999D01*
X124794999Y-63514999D01*
X124794999Y-63514999D01*
X124794999Y-63514999D01*
X124795000Y-63514999D01*
X124795000Y-63514999D01*
X124795000Y-63514999D01*
X124795000Y-63514999D01*
X124795000Y-63514999D01*
X124795000Y-63514999D01*
X124795000Y-63514999D01*
X124795000Y-63514999D01*
X124795000Y-63514999D01*
X124795000Y-63514999D01*
X124795000Y-63514999D01*
X124795000Y-63514999D01*
X124795001Y-63514999D01*
X124795001Y-63514999D01*
X124795001Y-63514999D01*
X124795001Y-63514999D01*
X124795001Y-63514999D01*
X124795001Y-63514999D01*
X124795001Y-63515000D01*
X124795001Y-63515000D01*
X124795001Y-63515000D01*
X124795001Y-63515000D01*
X124795001Y-63515000D01*
X124795001Y-63515000D01*
X124795001Y-63515000D01*
D12*
%TO.C,C13*%
X154765000Y-58568733D02*
X154765000Y-58861267D01*
X155785000Y-58568733D02*
X155785000Y-58861267D01*
%TO.C,R26*%
X158852500Y-83430276D02*
X158852500Y-83939724D01*
X159897500Y-83430276D02*
X159897500Y-83939724D01*
D15*
%TO.C,CN5*%
X138140000Y-96180000D02*
X154260000Y-96180000D01*
X138140000Y-103180000D02*
X138140000Y-96180000D01*
X138140000Y-103180000D02*
X154260000Y-103180000D01*
X138840000Y-97580000D02*
X138840000Y-101280000D01*
X138840000Y-97580000D02*
X138840000Y-101280000D01*
X138840000Y-97730000D02*
X138840000Y-97480000D01*
X138840000Y-101280000D02*
X140040000Y-101280000D01*
X138840000Y-101280000D02*
X140040000Y-101280000D01*
X138840000Y-102080000D02*
X138840000Y-102680000D01*
X138840000Y-102080000D02*
X138840000Y-102680000D01*
X138840000Y-102680000D02*
X142140000Y-102680000D01*
X138840000Y-102680000D02*
X142140000Y-102680000D01*
X140040000Y-101280000D02*
X140040000Y-102080000D01*
X140040000Y-101280000D02*
X140040000Y-102080000D01*
X140040000Y-102080000D02*
X138840000Y-102080000D01*
X140040000Y-102080000D02*
X138840000Y-102080000D01*
X140940000Y-101280000D02*
X142140000Y-101280000D01*
X140940000Y-101280000D02*
X142140000Y-101280000D01*
X140940000Y-102080000D02*
X140940000Y-101280000D01*
X140940000Y-102080000D02*
X140940000Y-101280000D01*
X142140000Y-97480000D02*
X138840000Y-97480000D01*
X142140000Y-97480000D02*
X138840000Y-97480000D01*
X142140000Y-101280000D02*
X142140000Y-97480000D01*
X142140000Y-101280000D02*
X142140000Y-97480000D01*
X142140000Y-102080000D02*
X140940000Y-102080000D01*
X142140000Y-102080000D02*
X140940000Y-102080000D01*
X142140000Y-102180000D02*
X142140000Y-102080000D01*
X142140000Y-102180000D02*
X142140000Y-102080000D01*
X142140000Y-102680000D02*
X142140000Y-102180000D01*
X142140000Y-102680000D02*
X142140000Y-102180000D01*
X142650000Y-97580000D02*
X142650000Y-101280000D01*
X142650000Y-97730000D02*
X142650000Y-97480000D01*
X142650000Y-101280000D02*
X143850000Y-101280000D01*
X142650000Y-102080000D02*
X142650000Y-102680000D01*
X142650000Y-102680000D02*
X145950000Y-102680000D01*
X143850000Y-101280000D02*
X143850000Y-102080000D01*
X143850000Y-102080000D02*
X142650000Y-102080000D01*
X144750000Y-101280000D02*
X145950000Y-101280000D01*
X144750000Y-102080000D02*
X144750000Y-101280000D01*
X145950000Y-97480000D02*
X142650000Y-97480000D01*
X145950000Y-101280000D02*
X145950000Y-97480000D01*
X145950000Y-102080000D02*
X144750000Y-102080000D01*
X145950000Y-102180000D02*
X145950000Y-102080000D01*
X145950000Y-102680000D02*
X145950000Y-102180000D01*
X146460000Y-97580000D02*
X146460000Y-101280000D01*
X146460000Y-97730000D02*
X146460000Y-97480000D01*
X146460000Y-101280000D02*
X147660000Y-101280000D01*
X146460000Y-102080000D02*
X146460000Y-102680000D01*
X146460000Y-102680000D02*
X149760000Y-102680000D01*
X147660000Y-101280000D02*
X147660000Y-102080000D01*
X147660000Y-102080000D02*
X146460000Y-102080000D01*
X148560000Y-101280000D02*
X149760000Y-101280000D01*
X148560000Y-102080000D02*
X148560000Y-101280000D01*
X149760000Y-97480000D02*
X146460000Y-97480000D01*
X149760000Y-101280000D02*
X149760000Y-97480000D01*
X149760000Y-102080000D02*
X148560000Y-102080000D01*
X149760000Y-102180000D02*
X149760000Y-102080000D01*
X149760000Y-102680000D02*
X149760000Y-102180000D01*
X150270000Y-97580000D02*
X150270000Y-101280000D01*
X150270000Y-97730000D02*
X150270000Y-97480000D01*
X150270000Y-101280000D02*
X151470000Y-101280000D01*
X150270000Y-102080000D02*
X150270000Y-102680000D01*
X150270000Y-102680000D02*
X153570000Y-102680000D01*
X151470000Y-101280000D02*
X151470000Y-102080000D01*
X151470000Y-102080000D02*
X150270000Y-102080000D01*
X152370000Y-101280000D02*
X153570000Y-101280000D01*
X152370000Y-102080000D02*
X152370000Y-101280000D01*
X153570000Y-97480000D02*
X150270000Y-97480000D01*
X153570000Y-101280000D02*
X153570000Y-97480000D01*
X153570000Y-102080000D02*
X152370000Y-102080000D01*
X153570000Y-102180000D02*
X153570000Y-102080000D01*
X153570000Y-102680000D02*
X153570000Y-102180000D01*
X154260000Y-103180000D02*
X154260000Y-96180000D01*
X141760000Y-96180000D02*
G75*
G02*
X139176711Y-96171600I-1290000J510000D01*
G01*
X145570000Y-96180000D02*
G75*
G02*
X142986711Y-96171600I-1290000J510000D01*
G01*
X149380000Y-96180000D02*
G75*
G02*
X146796711Y-96171600I-1290000J510000D01*
G01*
X153190000Y-96180000D02*
G75*
G02*
X150606711Y-96171600I-1290000J510000D01*
G01*
D12*
%TO.C,R13*%
X156390276Y-80502500D02*
X156899724Y-80502500D01*
X156390276Y-81547500D02*
X156899724Y-81547500D01*
%TO.C,R4*%
X157129724Y-62892500D02*
X156620276Y-62892500D01*
X157129724Y-63937500D02*
X156620276Y-63937500D01*
D13*
%TO.C,Q3*%
X155095000Y-83735000D02*
X155095000Y-85195000D01*
X155095000Y-85195000D02*
X156135000Y-85195000D01*
X156165000Y-83735000D02*
X157085000Y-83735000D01*
X158155000Y-83735000D02*
X158155000Y-85195000D01*
X158155000Y-85195000D02*
X157115000Y-85195000D01*
%TO.C,Q1*%
X140545000Y-55085000D02*
X142005000Y-55085000D01*
X140545000Y-57075000D02*
X140545000Y-56155000D01*
X140545000Y-58145000D02*
X142005000Y-58145000D01*
X142005000Y-55085000D02*
X142005000Y-56125000D01*
X142005000Y-58145000D02*
X142005000Y-57105000D01*
D12*
%TO.C,R15*%
X153502500Y-83460276D02*
X153502500Y-83969724D01*
X154547500Y-83460276D02*
X154547500Y-83969724D01*
%TO.C,C14*%
X153765000Y-61968733D02*
X153765000Y-62261267D01*
X154785000Y-61968733D02*
X154785000Y-62261267D01*
D15*
%TO.C,Q11*%
X139395000Y-63375000D02*
X133395000Y-63375000D01*
X139395000Y-68635000D02*
X133395000Y-68635000D01*
D16*
X140295001Y-68485000D02*
X140295001Y-68485000D01*
X140295001Y-68485000D01*
X140295001Y-68485000D01*
X140295001Y-68485000D01*
X140295001Y-68485000D01*
X140295001Y-68485001D01*
X140295001Y-68485001D01*
X140295001Y-68485001D01*
X140295001Y-68485001D01*
X140295001Y-68485001D01*
X140295001Y-68485001D01*
X140295001Y-68485001D01*
X140295000Y-68485001D01*
X140295000Y-68485001D01*
X140295000Y-68485001D01*
X140295000Y-68485001D01*
X140295000Y-68485001D01*
X140295000Y-68485001D01*
X140295000Y-68485001D01*
X140295000Y-68485001D01*
X140295000Y-68485001D01*
X140295000Y-68485001D01*
X140295000Y-68485001D01*
X140295000Y-68485001D01*
X140294999Y-68485001D01*
X140294999Y-68485001D01*
X140294999Y-68485001D01*
X140294999Y-68485001D01*
X140294999Y-68485001D01*
X140294999Y-68485001D01*
X140294999Y-68485000D01*
X140294999Y-68485000D01*
X140294999Y-68485000D01*
X140294999Y-68485000D01*
X140294999Y-68485000D01*
X140294999Y-68485000D01*
X140294999Y-68485000D02*
X140294999Y-68485000D01*
X140294999Y-68485000D01*
X140294999Y-68485000D01*
X140294999Y-68485000D01*
X140294999Y-68485000D01*
X140294999Y-68485000D01*
X140294999Y-68484999D01*
X140294999Y-68484999D01*
X140294999Y-68484999D01*
X140294999Y-68484999D01*
X140294999Y-68484999D01*
X140295000Y-68484999D01*
X140295000Y-68484999D01*
X140295000Y-68484999D01*
X140295000Y-68484999D01*
X140295000Y-68484999D01*
X140295000Y-68484999D01*
X140295000Y-68484999D01*
X140295000Y-68484999D01*
X140295000Y-68484999D01*
X140295000Y-68484999D01*
X140295000Y-68484999D01*
X140295000Y-68484999D01*
X140295001Y-68484999D01*
X140295001Y-68484999D01*
X140295001Y-68484999D01*
X140295001Y-68484999D01*
X140295001Y-68484999D01*
X140295001Y-68484999D01*
X140295001Y-68485000D01*
X140295001Y-68485000D01*
X140295001Y-68485000D01*
X140295001Y-68485000D01*
X140295001Y-68485000D01*
X140295001Y-68485000D01*
X140295001Y-68485000D01*
D13*
%TO.C,U2*%
X145765000Y-66575000D02*
X155625000Y-66575000D01*
X145765000Y-70115000D02*
X145765000Y-66575000D01*
X155625000Y-66575000D02*
X155625000Y-70115000D01*
X155625000Y-70115000D02*
X145765000Y-70115000D01*
D14*
X155075000Y-67325000D02*
G75*
G02*
X154775000Y-67325000I-150000J0D01*
G01*
X154775000Y-67325000D02*
G75*
G02*
X155075000Y-67325000I150000J0D01*
G01*
X155695000Y-65475000D02*
G75*
G02*
X155395000Y-65475000I-150000J0D01*
G01*
X155395000Y-65475000D02*
G75*
G02*
X155695000Y-65475000I150000J0D01*
G01*
D12*
%TO.C,RM1*%
X137570276Y-59242500D02*
X138079724Y-59242500D01*
X137570276Y-60287500D02*
X138079724Y-60287500D01*
%TO.C,R23*%
X161790276Y-80512500D02*
X162299724Y-80512500D01*
X161790276Y-81557500D02*
X162299724Y-81557500D01*
%TO.C,R24*%
X138565000Y-73837936D02*
X138565000Y-78192064D01*
X141985000Y-73837936D02*
X141985000Y-78192064D01*
%TO.C,R7*%
X154752500Y-78059724D02*
X154752500Y-77550276D01*
X155797500Y-78059724D02*
X155797500Y-77550276D01*
%TO.C,R1*%
X167867224Y-62392500D02*
X167357776Y-62392500D01*
X167867224Y-63437500D02*
X167357776Y-63437500D01*
%TO.C,R14*%
X152965000Y-93892064D02*
X152965000Y-92437936D01*
X154785000Y-93892064D02*
X154785000Y-92437936D01*
%TO.C,R27*%
X155665000Y-93892064D02*
X155665000Y-92437936D01*
X157485000Y-93892064D02*
X157485000Y-92437936D01*
D13*
%TO.C,Q4*%
X152395000Y-87735000D02*
X152395000Y-89195000D01*
X152395000Y-89195000D02*
X153435000Y-89195000D01*
X153465000Y-87735000D02*
X154385000Y-87735000D01*
X155455000Y-87735000D02*
X155455000Y-89195000D01*
X155455000Y-89195000D02*
X154415000Y-89195000D01*
D12*
%TO.C,RP1*%
X138152500Y-56882224D02*
X138152500Y-56372776D01*
X139197500Y-56882224D02*
X139197500Y-56372776D01*
D13*
%TO.C,D1*%
X133077500Y-61145000D02*
X135897500Y-61145000D01*
X133077500Y-62885000D02*
X135897500Y-62885000D01*
X133437500Y-61145000D02*
X133437500Y-62885000D01*
X135897500Y-61145000D02*
X135897500Y-61315000D01*
X135897500Y-62885000D02*
X135897500Y-62715000D01*
D12*
%TO.C,C16*%
X151765000Y-61968733D02*
X151765000Y-62261267D01*
X152785000Y-61968733D02*
X152785000Y-62261267D01*
%TO.C,RCO1*%
X127020276Y-61492500D02*
X127529724Y-61492500D01*
X127020276Y-62537500D02*
X127529724Y-62537500D01*
D15*
%TO.C,CN4*%
X154640000Y-96170000D02*
X170760000Y-96170000D01*
X154640000Y-103170000D02*
X154640000Y-96170000D01*
X154640000Y-103170000D02*
X170760000Y-103170000D01*
X155340000Y-97570000D02*
X155340000Y-101270000D01*
X155340000Y-97570000D02*
X155340000Y-101270000D01*
X155340000Y-97720000D02*
X155340000Y-97470000D01*
X155340000Y-101270000D02*
X156540000Y-101270000D01*
X155340000Y-101270000D02*
X156540000Y-101270000D01*
X155340000Y-102070000D02*
X155340000Y-102670000D01*
X155340000Y-102070000D02*
X155340000Y-102670000D01*
X155340000Y-102670000D02*
X158640000Y-102670000D01*
X155340000Y-102670000D02*
X158640000Y-102670000D01*
X156540000Y-101270000D02*
X156540000Y-102070000D01*
X156540000Y-101270000D02*
X156540000Y-102070000D01*
X156540000Y-102070000D02*
X155340000Y-102070000D01*
X156540000Y-102070000D02*
X155340000Y-102070000D01*
X157440000Y-101270000D02*
X158640000Y-101270000D01*
X157440000Y-101270000D02*
X158640000Y-101270000D01*
X157440000Y-102070000D02*
X157440000Y-101270000D01*
X157440000Y-102070000D02*
X157440000Y-101270000D01*
X158640000Y-97470000D02*
X155340000Y-97470000D01*
X158640000Y-97470000D02*
X155340000Y-97470000D01*
X158640000Y-101270000D02*
X158640000Y-97470000D01*
X158640000Y-101270000D02*
X158640000Y-97470000D01*
X158640000Y-102070000D02*
X157440000Y-102070000D01*
X158640000Y-102070000D02*
X157440000Y-102070000D01*
X158640000Y-102170000D02*
X158640000Y-102070000D01*
X158640000Y-102170000D02*
X158640000Y-102070000D01*
X158640000Y-102670000D02*
X158640000Y-102170000D01*
X158640000Y-102670000D02*
X158640000Y-102170000D01*
X159150000Y-97570000D02*
X159150000Y-101270000D01*
X159150000Y-97720000D02*
X159150000Y-97470000D01*
X159150000Y-101270000D02*
X160350000Y-101270000D01*
X159150000Y-102070000D02*
X159150000Y-102670000D01*
X159150000Y-102670000D02*
X162450000Y-102670000D01*
X160350000Y-101270000D02*
X160350000Y-102070000D01*
X160350000Y-102070000D02*
X159150000Y-102070000D01*
X161250000Y-101270000D02*
X162450000Y-101270000D01*
X161250000Y-102070000D02*
X161250000Y-101270000D01*
X162450000Y-97470000D02*
X159150000Y-97470000D01*
X162450000Y-101270000D02*
X162450000Y-97470000D01*
X162450000Y-102070000D02*
X161250000Y-102070000D01*
X162450000Y-102170000D02*
X162450000Y-102070000D01*
X162450000Y-102670000D02*
X162450000Y-102170000D01*
X162960000Y-97570000D02*
X162960000Y-101270000D01*
X162960000Y-97720000D02*
X162960000Y-97470000D01*
X162960000Y-101270000D02*
X164160000Y-101270000D01*
X162960000Y-102070000D02*
X162960000Y-102670000D01*
X162960000Y-102670000D02*
X166260000Y-102670000D01*
X164160000Y-101270000D02*
X164160000Y-102070000D01*
X164160000Y-102070000D02*
X162960000Y-102070000D01*
X165060000Y-101270000D02*
X166260000Y-101270000D01*
X165060000Y-102070000D02*
X165060000Y-101270000D01*
X166260000Y-97470000D02*
X162960000Y-97470000D01*
X166260000Y-101270000D02*
X166260000Y-97470000D01*
X166260000Y-102070000D02*
X165060000Y-102070000D01*
X166260000Y-102170000D02*
X166260000Y-102070000D01*
X166260000Y-102670000D02*
X166260000Y-102170000D01*
X166770000Y-97570000D02*
X166770000Y-101270000D01*
X166770000Y-97720000D02*
X166770000Y-97470000D01*
X166770000Y-101270000D02*
X167970000Y-101270000D01*
X166770000Y-102070000D02*
X166770000Y-102670000D01*
X166770000Y-102670000D02*
X170070000Y-102670000D01*
X167970000Y-101270000D02*
X167970000Y-102070000D01*
X167970000Y-102070000D02*
X166770000Y-102070000D01*
X168870000Y-101270000D02*
X170070000Y-101270000D01*
X168870000Y-102070000D02*
X168870000Y-101270000D01*
X170070000Y-97470000D02*
X166770000Y-97470000D01*
X170070000Y-101270000D02*
X170070000Y-97470000D01*
X170070000Y-102070000D02*
X168870000Y-102070000D01*
X170070000Y-102170000D02*
X170070000Y-102070000D01*
X170070000Y-102670000D02*
X170070000Y-102170000D01*
X170760000Y-103170000D02*
X170760000Y-96170000D01*
X158260000Y-96170000D02*
G75*
G02*
X155676711Y-96161600I-1290000J510000D01*
G01*
X162070000Y-96170000D02*
G75*
G02*
X159486711Y-96161600I-1290000J510000D01*
G01*
X165880000Y-96170000D02*
G75*
G02*
X163296711Y-96161600I-1290000J510000D01*
G01*
X169690000Y-96170000D02*
G75*
G02*
X167106711Y-96161600I-1290000J510000D01*
G01*
D12*
%TO.C,C1*%
X164365000Y-61868733D02*
X164365000Y-62161267D01*
X165385000Y-61868733D02*
X165385000Y-62161267D01*
%TO.C,C19*%
X143815000Y-67168733D02*
X143815000Y-67461267D01*
X144835000Y-67168733D02*
X144835000Y-67461267D01*
%TO.C,C6*%
X167665000Y-70206233D02*
X167665000Y-70498767D01*
X168685000Y-70206233D02*
X168685000Y-70498767D01*
%TO.C,R25*%
X158365000Y-93902064D02*
X158365000Y-92447936D01*
X160185000Y-93902064D02*
X160185000Y-92447936D01*
%TO.C,R2*%
X167879724Y-60392500D02*
X167370276Y-60392500D01*
X167879724Y-61437500D02*
X167370276Y-61437500D01*
%TO.C,C8*%
X146428733Y-76055000D02*
X146721267Y-76055000D01*
X146428733Y-77075000D02*
X146721267Y-77075000D01*
%TO.C,R20*%
X160152500Y-78069724D02*
X160152500Y-77560276D01*
X161197500Y-78069724D02*
X161197500Y-77560276D01*
%TO.C,R6*%
X157452500Y-78059724D02*
X157452500Y-77550276D01*
X158497500Y-78059724D02*
X158497500Y-77550276D01*
%TO.C,C2*%
X162765000Y-61868733D02*
X162765000Y-62161267D01*
X163785000Y-61868733D02*
X163785000Y-62161267D01*
%TO.C,RS1*%
X127020276Y-59792500D02*
X127529724Y-59792500D01*
X127020276Y-60837500D02*
X127529724Y-60837500D01*
%TO.C,R16*%
X150265000Y-93892064D02*
X150265000Y-92437936D01*
X152085000Y-93892064D02*
X152085000Y-92437936D01*
D13*
%TO.C,D2*%
X127965000Y-54745000D02*
X130785000Y-54745000D01*
X127965000Y-56485000D02*
X130785000Y-56485000D01*
X128325000Y-54745000D02*
X128325000Y-56485000D01*
X130785000Y-54745000D02*
X130785000Y-54915000D01*
X130785000Y-56485000D02*
X130785000Y-56315000D01*
%TO.C,Q8*%
X133155000Y-57025000D02*
X133155000Y-58075000D01*
X133155000Y-60105000D02*
X133155000Y-59055000D01*
X134915000Y-57025000D02*
X133155000Y-57025000D01*
X134915000Y-58105000D02*
X134915000Y-59025000D01*
X134915000Y-60105000D02*
X133155000Y-60105000D01*
D12*
%TO.C,C18*%
X149865000Y-61968733D02*
X149865000Y-62261267D01*
X150885000Y-61968733D02*
X150885000Y-62261267D01*
%TO.C,R8*%
X152052500Y-78059724D02*
X152052500Y-77550276D01*
X153097500Y-78059724D02*
X153097500Y-77550276D01*
%TO.C,C15*%
X152765000Y-58568733D02*
X152765000Y-58861267D01*
X153785000Y-58568733D02*
X153785000Y-58861267D01*
%TO.C,C4*%
X166565000Y-74068733D02*
X166565000Y-74361267D01*
X167585000Y-74068733D02*
X167585000Y-74361267D01*
%TO.C,Rccv1*%
X158079724Y-72512500D02*
X157570276Y-72512500D01*
X158079724Y-73557500D02*
X157570276Y-73557500D01*
%TO.C,R11*%
X161065000Y-93902064D02*
X161065000Y-92447936D01*
X162885000Y-93902064D02*
X162885000Y-92447936D01*
%TO.C,R3*%
X158029724Y-60992500D02*
X157520276Y-60992500D01*
X158029724Y-62037500D02*
X157520276Y-62037500D01*
D13*
%TO.C,Q9*%
X160445000Y-83745000D02*
X160445000Y-85205000D01*
X160445000Y-85205000D02*
X161485000Y-85205000D01*
X161515000Y-83745000D02*
X162435000Y-83745000D01*
X163505000Y-83745000D02*
X163505000Y-85205000D01*
X163505000Y-85205000D02*
X162465000Y-85205000D01*
%TD*%
M02*
