M48
; DRILL file {KiCad 9.0.6} date 2025-12-14T22:45:55+0100
; FORMAT={-:-/ absolute / metric / decimal}
; #@! TF.CreationDate,2025-12-14T22:45:55+01:00
; #@! TF.GenerationSoftware,Kicad,Pcbnew,9.0.6
; #@! TF.FileFunction,Plated,1,2,PTH
FMAT,2
METRIC
; #@! TA.AperFunction,Plated,PTH,ViaDrill
T1C0.300
; #@! TA.AperFunction,Plated,PTH,ComponentDrill
T2C1.000
; #@! TA.AperFunction,Plated,PTH,ViaDrill
T3C1.000
; #@! TA.AperFunction,Plated,PTH,ComponentDrill
T4C1.100
; #@! TA.AperFunction,Plated,PTH,ComponentDrill
T5C1.400
; #@! TA.AperFunction,Plated,PTH,ComponentDrill
T6C1.700
; #@! TA.AperFunction,Plated,PTH,ComponentDrill
T7C1.800
%
G90
G05
T1
X128.615Y-64.505
X128.615Y-65.505
X128.615Y-66.505
X128.615Y-67.505
X129.615Y-64.505
X129.615Y-65.505
X129.615Y-66.505
X129.615Y-67.505
X130.615Y-64.505
X130.615Y-65.505
X130.615Y-66.505
X130.615Y-67.505
X131.615Y-64.505
X131.615Y-65.505
X131.615Y-66.505
X131.615Y-67.505
X132.615Y-64.505
X132.615Y-65.505
X132.615Y-66.505
X132.615Y-67.505
X133.615Y-64.505
X133.615Y-65.505
X133.615Y-66.505
X133.615Y-67.505
X134.615Y-64.505
X134.615Y-65.505
X134.615Y-66.505
X134.615Y-67.505
X135.615Y-64.505
X135.615Y-65.505
X135.615Y-66.505
X135.615Y-67.505
X136.615Y-64.505
X136.615Y-65.505
X136.615Y-66.505
X136.615Y-67.505
X137.625Y-61.065
X138.875Y-69.315
X138.875Y-70.315
X138.875Y-71.315
X139.875Y-69.315
X139.875Y-70.315
X139.875Y-71.315
X140.875Y-65.315
X140.875Y-66.315
X140.875Y-67.315
X140.875Y-68.315
X140.875Y-69.315
X140.875Y-70.315
X140.875Y-71.315
X141.875Y-65.315
X141.875Y-66.315
X141.875Y-67.315
X141.875Y-68.315
X141.875Y-69.315
X141.875Y-70.315
X141.875Y-71.315
X143.775Y-68.815
X143.925Y-59.765
X144.375Y-69.315
X144.925Y-68.815
X144.925Y-78.865
X145.025Y-77.315
X145.775Y-66.715
X146.525Y-59.865
X148.325Y-75.915
X148.425Y-77.565
X148.425Y-79.065
X148.525Y-57.815
X149.025Y-67.015
X150.425Y-57.815
X151.665Y-76.915
X152.325Y-57.815
X154.275Y-57.815
X154.571Y-62.239
X154.675Y-77.823
X155.775Y-69.965
X156.176Y-61.015
X156.975Y-77.015
X157.025Y-68.765
X158.225Y-67.065
X158.775Y-69.565
X160.675Y-69.515
X160.725Y-67.115
X161.175Y-62.465
X162.025Y-69.515
X164.025Y-77.715
X166.825Y-69.365
X167.275Y-76.165
X167.375Y-69.815
X167.375Y-72.515
X167.525Y-59.715
X167.875Y-73.115
X168.275Y-68.665
X168.675Y-72.715
X168.775Y-77.915
X169.425Y-73.715
X169.475Y-71.315
T2
X121.62Y-70.62
X121.62Y-81.62
T3
X124.02Y-48.62
X124.02Y-113.62
X124.02Y-128.62
X124.02Y-155.62
X124.02Y-168.62
X124.02Y-181.62
X124.02Y-196.62
X124.02Y-212.62
X125.5Y-140.0
X125.5Y-144.0
X127.5Y-147.0
X131.5Y-148.0
X134.02Y-155.62
X134.02Y-168.62
X134.02Y-181.62
X134.02Y-196.62
X134.02Y-212.62
X135.42Y-79.82
X135.5Y-148.0
X139.5Y-139.0
X139.5Y-148.0
X142.5Y-142.0
X142.5Y-146.0
X144.02Y-155.62
X144.02Y-168.62
X144.02Y-181.62
X144.02Y-196.62
X144.02Y-212.62
X154.02Y-113.62
X154.02Y-155.62
X154.02Y-168.62
X154.02Y-181.62
X154.02Y-196.62
X154.02Y-212.62
X166.02Y-48.62
X168.02Y-226.62
T4
X121.62Y-84.32
X121.62Y-95.32
T5
X140.48Y-99.08
X144.3Y-99.08
X148.11Y-99.08
X151.92Y-99.08
X156.98Y-99.07
X160.8Y-99.07
X164.61Y-99.07
X168.42Y-99.07
T6
X126.62Y-73.62
X126.62Y-78.62
T7
X131.62Y-87.32
X131.62Y-92.32
M30
