%TF.GenerationSoftware,KiCad,Pcbnew,9.0.6*%
%TF.CreationDate,2025-12-05T19:41:48+01:00*%
%TF.ProjectId,balancingBoard,62616c61-6e63-4696-9e67-426f6172642e,rev?*%
%TF.SameCoordinates,Original*%
%TF.FileFunction,Copper,L1,Top*%
%TF.FilePolarity,Positive*%
%FSLAX46Y46*%
G04 Gerber Fmt 4.6, Leading zero omitted, Abs format (unit mm)*
G04 Created by KiCad (PCBNEW 9.0.6) date 2025-12-05 19:41:48*
%MOMM*%
%LPD*%
G01*
G04 APERTURE LIST*
G04 Aperture macros list*
%AMRoundRect*
0 Rectangle with rounded corners*
0 $1 Rounding radius*
0 $2 $3 $4 $5 $6 $7 $8 $9 X,Y pos of 4 corners*
0 Add a 4 corners polygon primitive as box body*
4,1,4,$2,$3,$4,$5,$6,$7,$8,$9,$2,$3,0*
0 Add four circle primitives for the rounded corners*
1,1,$1+$1,$2,$3*
1,1,$1+$1,$4,$5*
1,1,$1+$1,$6,$7*
1,1,$1+$1,$8,$9*
0 Add four rect primitives between the rounded corners*
20,1,$1+$1,$2,$3,$4,$5,0*
20,1,$1+$1,$4,$5,$6,$7,0*
20,1,$1+$1,$6,$7,$8,$9,0*
20,1,$1+$1,$8,$9,$2,$3,0*%
G04 Aperture macros list end*
%TA.AperFunction,SMDPad,CuDef*%
%ADD10RoundRect,0.237500X0.300000X0.237500X-0.300000X0.237500X-0.300000X-0.237500X0.300000X-0.237500X0*%
%TD*%
%TA.AperFunction,SMDPad,CuDef*%
%ADD11RoundRect,0.237500X-0.300000X-0.237500X0.300000X-0.237500X0.300000X0.237500X-0.300000X0.237500X0*%
%TD*%
%TA.AperFunction,ComponentPad*%
%ADD12C,2.500000*%
%TD*%
%TA.AperFunction,ComponentPad*%
%ADD13C,1.800000*%
%TD*%
%TA.AperFunction,SMDPad,CuDef*%
%ADD14RoundRect,0.250000X-0.400000X-0.625000X0.400000X-0.625000X0.400000X0.625000X-0.400000X0.625000X0*%
%TD*%
%TA.AperFunction,SMDPad,CuDef*%
%ADD15RoundRect,0.237500X0.250000X0.237500X-0.250000X0.237500X-0.250000X-0.237500X0.250000X-0.237500X0*%
%TD*%
%TA.AperFunction,ComponentPad*%
%ADD16R,2.200000X2.200000*%
%TD*%
%TA.AperFunction,ComponentPad*%
%ADD17C,2.200000*%
%TD*%
%TA.AperFunction,SMDPad,CuDef*%
%ADD18RoundRect,0.237500X0.237500X-0.250000X0.237500X0.250000X-0.237500X0.250000X-0.237500X-0.250000X0*%
%TD*%
%TA.AperFunction,SMDPad,CuDef*%
%ADD19RoundRect,0.237500X-0.237500X0.300000X-0.237500X-0.300000X0.237500X-0.300000X0.237500X0.300000X0*%
%TD*%
%TA.AperFunction,SMDPad,CuDef*%
%ADD20RoundRect,0.237500X-0.237500X0.250000X-0.237500X-0.250000X0.237500X-0.250000X0.237500X0.250000X0*%
%TD*%
%TA.AperFunction,ComponentPad*%
%ADD21C,1.000000*%
%TD*%
%TA.AperFunction,SMDPad,CuDef*%
%ADD22RoundRect,0.237500X-0.250000X-0.237500X0.250000X-0.237500X0.250000X0.237500X-0.250000X0.237500X0*%
%TD*%
%TA.AperFunction,SMDPad,CuDef*%
%ADD23O,1.710000X0.360000*%
%TD*%
%TA.AperFunction,SMDPad,CuDef*%
%ADD24R,0.750000X1.000000*%
%TD*%
%TA.AperFunction,SMDPad,CuDef*%
%ADD25R,1.400000X0.610000*%
%TD*%
%TA.AperFunction,SMDPad,CuDef*%
%ADD26R,3.810000X4.500000*%
%TD*%
%TA.AperFunction,SMDPad,CuDef*%
%ADD27RoundRect,0.249999X-0.450001X-1.425001X0.450001X-1.425001X0.450001X1.425001X-0.450001X1.425001X0*%
%TD*%
%TA.AperFunction,ViaPad*%
%ADD28C,0.600000*%
%TD*%
%TA.AperFunction,Conductor*%
%ADD29C,0.300000*%
%TD*%
%TA.AperFunction,Conductor*%
%ADD30C,0.800000*%
%TD*%
%TA.AperFunction,Conductor*%
%ADD31C,0.200000*%
%TD*%
G04 APERTURE END LIST*
D10*
%TO.P,C62,1*%
%TO.N,Net-(U1-VC1)*%
X101362500Y-89250000D03*
%TO.P,C62,2*%
%TO.N,GND*%
X99637500Y-89250000D03*
%TD*%
D11*
%TO.P,C1,1*%
%TO.N,Net-(U2-VC2)*%
X99637500Y-66500000D03*
%TO.P,C1,2*%
%TO.N,Net-(U2-VC1)*%
X101362500Y-66500000D03*
%TD*%
D12*
%TO.P,U3,1,1*%
%TO.N,PACK+*%
X119012500Y-107690000D03*
%TO.P,U3,2,2*%
%TO.N,PACK-*%
X119012500Y-102690000D03*
D13*
%TO.P,U3,3,3*%
%TO.N,unconnected-(U3-Pad3)*%
X124012500Y-99690000D03*
%TO.P,U3,4,4*%
%TO.N,unconnected-(U3-Pad4)*%
X124012500Y-110690000D03*
%TD*%
D11*
%TO.P,C50,1*%
%TO.N,Net-(U1-VC2)*%
X99637500Y-85250000D03*
%TO.P,C50,2*%
%TO.N,Net-(U1-VC1)*%
X101362500Y-85250000D03*
%TD*%
D14*
%TO.P,R3,1*%
%TO.N,Net-(CN1-Pad2)*%
X98150000Y-64500000D03*
%TO.P,R3,2*%
%TO.N,Net-(U2-VC2)*%
X101250000Y-64500000D03*
%TD*%
D15*
%TO.P,R6,1*%
%TO.N,Net-(U2-CHG)*%
X116912500Y-82000000D03*
%TO.P,R6,2*%
%TO.N,CTRC*%
X115087500Y-82000000D03*
%TD*%
D16*
%TO.P,CN1,1,1*%
%TO.N,Net-(CN1-Pad1)*%
X92750000Y-61310000D03*
D17*
%TO.P,CN1,2,2*%
%TO.N,Net-(CN1-Pad2)*%
X92750000Y-65120000D03*
%TO.P,CN1,3,3*%
%TO.N,Net-(CN1-Pad3)*%
X92750000Y-68940000D03*
%TO.P,CN1,4,4*%
%TO.N,Net-(U2-CTRC)*%
X92750000Y-72750000D03*
%TD*%
D18*
%TO.P,R30,1*%
%TO.N,Net-(Q1-G)*%
X105400000Y-92025000D03*
%TO.P,R30,2*%
%TO.N,Net-(U1-SRN)*%
X105400000Y-90200000D03*
%TD*%
D19*
%TO.P,C53,1*%
%TO.N,GND*%
X104220000Y-80000000D03*
%TO.P,C53,2*%
%TO.N,Net-(U1-AVDD)*%
X104220000Y-81725000D03*
%TD*%
D14*
%TO.P,R27,1*%
%TO.N,Net-(CN2-Pad2)*%
X98150000Y-83250000D03*
%TO.P,R27,2*%
%TO.N,Net-(U1-VC2)*%
X101250000Y-83250000D03*
%TD*%
D11*
%TO.P,C49,1*%
%TO.N,Net-(U1-VC3)*%
X99637500Y-81250000D03*
%TO.P,C49,2*%
%TO.N,Net-(U1-VC2)*%
X101362500Y-81250000D03*
%TD*%
D20*
%TO.P,C52,1*%
%TO.N,GND*%
X106220000Y-78187500D03*
%TO.P,C52,2*%
%TO.N,Net-(U1-VDD)*%
X106220000Y-80012500D03*
%TD*%
D14*
%TO.P,R2,1*%
%TO.N,Net-(CN1-Pad1)*%
X98150000Y-60500000D03*
%TO.P,R2,2*%
%TO.N,Net-(U2-VC3)*%
X101250000Y-60500000D03*
%TD*%
D21*
%TO.P,R19,1,1*%
%TO.N,Net-(U1-TS)*%
X123500000Y-84500000D03*
%TO.P,R19,2,2*%
%TO.N,GND*%
X123500000Y-82800000D03*
%TD*%
D14*
%TO.P,R46,1*%
%TO.N,GND*%
X98150000Y-91250000D03*
%TO.P,R46,2*%
%TO.N,Net-(U1-VCO)*%
X101250000Y-91250000D03*
%TD*%
D22*
%TO.P,R9,1*%
%TO.N,Net-(U2-PRES)*%
X115087500Y-69000000D03*
%TO.P,R9,2*%
%TO.N,Net-(U2-VDD)*%
X116912500Y-69000000D03*
%TD*%
D11*
%TO.P,C4,1*%
%TO.N,Net-(U2-CTRC)*%
X99637500Y-74500000D03*
%TO.P,C4,2*%
%TO.N,Net-(U2-VCO)*%
X101362500Y-74500000D03*
%TD*%
D20*
%TO.P,R33,1*%
%TO.N,Net-(U1-CHG)*%
X112000000Y-90087500D03*
%TO.P,R33,2*%
%TO.N,Net-(Q3-G)*%
X112000000Y-91912500D03*
%TD*%
D22*
%TO.P,R1,1*%
%TO.N,Net-(CN1-Pad1)*%
X99587500Y-58500000D03*
%TO.P,R1,2*%
%TO.N,Net-(U2-VDD)*%
X101412500Y-58500000D03*
%TD*%
D20*
%TO.P,R34,1*%
%TO.N,Net-(U1-LD)*%
X115000000Y-90087500D03*
%TO.P,R34,2*%
%TO.N,PACK-*%
X115000000Y-91912500D03*
%TD*%
%TO.P,R14,1*%
%TO.N,Net-(D2-A)*%
X116500000Y-90087500D03*
%TO.P,R14,2*%
%TO.N,PACK-*%
X116500000Y-91912500D03*
%TD*%
%TO.P,R32,1*%
%TO.N,Net-(U1-DSG)*%
X106900000Y-90200000D03*
%TO.P,R32,2*%
%TO.N,Net-(Q1-G)*%
X106900000Y-92025000D03*
%TD*%
D23*
%TO.P,U1,1,VDD*%
%TO.N,Net-(U1-VDD)*%
X106220000Y-81480000D03*
%TO.P,U1,2,AVDD*%
%TO.N,Net-(U1-AVDD)*%
X106220000Y-82130000D03*
%TO.P,U1,3,VC5*%
%TO.N,Net-(U1-VC3)*%
X106220000Y-82780000D03*
%TO.P,U1,4,VC4*%
X106220000Y-83430000D03*
%TO.P,U1,5,VC3*%
X106220000Y-84080000D03*
%TO.P,U1,6,VC2*%
%TO.N,Net-(U1-VC2)*%
X106220000Y-84730000D03*
%TO.P,U1,7,VC1*%
%TO.N,Net-(U1-VC1)*%
X106220000Y-85390000D03*
%TO.P,U1,8,VCO*%
%TO.N,Net-(U1-VCO)*%
X106220000Y-86040000D03*
%TO.P,U1,9,VSS*%
%TO.N,GND*%
X106220000Y-86690000D03*
%TO.P,U1,10,SRP*%
%TO.N,-BATT*%
X106220000Y-87340000D03*
%TO.P,U1,11,SRN*%
%TO.N,Net-(U1-SRN)*%
X106220000Y-87990000D03*
%TO.P,U1,12,DSG*%
%TO.N,Net-(U1-DSG)*%
X106220000Y-88640000D03*
%TO.P,U1,13,CHG*%
%TO.N,Net-(U1-CHG)*%
X111780000Y-88640000D03*
%TO.P,U1,14,LD*%
%TO.N,Net-(U1-LD)*%
X111780000Y-87990000D03*
%TO.P,U1,15,LPWR*%
%TO.N,unconnected-(U1-LPWR-Pad15)*%
X111780000Y-87340000D03*
%TO.P,U1,16,CBI*%
%TO.N,Net-(U1-CBI)*%
X111780000Y-86690000D03*
%TO.P,U1,17,OCDP*%
%TO.N,Net-(U1-OCDP)*%
X111780000Y-86040000D03*
%TO.P,U1,18,TS*%
%TO.N,Net-(U1-TS)*%
X111780000Y-85390000D03*
%TO.P,U1,19,VTB*%
%TO.N,Net-(U1-VTB)*%
X111780000Y-84730000D03*
%TO.P,U1,20,CCFG*%
%TO.N,Net-(U1-AVDD)*%
X111780000Y-84080000D03*
%TO.P,U1,21,CBO*%
%TO.N,BCBO*%
X111780000Y-83430000D03*
%TO.P,U1,22,PRES*%
%TO.N,BPRES*%
X111780000Y-82780000D03*
%TO.P,U1,23,CTRC*%
%TO.N,CTRC*%
X111780000Y-82130000D03*
%TO.P,U1,24,CTRD*%
%TO.N,CTRD*%
X111780000Y-81480000D03*
%TD*%
D11*
%TO.P,C2,1*%
%TO.N,Net-(U2-VC3)*%
X99637500Y-62500000D03*
%TO.P,C2,2*%
%TO.N,Net-(U2-VC2)*%
X101362500Y-62500000D03*
%TD*%
D18*
%TO.P,R17,1*%
%TO.N,Net-(U2-TS)*%
X121000000Y-69912500D03*
%TO.P,R17,2*%
%TO.N,Net-(U2-CTRC)*%
X121000000Y-68087500D03*
%TD*%
D19*
%TO.P,C6,1*%
%TO.N,Net-(U2-CTRC)*%
X104220000Y-66217500D03*
%TO.P,C6,2*%
%TO.N,Net-(U2-AVDD)*%
X104220000Y-67942500D03*
%TD*%
D14*
%TO.P,R26,1*%
%TO.N,Net-(U2-CTRC)*%
X98150000Y-79330000D03*
%TO.P,R26,2*%
%TO.N,Net-(U1-VC3)*%
X101250000Y-79330000D03*
%TD*%
D24*
%TO.P,D2,1,C*%
%TO.N,Net-(D2-C)*%
X118000000Y-92170000D03*
%TO.P,D2,2,A*%
%TO.N,Net-(D2-A)*%
X118000000Y-89830000D03*
%TD*%
D25*
%TO.P,Q3,1,S*%
%TO.N,PACK-*%
X117140000Y-100510000D03*
%TO.P,Q3,2,S*%
X117140000Y-99240000D03*
%TO.P,Q3,3,S*%
X117140000Y-97960000D03*
%TO.P,Q3,4,G*%
%TO.N,Net-(Q3-G)*%
X117140000Y-96690000D03*
%TO.P,Q3,5,D*%
%TO.N,Net-(Q1-D-Pad5)*%
X111500000Y-96690000D03*
%TO.P,Q3,6,D*%
X111500000Y-97960000D03*
%TO.P,Q3,7,D*%
X111500000Y-99240000D03*
%TO.P,Q3,8,D*%
X111500000Y-100510000D03*
D26*
%TO.P,Q3,9,D*%
X113610000Y-98600000D03*
%TD*%
D23*
%TO.P,U2,1,VDD*%
%TO.N,Net-(U2-VDD)*%
X106220000Y-67420000D03*
%TO.P,U2,2,AVDD*%
%TO.N,Net-(U2-AVDD)*%
X106220000Y-68070000D03*
%TO.P,U2,3,VC5*%
%TO.N,Net-(U2-VC3)*%
X106220000Y-68720000D03*
%TO.P,U2,4,VC4*%
X106220000Y-69370000D03*
%TO.P,U2,5,VC3*%
X106220000Y-70020000D03*
%TO.P,U2,6,VC2*%
%TO.N,Net-(U2-VC2)*%
X106220000Y-70670000D03*
%TO.P,U2,7,VC1*%
%TO.N,Net-(U2-VC1)*%
X106220000Y-71330000D03*
%TO.P,U2,8,VCO*%
%TO.N,Net-(U2-VCO)*%
X106220000Y-71980000D03*
%TO.P,U2,9,VSS*%
%TO.N,Net-(U2-CTRC)*%
X106220000Y-72630000D03*
%TO.P,U2,10,SRP*%
X106220000Y-73280000D03*
%TO.P,U2,11,SRN*%
X106220000Y-73930000D03*
%TO.P,U2,12,DSG*%
%TO.N,Net-(U2-DSG)*%
X106220000Y-74580000D03*
%TO.P,U2,13,CHG*%
%TO.N,Net-(U2-CHG)*%
X111780000Y-74580000D03*
%TO.P,U2,14,LD*%
%TO.N,Net-(D2-C)*%
X111780000Y-73930000D03*
%TO.P,U2,15,LPWR*%
%TO.N,Net-(U2-LPWR)*%
X111780000Y-73280000D03*
%TO.P,U2,16,CBI*%
%TO.N,Net-(U2-CBI)*%
X111780000Y-72630000D03*
%TO.P,U2,17,OCDP*%
%TO.N,Net-(U2-OCDP)*%
X111780000Y-71980000D03*
%TO.P,U2,18,TS*%
%TO.N,Net-(U2-TS)*%
X111780000Y-71330000D03*
%TO.P,U2,19,VTB*%
%TO.N,Net-(U2-VTB)*%
X111780000Y-70670000D03*
%TO.P,U2,20,CCFG*%
%TO.N,Net-(U2-AVDD)*%
X111780000Y-70020000D03*
%TO.P,U2,21,CBO*%
%TO.N,unconnected-(U2-CBO-Pad21)*%
X111780000Y-69370000D03*
%TO.P,U2,22,PRES*%
%TO.N,Net-(U2-PRES)*%
X111780000Y-68720000D03*
%TO.P,U2,23,CTRC*%
%TO.N,Net-(U2-CTRC)*%
X111780000Y-68070000D03*
%TO.P,U2,24,CTRD*%
X111780000Y-67420000D03*
%TD*%
D21*
%TO.P,R15,1,1*%
%TO.N,Net-(U2-TS)*%
X123500000Y-70000000D03*
%TO.P,R15,2,2*%
%TO.N,Net-(U2-CTRC)*%
X123500000Y-68300000D03*
%TD*%
D22*
%TO.P,R7,1*%
%TO.N,CTRD*%
X115087500Y-80500000D03*
%TO.P,R7,2*%
%TO.N,Net-(U2-DSG)*%
X116912500Y-80500000D03*
%TD*%
%TO.P,R36,1*%
%TO.N,Net-(U2-CTRC)*%
X99587500Y-77410000D03*
%TO.P,R36,2*%
%TO.N,Net-(U1-VDD)*%
X101412500Y-77410000D03*
%TD*%
D14*
%TO.P,R5,1*%
%TO.N,Net-(U2-CTRC)*%
X98150000Y-72500000D03*
%TO.P,R5,2*%
%TO.N,Net-(U2-VCO)*%
X101250000Y-72500000D03*
%TD*%
D16*
%TO.P,CN2,1,1*%
%TO.N,Net-(U2-CTRC)*%
X92725000Y-78030000D03*
D17*
%TO.P,CN2,2,2*%
%TO.N,Net-(CN2-Pad2)*%
X92725000Y-81840000D03*
%TO.P,CN2,3,3*%
%TO.N,Net-(CN2-Pad3)*%
X92725000Y-85660000D03*
%TO.P,CN2,4,4*%
%TO.N,GND*%
X92725000Y-89470000D03*
%TD*%
D15*
%TO.P,R47,1*%
%TO.N,GND*%
X116912500Y-86000000D03*
%TO.P,R47,2*%
%TO.N,Net-(U1-OCDP)*%
X115087500Y-86000000D03*
%TD*%
D20*
%TO.P,R31,1*%
%TO.N,Net-(Q3-G)*%
X113500000Y-90087500D03*
%TO.P,R31,2*%
%TO.N,PACK-*%
X113500000Y-91912500D03*
%TD*%
D11*
%TO.P,C51,1*%
%TO.N,GND*%
X99637500Y-93250000D03*
%TO.P,C51,2*%
%TO.N,Net-(U1-VCO)*%
X101362500Y-93250000D03*
%TD*%
D15*
%TO.P,R48,1*%
%TO.N,GND*%
X116912500Y-87500000D03*
%TO.P,R48,2*%
%TO.N,Net-(U1-CBI)*%
X115087500Y-87500000D03*
%TD*%
D12*
%TO.P,CN3,1,-*%
%TO.N,-BATT*%
X98500000Y-102690000D03*
%TO.P,CN3,2,+*%
%TO.N,PACK+*%
X98500000Y-107690000D03*
D13*
%TO.P,CN3,3,3*%
%TO.N,unconnected-(CN3-Pad3)*%
X88500000Y-110690000D03*
%TO.P,CN3,4,4*%
%TO.N,unconnected-(CN3-Pad4)*%
X88500000Y-99690000D03*
%TD*%
D14*
%TO.P,R4,1*%
%TO.N,Net-(CN1-Pad3)*%
X98150000Y-68500000D03*
%TO.P,R4,2*%
%TO.N,Net-(U2-VC1)*%
X101250000Y-68500000D03*
%TD*%
D15*
%TO.P,R11,1*%
%TO.N,Net-(U2-CTRC)*%
X116912500Y-71750000D03*
%TO.P,R11,2*%
%TO.N,Net-(U2-OCDP)*%
X115087500Y-71750000D03*
%TD*%
%TO.P,R8,1*%
%TO.N,Net-(U2-LPWR)*%
X116912500Y-83500000D03*
%TO.P,R8,2*%
%TO.N,BPRES*%
X115087500Y-83500000D03*
%TD*%
D22*
%TO.P,R12,1*%
%TO.N,Net-(U2-CBI)*%
X115087500Y-73250000D03*
%TO.P,R12,2*%
%TO.N,BCBO*%
X116912500Y-73250000D03*
%TD*%
D20*
%TO.P,R10,1*%
%TO.N,Net-(U2-VTB)*%
X119500000Y-68087500D03*
%TO.P,R10,2*%
%TO.N,Net-(U2-TS)*%
X119500000Y-69912500D03*
%TD*%
D25*
%TO.P,Q1,1,S*%
%TO.N,Net-(U1-SRN)*%
X103500000Y-96690000D03*
%TO.P,Q1,2,S*%
X103500000Y-97960000D03*
%TO.P,Q1,3,S*%
X103500000Y-99240000D03*
%TO.P,Q1,4,G*%
%TO.N,Net-(Q1-G)*%
X103500000Y-100510000D03*
%TO.P,Q1,5,D*%
%TO.N,Net-(Q1-D-Pad5)*%
X109140000Y-100510000D03*
%TO.P,Q1,6,D*%
X109140000Y-99240000D03*
%TO.P,Q1,7,D*%
X109140000Y-97960000D03*
%TO.P,Q1,8,D*%
X109140000Y-96690000D03*
D26*
%TO.P,Q1,9,D*%
X107030000Y-98600000D03*
%TD*%
D18*
%TO.P,R18,1*%
%TO.N,Net-(U1-TS)*%
X121000000Y-84412500D03*
%TO.P,R18,2*%
%TO.N,GND*%
X121000000Y-82587500D03*
%TD*%
D20*
%TO.P,R21,1*%
%TO.N,Net-(U1-VTB)*%
X119500000Y-82587500D03*
%TO.P,R21,2*%
%TO.N,Net-(U1-TS)*%
X119500000Y-84412500D03*
%TD*%
D14*
%TO.P,R28,1*%
%TO.N,Net-(CN2-Pad3)*%
X98150000Y-87250000D03*
%TO.P,R28,2*%
%TO.N,Net-(U1-VC1)*%
X101250000Y-87250000D03*
%TD*%
D22*
%TO.P,R16,1*%
%TO.N,Net-(D2-C)*%
X115087500Y-74750000D03*
%TO.P,R16,2*%
%TO.N,Net-(U2-CTRC)*%
X116912500Y-74750000D03*
%TD*%
D27*
%TO.P,R13,1,1*%
%TO.N,-BATT*%
X94950000Y-97960000D03*
%TO.P,R13,2,2*%
%TO.N,Net-(U1-SRN)*%
X101050000Y-97960000D03*
%TD*%
D10*
%TO.P,C3,1*%
%TO.N,Net-(U2-VC1)*%
X101362500Y-70500000D03*
%TO.P,C3,2*%
%TO.N,Net-(U2-CTRC)*%
X99637500Y-70500000D03*
%TD*%
D20*
%TO.P,C5,1*%
%TO.N,Net-(U2-CTRC)*%
X106220000Y-64167500D03*
%TO.P,C5,2*%
%TO.N,Net-(U2-VDD)*%
X106220000Y-65992500D03*
%TD*%
D28*
%TO.N,Net-(U2-CTRC)*%
X104200000Y-64600000D03*
X105200000Y-62900000D03*
X113400000Y-67100000D03*
X104770000Y-73410000D03*
%TO.N,GND*%
X103200000Y-78700000D03*
X96270000Y-81180000D03*
X107800000Y-86700000D03*
X105100000Y-77200000D03*
%TO.N,Net-(D2-C)*%
X119700000Y-80400000D03*
X119200000Y-91700000D03*
%TO.N,Net-(Q1-D-Pad5)*%
X114790000Y-97470000D03*
X107030000Y-98600000D03*
X112770000Y-99790000D03*
X105980000Y-97470000D03*
X108090000Y-97470000D03*
X114790000Y-99790000D03*
X113610000Y-98600000D03*
X105980000Y-99790000D03*
X112770000Y-97470000D03*
X108090000Y-99790000D03*
%TO.N,Net-(U2-LPWR)*%
X116912500Y-83500000D03*
X113700000Y-73300000D03*
%TO.N,BCBO*%
X118600000Y-74100000D03*
X113400000Y-83500000D03*
%TD*%
D29*
%TO.N,Net-(U2-VC1)*%
X104230000Y-71330000D02*
X101362500Y-68462500D01*
X101362500Y-68462500D02*
X101362500Y-66500000D01*
X106220000Y-71330000D02*
X104230000Y-71330000D01*
X101362500Y-66500000D02*
X101362500Y-70500000D01*
%TO.N,Net-(U2-VC2)*%
X102500000Y-68600000D02*
X102500000Y-63637500D01*
X101362500Y-64775000D02*
X99637500Y-66500000D01*
X104570000Y-70670000D02*
X102500000Y-68600000D01*
X102500000Y-63637500D02*
X101362500Y-62500000D01*
X101362500Y-62500000D02*
X101362500Y-64775000D01*
X106220000Y-70670000D02*
X104570000Y-70670000D01*
%TO.N,Net-(U2-VC3)*%
X103200000Y-62450000D02*
X101250000Y-60500000D01*
X103732154Y-68831000D02*
X103200000Y-68298846D01*
X101250000Y-60500000D02*
X101250000Y-60887500D01*
X106220000Y-68720000D02*
X106220000Y-70020000D01*
X106220000Y-68720000D02*
X106109000Y-68831000D01*
X103200000Y-68298846D02*
X103200000Y-62450000D01*
X106109000Y-68831000D02*
X103732154Y-68831000D01*
X101250000Y-60887500D02*
X99637500Y-62500000D01*
D30*
%TO.N,Net-(U2-CTRC)*%
X93000000Y-72500000D02*
X92750000Y-72750000D01*
D31*
X111780000Y-67420000D02*
X113080000Y-67420000D01*
X106220000Y-63920000D02*
X105200000Y-62900000D01*
X113080000Y-67420000D02*
X113400000Y-67100000D01*
D30*
X98150000Y-72500000D02*
X93000000Y-72500000D01*
D31*
X106220000Y-64167500D02*
X106220000Y-63920000D01*
X112430000Y-68070000D02*
X113400000Y-67100000D01*
X104220000Y-64620000D02*
X104200000Y-64600000D01*
X104220000Y-66217500D02*
X104220000Y-64620000D01*
D29*
X99587500Y-77892500D02*
X98150000Y-79330000D01*
D31*
X111780000Y-68070000D02*
X112430000Y-68070000D01*
D29*
X99587500Y-77500000D02*
X99587500Y-77892500D01*
X99637500Y-74500000D02*
X99637500Y-73987500D01*
D30*
X98150000Y-79330000D02*
X94025000Y-79330000D01*
X94025000Y-79330000D02*
X92725000Y-78030000D01*
D31*
X104770000Y-73410000D02*
X104900000Y-73280000D01*
X104900000Y-73280000D02*
X106220000Y-73280000D01*
D29*
X99637500Y-73987500D02*
X98150000Y-72500000D01*
%TO.N,Net-(U2-VCO)*%
X106220000Y-71980000D02*
X103882500Y-71980000D01*
X101362500Y-72612500D02*
X101250000Y-72500000D01*
X101362500Y-74500000D02*
X101362500Y-72612500D01*
X103882500Y-71980000D02*
X101362500Y-74500000D01*
D31*
%TO.N,Net-(U2-VDD)*%
X103800000Y-63100000D02*
X103800000Y-60887500D01*
X113905000Y-65992500D02*
X106220000Y-65992500D01*
X103800000Y-60887500D02*
X101412500Y-58500000D01*
X106220000Y-65520000D02*
X103800000Y-63100000D01*
X106220000Y-65992500D02*
X106220000Y-67420000D01*
X106220000Y-65992500D02*
X106220000Y-65520000D01*
X116912500Y-69000000D02*
X113905000Y-65992500D01*
%TO.N,Net-(U2-AVDD)*%
X105530000Y-68070000D02*
X105402500Y-67942500D01*
X105402500Y-67942500D02*
X104220000Y-67942500D01*
X106220000Y-68070000D02*
X108170000Y-68070000D01*
X110120000Y-70020000D02*
X111780000Y-70020000D01*
X108170000Y-68070000D02*
X110120000Y-70020000D01*
X106220000Y-68070000D02*
X105530000Y-68070000D01*
D29*
%TO.N,Net-(U1-VC3)*%
X101250000Y-79637500D02*
X99637500Y-81250000D01*
X103898654Y-82780000D02*
X102251000Y-81132346D01*
X106220000Y-82780000D02*
X106220000Y-84080000D01*
X106220000Y-82780000D02*
X103898654Y-82780000D01*
X102251000Y-80331000D02*
X101250000Y-79330000D01*
X101250000Y-79330000D02*
X101250000Y-79637500D01*
X102251000Y-81132346D02*
X102251000Y-80331000D01*
%TO.N,Net-(U1-VC2)*%
X101362500Y-81250000D02*
X101362500Y-83525000D01*
X101362500Y-83525000D02*
X99637500Y-85250000D01*
X104842500Y-84730000D02*
X101362500Y-81250000D01*
X106220000Y-84730000D02*
X104842500Y-84730000D01*
%TO.N,Net-(U1-VC1)*%
X106220000Y-85390000D02*
X101502500Y-85390000D01*
X101502500Y-85390000D02*
X101362500Y-85250000D01*
X101362500Y-85250000D02*
X101362500Y-89250000D01*
D31*
%TO.N,GND*%
X106220000Y-78187500D02*
X106087500Y-78187500D01*
X106087500Y-78187500D02*
X105100000Y-77200000D01*
D30*
X94505000Y-91250000D02*
X92725000Y-89470000D01*
D31*
X106220000Y-86690000D02*
X107790000Y-86690000D01*
X104220000Y-79720000D02*
X103200000Y-78700000D01*
X104220000Y-80000000D02*
X104220000Y-79720000D01*
D30*
X98150000Y-91250000D02*
X94505000Y-91250000D01*
D31*
X107790000Y-86690000D02*
X107800000Y-86700000D01*
D29*
%TO.N,Net-(U1-VCO)*%
X102600000Y-92012500D02*
X101362500Y-93250000D01*
X105444053Y-86040000D02*
X102600000Y-88884053D01*
X101362500Y-93250000D02*
X101362500Y-91362500D01*
X101362500Y-91362500D02*
X101250000Y-91250000D01*
X106220000Y-86040000D02*
X105444053Y-86040000D01*
X102600000Y-88884053D02*
X102600000Y-92012500D01*
D31*
%TO.N,Net-(U1-VDD)*%
X103707500Y-77500000D02*
X101412500Y-77500000D01*
X106220000Y-80012500D02*
X103707500Y-77500000D01*
X106220000Y-81480000D02*
X106220000Y-80012500D01*
%TO.N,Net-(U1-AVDD)*%
X108330000Y-82130000D02*
X110280000Y-84080000D01*
X106220000Y-82130000D02*
X108330000Y-82130000D01*
X110280000Y-84080000D02*
X111780000Y-84080000D01*
X106220000Y-82130000D02*
X104625000Y-82130000D01*
X104625000Y-82130000D02*
X104220000Y-81725000D01*
D30*
%TO.N,Net-(CN1-Pad2)*%
X98150000Y-64500000D02*
X93370000Y-64500000D01*
X93370000Y-64500000D02*
X92750000Y-65120000D01*
%TO.N,Net-(CN1-Pad3)*%
X93190000Y-68500000D02*
X92750000Y-68940000D01*
X98150000Y-68500000D02*
X93190000Y-68500000D01*
%TO.N,Net-(CN1-Pad1)*%
X98150000Y-60500000D02*
X93560000Y-60500000D01*
D31*
X99587500Y-58500000D02*
X99587500Y-59062500D01*
X99587500Y-59062500D02*
X98150000Y-60500000D01*
D30*
X93560000Y-60500000D02*
X92750000Y-61310000D01*
%TO.N,Net-(CN2-Pad2)*%
X98150000Y-83250000D02*
X94135000Y-83250000D01*
X94135000Y-83250000D02*
X92725000Y-81840000D01*
%TO.N,Net-(CN2-Pad3)*%
X94315000Y-87250000D02*
X92725000Y-85660000D01*
X98150000Y-87250000D02*
X94315000Y-87250000D01*
D31*
%TO.N,-BATT*%
X103300000Y-89300000D02*
X103300000Y-93200000D01*
X98800000Y-94200000D02*
X95040000Y-97960000D01*
X95040000Y-97960000D02*
X94950000Y-97960000D01*
X102300000Y-94200000D02*
X98800000Y-94200000D01*
X106220000Y-87340000D02*
X105260000Y-87340000D01*
X103300000Y-93200000D02*
X102300000Y-94200000D01*
X105260000Y-87340000D02*
X103300000Y-89300000D01*
%TO.N,Net-(D2-A)*%
X117742500Y-90087500D02*
X118000000Y-89830000D01*
X116500000Y-90087500D02*
X117742500Y-90087500D01*
%TO.N,Net-(D2-C)*%
X111780000Y-73930000D02*
X114267500Y-73930000D01*
X115087500Y-75787500D02*
X115087500Y-74750000D01*
X118730000Y-92170000D02*
X119200000Y-91700000D01*
X119700000Y-80400000D02*
X115087500Y-75787500D01*
X118000000Y-92170000D02*
X118730000Y-92170000D01*
X114267500Y-73930000D02*
X115087500Y-74750000D01*
%TO.N,Net-(U1-SRN)*%
X105514763Y-87990000D02*
X104100000Y-89404763D01*
X105400000Y-90200000D02*
X104600000Y-91000000D01*
X104600000Y-93500000D02*
X103500000Y-94600000D01*
X98600000Y-94967100D02*
X98600000Y-97700000D01*
X98600000Y-97700000D02*
X99000000Y-98100000D01*
X104600000Y-91000000D02*
X104600000Y-93500000D01*
X103500000Y-94600000D02*
X103500000Y-96690000D01*
X104100000Y-89404763D02*
X104100000Y-93200000D01*
X106220000Y-87990000D02*
X105514763Y-87990000D01*
X98966100Y-94601000D02*
X98600000Y-94967100D01*
X99000000Y-98100000D02*
X99700000Y-98100000D01*
X99840000Y-97960000D02*
X101050000Y-97960000D01*
X99700000Y-98100000D02*
X99840000Y-97960000D01*
X102699000Y-94601000D02*
X98966100Y-94601000D01*
X104100000Y-93200000D02*
X102699000Y-94601000D01*
%TO.N,Net-(Q1-G)*%
X105400000Y-92025000D02*
X105400000Y-94100000D01*
X106900000Y-92025000D02*
X105400000Y-92025000D01*
X104700000Y-94800000D02*
X104700000Y-99705000D01*
X105400000Y-94100000D02*
X104700000Y-94800000D01*
X103895000Y-100510000D02*
X103500000Y-100510000D01*
X104700000Y-99705000D02*
X103895000Y-100510000D01*
%TO.N,Net-(Q3-G)*%
X112000000Y-91587500D02*
X113500000Y-90087500D01*
X112000000Y-91912500D02*
X116777500Y-96690000D01*
X116777500Y-96690000D02*
X117140000Y-96690000D01*
X112000000Y-91912500D02*
X112000000Y-91587500D01*
%TO.N,CTRC*%
X114957500Y-82130000D02*
X115087500Y-82000000D01*
X111780000Y-82130000D02*
X114957500Y-82130000D01*
%TO.N,Net-(U2-CHG)*%
X116912500Y-82000000D02*
X117701000Y-81211500D01*
X112248134Y-74580000D02*
X111780000Y-74580000D01*
X117701000Y-80032866D02*
X112248134Y-74580000D01*
X117701000Y-81211500D02*
X117701000Y-80032866D01*
%TO.N,CTRD*%
X111780000Y-81480000D02*
X114107500Y-81480000D01*
X114107500Y-81480000D02*
X115087500Y-80500000D01*
%TO.N,Net-(U2-DSG)*%
X116912500Y-80500000D02*
X113412500Y-77000000D01*
X108400000Y-77000000D02*
X106220000Y-74820000D01*
X106220000Y-74820000D02*
X106220000Y-74580000D01*
X113412500Y-77000000D02*
X108400000Y-77000000D01*
%TO.N,Net-(U2-LPWR)*%
X111780000Y-73280000D02*
X113680000Y-73280000D01*
X113680000Y-73280000D02*
X113700000Y-73300000D01*
%TO.N,BPRES*%
X114367500Y-82780000D02*
X115087500Y-83500000D01*
X111780000Y-82780000D02*
X114367500Y-82780000D01*
%TO.N,Net-(U2-PRES)*%
X114807500Y-68720000D02*
X115087500Y-69000000D01*
X111780000Y-68720000D02*
X114807500Y-68720000D01*
%TO.N,Net-(U2-TS)*%
X114251866Y-71330000D02*
X114781866Y-70800000D01*
X121187500Y-69912500D02*
X121275000Y-70000000D01*
X119000000Y-70800000D02*
X119500000Y-70300000D01*
X119500000Y-70300000D02*
X119500000Y-69912500D01*
X121000000Y-69912500D02*
X121187500Y-69912500D01*
X119500000Y-69912500D02*
X121000000Y-69912500D01*
X121275000Y-70000000D02*
X123500000Y-70000000D01*
X114781866Y-70800000D02*
X119000000Y-70800000D01*
X111780000Y-71330000D02*
X114251866Y-71330000D01*
%TO.N,Net-(U2-VTB)*%
X114814766Y-70200000D02*
X117387500Y-70200000D01*
X117387500Y-70200000D02*
X119500000Y-68087500D01*
X111780000Y-70670000D02*
X114344766Y-70670000D01*
X114344766Y-70670000D02*
X114814766Y-70200000D01*
%TO.N,Net-(U2-OCDP)*%
X111780000Y-71980000D02*
X114857500Y-71980000D01*
X114857500Y-71980000D02*
X115087500Y-71750000D01*
%TO.N,BCBO*%
X111780000Y-83430000D02*
X113330000Y-83430000D01*
X118500000Y-74100000D02*
X117650000Y-73250000D01*
X117650000Y-73250000D02*
X116912500Y-73250000D01*
X118600000Y-74100000D02*
X118500000Y-74100000D01*
X113330000Y-83430000D02*
X113400000Y-83500000D01*
%TO.N,Net-(U2-CBI)*%
X114467500Y-72630000D02*
X115087500Y-73250000D01*
X111780000Y-72630000D02*
X114467500Y-72630000D01*
%TO.N,Net-(U1-TS)*%
X113910000Y-85390000D02*
X114169000Y-85131000D01*
X118781500Y-85131000D02*
X119500000Y-84412500D01*
X114169000Y-85131000D02*
X118781500Y-85131000D01*
X119500000Y-84412500D02*
X121000000Y-84412500D01*
X121000000Y-84412500D02*
X123412500Y-84412500D01*
X111780000Y-85390000D02*
X113910000Y-85390000D01*
X123412500Y-84412500D02*
X123500000Y-84500000D01*
%TO.N,Net-(U1-VTB)*%
X111780000Y-84730000D02*
X111810000Y-84700000D01*
X111810000Y-84700000D02*
X117387500Y-84700000D01*
X117387500Y-84700000D02*
X119500000Y-82587500D01*
%TO.N,Net-(U1-DSG)*%
X106220000Y-89520000D02*
X106900000Y-90200000D01*
X106220000Y-88640000D02*
X106220000Y-89520000D01*
%TO.N,Net-(U1-CHG)*%
X111780000Y-88640000D02*
X111780000Y-89867500D01*
X111780000Y-89867500D02*
X112000000Y-90087500D01*
%TO.N,Net-(U1-LD)*%
X112902500Y-87990000D02*
X115000000Y-90087500D01*
X111780000Y-87990000D02*
X112902500Y-87990000D01*
%TO.N,Net-(U1-OCDP)*%
X115047500Y-86040000D02*
X115087500Y-86000000D01*
X111780000Y-86040000D02*
X115047500Y-86040000D01*
%TO.N,Net-(U1-CBI)*%
X114277500Y-86690000D02*
X115087500Y-87500000D01*
X111780000Y-86690000D02*
X114277500Y-86690000D01*
%TO.N,PACK-*%
X113500000Y-91912500D02*
X116500000Y-91912500D01*
X116500000Y-93300000D02*
X119300000Y-96100000D01*
X118240000Y-97960000D02*
X117140000Y-97960000D01*
X119300000Y-96900000D02*
X118240000Y-97960000D01*
X119300000Y-96100000D02*
X119300000Y-96900000D01*
X116500000Y-91912500D02*
X116500000Y-93300000D01*
%TD*%
%TA.AperFunction,Conductor*%
%TO.N,Net-(Q1-D-Pad5)*%
G36*
X114353942Y-95119685D02*
G01*
X114374584Y-95136319D01*
X115903181Y-96664916D01*
X115936666Y-96726239D01*
X115939500Y-96752597D01*
X115939500Y-97042869D01*
X115939501Y-97042876D01*
X115945908Y-97102483D01*
X115992182Y-97226547D01*
X115993197Y-97232176D01*
X115994977Y-97234945D01*
X116000000Y-97269880D01*
X116000000Y-97380119D01*
X115992182Y-97423452D01*
X115945909Y-97547517D01*
X115939500Y-97607127D01*
X115939500Y-97607134D01*
X115939500Y-97607135D01*
X115939500Y-98312870D01*
X115939501Y-98312876D01*
X115945908Y-98372483D01*
X115992182Y-98496547D01*
X115993197Y-98502176D01*
X115994977Y-98504945D01*
X116000000Y-98539880D01*
X116000000Y-98660119D01*
X115992182Y-98703452D01*
X115945909Y-98827517D01*
X115939500Y-98887127D01*
X115939500Y-98887134D01*
X115939500Y-98887135D01*
X115939500Y-99592870D01*
X115939501Y-99592876D01*
X115945908Y-99652483D01*
X115992182Y-99776547D01*
X115993197Y-99782176D01*
X115994977Y-99784945D01*
X116000000Y-99819880D01*
X116000000Y-99930119D01*
X115992182Y-99973452D01*
X115945909Y-100097517D01*
X115939500Y-100157127D01*
X115939500Y-100157134D01*
X115939500Y-100157135D01*
X115939500Y-100862870D01*
X115939501Y-100862876D01*
X115945909Y-100922484D01*
X115949707Y-100932668D01*
X115954691Y-101002360D01*
X115921205Y-101063682D01*
X115859882Y-101097167D01*
X115833525Y-101100000D01*
X104924000Y-101100000D01*
X104856961Y-101080315D01*
X104811206Y-101027511D01*
X104800000Y-100976000D01*
X104800000Y-100505596D01*
X104819685Y-100438557D01*
X104836319Y-100417915D01*
X105068713Y-100185521D01*
X105068716Y-100185520D01*
X105180520Y-100073716D01*
X105230639Y-99986904D01*
X105259577Y-99936785D01*
X105300501Y-99784057D01*
X105300501Y-99625943D01*
X105300501Y-99618348D01*
X105300500Y-99618330D01*
X105300500Y-95224000D01*
X105320185Y-95156961D01*
X105372989Y-95111206D01*
X105424500Y-95100000D01*
X114286903Y-95100000D01*
X114353942Y-95119685D01*
G37*
%TD.AperFunction*%
%TD*%
%TA.AperFunction,Conductor*%
%TO.N,Net-(U1-SRN)*%
G36*
X104042539Y-95109685D02*
G01*
X104088294Y-95162489D01*
X104099500Y-95214000D01*
X104099500Y-99404902D01*
X104090855Y-99434342D01*
X104084332Y-99464329D01*
X104080577Y-99469344D01*
X104079815Y-99471941D01*
X104063181Y-99492583D01*
X103887583Y-99668181D01*
X103826260Y-99701666D01*
X103799902Y-99704500D01*
X102752129Y-99704500D01*
X102752123Y-99704501D01*
X102692516Y-99710908D01*
X102557670Y-99761202D01*
X102552242Y-99765267D01*
X102486778Y-99789684D01*
X102477931Y-99790000D01*
X100576713Y-99790000D01*
X100509674Y-99770315D01*
X100495510Y-99759713D01*
X100466335Y-99734432D01*
X100466331Y-99734430D01*
X100335465Y-99674664D01*
X100335460Y-99674662D01*
X100335459Y-99674662D01*
X100268420Y-99654977D01*
X100268422Y-99654977D01*
X100268417Y-99654976D01*
X100181440Y-99642471D01*
X100126000Y-99634500D01*
X100125998Y-99634500D01*
X99374000Y-99634500D01*
X99306961Y-99614815D01*
X99261206Y-99562011D01*
X99250000Y-99510500D01*
X99250000Y-95214000D01*
X99269685Y-95146961D01*
X99322489Y-95101206D01*
X99374000Y-95090000D01*
X103975500Y-95090000D01*
X104042539Y-95109685D01*
G37*
%TD.AperFunction*%
%TD*%
%TA.AperFunction,Conductor*%
%TO.N,PACK-*%
G36*
X118440028Y-95109685D02*
G01*
X118460670Y-95126319D01*
X118505474Y-95171123D01*
X118505490Y-95171137D01*
X118505497Y-95171144D01*
X118545715Y-95207271D01*
X118545727Y-95207281D01*
X118545735Y-95207288D01*
X118566377Y-95223922D01*
X118610261Y-95255567D01*
X118741138Y-95315338D01*
X118808177Y-95335023D01*
X118808181Y-95335024D01*
X118950597Y-95355500D01*
X118950600Y-95355500D01*
X125375500Y-95355500D01*
X125442539Y-95375185D01*
X125488294Y-95427989D01*
X125499500Y-95479500D01*
X125499500Y-99007036D01*
X125479815Y-99074075D01*
X125427011Y-99119830D01*
X125357853Y-99129774D01*
X125294297Y-99100749D01*
X125265016Y-99063332D01*
X125210314Y-98955976D01*
X125080747Y-98777641D01*
X125080743Y-98777636D01*
X124924863Y-98621756D01*
X124924858Y-98621752D01*
X124746525Y-98492187D01*
X124746524Y-98492186D01*
X124746522Y-98492185D01*
X124683596Y-98460122D01*
X124550106Y-98392104D01*
X124550103Y-98392103D01*
X124340452Y-98323985D01*
X124231586Y-98306742D01*
X124122722Y-98289500D01*
X123902278Y-98289500D01*
X123829701Y-98300995D01*
X123684547Y-98323985D01*
X123474896Y-98392103D01*
X123474893Y-98392104D01*
X123278474Y-98492187D01*
X123100141Y-98621752D01*
X123100136Y-98621756D01*
X122944256Y-98777636D01*
X122944252Y-98777641D01*
X122814687Y-98955974D01*
X122714604Y-99152393D01*
X122714603Y-99152396D01*
X122646485Y-99362047D01*
X122617651Y-99544100D01*
X122612000Y-99579778D01*
X122612000Y-99800222D01*
X122615114Y-99819880D01*
X122646485Y-100017952D01*
X122714603Y-100227603D01*
X122714604Y-100227606D01*
X122814687Y-100424025D01*
X122944252Y-100602358D01*
X122944256Y-100602363D01*
X123100136Y-100758243D01*
X123100141Y-100758247D01*
X123197695Y-100829123D01*
X123278478Y-100887815D01*
X123406875Y-100953237D01*
X123474893Y-100987895D01*
X123474896Y-100987896D01*
X123579721Y-101021955D01*
X123684549Y-101056015D01*
X123902278Y-101090500D01*
X123902279Y-101090500D01*
X124122721Y-101090500D01*
X124122722Y-101090500D01*
X124340451Y-101056015D01*
X124550106Y-100987895D01*
X124746522Y-100887815D01*
X124924865Y-100758242D01*
X125080742Y-100602365D01*
X125210315Y-100424022D01*
X125265015Y-100316667D01*
X125312990Y-100265872D01*
X125380811Y-100249077D01*
X125446946Y-100271615D01*
X125490397Y-100326330D01*
X125499500Y-100372963D01*
X125499500Y-104816000D01*
X125479815Y-104883039D01*
X125427011Y-104928794D01*
X125375500Y-104940000D01*
X116374000Y-104940000D01*
X116306961Y-104920315D01*
X116261206Y-104867511D01*
X116250000Y-104816000D01*
X116250000Y-101500661D01*
X116269685Y-101433622D01*
X116274734Y-101426348D01*
X116278637Y-101421134D01*
X116278640Y-101421132D01*
X116364867Y-101305952D01*
X116398353Y-101244630D01*
X116398356Y-101244623D01*
X116398368Y-101244592D01*
X116448636Y-101109822D01*
X116448636Y-101109819D01*
X116448638Y-101109815D01*
X116458903Y-100966301D01*
X116453919Y-100896609D01*
X116450626Y-100881474D01*
X116448505Y-100868380D01*
X116445710Y-100842373D01*
X116445000Y-100829123D01*
X116445000Y-100228271D01*
X116452817Y-100184940D01*
X116465811Y-100150103D01*
X116489650Y-100063204D01*
X116497468Y-100019871D01*
X116505500Y-99930119D01*
X116505500Y-99819880D01*
X116500355Y-99747938D01*
X116495332Y-99713003D01*
X116489752Y-99687361D01*
X116489659Y-99686844D01*
X116489565Y-99686503D01*
X116479984Y-99642471D01*
X116477889Y-99637886D01*
X116473113Y-99625789D01*
X116472008Y-99622496D01*
X116465809Y-99599891D01*
X116452103Y-99563144D01*
X116451436Y-99561155D01*
X116451255Y-99556396D01*
X116445000Y-99521726D01*
X116445000Y-98958271D01*
X116452817Y-98914940D01*
X116465811Y-98880103D01*
X116489650Y-98793204D01*
X116497468Y-98749871D01*
X116505500Y-98660119D01*
X116505500Y-98539880D01*
X116500355Y-98467938D01*
X116495332Y-98433003D01*
X116489752Y-98407361D01*
X116489659Y-98406844D01*
X116489565Y-98406503D01*
X116479984Y-98362471D01*
X116477889Y-98357886D01*
X116473113Y-98345789D01*
X116472008Y-98342496D01*
X116465809Y-98319891D01*
X116452103Y-98283144D01*
X116451436Y-98281155D01*
X116451255Y-98276396D01*
X116445000Y-98241726D01*
X116445000Y-97678271D01*
X116452817Y-97634940D01*
X116465811Y-97600103D01*
X116465814Y-97600090D01*
X116465816Y-97600087D01*
X116469491Y-97586692D01*
X116506211Y-97527249D01*
X116569239Y-97497095D01*
X116589072Y-97495499D01*
X117887871Y-97495499D01*
X117887872Y-97495499D01*
X117947483Y-97489091D01*
X118082331Y-97438796D01*
X118197546Y-97352546D01*
X118283796Y-97237331D01*
X118334091Y-97102483D01*
X118340500Y-97042873D01*
X118340499Y-96337128D01*
X118334091Y-96277517D01*
X118283796Y-96142669D01*
X118224733Y-96063771D01*
X118200316Y-95998307D01*
X118200000Y-95989460D01*
X118200000Y-95214000D01*
X118202550Y-95205314D01*
X118201262Y-95196353D01*
X118212240Y-95172312D01*
X118219685Y-95146961D01*
X118226525Y-95141033D01*
X118230287Y-95132797D01*
X118252521Y-95118507D01*
X118272489Y-95101206D01*
X118283003Y-95098918D01*
X118289065Y-95095023D01*
X118324000Y-95090000D01*
X118372989Y-95090000D01*
X118440028Y-95109685D01*
G37*
%TD.AperFunction*%
%TD*%
%TA.AperFunction,Conductor*%
%TO.N,-BATT*%
G36*
X96693039Y-95375185D02*
G01*
X96738794Y-95427989D01*
X96750000Y-95479500D01*
X96750000Y-100140000D01*
X100126000Y-100140000D01*
X100193039Y-100159685D01*
X100238794Y-100212489D01*
X100250000Y-100264000D01*
X100250000Y-104816000D01*
X100230315Y-104883039D01*
X100177511Y-104928794D01*
X100126000Y-104940000D01*
X86624500Y-104940000D01*
X86557461Y-104920315D01*
X86511706Y-104867511D01*
X86500500Y-104816000D01*
X86500500Y-99579778D01*
X87099500Y-99579778D01*
X87099500Y-99800221D01*
X87133985Y-100017952D01*
X87202103Y-100227603D01*
X87202104Y-100227606D01*
X87302187Y-100424025D01*
X87431752Y-100602358D01*
X87431756Y-100602363D01*
X87587636Y-100758243D01*
X87587641Y-100758247D01*
X87743192Y-100871260D01*
X87765978Y-100887815D01*
X87894375Y-100953237D01*
X87962393Y-100987895D01*
X87962396Y-100987896D01*
X88067221Y-101021955D01*
X88172049Y-101056015D01*
X88389778Y-101090500D01*
X88389779Y-101090500D01*
X88610221Y-101090500D01*
X88610222Y-101090500D01*
X88827951Y-101056015D01*
X89037606Y-100987895D01*
X89234022Y-100887815D01*
X89412365Y-100758242D01*
X89568242Y-100602365D01*
X89697815Y-100424022D01*
X89797895Y-100227606D01*
X89866015Y-100017951D01*
X89900500Y-99800222D01*
X89900500Y-99579778D01*
X89866015Y-99362049D01*
X89797895Y-99152394D01*
X89797895Y-99152393D01*
X89763237Y-99084375D01*
X89697815Y-98955978D01*
X89681260Y-98933192D01*
X89568247Y-98777641D01*
X89568243Y-98777636D01*
X89412363Y-98621756D01*
X89412358Y-98621752D01*
X89234025Y-98492187D01*
X89234024Y-98492186D01*
X89234022Y-98492185D01*
X89171096Y-98460122D01*
X89037606Y-98392104D01*
X89037603Y-98392103D01*
X88827952Y-98323985D01*
X88719086Y-98306742D01*
X88610222Y-98289500D01*
X88389778Y-98289500D01*
X88317201Y-98300995D01*
X88172047Y-98323985D01*
X87962396Y-98392103D01*
X87962393Y-98392104D01*
X87765974Y-98492187D01*
X87587641Y-98621752D01*
X87587636Y-98621756D01*
X87431756Y-98777636D01*
X87431752Y-98777641D01*
X87302187Y-98955974D01*
X87202104Y-99152393D01*
X87202103Y-99152396D01*
X87133985Y-99362047D01*
X87099500Y-99579778D01*
X86500500Y-99579778D01*
X86500500Y-95479500D01*
X86520185Y-95412461D01*
X86572989Y-95366706D01*
X86624500Y-95355500D01*
X96626000Y-95355500D01*
X96693039Y-95375185D01*
G37*
%TD.AperFunction*%
%TD*%
%TA.AperFunction,Conductor*%
%TO.N,Net-(U2-CTRC)*%
G36*
X98823487Y-57520185D02*
G01*
X98869242Y-57572989D01*
X98879186Y-57642147D01*
X98850161Y-57705703D01*
X98844129Y-57712181D01*
X98754661Y-57801648D01*
X98664093Y-57948481D01*
X98664092Y-57948484D01*
X98609826Y-58112247D01*
X98609826Y-58112248D01*
X98609825Y-58112248D01*
X98599500Y-58213315D01*
X98599500Y-58786669D01*
X98599501Y-58786687D01*
X98609825Y-58887752D01*
X98609826Y-58887755D01*
X98634262Y-58961496D01*
X98636664Y-59031324D01*
X98600932Y-59091366D01*
X98538412Y-59122559D01*
X98516556Y-59124500D01*
X97699998Y-59124500D01*
X97699980Y-59124501D01*
X97597203Y-59135000D01*
X97597200Y-59135001D01*
X97430668Y-59190185D01*
X97430663Y-59190187D01*
X97281342Y-59282289D01*
X97157289Y-59406342D01*
X97074481Y-59540597D01*
X97022533Y-59587321D01*
X96968942Y-59599500D01*
X93471303Y-59599500D01*
X93297341Y-59634103D01*
X93297333Y-59634105D01*
X93227576Y-59663000D01*
X93227575Y-59663000D01*
X93138101Y-59700061D01*
X93090649Y-59709500D01*
X91602129Y-59709500D01*
X91602123Y-59709501D01*
X91542516Y-59715908D01*
X91407671Y-59766202D01*
X91407664Y-59766206D01*
X91292455Y-59852452D01*
X91292452Y-59852455D01*
X91206206Y-59967664D01*
X91206202Y-59967671D01*
X91155908Y-60102517D01*
X91149501Y-60162116D01*
X91149500Y-60162135D01*
X91149500Y-62457870D01*
X91149501Y-62457876D01*
X91155908Y-62517483D01*
X91206202Y-62652328D01*
X91206206Y-62652335D01*
X91292452Y-62767544D01*
X91292455Y-62767547D01*
X91407664Y-62853793D01*
X91407671Y-62853797D01*
X91542517Y-62904091D01*
X91542516Y-62904091D01*
X91549444Y-62904835D01*
X91602127Y-62910500D01*
X93897872Y-62910499D01*
X93957483Y-62904091D01*
X94092331Y-62853796D01*
X94207546Y-62767546D01*
X94293796Y-62652331D01*
X94344091Y-62517483D01*
X94350500Y-62457873D01*
X94350500Y-61524500D01*
X94370185Y-61457461D01*
X94422989Y-61411706D01*
X94474500Y-61400500D01*
X96968942Y-61400500D01*
X97035981Y-61420185D01*
X97074479Y-61459401D01*
X97157288Y-61593656D01*
X97281344Y-61717712D01*
X97430666Y-61809814D01*
X97597203Y-61864999D01*
X97699991Y-61875500D01*
X98516556Y-61875499D01*
X98583595Y-61895183D01*
X98629350Y-61947987D01*
X98639294Y-62017146D01*
X98634262Y-62038502D01*
X98609826Y-62112244D01*
X98609825Y-62112248D01*
X98599500Y-62213315D01*
X98599500Y-62786669D01*
X98599501Y-62786687D01*
X98609825Y-62887752D01*
X98609826Y-62887755D01*
X98634262Y-62961496D01*
X98636664Y-63031324D01*
X98600932Y-63091366D01*
X98538412Y-63122559D01*
X98516556Y-63124500D01*
X97699998Y-63124500D01*
X97699980Y-63124501D01*
X97597203Y-63135000D01*
X97597200Y-63135001D01*
X97430668Y-63190185D01*
X97430663Y-63190187D01*
X97281342Y-63282289D01*
X97157289Y-63406342D01*
X97157288Y-63406344D01*
X97078593Y-63533931D01*
X97074481Y-63540597D01*
X97022533Y-63587321D01*
X96968942Y-63599500D01*
X93275219Y-63599500D01*
X93275219Y-63598520D01*
X93232396Y-63593874D01*
X93124786Y-63558910D01*
X92967075Y-63533931D01*
X92875962Y-63519500D01*
X92624038Y-63519500D01*
X92532925Y-63533931D01*
X92375214Y-63558910D01*
X92135616Y-63636760D01*
X91911151Y-63751132D01*
X91707350Y-63899201D01*
X91707345Y-63899205D01*
X91529205Y-64077345D01*
X91529201Y-64077350D01*
X91381132Y-64281151D01*
X91266760Y-64505616D01*
X91188910Y-64745214D01*
X91188910Y-64745215D01*
X91149500Y-64994038D01*
X91149500Y-65245962D01*
X91163301Y-65333096D01*
X91188910Y-65494785D01*
X91266760Y-65734383D01*
X91381132Y-65958848D01*
X91529201Y-66162649D01*
X91529205Y-66162654D01*
X91707345Y-66340794D01*
X91707350Y-66340798D01*
X91885117Y-66469952D01*
X91911155Y-66488870D01*
X92043916Y-66556515D01*
X92135616Y-66603239D01*
X92135618Y-66603239D01*
X92135621Y-66603241D01*
X92375215Y-66681090D01*
X92624038Y-66720500D01*
X92624039Y-66720500D01*
X92875961Y-66720500D01*
X92875962Y-66720500D01*
X93124785Y-66681090D01*
X93364379Y-66603241D01*
X93588845Y-66488870D01*
X93792656Y-66340793D01*
X93970793Y-66162656D01*
X94118870Y-65958845D01*
X94233241Y-65734379D01*
X94311090Y-65494785D01*
X94312596Y-65490151D01*
X94313786Y-65490537D01*
X94345694Y-65434963D01*
X94407720Y-65402798D01*
X94431480Y-65400500D01*
X96968942Y-65400500D01*
X97035981Y-65420185D01*
X97074479Y-65459401D01*
X97157288Y-65593656D01*
X97281344Y-65717712D01*
X97430666Y-65809814D01*
X97597203Y-65864999D01*
X97699991Y-65875500D01*
X98516556Y-65875499D01*
X98583595Y-65895183D01*
X98629350Y-65947987D01*
X98639294Y-66017146D01*
X98634262Y-66038502D01*
X98609826Y-66112244D01*
X98609825Y-66112248D01*
X98599500Y-66213315D01*
X98599500Y-66786669D01*
X98599501Y-66786687D01*
X98609825Y-66887752D01*
X98609826Y-66887755D01*
X98634262Y-66961496D01*
X98636664Y-67031324D01*
X98600932Y-67091366D01*
X98538412Y-67122559D01*
X98516556Y-67124500D01*
X97699998Y-67124500D01*
X97699980Y-67124501D01*
X97597203Y-67135000D01*
X97597200Y-67135001D01*
X97430668Y-67190185D01*
X97430663Y-67190187D01*
X97281342Y-67282289D01*
X97157289Y-67406342D01*
X97157288Y-67406344D01*
X97075245Y-67539359D01*
X97074481Y-67540597D01*
X97022533Y-67587321D01*
X96968942Y-67599500D01*
X93668183Y-67599500D01*
X93601144Y-67579815D01*
X93595296Y-67575817D01*
X93588846Y-67571130D01*
X93364383Y-67456760D01*
X93124785Y-67378910D01*
X92990606Y-67357658D01*
X92875962Y-67339500D01*
X92624038Y-67339500D01*
X92509394Y-67357658D01*
X92375214Y-67378910D01*
X92135616Y-67456760D01*
X91911151Y-67571132D01*
X91707350Y-67719201D01*
X91707345Y-67719205D01*
X91529205Y-67897345D01*
X91529201Y-67897350D01*
X91381132Y-68101151D01*
X91266760Y-68325616D01*
X91188910Y-68565214D01*
X91168221Y-68695839D01*
X91149500Y-68814038D01*
X91149500Y-69065962D01*
X91183051Y-69277795D01*
X91188910Y-69314785D01*
X91266760Y-69554383D01*
X91338409Y-69695000D01*
X91377451Y-69771625D01*
X91381132Y-69778848D01*
X91529201Y-69982649D01*
X91529205Y-69982654D01*
X91707345Y-70160794D01*
X91707350Y-70160798D01*
X91786753Y-70218487D01*
X91911155Y-70308870D01*
X92054184Y-70381747D01*
X92135616Y-70423239D01*
X92135618Y-70423239D01*
X92135621Y-70423241D01*
X92375215Y-70501090D01*
X92624038Y-70540500D01*
X92624039Y-70540500D01*
X92875961Y-70540500D01*
X92875962Y-70540500D01*
X93124785Y-70501090D01*
X93364379Y-70423241D01*
X93588845Y-70308870D01*
X93792656Y-70160793D01*
X93970793Y-69982656D01*
X94118870Y-69778845D01*
X94233241Y-69554379D01*
X94242436Y-69526079D01*
X94255400Y-69486182D01*
X94294838Y-69428506D01*
X94359196Y-69401308D01*
X94373331Y-69400500D01*
X96968942Y-69400500D01*
X97035981Y-69420185D01*
X97074479Y-69459401D01*
X97157288Y-69593656D01*
X97281344Y-69717712D01*
X97430666Y-69809814D01*
X97597203Y-69864999D01*
X97699991Y-69875500D01*
X98600008Y-69875499D01*
X98600016Y-69875498D01*
X98600019Y-69875498D01*
X98656302Y-69869748D01*
X98702797Y-69864999D01*
X98869334Y-69809814D01*
X99018656Y-69717712D01*
X99142712Y-69593656D01*
X99234814Y-69444334D01*
X99289999Y-69277797D01*
X99300500Y-69175009D01*
X99300499Y-67824992D01*
X99289999Y-67722203D01*
X99262262Y-67638501D01*
X99259861Y-67568676D01*
X99295592Y-67508633D01*
X99358112Y-67477440D01*
X99379959Y-67475499D01*
X99986676Y-67475499D01*
X100008376Y-67473282D01*
X100077068Y-67486051D01*
X100127953Y-67533931D01*
X100144874Y-67601720D01*
X100138684Y-67635644D01*
X100110001Y-67722203D01*
X100110000Y-67722204D01*
X100099500Y-67824983D01*
X100099500Y-69175001D01*
X100099501Y-69175018D01*
X100110000Y-69277796D01*
X100110001Y-69277799D01*
X100165185Y-69444331D01*
X100165187Y-69444336D01*
X100188110Y-69481500D01*
X100257288Y-69593656D01*
X100381344Y-69717712D01*
X100384530Y-69719677D01*
X100386257Y-69721597D01*
X100387013Y-69722195D01*
X100386910Y-69722324D01*
X100431254Y-69771625D01*
X100442477Y-69840588D01*
X100424972Y-69890312D01*
X100389095Y-69948477D01*
X100389091Y-69948486D01*
X100387603Y-69952976D01*
X100334826Y-70112247D01*
X100334826Y-70112248D01*
X100334825Y-70112248D01*
X100324500Y-70213315D01*
X100324500Y-70786669D01*
X100324501Y-70786687D01*
X100334825Y-70887752D01*
X100356297Y-70952548D01*
X100387745Y-71047452D01*
X100389092Y-71051515D01*
X100389093Y-71051518D01*
X100424972Y-71109686D01*
X100443412Y-71177079D01*
X100422489Y-71243742D01*
X100384541Y-71280315D01*
X100381347Y-71282284D01*
X100257289Y-71406342D01*
X100165187Y-71555663D01*
X100165186Y-71555666D01*
X100110001Y-71722203D01*
X100110001Y-71722204D01*
X100110000Y-71722204D01*
X100099500Y-71824983D01*
X100099500Y-73175001D01*
X100099501Y-73175018D01*
X100110000Y-73277796D01*
X100110001Y-73277799D01*
X100165185Y-73444331D01*
X100165187Y-73444336D01*
X100200069Y-73500888D01*
X100257288Y-73593656D01*
X100381344Y-73717712D01*
X100384530Y-73719677D01*
X100386257Y-73721597D01*
X100387013Y-73722195D01*
X100386910Y-73722324D01*
X100431254Y-73771625D01*
X100442477Y-73840588D01*
X100424972Y-73890312D01*
X100389095Y-73948477D01*
X100389092Y-73948484D01*
X100334826Y-74112247D01*
X100334826Y-74112248D01*
X100334825Y-74112248D01*
X100324500Y-74213315D01*
X100324500Y-74786669D01*
X100324501Y-74786687D01*
X100334825Y-74887752D01*
X100371109Y-74997249D01*
X100389092Y-75051516D01*
X100479660Y-75198350D01*
X100601650Y-75320340D01*
X100748484Y-75410908D01*
X100912247Y-75465174D01*
X101013323Y-75475500D01*
X101711676Y-75475499D01*
X101711684Y-75475498D01*
X101711687Y-75475498D01*
X101767030Y-75469844D01*
X101812753Y-75465174D01*
X101976516Y-75410908D01*
X102123350Y-75320340D01*
X102245340Y-75198350D01*
X102335908Y-75051516D01*
X102390174Y-74887753D01*
X102400500Y-74786677D01*
X102400499Y-74433306D01*
X102420183Y-74366268D01*
X102436813Y-74345631D01*
X104115626Y-72666819D01*
X104176949Y-72633334D01*
X104203307Y-72630500D01*
X105315423Y-72630500D01*
X105340324Y-72634195D01*
X105340530Y-72633161D01*
X105477972Y-72660499D01*
X105477976Y-72660500D01*
X105477977Y-72660500D01*
X106962024Y-72660500D01*
X106962025Y-72660499D01*
X107012383Y-72650483D01*
X107093487Y-72634351D01*
X107093490Y-72634349D01*
X107093495Y-72634349D01*
X107159411Y-72607045D01*
X107217332Y-72583055D01*
X107217335Y-72583053D01*
X107217338Y-72583052D01*
X107328794Y-72508579D01*
X107423579Y-72413794D01*
X107498052Y-72302338D01*
X107498053Y-72302335D01*
X107498055Y-72302332D01*
X107522758Y-72242693D01*
X107549349Y-72178495D01*
X107575500Y-72047023D01*
X107575500Y-71912977D01*
X107575266Y-71911802D01*
X107549351Y-71781512D01*
X107549349Y-71781507D01*
X107549349Y-71781505D01*
X107516603Y-71702450D01*
X107509135Y-71632983D01*
X107516604Y-71607548D01*
X107549349Y-71528495D01*
X107558747Y-71481250D01*
X107575499Y-71397027D01*
X107575500Y-71397024D01*
X107575500Y-71262976D01*
X107575499Y-71262972D01*
X107558414Y-71177079D01*
X107549349Y-71131505D01*
X107514532Y-71047450D01*
X107507065Y-70977982D01*
X107514533Y-70952548D01*
X107549349Y-70868495D01*
X107555832Y-70835906D01*
X107575499Y-70737027D01*
X107575500Y-70737024D01*
X107575500Y-70602976D01*
X107575499Y-70602972D01*
X107549351Y-70471512D01*
X107549349Y-70471507D01*
X107549349Y-70471505D01*
X107516603Y-70392450D01*
X107509135Y-70322983D01*
X107516601Y-70297554D01*
X107549349Y-70218495D01*
X107550380Y-70213315D01*
X107566783Y-70130847D01*
X107575500Y-70087023D01*
X107575500Y-69952977D01*
X107563429Y-69892291D01*
X107549351Y-69821512D01*
X107549349Y-69821507D01*
X107549349Y-69821505D01*
X107516603Y-69742450D01*
X107509135Y-69672983D01*
X107516601Y-69647554D01*
X107549349Y-69568495D01*
X107552158Y-69554376D01*
X107575499Y-69437027D01*
X107575500Y-69437024D01*
X107575500Y-69302976D01*
X107575499Y-69302972D01*
X107549351Y-69171512D01*
X107549349Y-69171507D01*
X107549349Y-69171505D01*
X107516603Y-69092450D01*
X107509135Y-69022983D01*
X107516604Y-68997548D01*
X107549349Y-68918495D01*
X107570127Y-68814038D01*
X107575499Y-68787029D01*
X107575961Y-68782342D01*
X107577033Y-68779686D01*
X107576626Y-68776853D01*
X107590034Y-68747491D01*
X107602124Y-68717556D01*
X107604461Y-68715902D01*
X107605651Y-68713297D01*
X107632815Y-68695839D01*
X107659160Y-68677199D01*
X107662752Y-68676600D01*
X107664429Y-68675523D01*
X107699364Y-68670500D01*
X107869903Y-68670500D01*
X107936942Y-68690185D01*
X107957584Y-68706819D01*
X109635139Y-70384374D01*
X109635149Y-70384385D01*
X109639479Y-70388715D01*
X109639480Y-70388716D01*
X109751284Y-70500520D01*
X109751286Y-70500521D01*
X109751290Y-70500524D01*
X109820532Y-70540500D01*
X109888216Y-70579577D01*
X109986571Y-70605931D01*
X110040942Y-70620500D01*
X110040943Y-70620500D01*
X110300636Y-70620500D01*
X110367675Y-70640185D01*
X110413430Y-70692989D01*
X110424039Y-70732342D01*
X110424500Y-70737029D01*
X110444169Y-70835908D01*
X110450651Y-70868495D01*
X110485467Y-70952548D01*
X110492935Y-71022018D01*
X110485468Y-71047448D01*
X110450651Y-71131505D01*
X110450650Y-71131509D01*
X110450649Y-71131512D01*
X110450648Y-71131512D01*
X110424500Y-71262972D01*
X110424500Y-71397027D01*
X110449856Y-71524500D01*
X110450651Y-71528495D01*
X110483396Y-71607548D01*
X110490864Y-71677018D01*
X110483397Y-71702448D01*
X110450651Y-71781505D01*
X110450651Y-71781507D01*
X110450649Y-71781512D01*
X110450648Y-71781512D01*
X110424500Y-71912972D01*
X110424500Y-72047027D01*
X110442546Y-72137749D01*
X110450651Y-72178495D01*
X110480907Y-72251539D01*
X110483396Y-72257548D01*
X110490864Y-72327018D01*
X110483397Y-72352448D01*
X110450651Y-72431505D01*
X110450650Y-72431509D01*
X110450649Y-72431512D01*
X110450648Y-72431512D01*
X110424500Y-72562972D01*
X110424500Y-72697027D01*
X110450649Y-72828487D01*
X110450651Y-72828495D01*
X110475446Y-72888355D01*
X110483396Y-72907548D01*
X110490864Y-72977018D01*
X110483397Y-73002448D01*
X110450651Y-73081505D01*
X110450650Y-73081509D01*
X110450649Y-73081512D01*
X110450648Y-73081512D01*
X110424500Y-73212972D01*
X110424500Y-73347027D01*
X110450649Y-73478487D01*
X110450651Y-73478495D01*
X110483396Y-73557548D01*
X110490864Y-73627018D01*
X110483397Y-73652448D01*
X110450651Y-73731505D01*
X110450650Y-73731509D01*
X110450649Y-73731512D01*
X110450648Y-73731512D01*
X110424500Y-73862972D01*
X110424500Y-73997027D01*
X110449492Y-74122668D01*
X110450651Y-74128495D01*
X110483396Y-74207548D01*
X110490864Y-74277018D01*
X110483397Y-74302448D01*
X110450651Y-74381505D01*
X110450650Y-74381509D01*
X110450649Y-74381512D01*
X110450648Y-74381512D01*
X110424500Y-74512972D01*
X110424500Y-74647027D01*
X110450648Y-74778487D01*
X110450651Y-74778496D01*
X110501944Y-74902332D01*
X110501951Y-74902344D01*
X110576420Y-75013793D01*
X110576423Y-75013797D01*
X110671202Y-75108576D01*
X110671206Y-75108579D01*
X110782655Y-75183048D01*
X110782667Y-75183055D01*
X110887196Y-75226351D01*
X110906505Y-75234349D01*
X110906507Y-75234349D01*
X110906512Y-75234351D01*
X111037972Y-75260499D01*
X111037976Y-75260500D01*
X111037977Y-75260500D01*
X112028037Y-75260500D01*
X112095076Y-75280185D01*
X112115718Y-75296819D01*
X112607218Y-75788319D01*
X112640703Y-75849642D01*
X112635719Y-75919334D01*
X112593847Y-75975267D01*
X112528383Y-75999684D01*
X112519537Y-76000000D01*
X108300598Y-76000000D01*
X108233559Y-75980315D01*
X108212917Y-75963681D01*
X107430680Y-75181444D01*
X107397195Y-75120121D01*
X107402179Y-75050429D01*
X107420304Y-75018932D01*
X107420195Y-75018859D01*
X107421288Y-75017222D01*
X107422518Y-75015086D01*
X107423568Y-75013804D01*
X107423579Y-75013794D01*
X107498052Y-74902338D01*
X107498053Y-74902335D01*
X107498055Y-74902332D01*
X107536552Y-74809390D01*
X107549349Y-74778495D01*
X107575500Y-74647023D01*
X107575500Y-74512977D01*
X107575266Y-74511802D01*
X107549351Y-74381512D01*
X107549348Y-74381503D01*
X107498055Y-74257667D01*
X107498048Y-74257655D01*
X107423579Y-74146206D01*
X107423576Y-74146202D01*
X107328797Y-74051423D01*
X107328793Y-74051420D01*
X107217344Y-73976951D01*
X107217332Y-73976944D01*
X107093496Y-73925651D01*
X107093487Y-73925648D01*
X106962027Y-73899500D01*
X106962023Y-73899500D01*
X105477977Y-73899500D01*
X105477972Y-73899500D01*
X105346512Y-73925648D01*
X105346503Y-73925651D01*
X105222667Y-73976944D01*
X105222655Y-73976951D01*
X105111206Y-74051420D01*
X105111202Y-74051423D01*
X105016423Y-74146202D01*
X105016420Y-74146206D01*
X104941951Y-74257655D01*
X104941944Y-74257667D01*
X104890651Y-74381503D01*
X104890648Y-74381512D01*
X104864500Y-74512972D01*
X104864500Y-74647027D01*
X104890648Y-74778487D01*
X104890651Y-74778496D01*
X104941944Y-74902332D01*
X104941951Y-74902344D01*
X105016420Y-75013793D01*
X105016423Y-75013797D01*
X105111202Y-75108576D01*
X105111206Y-75108579D01*
X105222655Y-75183048D01*
X105222667Y-75183055D01*
X105327196Y-75226351D01*
X105346505Y-75234349D01*
X105346507Y-75234349D01*
X105346512Y-75234351D01*
X105477972Y-75260499D01*
X105477976Y-75260500D01*
X105477977Y-75260500D01*
X105759902Y-75260500D01*
X105789336Y-75269142D01*
X105819324Y-75275665D01*
X105824343Y-75279422D01*
X105826941Y-75280185D01*
X105847579Y-75296815D01*
X105858351Y-75307586D01*
X105858351Y-75307587D01*
X105858355Y-75307590D01*
X106083584Y-75532819D01*
X106117069Y-75594142D01*
X106112085Y-75663834D01*
X106070213Y-75719767D01*
X106004749Y-75744184D01*
X105995903Y-75744500D01*
X101993229Y-75744500D01*
X101859169Y-75762600D01*
X101795750Y-75780043D01*
X101671304Y-75833043D01*
X101671302Y-75833044D01*
X101671300Y-75833045D01*
X101564511Y-75919334D01*
X101559386Y-75923475D01*
X101525120Y-75960377D01*
X101496856Y-75977196D01*
X101469189Y-75994977D01*
X101466273Y-75995396D01*
X101465077Y-75996108D01*
X101434254Y-76000000D01*
X101390626Y-76000000D01*
X101323587Y-75980315D01*
X101296914Y-75957204D01*
X101280840Y-75938653D01*
X101172106Y-75844433D01*
X101172103Y-75844431D01*
X101172101Y-75844430D01*
X101041235Y-75784664D01*
X101041230Y-75784662D01*
X101041229Y-75784662D01*
X100974190Y-75764977D01*
X100974192Y-75764977D01*
X100974187Y-75764976D01*
X100912124Y-75756053D01*
X100831770Y-75744500D01*
X100168229Y-75744500D01*
X100034169Y-75762600D01*
X99970750Y-75780043D01*
X99846304Y-75833043D01*
X99846302Y-75833044D01*
X99846300Y-75833045D01*
X99739511Y-75919334D01*
X99734386Y-75923475D01*
X99700120Y-75960377D01*
X99671856Y-75977196D01*
X99644189Y-75994977D01*
X99641273Y-75995396D01*
X99640077Y-75996108D01*
X99609254Y-76000000D01*
X99565626Y-76000000D01*
X99498587Y-75980315D01*
X99471914Y-75957204D01*
X99455840Y-75938653D01*
X99347106Y-75844433D01*
X99347103Y-75844431D01*
X99347101Y-75844430D01*
X99216235Y-75784664D01*
X99216230Y-75784662D01*
X99216229Y-75784662D01*
X99149190Y-75764977D01*
X99149192Y-75764977D01*
X99149187Y-75764976D01*
X99087124Y-75756053D01*
X99006770Y-75744500D01*
X94120584Y-75744500D01*
X94068232Y-75749184D01*
X94030834Y-75752530D01*
X93987517Y-75760344D01*
X93987513Y-75760345D01*
X93900610Y-75784184D01*
X93774327Y-75853136D01*
X93774325Y-75853137D01*
X93710260Y-75901094D01*
X93704180Y-75909217D01*
X93649714Y-75963682D01*
X93588391Y-75997166D01*
X93562034Y-76000000D01*
X91888272Y-76000000D01*
X91821233Y-75980315D01*
X91794560Y-75957204D01*
X91778486Y-75938653D01*
X91669752Y-75844433D01*
X91669749Y-75844431D01*
X91669747Y-75844430D01*
X91538881Y-75784664D01*
X91538876Y-75784662D01*
X91538875Y-75784662D01*
X91471836Y-75764977D01*
X91471838Y-75764977D01*
X91471833Y-75764976D01*
X91409770Y-75756053D01*
X91329416Y-75744500D01*
X86624500Y-75744500D01*
X86557461Y-75724815D01*
X86511706Y-75672011D01*
X86500500Y-75620500D01*
X86500500Y-57624500D01*
X86520185Y-57557461D01*
X86572989Y-57511706D01*
X86624500Y-57500500D01*
X98756448Y-57500500D01*
X98823487Y-57520185D01*
G37*
%TD.AperFunction*%
%TA.AperFunction,Conductor*%
G36*
X125442539Y-57520185D02*
G01*
X125488294Y-57572989D01*
X125499500Y-57624500D01*
X125499500Y-75620500D01*
X125479815Y-75687539D01*
X125427011Y-75733294D01*
X125375500Y-75744500D01*
X116698578Y-75744500D01*
X116680595Y-75744820D01*
X116672950Y-75745093D01*
X116671705Y-75745138D01*
X116671701Y-75745138D01*
X116671679Y-75745139D01*
X116653693Y-75746103D01*
X116653678Y-75746105D01*
X116513102Y-75776686D01*
X116513097Y-75776687D01*
X116513096Y-75776688D01*
X116504104Y-75780042D01*
X116447630Y-75801105D01*
X116447626Y-75801107D01*
X116321358Y-75870055D01*
X116258001Y-75933409D01*
X116196677Y-75966892D01*
X116126985Y-75961906D01*
X116082641Y-75933406D01*
X115846643Y-75697408D01*
X115813158Y-75636085D01*
X115818142Y-75566393D01*
X115846639Y-75522050D01*
X115920340Y-75448350D01*
X116010908Y-75301516D01*
X116065174Y-75137753D01*
X116075500Y-75036677D01*
X116075499Y-74463324D01*
X116065174Y-74362247D01*
X116015696Y-74212935D01*
X116013295Y-74143113D01*
X116049026Y-74083071D01*
X116111546Y-74051878D01*
X116181006Y-74059437D01*
X116198500Y-74068397D01*
X116201649Y-74070339D01*
X116201650Y-74070340D01*
X116348484Y-74160908D01*
X116512247Y-74215174D01*
X116613323Y-74225500D01*
X117211676Y-74225499D01*
X117211684Y-74225498D01*
X117211687Y-74225498D01*
X117267030Y-74219844D01*
X117312753Y-74215174D01*
X117476516Y-74160908D01*
X117538513Y-74122667D01*
X117567050Y-74114858D01*
X117594764Y-74104522D01*
X117600368Y-74105741D01*
X117605903Y-74104227D01*
X117634129Y-74113085D01*
X117663036Y-74119374D01*
X117669439Y-74124167D01*
X117672567Y-74125149D01*
X117691283Y-74140518D01*
X117790258Y-74239493D01*
X117823741Y-74300816D01*
X117824192Y-74302980D01*
X117830261Y-74333493D01*
X117830263Y-74333499D01*
X117890602Y-74479172D01*
X117890609Y-74479185D01*
X117978210Y-74610288D01*
X117978213Y-74610292D01*
X118089707Y-74721786D01*
X118089711Y-74721789D01*
X118220814Y-74809390D01*
X118220827Y-74809397D01*
X118366498Y-74869735D01*
X118366503Y-74869737D01*
X118521153Y-74900499D01*
X118521156Y-74900500D01*
X118521158Y-74900500D01*
X118678844Y-74900500D01*
X118678845Y-74900499D01*
X118833497Y-74869737D01*
X118979179Y-74809394D01*
X119110289Y-74721789D01*
X119221789Y-74610289D01*
X119309394Y-74479179D01*
X119369737Y-74333497D01*
X119400500Y-74178842D01*
X119400500Y-74021158D01*
X119400500Y-74021155D01*
X119400499Y-74021153D01*
X119391705Y-73976944D01*
X119369737Y-73866503D01*
X119369735Y-73866498D01*
X119309397Y-73720827D01*
X119309390Y-73720814D01*
X119221789Y-73589711D01*
X119221786Y-73589707D01*
X119110292Y-73478213D01*
X119110288Y-73478210D01*
X118979185Y-73390609D01*
X118979172Y-73390602D01*
X118833501Y-73330264D01*
X118833489Y-73330261D01*
X118678845Y-73299500D01*
X118678842Y-73299500D01*
X118600098Y-73299500D01*
X118533059Y-73279815D01*
X118512417Y-73263181D01*
X118137590Y-72888355D01*
X118137588Y-72888352D01*
X118018717Y-72769481D01*
X118018716Y-72769480D01*
X117992752Y-72754490D01*
X117935949Y-72721695D01*
X117935945Y-72721693D01*
X117931904Y-72719360D01*
X117881785Y-72690423D01*
X117857253Y-72683849D01*
X117846803Y-72678824D01*
X117829122Y-72662877D01*
X117808788Y-72650483D01*
X117795009Y-72632178D01*
X117745340Y-72551650D01*
X117623350Y-72429660D01*
X117476516Y-72339092D01*
X117312753Y-72284826D01*
X117312751Y-72284825D01*
X117211678Y-72274500D01*
X116613330Y-72274500D01*
X116613312Y-72274501D01*
X116512247Y-72284825D01*
X116348484Y-72339092D01*
X116348477Y-72339095D01*
X116198499Y-72431602D01*
X116131107Y-72450042D01*
X116064443Y-72429119D01*
X116019674Y-72375477D01*
X116011013Y-72306146D01*
X116015691Y-72287080D01*
X116065174Y-72137753D01*
X116075500Y-72036677D01*
X116075499Y-71524499D01*
X116095183Y-71457461D01*
X116147987Y-71411706D01*
X116199499Y-71400500D01*
X118913331Y-71400500D01*
X118913347Y-71400501D01*
X118920943Y-71400501D01*
X119079054Y-71400501D01*
X119079057Y-71400501D01*
X119231785Y-71359577D01*
X119299468Y-71320500D01*
X119368716Y-71280520D01*
X119480520Y-71168716D01*
X119480521Y-71168714D01*
X119713227Y-70936007D01*
X119774548Y-70902524D01*
X119788297Y-70900333D01*
X119887753Y-70890174D01*
X120051516Y-70835908D01*
X120184903Y-70753633D01*
X120252295Y-70735193D01*
X120315097Y-70753634D01*
X120448475Y-70835903D01*
X120448478Y-70835904D01*
X120448484Y-70835908D01*
X120612247Y-70890174D01*
X120713323Y-70900500D01*
X121286676Y-70900499D01*
X121286684Y-70900498D01*
X121286687Y-70900498D01*
X121342030Y-70894844D01*
X121387753Y-70890174D01*
X121551516Y-70835908D01*
X121698350Y-70745340D01*
X121806871Y-70636819D01*
X121868194Y-70603334D01*
X121894552Y-70600500D01*
X122634216Y-70600500D01*
X122701255Y-70620185D01*
X122721897Y-70636819D01*
X122862214Y-70777136D01*
X122862218Y-70777139D01*
X123026079Y-70886628D01*
X123026092Y-70886635D01*
X123208160Y-70962049D01*
X123208165Y-70962051D01*
X123208169Y-70962051D01*
X123208170Y-70962052D01*
X123401456Y-71000500D01*
X123401459Y-71000500D01*
X123598543Y-71000500D01*
X123728582Y-70974632D01*
X123791835Y-70962051D01*
X123971210Y-70887752D01*
X123973907Y-70886635D01*
X123973907Y-70886634D01*
X123973914Y-70886632D01*
X124137782Y-70777139D01*
X124277139Y-70637782D01*
X124386632Y-70473914D01*
X124462051Y-70291835D01*
X124488117Y-70160793D01*
X124500500Y-70098543D01*
X124500500Y-69901456D01*
X124462052Y-69708170D01*
X124462051Y-69708169D01*
X124462051Y-69708165D01*
X124447478Y-69672983D01*
X124386635Y-69526092D01*
X124386628Y-69526079D01*
X124277139Y-69362218D01*
X124277136Y-69362214D01*
X124137785Y-69222863D01*
X124137781Y-69222860D01*
X123973920Y-69113371D01*
X123973907Y-69113364D01*
X123791839Y-69037950D01*
X123791829Y-69037947D01*
X123598543Y-68999500D01*
X123598541Y-68999500D01*
X123401459Y-68999500D01*
X123401457Y-68999500D01*
X123208170Y-69037947D01*
X123208160Y-69037950D01*
X123026092Y-69113364D01*
X123026079Y-69113371D01*
X122862218Y-69222860D01*
X122862214Y-69222863D01*
X122721897Y-69363181D01*
X122660574Y-69396666D01*
X122634216Y-69399500D01*
X122011582Y-69399500D01*
X121944543Y-69379815D01*
X121906043Y-69340597D01*
X121903845Y-69337033D01*
X121820340Y-69201650D01*
X121698350Y-69079660D01*
X121568390Y-68999500D01*
X121551518Y-68989093D01*
X121551513Y-68989091D01*
X121550069Y-68988612D01*
X121387753Y-68934826D01*
X121387751Y-68934825D01*
X121286678Y-68924500D01*
X120713330Y-68924500D01*
X120713312Y-68924501D01*
X120612247Y-68934825D01*
X120612244Y-68934826D01*
X120495005Y-68973676D01*
X120462939Y-68984302D01*
X120393112Y-68986704D01*
X120333070Y-68950972D01*
X120301877Y-68888452D01*
X120309437Y-68818993D01*
X120318397Y-68801499D01*
X120320338Y-68798351D01*
X120320340Y-68798350D01*
X120410908Y-68651516D01*
X120465174Y-68487753D01*
X120475500Y-68386677D01*
X120475499Y-67788324D01*
X120465174Y-67687247D01*
X120410908Y-67523484D01*
X120320340Y-67376650D01*
X120198350Y-67254660D01*
X120093821Y-67190186D01*
X120051518Y-67164093D01*
X120051513Y-67164091D01*
X119979798Y-67140327D01*
X119887753Y-67109826D01*
X119887751Y-67109825D01*
X119786678Y-67099500D01*
X119213330Y-67099500D01*
X119213312Y-67099501D01*
X119112247Y-67109825D01*
X118948484Y-67164092D01*
X118948481Y-67164093D01*
X118801648Y-67254661D01*
X118679661Y-67376648D01*
X118589093Y-67523481D01*
X118589091Y-67523486D01*
X118573303Y-67571132D01*
X118534826Y-67687247D01*
X118534826Y-67687248D01*
X118534825Y-67687248D01*
X118524500Y-67788315D01*
X118524500Y-68162402D01*
X118504815Y-68229441D01*
X118488181Y-68250083D01*
X118091026Y-68647237D01*
X118029703Y-68680722D01*
X117960011Y-68675738D01*
X117904078Y-68633866D01*
X117885639Y-68598561D01*
X117860107Y-68521512D01*
X117835908Y-68448484D01*
X117745340Y-68301650D01*
X117623350Y-68179660D01*
X117476516Y-68089092D01*
X117312753Y-68034826D01*
X117312751Y-68034825D01*
X117211684Y-68024500D01*
X117211677Y-68024500D01*
X116837597Y-68024500D01*
X116770558Y-68004815D01*
X116749916Y-67988181D01*
X114392590Y-65630855D01*
X114392588Y-65630852D01*
X114273717Y-65511981D01*
X114273709Y-65511975D01*
X114156550Y-65444334D01*
X114156549Y-65444333D01*
X114140318Y-65434963D01*
X114136785Y-65432923D01*
X113984057Y-65391999D01*
X113825943Y-65391999D01*
X113818347Y-65391999D01*
X113818331Y-65392000D01*
X107177611Y-65392000D01*
X107110572Y-65372315D01*
X107072072Y-65333096D01*
X107040340Y-65281650D01*
X106918351Y-65159661D01*
X106918350Y-65159660D01*
X106771516Y-65069092D01*
X106764270Y-65066691D01*
X106607754Y-65014826D01*
X106607740Y-65014823D01*
X106602967Y-65014336D01*
X106538277Y-64987937D01*
X106527895Y-64978660D01*
X104436819Y-62887584D01*
X104403334Y-62826261D01*
X104400500Y-62799903D01*
X104400500Y-60976559D01*
X104400501Y-60976546D01*
X104400501Y-60808445D01*
X104400501Y-60808443D01*
X104359577Y-60655715D01*
X104306665Y-60564069D01*
X104280520Y-60518784D01*
X104168716Y-60406980D01*
X104168713Y-60406978D01*
X102436818Y-58675083D01*
X102403333Y-58613760D01*
X102400499Y-58587402D01*
X102400499Y-58213330D01*
X102400498Y-58213313D01*
X102390174Y-58112247D01*
X102335908Y-57948484D01*
X102245340Y-57801650D01*
X102155871Y-57712181D01*
X102122386Y-57650858D01*
X102127370Y-57581166D01*
X102169242Y-57525233D01*
X102234706Y-57500816D01*
X102243552Y-57500500D01*
X125375500Y-57500500D01*
X125442539Y-57520185D01*
G37*
%TD.AperFunction*%
%TA.AperFunction,Conductor*%
G36*
X113671942Y-66612685D02*
G01*
X113692584Y-66629319D01*
X114876084Y-67812819D01*
X114909569Y-67874142D01*
X114904585Y-67943834D01*
X114862713Y-67999767D01*
X114797249Y-68024184D01*
X114788441Y-68024500D01*
X114788349Y-68024500D01*
X114788312Y-68024501D01*
X114687247Y-68034825D01*
X114687244Y-68034826D01*
X114523483Y-68089092D01*
X114523482Y-68089092D01*
X114504114Y-68101039D01*
X114439018Y-68119500D01*
X112808163Y-68119500D01*
X112760711Y-68110061D01*
X112653496Y-68065651D01*
X112653487Y-68065648D01*
X112522027Y-68039500D01*
X112522023Y-68039500D01*
X111037977Y-68039500D01*
X111037972Y-68039500D01*
X110906512Y-68065648D01*
X110906503Y-68065651D01*
X110782667Y-68116944D01*
X110782655Y-68116951D01*
X110671206Y-68191420D01*
X110671202Y-68191423D01*
X110576423Y-68286202D01*
X110576420Y-68286206D01*
X110501951Y-68397655D01*
X110501944Y-68397667D01*
X110450651Y-68521503D01*
X110450648Y-68521512D01*
X110424500Y-68652972D01*
X110424500Y-68787027D01*
X110444675Y-68888452D01*
X110450651Y-68918495D01*
X110483396Y-68997548D01*
X110486196Y-69023598D01*
X110492771Y-69048954D01*
X110490202Y-69060869D01*
X110490864Y-69067018D01*
X110486637Y-69083711D01*
X110485181Y-69088140D01*
X110450651Y-69171505D01*
X110439707Y-69226524D01*
X110437359Y-69233670D01*
X110421635Y-69256500D01*
X110408788Y-69281062D01*
X110402096Y-69284872D01*
X110397729Y-69291214D01*
X110372162Y-69301918D01*
X110348072Y-69315636D01*
X110340381Y-69315223D01*
X110333280Y-69318197D01*
X110305983Y-69313379D01*
X110278302Y-69311895D01*
X110270803Y-69307170D01*
X110264474Y-69306053D01*
X110254701Y-69297023D01*
X110231875Y-69282640D01*
X108657590Y-67708355D01*
X108657588Y-67708352D01*
X108538717Y-67589481D01*
X108538716Y-67589480D01*
X108451904Y-67539360D01*
X108451904Y-67539359D01*
X108451900Y-67539358D01*
X108401785Y-67510423D01*
X108249057Y-67469499D01*
X108090943Y-67469499D01*
X108083347Y-67469499D01*
X108083331Y-67469500D01*
X107699364Y-67469500D01*
X107632325Y-67449815D01*
X107586570Y-67397011D01*
X107575961Y-67357658D01*
X107575499Y-67352970D01*
X107549351Y-67221512D01*
X107549348Y-67221503D01*
X107498055Y-67097667D01*
X107498048Y-67097655D01*
X107423579Y-66986206D01*
X107423576Y-66986202D01*
X107328797Y-66891423D01*
X107328793Y-66891420D01*
X107222059Y-66820102D01*
X107177254Y-66766490D01*
X107168547Y-66697165D01*
X107198702Y-66634137D01*
X107258145Y-66597418D01*
X107290950Y-66593000D01*
X113604903Y-66593000D01*
X113671942Y-66612685D01*
G37*
%TD.AperFunction*%
%TA.AperFunction,Conductor*%
G36*
X104055703Y-64205384D02*
G01*
X104062181Y-64211416D01*
X105247581Y-65396816D01*
X105281066Y-65458139D01*
X105277606Y-65523500D01*
X105254827Y-65592242D01*
X105254825Y-65592253D01*
X105244500Y-65693315D01*
X105244500Y-66291669D01*
X105244501Y-66291687D01*
X105254825Y-66392752D01*
X105309092Y-66556515D01*
X105309095Y-66556522D01*
X105343007Y-66611502D01*
X105361447Y-66678894D01*
X105340524Y-66745558D01*
X105286882Y-66790327D01*
X105284921Y-66791159D01*
X105222665Y-66816946D01*
X105222655Y-66816951D01*
X105111206Y-66891420D01*
X105111202Y-66891423D01*
X105016427Y-66986199D01*
X105012563Y-66990908D01*
X105010484Y-66989202D01*
X104965663Y-67026529D01*
X104896323Y-67035117D01*
X104851274Y-67018287D01*
X104771516Y-66969092D01*
X104607753Y-66914826D01*
X104607751Y-66914825D01*
X104506684Y-66904500D01*
X103974500Y-66904500D01*
X103907461Y-66884815D01*
X103861706Y-66832011D01*
X103850500Y-66780500D01*
X103850500Y-64299097D01*
X103870185Y-64232058D01*
X103922989Y-64186303D01*
X103992147Y-64176359D01*
X104055703Y-64205384D01*
G37*
%TD.AperFunction*%
%TD*%
%TA.AperFunction,Conductor*%
%TO.N,GND*%
G36*
X91396455Y-76269685D02*
G01*
X91442210Y-76322489D01*
X91452154Y-76391647D01*
X91423129Y-76455203D01*
X91388845Y-76482831D01*
X91382666Y-76486204D01*
X91267455Y-76572452D01*
X91267452Y-76572455D01*
X91181206Y-76687664D01*
X91181202Y-76687671D01*
X91130908Y-76822517D01*
X91124501Y-76882116D01*
X91124501Y-76882123D01*
X91124500Y-76882135D01*
X91124500Y-79177870D01*
X91124501Y-79177876D01*
X91130908Y-79237483D01*
X91181202Y-79372328D01*
X91181206Y-79372335D01*
X91267452Y-79487544D01*
X91267455Y-79487547D01*
X91382664Y-79573793D01*
X91382671Y-79573797D01*
X91517517Y-79624091D01*
X91517516Y-79624091D01*
X91524444Y-79624835D01*
X91577127Y-79630500D01*
X93000638Y-79630499D01*
X93067677Y-79650184D01*
X93088319Y-79666818D01*
X93325536Y-79904035D01*
X93426504Y-80005003D01*
X93450966Y-80029465D01*
X93491253Y-80056384D01*
X93598453Y-80128013D01*
X93598454Y-80128013D01*
X93598455Y-80128014D01*
X93630422Y-80141255D01*
X93646452Y-80147895D01*
X93762334Y-80195895D01*
X93936304Y-80230499D01*
X93936308Y-80230500D01*
X93936309Y-80230500D01*
X94113692Y-80230500D01*
X96968942Y-80230500D01*
X97035981Y-80250185D01*
X97074479Y-80289401D01*
X97157288Y-80423656D01*
X97281344Y-80547712D01*
X97430666Y-80639814D01*
X97597203Y-80694999D01*
X97699991Y-80705500D01*
X98490047Y-80705499D01*
X98557086Y-80725183D01*
X98602841Y-80777987D01*
X98612785Y-80847146D01*
X98610822Y-80855542D01*
X98611243Y-80855633D01*
X98609825Y-80862253D01*
X98599500Y-80963315D01*
X98599500Y-81536669D01*
X98599501Y-81536687D01*
X98609825Y-81637752D01*
X98609826Y-81637755D01*
X98634262Y-81711496D01*
X98636664Y-81781324D01*
X98600932Y-81841366D01*
X98538412Y-81872559D01*
X98516556Y-81874500D01*
X97699998Y-81874500D01*
X97699980Y-81874501D01*
X97597203Y-81885000D01*
X97597200Y-81885001D01*
X97430668Y-81940185D01*
X97430663Y-81940187D01*
X97281342Y-82032289D01*
X97157289Y-82156342D01*
X97157288Y-82156344D01*
X97075884Y-82288323D01*
X97074481Y-82290597D01*
X97022533Y-82337321D01*
X96968942Y-82349500D01*
X94559362Y-82349500D01*
X94529921Y-82340855D01*
X94499935Y-82334332D01*
X94494919Y-82330577D01*
X94492323Y-82329815D01*
X94471681Y-82313181D01*
X94342687Y-82184187D01*
X94309202Y-82122864D01*
X94307895Y-82077112D01*
X94325500Y-81965962D01*
X94325500Y-81714038D01*
X94286090Y-81465215D01*
X94208241Y-81225621D01*
X94208239Y-81225618D01*
X94208239Y-81225616D01*
X94155896Y-81122889D01*
X94093870Y-81001155D01*
X94057736Y-80951421D01*
X93945798Y-80797350D01*
X93945794Y-80797345D01*
X93767654Y-80619205D01*
X93767649Y-80619201D01*
X93563848Y-80471132D01*
X93563847Y-80471131D01*
X93563845Y-80471130D01*
X93470672Y-80423656D01*
X93339383Y-80356760D01*
X93099785Y-80278910D01*
X93071948Y-80274501D01*
X92850962Y-80239500D01*
X92599038Y-80239500D01*
X92502344Y-80254815D01*
X92350214Y-80278910D01*
X92110616Y-80356760D01*
X91886151Y-80471132D01*
X91682350Y-80619201D01*
X91682345Y-80619205D01*
X91504205Y-80797345D01*
X91504201Y-80797350D01*
X91356132Y-81001151D01*
X91241760Y-81225616D01*
X91163910Y-81465214D01*
X91127987Y-81692020D01*
X91124500Y-81714038D01*
X91124500Y-81965962D01*
X91154654Y-82156344D01*
X91163910Y-82214785D01*
X91241760Y-82454383D01*
X91356132Y-82678848D01*
X91504201Y-82882649D01*
X91504205Y-82882654D01*
X91682345Y-83060794D01*
X91682350Y-83060798D01*
X91860117Y-83189952D01*
X91886155Y-83208870D01*
X92029184Y-83281747D01*
X92110616Y-83323239D01*
X92110618Y-83323239D01*
X92110621Y-83323241D01*
X92350215Y-83401090D01*
X92599038Y-83440500D01*
X92599039Y-83440500D01*
X92850960Y-83440500D01*
X92850962Y-83440500D01*
X92962110Y-83422895D01*
X93031401Y-83431849D01*
X93069187Y-83457687D01*
X93560966Y-83949466D01*
X93567828Y-83954050D01*
X93574599Y-83958574D01*
X93574604Y-83958580D01*
X93574606Y-83958579D01*
X93708448Y-84048010D01*
X93708449Y-84048010D01*
X93708453Y-84048013D01*
X93775178Y-84075651D01*
X93872334Y-84115895D01*
X94028828Y-84147023D01*
X94046303Y-84150499D01*
X94046307Y-84150500D01*
X94046308Y-84150500D01*
X94046309Y-84150500D01*
X96968942Y-84150500D01*
X97035981Y-84170185D01*
X97074479Y-84209401D01*
X97157288Y-84343656D01*
X97281344Y-84467712D01*
X97430666Y-84559814D01*
X97597203Y-84614999D01*
X97699991Y-84625500D01*
X98516556Y-84625499D01*
X98583595Y-84645183D01*
X98629350Y-84697987D01*
X98639294Y-84767146D01*
X98634262Y-84788502D01*
X98609826Y-84862244D01*
X98609825Y-84862248D01*
X98599500Y-84963315D01*
X98599500Y-85536669D01*
X98599501Y-85536687D01*
X98609825Y-85637752D01*
X98609826Y-85637755D01*
X98634262Y-85711496D01*
X98636664Y-85781324D01*
X98600932Y-85841366D01*
X98538412Y-85872559D01*
X98516556Y-85874500D01*
X97699998Y-85874500D01*
X97699980Y-85874501D01*
X97597203Y-85885000D01*
X97597200Y-85885001D01*
X97430668Y-85940185D01*
X97430663Y-85940187D01*
X97281342Y-86032289D01*
X97157289Y-86156342D01*
X97141373Y-86182147D01*
X97076895Y-86286684D01*
X97074481Y-86290597D01*
X97022533Y-86337321D01*
X96968942Y-86349500D01*
X94739361Y-86349500D01*
X94672322Y-86329815D01*
X94651680Y-86313181D01*
X94342687Y-86004187D01*
X94309202Y-85942864D01*
X94307895Y-85897112D01*
X94325500Y-85785962D01*
X94325500Y-85534038D01*
X94286090Y-85285215D01*
X94208241Y-85045621D01*
X94208239Y-85045618D01*
X94208239Y-85045616D01*
X94148558Y-84928487D01*
X94093870Y-84821155D01*
X94044345Y-84752989D01*
X93945798Y-84617350D01*
X93945794Y-84617345D01*
X93767654Y-84439205D01*
X93767649Y-84439201D01*
X93563848Y-84291132D01*
X93563847Y-84291131D01*
X93563845Y-84291130D01*
X93459927Y-84238181D01*
X93339383Y-84176760D01*
X93099785Y-84098910D01*
X92850962Y-84059500D01*
X92599038Y-84059500D01*
X92474626Y-84079205D01*
X92350214Y-84098910D01*
X92110616Y-84176760D01*
X91886151Y-84291132D01*
X91682350Y-84439201D01*
X91682345Y-84439205D01*
X91504205Y-84617345D01*
X91504201Y-84617350D01*
X91356132Y-84821151D01*
X91241760Y-85045616D01*
X91163910Y-85285214D01*
X91145202Y-85403333D01*
X91124500Y-85534038D01*
X91124500Y-85785962D01*
X91159064Y-86004187D01*
X91163910Y-86034785D01*
X91241760Y-86274383D01*
X91312111Y-86412452D01*
X91352390Y-86491505D01*
X91356132Y-86498848D01*
X91504201Y-86702649D01*
X91504205Y-86702654D01*
X91682345Y-86880794D01*
X91682350Y-86880798D01*
X91801752Y-86967548D01*
X91886155Y-87028870D01*
X92029184Y-87101747D01*
X92110616Y-87143239D01*
X92110618Y-87143239D01*
X92110621Y-87143241D01*
X92350215Y-87221090D01*
X92599038Y-87260500D01*
X92599039Y-87260500D01*
X92850960Y-87260500D01*
X92850962Y-87260500D01*
X92962110Y-87242895D01*
X93031401Y-87251849D01*
X93069187Y-87277687D01*
X93409048Y-87617547D01*
X93615536Y-87824035D01*
X93679252Y-87887751D01*
X93740966Y-87949465D01*
X93814208Y-87998404D01*
X93888453Y-88048013D01*
X93888454Y-88048013D01*
X93888455Y-88048014D01*
X93927425Y-88064156D01*
X93936452Y-88067895D01*
X94052334Y-88115895D01*
X94226304Y-88150499D01*
X94226308Y-88150500D01*
X94226309Y-88150500D01*
X96968942Y-88150500D01*
X97035981Y-88170185D01*
X97074479Y-88209401D01*
X97157288Y-88343656D01*
X97281344Y-88467712D01*
X97430666Y-88559814D01*
X97597203Y-88614999D01*
X97699991Y-88625500D01*
X98600008Y-88625499D01*
X98600016Y-88625498D01*
X98600019Y-88625498D01*
X98656302Y-88619748D01*
X98702797Y-88614999D01*
X98869334Y-88559814D01*
X99018656Y-88467712D01*
X99142712Y-88343656D01*
X99234814Y-88194334D01*
X99289999Y-88027797D01*
X99300500Y-87925009D01*
X99300499Y-86574992D01*
X99289999Y-86472203D01*
X99262262Y-86388501D01*
X99259861Y-86318676D01*
X99295592Y-86258633D01*
X99358112Y-86227440D01*
X99379959Y-86225499D01*
X99986676Y-86225499D01*
X100008376Y-86223282D01*
X100077068Y-86236051D01*
X100127953Y-86283931D01*
X100144874Y-86351720D01*
X100138684Y-86385644D01*
X100110001Y-86472203D01*
X100110000Y-86472204D01*
X100099500Y-86574983D01*
X100099500Y-87925001D01*
X100099501Y-87925018D01*
X100110000Y-88027796D01*
X100110001Y-88027799D01*
X100165185Y-88194331D01*
X100165187Y-88194336D01*
X100200069Y-88250888D01*
X100257288Y-88343656D01*
X100381344Y-88467712D01*
X100384530Y-88469677D01*
X100386257Y-88471597D01*
X100387013Y-88472195D01*
X100386910Y-88472324D01*
X100431254Y-88521625D01*
X100442477Y-88590588D01*
X100424972Y-88640312D01*
X100389095Y-88698477D01*
X100389092Y-88698484D01*
X100334826Y-88862247D01*
X100334826Y-88862248D01*
X100334825Y-88862248D01*
X100324500Y-88963315D01*
X100324500Y-89536669D01*
X100324501Y-89536687D01*
X100334825Y-89637752D01*
X100389092Y-89801515D01*
X100389093Y-89801518D01*
X100424972Y-89859686D01*
X100443412Y-89927079D01*
X100422489Y-89993742D01*
X100384541Y-90030315D01*
X100381347Y-90032284D01*
X100257289Y-90156342D01*
X100165187Y-90305663D01*
X100165186Y-90305666D01*
X100110001Y-90472203D01*
X100110001Y-90472204D01*
X100110000Y-90472204D01*
X100099500Y-90574983D01*
X100099500Y-91925001D01*
X100099501Y-91925018D01*
X100110000Y-92027796D01*
X100110001Y-92027799D01*
X100165185Y-92194331D01*
X100165187Y-92194336D01*
X100175889Y-92211687D01*
X100257288Y-92343656D01*
X100381344Y-92467712D01*
X100384530Y-92469677D01*
X100386257Y-92471597D01*
X100387013Y-92472195D01*
X100386910Y-92472324D01*
X100431254Y-92521625D01*
X100442477Y-92590588D01*
X100424972Y-92640312D01*
X100389095Y-92698477D01*
X100389091Y-92698486D01*
X100374580Y-92742277D01*
X100334826Y-92862247D01*
X100334826Y-92862248D01*
X100334825Y-92862248D01*
X100324500Y-92963315D01*
X100324500Y-92963323D01*
X100324500Y-93244975D01*
X100324501Y-93475500D01*
X100304817Y-93542539D01*
X100252013Y-93588294D01*
X100200501Y-93599500D01*
X98886669Y-93599500D01*
X98886653Y-93599499D01*
X98879057Y-93599499D01*
X98720943Y-93599499D01*
X98613587Y-93628265D01*
X98568210Y-93640424D01*
X98568209Y-93640425D01*
X98526221Y-93664668D01*
X98526219Y-93664669D01*
X98431290Y-93719475D01*
X98431282Y-93719481D01*
X97337083Y-94813681D01*
X97275760Y-94847166D01*
X97249402Y-94850000D01*
X86624500Y-94850000D01*
X86557461Y-94830315D01*
X86511706Y-94777511D01*
X86500500Y-94726000D01*
X86500500Y-76374000D01*
X86520185Y-76306961D01*
X86572989Y-76261206D01*
X86624500Y-76250000D01*
X91329416Y-76250000D01*
X91396455Y-76269685D01*
G37*
%TD.AperFunction*%
%TA.AperFunction,Conductor*%
G36*
X125442539Y-76269685D02*
G01*
X125488294Y-76322489D01*
X125499500Y-76374000D01*
X125499500Y-94726000D01*
X125479815Y-94793039D01*
X125427011Y-94838794D01*
X125375500Y-94850000D01*
X118950597Y-94850000D01*
X118883558Y-94830315D01*
X118862916Y-94813681D01*
X117425225Y-93375990D01*
X117391740Y-93314667D01*
X117396724Y-93244975D01*
X117438596Y-93189042D01*
X117504060Y-93164625D01*
X117526156Y-93165019D01*
X117577127Y-93170500D01*
X118422872Y-93170499D01*
X118482483Y-93164091D01*
X118617331Y-93113796D01*
X118732546Y-93027546D01*
X118818796Y-92912331D01*
X118856311Y-92811747D01*
X118898180Y-92755815D01*
X118919929Y-92742773D01*
X118929828Y-92738139D01*
X118961785Y-92729577D01*
X119015639Y-92698484D01*
X119098716Y-92650520D01*
X119210520Y-92538716D01*
X119210521Y-92538713D01*
X119214661Y-92534572D01*
X119275984Y-92501088D01*
X119278152Y-92500637D01*
X119278841Y-92500500D01*
X119278842Y-92500500D01*
X119433497Y-92469737D01*
X119579179Y-92409394D01*
X119710289Y-92321789D01*
X119821789Y-92210289D01*
X119909394Y-92079179D01*
X119969737Y-91933497D01*
X120000500Y-91778842D01*
X120000500Y-91621158D01*
X120000500Y-91621155D01*
X120000499Y-91621153D01*
X119969737Y-91466503D01*
X119967450Y-91460981D01*
X119909397Y-91320827D01*
X119909390Y-91320814D01*
X119821789Y-91189711D01*
X119821786Y-91189707D01*
X119710292Y-91078213D01*
X119710288Y-91078210D01*
X119579185Y-90990609D01*
X119579172Y-90990602D01*
X119433501Y-90930264D01*
X119433489Y-90930261D01*
X119278845Y-90899500D01*
X119278842Y-90899500D01*
X119121158Y-90899500D01*
X119121155Y-90899500D01*
X118966510Y-90930261D01*
X118966498Y-90930264D01*
X118820827Y-90990602D01*
X118820814Y-90990609D01*
X118689711Y-91078210D01*
X118618607Y-91149314D01*
X118557283Y-91182798D01*
X118487599Y-91177816D01*
X118482486Y-91175909D01*
X118482483Y-91175908D01*
X118422883Y-91169501D01*
X118422881Y-91169500D01*
X118422873Y-91169500D01*
X118422864Y-91169500D01*
X117577129Y-91169500D01*
X117577123Y-91169501D01*
X117517515Y-91175909D01*
X117429819Y-91208617D01*
X117412036Y-91209888D01*
X117395333Y-91216119D01*
X117377911Y-91212329D01*
X117360128Y-91213601D01*
X117344480Y-91205056D01*
X117327060Y-91201267D01*
X117298806Y-91180116D01*
X117206371Y-91087681D01*
X117172886Y-91026358D01*
X117177870Y-90956666D01*
X117206368Y-90912321D01*
X117298809Y-90819880D01*
X117360128Y-90786398D01*
X117429819Y-90791381D01*
X117517517Y-90824091D01*
X117517516Y-90824091D01*
X117524444Y-90824835D01*
X117577127Y-90830500D01*
X118422872Y-90830499D01*
X118482483Y-90824091D01*
X118617331Y-90773796D01*
X118732546Y-90687546D01*
X118818796Y-90572331D01*
X118869091Y-90437483D01*
X118875500Y-90377873D01*
X118875499Y-89282128D01*
X118869091Y-89222517D01*
X118867717Y-89218834D01*
X118818797Y-89087671D01*
X118818793Y-89087664D01*
X118732547Y-88972455D01*
X118732544Y-88972452D01*
X118617335Y-88886206D01*
X118617328Y-88886202D01*
X118482482Y-88835908D01*
X118482483Y-88835908D01*
X118422883Y-88829501D01*
X118422881Y-88829500D01*
X118422873Y-88829500D01*
X118422864Y-88829500D01*
X117577129Y-88829500D01*
X117577123Y-88829501D01*
X117517516Y-88835908D01*
X117382671Y-88886202D01*
X117382664Y-88886206D01*
X117267455Y-88972452D01*
X117267452Y-88972455D01*
X117181205Y-89087665D01*
X117176956Y-89095449D01*
X117174324Y-89094012D01*
X117141422Y-89137933D01*
X117075949Y-89162327D01*
X117028143Y-89156346D01*
X116887755Y-89109826D01*
X116887751Y-89109825D01*
X116786678Y-89099500D01*
X116213330Y-89099500D01*
X116213312Y-89099501D01*
X116112247Y-89109825D01*
X115948484Y-89164092D01*
X115948481Y-89164093D01*
X115815097Y-89246366D01*
X115747704Y-89264806D01*
X115684903Y-89246366D01*
X115661414Y-89231878D01*
X115626521Y-89210355D01*
X115551518Y-89164093D01*
X115551513Y-89164091D01*
X115528140Y-89156346D01*
X115387753Y-89109826D01*
X115387751Y-89109825D01*
X115286684Y-89099500D01*
X115286677Y-89099500D01*
X114912597Y-89099500D01*
X114845558Y-89079815D01*
X114824916Y-89063181D01*
X114358066Y-88596331D01*
X114324581Y-88535008D01*
X114329565Y-88465316D01*
X114371437Y-88409383D01*
X114436901Y-88384966D01*
X114505174Y-88399818D01*
X114510844Y-88403112D01*
X114523475Y-88410903D01*
X114523478Y-88410904D01*
X114523484Y-88410908D01*
X114687247Y-88465174D01*
X114788323Y-88475500D01*
X115386676Y-88475499D01*
X115386684Y-88475498D01*
X115386687Y-88475498D01*
X115462907Y-88467712D01*
X115487753Y-88465174D01*
X115651516Y-88410908D01*
X115798350Y-88320340D01*
X115920340Y-88198350D01*
X116010908Y-88051516D01*
X116065174Y-87887753D01*
X116075500Y-87786677D01*
X116075499Y-87213324D01*
X116068162Y-87141503D01*
X116065174Y-87112247D01*
X116032067Y-87012338D01*
X116010908Y-86948484D01*
X116010904Y-86948478D01*
X116010903Y-86948475D01*
X115928634Y-86815097D01*
X115910193Y-86747705D01*
X115928634Y-86684903D01*
X115937725Y-86670165D01*
X116010908Y-86551516D01*
X116065174Y-86387753D01*
X116075500Y-86286677D01*
X116075499Y-85855499D01*
X116095183Y-85788461D01*
X116147987Y-85742706D01*
X116199499Y-85731500D01*
X118694831Y-85731500D01*
X118694847Y-85731501D01*
X118702443Y-85731501D01*
X118860554Y-85731501D01*
X118860557Y-85731501D01*
X119013285Y-85690577D01*
X119063404Y-85661639D01*
X119150216Y-85611520D01*
X119262020Y-85499716D01*
X119262020Y-85499714D01*
X119272228Y-85489507D01*
X119272230Y-85489503D01*
X119324917Y-85436817D01*
X119386240Y-85403333D01*
X119412597Y-85400499D01*
X119786670Y-85400499D01*
X119786676Y-85400499D01*
X119887753Y-85390174D01*
X120051516Y-85335908D01*
X120184903Y-85253633D01*
X120252295Y-85235193D01*
X120315097Y-85253634D01*
X120448475Y-85335903D01*
X120448478Y-85335904D01*
X120448484Y-85335908D01*
X120612247Y-85390174D01*
X120713323Y-85400500D01*
X121286676Y-85400499D01*
X121286684Y-85400498D01*
X121286687Y-85400498D01*
X121342030Y-85394844D01*
X121387753Y-85390174D01*
X121551516Y-85335908D01*
X121698350Y-85245340D01*
X121820340Y-85123350D01*
X121852072Y-85071904D01*
X121904020Y-85025179D01*
X121957611Y-85013000D01*
X122573205Y-85013000D01*
X122640244Y-85032685D01*
X122676307Y-85068110D01*
X122722857Y-85137777D01*
X122722863Y-85137785D01*
X122862214Y-85277136D01*
X122862218Y-85277139D01*
X123026079Y-85386628D01*
X123026092Y-85386635D01*
X123196036Y-85457027D01*
X123208165Y-85462051D01*
X123208169Y-85462051D01*
X123208170Y-85462052D01*
X123401456Y-85500500D01*
X123401459Y-85500500D01*
X123598543Y-85500500D01*
X123728582Y-85474632D01*
X123791835Y-85462051D01*
X123973914Y-85386632D01*
X124137782Y-85277139D01*
X124277139Y-85137782D01*
X124386632Y-84973914D01*
X124462051Y-84791835D01*
X124481906Y-84692017D01*
X124500500Y-84598543D01*
X124500500Y-84401456D01*
X124462052Y-84208170D01*
X124462051Y-84208169D01*
X124462051Y-84208165D01*
X124436726Y-84147024D01*
X124386635Y-84026092D01*
X124386628Y-84026079D01*
X124277139Y-83862218D01*
X124277136Y-83862214D01*
X124137785Y-83722863D01*
X124137781Y-83722860D01*
X123973920Y-83613371D01*
X123973907Y-83613364D01*
X123791839Y-83537950D01*
X123791829Y-83537947D01*
X123598543Y-83499500D01*
X123598541Y-83499500D01*
X123401459Y-83499500D01*
X123401457Y-83499500D01*
X123208170Y-83537947D01*
X123208160Y-83537950D01*
X123026092Y-83613364D01*
X123026079Y-83613371D01*
X122862218Y-83722860D01*
X122862214Y-83722863D01*
X122809399Y-83775680D01*
X122748076Y-83809166D01*
X122721717Y-83812000D01*
X121957611Y-83812000D01*
X121890572Y-83792315D01*
X121852072Y-83753096D01*
X121820340Y-83701650D01*
X121698351Y-83579661D01*
X121698350Y-83579660D01*
X121551516Y-83489092D01*
X121387753Y-83434826D01*
X121387751Y-83434825D01*
X121286678Y-83424500D01*
X120713330Y-83424500D01*
X120713312Y-83424501D01*
X120612247Y-83434825D01*
X120612244Y-83434826D01*
X120495005Y-83473676D01*
X120462939Y-83484302D01*
X120393112Y-83486704D01*
X120333070Y-83450972D01*
X120301877Y-83388452D01*
X120309437Y-83318993D01*
X120318397Y-83301499D01*
X120320338Y-83298351D01*
X120320340Y-83298350D01*
X120410908Y-83151516D01*
X120465174Y-82987753D01*
X120475500Y-82886677D01*
X120475499Y-82288324D01*
X120475331Y-82286683D01*
X120465174Y-82187247D01*
X120456446Y-82160908D01*
X120410908Y-82023484D01*
X120320340Y-81876650D01*
X120198350Y-81754660D01*
X120096796Y-81692021D01*
X120051518Y-81664093D01*
X120051513Y-81664091D01*
X120007417Y-81649479D01*
X119887753Y-81609826D01*
X119887751Y-81609825D01*
X119786678Y-81599500D01*
X119213330Y-81599500D01*
X119213312Y-81599501D01*
X119112247Y-81609825D01*
X118948484Y-81664092D01*
X118948481Y-81664093D01*
X118801648Y-81754661D01*
X118679661Y-81876648D01*
X118589093Y-82023481D01*
X118589091Y-82023486D01*
X118586174Y-82032289D01*
X118534826Y-82187247D01*
X118534826Y-82187248D01*
X118534825Y-82187248D01*
X118524500Y-82288315D01*
X118524500Y-82662402D01*
X118504815Y-82729441D01*
X118488181Y-82750083D01*
X118091026Y-83147237D01*
X118029703Y-83180722D01*
X117960011Y-83175738D01*
X117904078Y-83133866D01*
X117885639Y-83098561D01*
X117872048Y-83057547D01*
X117835908Y-82948484D01*
X117835904Y-82948478D01*
X117835903Y-82948475D01*
X117753634Y-82815097D01*
X117735193Y-82747705D01*
X117753634Y-82684903D01*
X117835903Y-82551524D01*
X117835902Y-82551524D01*
X117835908Y-82551516D01*
X117890174Y-82387753D01*
X117900500Y-82286677D01*
X117900499Y-81912595D01*
X117909145Y-81883149D01*
X117915667Y-81853169D01*
X117919419Y-81848155D01*
X117920183Y-81845557D01*
X117936813Y-81824920D01*
X118059506Y-81702228D01*
X118059511Y-81702224D01*
X118069714Y-81692020D01*
X118069716Y-81692020D01*
X118181520Y-81580216D01*
X118260577Y-81443284D01*
X118301500Y-81290557D01*
X118301500Y-80150097D01*
X118321185Y-80083058D01*
X118373989Y-80037303D01*
X118443147Y-80027359D01*
X118506703Y-80056384D01*
X118513181Y-80062416D01*
X118865425Y-80414660D01*
X118898910Y-80475983D01*
X118899361Y-80478149D01*
X118930261Y-80633491D01*
X118930264Y-80633501D01*
X118990602Y-80779172D01*
X118990609Y-80779185D01*
X119078210Y-80910288D01*
X119078213Y-80910292D01*
X119189707Y-81021786D01*
X119189711Y-81021789D01*
X119320814Y-81109390D01*
X119320827Y-81109397D01*
X119437334Y-81157655D01*
X119466503Y-81169737D01*
X119610349Y-81198350D01*
X119621153Y-81200499D01*
X119621156Y-81200500D01*
X119621158Y-81200500D01*
X119778844Y-81200500D01*
X119778845Y-81200499D01*
X119933497Y-81169737D01*
X120046599Y-81122889D01*
X120079172Y-81109397D01*
X120079172Y-81109396D01*
X120079179Y-81109394D01*
X120210289Y-81021789D01*
X120321789Y-80910289D01*
X120409394Y-80779179D01*
X120469737Y-80633497D01*
X120500500Y-80478842D01*
X120500500Y-80321158D01*
X120500500Y-80321155D01*
X120500499Y-80321153D01*
X120498614Y-80311676D01*
X120469737Y-80166503D01*
X120469735Y-80166498D01*
X120409397Y-80020827D01*
X120409390Y-80020814D01*
X120321789Y-79889711D01*
X120321786Y-79889707D01*
X120210292Y-79778213D01*
X120210288Y-79778210D01*
X120079185Y-79690609D01*
X120079172Y-79690602D01*
X119933501Y-79630264D01*
X119933491Y-79630261D01*
X119778149Y-79599361D01*
X119716238Y-79566976D01*
X119714660Y-79565425D01*
X116610916Y-76461681D01*
X116577431Y-76400358D01*
X116582415Y-76330666D01*
X116624287Y-76274733D01*
X116689751Y-76250316D01*
X116698597Y-76250000D01*
X125375500Y-76250000D01*
X125442539Y-76269685D01*
G37*
%TD.AperFunction*%
%TA.AperFunction,Conductor*%
G36*
X108096942Y-82750185D02*
G01*
X108117584Y-82766819D01*
X109795139Y-84444374D01*
X109795149Y-84444385D01*
X109799479Y-84448715D01*
X109799480Y-84448716D01*
X109911284Y-84560520D01*
X109911286Y-84560521D01*
X109911290Y-84560524D01*
X110048209Y-84639573D01*
X110048216Y-84639577D01*
X110146571Y-84665931D01*
X110200942Y-84680500D01*
X110200943Y-84680500D01*
X110306882Y-84680500D01*
X110313092Y-84681127D01*
X110339909Y-84692032D01*
X110367675Y-84700185D01*
X110371872Y-84705029D01*
X110377815Y-84707446D01*
X110394480Y-84731120D01*
X110413430Y-84752989D01*
X110415636Y-84761172D01*
X110418034Y-84764579D01*
X110418308Y-84771085D01*
X110424039Y-84792342D01*
X110424500Y-84797029D01*
X110450649Y-84928487D01*
X110450651Y-84928495D01*
X110485467Y-85012548D01*
X110492935Y-85082018D01*
X110485468Y-85107448D01*
X110450651Y-85191505D01*
X110450650Y-85191509D01*
X110450649Y-85191512D01*
X110450648Y-85191512D01*
X110424500Y-85322972D01*
X110424500Y-85457027D01*
X110450649Y-85588487D01*
X110450651Y-85588495D01*
X110483396Y-85667548D01*
X110490864Y-85737018D01*
X110483397Y-85762448D01*
X110450651Y-85841505D01*
X110450651Y-85841507D01*
X110450649Y-85841512D01*
X110450648Y-85841512D01*
X110424500Y-85972972D01*
X110424500Y-86107027D01*
X110450649Y-86238487D01*
X110450651Y-86238495D01*
X110478473Y-86305663D01*
X110483396Y-86317548D01*
X110490864Y-86387018D01*
X110483397Y-86412448D01*
X110450651Y-86491505D01*
X110450650Y-86491509D01*
X110450649Y-86491512D01*
X110450648Y-86491512D01*
X110424500Y-86622972D01*
X110424500Y-86757027D01*
X110436051Y-86815097D01*
X110450651Y-86888495D01*
X110483396Y-86967548D01*
X110490864Y-87037018D01*
X110483397Y-87062448D01*
X110450651Y-87141505D01*
X110450650Y-87141509D01*
X110450649Y-87141512D01*
X110450648Y-87141512D01*
X110424500Y-87272972D01*
X110424500Y-87407027D01*
X110450649Y-87538487D01*
X110450651Y-87538495D01*
X110483396Y-87617548D01*
X110490864Y-87687018D01*
X110483397Y-87712448D01*
X110450651Y-87791505D01*
X110450651Y-87791507D01*
X110450649Y-87791512D01*
X110450648Y-87791512D01*
X110424500Y-87922972D01*
X110424500Y-88057027D01*
X110443093Y-88150499D01*
X110450651Y-88188495D01*
X110483396Y-88267548D01*
X110490864Y-88337018D01*
X110483397Y-88362448D01*
X110450651Y-88441505D01*
X110450651Y-88441507D01*
X110450649Y-88441512D01*
X110450648Y-88441512D01*
X110424500Y-88572972D01*
X110424500Y-88707027D01*
X110450648Y-88838487D01*
X110450651Y-88838496D01*
X110501944Y-88962332D01*
X110501951Y-88962344D01*
X110576420Y-89073793D01*
X110576423Y-89073797D01*
X110671202Y-89168576D01*
X110671206Y-89168579D01*
X110782655Y-89243048D01*
X110782667Y-89243055D01*
X110877003Y-89282129D01*
X110906505Y-89294349D01*
X110906507Y-89294349D01*
X110906512Y-89294351D01*
X111019986Y-89316922D01*
X111081897Y-89349307D01*
X111116471Y-89410022D01*
X111112732Y-89479792D01*
X111101335Y-89503633D01*
X111089097Y-89523474D01*
X111089091Y-89523486D01*
X111084717Y-89536687D01*
X111034826Y-89687247D01*
X111034826Y-89687248D01*
X111034825Y-89687248D01*
X111024500Y-89788315D01*
X111024500Y-90386669D01*
X111024501Y-90386687D01*
X111034825Y-90487752D01*
X111089092Y-90651515D01*
X111089093Y-90651518D01*
X111179661Y-90798351D01*
X111293629Y-90912319D01*
X111327114Y-90973642D01*
X111322130Y-91043334D01*
X111293629Y-91087681D01*
X111179661Y-91201648D01*
X111089093Y-91348481D01*
X111089092Y-91348484D01*
X111034826Y-91512247D01*
X111034826Y-91512248D01*
X111034825Y-91512248D01*
X111024500Y-91613315D01*
X111024500Y-92211669D01*
X111024501Y-92211687D01*
X111034825Y-92312752D01*
X111066850Y-92409394D01*
X111089092Y-92476516D01*
X111179660Y-92623350D01*
X111301650Y-92745340D01*
X111448484Y-92835908D01*
X111612247Y-92890174D01*
X111713323Y-92900500D01*
X112087402Y-92900499D01*
X112154441Y-92920183D01*
X112175083Y-92936818D01*
X113621084Y-94382819D01*
X113654569Y-94444142D01*
X113649585Y-94513834D01*
X113607713Y-94569767D01*
X113542249Y-94594184D01*
X113533403Y-94594500D01*
X106022673Y-94594500D01*
X105955634Y-94574815D01*
X105909879Y-94522011D01*
X105899935Y-94452853D01*
X105907408Y-94424782D01*
X105910750Y-94416354D01*
X105959577Y-94331784D01*
X105989534Y-94219981D01*
X106000500Y-94179058D01*
X106000500Y-94020943D01*
X106000500Y-92987400D01*
X106003374Y-92977609D01*
X106002110Y-92967484D01*
X106013052Y-92944651D01*
X106020185Y-92920361D01*
X106028699Y-92912002D01*
X106032306Y-92904477D01*
X106059400Y-92881864D01*
X106084904Y-92866133D01*
X106152294Y-92847693D01*
X106215094Y-92866132D01*
X106348484Y-92948408D01*
X106512247Y-93002674D01*
X106613323Y-93013000D01*
X107186676Y-93012999D01*
X107186684Y-93012998D01*
X107186687Y-93012998D01*
X107242030Y-93007344D01*
X107287753Y-93002674D01*
X107451516Y-92948408D01*
X107598350Y-92857840D01*
X107720340Y-92735850D01*
X107810908Y-92589016D01*
X107865174Y-92425253D01*
X107875500Y-92324177D01*
X107875499Y-91725824D01*
X107865174Y-91624747D01*
X107810908Y-91460984D01*
X107720340Y-91314150D01*
X107606371Y-91200181D01*
X107572886Y-91138858D01*
X107577870Y-91069166D01*
X107606371Y-91024819D01*
X107657548Y-90973642D01*
X107720340Y-90910850D01*
X107810908Y-90764016D01*
X107865174Y-90600253D01*
X107875500Y-90499177D01*
X107875499Y-89900824D01*
X107865174Y-89799747D01*
X107810908Y-89635984D01*
X107720340Y-89489150D01*
X107598350Y-89367160D01*
X107451516Y-89276592D01*
X107451514Y-89276591D01*
X107445369Y-89272801D01*
X107446536Y-89270908D01*
X107402213Y-89231878D01*
X107383065Y-89164684D01*
X107403284Y-89097804D01*
X107419385Y-89077988D01*
X107423579Y-89073794D01*
X107498052Y-88962338D01*
X107498053Y-88962335D01*
X107498055Y-88962332D01*
X107522045Y-88904411D01*
X107549349Y-88838495D01*
X107549864Y-88835909D01*
X107575499Y-88707027D01*
X107575500Y-88707024D01*
X107575500Y-88572976D01*
X107575499Y-88572972D01*
X107549351Y-88441512D01*
X107549349Y-88441507D01*
X107549349Y-88441505D01*
X107516603Y-88362450D01*
X107509135Y-88292983D01*
X107516604Y-88267548D01*
X107549349Y-88188495D01*
X107575500Y-88057023D01*
X107575500Y-87922977D01*
X107568494Y-87887753D01*
X107549351Y-87791512D01*
X107549349Y-87791507D01*
X107549349Y-87791505D01*
X107516603Y-87712450D01*
X107509135Y-87642983D01*
X107516604Y-87617548D01*
X107549349Y-87538495D01*
X107555121Y-87509480D01*
X107568725Y-87441083D01*
X107575500Y-87407023D01*
X107575500Y-87272977D01*
X107573018Y-87260500D01*
X107549351Y-87141512D01*
X107549348Y-87141503D01*
X107498055Y-87017667D01*
X107498048Y-87017655D01*
X107423579Y-86906206D01*
X107423576Y-86906202D01*
X107328797Y-86811423D01*
X107328789Y-86811417D01*
X107301379Y-86793102D01*
X107256573Y-86739490D01*
X107247866Y-86670165D01*
X107278020Y-86607138D01*
X107301379Y-86586898D01*
X107320332Y-86574232D01*
X107328794Y-86568579D01*
X107423579Y-86473794D01*
X107498052Y-86362338D01*
X107498053Y-86362335D01*
X107498055Y-86362332D01*
X107527768Y-86290597D01*
X107549349Y-86238495D01*
X107549836Y-86236051D01*
X107575499Y-86107027D01*
X107575500Y-86107024D01*
X107575500Y-85972976D01*
X107575499Y-85972972D01*
X107549351Y-85841512D01*
X107549349Y-85841507D01*
X107549349Y-85841505D01*
X107516603Y-85762450D01*
X107509135Y-85692983D01*
X107516604Y-85667548D01*
X107549349Y-85588495D01*
X107575500Y-85457023D01*
X107575500Y-85322977D01*
X107549349Y-85191505D01*
X107514532Y-85107450D01*
X107507065Y-85037982D01*
X107514533Y-85012548D01*
X107549349Y-84928495D01*
X107575500Y-84797023D01*
X107575500Y-84662977D01*
X107570845Y-84639573D01*
X107549351Y-84531512D01*
X107549349Y-84531507D01*
X107549349Y-84531505D01*
X107516603Y-84452450D01*
X107509135Y-84382983D01*
X107516601Y-84357554D01*
X107549349Y-84278495D01*
X107550144Y-84274501D01*
X107574808Y-84150500D01*
X107575500Y-84147023D01*
X107575500Y-84012977D01*
X107558004Y-83925016D01*
X107549351Y-83881512D01*
X107549349Y-83881507D01*
X107549349Y-83881505D01*
X107516603Y-83802450D01*
X107509135Y-83732983D01*
X107516601Y-83707554D01*
X107549349Y-83628495D01*
X107552358Y-83613371D01*
X107575499Y-83497027D01*
X107575500Y-83497024D01*
X107575500Y-83362976D01*
X107575499Y-83362972D01*
X107549351Y-83231512D01*
X107549349Y-83231507D01*
X107549349Y-83231505D01*
X107516603Y-83152450D01*
X107509135Y-83082983D01*
X107516604Y-83057548D01*
X107549349Y-82978495D01*
X107555319Y-82948484D01*
X107575499Y-82847029D01*
X107575961Y-82842342D01*
X107602124Y-82777556D01*
X107659160Y-82737199D01*
X107699364Y-82730500D01*
X108029903Y-82730500D01*
X108096942Y-82750185D01*
G37*
%TD.AperFunction*%
%TA.AperFunction,Conductor*%
G36*
X106816442Y-76269685D02*
G01*
X106837081Y-76286317D01*
X108031284Y-77480520D01*
X108031286Y-77480521D01*
X108031290Y-77480524D01*
X108168209Y-77559573D01*
X108168216Y-77559577D01*
X108320943Y-77600501D01*
X108320945Y-77600501D01*
X108486654Y-77600501D01*
X108486670Y-77600500D01*
X113112403Y-77600500D01*
X113179442Y-77620185D01*
X113200084Y-77636819D01*
X114876084Y-79312819D01*
X114909569Y-79374142D01*
X114904585Y-79443834D01*
X114862713Y-79499767D01*
X114797249Y-79524184D01*
X114788441Y-79524500D01*
X114788349Y-79524500D01*
X114788312Y-79524501D01*
X114687247Y-79534825D01*
X114523484Y-79589092D01*
X114523481Y-79589093D01*
X114376648Y-79679661D01*
X114254661Y-79801648D01*
X114164093Y-79948481D01*
X114164092Y-79948484D01*
X114109826Y-80112247D01*
X114109826Y-80112248D01*
X114109825Y-80112248D01*
X114099500Y-80213315D01*
X114099500Y-80587402D01*
X114090855Y-80616842D01*
X114084332Y-80646829D01*
X114080577Y-80651844D01*
X114079815Y-80654441D01*
X114063185Y-80675078D01*
X113895082Y-80843182D01*
X113833761Y-80876666D01*
X113807403Y-80879500D01*
X112808163Y-80879500D01*
X112760711Y-80870061D01*
X112653496Y-80825651D01*
X112653487Y-80825648D01*
X112522027Y-80799500D01*
X112522023Y-80799500D01*
X111037977Y-80799500D01*
X111037972Y-80799500D01*
X110906512Y-80825648D01*
X110906503Y-80825651D01*
X110782667Y-80876944D01*
X110782655Y-80876951D01*
X110671206Y-80951420D01*
X110671202Y-80951423D01*
X110576423Y-81046202D01*
X110576420Y-81046206D01*
X110501951Y-81157655D01*
X110501944Y-81157667D01*
X110450651Y-81281503D01*
X110450648Y-81281512D01*
X110424500Y-81412972D01*
X110424500Y-81547027D01*
X110447786Y-81664092D01*
X110450651Y-81678495D01*
X110482200Y-81754661D01*
X110483396Y-81757548D01*
X110490864Y-81827018D01*
X110483397Y-81852448D01*
X110450651Y-81931505D01*
X110450650Y-81931509D01*
X110450649Y-81931512D01*
X110450648Y-81931512D01*
X110424500Y-82062972D01*
X110424500Y-82197027D01*
X110450649Y-82328487D01*
X110450651Y-82328495D01*
X110483396Y-82407548D01*
X110490864Y-82477018D01*
X110483397Y-82502448D01*
X110450651Y-82581505D01*
X110450650Y-82581509D01*
X110450649Y-82581512D01*
X110450648Y-82581512D01*
X110424500Y-82712972D01*
X110424500Y-82847027D01*
X110450649Y-82978487D01*
X110450651Y-82978495D01*
X110483396Y-83057548D01*
X110486676Y-83088062D01*
X110492124Y-83118254D01*
X110490574Y-83124325D01*
X110490864Y-83127018D01*
X110483396Y-83152450D01*
X110473751Y-83175738D01*
X110471904Y-83180196D01*
X110428063Y-83234600D01*
X110361769Y-83256666D01*
X110294070Y-83239387D01*
X110269661Y-83220426D01*
X108817590Y-81768355D01*
X108817588Y-81768352D01*
X108698717Y-81649481D01*
X108698716Y-81649480D01*
X108611904Y-81599360D01*
X108611904Y-81599359D01*
X108611900Y-81599358D01*
X108561785Y-81570423D01*
X108409057Y-81529499D01*
X108250943Y-81529499D01*
X108243347Y-81529499D01*
X108243331Y-81529500D01*
X107699364Y-81529500D01*
X107632325Y-81509815D01*
X107586570Y-81457011D01*
X107575961Y-81417658D01*
X107575499Y-81412970D01*
X107549351Y-81281512D01*
X107549348Y-81281503D01*
X107498055Y-81157667D01*
X107498048Y-81157655D01*
X107423579Y-81046206D01*
X107423576Y-81046202D01*
X107328797Y-80951423D01*
X107328793Y-80951420D01*
X107217344Y-80876951D01*
X107217331Y-80876944D01*
X107135427Y-80843019D01*
X107081023Y-80799178D01*
X107058958Y-80732884D01*
X107076237Y-80665185D01*
X107077282Y-80663457D01*
X107130908Y-80576516D01*
X107185174Y-80412753D01*
X107195500Y-80311677D01*
X107195499Y-79713324D01*
X107193178Y-79690606D01*
X107185174Y-79612247D01*
X107172433Y-79573797D01*
X107130908Y-79448484D01*
X107040340Y-79301650D01*
X106918350Y-79179660D01*
X106827129Y-79123395D01*
X106771518Y-79089093D01*
X106771513Y-79089091D01*
X106755449Y-79083768D01*
X106607753Y-79034826D01*
X106607751Y-79034825D01*
X106506684Y-79024500D01*
X106506677Y-79024500D01*
X106132598Y-79024500D01*
X106065559Y-79004815D01*
X106044917Y-78988181D01*
X104195090Y-77138355D01*
X104195088Y-77138352D01*
X104076217Y-77019481D01*
X104076216Y-77019480D01*
X103989404Y-76969360D01*
X103989404Y-76969359D01*
X103989400Y-76969358D01*
X103939285Y-76940423D01*
X103786557Y-76899499D01*
X103628443Y-76899499D01*
X103620847Y-76899499D01*
X103620831Y-76899500D01*
X102430414Y-76899500D01*
X102363375Y-76879815D01*
X102324875Y-76840597D01*
X102313723Y-76822517D01*
X102245340Y-76711650D01*
X102123350Y-76589660D01*
X101976516Y-76499092D01*
X101954223Y-76491704D01*
X101896780Y-76451934D01*
X101869957Y-76387418D01*
X101882272Y-76318642D01*
X101929815Y-76267442D01*
X101993229Y-76250000D01*
X106749403Y-76250000D01*
X106816442Y-76269685D01*
G37*
%TD.AperFunction*%
%TA.AperFunction,Conductor*%
G36*
X103474442Y-78120185D02*
G01*
X103495084Y-78136819D01*
X105208181Y-79849917D01*
X105241666Y-79911240D01*
X105244500Y-79937598D01*
X105244500Y-80311669D01*
X105244501Y-80311687D01*
X105254825Y-80412752D01*
X105309092Y-80576515D01*
X105309093Y-80576518D01*
X105325321Y-80602828D01*
X105362659Y-80663362D01*
X105366028Y-80675673D01*
X105373605Y-80685946D01*
X105375072Y-80708730D01*
X105381099Y-80730754D01*
X105377276Y-80742933D01*
X105378097Y-80755671D01*
X105367013Y-80775633D01*
X105360176Y-80797417D01*
X105349577Y-80807034D01*
X105344180Y-80816756D01*
X105324441Y-80829844D01*
X105315777Y-80837707D01*
X105310301Y-80840646D01*
X105222662Y-80876948D01*
X105140749Y-80931680D01*
X105135474Y-80934513D01*
X105106895Y-80940518D01*
X105079030Y-80949244D01*
X105073107Y-80947619D01*
X105067098Y-80948882D01*
X105039810Y-80938484D01*
X105011650Y-80930759D01*
X105004324Y-80924963D01*
X105001807Y-80924004D01*
X104999977Y-80921523D01*
X104989136Y-80912946D01*
X104955690Y-80879500D01*
X104918350Y-80842160D01*
X104771516Y-80751592D01*
X104607753Y-80697326D01*
X104607751Y-80697325D01*
X104506678Y-80687000D01*
X103933330Y-80687000D01*
X103933312Y-80687001D01*
X103832247Y-80697325D01*
X103668484Y-80751592D01*
X103668481Y-80751593D01*
X103521648Y-80842161D01*
X103399661Y-80964148D01*
X103399660Y-80964150D01*
X103349048Y-81046206D01*
X103330569Y-81076165D01*
X103278621Y-81122889D01*
X103209658Y-81134112D01*
X103145576Y-81106268D01*
X103137349Y-81098749D01*
X102937819Y-80899219D01*
X102904334Y-80837896D01*
X102901500Y-80811538D01*
X102901500Y-80266928D01*
X102876502Y-80141261D01*
X102876501Y-80141260D01*
X102876501Y-80141256D01*
X102827465Y-80022873D01*
X102815528Y-80005008D01*
X102756277Y-79916331D01*
X102756275Y-79916329D01*
X102756273Y-79916326D01*
X102436818Y-79596871D01*
X102403333Y-79535548D01*
X102400499Y-79509190D01*
X102400499Y-78654998D01*
X102400498Y-78654981D01*
X102389999Y-78552203D01*
X102389998Y-78552200D01*
X102374876Y-78506565D01*
X102334814Y-78385666D01*
X102275557Y-78289595D01*
X102257118Y-78222204D01*
X102278041Y-78155541D01*
X102331683Y-78110771D01*
X102381097Y-78100500D01*
X103407403Y-78100500D01*
X103474442Y-78120185D01*
G37*
%TD.AperFunction*%
%TD*%
%TA.AperFunction,Conductor*%
%TO.N,PACK+*%
G36*
X104471084Y-101409685D02*
G01*
X104485243Y-101420284D01*
X104583664Y-101505567D01*
X104714541Y-101565338D01*
X104781580Y-101585023D01*
X104781584Y-101585024D01*
X104924000Y-101605500D01*
X115620500Y-101605500D01*
X115687539Y-101625185D01*
X115733294Y-101677989D01*
X115744500Y-101729500D01*
X115744500Y-104816000D01*
X115744501Y-104816009D01*
X115756052Y-104923450D01*
X115756054Y-104923462D01*
X115767260Y-104974972D01*
X115801383Y-105077497D01*
X115801386Y-105077503D01*
X115879171Y-105198537D01*
X115879179Y-105198548D01*
X115924923Y-105251340D01*
X115924926Y-105251343D01*
X115924930Y-105251347D01*
X116033664Y-105345567D01*
X116033667Y-105345568D01*
X116033668Y-105345569D01*
X116127925Y-105388616D01*
X116164541Y-105405338D01*
X116231580Y-105425023D01*
X116231584Y-105425024D01*
X116374000Y-105445500D01*
X116374003Y-105445500D01*
X125375500Y-105445500D01*
X125442539Y-105465185D01*
X125488294Y-105517989D01*
X125499500Y-105569500D01*
X125499500Y-110007036D01*
X125479815Y-110074075D01*
X125427011Y-110119830D01*
X125357853Y-110129774D01*
X125294297Y-110100749D01*
X125265016Y-110063332D01*
X125210314Y-109955976D01*
X125080747Y-109777641D01*
X125080743Y-109777636D01*
X124924863Y-109621756D01*
X124924858Y-109621752D01*
X124746525Y-109492187D01*
X124746524Y-109492186D01*
X124746522Y-109492185D01*
X124683596Y-109460122D01*
X124550106Y-109392104D01*
X124550103Y-109392103D01*
X124340452Y-109323985D01*
X124231586Y-109306742D01*
X124122722Y-109289500D01*
X123902278Y-109289500D01*
X123829701Y-109300995D01*
X123684547Y-109323985D01*
X123474896Y-109392103D01*
X123474893Y-109392104D01*
X123278474Y-109492187D01*
X123100141Y-109621752D01*
X123100136Y-109621756D01*
X122944256Y-109777636D01*
X122944252Y-109777641D01*
X122814687Y-109955974D01*
X122714604Y-110152393D01*
X122714603Y-110152396D01*
X122646485Y-110362047D01*
X122612000Y-110579778D01*
X122612000Y-110800221D01*
X122646485Y-111017952D01*
X122714603Y-111227603D01*
X122714604Y-111227606D01*
X122814687Y-111424025D01*
X122944252Y-111602358D01*
X122944256Y-111602363D01*
X123100136Y-111758243D01*
X123100141Y-111758247D01*
X123255692Y-111871260D01*
X123278478Y-111887815D01*
X123406875Y-111953237D01*
X123474893Y-111987895D01*
X123474896Y-111987896D01*
X123579721Y-112021955D01*
X123684549Y-112056015D01*
X123902278Y-112090500D01*
X123902279Y-112090500D01*
X124122721Y-112090500D01*
X124122722Y-112090500D01*
X124340451Y-112056015D01*
X124550106Y-111987895D01*
X124746522Y-111887815D01*
X124924865Y-111758242D01*
X125080742Y-111602365D01*
X125210315Y-111424022D01*
X125265015Y-111316667D01*
X125312990Y-111265872D01*
X125380811Y-111249077D01*
X125446946Y-111271615D01*
X125490397Y-111326330D01*
X125499500Y-111372963D01*
X125499500Y-112575500D01*
X125479815Y-112642539D01*
X125427011Y-112688294D01*
X125375500Y-112699500D01*
X86624500Y-112699500D01*
X86557461Y-112679815D01*
X86511706Y-112627011D01*
X86500500Y-112575500D01*
X86500500Y-110579778D01*
X87099500Y-110579778D01*
X87099500Y-110800221D01*
X87133985Y-111017952D01*
X87202103Y-111227603D01*
X87202104Y-111227606D01*
X87302187Y-111424025D01*
X87431752Y-111602358D01*
X87431756Y-111602363D01*
X87587636Y-111758243D01*
X87587641Y-111758247D01*
X87743192Y-111871260D01*
X87765978Y-111887815D01*
X87894375Y-111953237D01*
X87962393Y-111987895D01*
X87962396Y-111987896D01*
X88067221Y-112021955D01*
X88172049Y-112056015D01*
X88389778Y-112090500D01*
X88389779Y-112090500D01*
X88610221Y-112090500D01*
X88610222Y-112090500D01*
X88827951Y-112056015D01*
X89037606Y-111987895D01*
X89234022Y-111887815D01*
X89412365Y-111758242D01*
X89568242Y-111602365D01*
X89697815Y-111424022D01*
X89797895Y-111227606D01*
X89866015Y-111017951D01*
X89900500Y-110800222D01*
X89900500Y-110579778D01*
X89866015Y-110362049D01*
X89797895Y-110152394D01*
X89797895Y-110152393D01*
X89752515Y-110063332D01*
X89697815Y-109955978D01*
X89681260Y-109933192D01*
X89568247Y-109777641D01*
X89568243Y-109777636D01*
X89412363Y-109621756D01*
X89412358Y-109621752D01*
X89234025Y-109492187D01*
X89234024Y-109492186D01*
X89234022Y-109492185D01*
X89171096Y-109460122D01*
X89037606Y-109392104D01*
X89037603Y-109392103D01*
X88827952Y-109323985D01*
X88719086Y-109306742D01*
X88610222Y-109289500D01*
X88389778Y-109289500D01*
X88317201Y-109300995D01*
X88172047Y-109323985D01*
X87962396Y-109392103D01*
X87962393Y-109392104D01*
X87765974Y-109492187D01*
X87587641Y-109621752D01*
X87587636Y-109621756D01*
X87431756Y-109777636D01*
X87431752Y-109777641D01*
X87302187Y-109955974D01*
X87202104Y-110152393D01*
X87202103Y-110152396D01*
X87133985Y-110362047D01*
X87099500Y-110579778D01*
X86500500Y-110579778D01*
X86500500Y-105569500D01*
X86520185Y-105502461D01*
X86572989Y-105456706D01*
X86624500Y-105445500D01*
X100125990Y-105445500D01*
X100126000Y-105445500D01*
X100233456Y-105433947D01*
X100284967Y-105422741D01*
X100319197Y-105411347D01*
X100387497Y-105388616D01*
X100387501Y-105388613D01*
X100387504Y-105388613D01*
X100508543Y-105310825D01*
X100561347Y-105265070D01*
X100655567Y-105156336D01*
X100715338Y-105025459D01*
X100735023Y-104958420D01*
X100735024Y-104958416D01*
X100755500Y-104816000D01*
X100755500Y-101514000D01*
X100775185Y-101446961D01*
X100827989Y-101401206D01*
X100879500Y-101390000D01*
X104404045Y-101390000D01*
X104471084Y-101409685D01*
G37*
%TD.AperFunction*%
%TD*%
M02*
