%TF.GenerationSoftware,KiCad,Pcbnew,9.0.6*%
%TF.CreationDate,2025-12-05T19:41:48+01:00*%
%TF.ProjectId,balancingBoard,62616c61-6e63-4696-9e67-426f6172642e,rev?*%
%TF.SameCoordinates,Original*%
%TF.FileFunction,Paste,Top*%
%TF.FilePolarity,Positive*%
%FSLAX46Y46*%
G04 Gerber Fmt 4.6, Leading zero omitted, Abs format (unit mm)*
G04 Created by KiCad (PCBNEW 9.0.6) date 2025-12-05 19:41:48*
%MOMM*%
%LPD*%
G01*
G04 APERTURE LIST*
G04 Aperture macros list*
%AMRoundRect*
0 Rectangle with rounded corners*
0 $1 Rounding radius*
0 $2 $3 $4 $5 $6 $7 $8 $9 X,Y pos of 4 corners*
0 Add a 4 corners polygon primitive as box body*
4,1,4,$2,$3,$4,$5,$6,$7,$8,$9,$2,$3,0*
0 Add four circle primitives for the rounded corners*
1,1,$1+$1,$2,$3*
1,1,$1+$1,$4,$5*
1,1,$1+$1,$6,$7*
1,1,$1+$1,$8,$9*
0 Add four rect primitives between the rounded corners*
20,1,$1+$1,$2,$3,$4,$5,0*
20,1,$1+$1,$4,$5,$6,$7,0*
20,1,$1+$1,$6,$7,$8,$9,0*
20,1,$1+$1,$8,$9,$2,$3,0*%
G04 Aperture macros list end*
%ADD10RoundRect,0.237500X0.300000X0.237500X-0.300000X0.237500X-0.300000X-0.237500X0.300000X-0.237500X0*%
%ADD11RoundRect,0.237500X-0.300000X-0.237500X0.300000X-0.237500X0.300000X0.237500X-0.300000X0.237500X0*%
%ADD12RoundRect,0.250000X-0.400000X-0.625000X0.400000X-0.625000X0.400000X0.625000X-0.400000X0.625000X0*%
%ADD13RoundRect,0.237500X0.250000X0.237500X-0.250000X0.237500X-0.250000X-0.237500X0.250000X-0.237500X0*%
%ADD14RoundRect,0.237500X0.237500X-0.250000X0.237500X0.250000X-0.237500X0.250000X-0.237500X-0.250000X0*%
%ADD15RoundRect,0.237500X-0.237500X0.300000X-0.237500X-0.300000X0.237500X-0.300000X0.237500X0.300000X0*%
%ADD16RoundRect,0.237500X-0.237500X0.250000X-0.237500X-0.250000X0.237500X-0.250000X0.237500X0.250000X0*%
%ADD17RoundRect,0.237500X-0.250000X-0.237500X0.250000X-0.237500X0.250000X0.237500X-0.250000X0.237500X0*%
%ADD18O,1.710000X0.360000*%
%ADD19R,0.750000X1.000000*%
%ADD20R,1.400000X0.610000*%
%ADD21R,3.810000X4.500000*%
%ADD22RoundRect,0.249999X-0.450001X-1.425001X0.450001X-1.425001X0.450001X1.425001X-0.450001X1.425001X0*%
G04 APERTURE END LIST*
D10*
%TO.C,C62*%
X101362500Y-89250000D03*
X99637500Y-89250000D03*
%TD*%
D11*
%TO.C,C1*%
X99637500Y-66500000D03*
X101362500Y-66500000D03*
%TD*%
%TO.C,C50*%
X99637500Y-85250000D03*
X101362500Y-85250000D03*
%TD*%
D12*
%TO.C,R3*%
X98150000Y-64500000D03*
X101250000Y-64500000D03*
%TD*%
D13*
%TO.C,R6*%
X116912500Y-82000000D03*
X115087500Y-82000000D03*
%TD*%
D14*
%TO.C,R30*%
X105400000Y-92025000D03*
X105400000Y-90200000D03*
%TD*%
D15*
%TO.C,C53*%
X104220000Y-80000000D03*
X104220000Y-81725000D03*
%TD*%
D12*
%TO.C,R27*%
X98150000Y-83250000D03*
X101250000Y-83250000D03*
%TD*%
D11*
%TO.C,C49*%
X99637500Y-81250000D03*
X101362500Y-81250000D03*
%TD*%
D16*
%TO.C,C52*%
X106220000Y-78187500D03*
X106220000Y-80012500D03*
%TD*%
D12*
%TO.C,R2*%
X98150000Y-60500000D03*
X101250000Y-60500000D03*
%TD*%
%TO.C,R46*%
X98150000Y-91250000D03*
X101250000Y-91250000D03*
%TD*%
D17*
%TO.C,R9*%
X115087500Y-69000000D03*
X116912500Y-69000000D03*
%TD*%
D11*
%TO.C,C4*%
X99637500Y-74500000D03*
X101362500Y-74500000D03*
%TD*%
D16*
%TO.C,R33*%
X112000000Y-90087500D03*
X112000000Y-91912500D03*
%TD*%
D17*
%TO.C,R1*%
X99587500Y-58500000D03*
X101412500Y-58500000D03*
%TD*%
D16*
%TO.C,R34*%
X115000000Y-90087500D03*
X115000000Y-91912500D03*
%TD*%
%TO.C,R14*%
X116500000Y-90087500D03*
X116500000Y-91912500D03*
%TD*%
%TO.C,R32*%
X106900000Y-90200000D03*
X106900000Y-92025000D03*
%TD*%
D18*
%TO.C,U1*%
X106220000Y-81480000D03*
X106220000Y-82130000D03*
X106220000Y-82780000D03*
X106220000Y-83430000D03*
X106220000Y-84080000D03*
X106220000Y-84730000D03*
X106220000Y-85390000D03*
X106220000Y-86040000D03*
X106220000Y-86690000D03*
X106220000Y-87340000D03*
X106220000Y-87990000D03*
X106220000Y-88640000D03*
X111780000Y-88640000D03*
X111780000Y-87990000D03*
X111780000Y-87340000D03*
X111780000Y-86690000D03*
X111780000Y-86040000D03*
X111780000Y-85390000D03*
X111780000Y-84730000D03*
X111780000Y-84080000D03*
X111780000Y-83430000D03*
X111780000Y-82780000D03*
X111780000Y-82130000D03*
X111780000Y-81480000D03*
%TD*%
D11*
%TO.C,C2*%
X99637500Y-62500000D03*
X101362500Y-62500000D03*
%TD*%
D14*
%TO.C,R17*%
X121000000Y-69912500D03*
X121000000Y-68087500D03*
%TD*%
D15*
%TO.C,C6*%
X104220000Y-66217500D03*
X104220000Y-67942500D03*
%TD*%
D12*
%TO.C,R26*%
X98150000Y-79330000D03*
X101250000Y-79330000D03*
%TD*%
D19*
%TO.C,D2*%
X118000000Y-92170000D03*
X118000000Y-89830000D03*
%TD*%
D20*
%TO.C,Q3*%
X117140000Y-100510000D03*
X117140000Y-99240000D03*
X117140000Y-97960000D03*
X117140000Y-96690000D03*
X111500000Y-96690000D03*
X111500000Y-97960000D03*
X111500000Y-99240000D03*
X111500000Y-100510000D03*
D21*
X113610000Y-98600000D03*
%TD*%
D18*
%TO.C,U2*%
X106220000Y-67420000D03*
X106220000Y-68070000D03*
X106220000Y-68720000D03*
X106220000Y-69370000D03*
X106220000Y-70020000D03*
X106220000Y-70670000D03*
X106220000Y-71330000D03*
X106220000Y-71980000D03*
X106220000Y-72630000D03*
X106220000Y-73280000D03*
X106220000Y-73930000D03*
X106220000Y-74580000D03*
X111780000Y-74580000D03*
X111780000Y-73930000D03*
X111780000Y-73280000D03*
X111780000Y-72630000D03*
X111780000Y-71980000D03*
X111780000Y-71330000D03*
X111780000Y-70670000D03*
X111780000Y-70020000D03*
X111780000Y-69370000D03*
X111780000Y-68720000D03*
X111780000Y-68070000D03*
X111780000Y-67420000D03*
%TD*%
D17*
%TO.C,R7*%
X115087500Y-80500000D03*
X116912500Y-80500000D03*
%TD*%
%TO.C,R36*%
X99587500Y-77410000D03*
X101412500Y-77410000D03*
%TD*%
D12*
%TO.C,R5*%
X98150000Y-72500000D03*
X101250000Y-72500000D03*
%TD*%
D13*
%TO.C,R47*%
X116912500Y-86000000D03*
X115087500Y-86000000D03*
%TD*%
D16*
%TO.C,R31*%
X113500000Y-90087500D03*
X113500000Y-91912500D03*
%TD*%
D11*
%TO.C,C51*%
X99637500Y-93250000D03*
X101362500Y-93250000D03*
%TD*%
D13*
%TO.C,R48*%
X116912500Y-87500000D03*
X115087500Y-87500000D03*
%TD*%
D12*
%TO.C,R4*%
X98150000Y-68500000D03*
X101250000Y-68500000D03*
%TD*%
D13*
%TO.C,R11*%
X116912500Y-71750000D03*
X115087500Y-71750000D03*
%TD*%
%TO.C,R8*%
X116912500Y-83500000D03*
X115087500Y-83500000D03*
%TD*%
D17*
%TO.C,R12*%
X115087500Y-73250000D03*
X116912500Y-73250000D03*
%TD*%
D16*
%TO.C,R10*%
X119500000Y-68087500D03*
X119500000Y-69912500D03*
%TD*%
D20*
%TO.C,Q1*%
X103500000Y-96690000D03*
X103500000Y-97960000D03*
X103500000Y-99240000D03*
X103500000Y-100510000D03*
X109140000Y-100510000D03*
X109140000Y-99240000D03*
X109140000Y-97960000D03*
X109140000Y-96690000D03*
D21*
X107030000Y-98600000D03*
%TD*%
D14*
%TO.C,R18*%
X121000000Y-84412500D03*
X121000000Y-82587500D03*
%TD*%
D16*
%TO.C,R21*%
X119500000Y-82587500D03*
X119500000Y-84412500D03*
%TD*%
D12*
%TO.C,R28*%
X98150000Y-87250000D03*
X101250000Y-87250000D03*
%TD*%
D17*
%TO.C,R16*%
X115087500Y-74750000D03*
X116912500Y-74750000D03*
%TD*%
D22*
%TO.C,R13*%
X94950000Y-97960000D03*
X101050000Y-97960000D03*
%TD*%
D10*
%TO.C,C3*%
X101362500Y-70500000D03*
X99637500Y-70500000D03*
%TD*%
D16*
%TO.C,C5*%
X106220000Y-64167500D03*
X106220000Y-65992500D03*
%TD*%
M02*
