%TF.GenerationSoftware,KiCad,Pcbnew,9.0.6*%
%TF.CreationDate,2025-12-14T22:48:59+01:00*%
%TF.ProjectId,ledBrain,6c656442-7261-4696-9e2e-6b696361645f,rev?*%
%TF.SameCoordinates,Original*%
%TF.FileFunction,Soldermask,Bot*%
%TF.FilePolarity,Negative*%
%FSLAX46Y46*%
G04 Gerber Fmt 4.6, Leading zero omitted, Abs format (unit mm)*
G04 Created by KiCad (PCBNEW 9.0.6) date 2025-12-14 22:48:59*
%MOMM*%
%LPD*%
G01*
G04 APERTURE LIST*
G04 Aperture macros list*
%AMRoundRect*
0 Rectangle with rounded corners*
0 $1 Rounding radius*
0 $2 $3 $4 $5 $6 $7 $8 $9 X,Y pos of 4 corners*
0 Add a 4 corners polygon primitive as box body*
4,1,4,$2,$3,$4,$5,$6,$7,$8,$9,$2,$3,0*
0 Add four circle primitives for the rounded corners*
1,1,$1+$1,$2,$3*
1,1,$1+$1,$4,$5*
1,1,$1+$1,$6,$7*
1,1,$1+$1,$8,$9*
0 Add four rect primitives between the rounded corners*
20,1,$1+$1,$2,$3,$4,$5,0*
20,1,$1+$1,$4,$5,$6,$7,0*
20,1,$1+$1,$6,$7,$8,$9,0*
20,1,$1+$1,$8,$9,$2,$3,0*%
G04 Aperture macros list end*
%ADD10C,1.700000*%
%ADD11C,0.950000*%
%ADD12C,1.600000*%
%ADD13C,0.650000*%
%ADD14O,1.000000X2.100000*%
%ADD15O,1.000000X1.800000*%
%ADD16C,2.500000*%
%ADD17C,1.800000*%
%ADD18O,3.000000X3.500000*%
%ADD19O,3.800000X1.500000*%
%ADD20O,1.500000X3.400000*%
%ADD21RoundRect,0.237500X-0.250000X-0.237500X0.250000X-0.237500X0.250000X0.237500X-0.250000X0.237500X0*%
G04 APERTURE END LIST*
D10*
%TO.C,U1*%
X150100000Y-56130000D03*
X150100000Y-58670000D03*
X150100000Y-61210000D03*
X150100000Y-63750000D03*
X150100000Y-66290000D03*
X150100000Y-68830000D03*
X150100000Y-71370000D03*
X150100000Y-73910000D03*
X150100000Y-76450000D03*
X152640000Y-56130000D03*
X152640000Y-58670000D03*
X152640000Y-61210000D03*
X152640000Y-63750000D03*
X152640000Y-66290000D03*
X152640000Y-68830000D03*
X152640000Y-71370000D03*
X152640000Y-73910000D03*
X152640000Y-76450000D03*
X175500000Y-56130000D03*
X175500000Y-58670000D03*
X175500000Y-61210000D03*
X175500000Y-63750000D03*
X175500000Y-66290000D03*
X175500000Y-68830000D03*
X175500000Y-71370000D03*
X175500000Y-73910000D03*
X175500000Y-76450000D03*
X178040000Y-56130000D03*
X178040000Y-58670000D03*
X178040000Y-61210000D03*
X178040000Y-63750000D03*
X178040000Y-66290000D03*
X178040000Y-68830000D03*
X178040000Y-71370000D03*
X178040000Y-73910000D03*
X178040000Y-76450000D03*
%TD*%
D11*
%TO.C,SW2*%
X149070000Y-50140000D03*
X149070000Y-47840000D03*
D12*
X148770000Y-52740000D03*
X148770000Y-45240000D03*
%TD*%
D11*
%TO.C,SW3*%
X149070000Y-40540000D03*
X149070000Y-38240000D03*
D12*
X148770000Y-43140000D03*
X148770000Y-35640000D03*
%TD*%
D13*
%TO.C,USB1*%
X173110000Y-98615000D03*
X178890000Y-98615000D03*
D14*
X171680000Y-98115000D03*
X180320000Y-98115000D03*
D15*
X171680000Y-102265000D03*
X180320000Y-102265000D03*
%TD*%
D16*
%TO.C,CN1*%
X161500000Y-91987500D03*
X166500000Y-91987500D03*
D17*
X169500000Y-101987500D03*
X158500000Y-101987500D03*
%TD*%
D18*
%TO.C,U2*%
X166000000Y-40460000D03*
X164000000Y-37000000D03*
X162000000Y-40460000D03*
%TD*%
D19*
%TO.C,DC1*%
X152170000Y-91500000D03*
X152170000Y-97500000D03*
D20*
X156830000Y-94000000D03*
%TD*%
D21*
%TO.C,R15*%
X153667500Y-35720000D03*
X155492500Y-35720000D03*
%TD*%
%TO.C,R14*%
X153667500Y-37260000D03*
X155492500Y-37260000D03*
%TD*%
M02*
