M48
; DRILL file {KiCad 9.0.6} date 2025-12-14T23:52:53+0100
; FORMAT={-:-/ absolute / metric / decimal}
; #@! TF.CreationDate,2025-12-14T23:52:53+01:00
; #@! TF.GenerationSoftware,Kicad,Pcbnew,9.0.6
; #@! TF.FileFunction,Plated,1,4,PTH
FMAT,2
METRIC
; #@! TA.AperFunction,Plated,PTH,ViaDrill
T1C0.300
; #@! TA.AperFunction,Plated,PTH,ComponentDrill
T2C1.000
; #@! TA.AperFunction,Plated,PTH,ComponentDrill
T3C1.200
; #@! TA.AperFunction,Plated,PTH,ComponentDrill
T4C2.600
%
G90
G05
T1
X135.312Y-84.32
X135.315Y-85.08
X135.525Y-83.64
X136.175Y-83.38
X136.885Y-83.38
X137.571Y-83.515
X137.835Y-84.27
X142.11Y-75.0
X146.732Y-84.27
X146.996Y-83.515
X147.15Y-102.76
X147.683Y-83.38
X148.392Y-83.38
X148.51Y-78.66
X149.042Y-83.64
X149.243Y-84.32
X149.252Y-85.08
X152.75Y-103.25
X152.81Y-110.775
T2
X155.832Y-100.2
X160.832Y-100.2
T3
X169.962Y-88.0G85X169.263Y-88.0
G05
X169.962Y-92.7G85X169.263Y-92.7
G05
X169.962Y-97.4G85X169.263Y-97.4
G05
T4
X150.812Y-93.897G85X150.812Y-93.903
G05
X152.812Y-90.437G85X152.812Y-90.443
G05
X154.812Y-93.897G85X154.812Y-93.903
G05
M30
