%TF.GenerationSoftware,KiCad,Pcbnew,9.0.6*%
%TF.CreationDate,2025-12-14T22:48:59+01:00*%
%TF.ProjectId,ledBrain,6c656442-7261-4696-9e2e-6b696361645f,rev?*%
%TF.SameCoordinates,Original*%
%TF.FileFunction,Soldermask,Top*%
%TF.FilePolarity,Negative*%
%FSLAX46Y46*%
G04 Gerber Fmt 4.6, Leading zero omitted, Abs format (unit mm)*
G04 Created by KiCad (PCBNEW 9.0.6) date 2025-12-14 22:48:59*
%MOMM*%
%LPD*%
G01*
G04 APERTURE LIST*
G04 Aperture macros list*
%AMRoundRect*
0 Rectangle with rounded corners*
0 $1 Rounding radius*
0 $2 $3 $4 $5 $6 $7 $8 $9 X,Y pos of 4 corners*
0 Add a 4 corners polygon primitive as box body*
4,1,4,$2,$3,$4,$5,$6,$7,$8,$9,$2,$3,0*
0 Add four circle primitives for the rounded corners*
1,1,$1+$1,$2,$3*
1,1,$1+$1,$4,$5*
1,1,$1+$1,$6,$7*
1,1,$1+$1,$8,$9*
0 Add four rect primitives between the rounded corners*
20,1,$1+$1,$2,$3,$4,$5,0*
20,1,$1+$1,$4,$5,$6,$7,0*
20,1,$1+$1,$6,$7,$8,$9,0*
20,1,$1+$1,$8,$9,$2,$3,0*%
%AMFreePoly0*
4,1,23,0.500000,-0.750000,0.000000,-0.750000,0.000000,-0.745722,-0.065263,-0.745722,-0.191342,-0.711940,-0.304381,-0.646677,-0.396677,-0.554381,-0.461940,-0.441342,-0.495722,-0.315263,-0.495722,-0.250000,-0.500000,-0.250000,-0.500000,0.250000,-0.495722,0.250000,-0.495722,0.315263,-0.461940,0.441342,-0.396677,0.554381,-0.304381,0.646677,-0.191342,0.711940,-0.065263,0.745722,0.000000,0.745722,
0.000000,0.750000,0.500000,0.750000,0.500000,-0.750000,0.500000,-0.750000,$1*%
%AMFreePoly1*
4,1,23,0.000000,0.745722,0.065263,0.745722,0.191342,0.711940,0.304381,0.646677,0.396677,0.554381,0.461940,0.441342,0.495722,0.315263,0.495722,0.250000,0.500000,0.250000,0.500000,-0.250000,0.495722,-0.250000,0.495722,-0.315263,0.461940,-0.441342,0.396677,-0.554381,0.304381,-0.646677,0.191342,-0.711940,0.065263,-0.745722,0.000000,-0.745722,0.000000,-0.750000,-0.500000,-0.750000,
-0.500000,0.750000,0.000000,0.750000,0.000000,0.745722,0.000000,0.745722,$1*%
G04 Aperture macros list end*
%ADD10R,0.600000X1.500000*%
%ADD11R,3.300000X2.100000*%
%ADD12RoundRect,0.250000X-0.337500X-0.475000X0.337500X-0.475000X0.337500X0.475000X-0.337500X0.475000X0*%
%ADD13C,1.700000*%
%ADD14R,0.990000X0.880000*%
%ADD15FreePoly0,0.000000*%
%ADD16FreePoly1,0.000000*%
%ADD17C,0.950000*%
%ADD18R,1.200000X1.200000*%
%ADD19C,1.600000*%
%ADD20RoundRect,0.237500X0.237500X-0.300000X0.237500X0.300000X-0.237500X0.300000X-0.237500X-0.300000X0*%
%ADD21R,1.100000X2.500000*%
%ADD22R,3.600000X2.340000*%
%ADD23RoundRect,0.237500X-0.237500X0.250000X-0.237500X-0.250000X0.237500X-0.250000X0.237500X0.250000X0*%
%ADD24RoundRect,0.237500X-0.237500X0.300000X-0.237500X-0.300000X0.237500X-0.300000X0.237500X0.300000X0*%
%ADD25C,0.650000*%
%ADD26O,1.000000X2.100000*%
%ADD27O,1.000000X1.800000*%
%ADD28R,0.600000X1.375000*%
%ADD29R,0.300000X1.375000*%
%ADD30C,2.500000*%
%ADD31C,1.800000*%
%ADD32RoundRect,0.237500X0.237500X-0.250000X0.237500X0.250000X-0.237500X0.250000X-0.237500X-0.250000X0*%
%ADD33R,0.300000X0.990000*%
%ADD34O,3.000000X3.500000*%
%ADD35O,3.800000X1.500000*%
%ADD36O,1.500000X3.400000*%
%ADD37R,0.570000X0.640000*%
G04 APERTURE END LIST*
%TO.C,JP2*%
G36*
X172080000Y-36140000D02*
G01*
X172380000Y-36140000D01*
X172380000Y-37640000D01*
X172080000Y-37640000D01*
X172080000Y-36140000D01*
G37*
%TD*%
D10*
%TO.C,U3*%
X172800000Y-84900000D03*
X173800000Y-84900000D03*
X174800000Y-84900000D03*
X175800000Y-84900000D03*
X176800000Y-84900000D03*
X176800000Y-78900000D03*
X175800000Y-78900000D03*
X174800000Y-78900000D03*
X173800000Y-78900000D03*
X172800000Y-78900000D03*
D11*
X174800000Y-81900000D03*
%TD*%
D12*
%TO.C,C4*%
X162362500Y-74920000D03*
X164437500Y-74920000D03*
%TD*%
D13*
%TO.C,U1*%
X150100000Y-56130000D03*
X150100000Y-58670000D03*
X150100000Y-61210000D03*
X150100000Y-63750000D03*
X150100000Y-66290000D03*
X150100000Y-68830000D03*
X150100000Y-71370000D03*
X150100000Y-73910000D03*
X150100000Y-76450000D03*
X152640000Y-56130000D03*
X152640000Y-58670000D03*
X152640000Y-61210000D03*
X152640000Y-63750000D03*
X152640000Y-66290000D03*
X152640000Y-68830000D03*
X152640000Y-71370000D03*
X152640000Y-73910000D03*
X152640000Y-76450000D03*
X175500000Y-56130000D03*
X175500000Y-58670000D03*
X175500000Y-61210000D03*
X175500000Y-63750000D03*
X175500000Y-66290000D03*
X175500000Y-68830000D03*
X175500000Y-71370000D03*
X175500000Y-73910000D03*
X175500000Y-76450000D03*
X178040000Y-56130000D03*
X178040000Y-58670000D03*
X178040000Y-61210000D03*
X178040000Y-63750000D03*
X178040000Y-66290000D03*
X178040000Y-68830000D03*
X178040000Y-71370000D03*
X178040000Y-73910000D03*
X178040000Y-76450000D03*
%TD*%
D12*
%TO.C,C7*%
X166182500Y-72900000D03*
X168257500Y-72900000D03*
%TD*%
D14*
%TO.C,D1*%
X169500000Y-84280000D03*
X169500000Y-80900000D03*
%TD*%
D15*
%TO.C,JP2*%
X171580000Y-36890000D03*
D16*
X172880000Y-36890000D03*
%TD*%
D12*
%TO.C,C5*%
X162362500Y-76940000D03*
X164437500Y-76940000D03*
%TD*%
D17*
%TO.C,SW2*%
X149070000Y-50140000D03*
X149070000Y-47840000D03*
D18*
X150370000Y-46890000D03*
X150370000Y-51090000D03*
D19*
X148770000Y-52740000D03*
X148770000Y-45240000D03*
%TD*%
D20*
%TO.C,C3*%
X171400000Y-84290000D03*
X171400000Y-82565000D03*
%TD*%
D21*
%TO.C,U4*%
X163040000Y-70470000D03*
X165340000Y-70470000D03*
X167640000Y-70470000D03*
D22*
X165340000Y-64530000D03*
%TD*%
D17*
%TO.C,SW3*%
X149070000Y-40540000D03*
X149070000Y-38240000D03*
D18*
X150370000Y-37290000D03*
X150370000Y-41490000D03*
D19*
X148770000Y-43140000D03*
X148770000Y-35640000D03*
%TD*%
D23*
%TO.C,R1*%
X171800000Y-61357500D03*
X171800000Y-63182500D03*
%TD*%
D20*
%TO.C,C1*%
X173540000Y-73962500D03*
X173540000Y-72237500D03*
%TD*%
%TO.C,C9*%
X176190000Y-38152500D03*
X176190000Y-36427500D03*
%TD*%
D24*
%TO.C,C2*%
X172000000Y-72237500D03*
X172000000Y-73962500D03*
%TD*%
D25*
%TO.C,USB1*%
X173110000Y-98615000D03*
X178890000Y-98615000D03*
D26*
X171680000Y-98115000D03*
X180320000Y-98115000D03*
D27*
X171680000Y-102265000D03*
X180320000Y-102265000D03*
D28*
X172800000Y-97205000D03*
X173600000Y-97205000D03*
D29*
X174750000Y-97205000D03*
X175750000Y-97205000D03*
X176250000Y-97205000D03*
X177250000Y-97205000D03*
D28*
X179200000Y-97205000D03*
X178400000Y-97205000D03*
D29*
X177750000Y-97205000D03*
X176750000Y-97205000D03*
X175250000Y-97205000D03*
X174250000Y-97205000D03*
%TD*%
D30*
%TO.C,CN1*%
X161500000Y-91987500D03*
X166500000Y-91987500D03*
D31*
X169500000Y-101987500D03*
X158500000Y-101987500D03*
%TD*%
D32*
%TO.C,Rset1*%
X171400000Y-81012500D03*
X171400000Y-79187500D03*
%TD*%
D33*
%TO.C,U5*%
X173350000Y-64770000D03*
X172700000Y-64770000D03*
X172050000Y-64770000D03*
X171400000Y-64770000D03*
X170750000Y-64770000D03*
X170100000Y-64770000D03*
X169450000Y-64770000D03*
X169450000Y-70630000D03*
X170100000Y-70630000D03*
X170750000Y-70630000D03*
X171400000Y-70630000D03*
X172050000Y-70630000D03*
X172700000Y-70630000D03*
X173350000Y-70630000D03*
%TD*%
D34*
%TO.C,U2*%
X166000000Y-40460000D03*
X164000000Y-37000000D03*
X162000000Y-40460000D03*
%TD*%
D35*
%TO.C,DC1*%
X152170000Y-91500000D03*
X152170000Y-97500000D03*
D36*
X156830000Y-94000000D03*
%TD*%
D37*
%TO.C,MIC2*%
X177530000Y-36770000D03*
X177530000Y-37710000D03*
X177530000Y-38650000D03*
X178690000Y-38650000D03*
X178690000Y-37710000D03*
X178690000Y-36770000D03*
%TD*%
D12*
%TO.C,C6*%
X162362500Y-72900000D03*
X164437500Y-72900000D03*
%TD*%
D20*
%TO.C,C8*%
X174670000Y-38152500D03*
X174670000Y-36427500D03*
%TD*%
M02*
