M48
; DRILL file {KiCad 9.0.6} date 2025-12-14T22:49:08+0100
; FORMAT={-:-/ absolute / metric / decimal}
; #@! TF.CreationDate,2025-12-14T22:49:08+01:00
; #@! TF.GenerationSoftware,Kicad,Pcbnew,9.0.6
; #@! TF.FileFunction,Plated,1,2,PTH
FMAT,2
METRIC
; #@! TA.AperFunction,Plated,PTH,ViaDrill
T1C0.300
; #@! TA.AperFunction,Plated,PTH,ComponentDrill
T2C0.600
; #@! TA.AperFunction,Plated,PTH,ComponentDrill
T3C0.900
; #@! TA.AperFunction,Plated,PTH,ComponentDrill
T4C1.000
; #@! TA.AperFunction,Plated,PTH,ComponentDrill
T5C1.000
; #@! TA.AperFunction,Plated,PTH,ComponentDrill
T6C1.100
; #@! TA.AperFunction,Plated,PTH,ComponentDrill
T7C1.800
; #@! TA.AperFunction,Plated,PTH,ComponentDrill
T8C2.600
%
G90
G05
T1
X149.5Y-34.1
X149.5Y-79.1
X149.5Y-81.6
X149.5Y-84.1
X149.5Y-86.6
X149.5Y-89.1
X149.5Y-94.1
X149.5Y-96.6
X149.5Y-99.1
X149.5Y-101.6
X151.3Y-45.92
X151.76Y-35.97
X152.0Y-44.1
X152.0Y-46.6
X152.0Y-49.1
X152.0Y-51.6
X152.0Y-54.1
X152.0Y-79.1
X152.0Y-81.6
X152.0Y-84.1
X152.0Y-86.6
X152.0Y-89.1
X152.0Y-94.1
X152.0Y-99.1
X152.0Y-101.6
X154.5Y-41.6
X154.5Y-44.1
X154.5Y-46.6
X154.5Y-49.1
X154.5Y-51.6
X154.5Y-54.1
X154.5Y-56.6
X154.5Y-59.1
X154.5Y-61.6
X154.5Y-64.1
X154.5Y-66.6
X154.5Y-69.1
X154.5Y-71.6
X154.5Y-74.1
X154.5Y-76.6
X154.5Y-79.1
X154.5Y-81.6
X154.5Y-84.1
X154.5Y-86.6
X154.5Y-89.1
X154.5Y-94.1
X154.5Y-96.6
X154.5Y-99.1
X154.5Y-101.6
X157.0Y-36.6
X157.0Y-39.1
X157.0Y-41.6
X157.0Y-44.1
X157.0Y-46.6
X157.0Y-49.1
X157.0Y-51.6
X157.0Y-54.1
X157.0Y-56.6
X157.0Y-59.1
X157.0Y-61.6
X157.0Y-64.1
X157.0Y-66.6
X157.0Y-69.1
X157.0Y-71.6
X157.0Y-74.1
X157.0Y-76.6
X157.0Y-79.1
X157.0Y-81.6
X157.0Y-84.1
X157.0Y-86.6
X157.0Y-89.1
X157.0Y-91.6
X157.0Y-96.6
X157.0Y-99.1
X157.0Y-101.6
X158.83Y-34.79
X159.5Y-36.6
X159.5Y-39.1
X159.5Y-41.6
X159.5Y-44.1
X159.5Y-46.6
X159.5Y-49.1
X159.5Y-51.6
X159.5Y-54.1
X159.5Y-56.6
X159.5Y-59.1
X159.5Y-61.6
X159.5Y-64.1
X159.5Y-66.6
X159.5Y-69.1
X159.5Y-71.6
X159.5Y-74.1
X159.5Y-76.6
X159.5Y-79.1
X159.5Y-81.6
X159.5Y-84.1
X159.5Y-86.6
X159.5Y-89.1
X159.5Y-91.6
X159.5Y-94.1
X159.5Y-96.6
X159.5Y-99.1
X162.0Y-44.1
X162.0Y-46.6
X162.0Y-49.1
X162.0Y-51.6
X162.0Y-54.1
X162.0Y-56.6
X162.0Y-59.1
X162.0Y-61.6
X162.0Y-64.1
X162.0Y-66.6
X162.0Y-69.1
X162.0Y-71.6
X162.0Y-79.1
X162.0Y-81.6
X162.0Y-84.1
X162.0Y-86.6
X162.0Y-89.1
X162.0Y-94.1
X162.0Y-96.6
X162.0Y-99.1
X162.0Y-101.6
X164.5Y-44.1
X164.5Y-46.6
X164.5Y-49.1
X164.5Y-51.6
X164.5Y-54.1
X164.5Y-56.6
X164.5Y-59.1
X164.5Y-61.6
X164.5Y-66.6
X164.5Y-69.1
X164.5Y-94.1
X164.5Y-96.6
X164.5Y-99.1
X164.5Y-101.6
X167.0Y-36.6
X167.0Y-44.1
X167.0Y-46.6
X167.0Y-49.1
X167.0Y-51.6
X167.0Y-54.1
X167.0Y-56.6
X167.0Y-59.1
X167.0Y-61.6
X167.0Y-66.6
X167.0Y-76.6
X167.0Y-79.1
X167.0Y-94.1
X167.0Y-96.6
X167.0Y-99.1
X167.0Y-101.6
X169.5Y-36.6
X169.5Y-41.6
X169.5Y-44.1
X169.5Y-46.6
X169.5Y-49.1
X169.5Y-51.6
X169.5Y-54.1
X169.5Y-56.6
X169.5Y-59.1
X169.5Y-61.6
X169.5Y-66.6
X169.5Y-69.1
X169.5Y-71.6
X169.5Y-76.6
X169.5Y-79.1
X169.5Y-94.1
X169.5Y-96.6
X169.5Y-99.1
X169.79Y-35.1
X172.0Y-41.6
X172.0Y-44.1
X172.0Y-46.6
X172.0Y-49.1
X172.0Y-51.6
X172.0Y-54.1
X172.0Y-66.6
X172.0Y-69.1
X172.0Y-76.6
X172.0Y-96.6
X174.4Y-77.54
X174.5Y-41.6
X174.5Y-44.1
X174.5Y-46.6
X174.5Y-49.1
X174.5Y-51.6
X174.5Y-101.6
X174.584Y-98.357
X175.349Y-98.592
X176.433Y-98.391
X177.0Y-44.1
X177.0Y-46.6
X177.0Y-49.1
X177.0Y-54.1
X177.0Y-101.6
X177.02Y-86.87
X177.475Y-85.975
X177.72Y-77.93
X177.75Y-98.3
X179.5Y-66.6
X179.5Y-69.1
X179.5Y-74.1
X179.5Y-76.6
X179.5Y-79.1
X179.5Y-81.6
X179.5Y-84.1
X179.5Y-86.6
X179.5Y-89.1
X179.5Y-91.6
X179.5Y-94.1
X179.5Y-96.6
X179.5Y-101.6
T4
X148.77Y-35.64
X148.77Y-43.14
X148.77Y-45.24
X148.77Y-52.74
T5
X150.1Y-56.13
X150.1Y-58.67
X150.1Y-61.21
X150.1Y-63.75
X150.1Y-66.29
X150.1Y-68.83
X150.1Y-71.37
X150.1Y-73.91
X150.1Y-76.45
X152.64Y-56.13
X152.64Y-58.67
X152.64Y-61.21
X152.64Y-63.75
X152.64Y-66.29
X152.64Y-68.83
X152.64Y-71.37
X152.64Y-73.91
X152.64Y-76.45
X175.5Y-56.13
X175.5Y-58.67
X175.5Y-61.21
X175.5Y-63.75
X175.5Y-66.29
X175.5Y-68.83
X175.5Y-71.37
X175.5Y-73.91
X175.5Y-76.45
X178.04Y-56.13
X178.04Y-58.67
X178.04Y-61.21
X178.04Y-63.75
X178.04Y-66.29
X178.04Y-68.83
X178.04Y-71.37
X178.04Y-73.91
X178.04Y-76.45
T6
X158.5Y-101.987
X169.5Y-101.987
T7
X161.5Y-91.987
X166.5Y-91.987
T2
X171.68Y-97.565G85X171.68Y-98.665
G05
X171.68Y-101.865G85X171.68Y-102.665
G05
X180.32Y-97.565G85X180.32Y-98.665
G05
X180.32Y-101.865G85X180.32Y-102.665
G05
T3
X151.07Y-91.5G85X153.27Y-91.5
G05
X153.27Y-97.5G85X151.07Y-97.5
G05
X156.83Y-93.15G85X156.83Y-94.85
G05
T8
X162.0Y-40.457G85X162.0Y-40.463
G05
X164.0Y-36.997G85X164.0Y-37.003
G05
X166.0Y-40.457G85X166.0Y-40.463
G05
M30
