%TF.GenerationSoftware,KiCad,Pcbnew,9.0.6*%
%TF.CreationDate,2025-12-14T22:48:58+01:00*%
%TF.ProjectId,ledBrain,6c656442-7261-4696-9e2e-6b696361645f,rev?*%
%TF.SameCoordinates,Original*%
%TF.FileFunction,Copper,L1,Top*%
%TF.FilePolarity,Positive*%
%FSLAX46Y46*%
G04 Gerber Fmt 4.6, Leading zero omitted, Abs format (unit mm)*
G04 Created by KiCad (PCBNEW 9.0.6) date 2025-12-14 22:48:58*
%MOMM*%
%LPD*%
G01*
G04 APERTURE LIST*
G04 Aperture macros list*
%AMRoundRect*
0 Rectangle with rounded corners*
0 $1 Rounding radius*
0 $2 $3 $4 $5 $6 $7 $8 $9 X,Y pos of 4 corners*
0 Add a 4 corners polygon primitive as box body*
4,1,4,$2,$3,$4,$5,$6,$7,$8,$9,$2,$3,0*
0 Add four circle primitives for the rounded corners*
1,1,$1+$1,$2,$3*
1,1,$1+$1,$4,$5*
1,1,$1+$1,$6,$7*
1,1,$1+$1,$8,$9*
0 Add four rect primitives between the rounded corners*
20,1,$1+$1,$2,$3,$4,$5,0*
20,1,$1+$1,$4,$5,$6,$7,0*
20,1,$1+$1,$6,$7,$8,$9,0*
20,1,$1+$1,$8,$9,$2,$3,0*%
%AMFreePoly0*
4,1,23,0.500000,-0.750000,0.000000,-0.750000,0.000000,-0.745722,-0.065263,-0.745722,-0.191342,-0.711940,-0.304381,-0.646677,-0.396677,-0.554381,-0.461940,-0.441342,-0.495722,-0.315263,-0.495722,-0.250000,-0.500000,-0.250000,-0.500000,0.250000,-0.495722,0.250000,-0.495722,0.315263,-0.461940,0.441342,-0.396677,0.554381,-0.304381,0.646677,-0.191342,0.711940,-0.065263,0.745722,0.000000,0.745722,
0.000000,0.750000,0.500000,0.750000,0.500000,-0.750000,0.500000,-0.750000,$1*%
%AMFreePoly1*
4,1,23,0.000000,0.745722,0.065263,0.745722,0.191342,0.711940,0.304381,0.646677,0.396677,0.554381,0.461940,0.441342,0.495722,0.315263,0.495722,0.250000,0.500000,0.250000,0.500000,-0.250000,0.495722,-0.250000,0.495722,-0.315263,0.461940,-0.441342,0.396677,-0.554381,0.304381,-0.646677,0.191342,-0.711940,0.065263,-0.745722,0.000000,-0.745722,0.000000,-0.750000,-0.500000,-0.750000,
-0.500000,0.750000,0.000000,0.750000,0.000000,0.745722,0.000000,0.745722,$1*%
G04 Aperture macros list end*
%TA.AperFunction,EtchedComponent*%
%ADD10C,0.000000*%
%TD*%
%TA.AperFunction,SMDPad,CuDef*%
%ADD11R,0.600000X1.500000*%
%TD*%
%TA.AperFunction,SMDPad,CuDef*%
%ADD12R,3.300000X2.100000*%
%TD*%
%TA.AperFunction,SMDPad,CuDef*%
%ADD13RoundRect,0.250000X-0.337500X-0.475000X0.337500X-0.475000X0.337500X0.475000X-0.337500X0.475000X0*%
%TD*%
%TA.AperFunction,ComponentPad*%
%ADD14C,1.700000*%
%TD*%
%TA.AperFunction,SMDPad,CuDef*%
%ADD15R,0.990000X0.880000*%
%TD*%
%TA.AperFunction,SMDPad,CuDef*%
%ADD16FreePoly0,0.000000*%
%TD*%
%TA.AperFunction,SMDPad,CuDef*%
%ADD17FreePoly1,0.000000*%
%TD*%
%TA.AperFunction,SMDPad,CuDef*%
%ADD18R,1.200000X1.200000*%
%TD*%
%TA.AperFunction,ComponentPad*%
%ADD19C,1.600000*%
%TD*%
%TA.AperFunction,SMDPad,CuDef*%
%ADD20RoundRect,0.237500X0.237500X-0.300000X0.237500X0.300000X-0.237500X0.300000X-0.237500X-0.300000X0*%
%TD*%
%TA.AperFunction,SMDPad,CuDef*%
%ADD21R,1.100000X2.500000*%
%TD*%
%TA.AperFunction,SMDPad,CuDef*%
%ADD22R,3.600000X2.340000*%
%TD*%
%TA.AperFunction,SMDPad,CuDef*%
%ADD23RoundRect,0.237500X-0.237500X0.250000X-0.237500X-0.250000X0.237500X-0.250000X0.237500X0.250000X0*%
%TD*%
%TA.AperFunction,SMDPad,CuDef*%
%ADD24RoundRect,0.237500X-0.237500X0.300000X-0.237500X-0.300000X0.237500X-0.300000X0.237500X0.300000X0*%
%TD*%
%TA.AperFunction,ComponentPad*%
%ADD25O,1.000000X2.100000*%
%TD*%
%TA.AperFunction,ComponentPad*%
%ADD26O,1.000000X1.800000*%
%TD*%
%TA.AperFunction,SMDPad,CuDef*%
%ADD27R,0.600000X1.375000*%
%TD*%
%TA.AperFunction,SMDPad,CuDef*%
%ADD28R,0.300000X1.375000*%
%TD*%
%TA.AperFunction,ComponentPad*%
%ADD29C,2.500000*%
%TD*%
%TA.AperFunction,ComponentPad*%
%ADD30C,1.800000*%
%TD*%
%TA.AperFunction,SMDPad,CuDef*%
%ADD31RoundRect,0.237500X0.237500X-0.250000X0.237500X0.250000X-0.237500X0.250000X-0.237500X-0.250000X0*%
%TD*%
%TA.AperFunction,SMDPad,CuDef*%
%ADD32R,0.300000X0.990000*%
%TD*%
%TA.AperFunction,ComponentPad*%
%ADD33O,3.000000X3.500000*%
%TD*%
%TA.AperFunction,ComponentPad*%
%ADD34O,3.800000X1.500000*%
%TD*%
%TA.AperFunction,ComponentPad*%
%ADD35O,1.500000X3.400000*%
%TD*%
%TA.AperFunction,SMDPad,CuDef*%
%ADD36R,0.570000X0.640000*%
%TD*%
%TA.AperFunction,ViaPad*%
%ADD37C,0.600000*%
%TD*%
%TA.AperFunction,Conductor*%
%ADD38C,0.200000*%
%TD*%
%TA.AperFunction,Conductor*%
%ADD39C,1.200000*%
%TD*%
%TA.AperFunction,Conductor*%
%ADD40C,0.600000*%
%TD*%
G04 APERTURE END LIST*
D10*
%TA.AperFunction,EtchedComponent*%
%TO.C,JP2*%
G36*
X172480000Y-37190000D02*
G01*
X171980000Y-37190000D01*
X171980000Y-36590000D01*
X172480000Y-36590000D01*
X172480000Y-37190000D01*
G37*
%TD.AperFunction*%
%TD*%
D11*
%TO.P,U3,1,VHV*%
%TO.N,VBUS*%
X172800000Y-84900000D03*
%TO.P,U3,2,CFG2/SCL*%
%TO.N,unconnected-(U3-CFG2{slash}SCL-Pad2)*%
X173800000Y-84900000D03*
%TO.P,U3,3,CFG3/SDA*%
%TO.N,unconnected-(U3-CFG3{slash}SDA-Pad3)*%
X174800000Y-84900000D03*
%TO.P,U3,4,DP*%
%TO.N,DP*%
X175800000Y-84900000D03*
%TO.P,U3,5,DM*%
%TO.N,DM*%
X176800000Y-84900000D03*
%TO.P,U3,6,CC2*%
%TO.N,CC2*%
X176800000Y-78900000D03*
%TO.P,U3,7,CC1*%
%TO.N,CC1*%
X175800000Y-78900000D03*
%TO.P,U3,8,VBUS*%
%TO.N,VBUS*%
X174800000Y-78900000D03*
%TO.P,U3,9,CFG1*%
%TO.N,Net-(U3-CFG1)*%
X173800000Y-78900000D03*
%TO.P,U3,10,PG*%
%TO.N,unconnected-(U3-PG-Pad10)*%
X172800000Y-78900000D03*
D12*
%TO.P,U3,11,GND*%
%TO.N,GND*%
X174800000Y-81900000D03*
%TD*%
D13*
%TO.P,C4,1*%
%TO.N,VBUS*%
X162362500Y-74920000D03*
%TO.P,C4,2*%
%TO.N,GND*%
X164437500Y-74920000D03*
%TD*%
D14*
%TO.P,U1,1,GND*%
%TO.N,GND*%
X150100000Y-56130000D03*
%TO.P,U1,2,GND\u002A*%
X150100000Y-58670000D03*
%TO.P,U1,3,S_VN*%
%TO.N,unconnected-(U1-S_VN-Pad3)*%
X150100000Y-61210000D03*
%TO.P,U1,4,IO35*%
%TO.N,unconnected-(U1-IO35-Pad4)*%
X150100000Y-63750000D03*
%TO.P,U1,5,IO33*%
%TO.N,IO33{slash}MAINBUTTON*%
X150100000Y-66290000D03*
%TO.P,U1,6,IO34*%
%TO.N,IO34{slash}SECOND BUTTON*%
X150100000Y-68830000D03*
%TO.P,U1,7,IO14*%
%TO.N,unconnected-(U1-IO14-Pad7)*%
X150100000Y-71370000D03*
%TO.P,U1,8,3v3\u002A*%
%TO.N,unconnected-(U1-3v3\u002A-Pad8)*%
X150100000Y-73910000D03*
%TO.P,U1,9,5vF\u002A*%
%TO.N,unconnected-(U1-5vF\u002A-Pad9)*%
X150100000Y-76450000D03*
%TO.P,U1,10,EN*%
%TO.N,unconnected-(U1-EN-Pad10)*%
X152640000Y-56130000D03*
%TO.P,U1,11,S_VP*%
%TO.N,unconnected-(U1-S_VP-Pad11)*%
X152640000Y-58670000D03*
%TO.P,U1,12,IO26*%
%TO.N,unconnected-(U1-IO26-Pad12)*%
X152640000Y-61210000D03*
%TO.P,U1,13,IO18*%
%TO.N,unconnected-(U1-IO18-Pad13)*%
X152640000Y-63750000D03*
%TO.P,U1,14,IO19*%
%TO.N,unconnected-(U1-IO19-Pad14)*%
X152640000Y-66290000D03*
%TO.P,U1,15,IO23*%
%TO.N,unconnected-(U1-IO23-Pad15)*%
X152640000Y-68830000D03*
%TO.P,U1,16,IO5*%
%TO.N,unconnected-(U1-IO5-Pad16)*%
X152640000Y-71370000D03*
%TO.P,U1,17,3v3*%
%TO.N,+3.3V*%
X152640000Y-73910000D03*
%TO.P,U1,18,IO13*%
%TO.N,unconnected-(U1-IO13-Pad18)*%
X152640000Y-76450000D03*
%TO.P,U1,19,TXD*%
%TO.N,unconnected-(U1-TXD-Pad19)*%
X175500000Y-56130000D03*
%TO.P,U1,20,RXD*%
%TO.N,unconnected-(U1-RXD-Pad20)*%
X175500000Y-58670000D03*
%TO.P,U1,21,IO22*%
%TO.N,unconnected-(U1-IO22-Pad21)*%
X175500000Y-61210000D03*
%TO.P,U1,22,IO21*%
%TO.N,unconnected-(U1-IO21-Pad22)*%
X175500000Y-63750000D03*
%TO.P,U1,23,IO17*%
%TO.N,unconnected-(U1-IO17-Pad23)*%
X175500000Y-66290000D03*
%TO.P,U1,24,IO16*%
%TO.N,IO16{slash}LED1*%
X175500000Y-68830000D03*
%TO.P,U1,25,GND*%
%TO.N,GND*%
X175500000Y-71370000D03*
%TO.P,U1,26,5v0*%
%TO.N,+5V*%
X175500000Y-73910000D03*
%TO.P,U1,27,IO15*%
%TO.N,unconnected-(U1-IO15-Pad27)*%
X175500000Y-76450000D03*
%TO.P,U1,28,GND*%
%TO.N,GND*%
X178040000Y-56130000D03*
%TO.P,U1,29,IO27*%
%TO.N,unconnected-(U1-IO27-Pad29)*%
X178040000Y-58670000D03*
%TO.P,U1,30,IO25*%
%TO.N,unconnected-(U1-IO25-Pad30)*%
X178040000Y-61210000D03*
%TO.P,U1,31,IO32*%
%TO.N,IO32{slash}MIC DATA*%
X178040000Y-63750000D03*
%TO.P,U1,32,IO12*%
%TO.N,IO12{slash}MIC CLK*%
X178040000Y-66290000D03*
%TO.P,U1,33,IO_4*%
%TO.N,unconnected-(U1-IO_4-Pad33)*%
X178040000Y-68830000D03*
%TO.P,U1,34,IO_0*%
%TO.N,unconnected-(U1-IO_0-Pad34)*%
X178040000Y-71370000D03*
%TO.P,U1,35,IO_2*%
%TO.N,unconnected-(U1-IO_2-Pad35)*%
X178040000Y-73910000D03*
%TO.P,U1,36,NC*%
%TO.N,unconnected-(U1-NC-Pad36)*%
X178040000Y-76450000D03*
%TD*%
D13*
%TO.P,C7,1*%
%TO.N,GND*%
X166182500Y-72900000D03*
%TO.P,C7,2*%
%TO.N,+5V*%
X168257500Y-72900000D03*
%TD*%
D15*
%TO.P,D1,1,K*%
%TO.N,VBUS*%
X169500000Y-84280000D03*
%TO.P,D1,2,A*%
%TO.N,GND*%
X169500000Y-80900000D03*
%TD*%
D16*
%TO.P,JP2,1,A*%
%TO.N,+3.3V*%
X171580000Y-36890000D03*
D17*
%TO.P,JP2,2,B*%
%TO.N,Net-(JP2-B)*%
X172880000Y-36890000D03*
%TD*%
D13*
%TO.P,C5,1*%
%TO.N,VBUS*%
X162362500Y-76940000D03*
%TO.P,C5,2*%
%TO.N,GND*%
X164437500Y-76940000D03*
%TD*%
D18*
%TO.P,SW2,1,1*%
%TO.N,IO33{slash}MAINBUTTON*%
X150370000Y-46890000D03*
%TO.P,SW2,2,2*%
%TO.N,GND*%
X150370000Y-51090000D03*
D19*
%TO.P,SW2,3,3*%
X148770000Y-52740000D03*
%TO.P,SW2,4,4*%
X148770000Y-45240000D03*
%TD*%
D20*
%TO.P,C3,1*%
%TO.N,VBUS*%
X171400000Y-84290000D03*
%TO.P,C3,2*%
%TO.N,GND*%
X171400000Y-82565000D03*
%TD*%
D21*
%TO.P,U4,1,VIN*%
%TO.N,VBUS*%
X163040000Y-70470000D03*
%TO.P,U4,2,GND*%
%TO.N,GND*%
X165340000Y-70470000D03*
%TO.P,U4,3,VOUT*%
%TO.N,+5V*%
X167640000Y-70470000D03*
D22*
%TO.P,U4,4,GND*%
%TO.N,GND*%
X165340000Y-64530000D03*
%TD*%
D18*
%TO.P,SW3,1,1*%
%TO.N,IO34{slash}SECOND BUTTON*%
X150370000Y-37290000D03*
%TO.P,SW3,2,2*%
%TO.N,GND*%
X150370000Y-41490000D03*
D19*
%TO.P,SW3,3,3*%
X148770000Y-43140000D03*
%TO.P,SW3,4,4*%
X148770000Y-35640000D03*
%TD*%
D23*
%TO.P,R1,1*%
%TO.N,LED DATA OUT*%
X171800000Y-61357500D03*
%TO.P,R1,2*%
%TO.N,Net-(U5-1Y)*%
X171800000Y-63182500D03*
%TD*%
D20*
%TO.P,C1,1*%
%TO.N,+5V*%
X173540000Y-73962500D03*
%TO.P,C1,2*%
%TO.N,GND*%
X173540000Y-72237500D03*
%TD*%
%TO.P,C9,1*%
%TO.N,GND*%
X176190000Y-38152500D03*
%TO.P,C9,2*%
%TO.N,Net-(JP2-B)*%
X176190000Y-36427500D03*
%TD*%
D24*
%TO.P,C2,1*%
%TO.N,GND*%
X172000000Y-72237500D03*
%TO.P,C2,2*%
%TO.N,+5V*%
X172000000Y-73962500D03*
%TD*%
D25*
%TO.P,USB1,1,SHELL*%
%TO.N,GND*%
X171680000Y-98115000D03*
%TO.P,USB1,2,SHELL*%
X180320000Y-98115000D03*
D26*
%TO.P,USB1,3,SHELL*%
X171680000Y-102265000D03*
%TO.P,USB1,4,SHELL*%
X180320000Y-102265000D03*
D27*
%TO.P,USB1,A1B12,GND*%
X172800000Y-97205000D03*
%TO.P,USB1,A4B9,VBUS*%
%TO.N,VBUS*%
X173600000Y-97205000D03*
D28*
%TO.P,USB1,A5,CC1*%
%TO.N,CC1*%
X174750000Y-97205000D03*
%TO.P,USB1,A6,DP1*%
%TO.N,DP*%
X175750000Y-97205000D03*
%TO.P,USB1,A7,DN1*%
%TO.N,DM*%
X176250000Y-97205000D03*
%TO.P,USB1,A8,SBU1*%
%TO.N,unconnected-(USB1-SBU1-PadA8)*%
X177250000Y-97205000D03*
D27*
%TO.P,USB1,B1A12,GND*%
%TO.N,GND*%
X179200000Y-97205000D03*
%TO.P,USB1,B4A9,VBUS*%
%TO.N,VBUS*%
X178400000Y-97205000D03*
D28*
%TO.P,USB1,B5,CC2*%
%TO.N,CC2*%
X177750000Y-97205000D03*
%TO.P,USB1,B6,DP2*%
%TO.N,DP*%
X176750000Y-97205000D03*
%TO.P,USB1,B7,DN2*%
%TO.N,DM*%
X175250000Y-97205000D03*
%TO.P,USB1,B8,SBU2*%
%TO.N,unconnected-(USB1-SBU2-PadB8)*%
X174250000Y-97205000D03*
%TD*%
D29*
%TO.P,CN1,1,-*%
%TO.N,GND*%
X161500000Y-91987500D03*
%TO.P,CN1,2,+*%
%TO.N,VBUS*%
X166500000Y-91987500D03*
D30*
%TO.P,CN1,3,3*%
%TO.N,GND*%
X169500000Y-101987500D03*
%TO.P,CN1,4,4*%
X158500000Y-101987500D03*
%TD*%
D31*
%TO.P,Rset1,1*%
%TO.N,GND*%
X171400000Y-81012500D03*
%TO.P,Rset1,2*%
%TO.N,Net-(U3-CFG1)*%
X171400000Y-79187500D03*
%TD*%
D32*
%TO.P,U5,1,1A*%
%TO.N,IO16{slash}LED1*%
X173350000Y-64770000D03*
%TO.P,U5,2,1B*%
%TO.N,GND*%
X172700000Y-64770000D03*
%TO.P,U5,3,1Y*%
%TO.N,Net-(U5-1Y)*%
X172050000Y-64770000D03*
%TO.P,U5,4,2A*%
%TO.N,GND*%
X171400000Y-64770000D03*
%TO.P,U5,5,2B*%
X170750000Y-64770000D03*
%TO.P,U5,6,2Y*%
X170100000Y-64770000D03*
%TO.P,U5,7,GND*%
X169450000Y-64770000D03*
%TO.P,U5,8,3Y*%
X169450000Y-70630000D03*
%TO.P,U5,9,3A*%
X170100000Y-70630000D03*
%TO.P,U5,10,3B*%
X170750000Y-70630000D03*
%TO.P,U5,11,4Y*%
X171400000Y-70630000D03*
%TO.P,U5,12,4A*%
X172050000Y-70630000D03*
%TO.P,U5,13,4B*%
X172700000Y-70630000D03*
%TO.P,U5,14,VCC*%
%TO.N,+5V*%
X173350000Y-70630000D03*
%TD*%
D33*
%TO.P,U2,1,1*%
%TO.N,GND*%
X166000000Y-40460000D03*
%TO.P,U2,2,2*%
%TO.N,LED DATA OUT*%
X164000000Y-37000000D03*
%TO.P,U2,3,3*%
%TO.N,VBUS*%
X162000000Y-40460000D03*
%TD*%
D34*
%TO.P,DC1,1,1*%
%TO.N,VBUS*%
X152170000Y-91500000D03*
%TO.P,DC1,2,2*%
%TO.N,GND*%
X152170000Y-97500000D03*
D35*
%TO.P,DC1,3,3*%
X156830000Y-94000000D03*
%TD*%
D36*
%TO.P,MIC2,1,VDD*%
%TO.N,Net-(JP2-B)*%
X177530000Y-36770000D03*
%TO.P,MIC2,2,GND*%
%TO.N,GND*%
X177530000Y-37710000D03*
%TO.P,MIC2,3,DATA*%
%TO.N,IO32{slash}MIC DATA*%
X177530000Y-38650000D03*
%TO.P,MIC2,4,CLK*%
%TO.N,IO12{slash}MIC CLK*%
X178690000Y-38650000D03*
%TO.P,MIC2,5,GND*%
%TO.N,GND*%
X178690000Y-37710000D03*
%TO.P,MIC2,6,L/R*%
X178690000Y-36770000D03*
%TD*%
D13*
%TO.P,C6,1*%
%TO.N,VBUS*%
X162362500Y-72900000D03*
%TO.P,C6,2*%
%TO.N,GND*%
X164437500Y-72900000D03*
%TD*%
D20*
%TO.P,C8,1*%
%TO.N,GND*%
X174670000Y-38152500D03*
%TO.P,C8,2*%
%TO.N,Net-(JP2-B)*%
X174670000Y-36427500D03*
%TD*%
D37*
%TO.N,+5V*%
X158830000Y-34790000D03*
%TO.N,GND*%
X169500000Y-79100000D03*
X152000000Y-101600000D03*
X164500000Y-69100000D03*
X154500000Y-99100000D03*
X159500000Y-36600000D03*
X167000000Y-36600000D03*
X159500000Y-91600000D03*
X167000000Y-66600000D03*
X149500000Y-96600000D03*
X164500000Y-56600000D03*
X157000000Y-91600000D03*
X169500000Y-61600000D03*
X159500000Y-96600000D03*
X169500000Y-71600000D03*
X172000000Y-69100000D03*
X169500000Y-96600000D03*
X167000000Y-51600000D03*
X179500000Y-81600000D03*
X179500000Y-69100000D03*
X174500000Y-51600000D03*
X177000000Y-46600000D03*
X164500000Y-59100000D03*
X172000000Y-49100000D03*
X172000000Y-41600000D03*
X169500000Y-36600000D03*
X169500000Y-51600000D03*
X172000000Y-46600000D03*
X162000000Y-99100000D03*
X154500000Y-94100000D03*
X164500000Y-46600000D03*
X179500000Y-66600000D03*
X164500000Y-66600000D03*
X149500000Y-99100000D03*
X179500000Y-74100000D03*
X179500000Y-101600000D03*
X157000000Y-36600000D03*
X172000000Y-54100000D03*
X157000000Y-96600000D03*
X167000000Y-94100000D03*
X164500000Y-54100000D03*
X169500000Y-49100000D03*
X177000000Y-54100000D03*
X169500000Y-46600000D03*
X174500000Y-101600000D03*
X179500000Y-86600000D03*
X179500000Y-79100000D03*
X162000000Y-94100000D03*
X167000000Y-101600000D03*
X177000000Y-49100000D03*
X167000000Y-59100000D03*
X167000000Y-96600000D03*
X152000000Y-94100000D03*
X174500000Y-46600000D03*
X174500000Y-41600000D03*
X179500000Y-84100000D03*
X164500000Y-44100000D03*
X172000000Y-51600000D03*
X164500000Y-101600000D03*
X154500000Y-101600000D03*
X179500000Y-89100000D03*
X169500000Y-66600000D03*
X149500000Y-34100000D03*
X179500000Y-96600000D03*
X172000000Y-66600000D03*
X157000000Y-101600000D03*
X167000000Y-99100000D03*
X152000000Y-99100000D03*
X167000000Y-79100000D03*
X169500000Y-54100000D03*
X159500000Y-99100000D03*
X162000000Y-96600000D03*
X167000000Y-76600000D03*
X167000000Y-46600000D03*
X172000000Y-76600000D03*
X172000000Y-44100000D03*
X174500000Y-49100000D03*
X167000000Y-49100000D03*
X162000000Y-101600000D03*
X169500000Y-56600000D03*
X169500000Y-69100000D03*
X167000000Y-44100000D03*
X169500000Y-76600000D03*
X169500000Y-59100000D03*
X174500000Y-44100000D03*
X179500000Y-76600000D03*
X149500000Y-94100000D03*
X177000000Y-44100000D03*
X169500000Y-41600000D03*
X149500000Y-101600000D03*
X164500000Y-99100000D03*
X169500000Y-94100000D03*
X164500000Y-96600000D03*
X164500000Y-49100000D03*
X172000000Y-96600000D03*
X164500000Y-61600000D03*
X167000000Y-54100000D03*
X167000000Y-56600000D03*
X164500000Y-94100000D03*
X157000000Y-99100000D03*
X159500000Y-94100000D03*
X177000000Y-101600000D03*
X179500000Y-94100000D03*
X179500000Y-91600000D03*
X169500000Y-99100000D03*
X164500000Y-51600000D03*
X169500000Y-44100000D03*
X154500000Y-96600000D03*
X167000000Y-61600000D03*
%TO.N,VBUS*%
X157000000Y-79100000D03*
X159500000Y-71600000D03*
X157000000Y-71600000D03*
X159500000Y-41600000D03*
X159500000Y-39100000D03*
X157000000Y-41600000D03*
X149500000Y-81600000D03*
X154500000Y-86600000D03*
X157000000Y-39100000D03*
X159500000Y-89100000D03*
X159500000Y-84100000D03*
X159500000Y-66600000D03*
X157000000Y-56600000D03*
X159500000Y-46600000D03*
X157000000Y-66600000D03*
X152000000Y-86600000D03*
X159500000Y-54100000D03*
X159500000Y-59100000D03*
X154500000Y-74100000D03*
X157000000Y-49100000D03*
X162000000Y-71600000D03*
X162000000Y-66600000D03*
X162000000Y-61600000D03*
X154500000Y-64100000D03*
X157000000Y-61600000D03*
X157000000Y-84100000D03*
X162000000Y-54100000D03*
X157000000Y-86600000D03*
X159500000Y-64100000D03*
X159500000Y-61600000D03*
X154500000Y-89100000D03*
X157000000Y-54100000D03*
X154500000Y-41600000D03*
X149500000Y-79100000D03*
X154500000Y-59100000D03*
X162000000Y-59100000D03*
X162000000Y-49100000D03*
X154500000Y-76600000D03*
X154500000Y-71600000D03*
X154500000Y-44100000D03*
X149500000Y-86600000D03*
X154500000Y-79100000D03*
X159500000Y-81600000D03*
X154500000Y-84100000D03*
X162000000Y-81600000D03*
X157000000Y-69100000D03*
X152000000Y-54100000D03*
X152000000Y-79100000D03*
X162000000Y-86600000D03*
X152000000Y-51600000D03*
X154500000Y-56600000D03*
X157000000Y-64100000D03*
X159500000Y-79100000D03*
X162000000Y-84100000D03*
X159500000Y-51600000D03*
X154500000Y-61600000D03*
X157000000Y-44100000D03*
X159500000Y-74100000D03*
X157000000Y-76600000D03*
X157000000Y-74100000D03*
X154500000Y-81600000D03*
X159500000Y-56600000D03*
X152000000Y-84100000D03*
X152000000Y-49100000D03*
X162000000Y-51600000D03*
X152000000Y-89100000D03*
X162000000Y-44100000D03*
X157000000Y-46600000D03*
X162000000Y-64100000D03*
X162000000Y-79100000D03*
X162000000Y-46600000D03*
X154500000Y-69100000D03*
X159500000Y-86600000D03*
X157000000Y-89100000D03*
X154500000Y-46600000D03*
X149500000Y-89100000D03*
X152000000Y-81600000D03*
X162000000Y-56600000D03*
X154500000Y-54100000D03*
X159500000Y-49100000D03*
X159500000Y-44100000D03*
X149500000Y-84100000D03*
X162000000Y-69100000D03*
X154500000Y-51600000D03*
X162000000Y-89100000D03*
X159500000Y-69100000D03*
X159500000Y-76600000D03*
X157000000Y-59100000D03*
X157000000Y-51600000D03*
X152000000Y-46600000D03*
X154500000Y-49100000D03*
X152000000Y-44100000D03*
X157000000Y-81600000D03*
X154500000Y-66600000D03*
%TO.N,+3.3V*%
X169790000Y-35100000D03*
%TO.N,IO33{slash}MAINBUTTON*%
X151300000Y-45920000D03*
%TO.N,IO34{slash}SECOND BUTTON*%
X151760000Y-35970000D03*
%TO.N,DP*%
X176432717Y-98391430D03*
X177020000Y-86870000D03*
%TO.N,CC2*%
X177720000Y-77930000D03*
X177750000Y-98300000D03*
%TO.N,CC1*%
X174584251Y-98357315D03*
X174400000Y-77540000D03*
%TO.N,DM*%
X177475000Y-85975000D03*
X175349037Y-98592064D03*
%TD*%
D38*
%TO.N,+5V*%
X159420000Y-34200000D02*
X178240000Y-34200000D01*
X173350000Y-70630000D02*
X173350000Y-70033000D01*
X180600000Y-36560000D02*
X180600000Y-70675760D01*
D39*
X167640000Y-72282500D02*
X168257500Y-72900000D01*
D38*
X168410000Y-69700000D02*
X167640000Y-70470000D01*
X173017000Y-69700000D02*
X168410000Y-69700000D01*
X173350000Y-70033000D02*
X173017000Y-69700000D01*
X178645760Y-72630000D02*
X176780000Y-72630000D01*
X176780000Y-72630000D02*
X175500000Y-73910000D01*
D39*
X175500000Y-73910000D02*
X169267500Y-73910000D01*
D38*
X178240000Y-34200000D02*
X180600000Y-36560000D01*
D39*
X169267500Y-73910000D02*
X168257500Y-72900000D01*
D38*
X158830000Y-34790000D02*
X159420000Y-34200000D01*
D39*
X167640000Y-70470000D02*
X167640000Y-72282500D01*
D38*
X180600000Y-70675760D02*
X178645760Y-72630000D01*
D40*
%TO.N,GND*%
X148770000Y-45240000D02*
X148770000Y-43090000D01*
D38*
X148770000Y-53370000D02*
X148770000Y-52740000D01*
D40*
X150370000Y-51140000D02*
X148770000Y-52740000D01*
X150370000Y-51090000D02*
X150370000Y-51140000D01*
X150100000Y-58670000D02*
X150100000Y-54700000D01*
X150100000Y-54700000D02*
X148770000Y-53370000D01*
X148770000Y-43090000D02*
X150370000Y-41490000D01*
D38*
%TO.N,VBUS*%
X172800000Y-84151000D02*
X172800000Y-84900000D01*
X176700000Y-80000000D02*
X177200000Y-80500000D01*
X173102000Y-83849000D02*
X172800000Y-84151000D01*
X174800000Y-79552000D02*
X175248000Y-80000000D01*
X176551000Y-83849000D02*
X173102000Y-83849000D01*
X177200000Y-83200000D02*
X176551000Y-83849000D01*
X175248000Y-80000000D02*
X176700000Y-80000000D01*
X174800000Y-78900000D02*
X174800000Y-79552000D01*
X177200000Y-80500000D02*
X177200000Y-83200000D01*
%TO.N,Net-(JP2-B)*%
X172880000Y-36890000D02*
X174207500Y-36890000D01*
X174670000Y-36427500D02*
X177187500Y-36427500D01*
X174207500Y-36890000D02*
X174670000Y-36427500D01*
X177187500Y-36427500D02*
X177530000Y-36770000D01*
%TO.N,+3.3V*%
X169790000Y-35100000D02*
X171580000Y-36890000D01*
%TO.N,IO32{slash}MIC DATA*%
X179400000Y-62390000D02*
X179400000Y-40520000D01*
X179400000Y-40520000D02*
X177530000Y-38650000D01*
X178040000Y-63750000D02*
X179400000Y-62390000D01*
%TO.N,IO12{slash}MIC CLK*%
X178040000Y-66290000D02*
X180000000Y-64330000D01*
X180000000Y-39960000D02*
X178690000Y-38650000D01*
X180000000Y-64330000D02*
X180000000Y-39960000D01*
%TO.N,LED DATA OUT*%
X178800000Y-43470000D02*
X174540000Y-39210000D01*
X164910000Y-37910000D02*
X164000000Y-37000000D01*
X174540000Y-39210000D02*
X170100000Y-39210000D01*
X168800000Y-37910000D02*
X164910000Y-37910000D01*
X171800000Y-57160000D02*
X178800000Y-50160000D01*
X171800000Y-61357500D02*
X171800000Y-57160000D01*
X178800000Y-50160000D02*
X178800000Y-43470000D01*
X170100000Y-39210000D02*
X168800000Y-37910000D01*
%TO.N,Net-(U5-1Y)*%
X172050000Y-63432500D02*
X171800000Y-63182500D01*
X172050000Y-64770000D02*
X172050000Y-63432500D01*
%TO.N,IO33{slash}MAINBUTTON*%
X151130000Y-46130000D02*
X150370000Y-46890000D01*
X151300000Y-45920000D02*
X151130000Y-46090000D01*
X151130000Y-46090000D02*
X151130000Y-46130000D01*
%TO.N,IO34{slash}SECOND BUTTON*%
X151760000Y-35970000D02*
X151690000Y-35970000D01*
X151690000Y-35970000D02*
X150370000Y-37290000D01*
%TO.N,Net-(U3-CFG1)*%
X171400000Y-79187500D02*
X172212500Y-80000000D01*
X173199000Y-80000000D02*
X173800000Y-79399000D01*
X172212500Y-80000000D02*
X173199000Y-80000000D01*
X173800000Y-79399000D02*
X173800000Y-78900000D01*
%TO.N,IO16{slash}LED1*%
X173350000Y-66680000D02*
X173350000Y-64770000D01*
X175500000Y-68830000D02*
X173350000Y-66680000D01*
%TO.N,DP*%
X176544500Y-98350000D02*
X176750000Y-98144500D01*
X177020000Y-86870000D02*
X176970000Y-86870000D01*
X176474147Y-98350000D02*
X176544500Y-98350000D01*
X176750000Y-98144500D02*
X176750000Y-97205000D01*
X175800000Y-85700000D02*
X175800000Y-84900000D01*
X176970000Y-86870000D02*
X175800000Y-85700000D01*
X175750000Y-98144500D02*
X175955500Y-98350000D01*
X175750000Y-97205000D02*
X175750000Y-98144500D01*
X175955500Y-98350000D02*
X176544500Y-98350000D01*
X176432717Y-98391430D02*
X176474147Y-98350000D01*
%TO.N,CC2*%
X177750000Y-98300000D02*
X177750000Y-97205000D01*
X176800000Y-78850000D02*
X177720000Y-77930000D01*
X176800000Y-78900000D02*
X176800000Y-78850000D01*
%TO.N,CC1*%
X174750000Y-98191566D02*
X174750000Y-97205000D01*
X174400000Y-77540000D02*
X174962240Y-77540000D01*
X174962240Y-77540000D02*
X175800000Y-78377760D01*
X174584251Y-98357315D02*
X174750000Y-98191566D01*
X175800000Y-78377760D02*
X175800000Y-78900000D01*
%TO.N,DM*%
X175349037Y-98592064D02*
X175250000Y-98493027D01*
X175415500Y-96100000D02*
X176084500Y-96100000D01*
X175250000Y-96265500D02*
X175415500Y-96100000D01*
X176250000Y-96265500D02*
X176250000Y-97205000D01*
X175250000Y-98493027D02*
X175250000Y-97205000D01*
X175250000Y-97205000D02*
X175250000Y-96265500D01*
X176084500Y-96100000D02*
X176250000Y-96265500D01*
X176800000Y-85300000D02*
X176800000Y-84900000D01*
X177475000Y-85975000D02*
X176800000Y-85300000D01*
%TD*%
%TA.AperFunction,Conductor*%
%TO.N,VBUS*%
G36*
X162219089Y-38706363D02*
G01*
X162774292Y-38891430D01*
X162819787Y-38918510D01*
X163101619Y-39182160D01*
X163116803Y-39199252D01*
X163345837Y-39510739D01*
X163365986Y-39553147D01*
X163501600Y-40077521D01*
X163506050Y-40094725D01*
X163510000Y-40125773D01*
X163510000Y-40772006D01*
X163508975Y-40787920D01*
X163400000Y-41629999D01*
X163400000Y-63081670D01*
X163380315Y-63148709D01*
X163363681Y-63169351D01*
X163356516Y-63176515D01*
X163300265Y-63260699D01*
X163300264Y-63260703D01*
X163285500Y-63334928D01*
X163285500Y-65725063D01*
X163300266Y-65799301D01*
X163356515Y-65883484D01*
X163363678Y-65890646D01*
X163397165Y-65951968D01*
X163400000Y-65978330D01*
X163400000Y-68200000D01*
X163598000Y-69289000D01*
X163600000Y-69311182D01*
X163600000Y-72328237D01*
X163599290Y-72341492D01*
X163595500Y-72376744D01*
X163595500Y-73423251D01*
X163595501Y-73423257D01*
X163599290Y-73458502D01*
X163600000Y-73471755D01*
X163600000Y-74348237D01*
X163599290Y-74361492D01*
X163595500Y-74396744D01*
X163595500Y-75443251D01*
X163595501Y-75443257D01*
X163599290Y-75478502D01*
X163600000Y-75491755D01*
X163600000Y-76368237D01*
X163599290Y-76381492D01*
X163595500Y-76416744D01*
X163595500Y-77463251D01*
X163595501Y-77463257D01*
X163599290Y-77498502D01*
X163600000Y-77511755D01*
X163600000Y-78100000D01*
X168599999Y-83699999D01*
X168599999Y-83700000D01*
X168600000Y-83700000D01*
X172496206Y-83700000D01*
X172563245Y-83719685D01*
X172574078Y-83727501D01*
X173063874Y-84122776D01*
X173103682Y-84180196D01*
X173110000Y-84219272D01*
X173110000Y-85690001D01*
X176409188Y-88587856D01*
X178657831Y-90562961D01*
X178695209Y-90621990D01*
X178700000Y-90656124D01*
X178700000Y-94600004D01*
X178728123Y-95449853D01*
X178728182Y-95455472D01*
X178717891Y-96295846D01*
X178697387Y-96362640D01*
X178697003Y-96363218D01*
X178660265Y-96418200D01*
X178660264Y-96418203D01*
X178645500Y-96492428D01*
X178645500Y-96492431D01*
X178645500Y-96492433D01*
X178645500Y-97154500D01*
X178645501Y-97778672D01*
X178642950Y-97787357D01*
X178644239Y-97796319D01*
X178633260Y-97820359D01*
X178625816Y-97845711D01*
X178618975Y-97851638D01*
X178615214Y-97859875D01*
X178592981Y-97874162D01*
X178573013Y-97891466D01*
X178562497Y-97893753D01*
X178556436Y-97897649D01*
X178521501Y-97902672D01*
X178278500Y-97902672D01*
X178211461Y-97882987D01*
X178165706Y-97830183D01*
X178154500Y-97778672D01*
X178154499Y-96492436D01*
X178154499Y-96492434D01*
X178139734Y-96418199D01*
X178139733Y-96418197D01*
X178139732Y-96418195D01*
X178109115Y-96372374D01*
X178088237Y-96305697D01*
X178088217Y-96303483D01*
X178088217Y-95452673D01*
X178088217Y-95452672D01*
X177478217Y-94702672D01*
X174568217Y-94702672D01*
X173908217Y-95599999D01*
X173905116Y-96313999D01*
X173885140Y-96380952D01*
X173884219Y-96382350D01*
X173860266Y-96418197D01*
X173860264Y-96418201D01*
X173845500Y-96492428D01*
X173845500Y-96492431D01*
X173845500Y-96492433D01*
X173845500Y-97154500D01*
X173845501Y-97778672D01*
X173842950Y-97787357D01*
X173844239Y-97796319D01*
X173833260Y-97820359D01*
X173825816Y-97845711D01*
X173818975Y-97851638D01*
X173815214Y-97859875D01*
X173792981Y-97874162D01*
X173773013Y-97891466D01*
X173762497Y-97893753D01*
X173756436Y-97897649D01*
X173721501Y-97902672D01*
X173478500Y-97902672D01*
X173411461Y-97882987D01*
X173365706Y-97830183D01*
X173354500Y-97778672D01*
X173354499Y-96492436D01*
X173354499Y-96492434D01*
X173339734Y-96418199D01*
X173325950Y-96397571D01*
X173305073Y-96330895D01*
X173305054Y-96328216D01*
X173308217Y-95600000D01*
X169800000Y-92700000D01*
X169799999Y-92700000D01*
X167799999Y-92700000D01*
X167414229Y-93085771D01*
X167382002Y-93108999D01*
X167026182Y-93286909D01*
X166970728Y-93300000D01*
X166229272Y-93300000D01*
X166173818Y-93286909D01*
X165817998Y-93108999D01*
X165785771Y-93085771D01*
X165201766Y-92501766D01*
X165198331Y-92498192D01*
X162800000Y-89900000D01*
X162799999Y-89900000D01*
X154799999Y-89900000D01*
X154200000Y-90499999D01*
X154200000Y-91470728D01*
X154186909Y-91526182D01*
X154008999Y-91882002D01*
X153985771Y-91914229D01*
X153636319Y-92263681D01*
X153574996Y-92297166D01*
X153548638Y-92300000D01*
X150800000Y-92300000D01*
X148251362Y-92300000D01*
X148184323Y-92280315D01*
X148163681Y-92263681D01*
X147236819Y-91336819D01*
X147203334Y-91275496D01*
X147200500Y-91249138D01*
X147200500Y-76363074D01*
X148995500Y-76363074D01*
X148995500Y-76536925D01*
X149022697Y-76708639D01*
X149022697Y-76708642D01*
X149076418Y-76873978D01*
X149076420Y-76873981D01*
X149155347Y-77028884D01*
X149257535Y-77169533D01*
X149380467Y-77292465D01*
X149521116Y-77394653D01*
X149655747Y-77463251D01*
X149676021Y-77473581D01*
X149841358Y-77527302D01*
X149841359Y-77527302D01*
X149841362Y-77527303D01*
X150013074Y-77554500D01*
X150013075Y-77554500D01*
X150186925Y-77554500D01*
X150186926Y-77554500D01*
X150358638Y-77527303D01*
X150358641Y-77527302D01*
X150358642Y-77527302D01*
X150523978Y-77473581D01*
X150523978Y-77473580D01*
X150523981Y-77473580D01*
X150678884Y-77394653D01*
X150819533Y-77292465D01*
X150942465Y-77169533D01*
X151044653Y-77028884D01*
X151123580Y-76873981D01*
X151177303Y-76708638D01*
X151204500Y-76536926D01*
X151204500Y-76363074D01*
X151535500Y-76363074D01*
X151535500Y-76536925D01*
X151562697Y-76708639D01*
X151562697Y-76708642D01*
X151616418Y-76873978D01*
X151616420Y-76873981D01*
X151695347Y-77028884D01*
X151797535Y-77169533D01*
X151920467Y-77292465D01*
X152061116Y-77394653D01*
X152195747Y-77463251D01*
X152216021Y-77473581D01*
X152381358Y-77527302D01*
X152381359Y-77527302D01*
X152381362Y-77527303D01*
X152553074Y-77554500D01*
X152553075Y-77554500D01*
X152726925Y-77554500D01*
X152726926Y-77554500D01*
X152898638Y-77527303D01*
X152898641Y-77527302D01*
X152898642Y-77527302D01*
X153063978Y-77473581D01*
X153063978Y-77473580D01*
X153063981Y-77473580D01*
X153218884Y-77394653D01*
X153359533Y-77292465D01*
X153482465Y-77169533D01*
X153584653Y-77028884D01*
X153663580Y-76873981D01*
X153717303Y-76708638D01*
X153744500Y-76536926D01*
X153744500Y-76363074D01*
X153717303Y-76191362D01*
X153717302Y-76191358D01*
X153717302Y-76191357D01*
X153663581Y-76026021D01*
X153599115Y-75899500D01*
X153584653Y-75871116D01*
X153482465Y-75730467D01*
X153359533Y-75607535D01*
X153218884Y-75505347D01*
X153166198Y-75478502D01*
X153063978Y-75426418D01*
X152898641Y-75372697D01*
X152769854Y-75352299D01*
X152726926Y-75345500D01*
X152553074Y-75345500D01*
X152495836Y-75354565D01*
X152381360Y-75372697D01*
X152381357Y-75372697D01*
X152216021Y-75426418D01*
X152061115Y-75505347D01*
X151980869Y-75563649D01*
X151920467Y-75607535D01*
X151920465Y-75607537D01*
X151920464Y-75607537D01*
X151797537Y-75730464D01*
X151797537Y-75730465D01*
X151797535Y-75730467D01*
X151779417Y-75755404D01*
X151695347Y-75871115D01*
X151616418Y-76026021D01*
X151562697Y-76191357D01*
X151562697Y-76191360D01*
X151535500Y-76363074D01*
X151204500Y-76363074D01*
X151177303Y-76191362D01*
X151177302Y-76191358D01*
X151177302Y-76191357D01*
X151123581Y-76026021D01*
X151059115Y-75899500D01*
X151044653Y-75871116D01*
X150942465Y-75730467D01*
X150819533Y-75607535D01*
X150678884Y-75505347D01*
X150626198Y-75478502D01*
X150523978Y-75426418D01*
X150358641Y-75372697D01*
X150229854Y-75352299D01*
X150186926Y-75345500D01*
X150013074Y-75345500D01*
X149955836Y-75354565D01*
X149841360Y-75372697D01*
X149841357Y-75372697D01*
X149676021Y-75426418D01*
X149521115Y-75505347D01*
X149440869Y-75563649D01*
X149380467Y-75607535D01*
X149380465Y-75607537D01*
X149380464Y-75607537D01*
X149257537Y-75730464D01*
X149257537Y-75730465D01*
X149257535Y-75730467D01*
X149239417Y-75755404D01*
X149155347Y-75871115D01*
X149076418Y-76026021D01*
X149022697Y-76191357D01*
X149022697Y-76191360D01*
X148995500Y-76363074D01*
X147200500Y-76363074D01*
X147200500Y-73823074D01*
X148995500Y-73823074D01*
X148995500Y-73996925D01*
X149022697Y-74168639D01*
X149022697Y-74168642D01*
X149076418Y-74333978D01*
X149108399Y-74396744D01*
X149155347Y-74488884D01*
X149257535Y-74629533D01*
X149380467Y-74752465D01*
X149521116Y-74854653D01*
X149676019Y-74933580D01*
X149676021Y-74933581D01*
X149841358Y-74987302D01*
X149841359Y-74987302D01*
X149841362Y-74987303D01*
X150013074Y-75014500D01*
X150013075Y-75014500D01*
X150186925Y-75014500D01*
X150186926Y-75014500D01*
X150358638Y-74987303D01*
X150358641Y-74987302D01*
X150358642Y-74987302D01*
X150523978Y-74933581D01*
X150523978Y-74933580D01*
X150523981Y-74933580D01*
X150678884Y-74854653D01*
X150819533Y-74752465D01*
X150942465Y-74629533D01*
X151044653Y-74488884D01*
X151123580Y-74333981D01*
X151177303Y-74168638D01*
X151204500Y-73996926D01*
X151204500Y-73823074D01*
X151535500Y-73823074D01*
X151535500Y-73996925D01*
X151562697Y-74168639D01*
X151562697Y-74168642D01*
X151616418Y-74333978D01*
X151648399Y-74396744D01*
X151695347Y-74488884D01*
X151797535Y-74629533D01*
X151920467Y-74752465D01*
X152061116Y-74854653D01*
X152216019Y-74933580D01*
X152216021Y-74933581D01*
X152381358Y-74987302D01*
X152381359Y-74987302D01*
X152381362Y-74987303D01*
X152553074Y-75014500D01*
X152553075Y-75014500D01*
X152726925Y-75014500D01*
X152726926Y-75014500D01*
X152898638Y-74987303D01*
X152898641Y-74987302D01*
X152898642Y-74987302D01*
X153063978Y-74933581D01*
X153063978Y-74933580D01*
X153063981Y-74933580D01*
X153218884Y-74854653D01*
X153359533Y-74752465D01*
X153482465Y-74629533D01*
X153584653Y-74488884D01*
X153663580Y-74333981D01*
X153717303Y-74168638D01*
X153744500Y-73996926D01*
X153744500Y-73823074D01*
X153717303Y-73651362D01*
X153717302Y-73651358D01*
X153717302Y-73651357D01*
X153663581Y-73486021D01*
X153631600Y-73423255D01*
X153584653Y-73331116D01*
X153482465Y-73190467D01*
X153359533Y-73067535D01*
X153218884Y-72965347D01*
X153129073Y-72919586D01*
X153063978Y-72886418D01*
X152898641Y-72832697D01*
X152769854Y-72812299D01*
X152726926Y-72805500D01*
X152553074Y-72805500D01*
X152495836Y-72814565D01*
X152381360Y-72832697D01*
X152381357Y-72832697D01*
X152216021Y-72886418D01*
X152061115Y-72965347D01*
X152034754Y-72984500D01*
X151920467Y-73067535D01*
X151920465Y-73067537D01*
X151920464Y-73067537D01*
X151797537Y-73190464D01*
X151797537Y-73190465D01*
X151797535Y-73190467D01*
X151753649Y-73250869D01*
X151695347Y-73331115D01*
X151616418Y-73486021D01*
X151562697Y-73651357D01*
X151562697Y-73651360D01*
X151535500Y-73823074D01*
X151204500Y-73823074D01*
X151177303Y-73651362D01*
X151177302Y-73651358D01*
X151177302Y-73651357D01*
X151123581Y-73486021D01*
X151091600Y-73423255D01*
X151044653Y-73331116D01*
X150942465Y-73190467D01*
X150819533Y-73067535D01*
X150678884Y-72965347D01*
X150589073Y-72919586D01*
X150523978Y-72886418D01*
X150358641Y-72832697D01*
X150229854Y-72812299D01*
X150186926Y-72805500D01*
X150013074Y-72805500D01*
X149955836Y-72814565D01*
X149841360Y-72832697D01*
X149841357Y-72832697D01*
X149676021Y-72886418D01*
X149521115Y-72965347D01*
X149494754Y-72984500D01*
X149380467Y-73067535D01*
X149380465Y-73067537D01*
X149380464Y-73067537D01*
X149257537Y-73190464D01*
X149257537Y-73190465D01*
X149257535Y-73190467D01*
X149213649Y-73250869D01*
X149155347Y-73331115D01*
X149076418Y-73486021D01*
X149022697Y-73651357D01*
X149022697Y-73651360D01*
X148995500Y-73823074D01*
X147200500Y-73823074D01*
X147200500Y-71283074D01*
X148995500Y-71283074D01*
X148995500Y-71456925D01*
X149022697Y-71628639D01*
X149022697Y-71628642D01*
X149076418Y-71793978D01*
X149140885Y-71920500D01*
X149155347Y-71948884D01*
X149257535Y-72089533D01*
X149380467Y-72212465D01*
X149521116Y-72314653D01*
X149676019Y-72393580D01*
X149676021Y-72393581D01*
X149841358Y-72447302D01*
X149841359Y-72447302D01*
X149841362Y-72447303D01*
X150013074Y-72474500D01*
X150013075Y-72474500D01*
X150186925Y-72474500D01*
X150186926Y-72474500D01*
X150358638Y-72447303D01*
X150358641Y-72447302D01*
X150358642Y-72447302D01*
X150523978Y-72393581D01*
X150523978Y-72393580D01*
X150523981Y-72393580D01*
X150678884Y-72314653D01*
X150819533Y-72212465D01*
X150942465Y-72089533D01*
X151044653Y-71948884D01*
X151123580Y-71793981D01*
X151139473Y-71745066D01*
X151177302Y-71628642D01*
X151177302Y-71628641D01*
X151177303Y-71628638D01*
X151204500Y-71456926D01*
X151204500Y-71283074D01*
X151535500Y-71283074D01*
X151535500Y-71456925D01*
X151562697Y-71628639D01*
X151562697Y-71628642D01*
X151616418Y-71793978D01*
X151680885Y-71920500D01*
X151695347Y-71948884D01*
X151797535Y-72089533D01*
X151920467Y-72212465D01*
X152061116Y-72314653D01*
X152216019Y-72393580D01*
X152216021Y-72393581D01*
X152381358Y-72447302D01*
X152381359Y-72447302D01*
X152381362Y-72447303D01*
X152553074Y-72474500D01*
X152553075Y-72474500D01*
X152726925Y-72474500D01*
X152726926Y-72474500D01*
X152898638Y-72447303D01*
X152898641Y-72447302D01*
X152898642Y-72447302D01*
X153063978Y-72393581D01*
X153063978Y-72393580D01*
X153063981Y-72393580D01*
X153218884Y-72314653D01*
X153359533Y-72212465D01*
X153482465Y-72089533D01*
X153584653Y-71948884D01*
X153663580Y-71793981D01*
X153679473Y-71745066D01*
X153717302Y-71628642D01*
X153717302Y-71628641D01*
X153717303Y-71628638D01*
X153744500Y-71456926D01*
X153744500Y-71283074D01*
X153717303Y-71111362D01*
X153717302Y-71111358D01*
X153717302Y-71111357D01*
X153663581Y-70946021D01*
X153663580Y-70946019D01*
X153584653Y-70791116D01*
X153482465Y-70650467D01*
X153359533Y-70527535D01*
X153218884Y-70425347D01*
X153063978Y-70346418D01*
X152898641Y-70292697D01*
X152769854Y-70272299D01*
X152726926Y-70265500D01*
X152553074Y-70265500D01*
X152495836Y-70274565D01*
X152381360Y-70292697D01*
X152381357Y-70292697D01*
X152216021Y-70346418D01*
X152061115Y-70425347D01*
X151980869Y-70483649D01*
X151920467Y-70527535D01*
X151920465Y-70527537D01*
X151920464Y-70527537D01*
X151797537Y-70650464D01*
X151797537Y-70650465D01*
X151797535Y-70650467D01*
X151753649Y-70710869D01*
X151695347Y-70791115D01*
X151616418Y-70946021D01*
X151562697Y-71111357D01*
X151562697Y-71111360D01*
X151535500Y-71283074D01*
X151204500Y-71283074D01*
X151177303Y-71111362D01*
X151177302Y-71111358D01*
X151177302Y-71111357D01*
X151123581Y-70946021D01*
X151123580Y-70946019D01*
X151044653Y-70791116D01*
X150942465Y-70650467D01*
X150819533Y-70527535D01*
X150678884Y-70425347D01*
X150523978Y-70346418D01*
X150358641Y-70292697D01*
X150229854Y-70272299D01*
X150186926Y-70265500D01*
X150013074Y-70265500D01*
X149955836Y-70274565D01*
X149841360Y-70292697D01*
X149841357Y-70292697D01*
X149676021Y-70346418D01*
X149521115Y-70425347D01*
X149440869Y-70483649D01*
X149380467Y-70527535D01*
X149380465Y-70527537D01*
X149380464Y-70527537D01*
X149257537Y-70650464D01*
X149257537Y-70650465D01*
X149257535Y-70650467D01*
X149213649Y-70710869D01*
X149155347Y-70791115D01*
X149076418Y-70946021D01*
X149022697Y-71111357D01*
X149022697Y-71111360D01*
X148995500Y-71283074D01*
X147200500Y-71283074D01*
X147200500Y-68743074D01*
X148995500Y-68743074D01*
X148995500Y-68916925D01*
X149022697Y-69088639D01*
X149022697Y-69088642D01*
X149076418Y-69253978D01*
X149076420Y-69253981D01*
X149155347Y-69408884D01*
X149257535Y-69549533D01*
X149380467Y-69672465D01*
X149521116Y-69774653D01*
X149676019Y-69853580D01*
X149676021Y-69853581D01*
X149841358Y-69907302D01*
X149841359Y-69907302D01*
X149841362Y-69907303D01*
X150013074Y-69934500D01*
X150013075Y-69934500D01*
X150186925Y-69934500D01*
X150186926Y-69934500D01*
X150358638Y-69907303D01*
X150358641Y-69907302D01*
X150358642Y-69907302D01*
X150523978Y-69853581D01*
X150523978Y-69853580D01*
X150523981Y-69853580D01*
X150678884Y-69774653D01*
X150819533Y-69672465D01*
X150942465Y-69549533D01*
X151044653Y-69408884D01*
X151123580Y-69253981D01*
X151123581Y-69253978D01*
X151177302Y-69088642D01*
X151177302Y-69088641D01*
X151177303Y-69088638D01*
X151204500Y-68916926D01*
X151204500Y-68743074D01*
X151535500Y-68743074D01*
X151535500Y-68916925D01*
X151562697Y-69088639D01*
X151562697Y-69088642D01*
X151616418Y-69253978D01*
X151616420Y-69253981D01*
X151695347Y-69408884D01*
X151797535Y-69549533D01*
X151920467Y-69672465D01*
X152061116Y-69774653D01*
X152216019Y-69853580D01*
X152216021Y-69853581D01*
X152381358Y-69907302D01*
X152381359Y-69907302D01*
X152381362Y-69907303D01*
X152553074Y-69934500D01*
X152553075Y-69934500D01*
X152726925Y-69934500D01*
X152726926Y-69934500D01*
X152898638Y-69907303D01*
X152898641Y-69907302D01*
X152898642Y-69907302D01*
X153063978Y-69853581D01*
X153063978Y-69853580D01*
X153063981Y-69853580D01*
X153218884Y-69774653D01*
X153359533Y-69672465D01*
X153482465Y-69549533D01*
X153584653Y-69408884D01*
X153663580Y-69253981D01*
X153663581Y-69253978D01*
X153717302Y-69088642D01*
X153717302Y-69088641D01*
X153717303Y-69088638D01*
X153744500Y-68916926D01*
X153744500Y-68743074D01*
X153717303Y-68571362D01*
X153717302Y-68571358D01*
X153717302Y-68571357D01*
X153663581Y-68406021D01*
X153584652Y-68251115D01*
X153482465Y-68110467D01*
X153359533Y-67987535D01*
X153218884Y-67885347D01*
X153129073Y-67839586D01*
X153063978Y-67806418D01*
X152898641Y-67752697D01*
X152769854Y-67732299D01*
X152726926Y-67725500D01*
X152553074Y-67725500D01*
X152495836Y-67734565D01*
X152381360Y-67752697D01*
X152381357Y-67752697D01*
X152216021Y-67806418D01*
X152061115Y-67885347D01*
X151980869Y-67943649D01*
X151920467Y-67987535D01*
X151920465Y-67987537D01*
X151920464Y-67987537D01*
X151797537Y-68110464D01*
X151797537Y-68110465D01*
X151797535Y-68110467D01*
X151753649Y-68170869D01*
X151695347Y-68251115D01*
X151616418Y-68406021D01*
X151562697Y-68571357D01*
X151562697Y-68571360D01*
X151535500Y-68743074D01*
X151204500Y-68743074D01*
X151177303Y-68571362D01*
X151177302Y-68571358D01*
X151177302Y-68571357D01*
X151123581Y-68406021D01*
X151044652Y-68251115D01*
X150942465Y-68110467D01*
X150819533Y-67987535D01*
X150678884Y-67885347D01*
X150589073Y-67839586D01*
X150523978Y-67806418D01*
X150358641Y-67752697D01*
X150229854Y-67732299D01*
X150186926Y-67725500D01*
X150013074Y-67725500D01*
X149955836Y-67734565D01*
X149841360Y-67752697D01*
X149841357Y-67752697D01*
X149676021Y-67806418D01*
X149521115Y-67885347D01*
X149440869Y-67943649D01*
X149380467Y-67987535D01*
X149380465Y-67987537D01*
X149380464Y-67987537D01*
X149257537Y-68110464D01*
X149257537Y-68110465D01*
X149257535Y-68110467D01*
X149213649Y-68170869D01*
X149155347Y-68251115D01*
X149076418Y-68406021D01*
X149022697Y-68571357D01*
X149022697Y-68571360D01*
X148995500Y-68743074D01*
X147200500Y-68743074D01*
X147200500Y-66203074D01*
X148995500Y-66203074D01*
X148995500Y-66376925D01*
X149022697Y-66548639D01*
X149022697Y-66548642D01*
X149076418Y-66713978D01*
X149127397Y-66814029D01*
X149155347Y-66868884D01*
X149257535Y-67009533D01*
X149380467Y-67132465D01*
X149521116Y-67234653D01*
X149676019Y-67313580D01*
X149676021Y-67313581D01*
X149841358Y-67367302D01*
X149841359Y-67367302D01*
X149841362Y-67367303D01*
X150013074Y-67394500D01*
X150013075Y-67394500D01*
X150186925Y-67394500D01*
X150186926Y-67394500D01*
X150358638Y-67367303D01*
X150358641Y-67367302D01*
X150358642Y-67367302D01*
X150523978Y-67313581D01*
X150523978Y-67313580D01*
X150523981Y-67313580D01*
X150678884Y-67234653D01*
X150819533Y-67132465D01*
X150942465Y-67009533D01*
X151044653Y-66868884D01*
X151123580Y-66713981D01*
X151177303Y-66548638D01*
X151204500Y-66376926D01*
X151204500Y-66203074D01*
X151535500Y-66203074D01*
X151535500Y-66376925D01*
X151562697Y-66548639D01*
X151562697Y-66548642D01*
X151616418Y-66713978D01*
X151667397Y-66814029D01*
X151695347Y-66868884D01*
X151797535Y-67009533D01*
X151920467Y-67132465D01*
X152061116Y-67234653D01*
X152216019Y-67313580D01*
X152216021Y-67313581D01*
X152381358Y-67367302D01*
X152381359Y-67367302D01*
X152381362Y-67367303D01*
X152553074Y-67394500D01*
X152553075Y-67394500D01*
X152726925Y-67394500D01*
X152726926Y-67394500D01*
X152898638Y-67367303D01*
X152898641Y-67367302D01*
X152898642Y-67367302D01*
X153063978Y-67313581D01*
X153063978Y-67313580D01*
X153063981Y-67313580D01*
X153218884Y-67234653D01*
X153359533Y-67132465D01*
X153482465Y-67009533D01*
X153584653Y-66868884D01*
X153663580Y-66713981D01*
X153717303Y-66548638D01*
X153744500Y-66376926D01*
X153744500Y-66203074D01*
X153717303Y-66031362D01*
X153717302Y-66031358D01*
X153717302Y-66031357D01*
X153663581Y-65866021D01*
X153591761Y-65725067D01*
X153584653Y-65711116D01*
X153482465Y-65570467D01*
X153359533Y-65447535D01*
X153218884Y-65345347D01*
X153129073Y-65299586D01*
X153063978Y-65266418D01*
X152898641Y-65212697D01*
X152769854Y-65192299D01*
X152726926Y-65185500D01*
X152553074Y-65185500D01*
X152495836Y-65194565D01*
X152381360Y-65212697D01*
X152381357Y-65212697D01*
X152216021Y-65266418D01*
X152061115Y-65345347D01*
X152035028Y-65364301D01*
X151920467Y-65447535D01*
X151920465Y-65447537D01*
X151920464Y-65447537D01*
X151797537Y-65570464D01*
X151797537Y-65570465D01*
X151797535Y-65570467D01*
X151753649Y-65630869D01*
X151695347Y-65711115D01*
X151616418Y-65866021D01*
X151562697Y-66031357D01*
X151562697Y-66031360D01*
X151535500Y-66203074D01*
X151204500Y-66203074D01*
X151177303Y-66031362D01*
X151177302Y-66031358D01*
X151177302Y-66031357D01*
X151123581Y-65866021D01*
X151051761Y-65725067D01*
X151044653Y-65711116D01*
X150942465Y-65570467D01*
X150819533Y-65447535D01*
X150678884Y-65345347D01*
X150589073Y-65299586D01*
X150523978Y-65266418D01*
X150358641Y-65212697D01*
X150229854Y-65192299D01*
X150186926Y-65185500D01*
X150013074Y-65185500D01*
X149955836Y-65194565D01*
X149841360Y-65212697D01*
X149841357Y-65212697D01*
X149676021Y-65266418D01*
X149521115Y-65345347D01*
X149495028Y-65364301D01*
X149380467Y-65447535D01*
X149380465Y-65447537D01*
X149380464Y-65447537D01*
X149257537Y-65570464D01*
X149257537Y-65570465D01*
X149257535Y-65570467D01*
X149213649Y-65630869D01*
X149155347Y-65711115D01*
X149076418Y-65866021D01*
X149022697Y-66031357D01*
X149022697Y-66031360D01*
X148995500Y-66203074D01*
X147200500Y-66203074D01*
X147200500Y-63663074D01*
X148995500Y-63663074D01*
X148995500Y-63836925D01*
X149022697Y-64008639D01*
X149022697Y-64008642D01*
X149076418Y-64173978D01*
X149155347Y-64328884D01*
X149257535Y-64469533D01*
X149380467Y-64592465D01*
X149521116Y-64694653D01*
X149676019Y-64773580D01*
X149676021Y-64773581D01*
X149841358Y-64827302D01*
X149841359Y-64827302D01*
X149841362Y-64827303D01*
X150013074Y-64854500D01*
X150013075Y-64854500D01*
X150186925Y-64854500D01*
X150186926Y-64854500D01*
X150358638Y-64827303D01*
X150358641Y-64827302D01*
X150358642Y-64827302D01*
X150523978Y-64773581D01*
X150523978Y-64773580D01*
X150523981Y-64773580D01*
X150678884Y-64694653D01*
X150819533Y-64592465D01*
X150942465Y-64469533D01*
X151044653Y-64328884D01*
X151123580Y-64173981D01*
X151143611Y-64112332D01*
X151177302Y-64008642D01*
X151177302Y-64008641D01*
X151177303Y-64008638D01*
X151204500Y-63836926D01*
X151204500Y-63663074D01*
X151535500Y-63663074D01*
X151535500Y-63836925D01*
X151562697Y-64008639D01*
X151562697Y-64008642D01*
X151616418Y-64173978D01*
X151695347Y-64328884D01*
X151797535Y-64469533D01*
X151920467Y-64592465D01*
X152061116Y-64694653D01*
X152216019Y-64773580D01*
X152216021Y-64773581D01*
X152381358Y-64827302D01*
X152381359Y-64827302D01*
X152381362Y-64827303D01*
X152553074Y-64854500D01*
X152553075Y-64854500D01*
X152726925Y-64854500D01*
X152726926Y-64854500D01*
X152898638Y-64827303D01*
X152898641Y-64827302D01*
X152898642Y-64827302D01*
X153063978Y-64773581D01*
X153063978Y-64773580D01*
X153063981Y-64773580D01*
X153218884Y-64694653D01*
X153359533Y-64592465D01*
X153482465Y-64469533D01*
X153584653Y-64328884D01*
X153663580Y-64173981D01*
X153683611Y-64112332D01*
X153717302Y-64008642D01*
X153717302Y-64008641D01*
X153717303Y-64008638D01*
X153744500Y-63836926D01*
X153744500Y-63663074D01*
X153717303Y-63491362D01*
X153717302Y-63491358D01*
X153717302Y-63491357D01*
X153663581Y-63326021D01*
X153587404Y-63176516D01*
X153584653Y-63171116D01*
X153482465Y-63030467D01*
X153359533Y-62907535D01*
X153218884Y-62805347D01*
X153129073Y-62759586D01*
X153063978Y-62726418D01*
X152898641Y-62672697D01*
X152769854Y-62652299D01*
X152726926Y-62645500D01*
X152553074Y-62645500D01*
X152495836Y-62654565D01*
X152381360Y-62672697D01*
X152381357Y-62672697D01*
X152216021Y-62726418D01*
X152061115Y-62805347D01*
X152031529Y-62826843D01*
X151920467Y-62907535D01*
X151920465Y-62907537D01*
X151920464Y-62907537D01*
X151797537Y-63030464D01*
X151797537Y-63030465D01*
X151797535Y-63030467D01*
X151760334Y-63081670D01*
X151695347Y-63171115D01*
X151616418Y-63326021D01*
X151562697Y-63491357D01*
X151562697Y-63491360D01*
X151535500Y-63663074D01*
X151204500Y-63663074D01*
X151177303Y-63491362D01*
X151177302Y-63491358D01*
X151177302Y-63491357D01*
X151123581Y-63326021D01*
X151047404Y-63176516D01*
X151044653Y-63171116D01*
X150942465Y-63030467D01*
X150819533Y-62907535D01*
X150678884Y-62805347D01*
X150589073Y-62759586D01*
X150523978Y-62726418D01*
X150358641Y-62672697D01*
X150229854Y-62652299D01*
X150186926Y-62645500D01*
X150013074Y-62645500D01*
X149955836Y-62654565D01*
X149841360Y-62672697D01*
X149841357Y-62672697D01*
X149676021Y-62726418D01*
X149521115Y-62805347D01*
X149491529Y-62826843D01*
X149380467Y-62907535D01*
X149380465Y-62907537D01*
X149380464Y-62907537D01*
X149257537Y-63030464D01*
X149257537Y-63030465D01*
X149257535Y-63030467D01*
X149220334Y-63081670D01*
X149155347Y-63171115D01*
X149076418Y-63326021D01*
X149022697Y-63491357D01*
X149022697Y-63491360D01*
X148995500Y-63663074D01*
X147200500Y-63663074D01*
X147200500Y-61123074D01*
X148995500Y-61123074D01*
X148995500Y-61296925D01*
X149022697Y-61468639D01*
X149022697Y-61468642D01*
X149076418Y-61633978D01*
X149116762Y-61713157D01*
X149155347Y-61788884D01*
X149257535Y-61929533D01*
X149380467Y-62052465D01*
X149521116Y-62154653D01*
X149676019Y-62233580D01*
X149676021Y-62233581D01*
X149841358Y-62287302D01*
X149841359Y-62287302D01*
X149841362Y-62287303D01*
X150013074Y-62314500D01*
X150013075Y-62314500D01*
X150186925Y-62314500D01*
X150186926Y-62314500D01*
X150358638Y-62287303D01*
X150358641Y-62287302D01*
X150358642Y-62287302D01*
X150523978Y-62233581D01*
X150523978Y-62233580D01*
X150523981Y-62233580D01*
X150678884Y-62154653D01*
X150819533Y-62052465D01*
X150942465Y-61929533D01*
X151044653Y-61788884D01*
X151123580Y-61633981D01*
X151123581Y-61633978D01*
X151177302Y-61468642D01*
X151177302Y-61468641D01*
X151177303Y-61468638D01*
X151204500Y-61296926D01*
X151204500Y-61123074D01*
X151535500Y-61123074D01*
X151535500Y-61296925D01*
X151562697Y-61468639D01*
X151562697Y-61468642D01*
X151616418Y-61633978D01*
X151656762Y-61713157D01*
X151695347Y-61788884D01*
X151797535Y-61929533D01*
X151920467Y-62052465D01*
X152061116Y-62154653D01*
X152216019Y-62233580D01*
X152216021Y-62233581D01*
X152381358Y-62287302D01*
X152381359Y-62287302D01*
X152381362Y-62287303D01*
X152553074Y-62314500D01*
X152553075Y-62314500D01*
X152726925Y-62314500D01*
X152726926Y-62314500D01*
X152898638Y-62287303D01*
X152898641Y-62287302D01*
X152898642Y-62287302D01*
X153063978Y-62233581D01*
X153063978Y-62233580D01*
X153063981Y-62233580D01*
X153218884Y-62154653D01*
X153359533Y-62052465D01*
X153482465Y-61929533D01*
X153584653Y-61788884D01*
X153663580Y-61633981D01*
X153663581Y-61633978D01*
X153717302Y-61468642D01*
X153717302Y-61468641D01*
X153717303Y-61468638D01*
X153744500Y-61296926D01*
X153744500Y-61123074D01*
X153717303Y-60951362D01*
X153717302Y-60951358D01*
X153717302Y-60951357D01*
X153663581Y-60786021D01*
X153584652Y-60631115D01*
X153482465Y-60490467D01*
X153359533Y-60367535D01*
X153218884Y-60265347D01*
X153063978Y-60186418D01*
X152898641Y-60132697D01*
X152769854Y-60112299D01*
X152726926Y-60105500D01*
X152553074Y-60105500D01*
X152495836Y-60114565D01*
X152381360Y-60132697D01*
X152381357Y-60132697D01*
X152216021Y-60186418D01*
X152061115Y-60265347D01*
X151980869Y-60323649D01*
X151920467Y-60367535D01*
X151920465Y-60367537D01*
X151920464Y-60367537D01*
X151797537Y-60490464D01*
X151797537Y-60490465D01*
X151797535Y-60490467D01*
X151753649Y-60550869D01*
X151695347Y-60631115D01*
X151616418Y-60786021D01*
X151562697Y-60951357D01*
X151562697Y-60951360D01*
X151535500Y-61123074D01*
X151204500Y-61123074D01*
X151177303Y-60951362D01*
X151177302Y-60951358D01*
X151177302Y-60951357D01*
X151123581Y-60786021D01*
X151044652Y-60631115D01*
X150942465Y-60490467D01*
X150819533Y-60367535D01*
X150678884Y-60265347D01*
X150523978Y-60186418D01*
X150358641Y-60132697D01*
X150229854Y-60112299D01*
X150186926Y-60105500D01*
X150013074Y-60105500D01*
X149955836Y-60114565D01*
X149841360Y-60132697D01*
X149841357Y-60132697D01*
X149676021Y-60186418D01*
X149521115Y-60265347D01*
X149440869Y-60323649D01*
X149380467Y-60367535D01*
X149380465Y-60367537D01*
X149380464Y-60367537D01*
X149257537Y-60490464D01*
X149257537Y-60490465D01*
X149257535Y-60490467D01*
X149213649Y-60550869D01*
X149155347Y-60631115D01*
X149076418Y-60786021D01*
X149022697Y-60951357D01*
X149022697Y-60951360D01*
X148995500Y-61123074D01*
X147200500Y-61123074D01*
X147200500Y-52636136D01*
X147715500Y-52636136D01*
X147715500Y-52843863D01*
X147756022Y-53047578D01*
X147756025Y-53047590D01*
X147835511Y-53239488D01*
X147835512Y-53239490D01*
X147950916Y-53412203D01*
X147950919Y-53412207D01*
X148097792Y-53559080D01*
X148097796Y-53559083D01*
X148270504Y-53674485D01*
X148270506Y-53674485D01*
X148270507Y-53674486D01*
X148276129Y-53676814D01*
X148281513Y-53679045D01*
X148321744Y-53705926D01*
X149509181Y-54893362D01*
X149523884Y-54920289D01*
X149540477Y-54946108D01*
X149541368Y-54952308D01*
X149542666Y-54954685D01*
X149545500Y-54981043D01*
X149545500Y-55104449D01*
X149525815Y-55171488D01*
X149494386Y-55204766D01*
X149380473Y-55287530D01*
X149380464Y-55287537D01*
X149257537Y-55410464D01*
X149257537Y-55410465D01*
X149257535Y-55410467D01*
X149213649Y-55470869D01*
X149155347Y-55551115D01*
X149076418Y-55706021D01*
X149022697Y-55871357D01*
X149022697Y-55871360D01*
X148995500Y-56043074D01*
X148995500Y-56216925D01*
X149022697Y-56388639D01*
X149022697Y-56388642D01*
X149076418Y-56553978D01*
X149076420Y-56553981D01*
X149155347Y-56708884D01*
X149257535Y-56849533D01*
X149380467Y-56972465D01*
X149494386Y-57055232D01*
X149537051Y-57110562D01*
X149545500Y-57155550D01*
X149545500Y-57644449D01*
X149525815Y-57711488D01*
X149494386Y-57744766D01*
X149380473Y-57827530D01*
X149380464Y-57827537D01*
X149257537Y-57950464D01*
X149257537Y-57950465D01*
X149257535Y-57950467D01*
X149213649Y-58010869D01*
X149155347Y-58091115D01*
X149076418Y-58246021D01*
X149022697Y-58411357D01*
X149022697Y-58411360D01*
X148995500Y-58583074D01*
X148995500Y-58756925D01*
X149022697Y-58928639D01*
X149022697Y-58928642D01*
X149076418Y-59093978D01*
X149155347Y-59248884D01*
X149257535Y-59389533D01*
X149380467Y-59512465D01*
X149521116Y-59614653D01*
X149676019Y-59693580D01*
X149676021Y-59693581D01*
X149841358Y-59747302D01*
X149841359Y-59747302D01*
X149841362Y-59747303D01*
X150013074Y-59774500D01*
X150013075Y-59774500D01*
X150186925Y-59774500D01*
X150186926Y-59774500D01*
X150358638Y-59747303D01*
X150358641Y-59747302D01*
X150358642Y-59747302D01*
X150523978Y-59693581D01*
X150523978Y-59693580D01*
X150523981Y-59693580D01*
X150678884Y-59614653D01*
X150819533Y-59512465D01*
X150942465Y-59389533D01*
X151044653Y-59248884D01*
X151123580Y-59093981D01*
X151177303Y-58928638D01*
X151204500Y-58756926D01*
X151204500Y-58583074D01*
X151535500Y-58583074D01*
X151535500Y-58756925D01*
X151562697Y-58928639D01*
X151562697Y-58928642D01*
X151616418Y-59093978D01*
X151695347Y-59248884D01*
X151797535Y-59389533D01*
X151920467Y-59512465D01*
X152061116Y-59614653D01*
X152216019Y-59693580D01*
X152216021Y-59693581D01*
X152381358Y-59747302D01*
X152381359Y-59747302D01*
X152381362Y-59747303D01*
X152553074Y-59774500D01*
X152553075Y-59774500D01*
X152726925Y-59774500D01*
X152726926Y-59774500D01*
X152898638Y-59747303D01*
X152898641Y-59747302D01*
X152898642Y-59747302D01*
X153063978Y-59693581D01*
X153063978Y-59693580D01*
X153063981Y-59693580D01*
X153218884Y-59614653D01*
X153359533Y-59512465D01*
X153482465Y-59389533D01*
X153584653Y-59248884D01*
X153663580Y-59093981D01*
X153717303Y-58928638D01*
X153744500Y-58756926D01*
X153744500Y-58583074D01*
X153717303Y-58411362D01*
X153717302Y-58411358D01*
X153717302Y-58411357D01*
X153663581Y-58246021D01*
X153584652Y-58091115D01*
X153482465Y-57950467D01*
X153359533Y-57827535D01*
X153218884Y-57725347D01*
X153148405Y-57689436D01*
X153063978Y-57646418D01*
X152898641Y-57592697D01*
X152769854Y-57572299D01*
X152726926Y-57565500D01*
X152553074Y-57565500D01*
X152495836Y-57574565D01*
X152381360Y-57592697D01*
X152381357Y-57592697D01*
X152216021Y-57646418D01*
X152061115Y-57725347D01*
X152034388Y-57744766D01*
X151920467Y-57827535D01*
X151920465Y-57827537D01*
X151920464Y-57827537D01*
X151797537Y-57950464D01*
X151797537Y-57950465D01*
X151797535Y-57950467D01*
X151753649Y-58010869D01*
X151695347Y-58091115D01*
X151616418Y-58246021D01*
X151562697Y-58411357D01*
X151562697Y-58411360D01*
X151535500Y-58583074D01*
X151204500Y-58583074D01*
X151177303Y-58411362D01*
X151177302Y-58411358D01*
X151177302Y-58411357D01*
X151123581Y-58246021D01*
X151044652Y-58091115D01*
X150942465Y-57950467D01*
X150819533Y-57827535D01*
X150813659Y-57823267D01*
X150705614Y-57744766D01*
X150662948Y-57689436D01*
X150654500Y-57644449D01*
X150654500Y-57155550D01*
X150674185Y-57088511D01*
X150705612Y-57055233D01*
X150819533Y-56972465D01*
X150942465Y-56849533D01*
X151044653Y-56708884D01*
X151123580Y-56553981D01*
X151177303Y-56388638D01*
X151204500Y-56216926D01*
X151204500Y-56043074D01*
X151535500Y-56043074D01*
X151535500Y-56216925D01*
X151562697Y-56388639D01*
X151562697Y-56388642D01*
X151616418Y-56553978D01*
X151616420Y-56553981D01*
X151695347Y-56708884D01*
X151797535Y-56849533D01*
X151920467Y-56972465D01*
X152061116Y-57074653D01*
X152216019Y-57153580D01*
X152216021Y-57153581D01*
X152381358Y-57207302D01*
X152381359Y-57207302D01*
X152381362Y-57207303D01*
X152553074Y-57234500D01*
X152553075Y-57234500D01*
X152726925Y-57234500D01*
X152726926Y-57234500D01*
X152898638Y-57207303D01*
X152898641Y-57207302D01*
X152898642Y-57207302D01*
X153063978Y-57153581D01*
X153063978Y-57153580D01*
X153063981Y-57153580D01*
X153218884Y-57074653D01*
X153359533Y-56972465D01*
X153482465Y-56849533D01*
X153584653Y-56708884D01*
X153663580Y-56553981D01*
X153717303Y-56388638D01*
X153744500Y-56216926D01*
X153744500Y-56043074D01*
X153717303Y-55871362D01*
X153717302Y-55871358D01*
X153717302Y-55871357D01*
X153663581Y-55706021D01*
X153584652Y-55551115D01*
X153482465Y-55410467D01*
X153359533Y-55287535D01*
X153218884Y-55185347D01*
X153148405Y-55149436D01*
X153063978Y-55106418D01*
X152898641Y-55052697D01*
X152769854Y-55032299D01*
X152726926Y-55025500D01*
X152553074Y-55025500D01*
X152495836Y-55034565D01*
X152381360Y-55052697D01*
X152381357Y-55052697D01*
X152216021Y-55106418D01*
X152061115Y-55185347D01*
X152034388Y-55204766D01*
X151920467Y-55287535D01*
X151920465Y-55287537D01*
X151920464Y-55287537D01*
X151797537Y-55410464D01*
X151797537Y-55410465D01*
X151797535Y-55410467D01*
X151753649Y-55470869D01*
X151695347Y-55551115D01*
X151616418Y-55706021D01*
X151562697Y-55871357D01*
X151562697Y-55871360D01*
X151535500Y-56043074D01*
X151204500Y-56043074D01*
X151177303Y-55871362D01*
X151177302Y-55871358D01*
X151177302Y-55871357D01*
X151123581Y-55706021D01*
X151044652Y-55551115D01*
X150942465Y-55410467D01*
X150819533Y-55287535D01*
X150813659Y-55283267D01*
X150705614Y-55204766D01*
X150662948Y-55149436D01*
X150654500Y-55104449D01*
X150654500Y-54627001D01*
X150654500Y-54626999D01*
X150616712Y-54485971D01*
X150543711Y-54359529D01*
X150440471Y-54256289D01*
X150440470Y-54256288D01*
X150436140Y-54251958D01*
X150436129Y-54251948D01*
X149663965Y-53479784D01*
X149630480Y-53418461D01*
X149635464Y-53348769D01*
X149648538Y-53323221D01*
X149704486Y-53239493D01*
X149783976Y-53047586D01*
X149824500Y-52843859D01*
X149824500Y-52636141D01*
X149809812Y-52562301D01*
X149816038Y-52492714D01*
X149843746Y-52450433D01*
X150313362Y-51980818D01*
X150374685Y-51947333D01*
X150401043Y-51944499D01*
X150995064Y-51944499D01*
X150995066Y-51944499D01*
X151069301Y-51929734D01*
X151153484Y-51873484D01*
X151209734Y-51789301D01*
X151224500Y-51715067D01*
X151224499Y-50464934D01*
X151209734Y-50390699D01*
X151183618Y-50351614D01*
X151153484Y-50306515D01*
X151103019Y-50272796D01*
X151069301Y-50250266D01*
X151069299Y-50250265D01*
X151069296Y-50250264D01*
X150995071Y-50235500D01*
X150995067Y-50235500D01*
X149919500Y-50235500D01*
X149852461Y-50215815D01*
X149806706Y-50163011D01*
X149795500Y-50111500D01*
X149795500Y-50068542D01*
X149767620Y-49928385D01*
X149767619Y-49928384D01*
X149767619Y-49928380D01*
X149712929Y-49796347D01*
X149712928Y-49796346D01*
X149712925Y-49796340D01*
X149633532Y-49677521D01*
X149633529Y-49677517D01*
X149532482Y-49576470D01*
X149532478Y-49576467D01*
X149413659Y-49497074D01*
X149413650Y-49497069D01*
X149281620Y-49442381D01*
X149281614Y-49442379D01*
X149141457Y-49414500D01*
X149141455Y-49414500D01*
X148998545Y-49414500D01*
X148998543Y-49414500D01*
X148858385Y-49442379D01*
X148858379Y-49442381D01*
X148726349Y-49497069D01*
X148726340Y-49497074D01*
X148607521Y-49576467D01*
X148607517Y-49576470D01*
X148506470Y-49677517D01*
X148506467Y-49677521D01*
X148427074Y-49796340D01*
X148427069Y-49796349D01*
X148372381Y-49928379D01*
X148372379Y-49928385D01*
X148344500Y-50068542D01*
X148344500Y-50068545D01*
X148344500Y-50211455D01*
X148344500Y-50211457D01*
X148344499Y-50211457D01*
X148372379Y-50351614D01*
X148372381Y-50351620D01*
X148427069Y-50483650D01*
X148427074Y-50483659D01*
X148506467Y-50602478D01*
X148506470Y-50602482D01*
X148607517Y-50703529D01*
X148607521Y-50703532D01*
X148726340Y-50782925D01*
X148726346Y-50782928D01*
X148726347Y-50782929D01*
X148858380Y-50837619D01*
X148858384Y-50837619D01*
X148858385Y-50837620D01*
X148998542Y-50865500D01*
X148998545Y-50865500D01*
X149141457Y-50865500D01*
X149235751Y-50846742D01*
X149281620Y-50837619D01*
X149344050Y-50811759D01*
X149376678Y-50808251D01*
X149409147Y-50803583D01*
X149411234Y-50804536D01*
X149413516Y-50804291D01*
X149442859Y-50818978D01*
X149472703Y-50832608D01*
X149473943Y-50834538D01*
X149475995Y-50835565D01*
X149492737Y-50863782D01*
X149510477Y-50891386D01*
X149510912Y-50894414D01*
X149511648Y-50895654D01*
X149515500Y-50926321D01*
X149515500Y-51158956D01*
X149495815Y-51225995D01*
X149479181Y-51246637D01*
X149059567Y-51666250D01*
X148998244Y-51699735D01*
X148947695Y-51700186D01*
X148873863Y-51685500D01*
X148873859Y-51685500D01*
X148666141Y-51685500D01*
X148666138Y-51685500D01*
X148462421Y-51726022D01*
X148462409Y-51726025D01*
X148270511Y-51805511D01*
X148270509Y-51805512D01*
X148097796Y-51920916D01*
X148097792Y-51920919D01*
X147950919Y-52067792D01*
X147950916Y-52067796D01*
X147835512Y-52240509D01*
X147835511Y-52240511D01*
X147756025Y-52432409D01*
X147756022Y-52432421D01*
X147715500Y-52636136D01*
X147200500Y-52636136D01*
X147200500Y-41534053D01*
X147220185Y-41467014D01*
X147233837Y-41449459D01*
X148129852Y-40489444D01*
X148189982Y-40453868D01*
X148259804Y-40456448D01*
X148317147Y-40496367D01*
X148343806Y-40560951D01*
X148344500Y-40574054D01*
X148344500Y-40611455D01*
X148344500Y-40611457D01*
X148344499Y-40611457D01*
X148372379Y-40751614D01*
X148372381Y-40751620D01*
X148427069Y-40883650D01*
X148427074Y-40883659D01*
X148506467Y-41002478D01*
X148506470Y-41002482D01*
X148607517Y-41103529D01*
X148607521Y-41103532D01*
X148726340Y-41182925D01*
X148726346Y-41182928D01*
X148726347Y-41182929D01*
X148858380Y-41237619D01*
X148858384Y-41237619D01*
X148858385Y-41237620D01*
X148998542Y-41265500D01*
X148998545Y-41265500D01*
X149141457Y-41265500D01*
X149235751Y-41246742D01*
X149281620Y-41237619D01*
X149344050Y-41211759D01*
X149376678Y-41208251D01*
X149409147Y-41203583D01*
X149411234Y-41204536D01*
X149413516Y-41204291D01*
X149442859Y-41218978D01*
X149472703Y-41232608D01*
X149473943Y-41234538D01*
X149475995Y-41235565D01*
X149492737Y-41263782D01*
X149510477Y-41291386D01*
X149510912Y-41294414D01*
X149511648Y-41295654D01*
X149515500Y-41326321D01*
X149515500Y-41508956D01*
X149495815Y-41575995D01*
X149479181Y-41596637D01*
X149017862Y-42057955D01*
X148956539Y-42091440D01*
X148905988Y-42091891D01*
X148873860Y-42085500D01*
X148873859Y-42085500D01*
X148666141Y-42085500D01*
X148666138Y-42085500D01*
X148462421Y-42126022D01*
X148462409Y-42126025D01*
X148270511Y-42205511D01*
X148270509Y-42205512D01*
X148097796Y-42320916D01*
X148097792Y-42320919D01*
X147950919Y-42467792D01*
X147950916Y-42467796D01*
X147835512Y-42640509D01*
X147835511Y-42640511D01*
X147756025Y-42832409D01*
X147756022Y-42832421D01*
X147715500Y-43036136D01*
X147715500Y-43243863D01*
X147756022Y-43447578D01*
X147756025Y-43447590D01*
X147835511Y-43639488D01*
X147835512Y-43639490D01*
X147950916Y-43812203D01*
X147950919Y-43812207D01*
X148097792Y-43959080D01*
X148097796Y-43959083D01*
X148160391Y-44000908D01*
X148165481Y-44006999D01*
X148172703Y-44010297D01*
X148187566Y-44033424D01*
X148205196Y-44054520D01*
X148207147Y-44063894D01*
X148210477Y-44069075D01*
X148215500Y-44104010D01*
X148215500Y-44275989D01*
X148195815Y-44343028D01*
X148160392Y-44379090D01*
X148097798Y-44420914D01*
X148097790Y-44420921D01*
X147950919Y-44567792D01*
X147950916Y-44567796D01*
X147835512Y-44740509D01*
X147835511Y-44740511D01*
X147756025Y-44932409D01*
X147756022Y-44932421D01*
X147715500Y-45136136D01*
X147715500Y-45343863D01*
X147756022Y-45547578D01*
X147756025Y-45547590D01*
X147835511Y-45739488D01*
X147835512Y-45739490D01*
X147950916Y-45912203D01*
X147950919Y-45912207D01*
X148097792Y-46059080D01*
X148097796Y-46059083D01*
X148270507Y-46174486D01*
X148270508Y-46174486D01*
X148270509Y-46174487D01*
X148270511Y-46174488D01*
X148462409Y-46253974D01*
X148462414Y-46253976D01*
X148666136Y-46294499D01*
X148666139Y-46294500D01*
X148666141Y-46294500D01*
X148873861Y-46294500D01*
X148873862Y-46294499D01*
X149077586Y-46253976D01*
X149269493Y-46174486D01*
X149325045Y-46137366D01*
X149391721Y-46116488D01*
X149459102Y-46134972D01*
X149505792Y-46186950D01*
X149516969Y-46255920D01*
X149515557Y-46264640D01*
X149515501Y-46264921D01*
X149515500Y-46264932D01*
X149515500Y-47053678D01*
X149495815Y-47120717D01*
X149443011Y-47166472D01*
X149373853Y-47176416D01*
X149344048Y-47168239D01*
X149281624Y-47142382D01*
X149281614Y-47142379D01*
X149141457Y-47114500D01*
X149141455Y-47114500D01*
X148998545Y-47114500D01*
X148998543Y-47114500D01*
X148858385Y-47142379D01*
X148858379Y-47142381D01*
X148726349Y-47197069D01*
X148726340Y-47197074D01*
X148607521Y-47276467D01*
X148607517Y-47276470D01*
X148506470Y-47377517D01*
X148506467Y-47377521D01*
X148427074Y-47496340D01*
X148427069Y-47496349D01*
X148372381Y-47628379D01*
X148372379Y-47628385D01*
X148344500Y-47768542D01*
X148344500Y-47768545D01*
X148344500Y-47911455D01*
X148344500Y-47911457D01*
X148344499Y-47911457D01*
X148372379Y-48051614D01*
X148372381Y-48051620D01*
X148427069Y-48183650D01*
X148427074Y-48183659D01*
X148506467Y-48302478D01*
X148506470Y-48302482D01*
X148607517Y-48403529D01*
X148607521Y-48403532D01*
X148726340Y-48482925D01*
X148726346Y-48482928D01*
X148726347Y-48482929D01*
X148858380Y-48537619D01*
X148858384Y-48537619D01*
X148858385Y-48537620D01*
X148998542Y-48565500D01*
X148998545Y-48565500D01*
X149141457Y-48565500D01*
X149242000Y-48545500D01*
X149281620Y-48537619D01*
X149413653Y-48482929D01*
X149532479Y-48403532D01*
X149633532Y-48302479D01*
X149712929Y-48183653D01*
X149767619Y-48051620D01*
X149795500Y-47911455D01*
X149795500Y-47868499D01*
X149815185Y-47801460D01*
X149867989Y-47755705D01*
X149919500Y-47744499D01*
X150995064Y-47744499D01*
X150995066Y-47744499D01*
X151069301Y-47729734D01*
X151153484Y-47673484D01*
X151209734Y-47589301D01*
X151224500Y-47515067D01*
X151224499Y-46598499D01*
X151244183Y-46531461D01*
X151296987Y-46485706D01*
X151348499Y-46474500D01*
X151372999Y-46474500D01*
X151373001Y-46474500D01*
X151514029Y-46436712D01*
X151640471Y-46363711D01*
X151743711Y-46260471D01*
X151816712Y-46134029D01*
X151854500Y-45993001D01*
X151854500Y-45846999D01*
X151816712Y-45705971D01*
X151743711Y-45579529D01*
X151640471Y-45476289D01*
X151640470Y-45476288D01*
X151640467Y-45476286D01*
X151514031Y-45403289D01*
X151514030Y-45403288D01*
X151514029Y-45403288D01*
X151373001Y-45365500D01*
X151226999Y-45365500D01*
X151085971Y-45403288D01*
X151085968Y-45403289D01*
X150959532Y-45476286D01*
X150959527Y-45476290D01*
X150856290Y-45579527D01*
X150856286Y-45579532D01*
X150783289Y-45705968D01*
X150783288Y-45705971D01*
X150745500Y-45846999D01*
X150745500Y-45911500D01*
X150725815Y-45978539D01*
X150673011Y-46024294D01*
X150621500Y-46035500D01*
X149738843Y-46035501D01*
X149738843Y-46032721D01*
X149681828Y-46021718D01*
X149631272Y-45973490D01*
X149614817Y-45905586D01*
X149635571Y-45842629D01*
X149704486Y-45739493D01*
X149783976Y-45547586D01*
X149824500Y-45343859D01*
X149824500Y-45136141D01*
X149824500Y-45136138D01*
X149824499Y-45136136D01*
X149783977Y-44932421D01*
X149783976Y-44932414D01*
X149704486Y-44740507D01*
X149589083Y-44567796D01*
X149589080Y-44567792D01*
X149442209Y-44420921D01*
X149442201Y-44420914D01*
X149379608Y-44379090D01*
X149374518Y-44372999D01*
X149367297Y-44369702D01*
X149352432Y-44346572D01*
X149334803Y-44325477D01*
X149332851Y-44316103D01*
X149329523Y-44310924D01*
X149324500Y-44275989D01*
X149324500Y-44104010D01*
X149344185Y-44036971D01*
X149379609Y-44000908D01*
X149442204Y-43959083D01*
X149589083Y-43812204D01*
X149704486Y-43639493D01*
X149783976Y-43447586D01*
X149824500Y-43243859D01*
X149824500Y-43036141D01*
X149824500Y-43036138D01*
X149801517Y-42920599D01*
X149807744Y-42851007D01*
X149835451Y-42808728D01*
X150263362Y-42380818D01*
X150324685Y-42347333D01*
X150351043Y-42344499D01*
X150995064Y-42344499D01*
X150995066Y-42344499D01*
X151069301Y-42329734D01*
X151153484Y-42273484D01*
X151209734Y-42189301D01*
X151224500Y-42115067D01*
X151224499Y-40864934D01*
X151209734Y-40790699D01*
X151183618Y-40751614D01*
X151153484Y-40706515D01*
X151103019Y-40672796D01*
X151069301Y-40650266D01*
X151069299Y-40650265D01*
X151069296Y-40650264D01*
X150995071Y-40635500D01*
X150995067Y-40635500D01*
X149919500Y-40635500D01*
X149852461Y-40615815D01*
X149806706Y-40563011D01*
X149795500Y-40511500D01*
X149795500Y-40468542D01*
X149767620Y-40328385D01*
X149767619Y-40328384D01*
X149767619Y-40328380D01*
X149712929Y-40196347D01*
X149712928Y-40196346D01*
X149712925Y-40196340D01*
X149633532Y-40077521D01*
X149633529Y-40077517D01*
X149532482Y-39976470D01*
X149532478Y-39976467D01*
X149413659Y-39897074D01*
X149413650Y-39897069D01*
X149281620Y-39842381D01*
X149281614Y-39842379D01*
X149141457Y-39814500D01*
X149141455Y-39814500D01*
X149045150Y-39814500D01*
X148978111Y-39794815D01*
X148932356Y-39742011D01*
X148922412Y-39672853D01*
X148951437Y-39609297D01*
X148954451Y-39605944D01*
X149763235Y-38739390D01*
X149823366Y-38703814D01*
X149853884Y-38700000D01*
X162179877Y-38700000D01*
X162219089Y-38706363D01*
G37*
%TD.AperFunction*%
%TD*%
%TA.AperFunction,Conductor*%
%TO.N,GND*%
G36*
X168668838Y-38284185D02*
G01*
X168689480Y-38300819D01*
X169816329Y-39427668D01*
X169882332Y-39493671D01*
X169963168Y-39540341D01*
X170053329Y-39564500D01*
X170146671Y-39564500D01*
X174341799Y-39564500D01*
X174408838Y-39584185D01*
X174429480Y-39600819D01*
X178409181Y-43580520D01*
X178442666Y-43641843D01*
X178445500Y-43668201D01*
X178445500Y-49961799D01*
X178425815Y-50028838D01*
X178409181Y-50049480D01*
X171516330Y-56942330D01*
X171516328Y-56942333D01*
X171469659Y-57023167D01*
X171445500Y-57113330D01*
X171445500Y-60539936D01*
X171425815Y-60606975D01*
X171373011Y-60652730D01*
X171364835Y-60656117D01*
X171324287Y-60671241D01*
X171324280Y-60671244D01*
X171211026Y-60756025D01*
X171126244Y-60869281D01*
X171126241Y-60869288D01*
X171076800Y-61001839D01*
X171076800Y-61001841D01*
X171070500Y-61060426D01*
X171070500Y-61654553D01*
X171070501Y-61654562D01*
X171076800Y-61713159D01*
X171126239Y-61845709D01*
X171126241Y-61845713D01*
X171126242Y-61845715D01*
X171211026Y-61958974D01*
X171324285Y-62043758D01*
X171456843Y-62093200D01*
X171515443Y-62099500D01*
X172084556Y-62099499D01*
X172143157Y-62093200D01*
X172275715Y-62043758D01*
X172388974Y-61958974D01*
X172473758Y-61845715D01*
X172523200Y-61713157D01*
X172526685Y-61680734D01*
X172529499Y-61654573D01*
X172529499Y-61654562D01*
X172529500Y-61654557D01*
X172529499Y-61123074D01*
X174395500Y-61123074D01*
X174395500Y-61296925D01*
X174422697Y-61468639D01*
X174422697Y-61468642D01*
X174476418Y-61633978D01*
X174555347Y-61788884D01*
X174657535Y-61929533D01*
X174780467Y-62052465D01*
X174921116Y-62154653D01*
X175076019Y-62233580D01*
X175076021Y-62233581D01*
X175241358Y-62287302D01*
X175241359Y-62287302D01*
X175241362Y-62287303D01*
X175413074Y-62314500D01*
X175413075Y-62314500D01*
X175586925Y-62314500D01*
X175586926Y-62314500D01*
X175758638Y-62287303D01*
X175758641Y-62287302D01*
X175758642Y-62287302D01*
X175923978Y-62233581D01*
X175923978Y-62233580D01*
X175923981Y-62233580D01*
X176078884Y-62154653D01*
X176219533Y-62052465D01*
X176342465Y-61929533D01*
X176444653Y-61788884D01*
X176523580Y-61633981D01*
X176577303Y-61468638D01*
X176604500Y-61296926D01*
X176604500Y-61123074D01*
X176577303Y-60951362D01*
X176577302Y-60951358D01*
X176577302Y-60951357D01*
X176523581Y-60786021D01*
X176465098Y-60671242D01*
X176444653Y-60631116D01*
X176342465Y-60490467D01*
X176219533Y-60367535D01*
X176078884Y-60265347D01*
X175923978Y-60186418D01*
X175758641Y-60132697D01*
X175629854Y-60112299D01*
X175586926Y-60105500D01*
X175413074Y-60105500D01*
X175355836Y-60114565D01*
X175241360Y-60132697D01*
X175241357Y-60132697D01*
X175076021Y-60186418D01*
X174921115Y-60265347D01*
X174840869Y-60323649D01*
X174780467Y-60367535D01*
X174780465Y-60367537D01*
X174780464Y-60367537D01*
X174657537Y-60490464D01*
X174657537Y-60490465D01*
X174657535Y-60490467D01*
X174615167Y-60548781D01*
X174555347Y-60631115D01*
X174476418Y-60786021D01*
X174422697Y-60951357D01*
X174422697Y-60951360D01*
X174395500Y-61123074D01*
X172529499Y-61123074D01*
X172529499Y-61060444D01*
X172523200Y-61001843D01*
X172523199Y-61001839D01*
X172473760Y-60869290D01*
X172473759Y-60869288D01*
X172473758Y-60869285D01*
X172388974Y-60756026D01*
X172388973Y-60756025D01*
X172275719Y-60671244D01*
X172275715Y-60671242D01*
X172262629Y-60666361D01*
X172235165Y-60656117D01*
X172179232Y-60614245D01*
X172154816Y-60548781D01*
X172154500Y-60539936D01*
X172154500Y-58583074D01*
X174395500Y-58583074D01*
X174395500Y-58756925D01*
X174422697Y-58928639D01*
X174422697Y-58928642D01*
X174476418Y-59093978D01*
X174494500Y-59129465D01*
X174555347Y-59248884D01*
X174657535Y-59389533D01*
X174780467Y-59512465D01*
X174921116Y-59614653D01*
X175076019Y-59693580D01*
X175076021Y-59693581D01*
X175241358Y-59747302D01*
X175241359Y-59747302D01*
X175241362Y-59747303D01*
X175413074Y-59774500D01*
X175413075Y-59774500D01*
X175586925Y-59774500D01*
X175586926Y-59774500D01*
X175758638Y-59747303D01*
X175758641Y-59747302D01*
X175758642Y-59747302D01*
X175923978Y-59693581D01*
X175923978Y-59693580D01*
X175923981Y-59693580D01*
X176078884Y-59614653D01*
X176219533Y-59512465D01*
X176342465Y-59389533D01*
X176444653Y-59248884D01*
X176523580Y-59093981D01*
X176555948Y-58994363D01*
X176577302Y-58928642D01*
X176577302Y-58928641D01*
X176577303Y-58928638D01*
X176604500Y-58756926D01*
X176604500Y-58583074D01*
X176577303Y-58411362D01*
X176577302Y-58411358D01*
X176577302Y-58411357D01*
X176523581Y-58246021D01*
X176505499Y-58210534D01*
X176444653Y-58091116D01*
X176342465Y-57950467D01*
X176219533Y-57827535D01*
X176078884Y-57725347D01*
X176014110Y-57692343D01*
X175923978Y-57646418D01*
X175758641Y-57592697D01*
X175629854Y-57572299D01*
X175586926Y-57565500D01*
X175413074Y-57565500D01*
X175355836Y-57574565D01*
X175241360Y-57592697D01*
X175241357Y-57592697D01*
X175076021Y-57646418D01*
X174921115Y-57725347D01*
X174840869Y-57783649D01*
X174780467Y-57827535D01*
X174780465Y-57827537D01*
X174780464Y-57827537D01*
X174657537Y-57950464D01*
X174657537Y-57950465D01*
X174657535Y-57950467D01*
X174654457Y-57954704D01*
X174555347Y-58091115D01*
X174476418Y-58246021D01*
X174422697Y-58411357D01*
X174422697Y-58411360D01*
X174395500Y-58583074D01*
X172154500Y-58583074D01*
X172154500Y-57358201D01*
X172174185Y-57291162D01*
X172190819Y-57270520D01*
X173418265Y-56043074D01*
X174395500Y-56043074D01*
X174395500Y-56216925D01*
X174422697Y-56388639D01*
X174422697Y-56388642D01*
X174476418Y-56553978D01*
X174536855Y-56672591D01*
X174555347Y-56708884D01*
X174657535Y-56849533D01*
X174780467Y-56972465D01*
X174921116Y-57074653D01*
X174997022Y-57113329D01*
X175076021Y-57153581D01*
X175241358Y-57207302D01*
X175241359Y-57207302D01*
X175241362Y-57207303D01*
X175413074Y-57234500D01*
X175413075Y-57234500D01*
X175586925Y-57234500D01*
X175586926Y-57234500D01*
X175758638Y-57207303D01*
X175758641Y-57207302D01*
X175758642Y-57207302D01*
X175923978Y-57153581D01*
X175923978Y-57153580D01*
X175923981Y-57153580D01*
X176078884Y-57074653D01*
X176219533Y-56972465D01*
X176342465Y-56849533D01*
X176444653Y-56708884D01*
X176523580Y-56553981D01*
X176555948Y-56454363D01*
X176577302Y-56388642D01*
X176577302Y-56388641D01*
X176577303Y-56388638D01*
X176604500Y-56216926D01*
X176604500Y-56043074D01*
X176577303Y-55871362D01*
X176577302Y-55871358D01*
X176577302Y-55871357D01*
X176523581Y-55706021D01*
X176509926Y-55679221D01*
X176444653Y-55551116D01*
X176342465Y-55410467D01*
X176219533Y-55287535D01*
X176078884Y-55185347D01*
X176014110Y-55152343D01*
X175923978Y-55106418D01*
X175758641Y-55052697D01*
X175629854Y-55032299D01*
X175586926Y-55025500D01*
X175413074Y-55025500D01*
X175355836Y-55034565D01*
X175241360Y-55052697D01*
X175241357Y-55052697D01*
X175076021Y-55106418D01*
X174921115Y-55185347D01*
X174840869Y-55243649D01*
X174780467Y-55287535D01*
X174780465Y-55287537D01*
X174780464Y-55287537D01*
X174657537Y-55410464D01*
X174657537Y-55410465D01*
X174657535Y-55410467D01*
X174654457Y-55414704D01*
X174555347Y-55551115D01*
X174476418Y-55706021D01*
X174422697Y-55871357D01*
X174422697Y-55871360D01*
X174395500Y-56043074D01*
X173418265Y-56043074D01*
X178833819Y-50627520D01*
X178895142Y-50594035D01*
X178964834Y-50599019D01*
X179020767Y-50640891D01*
X179045184Y-50706355D01*
X179045500Y-50715201D01*
X179045500Y-57814140D01*
X179025815Y-57881179D01*
X178973011Y-57926934D01*
X178903853Y-57936878D01*
X178840297Y-57907853D01*
X178833819Y-57901821D01*
X178759535Y-57827537D01*
X178759533Y-57827535D01*
X178618884Y-57725347D01*
X178554110Y-57692343D01*
X178463978Y-57646418D01*
X178298641Y-57592697D01*
X178169854Y-57572299D01*
X178126926Y-57565500D01*
X177953074Y-57565500D01*
X177895836Y-57574565D01*
X177781360Y-57592697D01*
X177781357Y-57592697D01*
X177616021Y-57646418D01*
X177461115Y-57725347D01*
X177380869Y-57783649D01*
X177320467Y-57827535D01*
X177320465Y-57827537D01*
X177320464Y-57827537D01*
X177197537Y-57950464D01*
X177197537Y-57950465D01*
X177197535Y-57950467D01*
X177194457Y-57954704D01*
X177095347Y-58091115D01*
X177016418Y-58246021D01*
X176962697Y-58411357D01*
X176962697Y-58411360D01*
X176935500Y-58583074D01*
X176935500Y-58756925D01*
X176962697Y-58928639D01*
X176962697Y-58928642D01*
X177016418Y-59093978D01*
X177034500Y-59129465D01*
X177095347Y-59248884D01*
X177197535Y-59389533D01*
X177320467Y-59512465D01*
X177461116Y-59614653D01*
X177616019Y-59693580D01*
X177616021Y-59693581D01*
X177781358Y-59747302D01*
X177781359Y-59747302D01*
X177781362Y-59747303D01*
X177953074Y-59774500D01*
X177953075Y-59774500D01*
X178126925Y-59774500D01*
X178126926Y-59774500D01*
X178298638Y-59747303D01*
X178298641Y-59747302D01*
X178298642Y-59747302D01*
X178463978Y-59693581D01*
X178463978Y-59693580D01*
X178463981Y-59693580D01*
X178618884Y-59614653D01*
X178759533Y-59512465D01*
X178833819Y-59438179D01*
X178895142Y-59404694D01*
X178964834Y-59409678D01*
X179020767Y-59451550D01*
X179045184Y-59517014D01*
X179045500Y-59525860D01*
X179045500Y-60354140D01*
X179025815Y-60421179D01*
X178973011Y-60466934D01*
X178903853Y-60476878D01*
X178840297Y-60447853D01*
X178833819Y-60441821D01*
X178759535Y-60367537D01*
X178759533Y-60367535D01*
X178618884Y-60265347D01*
X178463978Y-60186418D01*
X178298641Y-60132697D01*
X178169854Y-60112299D01*
X178126926Y-60105500D01*
X177953074Y-60105500D01*
X177895836Y-60114565D01*
X177781360Y-60132697D01*
X177781357Y-60132697D01*
X177616021Y-60186418D01*
X177461115Y-60265347D01*
X177380869Y-60323649D01*
X177320467Y-60367535D01*
X177320465Y-60367537D01*
X177320464Y-60367537D01*
X177197537Y-60490464D01*
X177197537Y-60490465D01*
X177197535Y-60490467D01*
X177155167Y-60548781D01*
X177095347Y-60631115D01*
X177016418Y-60786021D01*
X176962697Y-60951357D01*
X176962697Y-60951360D01*
X176935500Y-61123074D01*
X176935500Y-61296925D01*
X176962697Y-61468639D01*
X176962697Y-61468642D01*
X177016418Y-61633978D01*
X177095347Y-61788884D01*
X177197535Y-61929533D01*
X177320467Y-62052465D01*
X177461116Y-62154653D01*
X177616019Y-62233580D01*
X177616021Y-62233581D01*
X177781358Y-62287302D01*
X177781359Y-62287302D01*
X177781362Y-62287303D01*
X177953074Y-62314500D01*
X177953075Y-62314500D01*
X178126925Y-62314500D01*
X178126926Y-62314500D01*
X178298638Y-62287303D01*
X178298641Y-62287302D01*
X178298642Y-62287302D01*
X178463978Y-62233581D01*
X178463978Y-62233580D01*
X178463981Y-62233580D01*
X178618884Y-62154653D01*
X178759533Y-62052465D01*
X178833819Y-61978179D01*
X178853255Y-61967566D01*
X178869989Y-61953066D01*
X178883320Y-61951149D01*
X178895142Y-61944694D01*
X178917228Y-61946273D01*
X178939147Y-61943122D01*
X178951398Y-61948717D01*
X178964834Y-61949678D01*
X178982560Y-61962948D01*
X179002703Y-61972147D01*
X179009985Y-61983478D01*
X179020767Y-61991550D01*
X179028504Y-62012295D01*
X179040477Y-62030925D01*
X179043628Y-62052843D01*
X179045184Y-62057014D01*
X179045500Y-62065860D01*
X179045500Y-62191798D01*
X179025815Y-62258837D01*
X179009181Y-62279479D01*
X178591874Y-62696785D01*
X178530551Y-62730270D01*
X178465875Y-62727035D01*
X178298640Y-62672697D01*
X178184163Y-62654565D01*
X178126926Y-62645500D01*
X177953074Y-62645500D01*
X177895836Y-62654565D01*
X177781360Y-62672697D01*
X177781357Y-62672697D01*
X177616021Y-62726418D01*
X177461115Y-62805347D01*
X177431532Y-62826841D01*
X177320467Y-62907535D01*
X177320465Y-62907537D01*
X177320464Y-62907537D01*
X177197537Y-63030464D01*
X177197537Y-63030465D01*
X177197535Y-63030467D01*
X177160335Y-63081668D01*
X177095347Y-63171115D01*
X177016418Y-63326021D01*
X176962697Y-63491357D01*
X176962697Y-63491360D01*
X176935500Y-63663074D01*
X176935500Y-63836925D01*
X176962697Y-64008639D01*
X176962697Y-64008642D01*
X177016418Y-64173978D01*
X177039602Y-64219479D01*
X177095347Y-64328884D01*
X177197535Y-64469533D01*
X177320467Y-64592465D01*
X177461116Y-64694653D01*
X177597284Y-64764034D01*
X177616021Y-64773581D01*
X177781358Y-64827302D01*
X177781359Y-64827302D01*
X177781362Y-64827303D01*
X177953074Y-64854500D01*
X177953075Y-64854500D01*
X178126925Y-64854500D01*
X178126926Y-64854500D01*
X178298638Y-64827303D01*
X178298641Y-64827302D01*
X178298642Y-64827302D01*
X178463978Y-64773581D01*
X178463978Y-64773580D01*
X178463981Y-64773580D01*
X178618884Y-64694653D01*
X178759533Y-64592465D01*
X178882465Y-64469533D01*
X178984653Y-64328884D01*
X179063580Y-64173981D01*
X179080155Y-64122968D01*
X179117302Y-64008642D01*
X179117302Y-64008641D01*
X179117303Y-64008638D01*
X179144500Y-63836926D01*
X179144500Y-63663074D01*
X179117303Y-63491362D01*
X179117302Y-63491358D01*
X179117302Y-63491357D01*
X179062964Y-63324122D01*
X179060969Y-63254281D01*
X179093212Y-63198125D01*
X179433819Y-62857517D01*
X179495142Y-62824033D01*
X179564834Y-62829017D01*
X179620767Y-62870889D01*
X179645184Y-62936353D01*
X179645500Y-62945199D01*
X179645500Y-64131798D01*
X179625815Y-64198837D01*
X179609181Y-64219479D01*
X178591874Y-65236785D01*
X178530551Y-65270270D01*
X178465875Y-65267035D01*
X178298640Y-65212697D01*
X178184163Y-65194565D01*
X178126926Y-65185500D01*
X177953074Y-65185500D01*
X177895836Y-65194565D01*
X177781360Y-65212697D01*
X177781357Y-65212697D01*
X177616021Y-65266418D01*
X177461115Y-65345347D01*
X177405502Y-65385753D01*
X177320467Y-65447535D01*
X177320465Y-65447537D01*
X177320464Y-65447537D01*
X177197537Y-65570464D01*
X177197537Y-65570465D01*
X177197535Y-65570467D01*
X177153649Y-65630869D01*
X177095347Y-65711115D01*
X177016418Y-65866021D01*
X176962697Y-66031357D01*
X176962697Y-66031360D01*
X176935500Y-66203074D01*
X176935500Y-66376925D01*
X176962697Y-66548639D01*
X176962697Y-66548642D01*
X177016418Y-66713978D01*
X177068825Y-66816832D01*
X177095347Y-66868884D01*
X177197535Y-67009533D01*
X177320467Y-67132465D01*
X177461116Y-67234653D01*
X177616019Y-67313580D01*
X177616021Y-67313581D01*
X177781358Y-67367302D01*
X177781359Y-67367302D01*
X177781362Y-67367303D01*
X177953074Y-67394500D01*
X177953075Y-67394500D01*
X178126925Y-67394500D01*
X178126926Y-67394500D01*
X178298638Y-67367303D01*
X178298641Y-67367302D01*
X178298642Y-67367302D01*
X178463978Y-67313581D01*
X178463978Y-67313580D01*
X178463981Y-67313580D01*
X178618884Y-67234653D01*
X178759533Y-67132465D01*
X178882465Y-67009533D01*
X178984653Y-66868884D01*
X179063580Y-66713981D01*
X179117303Y-66548638D01*
X179144500Y-66376926D01*
X179144500Y-66203074D01*
X179117303Y-66031362D01*
X179117302Y-66031358D01*
X179117302Y-66031357D01*
X179062964Y-65864122D01*
X179060969Y-65794281D01*
X179093212Y-65738125D01*
X180033820Y-64797518D01*
X180095142Y-64764034D01*
X180164834Y-64769018D01*
X180220767Y-64810890D01*
X180245184Y-64876354D01*
X180245500Y-64885200D01*
X180245500Y-70477558D01*
X180225815Y-70544597D01*
X180209181Y-70565239D01*
X179356181Y-71418239D01*
X179294858Y-71451724D01*
X179225166Y-71446740D01*
X179169233Y-71404868D01*
X179144816Y-71339404D01*
X179144500Y-71330558D01*
X179144500Y-71283074D01*
X179135190Y-71224296D01*
X179117303Y-71111362D01*
X179117302Y-71111358D01*
X179117302Y-71111357D01*
X179063581Y-70946021D01*
X179063580Y-70946019D01*
X178984653Y-70791116D01*
X178882465Y-70650467D01*
X178759533Y-70527535D01*
X178618884Y-70425347D01*
X178463978Y-70346418D01*
X178298641Y-70292697D01*
X178169854Y-70272299D01*
X178126926Y-70265500D01*
X177953074Y-70265500D01*
X177895836Y-70274565D01*
X177781360Y-70292697D01*
X177781357Y-70292697D01*
X177616021Y-70346418D01*
X177461115Y-70425347D01*
X177389254Y-70477558D01*
X177320467Y-70527535D01*
X177320465Y-70527537D01*
X177320464Y-70527537D01*
X177197537Y-70650464D01*
X177197537Y-70650465D01*
X177197535Y-70650467D01*
X177153649Y-70710869D01*
X177095347Y-70791115D01*
X177016418Y-70946021D01*
X176962697Y-71111357D01*
X176962697Y-71111360D01*
X176935500Y-71283074D01*
X176935500Y-71456925D01*
X176962697Y-71628639D01*
X176962697Y-71628642D01*
X177016418Y-71793978D01*
X177080885Y-71920500D01*
X177095347Y-71948884D01*
X177179416Y-72064595D01*
X177189602Y-72078614D01*
X177213082Y-72144421D01*
X177197257Y-72212475D01*
X177147151Y-72261170D01*
X177089284Y-72275500D01*
X176733329Y-72275500D01*
X176673221Y-72291606D01*
X176643167Y-72299659D01*
X176562333Y-72346328D01*
X176562330Y-72346330D01*
X176496327Y-72412334D01*
X176051874Y-72856785D01*
X175990551Y-72890270D01*
X175925875Y-72887035D01*
X175758640Y-72832697D01*
X175644163Y-72814565D01*
X175586926Y-72805500D01*
X175413074Y-72805500D01*
X175355836Y-72814565D01*
X175241360Y-72832697D01*
X175241357Y-72832697D01*
X175076021Y-72886418D01*
X174921115Y-72965347D01*
X174829627Y-73031818D01*
X174763820Y-73055298D01*
X174756741Y-73055500D01*
X169672808Y-73055500D01*
X169605769Y-73035815D01*
X169585127Y-73019181D01*
X169135818Y-72569872D01*
X169102333Y-72508549D01*
X169099499Y-72482191D01*
X169099499Y-72376748D01*
X169099499Y-72376746D01*
X169093040Y-72316658D01*
X169042342Y-72180733D01*
X168998707Y-72122443D01*
X168955404Y-72064595D01*
X168878126Y-72006747D01*
X168839267Y-71977658D01*
X168703342Y-71926960D01*
X168703338Y-71926959D01*
X168643271Y-71920500D01*
X168643255Y-71920500D01*
X168618500Y-71920500D01*
X168551461Y-71900815D01*
X168505706Y-71848011D01*
X168494500Y-71796500D01*
X168494500Y-70385838D01*
X168494499Y-70385837D01*
X168462800Y-70226472D01*
X168463507Y-70218563D01*
X168460733Y-70211123D01*
X168466577Y-70184262D01*
X168469027Y-70156882D01*
X168474277Y-70148870D01*
X168475587Y-70142851D01*
X168496734Y-70114602D01*
X168520523Y-70090815D01*
X168581848Y-70057333D01*
X168608201Y-70054500D01*
X172818799Y-70054500D01*
X172885838Y-70074185D01*
X172906480Y-70090819D01*
X172909181Y-70093520D01*
X172942666Y-70154843D01*
X172945500Y-70181201D01*
X172945500Y-71150063D01*
X172960266Y-71224301D01*
X173016515Y-71308484D01*
X173049552Y-71330558D01*
X173100699Y-71364734D01*
X173100702Y-71364734D01*
X173100703Y-71364735D01*
X173125666Y-71369700D01*
X173174933Y-71379500D01*
X173525066Y-71379499D01*
X173599301Y-71364734D01*
X173683484Y-71308484D01*
X173739734Y-71224301D01*
X173754500Y-71150067D01*
X173754499Y-70109934D01*
X173739734Y-70035699D01*
X173739733Y-70035697D01*
X173739732Y-70035695D01*
X173714371Y-69997741D01*
X173697697Y-69960943D01*
X173680341Y-69896168D01*
X173633671Y-69815332D01*
X173567668Y-69749329D01*
X173234668Y-69416329D01*
X173153832Y-69369659D01*
X173153833Y-69369659D01*
X173123778Y-69361606D01*
X173063671Y-69345500D01*
X173063669Y-69345500D01*
X168568499Y-69345500D01*
X168501460Y-69325815D01*
X168455705Y-69273011D01*
X168444499Y-69221500D01*
X168444499Y-69194936D01*
X168444499Y-69194934D01*
X168429734Y-69120699D01*
X168408311Y-69088638D01*
X168373484Y-69036515D01*
X168323019Y-69002796D01*
X168289301Y-68980266D01*
X168289299Y-68980265D01*
X168289296Y-68980264D01*
X168215069Y-68965500D01*
X167064936Y-68965500D01*
X166990698Y-68980266D01*
X166906515Y-69036515D01*
X166850266Y-69120699D01*
X166850264Y-69120703D01*
X166835500Y-69194928D01*
X166835500Y-70154651D01*
X166826062Y-70202102D01*
X166818338Y-70220749D01*
X166818336Y-70220753D01*
X166785500Y-70385834D01*
X166785500Y-72366665D01*
X166818336Y-72531741D01*
X166818338Y-72531749D01*
X166882750Y-72687255D01*
X166882755Y-72687263D01*
X166961759Y-72805500D01*
X166961761Y-72805503D01*
X166976263Y-72827209D01*
X167379181Y-73230127D01*
X167412666Y-73291450D01*
X167415500Y-73317807D01*
X167415500Y-73423251D01*
X167415501Y-73423258D01*
X167421960Y-73483344D01*
X167472655Y-73619261D01*
X167472656Y-73619264D01*
X167472658Y-73619267D01*
X167496680Y-73651357D01*
X167559595Y-73735404D01*
X167617443Y-73778707D01*
X167675733Y-73822342D01*
X167811658Y-73873040D01*
X167871745Y-73879500D01*
X167977191Y-73879499D01*
X168044230Y-73899183D01*
X168064872Y-73915818D01*
X168722784Y-74573731D01*
X168722788Y-74573734D01*
X168862736Y-74667245D01*
X168862742Y-74667248D01*
X168862743Y-74667249D01*
X169018252Y-74731663D01*
X169183334Y-74764500D01*
X169183337Y-74764501D01*
X169183339Y-74764501D01*
X169357775Y-74764501D01*
X169357795Y-74764500D01*
X174756741Y-74764500D01*
X174823780Y-74784185D01*
X174829627Y-74788182D01*
X174921116Y-74854653D01*
X175076019Y-74933580D01*
X175076021Y-74933581D01*
X175241358Y-74987302D01*
X175241359Y-74987302D01*
X175241362Y-74987303D01*
X175413074Y-75014500D01*
X175413075Y-75014500D01*
X175586925Y-75014500D01*
X175586926Y-75014500D01*
X175758638Y-74987303D01*
X175758641Y-74987302D01*
X175758642Y-74987302D01*
X175923978Y-74933581D01*
X175923978Y-74933580D01*
X175923981Y-74933580D01*
X176078884Y-74854653D01*
X176219533Y-74752465D01*
X176342465Y-74629533D01*
X176444653Y-74488884D01*
X176523580Y-74333981D01*
X176577303Y-74168638D01*
X176604500Y-73996926D01*
X176604500Y-73823074D01*
X176577303Y-73651362D01*
X176577302Y-73651358D01*
X176577302Y-73651357D01*
X176522964Y-73484122D01*
X176520969Y-73414281D01*
X176553212Y-73358125D01*
X176890519Y-73020819D01*
X176917446Y-73006115D01*
X176943265Y-72989523D01*
X176949465Y-72988631D01*
X176951842Y-72987334D01*
X176978200Y-72984500D01*
X177104471Y-72984500D01*
X177171510Y-73004185D01*
X177217265Y-73056989D01*
X177227209Y-73126147D01*
X177200019Y-73186250D01*
X177200399Y-73186526D01*
X177199062Y-73188365D01*
X177198761Y-73189032D01*
X177197537Y-73190464D01*
X177095347Y-73331115D01*
X177016418Y-73486021D01*
X176962697Y-73651357D01*
X176962697Y-73651360D01*
X176935500Y-73823074D01*
X176935500Y-73996925D01*
X176962697Y-74168639D01*
X176962697Y-74168642D01*
X177016418Y-74333978D01*
X177095347Y-74488884D01*
X177197535Y-74629533D01*
X177320467Y-74752465D01*
X177461116Y-74854653D01*
X177616019Y-74933580D01*
X177616021Y-74933581D01*
X177781358Y-74987302D01*
X177781359Y-74987302D01*
X177781362Y-74987303D01*
X177953074Y-75014500D01*
X177953075Y-75014500D01*
X178126925Y-75014500D01*
X178126926Y-75014500D01*
X178298638Y-74987303D01*
X178298641Y-74987302D01*
X178298642Y-74987302D01*
X178463978Y-74933581D01*
X178463978Y-74933580D01*
X178463981Y-74933580D01*
X178618884Y-74854653D01*
X178759533Y-74752465D01*
X178882465Y-74629533D01*
X178984653Y-74488884D01*
X179063580Y-74333981D01*
X179117303Y-74168638D01*
X179144500Y-73996926D01*
X179144500Y-73823074D01*
X179117303Y-73651362D01*
X179117302Y-73651358D01*
X179117302Y-73651357D01*
X179063581Y-73486021D01*
X179035425Y-73430762D01*
X178984653Y-73331116D01*
X178882465Y-73190467D01*
X178814283Y-73122285D01*
X178780798Y-73060962D01*
X178785782Y-72991270D01*
X178827654Y-72935337D01*
X178839962Y-72927218D01*
X178863428Y-72913671D01*
X180787819Y-70989280D01*
X180849142Y-70955795D01*
X180918834Y-70960779D01*
X180974767Y-71002651D01*
X180999184Y-71068115D01*
X180999500Y-71076961D01*
X180999500Y-103775500D01*
X180979815Y-103842539D01*
X180927011Y-103888294D01*
X180875500Y-103899500D01*
X147324500Y-103899500D01*
X147257461Y-103879815D01*
X147211706Y-103827011D01*
X147200500Y-103775500D01*
X147200500Y-91966850D01*
X147220185Y-91899811D01*
X147272989Y-91854056D01*
X147342147Y-91844112D01*
X147405703Y-91873137D01*
X147412181Y-91879169D01*
X147980187Y-92447175D01*
X148000855Y-92465740D01*
X148021497Y-92482374D01*
X148021503Y-92482377D01*
X148021506Y-92482379D01*
X148111207Y-92529301D01*
X148111212Y-92529304D01*
X148161340Y-92544022D01*
X148178250Y-92548988D01*
X148178254Y-92548988D01*
X148178256Y-92548989D01*
X148190069Y-92550687D01*
X148251362Y-92559500D01*
X148251363Y-92559500D01*
X153548639Y-92559500D01*
X153550098Y-92559421D01*
X153576379Y-92558013D01*
X153602737Y-92555179D01*
X153699361Y-92524924D01*
X153760684Y-92491439D01*
X153819813Y-92447175D01*
X154169265Y-92097723D01*
X154196288Y-92065962D01*
X154219516Y-92033735D01*
X154241103Y-91998054D01*
X154419013Y-91642234D01*
X154439467Y-91585803D01*
X154452558Y-91530349D01*
X154459500Y-91470728D01*
X154459500Y-90658849D01*
X154479185Y-90591810D01*
X154495819Y-90571168D01*
X154871168Y-90195819D01*
X154932491Y-90162334D01*
X154958849Y-90159500D01*
X162632091Y-90159500D01*
X162699130Y-90179185D01*
X162723207Y-90199393D01*
X162985149Y-90483163D01*
X165007650Y-92674206D01*
X165010757Y-92677505D01*
X165011263Y-92678042D01*
X165014675Y-92681592D01*
X165018284Y-92685272D01*
X165602284Y-93269272D01*
X165634038Y-93296288D01*
X165666265Y-93319516D01*
X165701946Y-93341103D01*
X166057766Y-93519013D01*
X166114197Y-93539467D01*
X166169651Y-93552558D01*
X166218601Y-93558257D01*
X166229271Y-93559500D01*
X166229272Y-93559500D01*
X166970729Y-93559500D01*
X166979778Y-93558446D01*
X167030349Y-93552558D01*
X167085803Y-93539467D01*
X167142234Y-93519013D01*
X167498054Y-93341103D01*
X167533735Y-93319516D01*
X167565962Y-93296288D01*
X167597723Y-93269265D01*
X167871168Y-92995818D01*
X167932491Y-92962334D01*
X167958849Y-92959500D01*
X169662014Y-92959500D01*
X169729053Y-92979185D01*
X169741018Y-92987926D01*
X173002935Y-95684326D01*
X173042065Y-95742211D01*
X173047930Y-95780438D01*
X173047055Y-95981828D01*
X173045791Y-96273093D01*
X173045556Y-96327092D01*
X173045561Y-96330066D01*
X173045580Y-96332734D01*
X173056127Y-96400118D01*
X173055236Y-96443482D01*
X173045500Y-96492432D01*
X173045500Y-97917565D01*
X173046098Y-97923628D01*
X173044658Y-97923769D01*
X173039065Y-97986165D01*
X172996193Y-98041336D01*
X172955777Y-98060521D01*
X172887866Y-98078718D01*
X172887865Y-98078718D01*
X172756635Y-98154485D01*
X172756632Y-98154487D01*
X172649487Y-98261632D01*
X172649485Y-98261635D01*
X172573719Y-98392863D01*
X172534500Y-98539234D01*
X172534500Y-98690765D01*
X172573719Y-98837136D01*
X172611602Y-98902750D01*
X172649485Y-98968365D01*
X172756635Y-99075515D01*
X172887865Y-99151281D01*
X173034234Y-99190500D01*
X173034236Y-99190500D01*
X173185763Y-99190500D01*
X173185766Y-99190500D01*
X173280743Y-99165051D01*
X173350590Y-99166714D01*
X173408453Y-99205876D01*
X173435957Y-99270105D01*
X173436834Y-99284826D01*
X173436834Y-100300000D01*
X178736834Y-100300000D01*
X178736834Y-99314500D01*
X178756519Y-99247461D01*
X178809323Y-99201706D01*
X178860834Y-99190500D01*
X178965764Y-99190500D01*
X178965766Y-99190500D01*
X179112135Y-99151281D01*
X179243365Y-99075515D01*
X179350515Y-98968365D01*
X179426281Y-98837135D01*
X179465500Y-98690766D01*
X179465500Y-98539234D01*
X179426281Y-98392865D01*
X179350515Y-98261635D01*
X179243365Y-98154485D01*
X179177750Y-98116602D01*
X179112136Y-98078719D01*
X179074720Y-98068694D01*
X179044224Y-98060522D01*
X178984564Y-98024158D01*
X178954035Y-97961311D01*
X178954596Y-97923698D01*
X178953903Y-97923630D01*
X178954498Y-97917575D01*
X178954500Y-97917567D01*
X178954499Y-96492434D01*
X178950573Y-96472696D01*
X178953649Y-96412119D01*
X178965966Y-96371998D01*
X178977372Y-96299024D01*
X178987663Y-95458650D01*
X178987668Y-95452747D01*
X178987609Y-95447128D01*
X178987481Y-95441270D01*
X178959568Y-94597766D01*
X178959500Y-94593665D01*
X178959500Y-90656132D01*
X178959500Y-90656124D01*
X178956981Y-90620055D01*
X178953017Y-90591810D01*
X178952196Y-90585958D01*
X178950889Y-90577633D01*
X178950888Y-90577627D01*
X178914451Y-90483163D01*
X178877073Y-90424134D01*
X178829080Y-90367989D01*
X178829077Y-90367986D01*
X173994669Y-86121663D01*
X173957291Y-86062633D01*
X173957761Y-85992764D01*
X173995930Y-85934242D01*
X174045899Y-85908334D01*
X174060958Y-85904499D01*
X174125066Y-85904499D01*
X174199301Y-85889734D01*
X174248791Y-85856664D01*
X174269399Y-85851417D01*
X174283920Y-85851943D01*
X174297786Y-85847602D01*
X174318135Y-85853184D01*
X174339222Y-85853949D01*
X174351151Y-85862241D01*
X174365166Y-85866086D01*
X174368891Y-85868480D01*
X174400699Y-85889734D01*
X174400703Y-85889735D01*
X174425666Y-85894700D01*
X174474933Y-85904500D01*
X175125066Y-85904499D01*
X175199301Y-85889734D01*
X175231109Y-85868479D01*
X175297786Y-85847602D01*
X175342371Y-85855046D01*
X175356441Y-85860162D01*
X175400699Y-85889734D01*
X175474933Y-85904500D01*
X175478387Y-85904499D01*
X175491458Y-85909252D01*
X175512278Y-85924571D01*
X175535189Y-85936555D01*
X175536768Y-85938107D01*
X176429181Y-86830520D01*
X176462666Y-86891843D01*
X176465500Y-86918201D01*
X176465500Y-86943000D01*
X176503288Y-87084028D01*
X176503289Y-87084031D01*
X176576286Y-87210467D01*
X176576288Y-87210470D01*
X176576289Y-87210471D01*
X176679529Y-87313711D01*
X176805971Y-87386712D01*
X176946999Y-87424500D01*
X176947001Y-87424500D01*
X177092999Y-87424500D01*
X177093001Y-87424500D01*
X177234029Y-87386712D01*
X177360471Y-87313711D01*
X177463711Y-87210471D01*
X177536712Y-87084029D01*
X177574500Y-86943001D01*
X177574500Y-86796999D01*
X177537943Y-86660565D01*
X177539606Y-86590719D01*
X177578768Y-86532856D01*
X177625623Y-86508701D01*
X177689029Y-86491712D01*
X177815471Y-86418711D01*
X177918711Y-86315471D01*
X177991712Y-86189029D01*
X178029500Y-86048001D01*
X178029500Y-85901999D01*
X177991712Y-85760971D01*
X177918711Y-85634529D01*
X177815471Y-85531289D01*
X177815470Y-85531288D01*
X177815467Y-85531286D01*
X177689031Y-85458289D01*
X177689030Y-85458288D01*
X177689029Y-85458288D01*
X177548001Y-85420500D01*
X177548000Y-85420500D01*
X177478499Y-85420500D01*
X177411460Y-85400815D01*
X177365705Y-85348011D01*
X177354499Y-85296500D01*
X177354499Y-84124936D01*
X177354499Y-84124934D01*
X177339734Y-84050699D01*
X177321068Y-84022765D01*
X177283484Y-83966515D01*
X177200106Y-83910804D01*
X177155301Y-83857192D01*
X177146594Y-83787867D01*
X177176749Y-83724839D01*
X177181273Y-83720065D01*
X177483671Y-83417668D01*
X177530341Y-83336832D01*
X177554500Y-83246671D01*
X177554500Y-80453329D01*
X177530341Y-80363168D01*
X177483671Y-80282332D01*
X177417668Y-80216329D01*
X177241262Y-80039923D01*
X177207777Y-79978600D01*
X177212761Y-79908908D01*
X177254633Y-79852975D01*
X177260030Y-79849155D01*
X177283484Y-79833484D01*
X177339734Y-79749301D01*
X177354500Y-79675067D01*
X177354499Y-78848199D01*
X177374183Y-78781161D01*
X177390813Y-78760524D01*
X177630519Y-78520819D01*
X177691842Y-78487334D01*
X177718200Y-78484500D01*
X177792999Y-78484500D01*
X177793001Y-78484500D01*
X177934029Y-78446712D01*
X178060471Y-78373711D01*
X178163711Y-78270471D01*
X178236712Y-78144029D01*
X178274500Y-78003001D01*
X178274500Y-77856999D01*
X178236712Y-77715971D01*
X178231336Y-77706660D01*
X178214863Y-77638762D01*
X178237715Y-77572734D01*
X178292635Y-77529543D01*
X178300405Y-77526729D01*
X178463978Y-77473581D01*
X178463978Y-77473580D01*
X178463981Y-77473580D01*
X178618884Y-77394653D01*
X178759533Y-77292465D01*
X178882465Y-77169533D01*
X178984653Y-77028884D01*
X179063580Y-76873981D01*
X179117303Y-76708638D01*
X179144500Y-76536926D01*
X179144500Y-76363074D01*
X179117303Y-76191362D01*
X179117302Y-76191358D01*
X179117302Y-76191357D01*
X179063581Y-76026021D01*
X178984652Y-75871115D01*
X178882465Y-75730467D01*
X178759533Y-75607535D01*
X178618884Y-75505347D01*
X178565024Y-75477904D01*
X178463978Y-75426418D01*
X178298641Y-75372697D01*
X178169854Y-75352299D01*
X178126926Y-75345500D01*
X177953074Y-75345500D01*
X177895836Y-75354565D01*
X177781360Y-75372697D01*
X177781357Y-75372697D01*
X177616021Y-75426418D01*
X177461115Y-75505347D01*
X177380869Y-75563649D01*
X177320467Y-75607535D01*
X177320465Y-75607537D01*
X177320464Y-75607537D01*
X177197537Y-75730464D01*
X177197537Y-75730465D01*
X177197535Y-75730467D01*
X177153649Y-75790869D01*
X177095347Y-75871115D01*
X177016418Y-76026021D01*
X176962697Y-76191357D01*
X176962697Y-76191360D01*
X176935500Y-76363074D01*
X176935500Y-76536925D01*
X176962697Y-76708639D01*
X176962697Y-76708642D01*
X177016418Y-76873978D01*
X177016420Y-76873981D01*
X177095347Y-77028884D01*
X177197535Y-77169533D01*
X177320467Y-77292465D01*
X177349479Y-77313543D01*
X177392145Y-77368872D01*
X177398124Y-77438485D01*
X177365519Y-77500280D01*
X177364276Y-77501542D01*
X177276286Y-77589532D01*
X177203289Y-77715968D01*
X177203288Y-77715969D01*
X177179810Y-77803594D01*
X177143445Y-77863254D01*
X177080598Y-77893783D01*
X177060035Y-77895500D01*
X176474936Y-77895500D01*
X176400698Y-77910266D01*
X176368891Y-77931520D01*
X176302214Y-77952398D01*
X176234834Y-77933914D01*
X176231109Y-77931520D01*
X176199300Y-77910265D01*
X176199296Y-77910264D01*
X176125071Y-77895500D01*
X176125067Y-77895500D01*
X175870441Y-77895500D01*
X175841000Y-77886855D01*
X175811014Y-77880332D01*
X175805998Y-77876577D01*
X175803402Y-77875815D01*
X175782760Y-77859181D01*
X175665044Y-77741465D01*
X175631559Y-77680142D01*
X175636543Y-77610450D01*
X175678415Y-77554517D01*
X175733326Y-77531312D01*
X175758638Y-77527303D01*
X175923981Y-77473580D01*
X176078884Y-77394653D01*
X176219533Y-77292465D01*
X176342465Y-77169533D01*
X176444653Y-77028884D01*
X176523580Y-76873981D01*
X176577303Y-76708638D01*
X176604500Y-76536926D01*
X176604500Y-76363074D01*
X176577303Y-76191362D01*
X176577302Y-76191358D01*
X176577302Y-76191357D01*
X176523581Y-76026021D01*
X176444652Y-75871115D01*
X176342465Y-75730467D01*
X176219533Y-75607535D01*
X176078884Y-75505347D01*
X176025024Y-75477904D01*
X175923978Y-75426418D01*
X175758641Y-75372697D01*
X175629854Y-75352299D01*
X175586926Y-75345500D01*
X175413074Y-75345500D01*
X175355836Y-75354565D01*
X175241360Y-75372697D01*
X175241357Y-75372697D01*
X175076021Y-75426418D01*
X174921115Y-75505347D01*
X174840869Y-75563649D01*
X174780467Y-75607535D01*
X174780465Y-75607537D01*
X174780464Y-75607537D01*
X174657537Y-75730464D01*
X174657537Y-75730465D01*
X174657535Y-75730467D01*
X174613649Y-75790869D01*
X174555347Y-75871115D01*
X174476418Y-76026021D01*
X174422697Y-76191357D01*
X174422697Y-76191360D01*
X174395500Y-76363074D01*
X174395500Y-76536925D01*
X174422697Y-76708639D01*
X174422697Y-76708642D01*
X174459914Y-76823182D01*
X174461909Y-76893023D01*
X174425829Y-76952856D01*
X174363128Y-76983684D01*
X174341983Y-76985500D01*
X174326999Y-76985500D01*
X174185971Y-77023288D01*
X174185968Y-77023289D01*
X174059532Y-77096286D01*
X174059527Y-77096290D01*
X173956290Y-77199527D01*
X173956286Y-77199532D01*
X173883289Y-77325968D01*
X173883288Y-77325971D01*
X173845500Y-77466999D01*
X173845500Y-77613000D01*
X173879370Y-77739407D01*
X173877707Y-77809257D01*
X173838544Y-77867119D01*
X173774315Y-77894623D01*
X173759595Y-77895500D01*
X173474936Y-77895500D01*
X173400698Y-77910266D01*
X173368891Y-77931520D01*
X173302214Y-77952398D01*
X173234834Y-77933914D01*
X173231109Y-77931520D01*
X173199300Y-77910265D01*
X173199296Y-77910264D01*
X173125069Y-77895500D01*
X172474936Y-77895500D01*
X172400698Y-77910266D01*
X172316515Y-77966515D01*
X172260266Y-78050699D01*
X172260264Y-78050703D01*
X172245500Y-78124928D01*
X172245500Y-78556145D01*
X172225815Y-78623184D01*
X172173011Y-78668939D01*
X172103853Y-78678883D01*
X172040297Y-78649858D01*
X172022233Y-78630455D01*
X171988974Y-78586026D01*
X171875718Y-78501244D01*
X171875717Y-78501243D01*
X171875715Y-78501242D01*
X171823035Y-78481593D01*
X171743159Y-78451800D01*
X171684565Y-78445500D01*
X171115446Y-78445500D01*
X171115437Y-78445501D01*
X171056840Y-78451800D01*
X170924290Y-78501239D01*
X170924281Y-78501244D01*
X170811026Y-78586026D01*
X170726244Y-78699281D01*
X170726241Y-78699288D01*
X170676800Y-78831839D01*
X170676800Y-78831841D01*
X170670500Y-78890426D01*
X170670500Y-79484553D01*
X170670501Y-79484562D01*
X170676800Y-79543159D01*
X170726239Y-79675709D01*
X170726241Y-79675713D01*
X170726242Y-79675715D01*
X170811026Y-79788974D01*
X170924285Y-79873758D01*
X171056843Y-79923200D01*
X171115443Y-79929500D01*
X171589298Y-79929499D01*
X171656337Y-79949183D01*
X171676979Y-79965818D01*
X171994832Y-80283671D01*
X171994834Y-80283672D01*
X171994838Y-80283675D01*
X172075662Y-80330338D01*
X172075669Y-80330342D01*
X172165829Y-80354501D01*
X172165831Y-80354501D01*
X172266768Y-80354501D01*
X172266784Y-80354500D01*
X173245669Y-80354500D01*
X173245671Y-80354500D01*
X173335832Y-80330341D01*
X173416668Y-80283671D01*
X173759519Y-79940817D01*
X173820842Y-79907333D01*
X173847200Y-79904499D01*
X174125064Y-79904499D01*
X174125066Y-79904499D01*
X174199301Y-79889734D01*
X174231109Y-79868479D01*
X174297786Y-79847602D01*
X174365166Y-79866086D01*
X174368891Y-79868480D01*
X174400699Y-79889734D01*
X174400703Y-79889735D01*
X174425666Y-79894700D01*
X174474933Y-79904500D01*
X174599797Y-79904499D01*
X174666837Y-79924183D01*
X174687479Y-79940818D01*
X174964329Y-80217668D01*
X175030332Y-80283671D01*
X175111168Y-80330341D01*
X175201329Y-80354500D01*
X176501799Y-80354500D01*
X176568838Y-80374185D01*
X176589480Y-80390819D01*
X176809181Y-80610520D01*
X176842666Y-80671843D01*
X176845500Y-80698201D01*
X176845500Y-83001799D01*
X176825815Y-83068838D01*
X176809181Y-83089480D01*
X176440480Y-83458181D01*
X176379157Y-83491666D01*
X176352799Y-83494500D01*
X173055327Y-83494500D01*
X173000310Y-83509242D01*
X173000309Y-83509241D01*
X172965170Y-83518658D01*
X172965167Y-83518659D01*
X172900873Y-83555779D01*
X172832972Y-83572250D01*
X172766946Y-83549398D01*
X172760999Y-83544887D01*
X172737063Y-83525570D01*
X172725899Y-83517047D01*
X172715085Y-83509245D01*
X172715082Y-83509243D01*
X172715080Y-83509242D01*
X172676569Y-83490386D01*
X172636358Y-83470697D01*
X172636353Y-83470695D01*
X172569319Y-83451012D01*
X172569311Y-83451010D01*
X172496207Y-83440500D01*
X172496206Y-83440500D01*
X168771706Y-83440500D01*
X168704667Y-83420815D01*
X168679210Y-83399086D01*
X168543123Y-83246669D01*
X167053811Y-81578638D01*
X163891004Y-78036293D01*
X163861038Y-77973175D01*
X163859500Y-77953707D01*
X163859500Y-77511737D01*
X163859129Y-77497904D01*
X163859128Y-77497897D01*
X163859128Y-77497873D01*
X163858418Y-77484620D01*
X163857303Y-77470762D01*
X163855710Y-77455942D01*
X163855000Y-77442691D01*
X163855000Y-76437295D01*
X163855711Y-76424036D01*
X163857304Y-76409222D01*
X163858419Y-76395369D01*
X163859129Y-76382117D01*
X163859500Y-76368237D01*
X163859500Y-75491755D01*
X163859128Y-75477873D01*
X163858418Y-75464620D01*
X163857303Y-75450762D01*
X163855710Y-75435942D01*
X163855000Y-75422691D01*
X163855000Y-74417295D01*
X163855711Y-74404036D01*
X163857304Y-74389222D01*
X163858419Y-74375369D01*
X163859129Y-74362117D01*
X163859500Y-74348237D01*
X163859500Y-73471755D01*
X163859128Y-73457873D01*
X163858418Y-73444620D01*
X163857303Y-73430762D01*
X163855710Y-73415942D01*
X163855000Y-73402691D01*
X163855000Y-72397295D01*
X163855711Y-72384036D01*
X163857304Y-72369222D01*
X163858419Y-72355369D01*
X163858903Y-72346328D01*
X163859129Y-72342117D01*
X163859500Y-72328237D01*
X163859500Y-69311182D01*
X163858452Y-69287879D01*
X163856452Y-69265697D01*
X163853314Y-69242579D01*
X163661500Y-68187602D01*
X163659500Y-68165420D01*
X163659500Y-65978329D01*
X163658012Y-65950592D01*
X163658012Y-65950583D01*
X163655177Y-65924221D01*
X163655177Y-65924220D01*
X163624919Y-65827595D01*
X163591432Y-65766273D01*
X163590957Y-65765638D01*
X163582852Y-65754812D01*
X163579013Y-65749387D01*
X163565898Y-65729759D01*
X163545020Y-65663081D01*
X163545000Y-65660868D01*
X163545000Y-63401657D01*
X163564685Y-63334618D01*
X163572439Y-63323863D01*
X163582374Y-63311535D01*
X163629303Y-63221821D01*
X163648988Y-63154782D01*
X163659500Y-63081670D01*
X163659500Y-62885426D01*
X171070500Y-62885426D01*
X171070500Y-63479553D01*
X171070501Y-63479562D01*
X171076800Y-63538159D01*
X171126239Y-63670709D01*
X171126241Y-63670713D01*
X171126242Y-63670715D01*
X171211026Y-63783974D01*
X171324285Y-63868758D01*
X171456843Y-63918200D01*
X171515443Y-63924500D01*
X171571500Y-63924499D01*
X171580185Y-63927049D01*
X171589147Y-63925761D01*
X171613182Y-63936737D01*
X171638538Y-63944182D01*
X171644467Y-63951024D01*
X171652703Y-63954786D01*
X171666990Y-63977017D01*
X171684293Y-63996986D01*
X171686580Y-64007501D01*
X171690477Y-64013564D01*
X171695500Y-64048499D01*
X171695500Y-64085353D01*
X171675815Y-64152392D01*
X171674602Y-64154243D01*
X171660267Y-64175696D01*
X171660264Y-64175703D01*
X171645500Y-64249928D01*
X171645500Y-65290063D01*
X171660266Y-65364301D01*
X171716515Y-65448484D01*
X171750234Y-65471014D01*
X171800699Y-65504734D01*
X171800702Y-65504734D01*
X171800703Y-65504735D01*
X171825666Y-65509700D01*
X171874933Y-65519500D01*
X172225066Y-65519499D01*
X172299301Y-65504734D01*
X172383484Y-65448484D01*
X172439734Y-65364301D01*
X172454500Y-65290067D01*
X172454499Y-64249934D01*
X172454498Y-64249928D01*
X172945500Y-64249928D01*
X172945500Y-65290063D01*
X172960266Y-65364302D01*
X172960267Y-65364304D01*
X172974600Y-65385753D01*
X172995480Y-65452429D01*
X172995500Y-65454646D01*
X172995500Y-66633329D01*
X172995500Y-66726671D01*
X173019659Y-66816832D01*
X173066328Y-66897666D01*
X173066330Y-66897669D01*
X174446785Y-68278124D01*
X174480270Y-68339447D01*
X174477035Y-68404123D01*
X174422697Y-68571357D01*
X174422697Y-68571360D01*
X174395500Y-68743074D01*
X174395500Y-68916925D01*
X174422697Y-69088639D01*
X174422697Y-69088642D01*
X174476418Y-69253978D01*
X174486116Y-69273011D01*
X174555347Y-69408884D01*
X174657535Y-69549533D01*
X174780467Y-69672465D01*
X174921116Y-69774653D01*
X175076019Y-69853580D01*
X175076021Y-69853581D01*
X175241358Y-69907302D01*
X175241359Y-69907302D01*
X175241362Y-69907303D01*
X175413074Y-69934500D01*
X175413075Y-69934500D01*
X175586925Y-69934500D01*
X175586926Y-69934500D01*
X175758638Y-69907303D01*
X175758641Y-69907302D01*
X175758642Y-69907302D01*
X175923978Y-69853581D01*
X175923978Y-69853580D01*
X175923981Y-69853580D01*
X176078884Y-69774653D01*
X176219533Y-69672465D01*
X176342465Y-69549533D01*
X176444653Y-69408884D01*
X176523580Y-69253981D01*
X176542765Y-69194936D01*
X176577302Y-69088642D01*
X176577302Y-69088641D01*
X176577303Y-69088638D01*
X176604500Y-68916926D01*
X176604500Y-68743074D01*
X176935500Y-68743074D01*
X176935500Y-68916925D01*
X176962697Y-69088639D01*
X176962697Y-69088642D01*
X177016418Y-69253978D01*
X177026116Y-69273011D01*
X177095347Y-69408884D01*
X177197535Y-69549533D01*
X177320467Y-69672465D01*
X177461116Y-69774653D01*
X177616019Y-69853580D01*
X177616021Y-69853581D01*
X177781358Y-69907302D01*
X177781359Y-69907302D01*
X177781362Y-69907303D01*
X177953074Y-69934500D01*
X177953075Y-69934500D01*
X178126925Y-69934500D01*
X178126926Y-69934500D01*
X178298638Y-69907303D01*
X178298641Y-69907302D01*
X178298642Y-69907302D01*
X178463978Y-69853581D01*
X178463978Y-69853580D01*
X178463981Y-69853580D01*
X178618884Y-69774653D01*
X178759533Y-69672465D01*
X178882465Y-69549533D01*
X178984653Y-69408884D01*
X179063580Y-69253981D01*
X179082765Y-69194936D01*
X179117302Y-69088642D01*
X179117302Y-69088641D01*
X179117303Y-69088638D01*
X179144500Y-68916926D01*
X179144500Y-68743074D01*
X179117303Y-68571362D01*
X179117302Y-68571358D01*
X179117302Y-68571357D01*
X179063581Y-68406021D01*
X178984652Y-68251115D01*
X178882465Y-68110467D01*
X178759533Y-67987535D01*
X178618884Y-67885347D01*
X178529073Y-67839586D01*
X178463978Y-67806418D01*
X178298641Y-67752697D01*
X178169854Y-67732299D01*
X178126926Y-67725500D01*
X177953074Y-67725500D01*
X177895836Y-67734565D01*
X177781360Y-67752697D01*
X177781357Y-67752697D01*
X177616021Y-67806418D01*
X177461115Y-67885347D01*
X177380869Y-67943649D01*
X177320467Y-67987535D01*
X177320465Y-67987537D01*
X177320464Y-67987537D01*
X177197537Y-68110464D01*
X177197537Y-68110465D01*
X177197535Y-68110467D01*
X177157609Y-68165420D01*
X177095347Y-68251115D01*
X177016418Y-68406021D01*
X176962697Y-68571357D01*
X176962697Y-68571360D01*
X176935500Y-68743074D01*
X176604500Y-68743074D01*
X176577303Y-68571362D01*
X176577302Y-68571358D01*
X176577302Y-68571357D01*
X176523581Y-68406021D01*
X176444652Y-68251115D01*
X176342465Y-68110467D01*
X176219533Y-67987535D01*
X176078884Y-67885347D01*
X175989073Y-67839586D01*
X175923978Y-67806418D01*
X175758641Y-67752697D01*
X175629854Y-67732299D01*
X175586926Y-67725500D01*
X175413074Y-67725500D01*
X175355836Y-67734565D01*
X175241360Y-67752697D01*
X175241357Y-67752697D01*
X175074123Y-67807035D01*
X175004282Y-67809030D01*
X174948124Y-67776785D01*
X173740819Y-66569480D01*
X173707334Y-66508157D01*
X173704500Y-66481799D01*
X173704500Y-66203074D01*
X174395500Y-66203074D01*
X174395500Y-66376925D01*
X174422697Y-66548639D01*
X174422697Y-66548642D01*
X174476418Y-66713978D01*
X174528825Y-66816832D01*
X174555347Y-66868884D01*
X174657535Y-67009533D01*
X174780467Y-67132465D01*
X174921116Y-67234653D01*
X175076019Y-67313580D01*
X175076021Y-67313581D01*
X175241358Y-67367302D01*
X175241359Y-67367302D01*
X175241362Y-67367303D01*
X175413074Y-67394500D01*
X175413075Y-67394500D01*
X175586925Y-67394500D01*
X175586926Y-67394500D01*
X175758638Y-67367303D01*
X175758641Y-67367302D01*
X175758642Y-67367302D01*
X175923978Y-67313581D01*
X175923978Y-67313580D01*
X175923981Y-67313580D01*
X176078884Y-67234653D01*
X176219533Y-67132465D01*
X176342465Y-67009533D01*
X176444653Y-66868884D01*
X176523580Y-66713981D01*
X176577303Y-66548638D01*
X176604500Y-66376926D01*
X176604500Y-66203074D01*
X176577303Y-66031362D01*
X176577302Y-66031358D01*
X176577302Y-66031357D01*
X176523581Y-65866021D01*
X176490413Y-65800925D01*
X176444653Y-65711116D01*
X176342465Y-65570467D01*
X176219533Y-65447535D01*
X176078884Y-65345347D01*
X175970399Y-65290071D01*
X175923978Y-65266418D01*
X175758641Y-65212697D01*
X175629854Y-65192299D01*
X175586926Y-65185500D01*
X175413074Y-65185500D01*
X175355836Y-65194565D01*
X175241360Y-65212697D01*
X175241357Y-65212697D01*
X175076021Y-65266418D01*
X174921115Y-65345347D01*
X174865502Y-65385753D01*
X174780467Y-65447535D01*
X174780465Y-65447537D01*
X174780464Y-65447537D01*
X174657537Y-65570464D01*
X174657537Y-65570465D01*
X174657535Y-65570467D01*
X174613649Y-65630869D01*
X174555347Y-65711115D01*
X174476418Y-65866021D01*
X174422697Y-66031357D01*
X174422697Y-66031360D01*
X174395500Y-66203074D01*
X173704500Y-66203074D01*
X173704500Y-65454646D01*
X173724185Y-65387607D01*
X173725400Y-65385753D01*
X173739734Y-65364301D01*
X173739735Y-65364299D01*
X173750758Y-65308878D01*
X173754500Y-65290067D01*
X173754499Y-64249934D01*
X173739734Y-64175699D01*
X173704500Y-64122968D01*
X173683484Y-64091515D01*
X173619105Y-64048499D01*
X173599301Y-64035266D01*
X173599299Y-64035265D01*
X173599296Y-64035264D01*
X173525069Y-64020500D01*
X173174936Y-64020500D01*
X173100698Y-64035266D01*
X173016515Y-64091515D01*
X172960266Y-64175699D01*
X172960264Y-64175703D01*
X172945500Y-64249928D01*
X172454498Y-64249928D01*
X172439734Y-64175699D01*
X172439733Y-64175697D01*
X172439732Y-64175695D01*
X172425398Y-64154243D01*
X172404520Y-64087566D01*
X172404500Y-64085352D01*
X172404500Y-63804503D01*
X172408430Y-63789494D01*
X172407672Y-63776637D01*
X172417136Y-63756249D01*
X172420417Y-63743724D01*
X172424380Y-63736675D01*
X172473758Y-63670715D01*
X172476608Y-63663074D01*
X174395500Y-63663074D01*
X174395500Y-63836925D01*
X174422697Y-64008639D01*
X174422697Y-64008642D01*
X174476418Y-64173978D01*
X174499602Y-64219479D01*
X174555347Y-64328884D01*
X174657535Y-64469533D01*
X174780467Y-64592465D01*
X174921116Y-64694653D01*
X175057284Y-64764034D01*
X175076021Y-64773581D01*
X175241358Y-64827302D01*
X175241359Y-64827302D01*
X175241362Y-64827303D01*
X175413074Y-64854500D01*
X175413075Y-64854500D01*
X175586925Y-64854500D01*
X175586926Y-64854500D01*
X175758638Y-64827303D01*
X175758641Y-64827302D01*
X175758642Y-64827302D01*
X175923978Y-64773581D01*
X175923978Y-64773580D01*
X175923981Y-64773580D01*
X176078884Y-64694653D01*
X176219533Y-64592465D01*
X176342465Y-64469533D01*
X176444653Y-64328884D01*
X176523580Y-64173981D01*
X176540155Y-64122968D01*
X176577302Y-64008642D01*
X176577302Y-64008641D01*
X176577303Y-64008638D01*
X176604500Y-63836926D01*
X176604500Y-63663074D01*
X176577303Y-63491362D01*
X176577302Y-63491358D01*
X176577302Y-63491357D01*
X176523581Y-63326021D01*
X176490413Y-63260925D01*
X176444653Y-63171116D01*
X176342465Y-63030467D01*
X176219533Y-62907535D01*
X176078884Y-62805347D01*
X175989073Y-62759586D01*
X175923978Y-62726418D01*
X175758641Y-62672697D01*
X175629854Y-62652299D01*
X175586926Y-62645500D01*
X175413074Y-62645500D01*
X175355836Y-62654565D01*
X175241360Y-62672697D01*
X175241357Y-62672697D01*
X175076021Y-62726418D01*
X174921115Y-62805347D01*
X174891532Y-62826841D01*
X174780467Y-62907535D01*
X174780465Y-62907537D01*
X174780464Y-62907537D01*
X174657537Y-63030464D01*
X174657537Y-63030465D01*
X174657535Y-63030467D01*
X174620335Y-63081668D01*
X174555347Y-63171115D01*
X174476418Y-63326021D01*
X174422697Y-63491357D01*
X174422697Y-63491360D01*
X174395500Y-63663074D01*
X172476608Y-63663074D01*
X172523200Y-63538157D01*
X172528231Y-63491362D01*
X172529499Y-63479573D01*
X172529499Y-63479562D01*
X172529500Y-63479557D01*
X172529499Y-62885444D01*
X172523200Y-62826843D01*
X172485743Y-62726418D01*
X172473760Y-62694290D01*
X172473759Y-62694288D01*
X172473758Y-62694285D01*
X172388974Y-62581026D01*
X172275715Y-62496242D01*
X172223035Y-62476593D01*
X172143159Y-62446800D01*
X172084565Y-62440500D01*
X171515446Y-62440500D01*
X171515437Y-62440501D01*
X171456840Y-62446800D01*
X171324290Y-62496239D01*
X171324281Y-62496244D01*
X171211026Y-62581026D01*
X171126244Y-62694281D01*
X171126241Y-62694288D01*
X171076800Y-62826839D01*
X171076800Y-62826841D01*
X171070500Y-62885426D01*
X163659500Y-62885426D01*
X163659500Y-41654714D01*
X163660525Y-41638800D01*
X163677328Y-41508956D01*
X163766329Y-40821225D01*
X163767938Y-40804599D01*
X163768963Y-40788685D01*
X163769500Y-40772006D01*
X163769500Y-40125773D01*
X163767425Y-40093023D01*
X163763475Y-40061975D01*
X163757284Y-40029750D01*
X163736009Y-39947490D01*
X163733124Y-39932646D01*
X163724480Y-39866980D01*
X163664954Y-39644824D01*
X163649047Y-39606421D01*
X163643564Y-39590038D01*
X163617220Y-39488172D01*
X163600375Y-39441783D01*
X163580226Y-39399375D01*
X163580220Y-39399366D01*
X163580217Y-39399359D01*
X163554911Y-39357026D01*
X163554904Y-39357014D01*
X163388897Y-39131244D01*
X163365044Y-39065575D01*
X163380480Y-38997432D01*
X163430308Y-38948452D01*
X163498705Y-38934186D01*
X163520885Y-38938013D01*
X163656980Y-38974480D01*
X163885004Y-39004500D01*
X163885011Y-39004500D01*
X164114989Y-39004500D01*
X164114996Y-39004500D01*
X164343020Y-38974480D01*
X164565176Y-38914954D01*
X164777661Y-38826940D01*
X164976840Y-38711944D01*
X165159305Y-38571934D01*
X165321934Y-38409305D01*
X165361689Y-38357496D01*
X165395823Y-38313013D01*
X165452251Y-38271811D01*
X165494198Y-38264500D01*
X168601799Y-38264500D01*
X168668838Y-38284185D01*
G37*
%TD.AperFunction*%
%TA.AperFunction,Conductor*%
G36*
X149802013Y-50474418D02*
G01*
X149806672Y-50473833D01*
X149821763Y-50477257D01*
X149846388Y-50484488D01*
X149846392Y-50484488D01*
X149846394Y-50484489D01*
X149858207Y-50486187D01*
X149919500Y-50495000D01*
X150840999Y-50495000D01*
X150908038Y-50514685D01*
X150953793Y-50567489D01*
X150964999Y-50619000D01*
X150965000Y-51560999D01*
X150945316Y-51628038D01*
X150892512Y-51673793D01*
X150841000Y-51684999D01*
X150401042Y-51684999D01*
X150373319Y-51686485D01*
X150373314Y-51686485D01*
X150373302Y-51686486D01*
X150373294Y-51686486D01*
X150373265Y-51686489D01*
X150346943Y-51689319D01*
X150346941Y-51689320D01*
X150250323Y-51719574D01*
X150250320Y-51719575D01*
X150250318Y-51719575D01*
X150250313Y-51719578D01*
X150188993Y-51753061D01*
X150129878Y-51797315D01*
X150129857Y-51797333D01*
X149660253Y-52266937D01*
X149626696Y-52308201D01*
X149626695Y-52308202D01*
X149598989Y-52350481D01*
X149586096Y-52372436D01*
X149586094Y-52372441D01*
X149557571Y-52469582D01*
X149557569Y-52469590D01*
X149551344Y-52539179D01*
X149555297Y-52612920D01*
X149555299Y-52612932D01*
X149562617Y-52649722D01*
X149564999Y-52673904D01*
X149565000Y-52673914D01*
X149565000Y-52806088D01*
X149562617Y-52830280D01*
X149536831Y-52959913D01*
X149529775Y-52983174D01*
X149479193Y-53105289D01*
X149467734Y-53126727D01*
X149432772Y-53179050D01*
X149417520Y-53205019D01*
X149404492Y-53230477D01*
X149403411Y-53232613D01*
X149376625Y-53330257D01*
X149376623Y-53330267D01*
X149371641Y-53399937D01*
X149371640Y-53399960D01*
X149372466Y-53446202D01*
X149386232Y-53490163D01*
X149402722Y-53542826D01*
X149402724Y-53542829D01*
X149402725Y-53542832D01*
X149436208Y-53604152D01*
X149480462Y-53663267D01*
X149480480Y-53663288D01*
X150324513Y-54507319D01*
X150344219Y-54533000D01*
X150366732Y-54571994D01*
X150379119Y-54601898D01*
X150390774Y-54645392D01*
X150395000Y-54677488D01*
X150395000Y-55104453D01*
X150399456Y-55152331D01*
X150407907Y-55197337D01*
X150412451Y-55217196D01*
X150457450Y-55307900D01*
X150500116Y-55363230D01*
X150553081Y-55414704D01*
X150642592Y-55479739D01*
X150657379Y-55492369D01*
X150737622Y-55572612D01*
X150750259Y-55587407D01*
X150816972Y-55679229D01*
X150827139Y-55695820D01*
X150878663Y-55796941D01*
X150886109Y-55814919D01*
X150921175Y-55922843D01*
X150925717Y-55941760D01*
X150938287Y-56021114D01*
X150941765Y-56043074D01*
X150943473Y-56053853D01*
X150945000Y-56073253D01*
X150945000Y-56186744D01*
X150943473Y-56206144D01*
X150925718Y-56318233D01*
X150921176Y-56337150D01*
X150886108Y-56445082D01*
X150878662Y-56463060D01*
X150827140Y-56564177D01*
X150816973Y-56580768D01*
X150750259Y-56672591D01*
X150737622Y-56687386D01*
X150657384Y-56767624D01*
X150642590Y-56780260D01*
X150559637Y-56840530D01*
X150553084Y-56845292D01*
X150553078Y-56845296D01*
X150553076Y-56845297D01*
X150516947Y-56877059D01*
X150485525Y-56910332D01*
X150485519Y-56910339D01*
X150472129Y-56925681D01*
X150472128Y-56925682D01*
X150472127Y-56925684D01*
X150425196Y-57015400D01*
X150425195Y-57015400D01*
X150405513Y-57082432D01*
X150405510Y-57082444D01*
X150395000Y-57155548D01*
X150395000Y-57644453D01*
X150399456Y-57692331D01*
X150407907Y-57737337D01*
X150412451Y-57757196D01*
X150457450Y-57847900D01*
X150500116Y-57903230D01*
X150553081Y-57954704D01*
X150642592Y-58019739D01*
X150657379Y-58032369D01*
X150737622Y-58112612D01*
X150750259Y-58127407D01*
X150816972Y-58219229D01*
X150827139Y-58235820D01*
X150878663Y-58336941D01*
X150886109Y-58354919D01*
X150921175Y-58462843D01*
X150925717Y-58481760D01*
X150938287Y-58561114D01*
X150941765Y-58583074D01*
X150943473Y-58593853D01*
X150945000Y-58613253D01*
X150945000Y-58726744D01*
X150943473Y-58746144D01*
X150925718Y-58858233D01*
X150921176Y-58877150D01*
X150886108Y-58985082D01*
X150878662Y-59003060D01*
X150827140Y-59104177D01*
X150816973Y-59120768D01*
X150750259Y-59212591D01*
X150737622Y-59227386D01*
X150657386Y-59307622D01*
X150642591Y-59320259D01*
X150550768Y-59386973D01*
X150534177Y-59397140D01*
X150433059Y-59448662D01*
X150415082Y-59456108D01*
X150307155Y-59491175D01*
X150288237Y-59495717D01*
X150187552Y-59511665D01*
X150176141Y-59513473D01*
X150156743Y-59515000D01*
X150043255Y-59515000D01*
X150023858Y-59513473D01*
X150000759Y-59509814D01*
X149911764Y-59495718D01*
X149892846Y-59491176D01*
X149784918Y-59456109D01*
X149766940Y-59448663D01*
X149665823Y-59397141D01*
X149649232Y-59386974D01*
X149557407Y-59320259D01*
X149542612Y-59307622D01*
X149462376Y-59227386D01*
X149449739Y-59212591D01*
X149383025Y-59120768D01*
X149372858Y-59104177D01*
X149321335Y-59003058D01*
X149313889Y-58985081D01*
X149278822Y-58877157D01*
X149274279Y-58858235D01*
X149256526Y-58746137D01*
X149255000Y-58726741D01*
X149255000Y-58613256D01*
X149256526Y-58593860D01*
X149274279Y-58481762D01*
X149274280Y-58481760D01*
X149274280Y-58481756D01*
X149278822Y-58462840D01*
X149313890Y-58354911D01*
X149321331Y-58336947D01*
X149372866Y-58235805D01*
X149383025Y-58219228D01*
X149449739Y-58127407D01*
X149462359Y-58112629D01*
X149542625Y-58032362D01*
X149557415Y-58019732D01*
X149646918Y-57954704D01*
X149683047Y-57922944D01*
X149714476Y-57889666D01*
X149727871Y-57874318D01*
X149774803Y-57784600D01*
X149794488Y-57717561D01*
X149805000Y-57644449D01*
X149805000Y-57155550D01*
X149800541Y-57107652D01*
X149792092Y-57062664D01*
X149787549Y-57042804D01*
X149773953Y-57015399D01*
X149742555Y-56952109D01*
X149742554Y-56952108D01*
X149742551Y-56952101D01*
X149699886Y-56896771D01*
X149646916Y-56845292D01*
X149557409Y-56780261D01*
X149542614Y-56767624D01*
X149462376Y-56687386D01*
X149449739Y-56672591D01*
X149383025Y-56580768D01*
X149372858Y-56564177D01*
X149321335Y-56463058D01*
X149313889Y-56445081D01*
X149278822Y-56337157D01*
X149274279Y-56318235D01*
X149256526Y-56206137D01*
X149255000Y-56186741D01*
X149255000Y-56073256D01*
X149256526Y-56053860D01*
X149274279Y-55941762D01*
X149274280Y-55941760D01*
X149274280Y-55941756D01*
X149278822Y-55922840D01*
X149313890Y-55814911D01*
X149321331Y-55796947D01*
X149372866Y-55695805D01*
X149383025Y-55679228D01*
X149449739Y-55587407D01*
X149462359Y-55572629D01*
X149542625Y-55492362D01*
X149557415Y-55479732D01*
X149646918Y-55414704D01*
X149683047Y-55382944D01*
X149714476Y-55349666D01*
X149727871Y-55334318D01*
X149774803Y-55244600D01*
X149794488Y-55177561D01*
X149805000Y-55104449D01*
X149805000Y-54981043D01*
X149803513Y-54953302D01*
X149801388Y-54933543D01*
X149801226Y-54930520D01*
X149799811Y-54921268D01*
X149797797Y-54912388D01*
X149797339Y-54909201D01*
X149797279Y-54908832D01*
X149795854Y-54900032D01*
X149778210Y-54855189D01*
X149770421Y-54830315D01*
X149769123Y-54827938D01*
X149767777Y-54828672D01*
X149758782Y-54805811D01*
X149758780Y-54805809D01*
X149758780Y-54805807D01*
X149749587Y-54791503D01*
X149745079Y-54783905D01*
X149736940Y-54768999D01*
X149736939Y-54768997D01*
X149692681Y-54709875D01*
X149692665Y-54709857D01*
X148505237Y-53522431D01*
X148465919Y-53490163D01*
X148465919Y-53490162D01*
X148465563Y-53489924D01*
X148425682Y-53463277D01*
X148419132Y-53459775D01*
X148410111Y-53454952D01*
X148399685Y-53448702D01*
X148273376Y-53364304D01*
X148254586Y-53348884D01*
X148161119Y-53255418D01*
X148145698Y-53236627D01*
X148107226Y-53179050D01*
X148072260Y-53126720D01*
X148060803Y-53105284D01*
X148010224Y-52983174D01*
X148003168Y-52959913D01*
X147977383Y-52830284D01*
X147977383Y-52830280D01*
X147975000Y-52806093D01*
X147975000Y-52673904D01*
X147977383Y-52649713D01*
X147984702Y-52612920D01*
X148003169Y-52520076D01*
X148010221Y-52496829D01*
X148060804Y-52374708D01*
X148072261Y-52353276D01*
X148074131Y-52350477D01*
X148145699Y-52243368D01*
X148161110Y-52224589D01*
X148254580Y-52131118D01*
X148273363Y-52115703D01*
X148383281Y-52042258D01*
X148404705Y-52030806D01*
X148526828Y-51980222D01*
X148550072Y-51973171D01*
X148647797Y-51953732D01*
X148679720Y-51947383D01*
X148703911Y-51945000D01*
X148836092Y-51945000D01*
X148860283Y-51947383D01*
X148897069Y-51954700D01*
X148950010Y-51959676D01*
X149000559Y-51959225D01*
X149000587Y-51959223D01*
X149000599Y-51959223D01*
X149025976Y-51957749D01*
X149025980Y-51957748D01*
X149025984Y-51957748D01*
X149122609Y-51927493D01*
X149183932Y-51894008D01*
X149243061Y-51849744D01*
X149662675Y-51430131D01*
X149681240Y-51409463D01*
X149697874Y-51388821D01*
X149744803Y-51299107D01*
X149764488Y-51232068D01*
X149775000Y-51158956D01*
X149775000Y-50926321D01*
X149772977Y-50893980D01*
X149769125Y-50863313D01*
X149768501Y-50858681D01*
X149767559Y-50856014D01*
X149767340Y-50854485D01*
X149765854Y-50845311D01*
X149745717Y-50794133D01*
X149734800Y-50763202D01*
X149734064Y-50761962D01*
X149731081Y-50756934D01*
X149728782Y-50751090D01*
X149713550Y-50727389D01*
X149699168Y-50703149D01*
X149680542Y-50677320D01*
X149657297Y-50611430D01*
X149673364Y-50543433D01*
X149678004Y-50535920D01*
X149683736Y-50527343D01*
X149703191Y-50511084D01*
X149719800Y-50491918D01*
X149729550Y-50489055D01*
X149737347Y-50482540D01*
X149762507Y-50479379D01*
X149786841Y-50472236D01*
X149802013Y-50474418D01*
G37*
%TD.AperFunction*%
%TA.AperFunction,Conductor*%
G36*
X149821763Y-40877257D02*
G01*
X149846388Y-40884488D01*
X149846392Y-40884488D01*
X149846394Y-40884489D01*
X149858207Y-40886187D01*
X149919500Y-40895000D01*
X150840999Y-40895000D01*
X150908038Y-40914685D01*
X150953793Y-40967489D01*
X150964999Y-41019000D01*
X150965000Y-41960999D01*
X150945316Y-42028038D01*
X150892512Y-42073793D01*
X150841000Y-42084999D01*
X150351042Y-42084999D01*
X150323319Y-42086485D01*
X150323314Y-42086485D01*
X150323302Y-42086486D01*
X150323294Y-42086486D01*
X150323265Y-42086489D01*
X150296943Y-42089319D01*
X150296941Y-42089320D01*
X150200323Y-42119574D01*
X150200320Y-42119575D01*
X150200318Y-42119575D01*
X150200313Y-42119578D01*
X150138993Y-42153061D01*
X150079878Y-42197315D01*
X150079857Y-42197333D01*
X149651969Y-42625221D01*
X149651961Y-42625229D01*
X149651957Y-42625234D01*
X149637204Y-42643375D01*
X149618403Y-42666493D01*
X149590700Y-42708767D01*
X149577804Y-42730724D01*
X149577801Y-42730732D01*
X149549278Y-42827872D01*
X149549277Y-42827879D01*
X149549277Y-42827880D01*
X149543109Y-42896821D01*
X149543050Y-42897475D01*
X149547003Y-42971227D01*
X149562617Y-43049715D01*
X149565000Y-43073904D01*
X149565000Y-43206088D01*
X149562617Y-43230280D01*
X149536831Y-43359913D01*
X149529775Y-43383175D01*
X149479193Y-43505288D01*
X149467734Y-43526725D01*
X149394297Y-43636631D01*
X149378878Y-43655418D01*
X149378876Y-43655421D01*
X149285419Y-43748878D01*
X149266633Y-43764296D01*
X149235448Y-43785134D01*
X149235428Y-43785149D01*
X149194485Y-43819058D01*
X149194470Y-43819071D01*
X149159062Y-43855118D01*
X149159057Y-43855124D01*
X149142132Y-43874137D01*
X149142126Y-43874146D01*
X149095196Y-43963860D01*
X149095195Y-43963860D01*
X149075513Y-44030892D01*
X149075510Y-44030904D01*
X149065000Y-44104008D01*
X149065000Y-44275992D01*
X149067640Y-44312909D01*
X149067642Y-44312928D01*
X149072666Y-44347870D01*
X149074143Y-44356983D01*
X149074146Y-44356995D01*
X149074863Y-44358817D01*
X149074864Y-44358817D01*
X149078866Y-44368991D01*
X149078801Y-44369005D01*
X149080753Y-44378379D01*
X149087158Y-44403015D01*
X149105379Y-44436386D01*
X149111211Y-44451210D01*
X149114539Y-44456389D01*
X149123870Y-44470909D01*
X149126259Y-44474626D01*
X149135681Y-44491882D01*
X149142902Y-44500523D01*
X149147095Y-44507047D01*
X149147095Y-44507048D01*
X149148989Y-44509995D01*
X149148993Y-44510000D01*
X149177385Y-44546546D01*
X149193627Y-44558256D01*
X149197523Y-44561183D01*
X149200847Y-44563784D01*
X149235436Y-44594855D01*
X149270479Y-44618270D01*
X149274145Y-44621139D01*
X149275408Y-44622903D01*
X149285411Y-44631113D01*
X149378881Y-44724582D01*
X149394302Y-44743373D01*
X149467734Y-44853271D01*
X149479193Y-44874710D01*
X149529773Y-44996822D01*
X149536829Y-45020081D01*
X149562617Y-45149718D01*
X149564999Y-45173904D01*
X149565000Y-45173911D01*
X149565000Y-45306088D01*
X149562617Y-45330280D01*
X149536831Y-45459913D01*
X149529775Y-45483174D01*
X149479193Y-45605288D01*
X149467735Y-45626725D01*
X149419800Y-45698464D01*
X149389124Y-45761369D01*
X149389113Y-45761396D01*
X149378178Y-45794566D01*
X149359456Y-45821695D01*
X149341650Y-45849425D01*
X149339488Y-45850631D01*
X149338494Y-45852072D01*
X149311966Y-45868517D01*
X149304880Y-45871755D01*
X149247501Y-45889723D01*
X149180871Y-45921602D01*
X149148448Y-45943266D01*
X149139388Y-45947408D01*
X149138348Y-45947557D01*
X149135287Y-45949194D01*
X149013176Y-45999773D01*
X148989916Y-46006829D01*
X148860277Y-46032617D01*
X148836085Y-46035000D01*
X148703913Y-46035000D01*
X148679721Y-46032617D01*
X148550080Y-46006829D01*
X148526822Y-45999773D01*
X148404714Y-45949195D01*
X148383277Y-45937737D01*
X148273374Y-45864302D01*
X148254584Y-45848882D01*
X148161119Y-45755418D01*
X148145698Y-45736627D01*
X148120193Y-45698456D01*
X148072260Y-45626720D01*
X148060803Y-45605284D01*
X148010224Y-45483174D01*
X148003168Y-45459913D01*
X147977383Y-45330284D01*
X147975000Y-45306093D01*
X147975000Y-45173904D01*
X147977383Y-45149713D01*
X147983477Y-45119072D01*
X148003169Y-45020076D01*
X148010220Y-44996832D01*
X148060804Y-44874709D01*
X148072260Y-44853278D01*
X148145701Y-44743367D01*
X148161117Y-44724582D01*
X148254589Y-44631110D01*
X148273373Y-44615695D01*
X148304563Y-44594856D01*
X148345519Y-44560937D01*
X148348153Y-44558256D01*
X148359655Y-44546546D01*
X148380942Y-44524875D01*
X148397871Y-44505858D01*
X148444803Y-44416140D01*
X148464488Y-44349101D01*
X148475000Y-44275989D01*
X148475000Y-44104010D01*
X148472359Y-44067079D01*
X148467336Y-44032144D01*
X148465852Y-44022987D01*
X148461146Y-44011029D01*
X148461203Y-44011018D01*
X148459252Y-44001644D01*
X148452841Y-43976981D01*
X148434605Y-43943584D01*
X148428775Y-43928768D01*
X148425445Y-43923587D01*
X148416153Y-43909130D01*
X148416148Y-43909121D01*
X148413750Y-43905389D01*
X148404317Y-43888114D01*
X148397097Y-43879474D01*
X148391008Y-43870000D01*
X148362626Y-43833465D01*
X148346379Y-43821749D01*
X148342492Y-43818829D01*
X148339170Y-43816230D01*
X148304562Y-43785142D01*
X148269510Y-43761720D01*
X148265848Y-43758855D01*
X148264582Y-43757086D01*
X148254583Y-43748881D01*
X148161119Y-43655418D01*
X148145698Y-43636627D01*
X148132476Y-43616839D01*
X148072260Y-43526720D01*
X148060803Y-43505284D01*
X148010224Y-43383174D01*
X148003168Y-43359913D01*
X147977383Y-43230284D01*
X147977383Y-43230280D01*
X147975000Y-43206093D01*
X147975000Y-43073904D01*
X147977383Y-43049713D01*
X147992995Y-42971227D01*
X148003169Y-42920076D01*
X148010221Y-42896829D01*
X148060804Y-42774708D01*
X148072261Y-42753276D01*
X148145699Y-42643368D01*
X148161110Y-42624589D01*
X148254580Y-42531118D01*
X148273363Y-42515703D01*
X148383281Y-42442258D01*
X148404705Y-42430806D01*
X148526828Y-42380222D01*
X148550072Y-42373171D01*
X148659625Y-42351380D01*
X148679720Y-42347383D01*
X148703911Y-42345000D01*
X148836734Y-42345000D01*
X148852191Y-42346123D01*
X148852193Y-42346107D01*
X148852954Y-42346178D01*
X148854653Y-42346302D01*
X148855349Y-42346403D01*
X148855352Y-42346403D01*
X148855361Y-42346405D01*
X148908303Y-42351381D01*
X148958854Y-42350930D01*
X148958882Y-42350928D01*
X148958894Y-42350928D01*
X148984271Y-42349454D01*
X148984275Y-42349453D01*
X148984279Y-42349453D01*
X149080904Y-42319198D01*
X149142227Y-42285713D01*
X149201356Y-42241449D01*
X149662675Y-41780131D01*
X149681240Y-41759463D01*
X149697874Y-41738821D01*
X149744803Y-41649107D01*
X149747830Y-41638800D01*
X149753404Y-41619814D01*
X149764488Y-41582068D01*
X149775000Y-41508956D01*
X149775000Y-41326321D01*
X149772977Y-41293980D01*
X149769125Y-41263313D01*
X149768501Y-41258681D01*
X149767559Y-41256014D01*
X149767340Y-41254485D01*
X149765854Y-41245311D01*
X149745717Y-41194133D01*
X149734800Y-41163202D01*
X149734064Y-41161962D01*
X149731081Y-41156934D01*
X149728782Y-41151090D01*
X149713550Y-41127389D01*
X149699168Y-41103149D01*
X149680542Y-41077320D01*
X149673174Y-41056436D01*
X149661537Y-41037597D01*
X149661777Y-41024130D01*
X149657297Y-41011430D01*
X149662389Y-40989878D01*
X149662785Y-40967738D01*
X149672339Y-40947766D01*
X149673364Y-40943433D01*
X149678004Y-40935920D01*
X149683736Y-40927343D01*
X149737347Y-40882540D01*
X149806672Y-40873833D01*
X149821763Y-40877257D01*
G37*
%TD.AperFunction*%
%TA.AperFunction,Conductor*%
G36*
X159412847Y-33620185D02*
G01*
X159458602Y-33672989D01*
X159468546Y-33742147D01*
X159439521Y-33805703D01*
X159380743Y-33843477D01*
X159377902Y-33844275D01*
X159373330Y-33845500D01*
X159373329Y-33845500D01*
X159324006Y-33858716D01*
X159283167Y-33869659D01*
X159202333Y-33916328D01*
X159202330Y-33916330D01*
X158919480Y-34199181D01*
X158858157Y-34232666D01*
X158831799Y-34235500D01*
X158756999Y-34235500D01*
X158615971Y-34273288D01*
X158615968Y-34273289D01*
X158489532Y-34346286D01*
X158489527Y-34346290D01*
X158386290Y-34449527D01*
X158386286Y-34449532D01*
X158313289Y-34575968D01*
X158313288Y-34575971D01*
X158275500Y-34716999D01*
X158275500Y-34863000D01*
X158313288Y-35004028D01*
X158313289Y-35004031D01*
X158386286Y-35130467D01*
X158386288Y-35130470D01*
X158386289Y-35130471D01*
X158489529Y-35233711D01*
X158615971Y-35306712D01*
X158756999Y-35344500D01*
X158757001Y-35344500D01*
X158902999Y-35344500D01*
X158903001Y-35344500D01*
X159044029Y-35306712D01*
X159170471Y-35233711D01*
X159273711Y-35130471D01*
X159346712Y-35004029D01*
X159384500Y-34863001D01*
X159384500Y-34788201D01*
X159393144Y-34758760D01*
X159399668Y-34728774D01*
X159403422Y-34723758D01*
X159404185Y-34721162D01*
X159420819Y-34700520D01*
X159530520Y-34590819D01*
X159591843Y-34557334D01*
X159618201Y-34554500D01*
X169252167Y-34554500D01*
X169319206Y-34574185D01*
X169364961Y-34626989D01*
X169374905Y-34696147D01*
X169350539Y-34753991D01*
X169346287Y-34759531D01*
X169273289Y-34885968D01*
X169273288Y-34885971D01*
X169235500Y-35026999D01*
X169235500Y-35173001D01*
X169271328Y-35306712D01*
X169273288Y-35314028D01*
X169273289Y-35314031D01*
X169346286Y-35440467D01*
X169346288Y-35440470D01*
X169346289Y-35440471D01*
X169449529Y-35543711D01*
X169575971Y-35616712D01*
X169716999Y-35654500D01*
X169791799Y-35654500D01*
X169858838Y-35674185D01*
X169879480Y-35690819D01*
X170784181Y-36595520D01*
X170817666Y-36656843D01*
X170820500Y-36683201D01*
X170820500Y-37205826D01*
X170829342Y-37272982D01*
X170829343Y-37272990D01*
X170863419Y-37400162D01*
X170889339Y-37462738D01*
X170889344Y-37462749D01*
X170955167Y-37576758D01*
X170996400Y-37630493D01*
X170996408Y-37630502D01*
X171089497Y-37723591D01*
X171089506Y-37723599D01*
X171143241Y-37764832D01*
X171143243Y-37764833D01*
X171257257Y-37830659D01*
X171319842Y-37856582D01*
X171447009Y-37890657D01*
X171514174Y-37899500D01*
X172080001Y-37899500D01*
X172080002Y-37899499D01*
X172179306Y-37879747D01*
X172179311Y-37879743D01*
X172182544Y-37878405D01*
X172190187Y-37877583D01*
X172191284Y-37877365D01*
X172191303Y-37877463D01*
X172252013Y-37870935D01*
X172277456Y-37878405D01*
X172280689Y-37879744D01*
X172280694Y-37879747D01*
X172280698Y-37879747D01*
X172280699Y-37879748D01*
X172379995Y-37899499D01*
X172379999Y-37899500D01*
X172380000Y-37899500D01*
X172945826Y-37899500D01*
X173012991Y-37890657D01*
X173140158Y-37856582D01*
X173202743Y-37830659D01*
X173316757Y-37764833D01*
X173370501Y-37723593D01*
X173463593Y-37630501D01*
X173504833Y-37576757D01*
X173570659Y-37462743D01*
X173596582Y-37400158D01*
X173613665Y-37336404D01*
X173650029Y-37276746D01*
X173712876Y-37246217D01*
X173733439Y-37244500D01*
X174254169Y-37244500D01*
X174254171Y-37244500D01*
X174335999Y-37222573D01*
X174381351Y-37219060D01*
X174385443Y-37219500D01*
X174954556Y-37219499D01*
X175013157Y-37213200D01*
X175145715Y-37163758D01*
X175258974Y-37078974D01*
X175330735Y-36983111D01*
X175386666Y-36941242D01*
X175456357Y-36936258D01*
X175517681Y-36969742D01*
X175529257Y-36983102D01*
X175601026Y-37078974D01*
X175714285Y-37163758D01*
X175846843Y-37213200D01*
X175905443Y-37219500D01*
X176474556Y-37219499D01*
X176533157Y-37213200D01*
X176665715Y-37163758D01*
X176778974Y-37078974D01*
X176778976Y-37078970D01*
X176785245Y-37072703D01*
X176787912Y-37075370D01*
X176829493Y-37044118D01*
X176899175Y-37038998D01*
X176960563Y-37072364D01*
X176994167Y-37133621D01*
X176994670Y-37136025D01*
X177005266Y-37189301D01*
X177061515Y-37273484D01*
X177095234Y-37296014D01*
X177145699Y-37329734D01*
X177145702Y-37329734D01*
X177145703Y-37329735D01*
X177170666Y-37334700D01*
X177219933Y-37344500D01*
X177840066Y-37344499D01*
X177914301Y-37329734D01*
X177998484Y-37273484D01*
X178054734Y-37189301D01*
X178069500Y-37115067D01*
X178069499Y-36424934D01*
X178054734Y-36350699D01*
X178032391Y-36317261D01*
X177998484Y-36266515D01*
X177937606Y-36225838D01*
X177914301Y-36210266D01*
X177914299Y-36210265D01*
X177914296Y-36210264D01*
X177840071Y-36195500D01*
X177840067Y-36195500D01*
X177508201Y-36195500D01*
X177441162Y-36175815D01*
X177420520Y-36159181D01*
X177405169Y-36143830D01*
X177405168Y-36143829D01*
X177324332Y-36097159D01*
X177324333Y-36097159D01*
X177294278Y-36089106D01*
X177234171Y-36073000D01*
X177234169Y-36073000D01*
X177018375Y-36073000D01*
X176951336Y-36053315D01*
X176905581Y-36000511D01*
X176902199Y-35992348D01*
X176863758Y-35889285D01*
X176778974Y-35776026D01*
X176665715Y-35691242D01*
X176613035Y-35671593D01*
X176533159Y-35641800D01*
X176474565Y-35635500D01*
X175905446Y-35635500D01*
X175905437Y-35635501D01*
X175846840Y-35641800D01*
X175714290Y-35691239D01*
X175714281Y-35691244D01*
X175601025Y-35776026D01*
X175529267Y-35871885D01*
X175473334Y-35913757D01*
X175403642Y-35918741D01*
X175342319Y-35885256D01*
X175330733Y-35871885D01*
X175258974Y-35776026D01*
X175145718Y-35691244D01*
X175145717Y-35691243D01*
X175145715Y-35691242D01*
X175093035Y-35671593D01*
X175013159Y-35641800D01*
X174954565Y-35635500D01*
X174385446Y-35635500D01*
X174385437Y-35635501D01*
X174326840Y-35641800D01*
X174194290Y-35691239D01*
X174194281Y-35691244D01*
X174081026Y-35776026D01*
X173996244Y-35889281D01*
X173996241Y-35889288D01*
X173946800Y-36021839D01*
X173946800Y-36021841D01*
X173940500Y-36080426D01*
X173940500Y-36080443D01*
X173940500Y-36281537D01*
X173940501Y-36411500D01*
X173937950Y-36420186D01*
X173939239Y-36429147D01*
X173928261Y-36453183D01*
X173920817Y-36478539D01*
X173913974Y-36484467D01*
X173910214Y-36492703D01*
X173887982Y-36506989D01*
X173868013Y-36524294D01*
X173857497Y-36526581D01*
X173851436Y-36530477D01*
X173816501Y-36535500D01*
X173733439Y-36535500D01*
X173666400Y-36515815D01*
X173620645Y-36463011D01*
X173613666Y-36443601D01*
X173596582Y-36379842D01*
X173570659Y-36317257D01*
X173541363Y-36266515D01*
X173504832Y-36203241D01*
X173463599Y-36149506D01*
X173463591Y-36149497D01*
X173370502Y-36056408D01*
X173370493Y-36056400D01*
X173316758Y-36015167D01*
X173202749Y-35949344D01*
X173202745Y-35949342D01*
X173202743Y-35949341D01*
X173166008Y-35934125D01*
X173140162Y-35923419D01*
X173104103Y-35913757D01*
X173012991Y-35889343D01*
X172945826Y-35880500D01*
X172380000Y-35880500D01*
X172379995Y-35880500D01*
X172280693Y-35900252D01*
X172277450Y-35901596D01*
X172269812Y-35902416D01*
X172268716Y-35902635D01*
X172268696Y-35902536D01*
X172207980Y-35909063D01*
X172182550Y-35901596D01*
X172179306Y-35900252D01*
X172080004Y-35880500D01*
X172080000Y-35880500D01*
X171514174Y-35880500D01*
X171447458Y-35889284D01*
X171447017Y-35889342D01*
X171447009Y-35889343D01*
X171319837Y-35923419D01*
X171253508Y-35950894D01*
X171252965Y-35949585D01*
X171189988Y-35960532D01*
X171125609Y-35933382D01*
X171116350Y-35925011D01*
X170380819Y-35189480D01*
X170347334Y-35128157D01*
X170344500Y-35101799D01*
X170344500Y-35027001D01*
X170344500Y-35026999D01*
X170306712Y-34885971D01*
X170233711Y-34759529D01*
X170233708Y-34759526D01*
X170229461Y-34753991D01*
X170204263Y-34688824D01*
X170218298Y-34620378D01*
X170267110Y-34570386D01*
X170327833Y-34554500D01*
X178041799Y-34554500D01*
X178108838Y-34574185D01*
X178129480Y-34590819D01*
X180209181Y-36670520D01*
X180242666Y-36731843D01*
X180245500Y-36758201D01*
X180245500Y-39404799D01*
X180225815Y-39471838D01*
X180173011Y-39517593D01*
X180103853Y-39527537D01*
X180040297Y-39498512D01*
X180033819Y-39492480D01*
X179265818Y-38724479D01*
X179232333Y-38663156D01*
X179229499Y-38636798D01*
X179229499Y-38304936D01*
X179229499Y-38304934D01*
X179214734Y-38230699D01*
X179195197Y-38201460D01*
X179158484Y-38146515D01*
X179108019Y-38112796D01*
X179074301Y-38090266D01*
X179074299Y-38090265D01*
X179074296Y-38090264D01*
X179000069Y-38075500D01*
X178379936Y-38075500D01*
X178305698Y-38090266D01*
X178221515Y-38146515D01*
X178213101Y-38159109D01*
X178159488Y-38203913D01*
X178090163Y-38212619D01*
X178027136Y-38182463D01*
X178006899Y-38159109D01*
X177998484Y-38146515D01*
X177948019Y-38112796D01*
X177914301Y-38090266D01*
X177914299Y-38090265D01*
X177914296Y-38090264D01*
X177840069Y-38075500D01*
X177219936Y-38075500D01*
X177145698Y-38090266D01*
X177061515Y-38146515D01*
X177005266Y-38230699D01*
X177005264Y-38230703D01*
X176990500Y-38304928D01*
X176990500Y-38995063D01*
X177005266Y-39069301D01*
X177061515Y-39153484D01*
X177073686Y-39161616D01*
X177145699Y-39209734D01*
X177145702Y-39209734D01*
X177145703Y-39209735D01*
X177170666Y-39214700D01*
X177219933Y-39224500D01*
X177551798Y-39224499D01*
X177618837Y-39244183D01*
X177639479Y-39260818D01*
X179009181Y-40630519D01*
X179042666Y-40691842D01*
X179045500Y-40718200D01*
X179045500Y-42914799D01*
X179025815Y-42981838D01*
X178973011Y-43027593D01*
X178903853Y-43037537D01*
X178840297Y-43008512D01*
X178833819Y-43002480D01*
X174757669Y-38926330D01*
X174757668Y-38926329D01*
X174676832Y-38879659D01*
X174676833Y-38879659D01*
X174646778Y-38871606D01*
X174586671Y-38855500D01*
X174586669Y-38855500D01*
X170298201Y-38855500D01*
X170231162Y-38835815D01*
X170210520Y-38819181D01*
X169017669Y-37626330D01*
X169017668Y-37626329D01*
X168936832Y-37579659D01*
X168936833Y-37579659D01*
X168906778Y-37571606D01*
X168846671Y-37555500D01*
X168846669Y-37555500D01*
X165870815Y-37555500D01*
X165803776Y-37535815D01*
X165758021Y-37483011D01*
X165747876Y-37415316D01*
X165754500Y-37364998D01*
X165754500Y-36635010D01*
X165754500Y-36635004D01*
X165724480Y-36406980D01*
X165664954Y-36184824D01*
X165576940Y-35972339D01*
X165570123Y-35960532D01*
X165461944Y-35773160D01*
X165321935Y-35590696D01*
X165321929Y-35590689D01*
X165159310Y-35428070D01*
X165159303Y-35428064D01*
X164976839Y-35288055D01*
X164777664Y-35173061D01*
X164777654Y-35173057D01*
X164565185Y-35085049D01*
X164565178Y-35085047D01*
X164565176Y-35085046D01*
X164343020Y-35025520D01*
X164343014Y-35025519D01*
X164343009Y-35025518D01*
X164115005Y-34995501D01*
X164115002Y-34995500D01*
X164114996Y-34995500D01*
X163885004Y-34995500D01*
X163884998Y-34995500D01*
X163884994Y-34995501D01*
X163656990Y-35025518D01*
X163656983Y-35025519D01*
X163656980Y-35025520D01*
X163651453Y-35027001D01*
X163434824Y-35085046D01*
X163434814Y-35085049D01*
X163222345Y-35173057D01*
X163222335Y-35173061D01*
X163023160Y-35288055D01*
X162840696Y-35428064D01*
X162840689Y-35428070D01*
X162678070Y-35590689D01*
X162678064Y-35590696D01*
X162538055Y-35773160D01*
X162423061Y-35972335D01*
X162423057Y-35972345D01*
X162335049Y-36184814D01*
X162335046Y-36184824D01*
X162318526Y-36246480D01*
X162275521Y-36406977D01*
X162275518Y-36406990D01*
X162245501Y-36634994D01*
X162245500Y-36635004D01*
X162245500Y-37364996D01*
X162245500Y-37365002D01*
X162245501Y-37365005D01*
X162275518Y-37593009D01*
X162275519Y-37593014D01*
X162275520Y-37593020D01*
X162335046Y-37815175D01*
X162335049Y-37815185D01*
X162423057Y-38027654D01*
X162423061Y-38027664D01*
X162538055Y-38226839D01*
X162613653Y-38325361D01*
X162638847Y-38390530D01*
X162624808Y-38458975D01*
X162575994Y-38508965D01*
X162507903Y-38524628D01*
X162476065Y-38518484D01*
X162301155Y-38460181D01*
X162260659Y-38450215D01*
X162260655Y-38450214D01*
X162236335Y-38446267D01*
X162221432Y-38443849D01*
X162187291Y-38441097D01*
X162179877Y-38440500D01*
X149919500Y-38440500D01*
X149910814Y-38437949D01*
X149901853Y-38439238D01*
X149877812Y-38428259D01*
X149852461Y-38420815D01*
X149846533Y-38413974D01*
X149838297Y-38410213D01*
X149824007Y-38387978D01*
X149806706Y-38368011D01*
X149804418Y-38357496D01*
X149800523Y-38351435D01*
X149795500Y-38316500D01*
X149795500Y-38268499D01*
X149815185Y-38201460D01*
X149867989Y-38155705D01*
X149919500Y-38144499D01*
X150995064Y-38144499D01*
X150995066Y-38144499D01*
X151069301Y-38129734D01*
X151153484Y-38073484D01*
X151209734Y-37989301D01*
X151224500Y-37915067D01*
X151224499Y-36988199D01*
X151244183Y-36921161D01*
X151260813Y-36900524D01*
X151600519Y-36560819D01*
X151661842Y-36527334D01*
X151688200Y-36524500D01*
X151832999Y-36524500D01*
X151833001Y-36524500D01*
X151974029Y-36486712D01*
X152100471Y-36413711D01*
X152203711Y-36310471D01*
X152276712Y-36184029D01*
X152314500Y-36043001D01*
X152314500Y-35896999D01*
X152276712Y-35755971D01*
X152218128Y-35654500D01*
X152203713Y-35629532D01*
X152203709Y-35629527D01*
X152100472Y-35526290D01*
X152100467Y-35526286D01*
X151974031Y-35453289D01*
X151974030Y-35453288D01*
X151974029Y-35453288D01*
X151833001Y-35415500D01*
X151686999Y-35415500D01*
X151545971Y-35453288D01*
X151545968Y-35453289D01*
X151419532Y-35526286D01*
X151419527Y-35526290D01*
X151316290Y-35629527D01*
X151316286Y-35629532D01*
X151243289Y-35755968D01*
X151243288Y-35755971D01*
X151205500Y-35896999D01*
X151205500Y-35901798D01*
X151185815Y-35968837D01*
X151169181Y-35989479D01*
X150759479Y-36399181D01*
X150698156Y-36432666D01*
X150671798Y-36435500D01*
X149744936Y-36435500D01*
X149670698Y-36450266D01*
X149586515Y-36506515D01*
X149530266Y-36590699D01*
X149530264Y-36590703D01*
X149515500Y-36664928D01*
X149515500Y-37453678D01*
X149495815Y-37520717D01*
X149443011Y-37566472D01*
X149373853Y-37576416D01*
X149344048Y-37568239D01*
X149281624Y-37542382D01*
X149281614Y-37542379D01*
X149141457Y-37514500D01*
X149141455Y-37514500D01*
X148998545Y-37514500D01*
X148998543Y-37514500D01*
X148858385Y-37542379D01*
X148858379Y-37542381D01*
X148726349Y-37597069D01*
X148726340Y-37597074D01*
X148607521Y-37676467D01*
X148607517Y-37676470D01*
X148506470Y-37777517D01*
X148506467Y-37777521D01*
X148427074Y-37896340D01*
X148427069Y-37896349D01*
X148372381Y-38028379D01*
X148372379Y-38028385D01*
X148344500Y-38168542D01*
X148344500Y-38168545D01*
X148344500Y-38311455D01*
X148344500Y-38311457D01*
X148344499Y-38311457D01*
X148372379Y-38451614D01*
X148372381Y-38451620D01*
X148427069Y-38583650D01*
X148427074Y-38583659D01*
X148506467Y-38702478D01*
X148506470Y-38702482D01*
X148607517Y-38803529D01*
X148607521Y-38803532D01*
X148726340Y-38882925D01*
X148726346Y-38882928D01*
X148726347Y-38882929D01*
X148858380Y-38937619D01*
X148930049Y-38951875D01*
X148947729Y-38955392D01*
X149009640Y-38987777D01*
X149044214Y-39048492D01*
X149040475Y-39118262D01*
X149014189Y-39161616D01*
X148764755Y-39428867D01*
X148761454Y-39432471D01*
X148758447Y-39435815D01*
X148758446Y-39435817D01*
X148715387Y-39501496D01*
X148686364Y-39565046D01*
X148670971Y-39608680D01*
X148665554Y-39709783D01*
X148665554Y-39709789D01*
X148675498Y-39778944D01*
X148686740Y-39826519D01*
X148682999Y-39896289D01*
X148642133Y-39952961D01*
X148634955Y-39958136D01*
X148607523Y-39976465D01*
X148607517Y-39976470D01*
X148506470Y-40077517D01*
X148506467Y-40077521D01*
X148452911Y-40157673D01*
X148399298Y-40202478D01*
X148329973Y-40211185D01*
X148321144Y-40209423D01*
X148269388Y-40197125D01*
X148269383Y-40197124D01*
X148199570Y-40194544D01*
X148199564Y-40194544D01*
X148153374Y-40196962D01*
X148153371Y-40196963D01*
X148112898Y-40211185D01*
X148057844Y-40230530D01*
X148057842Y-40230531D01*
X148057837Y-40230533D01*
X147997715Y-40266104D01*
X147997711Y-40266107D01*
X147940143Y-40312382D01*
X147415151Y-40874872D01*
X147355018Y-40910450D01*
X147285196Y-40907870D01*
X147227853Y-40867951D01*
X147201194Y-40803367D01*
X147200500Y-40790264D01*
X147200500Y-33724500D01*
X147220185Y-33657461D01*
X147272989Y-33611706D01*
X147324500Y-33600500D01*
X159345808Y-33600500D01*
X159412847Y-33620185D01*
G37*
%TD.AperFunction*%
%TD*%
M02*
