  0
SECTION
  2
HEADER
  9
$ANGBASE
  50
0.0
  9
$ANGDIR
  70
1
  9
$MEASUREMENT
  70
0
  9
$INSUNITS
  70
1
  0
ENDSEC
  0
SECTION
  2
TABLES
  0
TABLE
  2
LTYPE
  70
4
  0
LTYPE
  5
40F
  2
CONTINUOUS
  70
0
  3
Solid line
  72
65
  73
0
  40
0.0
  0
LTYPE
  5
410
  2
DASHDOT
 70
0
  3
Dash Dot ____ _ ____ _
 72
65
 73
4
 40
2.0
 49
1.25
 49
-0.25
 49
0.25
 49
-0.25
  0
LTYPE
  5
411
  2
DASHED
 70
0
  3
Dashed __ __ __ __ __
 72
65
 73
2
 40
0.75
 49
0.5
 49
-0.25
  0
LTYPE
  5
43B
  2
DOTTED
 70
0
  3
Dotted .  .  .  .
 72
65
 73
2
 40
0.2
 49
0.0
 49
-0.2
  0
ENDTAB
  0
TABLE
  2
STYLE
  70
4
  0
STYLE
  2
KICAD
  70
0
  40
0
  41
1
  42
1
  50
0
  71
0
  3
isocp.shx
  0
STYLE
  2
KICADB
  70
0
  40
0
  41
1
  42
1
  50
0
  71
0
  3
isocp.shx
  0
STYLE
  2
KICADI
  70
0
  40
0
  41
1
  42
1
  50
15
  71
0
  3
isocp.shx
  0
STYLE
  2
KICADBI
  70
0
  40
0
  41
1
  42
1
  50
15
  71
0
  3
isocp.shx
  0
ENDTAB
  0
TABLE
  2
LAYER
  70
11
  0
LAYER
  2
F.Cu
  70
0
  62
13
  420
13120564
  6
CONTINUOUS
  0
LAYER
  2
In1.Cu
  70
0
  62
91
  420
8374399
  6
CONTINUOUS
  0
LAYER
  2
In2.Cu
  70
0
  62
33
  420
13532460
  6
CONTINUOUS
  0
LAYER
  2
B.Cu
  70
0
  62
153
  420
5078980
  6
CONTINUOUS
  0
LAYER
  2
F.Paste
  70
0
  62
253
  420
11837594
  6
CONTINUOUS
  0
LAYER
  2
B.Paste
  70
0
  62
132
  420
49858
  6
CONTINUOUS
  0
LAYER
  2
F.Silkscreen
  70
0
  62
41
  420
15920545
  6
CONTINUOUS
  0
LAYER
  2
B.Silkscreen
  70
0
  62
31
  420
15250087
  6
CONTINUOUS
  0
LAYER
  2
F.Mask
  70
0
  62
201
  420
14181631
  6
CONTINUOUS
  0
LAYER
  2
B.Mask
  70
0
  62
4
  420
196590
  6
CONTINUOUS
  0
LAYER
  2
Edge.Cuts
  70
0
  62
254
  420
13685453
  6
CONTINUOUS
  0
ENDTAB
  0
ENDSEC
  0
SECTION
  2
ENTITIES
0
LINE
8
B.Mask
6
CONTINUOUS
10
16.9946062992125988
20
-6.0107874015748033
11
16.8748031496062971
21
-6.0107874015748033
0
LINE
8
B.Mask
6
CONTINUOUS
10
16.8748031496062971
20
-6.0107874015748033
11
16.8748031496062971
21
-5.8118897637795275
0
LINE
8
B.Mask
6
CONTINUOUS
10
16.8748031496062971
20
-5.8118897637795275
11
16.9946062992125988
21
-5.8118897637795275
0
LINE
8
B.Mask
6
CONTINUOUS
10
16.9946062992125988
20
-5.8118897637795275
11
16.9946062992125988
21
-6.0107874015748033
0
LINE
8
B.Mask
6
CONTINUOUS
10
11.2280238976377955
20
-4.5037219685039371
11
11.2353682677165345
21
-4.5061083070866141
0
LINE
8
B.Mask
6
CONTINUOUS
10
11.2353682677165345
20
-4.5061083070866141
11
11.242248937007874
21
-4.5096141732283463
0
LINE
8
B.Mask
6
CONTINUOUS
10
11.242248937007874
20
-4.5096141732283463
11
11.248496456692914
21
-4.5141532677165355
0
LINE
8
B.Mask
6
CONTINUOUS
10
11.248496456692914
20
-4.5141532677165355
11
11.2539569685039371
21
-4.5196137795275586
0
LINE
8
B.Mask
6
CONTINUOUS
10
11.2539569685039371
20
-4.5196137795275586
11
11.2584960629921262
21
-4.5258612992125986
0
LINE
8
B.Mask
6
CONTINUOUS
10
11.2584960629921262
20
-4.5258612992125986
11
11.2620019291338576
21
-4.5327419685039372
0
LINE
8
B.Mask
6
CONTINUOUS
10
11.2620019291338576
20
-4.5327419685039372
11
11.2643882677165355
21
-4.5400863385826771
0
LINE
8
B.Mask
6
CONTINUOUS
10
11.2643882677165355
20
-4.5400863385826771
11
11.2655963385826769
21
-4.5477136220472438
0
LINE
8
B.Mask
6
CONTINUOUS
10
11.2655963385826769
20
-4.5477136220472438
11
11.2655963385826769
21
-4.5554359842519681
0
LINE
8
B.Mask
6
CONTINUOUS
10
11.2655963385826769
20
-4.5554359842519681
11
11.2643882677165355
21
-4.5630632677165357
0
LINE
8
B.Mask
6
CONTINUOUS
10
11.2643882677165355
20
-4.5630632677165357
11
11.2620019291338576
21
-4.5704076377952756
0
LINE
8
B.Mask
6
CONTINUOUS
10
11.2620019291338576
20
-4.5704076377952756
11
11.2584960629921262
21
-4.5772883070866142
0
LINE
8
B.Mask
6
CONTINUOUS
10
11.2584960629921262
20
-4.5772883070866142
11
11.2539569685039371
21
-4.5835358267716533
0
LINE
8
B.Mask
6
CONTINUOUS
10
11.2539569685039371
20
-4.5835358267716533
11
11.248496456692914
21
-4.5889963385826773
0
LINE
8
B.Mask
6
CONTINUOUS
10
11.248496456692914
20
-4.5889963385826773
11
11.242248937007874
21
-4.5935354330708664
0
LINE
8
B.Mask
6
CONTINUOUS
10
11.242248937007874
20
-4.5935354330708664
11
11.2353682677165345
21
-4.5970412992125986
0
LINE
8
B.Mask
6
CONTINUOUS
10
11.2353682677165345
20
-4.5970412992125986
11
11.2280238976377955
21
-4.5994276377952756
0
LINE
8
B.Mask
6
CONTINUOUS
10
11.2280238976377955
20
-4.5994276377952756
11
11.2203966141732288
21
-4.6006357086614171
0
LINE
8
B.Mask
6
CONTINUOUS
10
11.2203966141732288
20
-4.6006357086614171
11
11.2126742519685045
21
-4.6006357086614171
0
LINE
8
B.Mask
6
CONTINUOUS
10
11.2126742519685045
20
-4.6006357086614171
11
11.205046968503936
21
-4.5994276377952756
0
LINE
8
B.Mask
6
CONTINUOUS
10
11.205046968503936
20
-4.5994276377952756
11
11.197702598425197
21
-4.5970412992125986
0
LINE
8
B.Mask
6
CONTINUOUS
10
11.197702598425197
20
-4.5970412992125986
11
11.1908219291338575
21
-4.5935354330708664
0
LINE
8
B.Mask
6
CONTINUOUS
10
11.1908219291338575
20
-4.5935354330708664
11
11.1845744094488193
21
-4.5889963385826773
0
LINE
8
B.Mask
6
CONTINUOUS
10
11.1845744094488193
20
-4.5889963385826773
11
11.1791138976377944
21
-4.5835358267716533
0
LINE
8
B.Mask
6
CONTINUOUS
10
11.1791138976377944
20
-4.5835358267716533
11
11.1745748031496053
21
-4.5772883070866142
0
LINE
8
B.Mask
6
CONTINUOUS
10
11.1745748031496053
20
-4.5772883070866142
11
11.171068937007874
21
-4.5704076377952756
0
LINE
8
B.Mask
6
CONTINUOUS
10
11.171068937007874
20
-4.5704076377952756
11
11.1686825984251961
21
-4.5630632677165357
0
LINE
8
B.Mask
6
CONTINUOUS
10
11.1686825984251961
20
-4.5630632677165357
11
11.1674745275590546
21
-4.5554359842519681
0
LINE
8
B.Mask
6
CONTINUOUS
10
11.1674745275590546
20
-4.5554359842519681
11
11.1674745275590546
21
-4.5477136220472438
0
LINE
8
B.Mask
6
CONTINUOUS
10
11.1674745275590546
20
-4.5477136220472438
11
11.1686825984251961
21
-4.5400863385826771
0
LINE
8
B.Mask
6
CONTINUOUS
10
11.1686825984251961
20
-4.5400863385826771
11
11.171068937007874
21
-4.5327419685039372
0
LINE
8
B.Mask
6
CONTINUOUS
10
11.171068937007874
20
-4.5327419685039372
11
11.1745748031496053
21
-4.5258612992125986
0
LINE
8
B.Mask
6
CONTINUOUS
10
11.1745748031496053
20
-4.5258612992125986
11
11.1791138976377944
21
-4.5196137795275586
0
LINE
8
B.Mask
6
CONTINUOUS
10
11.1791138976377944
20
-4.5196137795275586
11
11.1845744094488193
21
-4.5141532677165355
0
LINE
8
B.Mask
6
CONTINUOUS
10
11.1845744094488193
20
-4.5141532677165355
11
11.1908219291338575
21
-4.5096141732283463
0
LINE
8
B.Mask
6
CONTINUOUS
10
11.1908219291338575
20
-4.5096141732283463
11
11.197702598425197
21
-4.5061083070866141
0
LINE
8
B.Mask
6
CONTINUOUS
10
11.197702598425197
20
-4.5061083070866141
11
11.205046968503936
21
-4.5037219685039371
0
LINE
8
B.Mask
6
CONTINUOUS
10
11.205046968503936
20
-4.5037219685039371
11
11.2126742519685045
21
-4.5025138976377947
0
LINE
8
B.Mask
6
CONTINUOUS
10
11.2126742519685045
20
-4.5025138976377947
11
11.2203966141732288
21
-4.5025138976377947
0
LINE
8
B.Mask
6
CONTINUOUS
10
11.2203966141732288
20
-4.5025138976377947
11
11.2280238976377955
21
-4.5037219685039371
0
LINE
8
B.Mask
6
CONTINUOUS
10
11.0911490157480319
20
-4.4183303149606301
11
11.1008436220472433
21
-4.4214802755905511
0
LINE
8
B.Mask
6
CONTINUOUS
10
11.1008436220472433
20
-4.4214802755905511
11
11.1099261023622038
21
-4.4261080314960628
0
LINE
8
B.Mask
6
CONTINUOUS
10
11.1099261023622038
20
-4.4261080314960628
11
11.1181727952755907
21
-4.4320996062992126
0
LINE
8
B.Mask
6
CONTINUOUS
10
11.1181727952755907
20
-4.4320996062992126
11
11.1253807086614174
21
-4.4393075196850393
0
LINE
8
B.Mask
6
CONTINUOUS
10
11.1253807086614174
20
-4.4393075196850393
11
11.1313722834645663
21
-4.4475542125984253
0
LINE
8
B.Mask
6
CONTINUOUS
10
11.1313722834645663
20
-4.4475542125984253
11
11.136000039370078
21
-4.4566366929133858
0
LINE
8
B.Mask
6
CONTINUOUS
10
11.136000039370078
20
-4.4566366929133858
11
11.139149999999999
21
-4.4663312992125981
0
LINE
8
B.Mask
6
CONTINUOUS
10
11.139149999999999
20
-4.4663312992125981
11
11.1407446456692902
21
-4.4763992913385824
0
LINE
8
B.Mask
6
CONTINUOUS
10
11.1407446456692902
20
-4.4763992913385824
11
11.1407446456692902
21
-4.4865928346456689
0
LINE
8
B.Mask
6
CONTINUOUS
10
11.1407446456692902
20
-4.4865928346456689
11
11.139149999999999
21
-4.4966608267716532
0
LINE
8
B.Mask
6
CONTINUOUS
10
11.139149999999999
20
-4.4966608267716532
11
11.136000039370078
21
-4.5063554330708664
0
LINE
8
B.Mask
6
CONTINUOUS
10
11.136000039370078
20
-4.5063554330708664
11
11.1313722834645663
21
-4.5154379133858269
0
LINE
8
B.Mask
6
CONTINUOUS
10
11.1313722834645663
20
-4.5154379133858269
11
11.1253807086614174
21
-4.5236846062992129
0
LINE
8
B.Mask
6
CONTINUOUS
10
11.1253807086614174
20
-4.5236846062992129
11
11.1181727952755907
21
-4.5308925196850396
0
LINE
8
B.Mask
6
CONTINUOUS
10
11.1181727952755907
20
-4.5308925196850396
11
11.1099261023622038
21
-4.5368840944881885
0
LINE
8
B.Mask
6
CONTINUOUS
10
11.1099261023622038
20
-4.5368840944881885
11
11.1008436220472433
21
-4.5415118503937011
0
LINE
8
B.Mask
6
CONTINUOUS
10
11.1008436220472433
20
-4.5415118503937011
11
11.0911490157480319
21
-4.5446618110236221
0
LINE
8
B.Mask
6
CONTINUOUS
10
11.0911490157480319
20
-4.5446618110236221
11
11.0810810236220476
21
-4.5462564566929133
0
LINE
8
B.Mask
6
CONTINUOUS
10
11.0810810236220476
20
-4.5462564566929133
11
11.0708874803149602
21
-4.5462564566929133
0
LINE
8
B.Mask
6
CONTINUOUS
10
11.0708874803149602
20
-4.5462564566929133
11
11.0608194881889759
21
-4.5446618110236221
0
LINE
8
B.Mask
6
CONTINUOUS
10
11.0608194881889759
20
-4.5446618110236221
11
11.0511248818897627
21
-4.5415118503937011
0
LINE
8
B.Mask
6
CONTINUOUS
10
11.0511248818897627
20
-4.5415118503937011
11
11.0420424015748022
21
-4.5368840944881885
0
LINE
8
B.Mask
6
CONTINUOUS
10
11.0420424015748022
20
-4.5368840944881885
11
11.0337957086614171
21
-4.5308925196850396
0
LINE
8
B.Mask
6
CONTINUOUS
10
11.0337957086614171
20
-4.5308925196850396
11
11.0265877952755904
21
-4.5236846062992129
0
LINE
8
B.Mask
6
CONTINUOUS
10
11.0265877952755904
20
-4.5236846062992129
11
11.0205962204724415
21
-4.5154379133858269
0
LINE
8
B.Mask
6
CONTINUOUS
10
11.0205962204724415
20
-4.5154379133858269
11
11.015968464566928
21
-4.5063554330708664
0
LINE
8
B.Mask
6
CONTINUOUS
10
11.015968464566928
20
-4.5063554330708664
11
11.012818503937007
21
-4.4966608267716532
0
LINE
8
B.Mask
6
CONTINUOUS
10
11.012818503937007
20
-4.4966608267716532
11
11.0112238582677158
21
-4.4865928346456689
0
LINE
8
B.Mask
6
CONTINUOUS
10
11.0112238582677158
20
-4.4865928346456689
11
11.0112238582677158
21
-4.4763992913385824
0
LINE
8
B.Mask
6
CONTINUOUS
10
11.0112238582677158
20
-4.4763992913385824
11
11.012818503937007
21
-4.4663312992125981
0
LINE
8
B.Mask
6
CONTINUOUS
10
11.012818503937007
20
-4.4663312992125981
11
11.015968464566928
21
-4.4566366929133858
0
LINE
8
B.Mask
6
CONTINUOUS
10
11.015968464566928
20
-4.4566366929133858
11
11.0205962204724415
21
-4.4475542125984253
0
LINE
8
B.Mask
6
CONTINUOUS
10
11.0205962204724415
20
-4.4475542125984253
11
11.0265877952755904
21
-4.4393075196850393
0
LINE
8
B.Mask
6
CONTINUOUS
10
11.0265877952755904
20
-4.4393075196850393
11
11.0337957086614171
21
-4.4320996062992126
0
LINE
8
B.Mask
6
CONTINUOUS
10
11.0337957086614171
20
-4.4320996062992126
11
11.0420424015748022
21
-4.4261080314960628
0
LINE
8
B.Mask
6
CONTINUOUS
10
11.0420424015748022
20
-4.4261080314960628
11
11.0511248818897627
21
-4.4214802755905511
0
LINE
8
B.Mask
6
CONTINUOUS
10
11.0511248818897627
20
-4.4214802755905511
11
11.0608194881889759
21
-4.4183303149606301
0
LINE
8
B.Mask
6
CONTINUOUS
10
11.0608194881889759
20
-4.4183303149606301
11
11.0708874803149602
21
-4.4167356692913389
0
LINE
8
B.Mask
6
CONTINUOUS
10
11.0708874803149602
20
-4.4167356692913389
11
11.0810810236220476
21
-4.4167356692913389
0
LINE
8
B.Mask
6
CONTINUOUS
10
11.0810810236220476
20
-4.4167356692913389
11
11.0911490157480319
21
-4.4183303149606301
0
LINE
8
B.Mask
6
CONTINUOUS
10
11.444512440944882
20
-4.4729419291338584
11
11.4499315748031485
21
-4.4751866141732286
0
LINE
8
B.Mask
6
CONTINUOUS
10
11.4499315748031485
20
-4.4751866141732286
11
11.4548086220472438
21
-4.4784453543307086
0
LINE
8
B.Mask
6
CONTINUOUS
10
11.4548086220472438
20
-4.4784453543307086
11
11.4589562204724409
21
-4.4825929527559056
0
LINE
8
B.Mask
6
CONTINUOUS
10
11.4589562204724409
20
-4.4825929527559056
11
11.4622149606299217
21
-4.4874700000000001
0
LINE
8
B.Mask
6
CONTINUOUS
10
11.4622149606299217
20
-4.4874700000000001
11
11.4644596456692902
21
-4.4928891338582675
0
LINE
8
B.Mask
6
CONTINUOUS
10
11.4644596456692902
20
-4.4928891338582675
11
11.4656039370078737
21
-4.4986420078740155
0
LINE
8
B.Mask
6
CONTINUOUS
10
11.4656039370078737
20
-4.4986420078740155
11
11.4656039370078737
21
-4.5045075984251968
0
LINE
8
B.Mask
6
CONTINUOUS
10
11.4656039370078737
20
-4.5045075984251968
11
11.4644596456692902
21
-4.5102604724409447
0
LINE
8
B.Mask
6
CONTINUOUS
10
11.4644596456692902
20
-4.5102604724409447
11
11.4622149606299217
21
-4.5156796062992122
0
LINE
8
B.Mask
6
CONTINUOUS
10
11.4622149606299217
20
-4.5156796062992122
11
11.4589562204724409
21
-4.5205566535433066
0
LINE
8
B.Mask
6
CONTINUOUS
10
11.4589562204724409
20
-4.5205566535433066
11
11.4548086220472438
21
-4.5247042519685037
0
LINE
8
B.Mask
6
CONTINUOUS
10
11.4548086220472438
20
-4.5247042519685037
11
11.4499315748031485
21
-4.5279629921259845
0
LINE
8
B.Mask
6
CONTINUOUS
10
11.4499315748031485
20
-4.5279629921259845
11
11.444512440944882
21
-4.5302076771653539
0
LINE
8
B.Mask
6
CONTINUOUS
10
11.444512440944882
20
-4.5302076771653539
11
11.438759566929134
21
-4.5313519685039365
0
LINE
8
B.Mask
6
CONTINUOUS
10
11.438759566929134
20
-4.5313519685039365
11
11.4328939763779527
21
-4.5313519685039365
0
LINE
8
B.Mask
6
CONTINUOUS
10
11.4328939763779527
20
-4.5313519685039365
11
11.4271411023622047
21
-4.5302076771653539
0
LINE
8
B.Mask
6
CONTINUOUS
10
11.4271411023622047
20
-4.5302076771653539
11
11.4217219685039364
21
-4.5279629921259845
0
LINE
8
B.Mask
6
CONTINUOUS
10
11.4217219685039364
20
-4.5279629921259845
11
11.4168449212598428
21
-4.5247042519685037
0
LINE
8
B.Mask
6
CONTINUOUS
10
11.4168449212598428
20
-4.5247042519685037
11
11.4126973228346458
21
-4.5205566535433066
0
LINE
8
B.Mask
6
CONTINUOUS
10
11.4126973228346458
20
-4.5205566535433066
11
11.4094385826771649
21
-4.5156796062992122
0
LINE
8
B.Mask
6
CONTINUOUS
10
11.4094385826771649
20
-4.5156796062992122
11
11.4071938976377947
21
-4.5102604724409447
0
LINE
8
B.Mask
6
CONTINUOUS
10
11.4071938976377947
20
-4.5102604724409447
11
11.4060496062992129
21
-4.5045075984251968
0
LINE
8
B.Mask
6
CONTINUOUS
10
11.4060496062992129
20
-4.5045075984251968
11
11.4060496062992129
21
-4.4986420078740155
0
LINE
8
B.Mask
6
CONTINUOUS
10
11.4060496062992129
20
-4.4986420078740155
11
11.4071938976377947
21
-4.4928891338582675
0
LINE
8
B.Mask
6
CONTINUOUS
10
11.4071938976377947
20
-4.4928891338582675
11
11.4094385826771649
21
-4.4874700000000001
0
LINE
8
B.Mask
6
CONTINUOUS
10
11.4094385826771649
20
-4.4874700000000001
11
11.4126973228346458
21
-4.4825929527559056
0
LINE
8
B.Mask
6
CONTINUOUS
10
11.4126973228346458
20
-4.4825929527559056
11
11.4168449212598428
21
-4.4784453543307086
0
LINE
8
B.Mask
6
CONTINUOUS
10
11.4168449212598428
20
-4.4784453543307086
11
11.4217219685039364
21
-4.4751866141732286
0
LINE
8
B.Mask
6
CONTINUOUS
10
11.4217219685039364
20
-4.4751866141732286
11
11.4271411023622047
21
-4.4729419291338584
0
LINE
8
B.Mask
6
CONTINUOUS
10
11.4271411023622047
20
-4.4729419291338584
11
11.4328939763779527
21
-4.4717976377952757
0
LINE
8
B.Mask
6
CONTINUOUS
10
11.4328939763779527
20
-4.4717976377952757
11
11.438759566929134
21
-4.4717976377952757
0
LINE
8
B.Mask
6
CONTINUOUS
10
11.438759566929134
20
-4.4717976377952757
11
11.444512440944882
21
-4.4729419291338584
0
LINE
8
B.Mask
6
CONTINUOUS
10
11.444512440944882
20
-4.3827844488188976
11
11.4499315748031485
21
-4.3850291338582679
0
LINE
8
B.Mask
6
CONTINUOUS
10
11.4499315748031485
20
-4.3850291338582679
11
11.4548086220472438
21
-4.3882878740157478
0
LINE
8
B.Mask
6
CONTINUOUS
10
11.4548086220472438
20
-4.3882878740157478
11
11.4589562204724409
21
-4.3924354724409449
0
LINE
8
B.Mask
6
CONTINUOUS
10
11.4589562204724409
20
-4.3924354724409449
11
11.4622149606299217
21
-4.3973125196850393
0
LINE
8
B.Mask
6
CONTINUOUS
10
11.4622149606299217
20
-4.3973125196850393
11
11.4644596456692902
21
-4.4027316535433068
0
LINE
8
B.Mask
6
CONTINUOUS
10
11.4644596456692902
20
-4.4027316535433068
11
11.4656039370078737
21
-4.4084845275590547
0
LINE
8
B.Mask
6
CONTINUOUS
10
11.4656039370078737
20
-4.4084845275590547
11
11.4656039370078737
21
-4.414350118110236
0
LINE
8
B.Mask
6
CONTINUOUS
10
11.4656039370078737
20
-4.414350118110236
11
11.4644596456692902
21
-4.420102992125984
0
LINE
8
B.Mask
6
CONTINUOUS
10
11.4644596456692902
20
-4.420102992125984
11
11.4622149606299217
21
-4.4255221259842514
0
LINE
8
B.Mask
6
CONTINUOUS
10
11.4622149606299217
20
-4.4255221259842514
11
11.4589562204724409
21
-4.4303991732283468
0
LINE
8
B.Mask
6
CONTINUOUS
10
11.4589562204724409
20
-4.4303991732283468
11
11.4548086220472438
21
-4.4345467716535429
0
LINE
8
B.Mask
6
CONTINUOUS
10
11.4548086220472438
20
-4.4345467716535429
11
11.4499315748031485
21
-4.4378055118110238
0
LINE
8
B.Mask
6
CONTINUOUS
10
11.4499315748031485
20
-4.4378055118110238
11
11.444512440944882
21
-4.440050196850394
0
LINE
8
B.Mask
6
CONTINUOUS
10
11.444512440944882
20
-4.440050196850394
11
11.438759566929134
21
-4.4411944881889767
0
LINE
8
B.Mask
6
CONTINUOUS
10
11.438759566929134
20
-4.4411944881889767
11
11.4328939763779527
21
-4.4411944881889767
0
LINE
8
B.Mask
6
CONTINUOUS
10
11.4328939763779527
20
-4.4411944881889767
11
11.4271411023622047
21
-4.440050196850394
0
LINE
8
B.Mask
6
CONTINUOUS
10
11.4271411023622047
20
-4.440050196850394
11
11.4217219685039364
21
-4.4378055118110238
0
LINE
8
B.Mask
6
CONTINUOUS
10
11.4217219685039364
20
-4.4378055118110238
11
11.4168449212598428
21
-4.4345467716535429
0
LINE
8
B.Mask
6
CONTINUOUS
10
11.4168449212598428
20
-4.4345467716535429
11
11.4126973228346458
21
-4.4303991732283468
0
LINE
8
B.Mask
6
CONTINUOUS
10
11.4126973228346458
20
-4.4303991732283468
11
11.4094385826771649
21
-4.4255221259842514
0
LINE
8
B.Mask
6
CONTINUOUS
10
11.4094385826771649
20
-4.4255221259842514
11
11.4071938976377947
21
-4.420102992125984
0
LINE
8
B.Mask
6
CONTINUOUS
10
11.4071938976377947
20
-4.420102992125984
11
11.4060496062992129
21
-4.414350118110236
0
LINE
8
B.Mask
6
CONTINUOUS
10
11.4060496062992129
20
-4.414350118110236
11
11.4060496062992129
21
-4.4084845275590547
0
LINE
8
B.Mask
6
CONTINUOUS
10
11.4060496062992129
20
-4.4084845275590547
11
11.4071938976377947
21
-4.4027316535433068
0
LINE
8
B.Mask
6
CONTINUOUS
10
11.4071938976377947
20
-4.4027316535433068
11
11.4094385826771649
21
-4.3973125196850393
0
LINE
8
B.Mask
6
CONTINUOUS
10
11.4094385826771649
20
-4.3973125196850393
11
11.4126973228346458
21
-4.3924354724409449
0
LINE
8
B.Mask
6
CONTINUOUS
10
11.4126973228346458
20
-4.3924354724409449
11
11.4168449212598428
21
-4.3882878740157478
0
LINE
8
B.Mask
6
CONTINUOUS
10
11.4168449212598428
20
-4.3882878740157478
11
11.4217219685039364
21
-4.3850291338582679
0
LINE
8
B.Mask
6
CONTINUOUS
10
11.4217219685039364
20
-4.3850291338582679
11
11.4271411023622047
21
-4.3827844488188976
0
LINE
8
B.Mask
6
CONTINUOUS
10
11.4271411023622047
20
-4.3827844488188976
11
11.4328939763779527
21
-4.381640157480315
0
LINE
8
B.Mask
6
CONTINUOUS
10
11.4328939763779527
20
-4.381640157480315
11
11.438759566929134
21
-4.381640157480315
0
LINE
8
B.Mask
6
CONTINUOUS
10
11.438759566929134
20
-4.381640157480315
11
11.444512440944882
21
-4.3827844488188976
0
LINE
8
B.Mask
6
CONTINUOUS
10
11.1846699212598431
20
-4.3434143700787402
11
11.1900890551181096
21
-4.3456590551181105
0
LINE
8
B.Mask
6
CONTINUOUS
10
11.1900890551181096
20
-4.3456590551181105
11
11.1949661023622049
21
-4.3489177952755904
0
LINE
8
B.Mask
6
CONTINUOUS
10
11.1949661023622049
20
-4.3489177952755904
11
11.199113700787402
21
-4.3530653937007875
0
LINE
8
B.Mask
6
CONTINUOUS
10
11.199113700787402
20
-4.3530653937007875
11
11.202372440944881
21
-4.3579424409448819
0
LINE
8
B.Mask
6
CONTINUOUS
10
11.202372440944881
20
-4.3579424409448819
11
11.2046171259842513
21
-4.3633615748031493
0
LINE
8
B.Mask
6
CONTINUOUS
10
11.2046171259842513
20
-4.3633615748031493
11
11.2057614173228348
21
-4.3691144488188973
0
LINE
8
B.Mask
6
CONTINUOUS
10
11.2057614173228348
20
-4.3691144488188973
11
11.2057614173228348
21
-4.3749800393700786
0
LINE
8
B.Mask
6
CONTINUOUS
10
11.2057614173228348
20
-4.3749800393700786
11
11.2046171259842513
21
-4.3807329133858266
0
LINE
8
B.Mask
6
CONTINUOUS
10
11.2046171259842513
20
-4.3807329133858266
11
11.202372440944881
21
-4.386152047244094
0
LINE
8
B.Mask
6
CONTINUOUS
10
11.202372440944881
20
-4.386152047244094
11
11.199113700787402
21
-4.3910290944881885
0
LINE
8
B.Mask
6
CONTINUOUS
10
11.199113700787402
20
-4.3910290944881885
11
11.1949661023622049
21
-4.3951766929133855
0
LINE
8
B.Mask
6
CONTINUOUS
10
11.1949661023622049
20
-4.3951766929133855
11
11.1900890551181096
21
-4.3984354330708664
0
LINE
8
B.Mask
6
CONTINUOUS
10
11.1900890551181096
20
-4.3984354330708664
11
11.1846699212598431
21
-4.4006801181102357
0
LINE
8
B.Mask
6
CONTINUOUS
10
11.1846699212598431
20
-4.4006801181102357
11
11.1789170472440951
21
-4.4018244094488184
0
LINE
8
B.Mask
6
CONTINUOUS
10
11.1789170472440951
20
-4.4018244094488184
11
11.1730514566929138
21
-4.4018244094488184
0
LINE
8
B.Mask
6
CONTINUOUS
10
11.1730514566929138
20
-4.4018244094488184
11
11.1672985826771658
21
-4.4006801181102357
0
LINE
8
B.Mask
6
CONTINUOUS
10
11.1672985826771658
20
-4.4006801181102357
11
11.1618794488188975
21
-4.3984354330708664
0
LINE
8
B.Mask
6
CONTINUOUS
10
11.1618794488188975
20
-4.3984354330708664
11
11.1570024015748022
21
-4.3951766929133855
0
LINE
8
B.Mask
6
CONTINUOUS
10
11.1570024015748022
20
-4.3951766929133855
11
11.1528548031496069
21
-4.3910290944881885
0
LINE
8
B.Mask
6
CONTINUOUS
10
11.1528548031496069
20
-4.3910290944881885
11
11.149596062992126
21
-4.386152047244094
0
LINE
8
B.Mask
6
CONTINUOUS
10
11.149596062992126
20
-4.386152047244094
11
11.1473513779527558
21
-4.3807329133858266
0
LINE
8
B.Mask
6
CONTINUOUS
10
11.1473513779527558
20
-4.3807329133858266
11
11.1462070866141723
21
-4.3749800393700786
0
LINE
8
B.Mask
6
CONTINUOUS
10
11.1462070866141723
20
-4.3749800393700786
11
11.1462070866141723
21
-4.3691144488188973
0
LINE
8
B.Mask
6
CONTINUOUS
10
11.1462070866141723
20
-4.3691144488188973
11
11.1473513779527558
21
-4.3633615748031493
0
LINE
8
B.Mask
6
CONTINUOUS
10
11.1473513779527558
20
-4.3633615748031493
11
11.149596062992126
21
-4.3579424409448819
0
LINE
8
B.Mask
6
CONTINUOUS
10
11.149596062992126
20
-4.3579424409448819
11
11.1528548031496069
21
-4.3530653937007875
0
LINE
8
B.Mask
6
CONTINUOUS
10
11.1528548031496069
20
-4.3530653937007875
11
11.1570024015748022
21
-4.3489177952755904
0
LINE
8
B.Mask
6
CONTINUOUS
10
11.1570024015748022
20
-4.3489177952755904
11
11.1618794488188975
21
-4.3456590551181105
0
LINE
8
B.Mask
6
CONTINUOUS
10
11.1618794488188975
20
-4.3456590551181105
11
11.1672985826771658
21
-4.3434143700787402
0
LINE
8
B.Mask
6
CONTINUOUS
10
11.1672985826771658
20
-4.3434143700787402
11
11.1730514566929138
21
-4.3422700787401576
0
LINE
8
B.Mask
6
CONTINUOUS
10
11.1730514566929138
20
-4.3422700787401576
11
11.1789170472440951
21
-4.3422700787401576
0
LINE
8
B.Mask
6
CONTINUOUS
10
11.1789170472440951
20
-4.3422700787401576
11
11.1846699212598431
21
-4.3434143700787402
0
LINE
8
B.Mask
6
CONTINUOUS
10
11.2551423622047242
20
-4.3032568897637793
11
11.2605614960629925
21
-4.3055015748031495
0
LINE
8
B.Mask
6
CONTINUOUS
10
11.2605614960629925
20
-4.3055015748031495
11
11.2654385433070861
21
-4.3087603149606295
0
LINE
8
B.Mask
6
CONTINUOUS
10
11.2654385433070861
20
-4.3087603149606295
11
11.2695861417322831
21
-4.3129079133858266
0
LINE
8
B.Mask
6
CONTINUOUS
10
11.2695861417322831
20
-4.3129079133858266
11
11.272844881889764
21
-4.317784960629921
0
LINE
8
B.Mask
6
CONTINUOUS
10
11.272844881889764
20
-4.317784960629921
11
11.2750895669291342
21
-4.3232040944881893
0
LINE
8
B.Mask
6
CONTINUOUS
10
11.2750895669291342
20
-4.3232040944881893
11
11.276233858267716
21
-4.3289569685039373
0
LINE
8
B.Mask
6
CONTINUOUS
10
11.276233858267716
20
-4.3289569685039373
11
11.276233858267716
21
-4.3348225590551177
0
LINE
8
B.Mask
6
CONTINUOUS
10
11.276233858267716
20
-4.3348225590551177
11
11.2750895669291342
21
-4.3405754330708657
0
LINE
8
B.Mask
6
CONTINUOUS
10
11.2750895669291342
20
-4.3405754330708657
11
11.272844881889764
21
-4.345994566929134
0
LINE
8
B.Mask
6
CONTINUOUS
10
11.272844881889764
20
-4.345994566929134
11
11.2695861417322831
21
-4.3508716141732284
0
LINE
8
B.Mask
6
CONTINUOUS
10
11.2695861417322831
20
-4.3508716141732284
11
11.2654385433070861
21
-4.3550192125984255
0
LINE
8
B.Mask
6
CONTINUOUS
10
11.2654385433070861
20
-4.3550192125984255
11
11.2605614960629925
21
-4.3582779527559055
0
LINE
8
B.Mask
6
CONTINUOUS
10
11.2605614960629925
20
-4.3582779527559055
11
11.2551423622047242
21
-4.3605226377952757
0
LINE
8
B.Mask
6
CONTINUOUS
10
11.2551423622047242
20
-4.3605226377952757
11
11.2493894881889762
21
-4.3616669291338583
0
LINE
8
B.Mask
6
CONTINUOUS
10
11.2493894881889762
20
-4.3616669291338583
11
11.2435238976377949
21
-4.3616669291338583
0
LINE
8
B.Mask
6
CONTINUOUS
10
11.2435238976377949
20
-4.3616669291338583
11
11.2377710236220469
21
-4.3605226377952757
0
LINE
8
B.Mask
6
CONTINUOUS
10
11.2377710236220469
20
-4.3605226377952757
11
11.2323518897637786
21
-4.3582779527559055
0
LINE
8
B.Mask
6
CONTINUOUS
10
11.2323518897637786
20
-4.3582779527559055
11
11.2274748425196851
21
-4.3550192125984255
0
LINE
8
B.Mask
6
CONTINUOUS
10
11.2274748425196851
20
-4.3550192125984255
11
11.223327244094488
21
-4.3508716141732284
0
LINE
8
B.Mask
6
CONTINUOUS
10
11.223327244094488
20
-4.3508716141732284
11
11.2200685039370072
21
-4.345994566929134
0
LINE
8
B.Mask
6
CONTINUOUS
10
11.2200685039370072
20
-4.345994566929134
11
11.2178238188976369
21
-4.3405754330708657
0
LINE
8
B.Mask
6
CONTINUOUS
10
11.2178238188976369
20
-4.3405754330708657
11
11.2166795275590552
21
-4.3348225590551177
0
LINE
8
B.Mask
6
CONTINUOUS
10
11.2166795275590552
20
-4.3348225590551177
11
11.2166795275590552
21
-4.3289569685039373
0
LINE
8
B.Mask
6
CONTINUOUS
10
11.2166795275590552
20
-4.3289569685039373
11
11.2178238188976369
21
-4.3232040944881893
0
LINE
8
B.Mask
6
CONTINUOUS
10
11.2178238188976369
20
-4.3232040944881893
11
11.2200685039370072
21
-4.317784960629921
0
LINE
8
B.Mask
6
CONTINUOUS
10
11.2200685039370072
20
-4.317784960629921
11
11.223327244094488
21
-4.3129079133858266
0
LINE
8
B.Mask
6
CONTINUOUS
10
11.223327244094488
20
-4.3129079133858266
11
11.2274748425196851
21
-4.3087603149606295
0
LINE
8
B.Mask
6
CONTINUOUS
10
11.2274748425196851
20
-4.3087603149606295
11
11.2323518897637786
21
-4.3055015748031495
0
LINE
8
B.Mask
6
CONTINUOUS
10
11.2323518897637786
20
-4.3055015748031495
11
11.2377710236220469
21
-4.3032568897637793
0
LINE
8
B.Mask
6
CONTINUOUS
10
11.2377710236220469
20
-4.3032568897637793
11
11.2435238976377949
21
-4.3021125984251967
0
LINE
8
B.Mask
6
CONTINUOUS
10
11.2435238976377949
20
-4.3021125984251967
11
11.2493894881889762
21
-4.3021125984251967
0
LINE
8
B.Mask
6
CONTINUOUS
10
11.2493894881889762
20
-4.3021125984251967
11
11.2551423622047242
21
-4.3032568897637793
0
LINE
8
B.Mask
6
CONTINUOUS
10
11.1846699212598431
20
-4.2630994094488184
11
11.1900890551181096
21
-4.2653440944881886
0
LINE
8
B.Mask
6
CONTINUOUS
10
11.1900890551181096
20
-4.2653440944881886
11
11.1949661023622049
21
-4.2686028346456695
0
LINE
8
B.Mask
6
CONTINUOUS
10
11.1949661023622049
20
-4.2686028346456695
11
11.199113700787402
21
-4.2727504330708657
0
LINE
8
B.Mask
6
CONTINUOUS
10
11.199113700787402
20
-4.2727504330708657
11
11.202372440944881
21
-4.2776274803149601
0
LINE
8
B.Mask
6
CONTINUOUS
10
11.202372440944881
20
-4.2776274803149601
11
11.2046171259842513
21
-4.2830466141732284
0
LINE
8
B.Mask
6
CONTINUOUS
10
11.2046171259842513
20
-4.2830466141732284
11
11.2057614173228348
21
-4.2887994881889764
0
LINE
8
B.Mask
6
CONTINUOUS
10
11.2057614173228348
20
-4.2887994881889764
11
11.2057614173228348
21
-4.2946650787401577
0
LINE
8
B.Mask
6
CONTINUOUS
10
11.2057614173228348
20
-4.2946650787401577
11
11.2046171259842513
21
-4.3004179527559057
0
LINE
8
B.Mask
6
CONTINUOUS
10
11.2046171259842513
20
-4.3004179527559057
11
11.202372440944881
21
-4.3058370866141731
0
LINE
8
B.Mask
6
CONTINUOUS
10
11.202372440944881
20
-4.3058370866141731
11
11.199113700787402
21
-4.3107141338582675
0
LINE
8
B.Mask
6
CONTINUOUS
10
11.199113700787402
20
-4.3107141338582675
11
11.1949661023622049
21
-4.3148617322834646
0
LINE
8
B.Mask
6
CONTINUOUS
10
11.1949661023622049
20
-4.3148617322834646
11
11.1900890551181096
21
-4.3181204724409445
0
LINE
8
B.Mask
6
CONTINUOUS
10
11.1900890551181096
20
-4.3181204724409445
11
11.1846699212598431
21
-4.3203651574803148
0
LINE
8
B.Mask
6
CONTINUOUS
10
11.1846699212598431
20
-4.3203651574803148
11
11.1789170472440951
21
-4.3215094488188974
0
LINE
8
B.Mask
6
CONTINUOUS
10
11.1789170472440951
20
-4.3215094488188974
11
11.1730514566929138
21
-4.3215094488188974
0
LINE
8
B.Mask
6
CONTINUOUS
10
11.1730514566929138
20
-4.3215094488188974
11
11.1672985826771658
21
-4.3203651574803148
0
LINE
8
B.Mask
6
CONTINUOUS
10
11.1672985826771658
20
-4.3203651574803148
11
11.1618794488188975
21
-4.3181204724409445
0
LINE
8
B.Mask
6
CONTINUOUS
10
11.1618794488188975
20
-4.3181204724409445
11
11.1570024015748022
21
-4.3148617322834646
0
LINE
8
B.Mask
6
CONTINUOUS
10
11.1570024015748022
20
-4.3148617322834646
11
11.1528548031496069
21
-4.3107141338582675
0
LINE
8
B.Mask
6
CONTINUOUS
10
11.1528548031496069
20
-4.3107141338582675
11
11.149596062992126
21
-4.3058370866141731
0
LINE
8
B.Mask
6
CONTINUOUS
10
11.149596062992126
20
-4.3058370866141731
11
11.1473513779527558
21
-4.3004179527559057
0
LINE
8
B.Mask
6
CONTINUOUS
10
11.1473513779527558
20
-4.3004179527559057
11
11.1462070866141723
21
-4.2946650787401577
0
LINE
8
B.Mask
6
CONTINUOUS
10
11.1462070866141723
20
-4.2946650787401577
11
11.1462070866141723
21
-4.2887994881889764
0
LINE
8
B.Mask
6
CONTINUOUS
10
11.1462070866141723
20
-4.2887994881889764
11
11.1473513779527558
21
-4.2830466141732284
0
LINE
8
B.Mask
6
CONTINUOUS
10
11.1473513779527558
20
-4.2830466141732284
11
11.149596062992126
21
-4.2776274803149601
0
LINE
8
B.Mask
6
CONTINUOUS
10
11.149596062992126
20
-4.2776274803149601
11
11.1528548031496069
21
-4.2727504330708657
0
LINE
8
B.Mask
6
CONTINUOUS
10
11.1528548031496069
20
-4.2727504330708657
11
11.1570024015748022
21
-4.2686028346456695
0
LINE
8
B.Mask
6
CONTINUOUS
10
11.1570024015748022
20
-4.2686028346456695
11
11.1618794488188975
21
-4.2653440944881886
0
LINE
8
B.Mask
6
CONTINUOUS
10
11.1618794488188975
20
-4.2653440944881886
11
11.1672985826771658
21
-4.2630994094488184
0
LINE
8
B.Mask
6
CONTINUOUS
10
11.1672985826771658
20
-4.2630994094488184
11
11.1730514566929138
21
-4.2619551181102358
0
LINE
8
B.Mask
6
CONTINUOUS
10
11.1730514566929138
20
-4.2619551181102358
11
11.1789170472440951
21
-4.2619551181102358
0
LINE
8
B.Mask
6
CONTINUOUS
10
11.1789170472440951
20
-4.2619551181102358
11
11.1846699212598431
21
-4.2630994094488184
0
LINE
8
B.Mask
6
CONTINUOUS
10
11.2551423622047242
20
-4.2229419291338584
11
11.2605614960629925
21
-4.2251866141732286
0
LINE
8
B.Mask
6
CONTINUOUS
10
11.2605614960629925
20
-4.2251866141732286
11
11.2654385433070861
21
-4.2284453543307086
0
LINE
8
B.Mask
6
CONTINUOUS
10
11.2654385433070861
20
-4.2284453543307086
11
11.2695861417322831
21
-4.2325929527559056
0
LINE
8
B.Mask
6
CONTINUOUS
10
11.2695861417322831
20
-4.2325929527559056
11
11.272844881889764
21
-4.2374700000000001
0
LINE
8
B.Mask
6
CONTINUOUS
10
11.272844881889764
20
-4.2374700000000001
11
11.2750895669291342
21
-4.2428891338582675
0
LINE
8
B.Mask
6
CONTINUOUS
10
11.2750895669291342
20
-4.2428891338582675
11
11.276233858267716
21
-4.2486420078740155
0
LINE
8
B.Mask
6
CONTINUOUS
10
11.276233858267716
20
-4.2486420078740155
11
11.276233858267716
21
-4.2545075984251968
0
LINE
8
B.Mask
6
CONTINUOUS
10
11.276233858267716
20
-4.2545075984251968
11
11.2750895669291342
21
-4.2602604724409447
0
LINE
8
B.Mask
6
CONTINUOUS
10
11.2750895669291342
20
-4.2602604724409447
11
11.272844881889764
21
-4.2656796062992122
0
LINE
8
B.Mask
6
CONTINUOUS
10
11.272844881889764
20
-4.2656796062992122
11
11.2695861417322831
21
-4.2705566535433066
0
LINE
8
B.Mask
6
CONTINUOUS
10
11.2695861417322831
20
-4.2705566535433066
11
11.2654385433070861
21
-4.2747042519685037
0
LINE
8
B.Mask
6
CONTINUOUS
10
11.2654385433070861
20
-4.2747042519685037
11
11.2605614960629925
21
-4.2779629921259845
0
LINE
8
B.Mask
6
CONTINUOUS
10
11.2605614960629925
20
-4.2779629921259845
11
11.2551423622047242
21
-4.2802076771653539
0
LINE
8
B.Mask
6
CONTINUOUS
10
11.2551423622047242
20
-4.2802076771653539
11
11.2493894881889762
21
-4.2813519685039365
0
LINE
8
B.Mask
6
CONTINUOUS
10
11.2493894881889762
20
-4.2813519685039365
11
11.2435238976377949
21
-4.2813519685039365
0
LINE
8
B.Mask
6
CONTINUOUS
10
11.2435238976377949
20
-4.2813519685039365
11
11.2377710236220469
21
-4.2802076771653539
0
LINE
8
B.Mask
6
CONTINUOUS
10
11.2377710236220469
20
-4.2802076771653539
11
11.2323518897637786
21
-4.2779629921259845
0
LINE
8
B.Mask
6
CONTINUOUS
10
11.2323518897637786
20
-4.2779629921259845
11
11.2274748425196851
21
-4.2747042519685037
0
LINE
8
B.Mask
6
CONTINUOUS
10
11.2274748425196851
20
-4.2747042519685037
11
11.223327244094488
21
-4.2705566535433066
0
LINE
8
B.Mask
6
CONTINUOUS
10
11.223327244094488
20
-4.2705566535433066
11
11.2200685039370072
21
-4.2656796062992122
0
LINE
8
B.Mask
6
CONTINUOUS
10
11.2200685039370072
20
-4.2656796062992122
11
11.2178238188976369
21
-4.2602604724409447
0
LINE
8
B.Mask
6
CONTINUOUS
10
11.2178238188976369
20
-4.2602604724409447
11
11.2166795275590552
21
-4.2545075984251968
0
LINE
8
B.Mask
6
CONTINUOUS
10
11.2166795275590552
20
-4.2545075984251968
11
11.2166795275590552
21
-4.2486420078740155
0
LINE
8
B.Mask
6
CONTINUOUS
10
11.2166795275590552
20
-4.2486420078740155
11
11.2178238188976369
21
-4.2428891338582675
0
LINE
8
B.Mask
6
CONTINUOUS
10
11.2178238188976369
20
-4.2428891338582675
11
11.2200685039370072
21
-4.2374700000000001
0
LINE
8
B.Mask
6
CONTINUOUS
10
11.2200685039370072
20
-4.2374700000000001
11
11.223327244094488
21
-4.2325929527559056
0
LINE
8
B.Mask
6
CONTINUOUS
10
11.223327244094488
20
-4.2325929527559056
11
11.2274748425196851
21
-4.2284453543307086
0
LINE
8
B.Mask
6
CONTINUOUS
10
11.2274748425196851
20
-4.2284453543307086
11
11.2323518897637786
21
-4.2251866141732286
0
LINE
8
B.Mask
6
CONTINUOUS
10
11.2323518897637786
20
-4.2251866141732286
11
11.2377710236220469
21
-4.2229419291338584
0
LINE
8
B.Mask
6
CONTINUOUS
10
11.2377710236220469
20
-4.2229419291338584
11
11.2435238976377949
21
-4.2217976377952757
0
LINE
8
B.Mask
6
CONTINUOUS
10
11.2435238976377949
20
-4.2217976377952757
11
11.2493894881889762
21
-4.2217976377952757
0
LINE
8
B.Mask
6
CONTINUOUS
10
11.2493894881889762
20
-4.2217976377952757
11
11.2551423622047242
21
-4.2229419291338584
0
LINE
8
B.Mask
6
CONTINUOUS
10
11.1846699212598431
20
-4.1827844488188974
11
11.1900890551181096
21
-4.1850291338582677
0
LINE
8
B.Mask
6
CONTINUOUS
10
11.1900890551181096
20
-4.1850291338582677
11
11.1949661023622049
21
-4.1882878740157476
0
LINE
8
B.Mask
6
CONTINUOUS
10
11.1949661023622049
20
-4.1882878740157476
11
11.199113700787402
21
-4.1924354724409447
0
LINE
8
B.Mask
6
CONTINUOUS
10
11.199113700787402
20
-4.1924354724409447
11
11.202372440944881
21
-4.1973125196850392
0
LINE
8
B.Mask
6
CONTINUOUS
10
11.202372440944881
20
-4.1973125196850392
11
11.2046171259842513
21
-4.2027316535433066
0
LINE
8
B.Mask
6
CONTINUOUS
10
11.2046171259842513
20
-4.2027316535433066
11
11.2057614173228348
21
-4.2084845275590554
0
LINE
8
B.Mask
6
CONTINUOUS
10
11.2057614173228348
20
-4.2084845275590554
11
11.2057614173228348
21
-4.2143501181102359
0
LINE
8
B.Mask
6
CONTINUOUS
10
11.2057614173228348
20
-4.2143501181102359
11
11.2046171259842513
21
-4.2201029921259838
0
LINE
8
B.Mask
6
CONTINUOUS
10
11.2046171259842513
20
-4.2201029921259838
11
11.202372440944881
21
-4.2255221259842521
0
LINE
8
B.Mask
6
CONTINUOUS
10
11.202372440944881
20
-4.2255221259842521
11
11.199113700787402
21
-4.2303991732283466
0
LINE
8
B.Mask
6
CONTINUOUS
10
11.199113700787402
20
-4.2303991732283466
11
11.1949661023622049
21
-4.2345467716535437
0
LINE
8
B.Mask
6
CONTINUOUS
10
11.1949661023622049
20
-4.2345467716535437
11
11.1900890551181096
21
-4.2378055118110236
0
LINE
8
B.Mask
6
CONTINUOUS
10
11.1900890551181096
20
-4.2378055118110236
11
11.1846699212598431
21
-4.2400501968503939
0
LINE
8
B.Mask
6
CONTINUOUS
10
11.1846699212598431
20
-4.2400501968503939
11
11.1789170472440951
21
-4.2411944881889765
0
LINE
8
B.Mask
6
CONTINUOUS
10
11.1789170472440951
20
-4.2411944881889765
11
11.1730514566929138
21
-4.2411944881889765
0
LINE
8
B.Mask
6
CONTINUOUS
10
11.1730514566929138
20
-4.2411944881889765
11
11.1672985826771658
21
-4.2400501968503939
0
LINE
8
B.Mask
6
CONTINUOUS
10
11.1672985826771658
20
-4.2400501968503939
11
11.1618794488188975
21
-4.2378055118110236
0
LINE
8
B.Mask
6
CONTINUOUS
10
11.1618794488188975
20
-4.2378055118110236
11
11.1570024015748022
21
-4.2345467716535437
0
LINE
8
B.Mask
6
CONTINUOUS
10
11.1570024015748022
20
-4.2345467716535437
11
11.1528548031496069
21
-4.2303991732283466
0
LINE
8
B.Mask
6
CONTINUOUS
10
11.1528548031496069
20
-4.2303991732283466
11
11.149596062992126
21
-4.2255221259842521
0
LINE
8
B.Mask
6
CONTINUOUS
10
11.149596062992126
20
-4.2255221259842521
11
11.1473513779527558
21
-4.2201029921259838
0
LINE
8
B.Mask
6
CONTINUOUS
10
11.1473513779527558
20
-4.2201029921259838
11
11.1462070866141723
21
-4.2143501181102359
0
LINE
8
B.Mask
6
CONTINUOUS
10
11.1462070866141723
20
-4.2143501181102359
11
11.1462070866141723
21
-4.2084845275590554
0
LINE
8
B.Mask
6
CONTINUOUS
10
11.1462070866141723
20
-4.2084845275590554
11
11.1473513779527558
21
-4.2027316535433066
0
LINE
8
B.Mask
6
CONTINUOUS
10
11.1473513779527558
20
-4.2027316535433066
11
11.149596062992126
21
-4.1973125196850392
0
LINE
8
B.Mask
6
CONTINUOUS
10
11.149596062992126
20
-4.1973125196850392
11
11.1528548031496069
21
-4.1924354724409447
0
LINE
8
B.Mask
6
CONTINUOUS
10
11.1528548031496069
20
-4.1924354724409447
11
11.1570024015748022
21
-4.1882878740157476
0
LINE
8
B.Mask
6
CONTINUOUS
10
11.1570024015748022
20
-4.1882878740157476
11
11.1618794488188975
21
-4.1850291338582677
0
LINE
8
B.Mask
6
CONTINUOUS
10
11.1618794488188975
20
-4.1850291338582677
11
11.1672985826771658
21
-4.1827844488188974
0
LINE
8
B.Mask
6
CONTINUOUS
10
11.1672985826771658
20
-4.1827844488188974
11
11.1730514566929138
21
-4.1816401574803148
0
LINE
8
B.Mask
6
CONTINUOUS
10
11.1730514566929138
20
-4.1816401574803148
11
11.1789170472440951
21
-4.1816401574803148
0
LINE
8
B.Mask
6
CONTINUOUS
10
11.1789170472440951
20
-4.1816401574803148
11
11.1846699212598431
21
-4.1827844488188974
0
LINE
8
B.Mask
6
CONTINUOUS
10
11.2551423622047242
20
-4.1426269685039365
11
11.2605614960629925
21
-4.1448716535433068
0
LINE
8
B.Mask
6
CONTINUOUS
10
11.2605614960629925
20
-4.1448716535433068
11
11.2654385433070861
21
-4.1481303937007876
0
LINE
8
B.Mask
6
CONTINUOUS
10
11.2654385433070861
20
-4.1481303937007876
11
11.2695861417322831
21
-4.1522779921259838
0
LINE
8
B.Mask
6
CONTINUOUS
10
11.2695861417322831
20
-4.1522779921259838
11
11.272844881889764
21
-4.1571550393700782
0
LINE
8
B.Mask
6
CONTINUOUS
10
11.272844881889764
20
-4.1571550393700782
11
11.2750895669291342
21
-4.1625741732283466
0
LINE
8
B.Mask
6
CONTINUOUS
10
11.2750895669291342
20
-4.1625741732283466
11
11.276233858267716
21
-4.1683270472440945
0
LINE
8
B.Mask
6
CONTINUOUS
10
11.276233858267716
20
-4.1683270472440945
11
11.276233858267716
21
-4.1741926377952758
0
LINE
8
B.Mask
6
CONTINUOUS
10
11.276233858267716
20
-4.1741926377952758
11
11.2750895669291342
21
-4.1799455118110238
0
LINE
8
B.Mask
6
CONTINUOUS
10
11.2750895669291342
20
-4.1799455118110238
11
11.272844881889764
21
-4.1853646456692912
0
LINE
8
B.Mask
6
CONTINUOUS
10
11.272844881889764
20
-4.1853646456692912
11
11.2695861417322831
21
-4.1902416929133857
0
LINE
8
B.Mask
6
CONTINUOUS
10
11.2695861417322831
20
-4.1902416929133857
11
11.2654385433070861
21
-4.1943892913385827
0
LINE
8
B.Mask
6
CONTINUOUS
10
11.2654385433070861
20
-4.1943892913385827
11
11.2605614960629925
21
-4.1976480314960627
0
LINE
8
B.Mask
6
CONTINUOUS
10
11.2605614960629925
20
-4.1976480314960627
11
11.2551423622047242
21
-4.1998927165354329
0
LINE
8
B.Mask
6
CONTINUOUS
10
11.2551423622047242
20
-4.1998927165354329
11
11.2493894881889762
21
-4.2010370078740156
0
LINE
8
B.Mask
6
CONTINUOUS
10
11.2493894881889762
20
-4.2010370078740156
11
11.2435238976377949
21
-4.2010370078740156
0
LINE
8
B.Mask
6
CONTINUOUS
10
11.2435238976377949
20
-4.2010370078740156
11
11.2377710236220469
21
-4.1998927165354329
0
LINE
8
B.Mask
6
CONTINUOUS
10
11.2377710236220469
20
-4.1998927165354329
11
11.2323518897637786
21
-4.1976480314960627
0
LINE
8
B.Mask
6
CONTINUOUS
10
11.2323518897637786
20
-4.1976480314960627
11
11.2274748425196851
21
-4.1943892913385827
0
LINE
8
B.Mask
6
CONTINUOUS
10
11.2274748425196851
20
-4.1943892913385827
11
11.223327244094488
21
-4.1902416929133857
0
LINE
8
B.Mask
6
CONTINUOUS
10
11.223327244094488
20
-4.1902416929133857
11
11.2200685039370072
21
-4.1853646456692912
0
LINE
8
B.Mask
6
CONTINUOUS
10
11.2200685039370072
20
-4.1853646456692912
11
11.2178238188976369
21
-4.1799455118110238
0
LINE
8
B.Mask
6
CONTINUOUS
10
11.2178238188976369
20
-4.1799455118110238
11
11.2166795275590552
21
-4.1741926377952758
0
LINE
8
B.Mask
6
CONTINUOUS
10
11.2166795275590552
20
-4.1741926377952758
11
11.2166795275590552
21
-4.1683270472440945
0
LINE
8
B.Mask
6
CONTINUOUS
10
11.2166795275590552
20
-4.1683270472440945
11
11.2178238188976369
21
-4.1625741732283466
0
LINE
8
B.Mask
6
CONTINUOUS
10
11.2178238188976369
20
-4.1625741732283466
11
11.2200685039370072
21
-4.1571550393700782
0
LINE
8
B.Mask
6
CONTINUOUS
10
11.2200685039370072
20
-4.1571550393700782
11
11.223327244094488
21
-4.1522779921259838
0
LINE
8
B.Mask
6
CONTINUOUS
10
11.223327244094488
20
-4.1522779921259838
11
11.2274748425196851
21
-4.1481303937007876
0
LINE
8
B.Mask
6
CONTINUOUS
10
11.2274748425196851
20
-4.1481303937007876
11
11.2323518897637786
21
-4.1448716535433068
0
LINE
8
B.Mask
6
CONTINUOUS
10
11.2323518897637786
20
-4.1448716535433068
11
11.2377710236220469
21
-4.1426269685039365
0
LINE
8
B.Mask
6
CONTINUOUS
10
11.2377710236220469
20
-4.1426269685039365
11
11.2435238976377949
21
-4.1414826771653539
0
LINE
8
B.Mask
6
CONTINUOUS
10
11.2435238976377949
20
-4.1414826771653539
11
11.2493894881889762
21
-4.1414826771653539
0
LINE
8
B.Mask
6
CONTINUOUS
10
11.2493894881889762
20
-4.1414826771653539
11
11.2551423622047242
21
-4.1426269685039365
0
LINE
8
B.Mask
6
CONTINUOUS
10
11.1846699212598431
20
-4.1024694881889765
11
11.1900890551181096
21
-4.1047141732283468
0
LINE
8
B.Mask
6
CONTINUOUS
10
11.1900890551181096
20
-4.1047141732283468
11
11.1949661023622049
21
-4.1079729133858267
0
LINE
8
B.Mask
6
CONTINUOUS
10
11.1949661023622049
20
-4.1079729133858267
11
11.199113700787402
21
-4.1121205118110238
0
LINE
8
B.Mask
6
CONTINUOUS
10
11.199113700787402
20
-4.1121205118110238
11
11.202372440944881
21
-4.1169975590551182
0
LINE
8
B.Mask
6
CONTINUOUS
10
11.202372440944881
20
-4.1169975590551182
11
11.2046171259842513
21
-4.1224166929133856
0
LINE
8
B.Mask
6
CONTINUOUS
10
11.2046171259842513
20
-4.1224166929133856
11
11.2057614173228348
21
-4.1281695669291336
0
LINE
8
B.Mask
6
CONTINUOUS
10
11.2057614173228348
20
-4.1281695669291336
11
11.2057614173228348
21
-4.1340351574803149
0
LINE
8
B.Mask
6
CONTINUOUS
10
11.2057614173228348
20
-4.1340351574803149
11
11.2046171259842513
21
-4.1397880314960629
0
LINE
8
B.Mask
6
CONTINUOUS
10
11.2046171259842513
20
-4.1397880314960629
11
11.202372440944881
21
-4.1452071653543303
0
LINE
8
B.Mask
6
CONTINUOUS
10
11.202372440944881
20
-4.1452071653543303
11
11.199113700787402
21
-4.1500842125984247
0
LINE
8
B.Mask
6
CONTINUOUS
10
11.199113700787402
20
-4.1500842125984247
11
11.1949661023622049
21
-4.1542318110236218
0
LINE
8
B.Mask
6
CONTINUOUS
10
11.1949661023622049
20
-4.1542318110236218
11
11.1900890551181096
21
-4.1574905511811027
0
LINE
8
B.Mask
6
CONTINUOUS
10
11.1900890551181096
20
-4.1574905511811027
11
11.1846699212598431
21
-4.159735236220472
0
LINE
8
B.Mask
6
CONTINUOUS
10
11.1846699212598431
20
-4.159735236220472
11
11.1789170472440951
21
-4.1608795275590547
0
LINE
8
B.Mask
6
CONTINUOUS
10
11.1789170472440951
20
-4.1608795275590547
11
11.1730514566929138
21
-4.1608795275590547
0
LINE
8
B.Mask
6
CONTINUOUS
10
11.1730514566929138
20
-4.1608795275590547
11
11.1672985826771658
21
-4.159735236220472
0
LINE
8
B.Mask
6
CONTINUOUS
10
11.1672985826771658
20
-4.159735236220472
11
11.1618794488188975
21
-4.1574905511811027
0
LINE
8
B.Mask
6
CONTINUOUS
10
11.1618794488188975
20
-4.1574905511811027
11
11.1570024015748022
21
-4.1542318110236218
0
LINE
8
B.Mask
6
CONTINUOUS
10
11.1570024015748022
20
-4.1542318110236218
11
11.1528548031496069
21
-4.1500842125984247
0
LINE
8
B.Mask
6
CONTINUOUS
10
11.1528548031496069
20
-4.1500842125984247
11
11.149596062992126
21
-4.1452071653543303
0
LINE
8
B.Mask
6
CONTINUOUS
10
11.149596062992126
20
-4.1452071653543303
11
11.1473513779527558
21
-4.1397880314960629
0
LINE
8
B.Mask
6
CONTINUOUS
10
11.1473513779527558
20
-4.1397880314960629
11
11.1462070866141723
21
-4.1340351574803149
0
LINE
8
B.Mask
6
CONTINUOUS
10
11.1462070866141723
20
-4.1340351574803149
11
11.1462070866141723
21
-4.1281695669291336
0
LINE
8
B.Mask
6
CONTINUOUS
10
11.1462070866141723
20
-4.1281695669291336
11
11.1473513779527558
21
-4.1224166929133856
0
LINE
8
B.Mask
6
CONTINUOUS
10
11.1473513779527558
20
-4.1224166929133856
11
11.149596062992126
21
-4.1169975590551182
0
LINE
8
B.Mask
6
CONTINUOUS
10
11.149596062992126
20
-4.1169975590551182
11
11.1528548031496069
21
-4.1121205118110238
0
LINE
8
B.Mask
6
CONTINUOUS
10
11.1528548031496069
20
-4.1121205118110238
11
11.1570024015748022
21
-4.1079729133858267
0
LINE
8
B.Mask
6
CONTINUOUS
10
11.1570024015748022
20
-4.1079729133858267
11
11.1618794488188975
21
-4.1047141732283468
0
LINE
8
B.Mask
6
CONTINUOUS
10
11.1618794488188975
20
-4.1047141732283468
11
11.1672985826771658
21
-4.1024694881889765
0
LINE
8
B.Mask
6
CONTINUOUS
10
11.1672985826771658
20
-4.1024694881889765
11
11.1730514566929138
21
-4.1013251968503939
0
LINE
8
B.Mask
6
CONTINUOUS
10
11.1730514566929138
20
-4.1013251968503939
11
11.1789170472440951
21
-4.1013251968503939
0
LINE
8
B.Mask
6
CONTINUOUS
10
11.1789170472440951
20
-4.1013251968503939
11
11.1846699212598431
21
-4.1024694881889765
0
LINE
8
B.Mask
6
CONTINUOUS
10
11.2551423622047242
20
-4.0623120078740156
11
11.2605614960629925
21
-4.0645566929133858
0
LINE
8
B.Mask
6
CONTINUOUS
10
11.2605614960629925
20
-4.0645566929133858
11
11.2654385433070861
21
-4.0678154330708658
0
LINE
8
B.Mask
6
CONTINUOUS
10
11.2654385433070861
20
-4.0678154330708658
11
11.2695861417322831
21
-4.0719630314960629
0
LINE
8
B.Mask
6
CONTINUOUS
10
11.2695861417322831
20
-4.0719630314960629
11
11.272844881889764
21
-4.0768400787401573
0
LINE
8
B.Mask
6
CONTINUOUS
10
11.272844881889764
20
-4.0768400787401573
11
11.2750895669291342
21
-4.0822592125984247
0
LINE
8
B.Mask
6
CONTINUOUS
10
11.2750895669291342
20
-4.0822592125984247
11
11.276233858267716
21
-4.0880120866141727
0
LINE
8
B.Mask
6
CONTINUOUS
10
11.276233858267716
20
-4.0880120866141727
11
11.276233858267716
21
-4.093877677165354
0
LINE
8
B.Mask
6
CONTINUOUS
10
11.276233858267716
20
-4.093877677165354
11
11.2750895669291342
21
-4.099630551181102
0
LINE
8
B.Mask
6
CONTINUOUS
10
11.2750895669291342
20
-4.099630551181102
11
11.272844881889764
21
-4.1050496850393703
0
LINE
8
B.Mask
6
CONTINUOUS
10
11.272844881889764
20
-4.1050496850393703
11
11.2695861417322831
21
-4.1099267322834647
0
LINE
8
B.Mask
6
CONTINUOUS
10
11.2695861417322831
20
-4.1099267322834647
11
11.2654385433070861
21
-4.1140743307086609
0
LINE
8
B.Mask
6
CONTINUOUS
10
11.2654385433070861
20
-4.1140743307086609
11
11.2605614960629925
21
-4.1173330708661418
0
LINE
8
B.Mask
6
CONTINUOUS
10
11.2605614960629925
20
-4.1173330708661418
11
11.2551423622047242
21
-4.119577755905512
0
LINE
8
B.Mask
6
CONTINUOUS
10
11.2551423622047242
20
-4.119577755905512
11
11.2493894881889762
21
-4.1207220472440946
0
LINE
8
B.Mask
6
CONTINUOUS
10
11.2493894881889762
20
-4.1207220472440946
11
11.2435238976377949
21
-4.1207220472440946
0
LINE
8
B.Mask
6
CONTINUOUS
10
11.2435238976377949
20
-4.1207220472440946
11
11.2377710236220469
21
-4.119577755905512
0
LINE
8
B.Mask
6
CONTINUOUS
10
11.2377710236220469
20
-4.119577755905512
11
11.2323518897637786
21
-4.1173330708661418
0
LINE
8
B.Mask
6
CONTINUOUS
10
11.2323518897637786
20
-4.1173330708661418
11
11.2274748425196851
21
-4.1140743307086609
0
LINE
8
B.Mask
6
CONTINUOUS
10
11.2274748425196851
20
-4.1140743307086609
11
11.223327244094488
21
-4.1099267322834647
0
LINE
8
B.Mask
6
CONTINUOUS
10
11.223327244094488
20
-4.1099267322834647
11
11.2200685039370072
21
-4.1050496850393703
0
LINE
8
B.Mask
6
CONTINUOUS
10
11.2200685039370072
20
-4.1050496850393703
11
11.2178238188976369
21
-4.099630551181102
0
LINE
8
B.Mask
6
CONTINUOUS
10
11.2178238188976369
20
-4.099630551181102
11
11.2166795275590552
21
-4.093877677165354
0
LINE
8
B.Mask
6
CONTINUOUS
10
11.2166795275590552
20
-4.093877677165354
11
11.2166795275590552
21
-4.0880120866141727
0
LINE
8
B.Mask
6
CONTINUOUS
10
11.2166795275590552
20
-4.0880120866141727
11
11.2178238188976369
21
-4.0822592125984247
0
LINE
8
B.Mask
6
CONTINUOUS
10
11.2178238188976369
20
-4.0822592125984247
11
11.2200685039370072
21
-4.0768400787401573
0
LINE
8
B.Mask
6
CONTINUOUS
10
11.2200685039370072
20
-4.0768400787401573
11
11.223327244094488
21
-4.0719630314960629
0
LINE
8
B.Mask
6
CONTINUOUS
10
11.223327244094488
20
-4.0719630314960629
11
11.2274748425196851
21
-4.0678154330708658
0
LINE
8
B.Mask
6
CONTINUOUS
10
11.2274748425196851
20
-4.0678154330708658
11
11.2323518897637786
21
-4.0645566929133858
0
LINE
8
B.Mask
6
CONTINUOUS
10
11.2323518897637786
20
-4.0645566929133858
11
11.2377710236220469
21
-4.0623120078740156
0
LINE
8
B.Mask
6
CONTINUOUS
10
11.2377710236220469
20
-4.0623120078740156
11
11.2435238976377949
21
-4.061167716535433
0
LINE
8
B.Mask
6
CONTINUOUS
10
11.2435238976377949
20
-4.061167716535433
11
11.2493894881889762
21
-4.061167716535433
0
LINE
8
B.Mask
6
CONTINUOUS
10
11.2493894881889762
20
-4.061167716535433
11
11.2551423622047242
21
-4.0623120078740156
0
LINE
8
B.Mask
6
CONTINUOUS
10
11.444512440944882
20
-4.0229419291338582
11
11.4499315748031485
21
-4.0251866141732284
0
LINE
8
B.Mask
6
CONTINUOUS
10
11.4499315748031485
20
-4.0251866141732284
11
11.4548086220472438
21
-4.0284453543307084
0
LINE
8
B.Mask
6
CONTINUOUS
10
11.4548086220472438
20
-4.0284453543307084
11
11.4589562204724409
21
-4.0325929527559055
0
LINE
8
B.Mask
6
CONTINUOUS
10
11.4589562204724409
20
-4.0325929527559055
11
11.4622149606299217
21
-4.0374699999999999
0
LINE
8
B.Mask
6
CONTINUOUS
10
11.4622149606299217
20
-4.0374699999999999
11
11.4644596456692902
21
-4.0428891338582673
0
LINE
8
B.Mask
6
CONTINUOUS
10
11.4644596456692902
20
-4.0428891338582673
11
11.4656039370078737
21
-4.0486420078740153
0
LINE
8
B.Mask
6
CONTINUOUS
10
11.4656039370078737
20
-4.0486420078740153
11
11.4656039370078737
21
-4.0545075984251966
0
LINE
8
B.Mask
6
CONTINUOUS
10
11.4656039370078737
20
-4.0545075984251966
11
11.4644596456692902
21
-4.0602604724409446
0
LINE
8
B.Mask
6
CONTINUOUS
10
11.4644596456692902
20
-4.0602604724409446
11
11.4622149606299217
21
-4.0656796062992129
0
LINE
8
B.Mask
6
CONTINUOUS
10
11.4622149606299217
20
-4.0656796062992129
11
11.4589562204724409
21
-4.0705566535433073
0
LINE
8
B.Mask
6
CONTINUOUS
10
11.4589562204724409
20
-4.0705566535433073
11
11.4548086220472438
21
-4.0747042519685035
0
LINE
8
B.Mask
6
CONTINUOUS
10
11.4548086220472438
20
-4.0747042519685035
11
11.4499315748031485
21
-4.0779629921259843
0
LINE
8
B.Mask
6
CONTINUOUS
10
11.4499315748031485
20
-4.0779629921259843
11
11.444512440944882
21
-4.0802076771653546
0
LINE
8
B.Mask
6
CONTINUOUS
10
11.444512440944882
20
-4.0802076771653546
11
11.438759566929134
21
-4.0813519685039372
0
LINE
8
B.Mask
6
CONTINUOUS
10
11.438759566929134
20
-4.0813519685039372
11
11.4328939763779527
21
-4.0813519685039372
0
LINE
8
B.Mask
6
CONTINUOUS
10
11.4328939763779527
20
-4.0813519685039372
11
11.4271411023622047
21
-4.0802076771653546
0
LINE
8
B.Mask
6
CONTINUOUS
10
11.4271411023622047
20
-4.0802076771653546
11
11.4217219685039364
21
-4.0779629921259843
0
LINE
8
B.Mask
6
CONTINUOUS
10
11.4217219685039364
20
-4.0779629921259843
11
11.4168449212598428
21
-4.0747042519685035
0
LINE
8
B.Mask
6
CONTINUOUS
10
11.4168449212598428
20
-4.0747042519685035
11
11.4126973228346458
21
-4.0705566535433073
0
LINE
8
B.Mask
6
CONTINUOUS
10
11.4126973228346458
20
-4.0705566535433073
11
11.4094385826771649
21
-4.0656796062992129
0
LINE
8
B.Mask
6
CONTINUOUS
10
11.4094385826771649
20
-4.0656796062992129
11
11.4071938976377947
21
-4.0602604724409446
0
LINE
8
B.Mask
6
CONTINUOUS
10
11.4071938976377947
20
-4.0602604724409446
11
11.4060496062992129
21
-4.0545075984251966
0
LINE
8
B.Mask
6
CONTINUOUS
10
11.4060496062992129
20
-4.0545075984251966
11
11.4060496062992129
21
-4.0486420078740153
0
LINE
8
B.Mask
6
CONTINUOUS
10
11.4060496062992129
20
-4.0486420078740153
11
11.4071938976377947
21
-4.0428891338582673
0
LINE
8
B.Mask
6
CONTINUOUS
10
11.4071938976377947
20
-4.0428891338582673
11
11.4094385826771649
21
-4.0374699999999999
0
LINE
8
B.Mask
6
CONTINUOUS
10
11.4094385826771649
20
-4.0374699999999999
11
11.4126973228346458
21
-4.0325929527559055
0
LINE
8
B.Mask
6
CONTINUOUS
10
11.4126973228346458
20
-4.0325929527559055
11
11.4168449212598428
21
-4.0284453543307084
0
LINE
8
B.Mask
6
CONTINUOUS
10
11.4168449212598428
20
-4.0284453543307084
11
11.4217219685039364
21
-4.0251866141732284
0
LINE
8
B.Mask
6
CONTINUOUS
10
11.4217219685039364
20
-4.0251866141732284
11
11.4271411023622047
21
-4.0229419291338582
0
LINE
8
B.Mask
6
CONTINUOUS
10
11.4271411023622047
20
-4.0229419291338582
11
11.4328939763779527
21
-4.0217976377952755
0
LINE
8
B.Mask
6
CONTINUOUS
10
11.4328939763779527
20
-4.0217976377952755
11
11.438759566929134
21
-4.0217976377952755
0
LINE
8
B.Mask
6
CONTINUOUS
10
11.438759566929134
20
-4.0217976377952755
11
11.444512440944882
21
-4.0229419291338582
0
LINE
8
B.Mask
6
CONTINUOUS
10
11.0911490157480319
20
-3.9183303149606297
11
11.1008436220472433
21
-3.9214802755905511
0
LINE
8
B.Mask
6
CONTINUOUS
10
11.1008436220472433
20
-3.9214802755905511
11
11.1099261023622038
21
-3.9261080314960628
0
LINE
8
B.Mask
6
CONTINUOUS
10
11.1099261023622038
20
-3.9261080314960628
11
11.1181727952755907
21
-3.9320996062992126
0
LINE
8
B.Mask
6
CONTINUOUS
10
11.1181727952755907
20
-3.9320996062992126
11
11.1253807086614174
21
-3.9393075196850393
0
LINE
8
B.Mask
6
CONTINUOUS
10
11.1253807086614174
20
-3.9393075196850393
11
11.1313722834645663
21
-3.9475542125984253
0
LINE
8
B.Mask
6
CONTINUOUS
10
11.1313722834645663
20
-3.9475542125984253
11
11.136000039370078
21
-3.9566366929133858
0
LINE
8
B.Mask
6
CONTINUOUS
10
11.136000039370078
20
-3.9566366929133858
11
11.139149999999999
21
-3.9663312992125985
0
LINE
8
B.Mask
6
CONTINUOUS
10
11.139149999999999
20
-3.9663312992125985
11
11.1407446456692902
21
-3.9763992913385824
0
LINE
8
B.Mask
6
CONTINUOUS
10
11.1407446456692902
20
-3.9763992913385824
11
11.1407446456692902
21
-3.9865928346456694
0
LINE
8
B.Mask
6
CONTINUOUS
10
11.1407446456692902
20
-3.9865928346456694
11
11.139149999999999
21
-3.9966608267716532
0
LINE
8
B.Mask
6
CONTINUOUS
10
11.139149999999999
20
-3.9966608267716532
11
11.136000039370078
21
-4.0063554330708664
0
LINE
8
B.Mask
6
CONTINUOUS
10
11.136000039370078
20
-4.0063554330708664
11
11.1313722834645663
21
-4.0154379133858269
0
LINE
8
B.Mask
6
CONTINUOUS
10
11.1313722834645663
20
-4.0154379133858269
11
11.1253807086614174
21
-4.0236846062992129
0
LINE
8
B.Mask
6
CONTINUOUS
10
11.1253807086614174
20
-4.0236846062992129
11
11.1181727952755907
21
-4.0308925196850396
0
LINE
8
B.Mask
6
CONTINUOUS
10
11.1181727952755907
20
-4.0308925196850396
11
11.1099261023622038
21
-4.0368840944881885
0
LINE
8
B.Mask
6
CONTINUOUS
10
11.1099261023622038
20
-4.0368840944881885
11
11.1008436220472433
21
-4.0415118503937011
0
LINE
8
B.Mask
6
CONTINUOUS
10
11.1008436220472433
20
-4.0415118503937011
11
11.0911490157480319
21
-4.0446618110236221
0
LINE
8
B.Mask
6
CONTINUOUS
10
11.0911490157480319
20
-4.0446618110236221
11
11.0810810236220476
21
-4.0462564566929133
0
LINE
8
B.Mask
6
CONTINUOUS
10
11.0810810236220476
20
-4.0462564566929133
11
11.0708874803149602
21
-4.0462564566929133
0
LINE
8
B.Mask
6
CONTINUOUS
10
11.0708874803149602
20
-4.0462564566929133
11
11.0608194881889759
21
-4.0446618110236221
0
LINE
8
B.Mask
6
CONTINUOUS
10
11.0608194881889759
20
-4.0446618110236221
11
11.0511248818897627
21
-4.0415118503937011
0
LINE
8
B.Mask
6
CONTINUOUS
10
11.0511248818897627
20
-4.0415118503937011
11
11.0420424015748022
21
-4.0368840944881885
0
LINE
8
B.Mask
6
CONTINUOUS
10
11.0420424015748022
20
-4.0368840944881885
11
11.0337957086614171
21
-4.0308925196850396
0
LINE
8
B.Mask
6
CONTINUOUS
10
11.0337957086614171
20
-4.0308925196850396
11
11.0265877952755904
21
-4.0236846062992129
0
LINE
8
B.Mask
6
CONTINUOUS
10
11.0265877952755904
20
-4.0236846062992129
11
11.0205962204724415
21
-4.0154379133858269
0
LINE
8
B.Mask
6
CONTINUOUS
10
11.0205962204724415
20
-4.0154379133858269
11
11.015968464566928
21
-4.0063554330708664
0
LINE
8
B.Mask
6
CONTINUOUS
10
11.015968464566928
20
-4.0063554330708664
11
11.012818503937007
21
-3.9966608267716532
0
LINE
8
B.Mask
6
CONTINUOUS
10
11.012818503937007
20
-3.9966608267716532
11
11.0112238582677158
21
-3.9865928346456694
0
LINE
8
B.Mask
6
CONTINUOUS
10
11.0112238582677158
20
-3.9865928346456694
11
11.0112238582677158
21
-3.9763992913385824
0
LINE
8
B.Mask
6
CONTINUOUS
10
11.0112238582677158
20
-3.9763992913385824
11
11.012818503937007
21
-3.9663312992125985
0
LINE
8
B.Mask
6
CONTINUOUS
10
11.012818503937007
20
-3.9663312992125985
11
11.015968464566928
21
-3.9566366929133858
0
LINE
8
B.Mask
6
CONTINUOUS
10
11.015968464566928
20
-3.9566366929133858
11
11.0205962204724415
21
-3.9475542125984253
0
LINE
8
B.Mask
6
CONTINUOUS
10
11.0205962204724415
20
-3.9475542125984253
11
11.0265877952755904
21
-3.9393075196850393
0
LINE
8
B.Mask
6
CONTINUOUS
10
11.0265877952755904
20
-3.9393075196850393
11
11.0337957086614171
21
-3.9320996062992126
0
LINE
8
B.Mask
6
CONTINUOUS
10
11.0337957086614171
20
-3.9320996062992126
11
11.0420424015748022
21
-3.9261080314960628
0
LINE
8
B.Mask
6
CONTINUOUS
10
11.0420424015748022
20
-3.9261080314960628
11
11.0511248818897627
21
-3.9214802755905511
0
LINE
8
B.Mask
6
CONTINUOUS
10
11.0511248818897627
20
-3.9214802755905511
11
11.0608194881889759
21
-3.9183303149606297
0
LINE
8
B.Mask
6
CONTINUOUS
10
11.0608194881889759
20
-3.9183303149606297
11
11.0708874803149602
21
-3.9167356692913384
0
LINE
8
B.Mask
6
CONTINUOUS
10
11.0708874803149602
20
-3.9167356692913384
11
11.0810810236220476
21
-3.9167356692913384
0
LINE
8
B.Mask
6
CONTINUOUS
10
11.0810810236220476
20
-3.9167356692913384
11
11.0911490157480319
21
-3.9183303149606297
0
LINE
8
B.Mask
6
CONTINUOUS
10
11.444512440944882
20
-3.9327844488188974
11
11.4499315748031485
21
-3.9350291338582677
0
LINE
8
B.Mask
6
CONTINUOUS
10
11.4499315748031485
20
-3.9350291338582677
11
11.4548086220472438
21
-3.9382878740157481
0
LINE
8
B.Mask
6
CONTINUOUS
10
11.4548086220472438
20
-3.9382878740157481
11
11.4589562204724409
21
-3.9424354724409447
0
LINE
8
B.Mask
6
CONTINUOUS
10
11.4589562204724409
20
-3.9424354724409447
11
11.4622149606299217
21
-3.9473125196850392
0
LINE
8
B.Mask
6
CONTINUOUS
10
11.4622149606299217
20
-3.9473125196850392
11
11.4644596456692902
21
-3.952731653543307
0
LINE
8
B.Mask
6
CONTINUOUS
10
11.4644596456692902
20
-3.952731653543307
11
11.4656039370078737
21
-3.958484527559055
0
LINE
8
B.Mask
6
CONTINUOUS
10
11.4656039370078737
20
-3.958484527559055
11
11.4656039370078737
21
-3.9643501181102363
0
LINE
8
B.Mask
6
CONTINUOUS
10
11.4656039370078737
20
-3.9643501181102363
11
11.4644596456692902
21
-3.9701029921259843
0
LINE
8
B.Mask
6
CONTINUOUS
10
11.4644596456692902
20
-3.9701029921259843
11
11.4622149606299217
21
-3.9755221259842517
0
LINE
8
B.Mask
6
CONTINUOUS
10
11.4622149606299217
20
-3.9755221259842517
11
11.4589562204724409
21
-3.9803991732283466
0
LINE
8
B.Mask
6
CONTINUOUS
10
11.4589562204724409
20
-3.9803991732283466
11
11.4548086220472438
21
-3.9845467716535432
0
LINE
8
B.Mask
6
CONTINUOUS
10
11.4548086220472438
20
-3.9845467716535432
11
11.4499315748031485
21
-3.9878055118110236
0
LINE
8
B.Mask
6
CONTINUOUS
10
11.4499315748031485
20
-3.9878055118110236
11
11.444512440944882
21
-3.9900501968503934
0
LINE
8
B.Mask
6
CONTINUOUS
10
11.444512440944882
20
-3.9900501968503934
11
11.438759566929134
21
-3.9911944881889765
0
LINE
8
B.Mask
6
CONTINUOUS
10
11.438759566929134
20
-3.9911944881889765
11
11.4328939763779527
21
-3.9911944881889765
0
LINE
8
B.Mask
6
CONTINUOUS
10
11.4328939763779527
20
-3.9911944881889765
11
11.4271411023622047
21
-3.9900501968503934
0
LINE
8
B.Mask
6
CONTINUOUS
10
11.4271411023622047
20
-3.9900501968503934
11
11.4217219685039364
21
-3.9878055118110236
0
LINE
8
B.Mask
6
CONTINUOUS
10
11.4217219685039364
20
-3.9878055118110236
11
11.4168449212598428
21
-3.9845467716535432
0
LINE
8
B.Mask
6
CONTINUOUS
10
11.4168449212598428
20
-3.9845467716535432
11
11.4126973228346458
21
-3.9803991732283466
0
LINE
8
B.Mask
6
CONTINUOUS
10
11.4126973228346458
20
-3.9803991732283466
11
11.4094385826771649
21
-3.9755221259842517
0
LINE
8
B.Mask
6
CONTINUOUS
10
11.4094385826771649
20
-3.9755221259842517
11
11.4071938976377947
21
-3.9701029921259843
0
LINE
8
B.Mask
6
CONTINUOUS
10
11.4071938976377947
20
-3.9701029921259843
11
11.4060496062992129
21
-3.9643501181102363
0
LINE
8
B.Mask
6
CONTINUOUS
10
11.4060496062992129
20
-3.9643501181102363
11
11.4060496062992129
21
-3.958484527559055
0
LINE
8
B.Mask
6
CONTINUOUS
10
11.4060496062992129
20
-3.958484527559055
11
11.4071938976377947
21
-3.952731653543307
0
LINE
8
B.Mask
6
CONTINUOUS
10
11.4071938976377947
20
-3.952731653543307
11
11.4094385826771649
21
-3.9473125196850392
0
LINE
8
B.Mask
6
CONTINUOUS
10
11.4094385826771649
20
-3.9473125196850392
11
11.4126973228346458
21
-3.9424354724409447
0
LINE
8
B.Mask
6
CONTINUOUS
10
11.4126973228346458
20
-3.9424354724409447
11
11.4168449212598428
21
-3.9382878740157481
0
LINE
8
B.Mask
6
CONTINUOUS
10
11.4168449212598428
20
-3.9382878740157481
11
11.4217219685039364
21
-3.9350291338582677
0
LINE
8
B.Mask
6
CONTINUOUS
10
11.4217219685039364
20
-3.9350291338582677
11
11.4271411023622047
21
-3.9327844488188974
0
LINE
8
B.Mask
6
CONTINUOUS
10
11.4271411023622047
20
-3.9327844488188974
11
11.4328939763779527
21
-3.9316401574803148
0
LINE
8
B.Mask
6
CONTINUOUS
10
11.4328939763779527
20
-3.9316401574803148
11
11.438759566929134
21
-3.9316401574803148
0
LINE
8
B.Mask
6
CONTINUOUS
10
11.438759566929134
20
-3.9316401574803148
11
11.444512440944882
21
-3.9327844488188974
0
LINE
8
B.Mask
6
CONTINUOUS
10
11.2280238976377955
20
-3.8635644881889761
11
11.2353682677165345
21
-3.8659508267716536
0
LINE
8
B.Mask
6
CONTINUOUS
10
11.2353682677165345
20
-3.8659508267716536
11
11.242248937007874
21
-3.8694566929133858
0
LINE
8
B.Mask
6
CONTINUOUS
10
11.242248937007874
20
-3.8694566929133858
11
11.248496456692914
21
-3.8739957874015749
0
LINE
8
B.Mask
6
CONTINUOUS
10
11.248496456692914
20
-3.8739957874015749
11
11.2539569685039371
21
-3.8794562992125985
0
LINE
8
B.Mask
6
CONTINUOUS
10
11.2539569685039371
20
-3.8794562992125985
11
11.2584960629921262
21
-3.8857038188976376
0
LINE
8
B.Mask
6
CONTINUOUS
10
11.2584960629921262
20
-3.8857038188976376
11
11.2620019291338576
21
-3.8925844881889762
0
LINE
8
B.Mask
6
CONTINUOUS
10
11.2620019291338576
20
-3.8925844881889762
11
11.2643882677165355
21
-3.8999288582677165
0
LINE
8
B.Mask
6
CONTINUOUS
10
11.2643882677165355
20
-3.8999288582677165
11
11.2655963385826769
21
-3.9075561417322833
0
LINE
8
B.Mask
6
CONTINUOUS
10
11.2655963385826769
20
-3.9075561417322833
11
11.2655963385826769
21
-3.9152785039370079
0
LINE
8
B.Mask
6
CONTINUOUS
10
11.2655963385826769
20
-3.9152785039370079
11
11.2643882677165355
21
-3.9229057874015747
0
LINE
8
B.Mask
6
CONTINUOUS
10
11.2643882677165355
20
-3.9229057874015747
11
11.2620019291338576
21
-3.930250157480315
0
LINE
8
B.Mask
6
CONTINUOUS
10
11.2620019291338576
20
-3.930250157480315
11
11.2584960629921262
21
-3.9371308267716536
0
LINE
8
B.Mask
6
CONTINUOUS
10
11.2584960629921262
20
-3.9371308267716536
11
11.2539569685039371
21
-3.9433783464566927
0
LINE
8
B.Mask
6
CONTINUOUS
10
11.2539569685039371
20
-3.9433783464566927
11
11.248496456692914
21
-3.9488388582677163
0
LINE
8
B.Mask
6
CONTINUOUS
10
11.248496456692914
20
-3.9488388582677163
11
11.242248937007874
21
-3.9533779527559054
0
LINE
8
B.Mask
6
CONTINUOUS
10
11.242248937007874
20
-3.9533779527559054
11
11.2353682677165345
21
-3.9568838188976376
0
LINE
8
B.Mask
6
CONTINUOUS
10
11.2353682677165345
20
-3.9568838188976376
11
11.2280238976377955
21
-3.9592701574803151
0
LINE
8
B.Mask
6
CONTINUOUS
10
11.2280238976377955
20
-3.9592701574803151
11
11.2203966141732288
21
-3.9604782283464566
0
LINE
8
B.Mask
6
CONTINUOUS
10
11.2203966141732288
20
-3.9604782283464566
11
11.2126742519685045
21
-3.9604782283464566
0
LINE
8
B.Mask
6
CONTINUOUS
10
11.2126742519685045
20
-3.9604782283464566
11
11.205046968503936
21
-3.9592701574803151
0
LINE
8
B.Mask
6
CONTINUOUS
10
11.205046968503936
20
-3.9592701574803151
11
11.197702598425197
21
-3.9568838188976376
0
LINE
8
B.Mask
6
CONTINUOUS
10
11.197702598425197
20
-3.9568838188976376
11
11.1908219291338575
21
-3.9533779527559054
0
LINE
8
B.Mask
6
CONTINUOUS
10
11.1908219291338575
20
-3.9533779527559054
11
11.1845744094488193
21
-3.9488388582677163
0
LINE
8
B.Mask
6
CONTINUOUS
10
11.1845744094488193
20
-3.9488388582677163
11
11.1791138976377944
21
-3.9433783464566927
0
LINE
8
B.Mask
6
CONTINUOUS
10
11.1791138976377944
20
-3.9433783464566927
11
11.1745748031496053
21
-3.9371308267716536
0
LINE
8
B.Mask
6
CONTINUOUS
10
11.1745748031496053
20
-3.9371308267716536
11
11.171068937007874
21
-3.930250157480315
0
LINE
8
B.Mask
6
CONTINUOUS
10
11.171068937007874
20
-3.930250157480315
11
11.1686825984251961
21
-3.9229057874015747
0
LINE
8
B.Mask
6
CONTINUOUS
10
11.1686825984251961
20
-3.9229057874015747
11
11.1674745275590546
21
-3.9152785039370079
0
LINE
8
B.Mask
6
CONTINUOUS
10
11.1674745275590546
20
-3.9152785039370079
11
11.1674745275590546
21
-3.9075561417322833
0
LINE
8
B.Mask
6
CONTINUOUS
10
11.1674745275590546
20
-3.9075561417322833
11
11.1686825984251961
21
-3.8999288582677165
0
LINE
8
B.Mask
6
CONTINUOUS
10
11.1686825984251961
20
-3.8999288582677165
11
11.171068937007874
21
-3.8925844881889762
0
LINE
8
B.Mask
6
CONTINUOUS
10
11.171068937007874
20
-3.8925844881889762
11
11.1745748031496053
21
-3.8857038188976376
0
LINE
8
B.Mask
6
CONTINUOUS
10
11.1745748031496053
20
-3.8857038188976376
11
11.1791138976377944
21
-3.8794562992125985
0
LINE
8
B.Mask
6
CONTINUOUS
10
11.1791138976377944
20
-3.8794562992125985
11
11.1845744094488193
21
-3.8739957874015749
0
LINE
8
B.Mask
6
CONTINUOUS
10
11.1845744094488193
20
-3.8739957874015749
11
11.1908219291338575
21
-3.8694566929133858
0
LINE
8
B.Mask
6
CONTINUOUS
10
11.1908219291338575
20
-3.8694566929133858
11
11.197702598425197
21
-3.8659508267716536
0
LINE
8
B.Mask
6
CONTINUOUS
10
11.197702598425197
20
-3.8659508267716536
11
11.205046968503936
21
-3.8635644881889761
0
LINE
8
B.Mask
6
CONTINUOUS
10
11.205046968503936
20
-3.8635644881889761
11
11.2126742519685045
21
-3.8623564173228346
0
LINE
8
B.Mask
6
CONTINUOUS
10
11.2126742519685045
20
-3.8623564173228346
11
11.2203966141732288
21
-3.8623564173228346
0
LINE
8
B.Mask
6
CONTINUOUS
10
11.2203966141732288
20
-3.8623564173228346
11
11.2280238976377955
21
-3.8635644881889761
0
LINE
8
B.Mask
6
CONTINUOUS
10
9.1238865354330709
20
-3.8859534251968504
11
9.1266012598425199
21
-3.8875207480314962
0
LINE
8
B.Mask
6
CONTINUOUS
10
9.1266012598425199
20
-3.8875207480314962
11
9.1288178346456696
21
-3.8897373228346455
0
LINE
8
B.Mask
6
CONTINUOUS
10
9.1288178346456696
20
-3.8897373228346455
11
9.1303851574803154
21
-3.8924520472440944
0
LINE
8
B.Mask
6
CONTINUOUS
10
9.1303851574803154
20
-3.8924520472440944
11
9.1311964960629926
21
-3.8954799212598425
0
LINE
8
B.Mask
6
CONTINUOUS
10
9.1311964960629926
20
-3.8954799212598425
11
9.1311964960629926
21
-3.8986145669291337
0
LINE
8
B.Mask
6
CONTINUOUS
10
9.1311964960629926
20
-3.8986145669291337
11
9.1303851574803154
21
-3.9016424409448818
0
LINE
8
B.Mask
6
CONTINUOUS
10
9.1303851574803154
20
-3.9016424409448818
11
9.1288178346456696
21
-3.9043571653543307
0
LINE
8
B.Mask
6
CONTINUOUS
10
9.1288178346456696
20
-3.9043571653543307
11
9.1266012598425199
21
-3.90657374015748
0
LINE
8
B.Mask
6
CONTINUOUS
10
9.1266012598425199
20
-3.90657374015748
11
9.1238865354330709
21
-3.9081410629921258
0
LINE
8
B.Mask
6
CONTINUOUS
10
9.1238865354330709
20
-3.9081410629921258
11
9.1208586614173228
21
-3.9089524015748029
0
LINE
8
B.Mask
6
CONTINUOUS
10
9.1208586614173228
20
-3.9089524015748029
11
9.1177240157480313
21
-3.9089524015748029
0
LINE
8
B.Mask
6
CONTINUOUS
10
9.1177240157480313
20
-3.9089524015748029
11
9.1146961417322832
21
-3.9081410629921258
0
LINE
8
B.Mask
6
CONTINUOUS
10
9.1146961417322832
20
-3.9081410629921258
11
9.1119814173228342
21
-3.90657374015748
0
LINE
8
B.Mask
6
CONTINUOUS
10
9.1119814173228342
20
-3.90657374015748
11
9.1097648425196844
21
-3.9043571653543307
0
LINE
8
B.Mask
6
CONTINUOUS
10
9.1097648425196844
20
-3.9043571653543307
11
9.1081975196850387
21
-3.9016424409448818
0
LINE
8
B.Mask
6
CONTINUOUS
10
9.1081975196850387
20
-3.9016424409448818
11
9.1073861811023615
21
-3.8986145669291337
0
LINE
8
B.Mask
6
CONTINUOUS
10
9.1073861811023615
20
-3.8986145669291337
11
9.1073861811023615
21
-3.8954799212598425
0
LINE
8
B.Mask
6
CONTINUOUS
10
9.1073861811023615
20
-3.8954799212598425
11
9.1081975196850387
21
-3.8924520472440944
0
LINE
8
B.Mask
6
CONTINUOUS
10
9.1081975196850387
20
-3.8924520472440944
11
9.1097648425196844
21
-3.8897373228346455
0
LINE
8
B.Mask
6
CONTINUOUS
10
9.1097648425196844
20
-3.8897373228346455
11
9.1119814173228342
21
-3.8875207480314962
0
LINE
8
B.Mask
6
CONTINUOUS
10
9.1119814173228342
20
-3.8875207480314962
11
9.1146961417322832
21
-3.8859534251968504
0
LINE
8
B.Mask
6
CONTINUOUS
10
9.1146961417322832
20
-3.8859534251968504
11
9.1177240157480313
21
-3.8851420866141733
0
LINE
8
B.Mask
6
CONTINUOUS
10
9.1177240157480313
20
-3.8851420866141733
11
9.1208586614173228
21
-3.8851420866141733
0
LINE
8
B.Mask
6
CONTINUOUS
10
9.1208586614173228
20
-3.8851420866141733
11
9.1238865354330709
21
-3.8859534251968504
0
LINE
8
B.Mask
6
CONTINUOUS
10
9.1632566141732283
20
-3.8859534251968504
11
9.1659713385826773
21
-3.8875207480314962
0
LINE
8
B.Mask
6
CONTINUOUS
10
9.1659713385826773
20
-3.8875207480314962
11
9.1681879133858271
21
-3.8897373228346455
0
LINE
8
B.Mask
6
CONTINUOUS
10
9.1681879133858271
20
-3.8897373228346455
11
9.1697552362204728
21
-3.8924520472440944
0
LINE
8
B.Mask
6
CONTINUOUS
10
9.1697552362204728
20
-3.8924520472440944
11
9.17056657480315
21
-3.8954799212598425
0
LINE
8
B.Mask
6
CONTINUOUS
10
9.17056657480315
20
-3.8954799212598425
11
9.17056657480315
21
-3.8986145669291337
0
LINE
8
B.Mask
6
CONTINUOUS
10
9.17056657480315
20
-3.8986145669291337
11
9.1697552362204728
21
-3.9016424409448818
0
LINE
8
B.Mask
6
CONTINUOUS
10
9.1697552362204728
20
-3.9016424409448818
11
9.1681879133858271
21
-3.9043571653543307
0
LINE
8
B.Mask
6
CONTINUOUS
10
9.1681879133858271
20
-3.9043571653543307
11
9.1659713385826773
21
-3.90657374015748
0
LINE
8
B.Mask
6
CONTINUOUS
10
9.1659713385826773
20
-3.90657374015748
11
9.1632566141732283
21
-3.9081410629921258
0
LINE
8
B.Mask
6
CONTINUOUS
10
9.1632566141732283
20
-3.9081410629921258
11
9.1602287401574802
21
-3.9089524015748029
0
LINE
8
B.Mask
6
CONTINUOUS
10
9.1602287401574802
20
-3.9089524015748029
11
9.1570940944881887
21
-3.9089524015748029
0
LINE
8
B.Mask
6
CONTINUOUS
10
9.1570940944881887
20
-3.9089524015748029
11
9.1540662204724406
21
-3.9081410629921258
0
LINE
8
B.Mask
6
CONTINUOUS
10
9.1540662204724406
20
-3.9081410629921258
11
9.1513514960629916
21
-3.90657374015748
0
LINE
8
B.Mask
6
CONTINUOUS
10
9.1513514960629916
20
-3.90657374015748
11
9.1491349212598418
21
-3.9043571653543307
0
LINE
8
B.Mask
6
CONTINUOUS
10
9.1491349212598418
20
-3.9043571653543307
11
9.1475675984251961
21
-3.9016424409448818
0
LINE
8
B.Mask
6
CONTINUOUS
10
9.1475675984251961
20
-3.9016424409448818
11
9.1467562598425189
21
-3.8986145669291337
0
LINE
8
B.Mask
6
CONTINUOUS
10
9.1467562598425189
20
-3.8986145669291337
11
9.1467562598425189
21
-3.8954799212598425
0
LINE
8
B.Mask
6
CONTINUOUS
10
9.1467562598425189
20
-3.8954799212598425
11
9.1475675984251961
21
-3.8924520472440944
0
LINE
8
B.Mask
6
CONTINUOUS
10
9.1475675984251961
20
-3.8924520472440944
11
9.1491349212598418
21
-3.8897373228346455
0
LINE
8
B.Mask
6
CONTINUOUS
10
9.1491349212598418
20
-3.8897373228346455
11
9.1513514960629916
21
-3.8875207480314962
0
LINE
8
B.Mask
6
CONTINUOUS
10
9.1513514960629916
20
-3.8875207480314962
11
9.1540662204724406
21
-3.8859534251968504
0
LINE
8
B.Mask
6
CONTINUOUS
10
9.1540662204724406
20
-3.8859534251968504
11
9.1570940944881887
21
-3.8851420866141733
0
LINE
8
B.Mask
6
CONTINUOUS
10
9.1570940944881887
20
-3.8851420866141733
11
9.1602287401574802
21
-3.8851420866141733
0
LINE
8
B.Mask
6
CONTINUOUS
10
9.1602287401574802
20
-3.8851420866141733
11
9.1632566141732283
21
-3.8859534251968504
0
LINE
8
B.Mask
6
CONTINUOUS
10
9.1238865354330709
20
-3.846583346456693
11
9.1266012598425199
21
-3.8481506692913383
0
LINE
8
B.Mask
6
CONTINUOUS
10
9.1266012598425199
20
-3.8481506692913383
11
9.1288178346456696
21
-3.8503672440944881
0
LINE
8
B.Mask
6
CONTINUOUS
10
9.1288178346456696
20
-3.8503672440944881
11
9.1303851574803154
21
-3.853081968503937
0
LINE
8
B.Mask
6
CONTINUOUS
10
9.1303851574803154
20
-3.853081968503937
11
9.1311964960629926
21
-3.8561098425196851
0
LINE
8
B.Mask
6
CONTINUOUS
10
9.1311964960629926
20
-3.8561098425196851
11
9.1311964960629926
21
-3.8592444881889763
0
LINE
8
B.Mask
6
CONTINUOUS
10
9.1311964960629926
20
-3.8592444881889763
11
9.1303851574803154
21
-3.8622723622047244
0
LINE
8
B.Mask
6
CONTINUOUS
10
9.1303851574803154
20
-3.8622723622047244
11
9.1288178346456696
21
-3.8649870866141733
0
LINE
8
B.Mask
6
CONTINUOUS
10
9.1288178346456696
20
-3.8649870866141733
11
9.1266012598425199
21
-3.8672036614173226
0
LINE
8
B.Mask
6
CONTINUOUS
10
9.1266012598425199
20
-3.8672036614173226
11
9.1238865354330709
21
-3.8687709842519684
0
LINE
8
B.Mask
6
CONTINUOUS
10
9.1238865354330709
20
-3.8687709842519684
11
9.1208586614173228
21
-3.8695823228346455
0
LINE
8
B.Mask
6
CONTINUOUS
10
9.1208586614173228
20
-3.8695823228346455
11
9.1177240157480313
21
-3.8695823228346455
0
LINE
8
B.Mask
6
CONTINUOUS
10
9.1177240157480313
20
-3.8695823228346455
11
9.1146961417322832
21
-3.8687709842519684
0
LINE
8
B.Mask
6
CONTINUOUS
10
9.1146961417322832
20
-3.8687709842519684
11
9.1119814173228342
21
-3.8672036614173226
0
LINE
8
B.Mask
6
CONTINUOUS
10
9.1119814173228342
20
-3.8672036614173226
11
9.1097648425196844
21
-3.8649870866141733
0
LINE
8
B.Mask
6
CONTINUOUS
10
9.1097648425196844
20
-3.8649870866141733
11
9.1081975196850387
21
-3.8622723622047244
0
LINE
8
B.Mask
6
CONTINUOUS
10
9.1081975196850387
20
-3.8622723622047244
11
9.1073861811023615
21
-3.8592444881889763
0
LINE
8
B.Mask
6
CONTINUOUS
10
9.1073861811023615
20
-3.8592444881889763
11
9.1073861811023615
21
-3.8561098425196851
0
LINE
8
B.Mask
6
CONTINUOUS
10
9.1073861811023615
20
-3.8561098425196851
11
9.1081975196850387
21
-3.853081968503937
0
LINE
8
B.Mask
6
CONTINUOUS
10
9.1081975196850387
20
-3.853081968503937
11
9.1097648425196844
21
-3.8503672440944881
0
LINE
8
B.Mask
6
CONTINUOUS
10
9.1097648425196844
20
-3.8503672440944881
11
9.1119814173228342
21
-3.8481506692913383
0
LINE
8
B.Mask
6
CONTINUOUS
10
9.1119814173228342
20
-3.8481506692913383
11
9.1146961417322832
21
-3.846583346456693
0
LINE
8
B.Mask
6
CONTINUOUS
10
9.1146961417322832
20
-3.846583346456693
11
9.1177240157480313
21
-3.8457720078740159
0
LINE
8
B.Mask
6
CONTINUOUS
10
9.1177240157480313
20
-3.8457720078740159
11
9.1208586614173228
21
-3.8457720078740159
0
LINE
8
B.Mask
6
CONTINUOUS
10
9.1208586614173228
20
-3.8457720078740159
11
9.1238865354330709
21
-3.846583346456693
0
LINE
8
B.Mask
6
CONTINUOUS
10
9.1632566141732283
20
-3.846583346456693
11
9.1659713385826773
21
-3.8481506692913383
0
LINE
8
B.Mask
6
CONTINUOUS
10
9.1659713385826773
20
-3.8481506692913383
11
9.1681879133858271
21
-3.8503672440944881
0
LINE
8
B.Mask
6
CONTINUOUS
10
9.1681879133858271
20
-3.8503672440944881
11
9.1697552362204728
21
-3.853081968503937
0
LINE
8
B.Mask
6
CONTINUOUS
10
9.1697552362204728
20
-3.853081968503937
11
9.17056657480315
21
-3.8561098425196851
0
LINE
8
B.Mask
6
CONTINUOUS
10
9.17056657480315
20
-3.8561098425196851
11
9.17056657480315
21
-3.8592444881889763
0
LINE
8
B.Mask
6
CONTINUOUS
10
9.17056657480315
20
-3.8592444881889763
11
9.1697552362204728
21
-3.8622723622047244
0
LINE
8
B.Mask
6
CONTINUOUS
10
9.1697552362204728
20
-3.8622723622047244
11
9.1681879133858271
21
-3.8649870866141733
0
LINE
8
B.Mask
6
CONTINUOUS
10
9.1681879133858271
20
-3.8649870866141733
11
9.1659713385826773
21
-3.8672036614173226
0
LINE
8
B.Mask
6
CONTINUOUS
10
9.1659713385826773
20
-3.8672036614173226
11
9.1632566141732283
21
-3.8687709842519684
0
LINE
8
B.Mask
6
CONTINUOUS
10
9.1632566141732283
20
-3.8687709842519684
11
9.1602287401574802
21
-3.8695823228346455
0
LINE
8
B.Mask
6
CONTINUOUS
10
9.1602287401574802
20
-3.8695823228346455
11
9.1570940944881887
21
-3.8695823228346455
0
LINE
8
B.Mask
6
CONTINUOUS
10
9.1570940944881887
20
-3.8695823228346455
11
9.1540662204724406
21
-3.8687709842519684
0
LINE
8
B.Mask
6
CONTINUOUS
10
9.1540662204724406
20
-3.8687709842519684
11
9.1513514960629916
21
-3.8672036614173226
0
LINE
8
B.Mask
6
CONTINUOUS
10
9.1513514960629916
20
-3.8672036614173226
11
9.1491349212598418
21
-3.8649870866141733
0
LINE
8
B.Mask
6
CONTINUOUS
10
9.1491349212598418
20
-3.8649870866141733
11
9.1475675984251961
21
-3.8622723622047244
0
LINE
8
B.Mask
6
CONTINUOUS
10
9.1475675984251961
20
-3.8622723622047244
11
9.1467562598425189
21
-3.8592444881889763
0
LINE
8
B.Mask
6
CONTINUOUS
10
9.1467562598425189
20
-3.8592444881889763
11
9.1467562598425189
21
-3.8561098425196851
0
LINE
8
B.Mask
6
CONTINUOUS
10
9.1467562598425189
20
-3.8561098425196851
11
9.1475675984251961
21
-3.853081968503937
0
LINE
8
B.Mask
6
CONTINUOUS
10
9.1475675984251961
20
-3.853081968503937
11
9.1491349212598418
21
-3.8503672440944881
0
LINE
8
B.Mask
6
CONTINUOUS
10
9.1491349212598418
20
-3.8503672440944881
11
9.1513514960629916
21
-3.8481506692913383
0
LINE
8
B.Mask
6
CONTINUOUS
10
9.1513514960629916
20
-3.8481506692913383
11
9.1540662204724406
21
-3.846583346456693
0
LINE
8
B.Mask
6
CONTINUOUS
10
9.1540662204724406
20
-3.846583346456693
11
9.1570940944881887
21
-3.8457720078740159
0
LINE
8
B.Mask
6
CONTINUOUS
10
9.1570940944881887
20
-3.8457720078740159
11
9.1602287401574802
21
-3.8457720078740159
0
LINE
8
B.Mask
6
CONTINUOUS
10
9.1602287401574802
20
-3.8457720078740159
11
9.1632566141732283
21
-3.846583346456693
0
LINE
8
B.Mask
6
CONTINUOUS
10
7.5964633070866139
20
-1.7732852362204723
11
7.605276574803149
21
-1.7761488582677165
0
LINE
8
B.Mask
6
CONTINUOUS
10
7.605276574803149
20
-1.7761488582677165
11
7.6135333858267717
21
-1.780355905511811
0
LINE
8
B.Mask
6
CONTINUOUS
10
7.6135333858267717
20
-1.780355905511811
11
7.6210303937007868
21
-1.7858027952755906
0
LINE
8
B.Mask
6
CONTINUOUS
10
7.6210303937007868
20
-1.7858027952755906
11
7.6275830314960631
21
-1.7923554330708662
0
LINE
8
B.Mask
6
CONTINUOUS
10
7.6275830314960631
20
-1.7923554330708662
11
7.6330299212598423
21
-1.7998524409448819
0
LINE
8
B.Mask
6
CONTINUOUS
10
7.6330299212598423
20
-1.7998524409448819
11
7.6372369685039372
21
-1.8081092519685038
0
LINE
8
B.Mask
6
CONTINUOUS
10
7.6372369685039372
20
-1.8081092519685038
11
7.6401005905511807
21
-1.8169225196850394
0
LINE
8
B.Mask
6
CONTINUOUS
10
7.6401005905511807
20
-1.8169225196850394
11
7.6415502362204721
21
-1.8260752362204724
0
LINE
8
B.Mask
6
CONTINUOUS
10
7.6415502362204721
20
-1.8260752362204724
11
7.6415502362204721
21
-1.8353420866141732
0
LINE
8
B.Mask
6
CONTINUOUS
10
7.6415502362204721
20
-1.8353420866141732
11
7.6401005905511807
21
-1.8444948031496062
0
LINE
8
B.Mask
6
CONTINUOUS
10
7.6401005905511807
20
-1.8444948031496062
11
7.6372369685039372
21
-1.8533080708661418
0
LINE
8
B.Mask
6
CONTINUOUS
10
7.6372369685039372
20
-1.8533080708661418
11
7.6330299212598423
21
-1.8615648818897637
0
LINE
8
B.Mask
6
CONTINUOUS
10
7.6330299212598423
20
-1.8615648818897637
11
7.6275830314960631
21
-1.8690618897637794
0
LINE
8
B.Mask
6
CONTINUOUS
10
7.6275830314960631
20
-1.8690618897637794
11
7.6210303937007868
21
-1.875614527559055
0
LINE
8
B.Mask
6
CONTINUOUS
10
7.6210303937007868
20
-1.875614527559055
11
7.6135333858267717
21
-1.8810614173228346
0
LINE
8
B.Mask
6
CONTINUOUS
10
7.6135333858267717
20
-1.8810614173228346
11
7.605276574803149
21
-1.8852684645669291
0
LINE
8
B.Mask
6
CONTINUOUS
10
7.605276574803149
20
-1.8852684645669291
11
7.5964633070866139
21
-1.8881320866141731
0
LINE
8
B.Mask
6
CONTINUOUS
10
7.5964633070866139
20
-1.8881320866141731
11
7.5873105905511808
21
-1.8895817322834645
0
LINE
8
B.Mask
6
CONTINUOUS
10
7.5873105905511808
20
-1.8895817322834645
11
7.5780437401574803
21
-1.8895817322834645
0
LINE
8
B.Mask
6
CONTINUOUS
10
7.5780437401574803
20
-1.8895817322834645
11
7.5688910236220472
21
-1.8881320866141731
0
LINE
8
B.Mask
6
CONTINUOUS
10
7.5688910236220472
20
-1.8881320866141731
11
7.5600777559055112
21
-1.8852684645669291
0
LINE
8
B.Mask
6
CONTINUOUS
10
7.5600777559055112
20
-1.8852684645669291
11
7.5518209448818894
21
-1.8810614173228346
0
LINE
8
B.Mask
6
CONTINUOUS
10
7.5518209448818894
20
-1.8810614173228346
11
7.5443239370078734
21
-1.875614527559055
0
LINE
8
B.Mask
6
CONTINUOUS
10
7.5443239370078734
20
-1.875614527559055
11
7.537771299212598
21
-1.8690618897637794
0
LINE
8
B.Mask
6
CONTINUOUS
10
7.537771299212598
20
-1.8690618897637794
11
7.5323244094488189
21
-1.8615648818897637
0
LINE
8
B.Mask
6
CONTINUOUS
10
7.5323244094488189
20
-1.8615648818897637
11
7.5281173622047239
21
-1.8533080708661418
0
LINE
8
B.Mask
6
CONTINUOUS
10
7.5281173622047239
20
-1.8533080708661418
11
7.5252537401574804
21
-1.8444948031496062
0
LINE
8
B.Mask
6
CONTINUOUS
10
7.5252537401574804
20
-1.8444948031496062
11
7.523804094488189
21
-1.8353420866141732
0
LINE
8
B.Mask
6
CONTINUOUS
10
7.523804094488189
20
-1.8353420866141732
11
7.523804094488189
21
-1.8260752362204724
0
LINE
8
B.Mask
6
CONTINUOUS
10
7.523804094488189
20
-1.8260752362204724
11
7.5252537401574804
21
-1.8169225196850394
0
LINE
8
B.Mask
6
CONTINUOUS
10
7.5252537401574804
20
-1.8169225196850394
11
7.5281173622047239
21
-1.8081092519685038
0
LINE
8
B.Mask
6
CONTINUOUS
10
7.5281173622047239
20
-1.8081092519685038
11
7.5323244094488189
21
-1.7998524409448819
0
LINE
8
B.Mask
6
CONTINUOUS
10
7.5323244094488189
20
-1.7998524409448819
11
7.537771299212598
21
-1.7923554330708662
0
LINE
8
B.Mask
6
CONTINUOUS
10
7.537771299212598
20
-1.7923554330708662
11
7.5443239370078734
21
-1.7858027952755906
0
LINE
8
B.Mask
6
CONTINUOUS
10
7.5443239370078734
20
-1.7858027952755906
11
7.5518209448818894
21
-1.780355905511811
0
LINE
8
B.Mask
6
CONTINUOUS
10
7.5518209448818894
20
-1.780355905511811
11
7.5600777559055112
21
-1.7761488582677165
0
LINE
8
B.Mask
6
CONTINUOUS
10
7.5600777559055112
20
-1.7761488582677165
11
7.5688910236220472
21
-1.7732852362204723
0
LINE
8
B.Mask
6
CONTINUOUS
10
7.5688910236220472
20
-1.7732852362204723
11
7.5780437401574803
21
-1.7718355905511811
0
LINE
8
B.Mask
6
CONTINUOUS
10
7.5780437401574803
20
-1.7718355905511811
11
7.5873105905511808
21
-1.7718355905511811
0
LINE
8
B.Mask
6
CONTINUOUS
10
7.5873105905511808
20
-1.7718355905511811
11
7.5964633070866139
21
-1.7732852362204723
0
LINE
8
B.Mask
6
CONTINUOUS
10
7.4783530708661416
20
-1.5606868110236221
11
7.4871663385826768
21
-1.5635504330708661
0
LINE
8
B.Mask
6
CONTINUOUS
10
7.4871663385826768
20
-1.5635504330708661
11
7.4954231496062986
21
-1.5677574803149605
0
LINE
8
B.Mask
6
CONTINUOUS
10
7.4954231496062986
20
-1.5677574803149605
11
7.5029201574803146
21
-1.5732043700787401
0
LINE
8
B.Mask
6
CONTINUOUS
10
7.5029201574803146
20
-1.5732043700787401
11
7.50947279527559
21
-1.5797570078740157
0
LINE
8
B.Mask
6
CONTINUOUS
10
7.50947279527559
20
-1.5797570078740157
11
7.51491968503937
21
-1.5872540157480315
0
LINE
8
B.Mask
6
CONTINUOUS
10
7.51491968503937
20
-1.5872540157480315
11
7.5191267322834641
21
-1.5955108267716536
0
LINE
8
B.Mask
6
CONTINUOUS
10
7.5191267322834641
20
-1.5955108267716536
11
7.5219903543307085
21
-1.6043240944881889
0
LINE
8
B.Mask
6
CONTINUOUS
10
7.5219903543307085
20
-1.6043240944881889
11
7.5234399999999999
21
-1.6134768110236219
0
LINE
8
B.Mask
6
CONTINUOUS
10
7.5234399999999999
20
-1.6134768110236219
11
7.5234399999999999
21
-1.6227436614173227
0
LINE
8
B.Mask
6
CONTINUOUS
10
7.5234399999999999
20
-1.6227436614173227
11
7.5219903543307085
21
-1.6318963779527558
0
LINE
8
B.Mask
6
CONTINUOUS
10
7.5219903543307085
20
-1.6318963779527558
11
7.5191267322834641
21
-1.6407096456692913
0
LINE
8
B.Mask
6
CONTINUOUS
10
7.5191267322834641
20
-1.6407096456692913
11
7.51491968503937
21
-1.6489664566929134
0
LINE
8
B.Mask
6
CONTINUOUS
10
7.51491968503937
20
-1.6489664566929134
11
7.50947279527559
21
-1.6564634645669292
0
LINE
8
B.Mask
6
CONTINUOUS
10
7.50947279527559
20
-1.6564634645669292
11
7.5029201574803146
21
-1.6630161023622048
0
LINE
8
B.Mask
6
CONTINUOUS
10
7.5029201574803146
20
-1.6630161023622048
11
7.4954231496062986
21
-1.6684629921259841
0
LINE
8
B.Mask
6
CONTINUOUS
10
7.4954231496062986
20
-1.6684629921259841
11
7.4871663385826768
21
-1.6726700393700786
0
LINE
8
B.Mask
6
CONTINUOUS
10
7.4871663385826768
20
-1.6726700393700786
11
7.4783530708661416
21
-1.6755336614173229
0
LINE
8
B.Mask
6
CONTINUOUS
10
7.4783530708661416
20
-1.6755336614173229
11
7.4692003543307086
21
-1.676983307086614
0
LINE
8
B.Mask
6
CONTINUOUS
10
7.4692003543307086
20
-1.676983307086614
11
7.459933503937008
21
-1.676983307086614
0
LINE
8
B.Mask
6
CONTINUOUS
10
7.459933503937008
20
-1.676983307086614
11
7.450780787401575
21
-1.6755336614173229
0
LINE
8
B.Mask
6
CONTINUOUS
10
7.450780787401575
20
-1.6755336614173229
11
7.441967519685039
21
-1.6726700393700786
0
LINE
8
B.Mask
6
CONTINUOUS
10
7.441967519685039
20
-1.6726700393700786
11
7.4337107086614171
21
-1.6684629921259841
0
LINE
8
B.Mask
6
CONTINUOUS
10
7.4337107086614171
20
-1.6684629921259841
11
7.4262137007874012
21
-1.6630161023622048
0
LINE
8
B.Mask
6
CONTINUOUS
10
7.4262137007874012
20
-1.6630161023622048
11
7.4196610629921258
21
-1.6564634645669292
0
LINE
8
B.Mask
6
CONTINUOUS
10
7.4196610629921258
20
-1.6564634645669292
11
7.4142141732283466
21
-1.6489664566929134
0
LINE
8
B.Mask
6
CONTINUOUS
10
7.4142141732283466
20
-1.6489664566929134
11
7.4100071259842517
21
-1.6407096456692913
0
LINE
8
B.Mask
6
CONTINUOUS
10
7.4100071259842517
20
-1.6407096456692913
11
7.4071435039370073
21
-1.6318963779527558
0
LINE
8
B.Mask
6
CONTINUOUS
10
7.4071435039370073
20
-1.6318963779527558
11
7.4056938582677168
21
-1.6227436614173227
0
LINE
8
B.Mask
6
CONTINUOUS
10
7.4056938582677168
20
-1.6227436614173227
11
7.4056938582677168
21
-1.6134768110236219
0
LINE
8
B.Mask
6
CONTINUOUS
10
7.4056938582677168
20
-1.6134768110236219
11
7.4071435039370073
21
-1.6043240944881889
0
LINE
8
B.Mask
6
CONTINUOUS
10
7.4071435039370073
20
-1.6043240944881889
11
7.4100071259842517
21
-1.5955108267716536
0
LINE
8
B.Mask
6
CONTINUOUS
10
7.4100071259842517
20
-1.5955108267716536
11
7.4142141732283466
21
-1.5872540157480315
0
LINE
8
B.Mask
6
CONTINUOUS
10
7.4142141732283466
20
-1.5872540157480315
11
7.4196610629921258
21
-1.5797570078740157
0
LINE
8
B.Mask
6
CONTINUOUS
10
7.4196610629921258
20
-1.5797570078740157
11
7.4262137007874012
21
-1.5732043700787401
0
LINE
8
B.Mask
6
CONTINUOUS
10
7.4262137007874012
20
-1.5732043700787401
11
7.4337107086614171
21
-1.5677574803149605
0
LINE
8
B.Mask
6
CONTINUOUS
10
7.4337107086614171
20
-1.5677574803149605
11
7.441967519685039
21
-1.5635504330708661
0
LINE
8
B.Mask
6
CONTINUOUS
10
7.441967519685039
20
-1.5635504330708661
11
7.450780787401575
21
-1.5606868110236221
0
LINE
8
B.Mask
6
CONTINUOUS
10
7.450780787401575
20
-1.5606868110236221
11
7.459933503937008
21
-1.5592371653543307
0
LINE
8
B.Mask
6
CONTINUOUS
10
7.459933503937008
20
-1.5592371653543307
11
7.4692003543307086
21
-1.5592371653543307
0
LINE
8
B.Mask
6
CONTINUOUS
10
7.4692003543307086
20
-1.5592371653543307
11
7.4783530708661416
21
-1.5606868110236221
  0
ENDSEC
  0
EOF
