  0
SECTION
  2
HEADER
  9
$ANGBASE
  50
0.0
  9
$ANGDIR
  70
1
  9
$MEASUREMENT
  70
0
  9
$INSUNITS
  70
1
  0
ENDSEC
  0
SECTION
  2
TABLES
  0
TABLE
  2
LTYPE
  70
4
  0
LTYPE
  5
40F
  2
CONTINUOUS
  70
0
  3
Solid line
  72
65
  73
0
  40
0.0
  0
LTYPE
  5
410
  2
DASHDOT
 70
0
  3
Dash Dot ____ _ ____ _
 72
65
 73
4
 40
2.0
 49
1.25
 49
-0.25
 49
0.25
 49
-0.25
  0
LTYPE
  5
411
  2
DASHED
 70
0
  3
Dashed __ __ __ __ __
 72
65
 73
2
 40
0.75
 49
0.5
 49
-0.25
  0
LTYPE
  5
43B
  2
DOTTED
 70
0
  3
Dotted .  .  .  .
 72
65
 73
2
 40
0.2
 49
0.0
 49
-0.2
  0
ENDTAB
  0
TABLE
  2
STYLE
  70
4
  0
STYLE
  2
KICAD
  70
0
  40
0
  41
1
  42
1
  50
0
  71
0
  3
isocp.shx
  0
STYLE
  2
KICADB
  70
0
  40
0
  41
1
  42
1
  50
0
  71
0
  3
isocp.shx
  0
STYLE
  2
KICADI
  70
0
  40
0
  41
1
  42
1
  50
15
  71
0
  3
isocp.shx
  0
STYLE
  2
KICADBI
  70
0
  40
0
  41
1
  42
1
  50
15
  71
0
  3
isocp.shx
  0
ENDTAB
  0
TABLE
  2
LAYER
  70
11
  0
LAYER
  2
F.Cu
  70
0
  62
13
  420
13120564
  6
CONTINUOUS
  0
LAYER
  2
In1.Cu
  70
0
  62
91
  420
8374399
  6
CONTINUOUS
  0
LAYER
  2
In2.Cu
  70
0
  62
33
  420
13532460
  6
CONTINUOUS
  0
LAYER
  2
B.Cu
  70
0
  62
153
  420
5078980
  6
CONTINUOUS
  0
LAYER
  2
F.Paste
  70
0
  62
253
  420
11837594
  6
CONTINUOUS
  0
LAYER
  2
B.Paste
  70
0
  62
132
  420
49858
  6
CONTINUOUS
  0
LAYER
  2
F.Silkscreen
  70
0
  62
41
  420
15920545
  6
CONTINUOUS
  0
LAYER
  2
B.Silkscreen
  70
0
  62
31
  420
15250087
  6
CONTINUOUS
  0
LAYER
  2
F.Mask
  70
0
  62
201
  420
14181631
  6
CONTINUOUS
  0
LAYER
  2
B.Mask
  70
0
  62
4
  420
196590
  6
CONTINUOUS
  0
LAYER
  2
Edge.Cuts
  70
0
  62
254
  420
13685453
  6
CONTINUOUS
  0
ENDTAB
  0
ENDSEC
  0
SECTION
  2
ENTITIES
0
LINE
8
B.Paste
6
CONTINUOUS
10
9.1238865354330709
20
-3.8859534251968504
11
9.1266012598425199
21
-3.8875207480314962
0
LINE
8
B.Paste
6
CONTINUOUS
10
9.1266012598425199
20
-3.8875207480314962
11
9.1288178346456696
21
-3.8897373228346455
0
LINE
8
B.Paste
6
CONTINUOUS
10
9.1288178346456696
20
-3.8897373228346455
11
9.1303851574803154
21
-3.8924520472440944
0
LINE
8
B.Paste
6
CONTINUOUS
10
9.1303851574803154
20
-3.8924520472440944
11
9.1311964960629926
21
-3.8954799212598425
0
LINE
8
B.Paste
6
CONTINUOUS
10
9.1311964960629926
20
-3.8954799212598425
11
9.1311964960629926
21
-3.8986145669291337
0
LINE
8
B.Paste
6
CONTINUOUS
10
9.1311964960629926
20
-3.8986145669291337
11
9.1303851574803154
21
-3.9016424409448818
0
LINE
8
B.Paste
6
CONTINUOUS
10
9.1303851574803154
20
-3.9016424409448818
11
9.1288178346456696
21
-3.9043571653543307
0
LINE
8
B.Paste
6
CONTINUOUS
10
9.1288178346456696
20
-3.9043571653543307
11
9.1266012598425199
21
-3.90657374015748
0
LINE
8
B.Paste
6
CONTINUOUS
10
9.1266012598425199
20
-3.90657374015748
11
9.1238865354330709
21
-3.9081410629921258
0
LINE
8
B.Paste
6
CONTINUOUS
10
9.1238865354330709
20
-3.9081410629921258
11
9.1208586614173228
21
-3.9089524015748029
0
LINE
8
B.Paste
6
CONTINUOUS
10
9.1208586614173228
20
-3.9089524015748029
11
9.1177240157480313
21
-3.9089524015748029
0
LINE
8
B.Paste
6
CONTINUOUS
10
9.1177240157480313
20
-3.9089524015748029
11
9.1146961417322832
21
-3.9081410629921258
0
LINE
8
B.Paste
6
CONTINUOUS
10
9.1146961417322832
20
-3.9081410629921258
11
9.1119814173228342
21
-3.90657374015748
0
LINE
8
B.Paste
6
CONTINUOUS
10
9.1119814173228342
20
-3.90657374015748
11
9.1097648425196844
21
-3.9043571653543307
0
LINE
8
B.Paste
6
CONTINUOUS
10
9.1097648425196844
20
-3.9043571653543307
11
9.1081975196850387
21
-3.9016424409448818
0
LINE
8
B.Paste
6
CONTINUOUS
10
9.1081975196850387
20
-3.9016424409448818
11
9.1073861811023615
21
-3.8986145669291337
0
LINE
8
B.Paste
6
CONTINUOUS
10
9.1073861811023615
20
-3.8986145669291337
11
9.1073861811023615
21
-3.8954799212598425
0
LINE
8
B.Paste
6
CONTINUOUS
10
9.1073861811023615
20
-3.8954799212598425
11
9.1081975196850387
21
-3.8924520472440944
0
LINE
8
B.Paste
6
CONTINUOUS
10
9.1081975196850387
20
-3.8924520472440944
11
9.1097648425196844
21
-3.8897373228346455
0
LINE
8
B.Paste
6
CONTINUOUS
10
9.1097648425196844
20
-3.8897373228346455
11
9.1119814173228342
21
-3.8875207480314962
0
LINE
8
B.Paste
6
CONTINUOUS
10
9.1119814173228342
20
-3.8875207480314962
11
9.1146961417322832
21
-3.8859534251968504
0
LINE
8
B.Paste
6
CONTINUOUS
10
9.1146961417322832
20
-3.8859534251968504
11
9.1177240157480313
21
-3.8851420866141733
0
LINE
8
B.Paste
6
CONTINUOUS
10
9.1177240157480313
20
-3.8851420866141733
11
9.1208586614173228
21
-3.8851420866141733
0
LINE
8
B.Paste
6
CONTINUOUS
10
9.1208586614173228
20
-3.8851420866141733
11
9.1238865354330709
21
-3.8859534251968504
0
LINE
8
B.Paste
6
CONTINUOUS
10
9.1632566141732283
20
-3.8859534251968504
11
9.1659713385826773
21
-3.8875207480314962
0
LINE
8
B.Paste
6
CONTINUOUS
10
9.1659713385826773
20
-3.8875207480314962
11
9.1681879133858271
21
-3.8897373228346455
0
LINE
8
B.Paste
6
CONTINUOUS
10
9.1681879133858271
20
-3.8897373228346455
11
9.1697552362204728
21
-3.8924520472440944
0
LINE
8
B.Paste
6
CONTINUOUS
10
9.1697552362204728
20
-3.8924520472440944
11
9.17056657480315
21
-3.8954799212598425
0
LINE
8
B.Paste
6
CONTINUOUS
10
9.17056657480315
20
-3.8954799212598425
11
9.17056657480315
21
-3.8986145669291337
0
LINE
8
B.Paste
6
CONTINUOUS
10
9.17056657480315
20
-3.8986145669291337
11
9.1697552362204728
21
-3.9016424409448818
0
LINE
8
B.Paste
6
CONTINUOUS
10
9.1697552362204728
20
-3.9016424409448818
11
9.1681879133858271
21
-3.9043571653543307
0
LINE
8
B.Paste
6
CONTINUOUS
10
9.1681879133858271
20
-3.9043571653543307
11
9.1659713385826773
21
-3.90657374015748
0
LINE
8
B.Paste
6
CONTINUOUS
10
9.1659713385826773
20
-3.90657374015748
11
9.1632566141732283
21
-3.9081410629921258
0
LINE
8
B.Paste
6
CONTINUOUS
10
9.1632566141732283
20
-3.9081410629921258
11
9.1602287401574802
21
-3.9089524015748029
0
LINE
8
B.Paste
6
CONTINUOUS
10
9.1602287401574802
20
-3.9089524015748029
11
9.1570940944881887
21
-3.9089524015748029
0
LINE
8
B.Paste
6
CONTINUOUS
10
9.1570940944881887
20
-3.9089524015748029
11
9.1540662204724406
21
-3.9081410629921258
0
LINE
8
B.Paste
6
CONTINUOUS
10
9.1540662204724406
20
-3.9081410629921258
11
9.1513514960629916
21
-3.90657374015748
0
LINE
8
B.Paste
6
CONTINUOUS
10
9.1513514960629916
20
-3.90657374015748
11
9.1491349212598418
21
-3.9043571653543307
0
LINE
8
B.Paste
6
CONTINUOUS
10
9.1491349212598418
20
-3.9043571653543307
11
9.1475675984251961
21
-3.9016424409448818
0
LINE
8
B.Paste
6
CONTINUOUS
10
9.1475675984251961
20
-3.9016424409448818
11
9.1467562598425189
21
-3.8986145669291337
0
LINE
8
B.Paste
6
CONTINUOUS
10
9.1467562598425189
20
-3.8986145669291337
11
9.1467562598425189
21
-3.8954799212598425
0
LINE
8
B.Paste
6
CONTINUOUS
10
9.1467562598425189
20
-3.8954799212598425
11
9.1475675984251961
21
-3.8924520472440944
0
LINE
8
B.Paste
6
CONTINUOUS
10
9.1475675984251961
20
-3.8924520472440944
11
9.1491349212598418
21
-3.8897373228346455
0
LINE
8
B.Paste
6
CONTINUOUS
10
9.1491349212598418
20
-3.8897373228346455
11
9.1513514960629916
21
-3.8875207480314962
0
LINE
8
B.Paste
6
CONTINUOUS
10
9.1513514960629916
20
-3.8875207480314962
11
9.1540662204724406
21
-3.8859534251968504
0
LINE
8
B.Paste
6
CONTINUOUS
10
9.1540662204724406
20
-3.8859534251968504
11
9.1570940944881887
21
-3.8851420866141733
0
LINE
8
B.Paste
6
CONTINUOUS
10
9.1570940944881887
20
-3.8851420866141733
11
9.1602287401574802
21
-3.8851420866141733
0
LINE
8
B.Paste
6
CONTINUOUS
10
9.1602287401574802
20
-3.8851420866141733
11
9.1632566141732283
21
-3.8859534251968504
0
LINE
8
B.Paste
6
CONTINUOUS
10
9.1238865354330709
20
-3.846583346456693
11
9.1266012598425199
21
-3.8481506692913383
0
LINE
8
B.Paste
6
CONTINUOUS
10
9.1266012598425199
20
-3.8481506692913383
11
9.1288178346456696
21
-3.8503672440944881
0
LINE
8
B.Paste
6
CONTINUOUS
10
9.1288178346456696
20
-3.8503672440944881
11
9.1303851574803154
21
-3.853081968503937
0
LINE
8
B.Paste
6
CONTINUOUS
10
9.1303851574803154
20
-3.853081968503937
11
9.1311964960629926
21
-3.8561098425196851
0
LINE
8
B.Paste
6
CONTINUOUS
10
9.1311964960629926
20
-3.8561098425196851
11
9.1311964960629926
21
-3.8592444881889763
0
LINE
8
B.Paste
6
CONTINUOUS
10
9.1311964960629926
20
-3.8592444881889763
11
9.1303851574803154
21
-3.8622723622047244
0
LINE
8
B.Paste
6
CONTINUOUS
10
9.1303851574803154
20
-3.8622723622047244
11
9.1288178346456696
21
-3.8649870866141733
0
LINE
8
B.Paste
6
CONTINUOUS
10
9.1288178346456696
20
-3.8649870866141733
11
9.1266012598425199
21
-3.8672036614173226
0
LINE
8
B.Paste
6
CONTINUOUS
10
9.1266012598425199
20
-3.8672036614173226
11
9.1238865354330709
21
-3.8687709842519684
0
LINE
8
B.Paste
6
CONTINUOUS
10
9.1238865354330709
20
-3.8687709842519684
11
9.1208586614173228
21
-3.8695823228346455
0
LINE
8
B.Paste
6
CONTINUOUS
10
9.1208586614173228
20
-3.8695823228346455
11
9.1177240157480313
21
-3.8695823228346455
0
LINE
8
B.Paste
6
CONTINUOUS
10
9.1177240157480313
20
-3.8695823228346455
11
9.1146961417322832
21
-3.8687709842519684
0
LINE
8
B.Paste
6
CONTINUOUS
10
9.1146961417322832
20
-3.8687709842519684
11
9.1119814173228342
21
-3.8672036614173226
0
LINE
8
B.Paste
6
CONTINUOUS
10
9.1119814173228342
20
-3.8672036614173226
11
9.1097648425196844
21
-3.8649870866141733
0
LINE
8
B.Paste
6
CONTINUOUS
10
9.1097648425196844
20
-3.8649870866141733
11
9.1081975196850387
21
-3.8622723622047244
0
LINE
8
B.Paste
6
CONTINUOUS
10
9.1081975196850387
20
-3.8622723622047244
11
9.1073861811023615
21
-3.8592444881889763
0
LINE
8
B.Paste
6
CONTINUOUS
10
9.1073861811023615
20
-3.8592444881889763
11
9.1073861811023615
21
-3.8561098425196851
0
LINE
8
B.Paste
6
CONTINUOUS
10
9.1073861811023615
20
-3.8561098425196851
11
9.1081975196850387
21
-3.853081968503937
0
LINE
8
B.Paste
6
CONTINUOUS
10
9.1081975196850387
20
-3.853081968503937
11
9.1097648425196844
21
-3.8503672440944881
0
LINE
8
B.Paste
6
CONTINUOUS
10
9.1097648425196844
20
-3.8503672440944881
11
9.1119814173228342
21
-3.8481506692913383
0
LINE
8
B.Paste
6
CONTINUOUS
10
9.1119814173228342
20
-3.8481506692913383
11
9.1146961417322832
21
-3.846583346456693
0
LINE
8
B.Paste
6
CONTINUOUS
10
9.1146961417322832
20
-3.846583346456693
11
9.1177240157480313
21
-3.8457720078740159
0
LINE
8
B.Paste
6
CONTINUOUS
10
9.1177240157480313
20
-3.8457720078740159
11
9.1208586614173228
21
-3.8457720078740159
0
LINE
8
B.Paste
6
CONTINUOUS
10
9.1208586614173228
20
-3.8457720078740159
11
9.1238865354330709
21
-3.846583346456693
0
LINE
8
B.Paste
6
CONTINUOUS
10
9.1632566141732283
20
-3.846583346456693
11
9.1659713385826773
21
-3.8481506692913383
0
LINE
8
B.Paste
6
CONTINUOUS
10
9.1659713385826773
20
-3.8481506692913383
11
9.1681879133858271
21
-3.8503672440944881
0
LINE
8
B.Paste
6
CONTINUOUS
10
9.1681879133858271
20
-3.8503672440944881
11
9.1697552362204728
21
-3.853081968503937
0
LINE
8
B.Paste
6
CONTINUOUS
10
9.1697552362204728
20
-3.853081968503937
11
9.17056657480315
21
-3.8561098425196851
0
LINE
8
B.Paste
6
CONTINUOUS
10
9.17056657480315
20
-3.8561098425196851
11
9.17056657480315
21
-3.8592444881889763
0
LINE
8
B.Paste
6
CONTINUOUS
10
9.17056657480315
20
-3.8592444881889763
11
9.1697552362204728
21
-3.8622723622047244
0
LINE
8
B.Paste
6
CONTINUOUS
10
9.1697552362204728
20
-3.8622723622047244
11
9.1681879133858271
21
-3.8649870866141733
0
LINE
8
B.Paste
6
CONTINUOUS
10
9.1681879133858271
20
-3.8649870866141733
11
9.1659713385826773
21
-3.8672036614173226
0
LINE
8
B.Paste
6
CONTINUOUS
10
9.1659713385826773
20
-3.8672036614173226
11
9.1632566141732283
21
-3.8687709842519684
0
LINE
8
B.Paste
6
CONTINUOUS
10
9.1632566141732283
20
-3.8687709842519684
11
9.1602287401574802
21
-3.8695823228346455
0
LINE
8
B.Paste
6
CONTINUOUS
10
9.1602287401574802
20
-3.8695823228346455
11
9.1570940944881887
21
-3.8695823228346455
0
LINE
8
B.Paste
6
CONTINUOUS
10
9.1570940944881887
20
-3.8695823228346455
11
9.1540662204724406
21
-3.8687709842519684
0
LINE
8
B.Paste
6
CONTINUOUS
10
9.1540662204724406
20
-3.8687709842519684
11
9.1513514960629916
21
-3.8672036614173226
0
LINE
8
B.Paste
6
CONTINUOUS
10
9.1513514960629916
20
-3.8672036614173226
11
9.1491349212598418
21
-3.8649870866141733
0
LINE
8
B.Paste
6
CONTINUOUS
10
9.1491349212598418
20
-3.8649870866141733
11
9.1475675984251961
21
-3.8622723622047244
0
LINE
8
B.Paste
6
CONTINUOUS
10
9.1475675984251961
20
-3.8622723622047244
11
9.1467562598425189
21
-3.8592444881889763
0
LINE
8
B.Paste
6
CONTINUOUS
10
9.1467562598425189
20
-3.8592444881889763
11
9.1467562598425189
21
-3.8561098425196851
0
LINE
8
B.Paste
6
CONTINUOUS
10
9.1467562598425189
20
-3.8561098425196851
11
9.1475675984251961
21
-3.853081968503937
0
LINE
8
B.Paste
6
CONTINUOUS
10
9.1475675984251961
20
-3.853081968503937
11
9.1491349212598418
21
-3.8503672440944881
0
LINE
8
B.Paste
6
CONTINUOUS
10
9.1491349212598418
20
-3.8503672440944881
11
9.1513514960629916
21
-3.8481506692913383
0
LINE
8
B.Paste
6
CONTINUOUS
10
9.1513514960629916
20
-3.8481506692913383
11
9.1540662204724406
21
-3.846583346456693
0
LINE
8
B.Paste
6
CONTINUOUS
10
9.1540662204724406
20
-3.846583346456693
11
9.1570940944881887
21
-3.8457720078740159
0
LINE
8
B.Paste
6
CONTINUOUS
10
9.1570940944881887
20
-3.8457720078740159
11
9.1602287401574802
21
-3.8457720078740159
0
LINE
8
B.Paste
6
CONTINUOUS
10
9.1602287401574802
20
-3.8457720078740159
11
9.1632566141732283
21
-3.846583346456693
  0
ENDSEC
  0
EOF
