  0
SECTION
  2
HEADER
  9
$ANGBASE
  50
0.0
  9
$ANGDIR
  70
1
  9
$MEASUREMENT
  70
0
  9
$INSUNITS
  70
1
  0
ENDSEC
  0
SECTION
  2
TABLES
  0
TABLE
  2
LTYPE
  70
4
  0
LTYPE
  5
40F
  2
CONTINUOUS
  70
0
  3
Solid line
  72
65
  73
0
  40
0.0
  0
LTYPE
  5
410
  2
DASHDOT
 70
0
  3
Dash Dot ____ _ ____ _
 72
65
 73
4
 40
2.0
 49
1.25
 49
-0.25
 49
0.25
 49
-0.25
  0
LTYPE
  5
411
  2
DASHED
 70
0
  3
Dashed __ __ __ __ __
 72
65
 73
2
 40
0.75
 49
0.5
 49
-0.25
  0
LTYPE
  5
43B
  2
DOTTED
 70
0
  3
Dotted .  .  .  .
 72
65
 73
2
 40
0.2
 49
0.0
 49
-0.2
  0
ENDTAB
  0
TABLE
  2
STYLE
  70
4
  0
STYLE
  2
KICAD
  70
0
  40
0
  41
1
  42
1
  50
0
  71
0
  3
isocp.shx
  0
STYLE
  2
KICADB
  70
0
  40
0
  41
1
  42
1
  50
0
  71
0
  3
isocp.shx
  0
STYLE
  2
KICADI
  70
0
  40
0
  41
1
  42
1
  50
15
  71
0
  3
isocp.shx
  0
STYLE
  2
KICADBI
  70
0
  40
0
  41
1
  42
1
  50
15
  71
0
  3
isocp.shx
  0
ENDTAB
  0
TABLE
  2
LAYER
  70
11
  0
LAYER
  2
F.Cu
  70
0
  62
13
  420
13120564
  6
CONTINUOUS
  0
LAYER
  2
In1.Cu
  70
0
  62
91
  420
8374399
  6
CONTINUOUS
  0
LAYER
  2
In2.Cu
  70
0
  62
33
  420
13532460
  6
CONTINUOUS
  0
LAYER
  2
B.Cu
  70
0
  62
153
  420
5078980
  6
CONTINUOUS
  0
LAYER
  2
F.Paste
  70
0
  62
253
  420
11837594
  6
CONTINUOUS
  0
LAYER
  2
B.Paste
  70
0
  62
132
  420
49858
  6
CONTINUOUS
  0
LAYER
  2
F.Silkscreen
  70
0
  62
41
  420
15920545
  6
CONTINUOUS
  0
LAYER
  2
B.Silkscreen
  70
0
  62
31
  420
15250087
  6
CONTINUOUS
  0
LAYER
  2
F.Mask
  70
0
  62
201
  420
14181631
  6
CONTINUOUS
  0
LAYER
  2
B.Mask
  70
0
  62
4
  420
196590
  6
CONTINUOUS
  0
LAYER
  2
Edge.Cuts
  70
0
  62
254
  420
13685453
  6
CONTINUOUS
  0
ENDTAB
  0
ENDSEC
  0
SECTION
  2
ENTITIES
0
LINE
8
Edge.Cuts
6
CONTINUOUS
10
17.8994488188976391
20
-4.0032480314960628
11
17.9123173622047247
21
-4.0039224409448817
0
LINE
8
Edge.Cuts
6
CONTINUOUS
10
17.9123173622047247
20
-4.0039224409448817
11
17.9250448818897645
21
-4.0059383070866144
0
LINE
8
Edge.Cuts
6
CONTINUOUS
10
17.9250448818897645
20
-4.0059383070866144
11
17.937491968503938
21
-4.009273503937008
0
LINE
8
Edge.Cuts
6
CONTINUOUS
10
17.937491968503938
20
-4.009273503937008
11
17.9495222440944886
21
-4.0138914960629917
0
LINE
8
Edge.Cuts
6
CONTINUOUS
10
17.9495222440944886
20
-4.0138914960629917
11
17.9610039370078738
21
-4.019741692913386
0
LINE
8
Edge.Cuts
6
CONTINUOUS
10
17.9610039370078738
20
-4.019741692913386
11
17.9718111811023604
21
-4.0267600000000003
0
LINE
8
Edge.Cuts
6
CONTINUOUS
10
17.9718111811023604
20
-4.0267600000000003
11
17.9818256299212607
21
-4.0348695275590547
0
LINE
8
Edge.Cuts
6
CONTINUOUS
10
17.9818256299212607
20
-4.0348695275590547
11
17.9909375590551193
21
-4.0439814566929133
0
LINE
8
Edge.Cuts
6
CONTINUOUS
10
17.9909375590551193
20
-4.0439814566929133
11
17.9990470866141727
21
-4.0539959055118109
0
LINE
8
Edge.Cuts
6
CONTINUOUS
10
17.9990470866141727
20
-4.0539959055118109
11
18.0060653937007871
21
-4.0648031496062993
0
LINE
8
Edge.Cuts
6
CONTINUOUS
10
18.0060653937007871
20
-4.0648031496062993
11
18.0119155905511796
21
-4.0762848425196854
0
LINE
8
Edge.Cuts
6
CONTINUOUS
10
18.0119155905511796
20
-4.0762848425196854
11
18.016533582677166
21
-4.088315118110236
0
LINE
8
Edge.Cuts
6
CONTINUOUS
10
18.016533582677166
20
-4.088315118110236
11
18.0198687795275596
21
-4.1007622047244094
0
LINE
8
Edge.Cuts
6
CONTINUOUS
10
18.0198687795275596
20
-4.1007622047244094
11
18.0218846456692923
21
-4.1134897244094484
0
LINE
8
Edge.Cuts
6
CONTINUOUS
10
18.0218846456692923
20
-4.1134897244094484
11
18.0225590551181085
21
-4.1263582677165349
0
LINE
8
Edge.Cuts
6
CONTINUOUS
10
18.0225590551181085
20
-4.1263582677165349
11
18.0225590551181085
21
-6.2523425196850395
0
LINE
8
Edge.Cuts
6
CONTINUOUS
10
18.0225590551181085
20
-6.2523425196850395
11
18.0218846456692923
21
-6.265211062992126
0
LINE
8
Edge.Cuts
6
CONTINUOUS
10
18.0218846456692923
20
-6.265211062992126
11
18.0198687795275596
21
-6.277938582677165
0
LINE
8
Edge.Cuts
6
CONTINUOUS
10
18.0198687795275596
20
-6.277938582677165
11
18.016533582677166
21
-6.2903856692913385
0
LINE
8
Edge.Cuts
6
CONTINUOUS
10
18.016533582677166
20
-6.2903856692913385
11
18.0119155905511796
21
-6.3024159448818899
0
LINE
8
Edge.Cuts
6
CONTINUOUS
10
18.0119155905511796
20
-6.3024159448818899
11
18.0060653937007871
21
-6.3138976377952751
0
LINE
8
Edge.Cuts
6
CONTINUOUS
10
18.0060653937007871
20
-6.3138976377952751
11
17.9990470866141727
21
-6.3247048818897635
0
LINE
8
Edge.Cuts
6
CONTINUOUS
10
17.9990470866141727
20
-6.3247048818897635
11
17.9909375590551193
21
-6.3347193307086611
0
LINE
8
Edge.Cuts
6
CONTINUOUS
10
17.9909375590551193
20
-6.3347193307086611
11
17.9818256299212607
21
-6.3438312598425197
0
LINE
8
Edge.Cuts
6
CONTINUOUS
10
17.9818256299212607
20
-6.3438312598425197
11
17.9718111811023604
21
-6.351940787401575
0
LINE
8
Edge.Cuts
6
CONTINUOUS
10
17.9718111811023604
20
-6.351940787401575
11
17.9610039370078738
21
-6.3589590944881884
0
LINE
8
Edge.Cuts
6
CONTINUOUS
10
17.9610039370078738
20
-6.3589590944881884
11
17.9495222440944886
21
-6.3648092913385828
0
LINE
8
Edge.Cuts
6
CONTINUOUS
10
17.9495222440944886
20
-6.3648092913385828
11
17.937491968503938
21
-6.3694272834645664
0
LINE
8
Edge.Cuts
6
CONTINUOUS
10
17.937491968503938
20
-6.3694272834645664
11
17.9250448818897645
21
-6.3727624803149601
0
LINE
8
Edge.Cuts
6
CONTINUOUS
10
17.9250448818897645
20
-6.3727624803149601
11
17.9123173622047247
21
-6.3747783464566927
0
LINE
8
Edge.Cuts
6
CONTINUOUS
10
17.9123173622047247
20
-6.3747783464566927
11
17.8994488188976391
21
-6.3754527559055116
0
LINE
8
Edge.Cuts
6
CONTINUOUS
10
17.8994488188976391
20
-6.3754527559055116
11
14.1986614173228336
21
-6.3754527559055116
0
LINE
8
Edge.Cuts
6
CONTINUOUS
10
14.1986614173228336
20
-6.3754527559055116
11
14.185792874015748
21
-6.3747783464566927
0
LINE
8
Edge.Cuts
6
CONTINUOUS
10
14.185792874015748
20
-6.3747783464566927
11
14.1730653543307081
21
-6.3727624803149601
0
LINE
8
Edge.Cuts
6
CONTINUOUS
10
14.1730653543307081
20
-6.3727624803149601
11
14.1606182677165346
21
-6.3694272834645664
0
LINE
8
Edge.Cuts
6
CONTINUOUS
10
14.1606182677165346
20
-6.3694272834645664
11
14.1485879921259841
21
-6.3648092913385828
0
LINE
8
Edge.Cuts
6
CONTINUOUS
10
14.1485879921259841
20
-6.3648092913385828
11
14.1371062992125989
21
-6.3589590944881884
0
LINE
8
Edge.Cuts
6
CONTINUOUS
10
14.1371062992125989
20
-6.3589590944881884
11
14.1262990551181105
21
-6.351940787401575
0
LINE
8
Edge.Cuts
6
CONTINUOUS
10
14.1262990551181105
20
-6.351940787401575
11
14.116284606299212
21
-6.3438312598425197
0
LINE
8
Edge.Cuts
6
CONTINUOUS
10
14.116284606299212
20
-6.3438312598425197
11
14.1071726771653534
21
-6.3347193307086611
0
LINE
8
Edge.Cuts
6
CONTINUOUS
10
14.1071726771653534
20
-6.3347193307086611
11
14.0990631496062981
21
-6.3247048818897635
0
LINE
8
Edge.Cuts
6
CONTINUOUS
10
14.0990631496062981
20
-6.3247048818897635
11
14.0920448425196856
21
-6.3138976377952751
0
LINE
8
Edge.Cuts
6
CONTINUOUS
10
14.0920448425196856
20
-6.3138976377952751
11
14.0861946456692912
21
-6.3024159448818899
0
LINE
8
Edge.Cuts
6
CONTINUOUS
10
14.0861946456692912
20
-6.3024159448818899
11
14.0815766535433067
21
-6.2903856692913385
0
LINE
8
Edge.Cuts
6
CONTINUOUS
10
14.0815766535433067
20
-6.2903856692913385
11
14.078241456692913
21
-6.277938582677165
0
LINE
8
Edge.Cuts
6
CONTINUOUS
10
14.078241456692913
20
-6.277938582677165
11
14.0762255905511804
21
-6.265211062992126
0
LINE
8
Edge.Cuts
6
CONTINUOUS
10
14.0762255905511804
20
-6.265211062992126
11
14.0755511811023624
21
-6.2523425196850395
0
LINE
8
Edge.Cuts
6
CONTINUOUS
10
14.0755511811023624
20
-6.2523425196850395
11
14.0755511811023624
21
-4.1263582677165349
0
LINE
8
Edge.Cuts
6
CONTINUOUS
10
14.0755511811023624
20
-4.1263582677165349
11
14.0762255905511804
21
-4.1134897244094484
0
LINE
8
Edge.Cuts
6
CONTINUOUS
10
14.0762255905511804
20
-4.1134897244094484
11
14.078241456692913
21
-4.1007622047244094
0
LINE
8
Edge.Cuts
6
CONTINUOUS
10
14.078241456692913
20
-4.1007622047244094
11
14.0815766535433067
21
-4.088315118110236
0
LINE
8
Edge.Cuts
6
CONTINUOUS
10
14.0815766535433067
20
-4.088315118110236
11
14.0861946456692912
21
-4.0762848425196854
0
LINE
8
Edge.Cuts
6
CONTINUOUS
10
14.0861946456692912
20
-4.0762848425196854
11
14.0920448425196856
21
-4.0648031496062993
0
LINE
8
Edge.Cuts
6
CONTINUOUS
10
14.0920448425196856
20
-4.0648031496062993
11
14.0990631496062981
21
-4.0539959055118109
0
LINE
8
Edge.Cuts
6
CONTINUOUS
10
14.0990631496062981
20
-4.0539959055118109
11
14.1071726771653534
21
-4.0439814566929133
0
LINE
8
Edge.Cuts
6
CONTINUOUS
10
14.1071726771653534
20
-4.0439814566929133
11
14.116284606299212
21
-4.0348695275590547
0
LINE
8
Edge.Cuts
6
CONTINUOUS
10
14.116284606299212
20
-4.0348695275590547
11
14.1262990551181105
21
-4.0267600000000003
0
LINE
8
Edge.Cuts
6
CONTINUOUS
10
14.1262990551181105
20
-4.0267600000000003
11
14.1371062992125989
21
-4.019741692913386
0
LINE
8
Edge.Cuts
6
CONTINUOUS
10
14.1371062992125989
20
-4.019741692913386
11
14.1485879921259841
21
-4.0138914960629917
0
LINE
8
Edge.Cuts
6
CONTINUOUS
10
14.1485879921259841
20
-4.0138914960629917
11
14.1606182677165346
21
-4.009273503937008
0
LINE
8
Edge.Cuts
6
CONTINUOUS
10
14.1606182677165346
20
-4.009273503937008
11
14.1730653543307081
21
-4.0059383070866144
0
LINE
8
Edge.Cuts
6
CONTINUOUS
10
14.1730653543307081
20
-4.0059383070866144
11
14.185792874015748
21
-4.0039224409448817
0
LINE
8
Edge.Cuts
6
CONTINUOUS
10
14.185792874015748
20
-4.0039224409448817
11
14.1986614173228336
21
-4.0032480314960628
0
LINE
8
Edge.Cuts
6
CONTINUOUS
10
14.1986614173228336
20
-4.0032480314960628
11
17.8994488188976391
21
-4.0032480314960628
0
LINE
8
Edge.Cuts
6
CONTINUOUS
10
14.1986614173228336
20
-4.0132480314960626
11
14.1923092913385815
21
-4.0132480314960626
0
LINE
8
Edge.Cuts
6
CONTINUOUS
10
14.1923092913385815
20
-4.0132480314960626
11
14.1796848818897629
21
-4.0146704724409448
0
LINE
8
Edge.Cuts
6
CONTINUOUS
10
14.1796848818897629
20
-4.0146704724409448
11
14.1672991338582666
21
-4.017497440944882
0
LINE
8
Edge.Cuts
6
CONTINUOUS
10
14.1672991338582666
20
-4.017497440944882
11
14.1553077952755899
21
-4.0216933858267714
0
LINE
8
Edge.Cuts
6
CONTINUOUS
10
14.1553077952755899
20
-4.0216933858267714
11
14.1438616535433059
21
-4.027205551181102
0
LINE
8
Edge.Cuts
6
CONTINUOUS
10
14.1438616535433059
20
-4.027205551181102
11
14.1331046456692917
21
-4.0339646456692915
0
LINE
8
Edge.Cuts
6
CONTINUOUS
10
14.1331046456692917
20
-4.0339646456692915
11
14.1231720472440934
21
-4.0418856299212598
0
LINE
8
Edge.Cuts
6
CONTINUOUS
10
14.1231720472440934
20
-4.0418856299212598
11
14.1141887795275593
21
-4.0508688976377956
0
LINE
8
Edge.Cuts
6
CONTINUOUS
10
14.1141887795275593
20
-4.0508688976377956
11
14.1062677952755902
21
-4.0608014960629921
0
LINE
8
Edge.Cuts
6
CONTINUOUS
10
14.1062677952755902
20
-4.0608014960629921
11
14.0995087007874016
21
-4.0715585039370081
0
LINE
8
Edge.Cuts
6
CONTINUOUS
10
14.0995087007874016
20
-4.0715585039370081
11
14.093996535433071
21
-4.0830046456692912
0
LINE
8
Edge.Cuts
6
CONTINUOUS
10
14.093996535433071
20
-4.0830046456692912
11
14.0898005905511816
21
-4.0949959842519688
0
LINE
8
Edge.Cuts
6
CONTINUOUS
10
14.0898005905511816
20
-4.0949959842519688
11
14.0869736220472443
21
-4.1073817322834643
0
LINE
8
Edge.Cuts
6
CONTINUOUS
10
14.0869736220472443
20
-4.1073817322834643
11
14.0855511811023622
21
-4.1200061417322837
0
LINE
8
Edge.Cuts
6
CONTINUOUS
10
14.0855511811023622
20
-4.1200061417322837
11
14.0855511811023622
21
-4.1263582677165349
0
LINE
8
Edge.Cuts
6
CONTINUOUS
10
14.0855511811023622
20
-4.1263582677165349
11
14.0855511811023622
21
-6.2523425196850395
0
LINE
8
Edge.Cuts
6
CONTINUOUS
10
14.0855511811023622
20
-6.2523425196850395
11
14.0855511811023622
21
-6.2586946456692916
0
LINE
8
Edge.Cuts
6
CONTINUOUS
10
14.0855511811023622
20
-6.2586946456692916
11
14.0869736220472443
21
-6.2713190551181102
0
LINE
8
Edge.Cuts
6
CONTINUOUS
10
14.0869736220472443
20
-6.2713190551181102
11
14.0898005905511816
21
-6.2837048031496066
0
LINE
8
Edge.Cuts
6
CONTINUOUS
10
14.0898005905511816
20
-6.2837048031496066
11
14.093996535433071
21
-6.2956961417322832
0
LINE
8
Edge.Cuts
6
CONTINUOUS
10
14.093996535433071
20
-6.2956961417322832
11
14.0995087007874016
21
-6.3071422834645672
0
LINE
8
Edge.Cuts
6
CONTINUOUS
10
14.0995087007874016
20
-6.3071422834645672
11
14.1062677952755902
21
-6.3178992913385823
0
LINE
8
Edge.Cuts
6
CONTINUOUS
10
14.1062677952755902
20
-6.3178992913385823
11
14.1141887795275593
21
-6.3278318897637797
0
LINE
8
Edge.Cuts
6
CONTINUOUS
10
14.1141887795275593
20
-6.3278318897637797
11
14.1231720472440934
21
-6.3368151574803147
0
LINE
8
Edge.Cuts
6
CONTINUOUS
10
14.1231720472440934
20
-6.3368151574803147
11
14.1331046456692917
21
-6.344736141732283
0
LINE
8
Edge.Cuts
6
CONTINUOUS
10
14.1331046456692917
20
-6.344736141732283
11
14.1438616535433059
21
-6.3514952362204724
0
LINE
8
Edge.Cuts
6
CONTINUOUS
10
14.1438616535433059
20
-6.3514952362204724
11
14.1553077952755899
21
-6.357007401574803
0
LINE
8
Edge.Cuts
6
CONTINUOUS
10
14.1553077952755899
20
-6.357007401574803
11
14.1672991338582666
21
-6.3612033464566924
0
LINE
8
Edge.Cuts
6
CONTINUOUS
10
14.1672991338582666
20
-6.3612033464566924
11
14.1796848818897629
21
-6.3640303149606297
0
LINE
8
Edge.Cuts
6
CONTINUOUS
10
14.1796848818897629
20
-6.3640303149606297
11
14.1923092913385815
21
-6.3654527559055119
0
LINE
8
Edge.Cuts
6
CONTINUOUS
10
14.1923092913385815
20
-6.3654527559055119
11
14.1986614173228336
21
-6.3654527559055119
0
LINE
8
Edge.Cuts
6
CONTINUOUS
10
14.1986614173228336
20
-6.3654527559055119
11
17.8994488188976391
21
-6.3654527559055119
0
LINE
8
Edge.Cuts
6
CONTINUOUS
10
17.8994488188976391
20
-6.3654527559055119
11
17.9058009448818893
21
-6.3654527559055119
0
LINE
8
Edge.Cuts
6
CONTINUOUS
10
17.9058009448818893
20
-6.3654527559055119
11
17.9184253543307079
21
-6.3640303149606297
0
LINE
8
Edge.Cuts
6
CONTINUOUS
10
17.9184253543307079
20
-6.3640303149606297
11
17.9308111023622025
21
-6.3612033464566924
0
LINE
8
Edge.Cuts
6
CONTINUOUS
10
17.9308111023622025
20
-6.3612033464566924
11
17.942802440944881
21
-6.357007401574803
0
LINE
8
Edge.Cuts
6
CONTINUOUS
10
17.942802440944881
20
-6.357007401574803
11
17.9542485826771632
21
-6.3514952362204724
0
LINE
8
Edge.Cuts
6
CONTINUOUS
10
17.9542485826771632
20
-6.3514952362204724
11
17.9650055905511792
21
-6.344736141732283
0
LINE
8
Edge.Cuts
6
CONTINUOUS
10
17.9650055905511792
20
-6.344736141732283
11
17.9749381889763775
21
-6.3368151574803147
0
LINE
8
Edge.Cuts
6
CONTINUOUS
10
17.9749381889763775
20
-6.3368151574803147
11
17.9839214566929115
21
-6.3278318897637797
0
LINE
8
Edge.Cuts
6
CONTINUOUS
10
17.9839214566929115
20
-6.3278318897637797
11
17.9918424409448825
21
-6.3178992913385823
0
LINE
8
Edge.Cuts
6
CONTINUOUS
10
17.9918424409448825
20
-6.3178992913385823
11
17.9986015354330711
21
-6.3071422834645672
0
LINE
8
Edge.Cuts
6
CONTINUOUS
10
17.9986015354330711
20
-6.3071422834645672
11
18.0041137007873999
21
-6.2956961417322832
0
LINE
8
Edge.Cuts
6
CONTINUOUS
10
18.0041137007873999
20
-6.2956961417322832
11
18.0083096456692893
21
-6.2837048031496066
0
LINE
8
Edge.Cuts
6
CONTINUOUS
10
18.0083096456692893
20
-6.2837048031496066
11
18.0111366141732283
21
-6.2713190551181102
0
LINE
8
Edge.Cuts
6
CONTINUOUS
10
18.0111366141732283
20
-6.2713190551181102
11
18.0125590551181105
21
-6.2586946456692916
0
LINE
8
Edge.Cuts
6
CONTINUOUS
10
18.0125590551181105
20
-6.2586946456692916
11
18.0125590551181105
21
-6.2523425196850395
0
LINE
8
Edge.Cuts
6
CONTINUOUS
10
18.0125590551181105
20
-6.2523425196850395
11
18.0125590551181105
21
-4.1263582677165349
0
LINE
8
Edge.Cuts
6
CONTINUOUS
10
18.0125590551181105
20
-4.1263582677165349
11
18.0125590551181105
21
-4.1200061417322837
0
LINE
8
Edge.Cuts
6
CONTINUOUS
10
18.0125590551181105
20
-4.1200061417322837
11
18.0111366141732283
21
-4.1073817322834643
0
LINE
8
Edge.Cuts
6
CONTINUOUS
10
18.0111366141732283
20
-4.1073817322834643
11
18.0083096456692893
21
-4.0949959842519688
0
LINE
8
Edge.Cuts
6
CONTINUOUS
10
18.0083096456692893
20
-4.0949959842519688
11
18.0041137007873999
21
-4.0830046456692912
0
LINE
8
Edge.Cuts
6
CONTINUOUS
10
18.0041137007873999
20
-4.0830046456692912
11
17.9986015354330711
21
-4.0715585039370081
0
LINE
8
Edge.Cuts
6
CONTINUOUS
10
17.9986015354330711
20
-4.0715585039370081
11
17.9918424409448825
21
-4.0608014960629921
0
LINE
8
Edge.Cuts
6
CONTINUOUS
10
17.9918424409448825
20
-4.0608014960629921
11
17.9839214566929115
21
-4.0508688976377956
0
LINE
8
Edge.Cuts
6
CONTINUOUS
10
17.9839214566929115
20
-4.0508688976377956
11
17.9749381889763775
21
-4.0418856299212598
0
LINE
8
Edge.Cuts
6
CONTINUOUS
10
17.9749381889763775
20
-4.0418856299212598
11
17.9650055905511792
21
-4.0339646456692915
0
LINE
8
Edge.Cuts
6
CONTINUOUS
10
17.9650055905511792
20
-4.0339646456692915
11
17.9542485826771632
21
-4.027205551181102
0
LINE
8
Edge.Cuts
6
CONTINUOUS
10
17.9542485826771632
20
-4.027205551181102
11
17.942802440944881
21
-4.0216933858267714
0
LINE
8
Edge.Cuts
6
CONTINUOUS
10
17.942802440944881
20
-4.0216933858267714
11
17.9308111023622025
21
-4.017497440944882
0
LINE
8
Edge.Cuts
6
CONTINUOUS
10
17.9308111023622025
20
-4.017497440944882
11
17.9184253543307079
21
-4.0146704724409448
0
LINE
8
Edge.Cuts
6
CONTINUOUS
10
17.9184253543307079
20
-4.0146704724409448
11
17.9058009448818893
21
-4.0132480314960626
0
LINE
8
Edge.Cuts
6
CONTINUOUS
10
17.9058009448818893
20
-4.0132480314960626
11
17.8994488188976391
21
-4.0132480314960626
0
LINE
8
Edge.Cuts
6
CONTINUOUS
10
17.8994488188976391
20
-4.0132480314960626
11
14.1986614173228336
21
-4.0132480314960626
0
LINE
8
Edge.Cuts
6
CONTINUOUS
10
7.1342349212598419
20
-1.3140512992125983
11
7.1347675984251966
21
-1.3145839763779528
0
LINE
8
Edge.Cuts
6
CONTINUOUS
10
7.1347675984251966
20
-1.3145839763779528
11
7.1348425196850389
21
-1.3149606299212597
0
LINE
8
Edge.Cuts
6
CONTINUOUS
10
7.1348425196850389
20
-1.3149606299212597
11
7.1348425196850389
21
-4.0984251968503935
0
LINE
8
Edge.Cuts
6
CONTINUOUS
10
7.1348425196850389
20
-4.0984251968503935
11
7.1347675984251966
21
-4.0988018503937003
0
LINE
8
Edge.Cuts
6
CONTINUOUS
10
7.1347675984251966
20
-4.0988018503937003
11
7.1342349212598419
21
-4.0993345275590549
0
LINE
8
Edge.Cuts
6
CONTINUOUS
10
7.1342349212598419
20
-4.0993345275590549
11
7.1338582677165352
21
-4.0994094488188972
0
LINE
8
Edge.Cuts
6
CONTINUOUS
10
7.1338582677165352
20
-4.0994094488188972
11
5.7874015748031491
21
-4.0994094488188972
0
LINE
8
Edge.Cuts
6
CONTINUOUS
10
5.7874015748031491
20
-4.0994094488188972
11
5.7870249212598424
21
-4.0993345275590549
0
LINE
8
Edge.Cuts
6
CONTINUOUS
10
5.7870249212598424
20
-4.0993345275590549
11
5.7864922440944877
21
-4.0988018503937003
0
LINE
8
Edge.Cuts
6
CONTINUOUS
10
5.7864922440944877
20
-4.0988018503937003
11
5.7864173228346454
21
-4.0984251968503935
0
LINE
8
Edge.Cuts
6
CONTINUOUS
10
5.7864173228346454
20
-4.0984251968503935
11
5.7864173228346454
21
-1.3149606299212597
0
LINE
8
Edge.Cuts
6
CONTINUOUS
10
5.7864173228346454
20
-1.3149606299212597
11
5.7864922440944877
21
-1.3145839763779528
0
LINE
8
Edge.Cuts
6
CONTINUOUS
10
5.7864922440944877
20
-1.3145839763779528
11
5.7870249212598424
21
-1.3140512992125983
0
LINE
8
Edge.Cuts
6
CONTINUOUS
10
5.7870249212598424
20
-1.3140512992125983
11
5.7874015748031491
21
-1.3139763779527558
0
LINE
8
Edge.Cuts
6
CONTINUOUS
10
5.7874015748031491
20
-1.3139763779527558
11
7.1338582677165352
21
-1.3139763779527558
0
LINE
8
Edge.Cuts
6
CONTINUOUS
10
7.1338582677165352
20
-1.3139763779527558
11
7.1342349212598419
21
-1.3140512992125983
0
LINE
8
Edge.Cuts
6
CONTINUOUS
10
5.7883858267716537
20
-1.3159448818897637
11
5.7883858267716537
21
-4.0974409448818898
0
LINE
8
Edge.Cuts
6
CONTINUOUS
10
5.7883858267716537
20
-4.0974409448818898
11
7.1328740157480315
21
-4.0974409448818898
0
LINE
8
Edge.Cuts
6
CONTINUOUS
10
7.1328740157480315
20
-4.0974409448818898
11
7.1328740157480315
21
-1.3159448818897637
0
LINE
8
Edge.Cuts
6
CONTINUOUS
10
7.1328740157480315
20
-1.3159448818897637
11
5.7883858267716537
21
-1.3159448818897637
  0
ENDSEC
  0
EOF
